<?xml version="1.0" encoding="UTF-8"?> <!-- Generator: Adobe Illustrator 23.0.4, SVG Export Plug-In . SVG Version: 6.00 Build 0) --> <svg xmlns="http://www.w3.org/2000/svg" xmlns:xlink="http://www.w3.org/1999/xlink" x="0px" y="0px" viewBox="0 0 434.4 380.3" style="enable-background:new 0 0 434.4 380.3;" xml:space="preserve"> <style type="text/css"> .st0{fill:#231F20;} .st1{fill-rule:evenodd;clip-rule:evenodd;fill:#EB212E;} .st2{fill-rule:evenodd;clip-rule:evenodd;fill:#004A76;} .st3{fill-rule:evenodd;clip-rule:evenodd;fill:#F4A200;} .st4{fill-rule:evenodd;clip-rule:evenodd;fill:#FFFFFF;} .st5{fill-rule:evenodd;clip-rule:evenodd;fill:#1B1C20;} .st6{fill-rule:evenodd;clip-rule:evenodd;fill:none;stroke:#FFFFFF;stroke-width:2;stroke-miterlimit:10;} .st7{fill:#FFFFFF;} .st8{fill:#EC1C24;} .st9{fill:#7FB439;} .st10{fill:#F9A51A;} .st11{fill:#F6B433;} .st12{fill:#004A76;} .st13{fill:#F9A61A;} .st14{fill:#240036;} .st15{fill:#FEFEFD;} .st16{fill:#F8B5A7;} .st17{fill:#F4A200;} .st18{fill:#45423F;} .st19{fill:none;stroke:#484441;stroke-width:0.7177;stroke-linecap:round;stroke-linejoin:round;stroke-miterlimit:10;} .st20{fill:none;stroke:#D95F73;stroke-width:0.7177;stroke-linecap:round;stroke-linejoin:round;stroke-miterlimit:10;} .st21{fill:#D95F73;} .st22{fill:#02394F;} .st23{fill:#C41627;} .st24{fill:#F99200;} .st25{fill:#E3E7EB;} .st26{fill:#F8B5A8;} .st27{fill:#3A3B39;} .st28{fill:#FFFFFE;} .st29{fill:#FA9200;} .st30{fill:#8DB300;} .st31{fill:#484441;} .st32{fill:none;stroke:#484441;stroke-width:0.1897;stroke-linecap:round;stroke-linejoin:round;stroke-miterlimit:10;} .st33{fill:none;stroke:#D95F73;stroke-width:0.2529;stroke-linecap:round;stroke-linejoin:round;stroke-miterlimit:10;} .st34{fill:#585755;} .st35{fill:#B3B8BC;} .st36{fill:#EB212E;} .st37{fill:#EC1C24;stroke:#EC1C24;stroke-width:0.5;stroke-miterlimit:10;} .st38{clip-path:url(#SVGID_2_);fill-rule:evenodd;clip-rule:evenodd;fill:#FFFFFF;} .st39{clip-path:url(#SVGID_2_);fill-rule:evenodd;clip-rule:evenodd;fill:#8DB300;} .st40{fill:none;stroke:#FFFFFF;stroke-width:2;stroke-miterlimit:10;} .st41{fill-rule:evenodd;clip-rule:evenodd;fill:#8DB300;} .st42{fill:none;stroke:#3A3B39;stroke-width:5;stroke-miterlimit:10;} .st43{fill:#DD968A;} .st44{fill:#F6A7A1;} .st45{fill:#F7B5A7;} .st46{fill:#DD8E03;} .st47{fill:none;stroke:#484441;stroke-width:0.75;stroke-linecap:round;stroke-linejoin:round;stroke-miterlimit:10;} .st48{fill:none;stroke:#D95F73;stroke-linecap:round;stroke-linejoin:round;stroke-miterlimit:10;} .st49{clip-path:url(#SVGID_4_);fill:#E3E7EB;} .st50{clip-path:url(#SVGID_4_);fill:#FEFEFD;} .st51{clip-path:url(#SVGID_4_);fill:#B3B8BC;} .st52{clip-path:url(#SVGID_4_);} .st53{clip-path:url(#SVGID_4_);fill:#F4A200;} .st54{clip-path:url(#SVGID_4_);fill:#004A76;} .st55{clip-path:url(#SVGID_4_);fill:#FDFEFD;} .st56{clip-path:url(#SVGID_4_);fill:#F8B6A8;} .st57{clip-path:url(#SVGID_4_);fill:#F8B5A7;} .st58{clip-path:url(#SVGID_4_);fill:#8DB300;} .st59{fill:#FDFEFD;} .st60{fill:none;stroke:#484441;stroke-width:0.4426;stroke-linecap:round;stroke-linejoin:round;stroke-miterlimit:10;} .st61{fill:none;stroke:#D95F73;stroke-width:0.4426;stroke-linecap:round;stroke-linejoin:round;stroke-miterlimit:10;} .st62{fill:none;stroke:#484441;stroke-width:0.4642;stroke-linecap:round;stroke-linejoin:round;stroke-miterlimit:10;} .st63{fill:none;stroke:#D95F73;stroke-width:0.4642;stroke-linecap:round;stroke-linejoin:round;stroke-miterlimit:10;} .st64{fill:#97C5B6;} .st65{fill:none;stroke:#484441;stroke-width:0.35;stroke-linecap:round;stroke-linejoin:round;stroke-miterlimit:10;} .st66{fill:#EC6883;} .st67{fill:#EA5372;} .st68{fill:#799600;} .st69{fill:#CF4463;} .st70{fill:none;stroke:#D95F73;stroke-width:0.35;stroke-linecap:round;stroke-linejoin:round;stroke-miterlimit:10;} .st71{fill:#3B3C3A;} .st72{fill:none;stroke:#3A3B39;stroke-width:2.8625;stroke-miterlimit:10;} .st73{fill:#403F3A;} .st74{fill:#FAF5EE;} .st75{fill:none;stroke:#D95F73;stroke-width:0.4568;stroke-linecap:round;stroke-linejoin:round;stroke-miterlimit:10;} </style> <g id="Layer_2"> </g> <g id="Layer_1"> <path class="st42" d="M28,189.9c0,0-1.5,18,1.9,36.7c3.3,18.6,15.1,28.2,15.1,28.2"></path> <line class="st42" x1="70.5" y1="266.8" x2="70.5" y2="336.6"></line> <path class="st42" d="M414.1,207.9c0,0-3.1,18.7-10.3,29.1c-10.7,15.6-20.8,22.5-20.8,22.5"></path> <line class="st42" x1="355.4" y1="266.8" x2="355.4" y2="336.6"></line> <path class="st34" d="M415.7,164.4c0,0,15.5,3.9,13.7,25c-2.2,25.3-25,23.6-26.8,24.3c-1.8,0.6,5.3-31.3,5.3-31.3L415.7,164.4z"></path> <path class="st34" d="M320.8,254.8c0,0,7.2,15.9,34.9,15.2s31.3-7.5,31.5-9.2c0.2-1.8,0.2-12.7-1.7-14.2 c-1.9-1.6-37.4-2.5-37.4-2.5L320.8,254.8z"></path> <circle class="st27" cx="351.7" cy="350.4" r="3.5"></circle> <circle class="st27" cx="380.2" cy="346.2" r="3.5"></circle> <circle class="st27" cx="326.7" cy="346" r="3.5"></circle> <path class="st27" d="M354.4,334.1c-2.8,0.2-12.7,1.6-16.5,3.2c-2.4,1.1-7.4,2.1-10.7,3.5c-2.5,1-3.8,3-3.7,4.3 c0.2,1.3,1.7,0.5,1.7,0.3c-0.1-0.2,2.3-2.5,2.3-2.5s0.8-1,5-2c1.6-0.4,2.2-0.4,2.2-0.4s0.6,3.2,4.3,3.3c3.7,0.2,15.4-0.1,22-0.4 c11.3-0.5,12.8-7.6,6.9-8.5C361.7,334.1,359.3,333.8,354.4,334.1z"></path> <path class="st27" d="M348,342.2c-0.1,0.2-1.6,4.1-1.1,6.6c0.5,2.5,1.1,3.3,2.1,3.8c1,0.5,1.4-0.9,1.4-0.9s-0.6-3.1-0.7-3.1 c-0.2,0-0.9-0.5-0.3-2.2c0.6-1.7,2.1-4.7,2.1-4.7L348,342.2z"></path> <path class="st27" d="M368.8,337.5c0,0,7.8,2,10.8,3.2c3.1,1.2,4.5,4,4.1,5.7c-0.4,1.7-2-0.7-2.3-1c-0.3-0.3,0-2.5-3.2-3.3 c-3.2-0.8-13.1-2.8-13.1-2.8L368.8,337.5z"></path> <path class="st34" d="M27.9,141.6c0,0-22.9,10.6-21.1,31.7c2.2,25.3,18.6,31.3,20.3,31.9c1.8,0.6,8.5-45.7,8.5-45.7L27.9,141.6z"></path> <path class="st34" d="M106.6,256.1c0,0-7.2,15.9-34.9,15.2c-27.8-0.6-31.3-7.5-31.5-9.2c-0.2-1.8-0.2-12.7,1.7-14.2 c1.9-1.6,37.4-2.5,37.4-2.5L106.6,256.1z"></path> <circle class="st27" cx="69.7" cy="350.4" r="3.5"></circle> <circle class="st27" cx="45.8" cy="346.2" r="3.5"></circle> <circle class="st27" cx="99.3" cy="346" r="3.5"></circle> <path class="st27" d="M71.6,334.1c2.8,0.2,12.7,1.6,16.5,3.2c2.4,1.1,7.4,2.1,10.7,3.5c2.5,1,3.8,3,3.7,4.3 c-0.2,1.3-1.7,0.5-1.7,0.3c0.1-0.2-2.3-2.5-2.3-2.5s-0.8-1-5-2c-1.6-0.4-2.2-0.4-2.2-0.4s-0.6,3.2-4.3,3.3 c-3.7,0.2-15.4-0.1-22-0.4c-11.3-0.5-12.8-7.6-6.9-8.5C64.3,334.1,66.7,333.8,71.6,334.1z"></path> <path class="st27" d="M65.9,342.2c-0.1,0.2-1.6,4.1-1.1,6.6c0.5,2.5,1.1,3.3,2.1,3.8c1,0.5,1.4-0.9,1.4-0.9s-0.6-3.1-0.7-3.1 c-0.2,0-0.9-0.5-0.3-2.2c0.6-1.7,2.1-4.7,2.1-4.7L65.9,342.2z"></path> <path class="st27" d="M57.2,337.5c0,0-7.8,2-10.8,3.2c-3.1,1.2-4.5,4-4.1,5.7c0.4,1.7,2-0.7,2.3-1c0.3-0.3,0-2.5,3.2-3.3 c3.2-0.8,13.1-2.8,13.1-2.8L57.2,337.5z"></path> <path class="st16" d="M249.5,30.3c0,0-4.1,1.4-4.6,6.1s-1.1,18.4-0.8,21.6s1.9,7.5,6.2,8.1c1.1,0.1,1.5,10.8,1.5,10.8 s-6.3,1.9-8,2.5c-1.7,0.6-6.2,16.7,11.3,19.2c17.5,2.5,20.2-2.9,22.2-6.5c2-3.6,2.1-12.8,2.1-12.8s-9.8-1.9-10.5-4.7 c-2.1-7.6-0.7-19.4-0.7-19.4l-2.7-16.1l-3.1-11l-9.7-1.4L249.5,30.3z"></path> <path class="st16" d="M87.6,34.7c0.2,0.1,7,4.7,8.8,10.9c1.2,4.4,0.1,5.4,0.6,6.4c0.4,1,2.6,5.2,3,6.1c0.4,0.9-1.7,2.3-1.9,2.6 c-0.1,0.3,0.3,6,0,8.2c-0.4,2.6-6.4,3.9-6.4,3.9L91,85.1l7.4,4.8L80,100.3c0,0-12.6-12.8-12.6-14.7c0,0,7.9-3.7,7.9-3.7l1.1-11.6 l2.5-6.4l-7.9-9L87.6,34.7z"></path> <path class="st28" d="M238.4,81.3l5.6-1.9c0,0,5.4,16.4,18.8,15.4c14.6-1.2,16.3-15.5,16.3-15.5s6.2,1.8,6.3,2.1s-4.5,18.8-4.4,19 s-3.8,4.5-6.3,5.2c-2.4,0.7-20.4,1.2-20.4,1.2s-10.4-2.6-12.3-4.1c-1.9-1.6-5.5-9-5.5-9L238.4,81.3z"></path> <path class="st26" d="M162.9,112.5c-0.7-3.1-1.8-6.1-3-9c-0.6-1.6-1.5-2.6-3.2-3.3c-3-1.3-10-4.5-9.3-5.2s5.5,0.7,8.7,1 c-2.8-2.3-8.1-5.4-7.4-6.2s9.6,3.6,9.8,3.4c0.7-0.5-5.8-8.7-4.7-9.1c1.1-0.4,5.8,5.4,9,7.8c-0.7-3.7-4.2-11-2.9-11.1 c1.3-0.1,4.6,6.6,5.8,9.9c1,2.6,1.9,3.2,4.3,1.7c1.5-0.9,4.7-2.5,5.3-1.6c0.5,0.9-2.5,3.1-4,4.2c-1.2,0.9-1.7,1.7-1.1,3.2 c0.8,2.3,1.2,4.6,1.8,6.9c-0.6,1.5-2,1.8-3.2,2.4C166.4,108.9,164.2,110.1,162.9,112.5z"></path> <path class="st8" d="M161.8,109c0,0,7.9-2.5,10.2-3.7c2.3,5.9,5.4,14,7,20.2c0,1-1.6-1-2.3-1.2c-4.1-0.7-8.1-1.4-12-2.9 c-0.3-0.1-0.4-0.4-0.6-0.6C163.7,118,161.8,109,161.8,109z"></path> <path class="st16" d="M114.4,131.5l8,34.5l21.9,0.4l-2.9,13.5c0,0-32.4,3.8-34.9,4c-2.5,0.2-10.5-17.2-10.7-18.7 c-0.2-1.5-0.6-26.5-0.6-26.5L114.4,131.5z"></path> <polygon class="st28" points="112.5,123.7 114.4,131.5 100.5,136.5 97.8,128.3 "></polygon> <path class="st17" d="M246.2,31.2c-2.9-1.7-4.3-4.1-4.5-7.8c-0.3-4.1,1.1-7.1,4.8-8.9c5.3-1.9,7.9,3.2,8.8,6.3 c0.4,1.4,1.1,1.9,2.4,2.2c3.8,0.8,7.5,1.9,7.6,6.9c0,0.6,0.4,0.8,0.9,1c2.6,1.2,3.5,3.5,3.7,6.1c0.5,6.6-0.4,13.1-1.8,19.6 c-1.1,0.8-2.3,0.9-3.2-0.1c-1-1.1-0.1-2,0.4-2.9c0.2-0.4,0.6-0.8,0.8-1.2c0.5-0.7,0.8-1.4,0.4-2.2c-0.9-1.7-2.3-0.5-2.9-0.1 c-3,2.2-2.5,3.3-3.1-1.4c-0.4-5.3-2.2-10.7,0.5-16.2c-2.7-0.1-5.1,0.5-7.5,0.3C251.2,32.5,249.1,32.8,246.2,31.2z"></path> <path class="st8" d="M307.7,188.8c-8.3-1.1-16.4-2.7-24.6-4.3c-1.2-0.6-1.6-1.7-2.1-2.8c-4.5-9.7-8.9-19.5-13-29.3 c-1.8-4.4-4.6-6.3-9.4-6.1c-15,0.7-30,1.1-45,1.3c-6.3,0.1-6.8,1.1-4.3,7c3.7,8.9,7.2,17.8,10.9,26.7c0.4,0.9,0.6,1.9,0.5,2.9 c-0.2,1.1-0.9,2-1.7,2.8c-5.6,5.3-11.8,9.5-19.5,11.1c-2.4,0.6-4.7,0.8-7.1,0c-5.6-2.4-8.5-7.2-11.1-12.3c-0.7-3.2,0.3-6,1.9-8.7 c2.1-0.7,2.9-2.2,2.9-4.3c0-2.3,1.2-4.7-0.2-7c-0.1-3.7,1.3-7.1,2.3-10.6c0.1-0.5-1.8-3.5-1.2-3.4c1.5,2.7,4.1,8.3,6,11.5 c2,4.1,3.7,6,5.1,8.8c-1.2-4.9-1.6-10.3-2.6-15.8c7.3-18.3,14.6-36.7,22.5-54.7c3.7-8.4,9.5-14.7,17.4-19.2c0.7-0.4,2.7-1.2,3-1.2 c0.8,17.6,21.7,24.8,33,19.2c6.9-3.4,11.2-8.9,13.2-16.2c0.3-1.2,0.7-2.9,0.7-2.9s1.8,0.6,2.9,1c6.3,2.3,12.5,4.8,18.6,7.5 c4.3,1.9,7,5.3,9.1,9.2c5.3,9.9,7.6,20.8,9.7,31.7c0.7,3.8,1.3,7.7,2,11.5c-1.5,9.5-3.5,19-4.6,28.6c-0.6,4.9-1.1,9.9-1.6,14.8 c0,1.8,1,3.8-0.6,5.4c-1.6,0.2-3.2-0.4-4.7-0.7c-1.4-0.7-1.6-2-1.8-3.3c-2.7-15-6.3-29.8-8-44.9c-0.1-1-0.4-1.9-0.8-2.7 c-0.3-0.3-0.3,0.4-0.1,0.1c0.1-0.1,0.2-0.1,0.3,0.2c1.2,4.2,1.4,8.5,1.6,12.8c0.6,10.2,1.2,20.4,1.9,30.5c0.1,1.2,0.1,2.4-0.1,3.6 C309,187.6,309.2,188.8,307.7,188.8z"></path> <path class="st43" d="M250.4,66.1c1.8,0.3,3.9,0.6,6.2,0.7c-2.1,1.2-4,1.9-5.5,1.7C251.1,67.8,250.7,66.9,250.4,66.1z"></path> <path class="st43" d="M251.9,76.9c0,0,0.5,2.4,0.6,4.3c-1-1.5-2.5-3.7-2.5-3.7L251.9,76.9z"></path> <path class="st15" d="M276.7,183.5c-3-0.5-6-1-9-1.6c-0.9-0.2-1.7-0.4-2.5,0.2c-1.3,0.3-2.6,0-3.8-0.4c-3.8-1.2-7.4-1-11.1,0.5 c-1.8,0.7-3.8,1.1-5.7,1.7c-0.9,0.3-2.3,0.4-2.2,1.6c0.2,1.5,1.7,1.1,2.7,1.2c2.3,0.1,4.6-0.2,6.8,0.2c1.5,0.3,5.4,0,5.4,2.4 c-0.2,0.1-2.3,0.5-2.5,0.5c-8.3,0.6-16.6,0.3-24.9,0.2c-1.5,0-2.3-1.1-2.8-2.4c-4.7-11.1-9.5-22.1-14.1-33.2 c-1.2-2.9-0.6-3.7,2.7-3.9c0.4,0-0.1,0,0.3,0c14.5,0.3,29-0.9,43.5-0.7c3.3,0.1,5.1,1.1,6.4,4.1c3.5,8.4,7.4,16.6,11.1,25 c0.4,0.9,0.8,1.8,1,2.8C278.1,182.8,278.2,183.8,276.7,183.5z"></path> <path class="st35" d="M276.7,183.5c1.2-0.2,1-0.9,0.6-1.7c-4.4-9.8-8.9-19.7-13.2-29.6c-0.6-1.3-1.4-1.5-2.6-1.5 c-15.6,0.3-31.2,0.6-46.8,0.8c-1.6,0-1.8,0.5-1.2,1.9c4.9,11.4,9.7,22.8,14.6,34.2c0.5,1.2,1.3,1.6,2.5,1.6 c8.3-0.1,26.5-0.3,26.5-0.3s0.3-0.1,0.8,1c5,2.6,10,5.2,15,7.7c-15.7,0-31.3,0-47,0.1c-2.3-4.8-11-26.7-13.6-33.4 c-1.6-4.2-3.4-8.3-5.1-12.5c-1.3-3.3-0.6-4.6,2.8-4.7c8.7-0.4,41.4-0.2,49-0.7c5-0.3,7.8,1.7,9.7,6.2c4.7,11,9.5,20.9,14.4,31.9 C281,184.2,278.8,183.8,276.7,183.5z"></path> <path class="st23" d="M307.7,188.8l-2-51.1c0,0,1.8,9.3,2.6,13.6c2.6,13,4.5,26.2,7.8,39.1C313.4,189.9,307.7,188.8,307.7,188.8z"></path> <path class="st16" d="M266.5,182c0,0-9.3-2.5-9.6-2.4c-0.3,0.1-15.8,4.8-15.8,4.8l0.1,3.2l11.3-0.1l6.2,2.4L266.5,182z"></path> <path class="st30" d="M222.5,227.3c-3.3-11.5-12.7-14.7-22.8-17c0-1,0.7-0.8,1.3-0.8c11.6,0,23.1,0,34.7,0c0.3,0,0.6,0.2,0.8,0.3 c-4.1,2.5-8.2,4.9-10.8,9.2C224.1,221.6,224,224.7,222.5,227.3z"></path> <path class="st22" d="M290.2,294.6c-0.2-0.9-0.5-1.7-0.5-2.6c0-13.1,0-26.3,0.1-39.4c4.4,1.7,9.1,2.4,13.7,3.6 c1.2,0.3,2.4,0.8,3.6,1.2c3.9,25.2,7.5,50.2,11.4,75.4c0.1,0.4,0.2,1.4,0.2,1.4l-11.3-0.4C307.5,333.7,295.7,307.7,290.2,294.6z"></path> <path class="st27" d="M307.1,332.9l11.5-0.1c0,0,2.4,14.8,1.9,14.8c-0.4,0-20,0.4-20,0.4l9.6-6.7L307.1,332.9z"></path> <path class="st12" d="M262.9,337.9c-2.4-4.1-15.7-26.4-18.1-33.8c-2.5-5.9-5.1-11.7-7.6-17.6c-5.5-13.1-16.1-48.9-15.2-59 c0.9-10.2,6.4-14.9,14.7-18.3c0.5-0.1,1.1-0.2,1.6-0.2c12,0,24,0,36.1,0c4.4,0,4.9,0.5,5,5.1c0,15,0.7,36.5,0.7,36.5l-6.1-2.5 l-3.9-1.6c0,0-13.7-4.6-20.4-7.1c-3-1.6-6.2-2.7-9.2-4c3.7,4,8.1,7.6,11.6,12c1.4,3.4,2,6.9,2.8,10.4c2.5,10.2,5.2,20.3,7.6,30.6 c3.9,15.1,6.7,30.7,10.6,45.9c0.4,1.4,1,3.3,0.9,3.4C270.2,338.2,266.3,339,262.9,337.9z"></path> <polygon class="st27" points="262.7,337.5 273.9,337.3 278.1,353.5 258.3,353.5 267.6,346.9 "></polygon> <path class="st30" d="M26.1,163.3c0-12.6,5.8-51.7,29.8-72.7c3.6-2.5,7.5-4.3,12-5.3c0.2,0.2,0.7,0.8,1,1.3 c5.6,6.8,13,6.4,21.1,5.3c5.2-0.7,8.1-2.1,8.4-2c5.1,2.3,7.7,6.8,9.2,11.7c1.5,4.8,3,11.7,4.1,18c0.1,0.8,0.8,4.1,0.8,4.1 s-8.7,2.9-8.8,2.9c-1.1,0,5.5,7,1.4,19c-1.8,5.1-4,6.9-3.3,11.7c1.2,8.6,1.7,10.5,1.7,10.5s-7.4,8-8.9,8c-1.8-0.6-1.5-6.8-2.4-8.1 c-4.5-11.9-8.9-23.8-13.3-35.8c-0.7-2.1-1.6-4.1-2.3-6.2c-0.6-1.8-1.5-2.3-3.4-1.4c-6.9,3.3-13.9,6.4-20.9,9.6 c-3.3,1.5-3.3,1.7-2,5c0.5,1.3,1,2.6,1.6,3.9c6,14.5,12.4,28.8,21.1,42c2.9,4.4,6.2,8.6,10.9,11.4c0.6,0.4,1.6,0.8,0.7,1.8 c-1.3,0.8-2.7,0.6-4.1,0.6c-4.7,0-9.4,0-14.1,0c-2,0-2.8,0.7-2.9,2.8c-0.3,6.8-0.4,6.7,6.4,6.8c4.9,0.1,9.8-0.6,14.6,0.5 c1.5,1.6,0,2.8-0.8,3.9c-4.8,6.8-9.7,13.4-14.6,20c-5,6.8-10,13.7-15,20.5c-0.8,1.1-3.1,2.6-3.1,2.6s-4-3.5-5.6-5.7 C36,237.2,26,220.1,26.1,163.3z"></path> <rect x="147.9" y="121.9" transform="matrix(0.9724 0.2333 -0.2333 0.9724 40.3399 -34.4767)" class="st35" width="35.9" height="62.8"></rect> <path class="st12" d="M303.5,209.6c6.4,1.9,12.8,3.8,19.2,5.6c0.8,0.3,1.5,0.7,2,1.5c5.8,5.5,11.6,11,17.5,16.3 c3.2,2.8,6.3,5.8,9.4,8.7c4.5,4.1,9.1,8.1,13.3,12.5c0.5,0.6,4.1,0,3.2,1.2c-6.4,2.8-15.6,4.6-22.5,5.1c-5.6,0.4-24-0.2-38.6-3.2 c-14.6-3-17.8-4.7-18-5.5c-0.3-1.2-0.3-2.4-0.3-3.6c0-11.4,0-22.8,0-34.1c0-4.7,0.5-5.1,5.2-5.2C297.2,208.9,300.4,209,303.5,209.6 z"></path> <path class="st44" d="M222.5,227.3c-0.1,0.2-0.1,0.4,0,0.6c0.3,2.6,0.5,5.2-0.2,7.8c-2.9,12.1-8.9,22.7-14.9,33.4 c-4.7,8.7-10.1,16.9-16.7,24.2c-10.3,13.4-20.8,26.6-30.7,40.3c-3.7,0.3-8.1,1.8-11.6,0c1.6-4,4-8.6,5.6-12.5 c0.4-1,0.4-2.2,1.2-3.1c13.4-16.5,27.6-32.5,38.9-50.6c3.5-5.6,6.6-11.4,8.8-17.7c1.5-4.1,1.1-8-0.7-11.9 c-5.3-12-14.4-17.8-27.6-18.5c-5.9-0.3-11.7,0.7-17.6,0.2c-0.4-2.5,1.8-3.9,2.7-5.8c0.4-0.8,1.4-1.5,0.9-2.4 c-0.5-0.8-1.6-0.5-2.5-0.5c-14.7,0-29.4,0-44.1,0c-1.6,0-3.2,0.3-4.6-0.8c-0.1-0.4,0-0.7,0.4-1c1.3-0.7,2.7-0.6,4.1-0.6 c25.5,0,51.1,0,76.6,0c1.5,0,3,0,4.5,0.4c1.5,0.5,3.1,0.5,4.5,0.9c5.8,0.7,11.1,2.8,15.8,6.1C219.2,218.4,222.6,221.8,222.5,227.3z "></path> <path class="st17" d="M109.5,209.6c17.7,0,35.5,0,53.8,0c-2.3,3.6-4.3,6.7-6.3,9.8c-9.6,13.9-19,28-28.2,42.1 c-6.3,2.3-12.8,3.3-19.4,4.5c-1.1-1.1-1-2.6-1-4c0-16.2,0-32.4,0-48.5C108.5,212.2,108.3,210.8,109.5,209.6z"></path> <path class="st12" d="M352.2,84.7c-0.2,0.2-0.4,0.4-0.6,0.6c-1,0.8-1.8,1.8-3.2,1.8c-3.3,1.1-6.6,2.4-10.2,1.4 c-6.1-1.6-9.4-8.7-6.3-14.3c2.1-3.8,5.3-6.7,8.9-9.2c1.1,3.7,2.5,7.2,5.2,10c1-3.4-0.8-6.7-1.2-10.2c5.7-1,8.3-5.3,10.5-10.1 c1.5-3.4,3.9-4.9,7.4-4.9c-3.1-0.6-6.2-0.8-8-3.6c-0.9-1.2-2.1-2.2-2.4-3.7c-0.5-2.1,0.5-3.7,2.1-4.9c2-1.5,4.1-1.1,5.8,0.4 c3.7,3.2,7.3,6.5,11.2,9.4c2.2,1.6,2.6,4.2,2.6,6.8c0.1,5.9-1.2,11.4-3.9,16.7c-1.5,1.8-3.7,1.8-5.7,2.3c-1.1,0.3-1.9-0.4-2.1-1.6 c-0.4-2.4-0.5-4.8,2.1-6.3c0.6-0.4,1.2-0.8,1.6-1.3c0.7-0.8,1.6-1.8,0.6-2.9c-0.9-1-2-0.6-3-0.1c-1.7,0.8-1.9,2.4-2.2,4 c-1.2,5-2.8,10-5.2,14.6C355.3,81.5,354.1,83.4,352.2,84.7z"></path> <path class="st30" d="M190.7,293.3c5.6-8.1,11.2-16.2,16.7-24.2c1.5,10,3.1,19.9,4.6,29.9c1.7,11,3.3,21.9,4.9,32.9 c0.1,0.4,0.4,2.1,0.4,2.5c-2.3,2.1-4.9,3.2-8,3.1c-5.2-10.6-10-23.1-14.5-34C193.4,300.1,192.1,296.7,190.7,293.3z"></path> <path class="st8" d="M88.3,48.9c-1.9,1.9-3.1,4.7-4.2,7.2c-0.6,1.4-1.2,2.1-2.4,0.5c-0.2-0.2-0.4-0.4-0.6-0.6 c-1.4-1.2-2.8-2.3-4.6-0.7c-1.7,1.5-0.8,3.7,0.7,4.8c1.3,1,3.6,1.4,3.3,3.8c-0.4,2.8-1.8,5-4.2,6.6c-2.9-3.9-7.1-6.5-10.5-9.8 c-0.1-0.1-0.5,0.1-0.8,0.2c-7.1-7.9-6-17-2-22.6c0.8-1.1,1.6-2.3,3.1-2.6c5.9-3.2,12.2-3.5,18.6-1.9c2.8,0.7,5.7,2.3,6.8,4.2 C93.2,41.3,89.6,47.5,88.3,48.9z"></path> <path class="st23" d="M66.2,35.7c-6.4,6-7.5,16-2,22.7c0.6,0.7,1.6,2.1,1.6,2.2c-0.8,4.3-1.9,9.6-3.3,13.8c-0.3,1-0.8,0.8-1.8,0.9 c-4.6,0.5-9.1,1-13.7,1.6c-1.6,0.2-2,0.6-1.7-0.9c2.2-9.5,2.9-20.1,2.2-29.8c-0.2-2.7,0.4-5.4,1.8-7.8C52.7,32.1,60.4,31,66.2,35.7 z"></path> <path class="st45" d="M352.2,84.7c4.8-6.7,7.4-14.3,9.1-22.2c0.4-1.9,3.4-3.5,5.3-2.9c1.7,0.5,2.1,1.7,1.4,3.3 c-0.7,1.5-2,2.5-3.4,3.3c-0.8,0.5-1.6,1-1.6,2.2c-0.3,4.4-0.2,4.6,4.1,3.4c1.1-0.3,2.1-0.6,3.2-0.8c0.6,2.8,1.2,5.7,1.8,8.5 C365.2,80.3,358.5,81.6,352.2,84.7z"></path> <path class="st30" d="M244.8,304.1c3.6,7.2,7.2,14.3,10.8,21.5c-0.4,1.9-1.1,3.3-1.6,5.2c-3.2,1.4-6.1,1.7-9.3,0.5 C244.7,322.2,244.7,313.1,244.8,304.1z"></path> <path class="st16" d="M354.8,46.3c2.6,1.4,5.3,2.7,9.2,3.4c-5.1,0.8-7.4,3.5-8.9,7.3c-0.9,2.2-2.4,4.1-4.1,5.9 c-1.7,1.7-3.6,2.5-6,1.9c-1.2-0.1-2.1-0.8-2.9-1.6c0.5-0.9-0.1-1.5-0.6-2.1c-0.5-0.7-0.7-1.4-0.1-2.2 C345.6,54.3,348.9,48.9,354.8,46.3z"></path> <path class="st22" d="M342.2,63.1c1.4-0.2,2.1,0.8,2.9,1.6c1.7,3.5,2.7,7.2,1.5,11.5c-3.5-3.2-6.1-6.4-5.7-11.2 C341.3,64.4,341.7,63.8,342.2,63.1z"></path> <path class="st23" d="M195.5,156.4c0.9,2.8,2.8,12.9,3.2,17.7c-2.1-3.6-4.3-6.8-5.8-10.9C193.8,161,194.7,158.6,195.5,156.4z"></path> <path class="st22" d="M324.1,216.8c3.4,2.3,6.7,4.6,10.1,6.9c12.4,9.2,24.8,18.4,37.3,27.5c0.5,0.4,0.9,0.8,1.3,1.2 c-1.9,1.7-4.4,3.2-6.9,3.7c-1.1,0-2.2-1.4-2.9-2.1c-6.8-6.3-12.8-12.8-19.6-19.1c-5.9-5.5-12-10.8-17.9-16.2 C324.9,218.2,324.2,217.7,324.1,216.8z"></path> <path class="st17" d="M320.9,191.1c0.3-1.8-0.2-3.6,0-6.4c2.5,2.1,5.6,5.1,8.7,7.7C326.2,192.3,323.5,191.9,320.9,191.1z"></path> <path class="st17" d="M87.3,204.9c4.1-0.6,6.9,1.2,11,1c0.1,1.6-0.8,6.6-0.8,8.2c0,16.7,0,33.4,0,50.1c0,1.1,0.5,2.4-0.7,3.3 c-7.3-0.1-14.6-0.1-21.7-1.4c-8.4-1.6-24.1-10-24.3-10.4C62.1,240.4,76.1,220.2,87.3,204.9z"></path> <path class="st30" d="M269.9,246.5c-2.4,13.1-4,22.8-6.4,35.9c-0.2,0.9-0.6,4.5-1.2,5.9c-3.5-13.8-7.6-27.5-11.1-41.3 c-1.5-2.6-2.9-5.3-1.9-8.5C256.2,241.2,263.1,243.9,269.9,246.5z"></path> <path class="st22" d="M249.4,238.6c0.6,2.8,1.2,5.6,1.9,8.5c-4.1-4.4-8.3-8.8-12.2-12.9C242.2,235.5,246,236.5,249.4,238.6z"></path> <path class="st22" d="M277.8,261.2c-1.5-3.9-3.8-9.3-4.6-13.5c1.5,0.5,4.4,1.4,4.4,2.1C277.7,253.5,279,257.5,277.8,261.2z"></path> <path class="st30" d="M107,187c0.5,3.4,0.9,6.8,1.4,10.2c-0.1,0.2-0.2,0.4-0.4,0.4c-6.3,0.2-12.6,0.6-18.9-0.2 c5.7-1.3,10.1-4.9,14.7-8.2C104.9,188.4,105.9,187.7,107,187z"></path> <path class="st18" d="M93.2,53.2c0,0.9-0.5,1.5-1.4,1.6c-0.9,0.1-1.5-0.4-1.6-1.3c-0.1-0.9,0.4-1.5,1.3-1.6 C92.5,51.8,93,52.4,93.2,53.2z"></path> <path class="st31" d="M351.1,53.6c1,0.1,1.5,0.7,1.5,1.5c0,0.9-0.6,1.5-1.6,1.4c-0.8-0.1-1.3-0.6-1.3-1.4 C349.7,54.3,350.2,53.7,351.1,53.6z"></path> <rect x="61.8" y="197.4" class="st25" width="244.7" height="13.5"></rect> <path class="st17" d="M327.7,142.3c2.5-10,4.7-20.1,8.2-29.9c5.3-15.5,16.1-28.2,16.5-28.4c5-3,10.6-4.2,16.3-4.8 c1.1-0.1,2.2-0.3,3.3,0.2c12.8-0.4,23.8,3.5,32,13.8c4.8,6,7.9,12.9,10,20.3c4.6,16.3,5.4,32.9,4.6,49.6c0,0.9,0,1.8,0,2.7 c-0.4,3.8-3.8,32.7-8.7,46.6c-3.4,8.5-7,16.9-11.8,24.8c-3.4,5.6-7.1,11-11.3,16.1c-1.2,1.3-5.7,6.1-5.7,6.1s-6.7-4.8-8.9-6.5 c-11.9-8.9-24.3-17.5-36.3-26.4c-1.1-0.8-3.3-2.7-3.3-2.7s2.5-2,3.4-2.5c9.3-5.4,15.7-13.6,20.8-22.8c8.1-14.6,11.7-30.6,13.1-47.1 c0.1-1.7,0.6-3.4,0.7-5.1c0.1-1.6,0.4-3.3,0.4-4.3c-0.7,8.4-3.1,17.1-5.7,25.8c-3.5,11.8-7.8,23.2-15.1,33.2 c-5.3,7.2-11.5,13.1-20.8,14.7c-2.3,0.4-4.6,0.3-6.9,0.2c-6.4-1.5-12.7-3.4-19-5.5c-1-0.4-2-0.7-3-1c-9.5-3.1-18.7-6.9-27.8-11 c-4-2.2-8.1-4.1-12.2-6.2c-1.1-0.5-2.1-1.1-2.9-2c-0.4-1.2,0.5-1.9,1.2-2.6c2.1-2,4-4.2,6.2-6.1c2.7-1.2,15.9,2,18.1,2.3 c8.1,1.5,16.2,2.8,24.3,4.3c2.8,0.7,5.8,0.9,8.6,1.6c1.5,0.3,3,0.7,4.5,0.8c2.1,0.6,4.3,0.6,6.6,1.1c-2.3-2.3-5.8-4.8-6.4-6.5 c-0.2-5.3,0.9-10.5,1.5-15.7C323.4,161.5,326.2,147.9,327.7,142.3z"></path> <path class="st46" d="M322.4,215.8c8.3,0.5,15.6-2.8,21.5-8.5c4.7-4.5,8.4-9.9,11.4-15.7c7.6-14.8,11.8-30.7,15-46.9 c0.3-1.5,0.9-3,0.9-4.6c1,4.8,0.1,9.5-0.4,14.2c-1,8.8-2.5,17.5-5.2,26c-5.1,15.9-12.6,30.2-26.6,40.2c-1.5,1.1-5.4,4-5.4,4 s-1.2-0.9-1.9-1.5C329.1,220.8,322.8,216.4,322.4,215.8z"></path> <rect x="97.1" y="210.7" class="st35" width="12.2" height="152"></rect> <rect x="277.5" y="210.7" class="st35" width="12.2" height="152"></rect> <rect x="152.3" y="126.1" transform="matrix(0.9724 0.2333 -0.2333 0.9724 41.0973 -35.4211)" class="st25" width="35.9" height="59.8"></rect> <polygon class="st27" points="217.3,333.3 209,336.7 212.4,345.3 206.6,350.5 219.4,346.5 "></polygon> <polygon class="st27" points="244.5,331.4 244.1,340.8 239.6,344.8 251.1,343.8 254.1,330.7 "></polygon> <polygon class="st27" points="160,333.7 148.5,333.2 141.6,350.6 165.1,350.2 153.8,343.2 "></polygon> <path class="st27" d="M120.6,341.3c0.4,0,12.4,0.3,12.4,0.3l-7.9,9.6l8.7,8.2l-20.8-0.7L120.6,341.3z"></path> <path class="st16" d="M132.8,342.1c-3.1,0.6-5.9,0.2-9,0.2c-0.9,0-2.7,0-3.4-0.8c1.4-3,41.5-85.1,41.5-85.1s-20.8,3.3-30.2,5 c-1,0.2-3,0.2-3,0.2l28.2-42.6c0,0,16.9-1.4,25.3,0.6c12,2.8,22.1,10,21.9,22.3c-0.2,5.6-2.2,11.7-4,15.8 c-4.7,10.5-9.8,17-16.6,26.2c-8.7,11.8-18.3,23-27.7,34.2C155.1,318.8,139.5,334.7,132.8,342.1z"></path> <path class="st47" d="M350.9,51c0,0,1.6-0.6,2.8,0.3c0.9,0.7,1.2,1.9,1.2,1.9"></path> <path class="st31" d="M245.4,42.8c0.8-0.4,1.5-0.2,1.9,0.5c0.4,0.7,0.3,1.4-0.5,1.8c-0.7,0.4-1.2,0.1-1.6-0.4 C244.7,44,244.8,43.4,245.4,42.8z"></path> <path class="st47" d="M244.1,41c0,0,0.9-1.2,2.3-1.1c1,0.1,1.8,0.8,1.8,0.8"></path> <path class="st31" d="M254.6,43c0.8-0.3,1.5,0,1.8,0.7c0.3,0.7,0.1,1.4-0.7,1.7c-0.7,0.3-1.2,0-1.6-0.6 C253.7,44.1,253.9,43.5,254.6,43z"></path> <path class="st47" d="M253.5,41c0,0,1.1-1.1,2.4-0.8c1,0.2,1.7,1,1.7,1"></path> <path class="st47" d="M89.2,50.5c0,0,1-1.4,2.5-1.3c1.2,0,2.1,0.9,2.1,0.9"></path> <path class="st48" d="M97.9,64.6c-2.3,0-3.1-1.6-3.1-1.6"></path> <path class="st16" d="M50.8,144.1l28-11.8l15.4,40.2l51.5-34.9l6.9-7.6v2.7l13.7,1.5l-5.7,7.6l-8.4,0.8c0,0-18.1,22.3-35.3,37 c-15.6,13.4-24.2,19.3-30.7,19.1c-9.9-0.2-18.3-17.9-23.6-28.6C57.4,159.4,50.8,144.1,50.8,144.1z"></path> <polygon class="st28" points="50.8,144.1 78.8,132.3 75.7,123 47.5,136.1 "></polygon> <polygon class="st16" points="180,166.6 179.5,177.6 186.7,176.9 188.4,164.9 "></polygon> <path class="st48" d="M78.4,57.5c0,0,0.7,0.9,1.7,1.5"></path> <polygon class="st43" points="88.4,176.1 92.7,168.7 94.1,172.4 "></polygon> <path class="st48" d="M363.9,63.7c0,0,1-0.6,1.7-1.6"></path> <path class="st48" d="M263.5,52.5c0,0,1-0.6,1.7-1.6"></path> <path class="st48" d="M247.3,58.5c0,0,0.9,1.1,2.2,1.1s2.4-0.9,2.4-0.9"></path> <path class="st47" d="M248.7,46.2c0,0-1.4,5.8-1.6,6.7s0.6,0.9,1.4,1"></path> </g> </svg> 