<?xml version="1.0" encoding="UTF-8"?> <svg xmlns="http://www.w3.org/2000/svg" viewBox="0 0 423.26 408.93"> <defs> <style>.cls-1{fill:#231f20;}.cls-2{fill:#fefefd;}.cls-3{fill:#f8b5a7;}.cls-14,.cls-4{fill:#f4a200;}.cls-5{fill:#45423f;}.cls-6,.cls-7{fill:none;stroke-linecap:round;stroke-linejoin:round;stroke-width:0.72px;}.cls-6{stroke:#484441;}.cls-7{stroke:#d95f73;}.cls-8{fill:#d95f73;}.cls-9{fill:#004a76;}.cls-10{fill:#ec1c24;}.cls-11{fill:#02394f;}.cls-12{fill:#c41627;}.cls-13{fill:#f99200;}.cls-14{fill-rule:evenodd;}.cls-15{fill:#e3e7eb;}</style> </defs> <title>pict 4</title> <g id="Layer_1" data-name="Layer 1"> <path class="cls-1" d="M89.06,18c1.62-.61,3-1.69,3-3.56,0-3.11-3.21-4.73-5.81-5.36a.85.85,0,0,0-1.06.79.87.87,0,0,0-.38.59c-1,5.51-2.17,11-3.17,16.48a.84.84,0,0,0,.34.88.83.83,0,0,0,.45,1.11c3.78,1.68,10,2.24,11.39-2.88,1-3.84-1.56-6.57-4.75-8m1.13-3.74c.24,2.05-3.09,2.46-4.7,2.56.37-1.9.74-3.81,1.09-5.71,1.59.47,3.41,1.39,3.61,3.15M83.44,27.31l0-.06c.52-2.86,1.09-5.72,1.66-8.57,3.21.55,7.53,2.44,7,6.41-.57,4.2-5.9,3.37-8.67,2.22"></path> <path class="cls-1" d="M100.47,20.72c0-1.21-1.87-1.07-1.86.13,0,2.89-1.56,5.46-1.5,8.37,0,1.2,1.89,1.06,1.87-.14-.07-2.87,1.51-5.46,1.49-8.36"></path> <path class="cls-1" d="M102.51,13.39c-1.21-1.14-2.76-.09-3.56,1A1,1,0,0,0,99,15.59a1.23,1.23,0,0,0,.25.79,1.88,1.88,0,0,0,1.65.62,2.9,2.9,0,0,0,2.06-.67,2.26,2.26,0,0,0-.46-2.94"></path> <path class="cls-1" d="M113,23.88c0-1.13-1.55-1.05-1.84-.1a17.3,17.3,0,0,0-.52,2.29c-.89,1.93-2.79,3.76-4.38,1.82-1.8-2.21,1.08-5.85,3.62-5.9a2.1,2.1,0,0,1-.14.6c-.32,1.16,1.52,1.51,1.83.35a3.5,3.5,0,0,0,0-2.1.89.89,0,0,0-.7-.61c-4.61-1.18-8.49,4.87-6.18,8.69,1.15,1.93,3.45,1.83,5.19.9l.26-.15c-.08.55-.16,1.1-.26,1.63a13,13,0,0,1-1.3,3.95c-.81,1.42-2,.41-2.88-.41s-2.11.57-1.24,1.41c5.74,5.48,7.06-3.88,8-9.32a6.79,6.79,0,0,0,.57-3.05"></path> <path class="cls-1" d="M130.91,27.42a6.73,6.73,0,0,0,4.57-5.6c.49-4.19-3.24-6.47-7-6.35a.81.81,0,0,0-.8.61.78.78,0,0,0-1.22.39c-2.14,5.88-2.09,12.48-5.31,18-.44.74.29,1.36,1,1.28a1.05,1.05,0,0,0,.63,1.38c3.79,1.26,13.34,3.76,14.79-2.08.91-3.68-3-6.14-6.64-7.59m4.74,7.37c-1.52,3.94-9.72,1.4-12.54.46l-.25,0c3.22-5.51,3.15-12,5.3-17.92v-.06a1,1,0,0,0,.46.11c2.8-.1,5.34,1.39,5,4.48-.38,3.34-3.89,4.48-6.77,4.32-1.12-.05-1.07,1.6-.11,1.85,2.44.64,10.35,3.14,8.93,6.8"></path> <path class="cls-1" d="M145.24,40.91c-2.45,1.28-4.27-.75-4.38-2.81a4.22,4.22,0,0,0,5.83-1.4,2.6,2.6,0,0,0,.05-2.75c-.75-1.18-2.46-1.11-3.64-.89-3.2.59-4.63,3.54-3.87,6.56.84,3.34,4.19,4.34,7,2.85,1.07-.56,0-2.11-1-1.56m-2.62-5.8c.83-.36,3.26-.81,2.39.77-.8,1.43-2.58,1.13-3.69.32a3,3,0,0,1,1.3-1.09"></path> <path class="cls-1" d="M161.61,39.23c-1.56.62-3.39,1.19-4.05-.77a17,17,0,0,1-.45-4.51,3.58,3.58,0,0,0-1.3-3c-1.05-.67-2.46.24-3.41,1a.94.94,0,0,0-1.85-.13l-1.33,7.47a.93.93,0,0,0,1.83.34l1-5.65a.75.75,0,0,0,.89-.1c.72-.58,2-2,2.21-.56s.13,3,.33,4.45c.53,3.81,3.39,4.62,6.72,3.28,1.11-.45.52-2.21-.6-1.76"></path> <path class="cls-2" d="M74.76,72.81l0,1.6a12.92,12.92,0,0,0,3,.5,6.92,6.92,0,0,0,2.93-.42,17.07,17.07,0,0,0,.29-2.42A19,19,0,0,1,79.31,71Z"></path> <path class="cls-3" d="M75.79,56c-.12.35-3.6,13.47-3.6,13.47l2.41,1.26a15.06,15.06,0,0,1,.13,1.9c-.06.79.85,1,2.54.91a21.72,21.72,0,0,1,2.64,0s.12,2.83-2.28,3.12-3-.38-3-.15.43,3.36,3.23,4.11a25,25,0,0,0,3.43.79l5,14S95.11,110,95.5,110.05s9.58-5.57,9.58-5.57l-1.39-21-5.9-6.91s-4.43-7.68-4.31-8,.53-6.46,0-7S89,55.93,89,55.93Z"></path> <path class="cls-4" d="M74.37,43.29C79.22,40.45,81,48.21,81,48.21s9.3,2,11.28,3,4.08,7.79,4.81,12.61a108.32,108.32,0,0,1,.74,12.72s-7.06-.26-8.13-.7-.92-3.67-.74-4.58,1.31-1.5,2.55-3,1.57-2.89.51-3.8-4.23.86-4.94,1.55-.77,1-.77,1-2-.53-2-.76,0-6.44,0-6.44-7.38.69-10.56-5S71.94,44.72,74.37,43.29Z"></path> <path class="cls-5" d="M77.78,64.07a1.07,1.07,0,0,0,.7,1.4,1.08,1.08,0,0,0,.7-2A1.07,1.07,0,0,0,77.78,64.07Z"></path> <path class="cls-6" d="M81.18,62.92a2.44,2.44,0,0,0-1.52-1.42,2.67,2.67,0,0,0-1.64.23"></path> <path class="cls-7" d="M90.9,66a24.18,24.18,0,0,1-3.14,2.85"></path> <path class="cls-8" d="M81.3,81.39a23.32,23.32,0,0,0,3.69,1c1,0-2.83,1.35-2.83,1.35Z"></path> <path class="cls-9" d="M122.08,76.47a23.73,23.73,0,0,0,3.14-.56c6.19-1.22,12.14-1,17.79,2.31a28.6,28.6,0,0,1,7.89,7.24,271.68,271.68,0,0,1,33.89,55c2.34,5.17,4.78,10.39,5.32,16.2.15,1.58.55,3.13.11,4.71-2.86,5-6.7,6.72-12.77,5.44a55.84,55.84,0,0,1-15.58-6.15A121.6,121.6,0,0,1,144.7,149.3c-1-2.14.29-3.88,1.13-5.65a32.44,32.44,0,0,0,3.11-8.22,65.26,65.26,0,0,0-10.78-5.77c-3.49-1.64-7.38-2.65-9.9-5.93a5.54,5.54,0,0,1,.52-3.7c2.12-4.74-.46-8-3.53-11.71C114,115,103,121.92,91.66,128.81c2.19,4.6,3.84,8.6,9.15,9.77,5.76,1.27,11.37,3.23,17,4.87,1.2.34,2.39.87,3.72.49,2.34-2.65,1.33-6.65,3.77-9.22,1.39-.48,2.14.55,3,1.3,5,4.52,10.12,8.88,15.28,13.21,6.79,4.59,13.36,9.49,20.68,13.29A59.17,59.17,0,0,0,179,168a6,6,0,0,1,2.89,1.19c1.09,1.29,2.15,2.6,1.81,4.47-4.27,4.18-9.65,6.75-14.56,10-4.22,2.79-8.7,5.19-13,7.82a109,109,0,0,0-11.74,6.49,173.14,173.14,0,0,1-16.74,9.45,3.44,3.44,0,0,1-3,.49c-8.08-13.35-16.2-26.67-24.23-40.06C73.75,123.28,57.37,94.09,30.7,49.55c-.1-.18-.16-.39-.25-.58A23.09,23.09,0,0,1,42.81,41.6c15.41,19.67,50.61,60.94,52.35,62.58,1.38-.74,1.41-2,1.79-3.06,1.83-5.05,3.6-10.13,5.37-15.2a5.15,5.15,0,0,1,3.24-3.6A97.09,97.09,0,0,1,122.08,76.47Z"></path> <path class="cls-10" d="M189.48,161.53c.11-9.21-3.81-17.27-7.66-25.22-8.43-17.45-19.08-33.54-30.62-49.11-6.64-9-18.4-12.25-29.22-10.67-.19-.08,3.2-.81,3.8-1,20.21-5.75,37.32,1.7,47.62,20.77,1.8,3.35,3.64,6.69,5.29,10.11,5.7,11.86,14.13,21.07,26.2,26.52,15.05,6.81,26.23,17.21,33.3,32.39,5.85,12.54,16.62,20.86,27.61,28.75,10.21,7.33,20.85,14.18,29,24a33.64,33.64,0,0,1,6.12,9.77C285,231.38,275.25,243,265.3,254.26,255.85,265,246.74,276,234.68,284a67.32,67.32,0,0,1-31.94,11.29c-1.33-.09-2-1.08-2.67-2a60.77,60.77,0,0,1-7.67-14.49c-3.73-10.29-7.66-20.52-11.45-30.79-2.37-6.42-5.23-12.67-6.92-19.33-.09-1.44-1.14-2.84-.22-4.32,2.12-.29,2.49,1.6,3.25,2.8a242.57,242.57,0,0,0,14.19,20.64c5.46,6.9,11.2,13.54,18.16,19,4,3.15,8.4,5.72,13.57,6.57,7.31,1.21,11.64-1.59,13.24-8.82,1.33-6,.92-12,0-18a157.2,157.2,0,0,0-5.92-25.61c-1.82-5.29-3.24-10.71-5.14-16-1.28-3.54-1.11-6.58,1.67-9.28a6.34,6.34,0,0,0,1.28-2c-3.95,1.31-7.67,2.12-11.34,4,1.09,8.55,2.55,16.83,4.27,25.07.3,4.58,1.5,9,2,13.57-.23,2,2.27,7.78,1.67,9.78-2.09,1.33-3.87-4.58-4.54-5.68-3.82-6.32-7.47-12.75-11.14-19.17q-9.36-16.35-18.79-32.68c-2.13-4-3.94-8.26-6.23-12.22a4.11,4.11,0,0,1-.67-3l-2.11-3.88a2.42,2.42,0,0,1,1.88-1.55C186.65,167.13,188.54,164.81,189.48,161.53Z"></path> <path class="cls-9" d="M196,284.29c1.54,3.94,4.46,7.34,6.75,11,8.46,13.85,12.84,20,21.3,33.8a15.21,15.21,0,0,1,.66,1.42,30.56,30.56,0,0,1-10.88,8.72c-21.56-24.91-38.81-42.2-54.5-71.51-8-15-17-29.39-25.61-44.07a1.93,1.93,0,0,1,1.49-.32,4.54,4.54,0,0,0,2.19-.53,4.36,4.36,0,0,1,1.57,0,4.2,4.2,0,0,0,2.25-.49,4.42,4.42,0,0,1,1.62-.06,4.81,4.81,0,0,0,2.7-.64,4.12,4.12,0,0,1,1.64-.09,4,4,0,0,0,2.32-.51,7.15,7.15,0,0,1,2.06-.16,7.84,7.84,0,0,0,2.45-.34,7.76,7.76,0,0,1,1.26-.16,9.54,9.54,0,0,0,2.54-.39,9.45,9.45,0,0,1,1.3-.18,10.2,10.2,0,0,0,3-.51,7.14,7.14,0,0,1,1.3-.18,9.44,9.44,0,0,0,2.54-.35,7,7,0,0,1,1.28-.16c1,.06,2-.26,3-.2a2,2,0,0,1,.81.32c.69.75,1.39,1.49,2.07,2.26a3.81,3.81,0,0,1,.3.88C173.78,223.92,188.75,265.65,196,284.29Z"></path> <path class="cls-11" d="M133.71,223.64l-9-15.77,19.42-10.63c2.07,1.1,2.1,3.88,4.44,5.2a31.33,31.33,0,0,0,9.64-5.06c.36-2.86-2.43-4.26-2.14-6.72l27.36-17.31a96.26,96.26,0,0,1,7.65,15c-1,3.89-3.76,6.76-5.84,10-4.42,6.89-8.74,13.87-13.67,20.43C171.23,218.85,134.15,223.73,133.71,223.64Z"></path> <path class="cls-10" d="M42.81,41.6,30.45,49,12.89,17.14a.58.58,0,0,1-.18-.83,1.48,1.48,0,0,1,2.12-.25c.61.4.91,1.17,1.65,1.46,1.3.09,1.74-1.57,2.57-1.43-.61.09-1.26,1.06-2.29,1.42a2.84,2.84,0,0,1-1.92-2.26c1.73-2.28,3.74-4.1,6.81-4.19Z"></path> <path class="cls-10" d="M9.53,18.1,7.37,11.23,17.64,5l3.71,5.49c-.83.59-1.44,1.52-2.51,1.69-1.34-.92-.9-2.1-.68-3.32-.59,1.26.05,2.53-.4,4-1.53,1.41-3.58,2.47-5.41,3.83A11.59,11.59,0,0,1,9.53,18.1Z"></path> <path class="cls-12" d="M12.09,16.68l5.29-4.25.27-4.21c1.26.87.25,2.22,1,3.19,1.12.53,1.69-.94,2.71-.93l.3.58c-2.24,1.48-4.77,2.55-6.52,4.71.44.56.17.76-.42.79-.66-.54-1.33-.22-2,0C12.57,16.87,12.37,16.93,12.09,16.68Z"></path> <path class="cls-12" d="M12.09,16.68l.62-.14.18.6c-1.28-.24-1.92,1.76-3.36,1Z"></path> <path class="cls-13" d="M156,190.66a15.11,15.11,0,0,1,3.79,6.93A68.62,68.62,0,0,1,148,204a18.12,18.12,0,0,1-3.92-6.78A45.21,45.21,0,0,1,156,190.66Z"></path> <path class="cls-11" d="M143.2,150.05l1.31-1.18c4.09,2.56,8.21,5.07,12.26,7.69a68,68,0,0,0,19.72,9.15c5.92,1.56,9.32.49,13-4.18.43,5.91-4,6.85-8.2,7.94C166.66,166.77,155,158.19,143.2,150.05Z"></path> <path class="cls-11" d="M169.82,143.18c-5.07-2.56-12-2.3-14.72-10.09Z"></path> <path class="cls-9" d="M171.27,218.49c2.71-4.3,5.35-8.65,8.15-12.9,3.81-5.8,7.74-11.52,11.62-17.28q10.17,17.44,20.34,34.89,5.07,8.75,10.1,17.51c.41.7,3.92,7,5.07,8.94-1.64-3.73-2.85-8.48-4.25-13.17-.63-4.55-2.24-13.77-2.24-13.77s7.33-2.58,11.18-1.79c3.93,12.86,7.35,25.82,6.5,39.43-.82,13.19-9,17.83-21,12-11.09-5.38-18.72-14.61-26.2-24a216.9,216.9,0,0,1-16.28-24.13c-.89-.76-1.73-1.55-1.46-2.89l-.2-.68C171.89,220.15,170.92,219.73,171.27,218.49Z"></path> <path class="cls-11" d="M222.3,236.48c2.09,5.2,3.15,9.91,5.07,14.76-1.71-2.92-4.23-7.61-4.23-7.61C222.82,241.77,222.61,238.33,222.3,236.48Z"></path> <path class="cls-12" d="M14.71,16.56l.42-.79L16.7,17l4.07-2.29.29.48-3.68,2.48C15.89,18.08,15.37,17.19,14.71,16.56Z"></path> <polygon class="cls-14" points="213.67 339.23 224.82 330.29 240.86 356.13 236.26 373.09 230.8 358.2 213.67 339.23"></polygon> <polygon class="cls-14" points="214.96 196.38 220.07 223.02 231.35 220.87 224.78 199.97 231.14 192.07 214.96 196.38"></polygon> <path class="cls-15" d="M95.66,138l14.82,24.69,37-21.66L131,115s-19,3.85-19.87,4.59S95.66,138,95.66,138Z"></path> <path class="cls-2" d="M125.67,135q-1.59,5.25-3.16,10.51a6.23,6.23,0,0,1-1.15,0L95.66,138l-5.45-9.28,35.59-21.89L131,115l-2.25,8.84c-1.51.8-2.59-.36-3.8-.86-1.44-.59-2.69-1.7-4.63-1.71a13.47,13.47,0,0,0-4.69,5.28c.83,2.33,2.8,1.75,4.62,2.13C122,130.61,125,131.72,125.67,135Z"></path> <path class="cls-10" d="M125.67,135l-6.17-6.05L117.38,130l-3.63-3.24c2.12-2.38,4.13-4.64,6.21-7l8.74,4.09L150,135.72c-.93,4.14-3.65,8.46-5.45,13.15.1,1-.25,1.48-1.31,1.18Z"></path> <circle class="cls-15" cx="356.28" cy="246.35" r="9.79"></circle> <circle class="cls-15" cx="260.85" cy="336.2" r="4.97"></circle> <circle class="cls-15" cx="346.13" cy="304.67" r="28.81"></circle> <circle class="cls-15" cx="387.01" cy="322.88" r="28.81"></circle> <circle class="cls-15" cx="352.24" cy="346.5" r="28.81"></circle> <circle class="cls-15" cx="323.25" cy="370.33" r="28.81"></circle> <circle class="cls-15" cx="315.9" cy="345.12" r="17.06"></circle> <circle class="cls-15" cx="293" cy="360.64" r="9.79"></circle> <polygon class="cls-15" points="311.83 373.83 275.63 315.09 318.96 359.7 311.83 373.83"></polygon> <polygon class="cls-15" points="330.47 353.64 268.95 265.11 356.95 340.3 330.47 353.64"></polygon> <polygon class="cls-15" points="357.12 342.08 302.45 250.19 380.82 323.19 357.12 342.08"></polygon> </g> </svg> 