<svg width="491" height="546" viewBox="0 0 491 546" fill="none" xmlns="http://www.w3.org/2000/svg">
<path d="M256.179 104.946C253.671 105.655 251.192 106.482 248.655 107.073C247.209 107.398 247.711 108.284 247.741 109.111C246.619 114.311 246.442 119.63 245.38 124.83C239.716 152.248 223.813 170.714 197.673 180.227C196.08 180.818 194.427 181.291 192.805 181.793C191.212 181.793 190.798 180.523 190.533 179.252C188.969 171.807 187.583 164.48 185.665 156.946C185.557 156.62 185.536 156.271 185.603 155.935C185.67 155.598 185.824 155.284 186.048 155.025C190.385 153.814 194.899 153.341 199.296 152.455C205.922 150.846 212.02 147.548 216.998 142.882C222.118 138.567 226.468 133.412 229.861 127.636C233.453 121.205 235.936 114.213 237.208 106.955C238.1 102.626 238.594 98.2255 238.683 93.8069C238.762 90.2972 238.335 86.7944 237.414 83.4069C237.178 82.5501 236.588 81.1319 238.004 80.8365C239.421 80.541 239.184 81.9297 239.45 82.7569C239.508 82.9757 239.597 83.1847 239.716 83.3774C240.011 83.8206 239.716 84.5592 240.542 84.7069C240.572 84.2544 240.572 83.8003 240.542 83.3478C240.542 81.1024 240.542 78.8274 240.542 76.5524C240.542 75.5183 239.922 73.9524 241.663 73.8342C243.404 73.716 244.938 72.8887 245.498 75.341C245.675 76.1387 246.029 77.4092 247.239 76.966C249.747 76.0206 249.717 77.8228 250.189 79.3297C250.72 81.3092 251.281 83.2592 251.871 85.2387C252.196 86.3319 252.697 86.8933 253.523 85.5047C254.084 84.5887 254.615 83.0228 255.884 83.6433C257.152 84.2637 256.179 85.741 256.267 86.8342C256.296 86.9406 256.296 87.0528 256.267 87.1592C253.73 92.6547 254.792 98.1501 256.267 103.646C256.292 104.081 256.263 104.518 256.179 104.946Z" fill="#F8B5A8"/>
<path d="M409.833 160.107C405.349 158.246 400.982 156.502 396.439 154.493C391.212 152.014 385.399 151.042 379.651 151.686C379.012 152.075 378.298 152.327 377.556 152.425C376.222 152.329 374.933 151.899 373.809 151.173C372.684 150.447 371.761 149.45 371.123 148.272C370.485 147.095 370.153 145.775 370.159 144.435C370.164 143.096 370.507 141.779 371.154 140.607C372.044 139.725 372.641 138.59 372.865 137.357C373.662 136.057 375.226 135.525 375.993 134.225C376.347 133.664 376.789 133.014 376.288 132.364C375.786 131.714 375.285 131.921 374.724 131.98C374.044 132.055 373.372 132.193 372.718 132.393C371.125 132.748 370.21 132.216 370.416 130.502C370.549 128.562 370.229 126.618 369.482 124.823C368.734 123.028 367.579 121.432 366.109 120.161C363.336 117.207 361.683 117.473 358.113 118.123C358.113 117.827 357.464 118.359 358.497 116.409C359.408 114.515 360.732 112.85 362.371 111.536C364.01 110.222 365.923 109.292 367.968 108.816C370.062 108.206 372.309 108.408 374.261 109.383C376.213 110.358 377.727 112.033 378.5 114.075C378.941 115.107 379.325 116.163 379.651 117.236C379.937 118.405 380.607 119.444 381.555 120.183C382.503 120.923 383.672 121.322 384.873 121.314C385.784 121.259 386.695 121.406 387.542 121.743C388.389 122.081 389.153 122.6 389.777 123.265C390.402 123.931 390.873 124.725 391.158 125.593C391.442 126.46 391.533 127.38 391.423 128.286C391.423 128.73 391.423 129.202 391.423 129.646C391.423 135.377 391.423 135.555 396.734 137.446C398.121 137.787 399.345 138.603 400.196 139.752C401.047 140.9 401.471 142.31 401.395 143.739C401.358 145.214 401.68 146.676 402.333 147.998C402.986 149.321 403.95 150.465 405.142 151.332C406.552 152.328 407.71 153.641 408.524 155.164C409.338 156.687 409.787 158.38 409.833 160.107Z" fill="#EC1C24"/>
<path d="M372.246 140.666C371.724 140.989 371.316 141.467 371.078 142.034C370.84 142.601 370.784 143.228 370.919 143.827C371.277 146.039 372.07 148.158 373.249 150.062C374.341 151.893 376.2 151.539 377.734 151.716C374.961 156.059 372.836 160.846 368.883 164.243C366.813 166.18 364.251 167.509 361.477 168.084C353.63 169.266 349.44 164.184 351.859 156.562C352.251 155.786 352.737 155.062 353.305 154.405C356.268 151.548 358.004 147.648 358.144 143.532C358.144 142.941 357.731 140.164 357.229 139.927C353.482 138.037 352.685 136.618 353.423 132.63C353.984 129.675 356.521 121.018 356.698 120.812C356.698 120.812 357.553 118.714 358.114 117.68C358.35 117.68 358.94 117.266 359.176 117.207C360.504 116.321 361.389 115.611 362.717 114.784C363.307 114.4 364.192 113.662 364.28 115.227C364.678 117.367 365.869 119.278 367.614 120.575C369.097 121.809 370.218 123.422 370.857 125.243C371.496 127.064 371.629 129.025 371.243 130.916C370.948 132.216 371.627 132.157 372.541 131.832C373.396 131.523 374.274 131.286 375.167 131.123C375.605 130.993 376.072 130.997 376.508 131.133C376.945 131.27 377.33 131.534 377.616 131.891C378.236 132.807 377.616 133.605 377.291 134.432C376.377 136.116 374.607 136.796 373.22 137.918C371.125 138.362 370.299 139.13 372.246 140.666Z" fill="#F8B5A8"/>
<path d="M138.135 159.25C133.325 159.9 128.516 160.58 123.707 161.112C121.501 161.618 119.244 161.876 116.98 161.88C117.748 157.389 118.397 153.016 119.341 148.407C119.836 146.263 120.211 144.093 120.462 141.907C121.908 141.907 122.881 144.537 124.356 144.537C128.664 144.537 128.664 144.537 129.342 140.282C129.357 140.007 129.357 139.73 129.342 139.455C129.342 139.455 129.342 139.189 129.342 139.071C129.277 138.82 129.198 138.574 129.106 138.332C129.094 138.204 129.094 138.076 129.106 137.948C129.106 137.682 128.516 137.475 128.339 137.446L127.897 137.209C127.603 137.042 127.343 136.822 127.13 136.559C126.422 135.23 126.215 133.871 127.543 132.896C128.125 132.548 128.796 132.379 129.472 132.411C130.149 132.442 130.802 132.673 131.349 133.073C134.447 134.669 134.476 134.669 135.45 131.359C135.555 130.705 135.828 130.089 136.241 129.571C136.655 129.053 137.195 128.651 137.81 128.405C140.507 127.318 143.401 126.804 146.307 126.898C146.779 130.916 147.664 134.905 147.93 138.953C147.93 140.164 147.93 140.873 146.809 141.316C146.16 141.582 145.422 141.848 145.304 142.587C144.891 144.596 143.416 144.448 141.941 144.359C141.114 144.359 139.993 143.709 139.728 145.069C139.462 146.428 140.377 146.694 141.114 147.255C141.307 147.373 141.516 147.463 141.734 147.521C142.649 147.757 144.124 147.521 144.153 148.821C144.183 150.121 142.796 150.741 141.705 151.303C141.406 151.459 141.088 151.578 140.76 151.657C136.777 152.957 136.777 154.612 136.276 157.359C135.863 158.925 136.954 159.103 138.135 159.25Z" fill="#F8B5A8"/>
<path d="M130.525 139.514C130.525 139.839 130.259 140.134 130.171 140.459C129.64 142.025 130.731 144.714 129.109 145.068C126.198 145.898 123.1 145.784 120.258 144.743C120.11 144.743 120.08 144.359 120.021 144.153C121.29 137.712 122.529 131.271 124.418 124.948C124.752 123.1 125.69 121.416 127.083 120.159C128.477 118.903 130.248 118.145 132.118 118.005C133.564 118.005 135.068 117.503 136.455 117.325C139.228 117 141.943 116.882 143.447 113.75C143.871 112.985 144.548 112.392 145.361 112.074C146.174 111.756 147.073 111.732 147.902 112.007C149.702 112.421 150.322 113.957 150.853 115.523C151.277 117.12 151.282 118.799 150.869 120.398C150.455 121.997 149.637 123.463 148.493 124.653C147.802 125.398 147.073 126.109 146.309 126.78C144.054 127.866 141.609 128.498 139.11 128.641C137.252 128.641 136.485 129.587 136.337 131.3C136.337 131.655 136.337 131.98 136.337 132.334C135.688 136.707 135.245 136.914 131.764 134.225C131.501 134.012 131.225 133.814 130.938 133.634C129.905 133.014 128.696 132.6 127.81 133.634C127.626 133.842 127.487 134.086 127.4 134.35C127.314 134.613 127.282 134.892 127.307 135.169C127.332 135.446 127.413 135.714 127.545 135.959C127.677 136.203 127.858 136.417 128.076 136.589C128.342 136.825 129.935 138.391 130.171 138.657C130.371 138.901 130.494 139.2 130.525 139.514Z" fill="#004A76"/>
<path d="M440.459 98.8593L430.988 100.218C430.764 95.0062 429.065 89.965 426.091 85.682C425.53 84.9729 424.261 84.1457 425.353 83.082C426.445 82.0184 427.241 83.4957 428.097 83.9979C428.55 84.3417 429.093 84.5469 429.661 84.5888C430.546 85.2093 431.578 84.7957 432.611 84.9138H433.201C433.201 84.5593 433.201 84.707 432.936 84.6479C432.67 84.5888 432.936 84.6479 432.611 84.6479C431.637 84.6479 430.634 84.9138 429.661 84.3525C430.339 80.9548 430.929 77.5275 431.696 74.1298C432.248 73.1857 433.127 72.4776 434.166 72.1398C435.205 71.8021 436.331 71.8584 437.332 72.2979C438.128 72.9775 437.833 73.982 437.804 74.8684C438.03 82.4035 438.759 89.915 439.987 97.3525C440.071 97.875 440.23 98.3826 440.459 98.8593Z" fill="#F8B5A8"/>
<path d="M152.504 498.018C155.446 496.505 158.569 495.373 161.798 494.65C162.329 497.279 162.86 499.879 163.332 502.509C163.332 503.366 163.686 504.016 164.6 504.223C168.288 503.514 172.006 504.429 175.694 503.75H177.021L177.257 503.986L177.021 504.223C176.955 504.351 176.863 504.464 176.752 504.555C176.64 504.647 176.511 504.715 176.372 504.754C170.826 508.418 165.279 512.111 159.673 515.775C157.431 517.282 157.402 517.252 156.723 514.416C155.248 508.979 153.861 503.484 152.504 498.018Z" fill="#3A3B39"/>
<path d="M355.99 490.927C359.218 490.504 362.493 490.583 365.696 491.164C365.372 496.393 364.959 501.593 364.752 506.793C364.752 508.537 364.103 509.127 362.333 509.098C357.14 509.098 351.918 509.098 346.696 509.098C346.313 509.098 345.723 509.305 345.546 508.803C345.368 508.3 345.929 508.093 346.254 507.828C348.643 506.114 351.033 504.371 353.482 502.716C354.064 502.39 354.549 501.914 354.886 501.337C355.223 500.761 355.401 500.105 355.4 499.437C355.459 496.571 355.783 493.764 355.99 490.927Z" fill="#3A3B39"/>
<path d="M447.187 316.136L438.631 314.068C439.364 309.147 440.428 304.28 441.817 299.502C442.053 298.35 442.879 298.468 443.646 298.616C448.426 299.532 453.235 300.477 458.015 301.571C458.172 301.604 458.32 301.668 458.452 301.759C458.583 301.851 458.696 301.967 458.782 302.102C458.929 302.723 458.31 302.723 457.956 302.871C456.077 303.68 454.156 304.39 452.203 304.998C451.21 305.195 450.316 305.729 449.671 306.509C449.026 307.29 448.67 308.269 448.662 309.282C448.574 311.635 448.074 313.955 447.187 316.136Z" fill="#3A3B39"/>
<path d="M185.872 154.995C188.203 162.973 189.678 171.127 191.271 179.252C191.478 180.286 191.596 181.232 192.628 181.763C190.327 182.325 187.465 183.093 185.341 183.802C183.63 175.145 182.391 166.37 180.679 157.684C180.679 157.034 179.44 156.443 179.322 155.793C181.594 155.734 184.072 154.936 185.872 154.995Z" fill="#FFFFFE"/>
<path d="M352.775 156.591C352.163 158.016 351.91 159.57 352.038 161.115C352.167 162.661 352.674 164.151 353.513 165.455C355.313 167.996 360.417 167.848 363.043 166.784C365.666 165.702 368.042 164.096 370.026 162.065C372.009 160.033 373.558 157.617 374.579 154.966C374.875 154.284 375.308 153.669 375.851 153.161C376.394 152.653 377.035 152.262 377.736 152.012H379.653C378.894 155.637 377.359 159.054 375.153 162.028C372.948 165.002 370.125 167.461 366.878 169.237C364.465 170.505 361.831 171.297 359.119 171.571C357.796 171.825 356.431 171.757 355.14 171.371C353.849 170.985 352.67 170.293 351.703 169.353C350.736 168.414 350.01 167.255 349.585 165.975C349.161 164.694 349.051 163.33 349.265 161.998C349.314 159.902 349.482 157.811 349.766 155.734C349.943 155.734 352.923 154.848 353.336 154.759C353.051 155.335 352.862 155.954 352.775 156.591Z" fill="#FFFFFE"/>
<path d="M54.4335 350.586C52.1393 351.95 49.7185 353.088 47.2051 353.984C46.2554 351.807 45.5623 349.526 45.1398 347.189C44.7268 345.741 44.1662 344.884 42.455 344.736C39.2981 344.5 36.1707 343.968 33.0433 343.555C32.7188 343.555 32.2467 343.555 32.1582 343.23C32.0697 342.905 32.4238 342.491 32.8368 342.284C37.0558 340.393 41.3044 338.561 45.4939 336.552C46.851 335.902 47.3231 336.552 47.8247 337.498C50.1555 341.871 52.2797 346.214 54.4335 350.586Z" fill="#3A3B39"/>
<path d="M332.771 121.491C330.54 121.331 328.297 121.541 326.133 122.112C325.632 122.289 324.776 122.112 324.835 122.821C324.894 123.53 325.897 123.618 326.458 123.471C328.405 123.1 330.378 122.883 332.358 122.821C333.893 122.821 335.692 123.707 336.961 121.993C335.692 120.871 334.04 121.787 332.771 121.491Z" fill="#7FB439"/>
<path d="M329.025 107.162C328.73 107.162 328.347 107.339 328.17 107.575C328.13 107.65 328.106 107.733 328.1 107.818C328.093 107.902 328.104 107.987 328.132 108.068C328.159 108.148 328.203 108.222 328.26 108.285C328.318 108.347 328.387 108.397 328.465 108.432C331.201 109.799 334.043 110.945 336.962 111.859C337.12 111.872 337.278 111.85 337.426 111.794C337.574 111.738 337.708 111.649 337.817 111.534C337.863 111.462 337.892 111.381 337.903 111.297C337.914 111.212 337.907 111.126 337.881 111.045C337.856 110.963 337.814 110.888 337.757 110.825C337.7 110.762 337.63 110.711 337.552 110.678L329.025 107.162Z" fill="#7FB439"/>
<path d="M339.557 93.9841C339.557 93.9841 339.351 93.9841 339.262 93.8068C339.174 93.6295 338.259 94.3091 338.466 94.6636C339.979 97.27 341.727 99.7325 343.688 102.02C343.74 102.088 343.807 102.143 343.884 102.18C343.961 102.218 344.045 102.237 344.13 102.237C344.216 102.237 344.3 102.218 344.377 102.18C344.454 102.143 344.521 102.088 344.573 102.02C344.573 102.02 344.809 101.548 344.75 101.459C343.039 98.9182 341.298 96.4659 339.557 93.9841Z" fill="#7FB439"/>
<path d="M280.638 58.5298L281.464 59.2684C280.998 59.7772 280.353 60.0844 279.665 60.1252C278.927 60.3912 278.691 60.1252 278.779 59.3866C279.296 58.9163 279.945 58.617 280.638 58.5298Z" fill="#FA9200"/>
<path d="M278.778 59.3867L279.663 60.1254C279.04 60.7484 278.233 61.1527 277.362 61.2776C277.15 61.0957 276.953 60.8982 276.771 60.6867C277.096 59.7117 277.981 59.6231 278.778 59.3867Z" fill="#FA9200"/>
<path d="M202.246 55.9002C202.513 55.84 202.792 55.8678 203.042 55.9797C203.292 56.0915 203.499 56.2812 203.633 56.5206C203.369 56.5358 203.105 56.4874 202.864 56.3794C202.623 56.2715 202.411 56.1071 202.246 55.9002Z" fill="#FA9200"/>
<path d="M214.461 60.7163H215.7C215.376 61.5436 214.903 61.1299 214.461 60.7163Z" fill="#FA9200"/>
<path d="M174.69 116.557C174.542 116.173 174.129 116.173 173.805 116.321L162.239 122.23C161.974 122.23 161.561 122.525 161.797 122.969C161.874 123.115 161.996 123.233 162.144 123.308C162.292 123.382 162.459 123.408 162.623 123.382C163.36 123.116 164.157 122.91 164.865 122.585C167.609 121.225 170.353 119.866 173.067 118.478C173.585 118.246 174.071 117.948 174.513 117.591C174.629 117.449 174.706 117.279 174.738 117.098C174.769 116.916 174.752 116.73 174.69 116.557Z" fill="#7FB439"/>
<path d="M165.691 107.457C165.248 107.103 164.835 107.457 164.511 107.723C162.583 109.629 160.844 111.716 159.318 113.957C159.082 114.194 158.875 114.46 158.639 114.666C158.478 114.707 158.332 114.793 158.217 114.913C158.103 115.033 158.024 115.183 157.99 115.346V116.025C158.197 116.616 158.433 116.528 158.698 116.025C161.649 114.075 163.124 110.855 165.602 108.55C165.868 108.314 166.192 107.841 165.691 107.457Z" fill="#7FB439"/>
<path d="M172.506 131.123C170.028 131.123 167.549 131.123 165.071 131.123C164.987 131.119 164.903 131.132 164.825 131.162C164.746 131.191 164.674 131.236 164.614 131.294C164.553 131.352 164.505 131.422 164.472 131.499C164.439 131.577 164.422 131.66 164.422 131.744C164.421 131.827 164.438 131.909 164.472 131.984C164.505 132.06 164.554 132.128 164.615 132.184C164.676 132.24 164.748 132.282 164.827 132.308C164.906 132.334 164.989 132.343 165.071 132.335H172.506C172.978 132.335 173.42 132.069 173.273 131.507C173.183 131.389 173.067 131.293 172.934 131.226C172.801 131.16 172.655 131.124 172.506 131.123Z" fill="#7FB439"/>
<path d="M276.775 60.6865L277.365 61.2774C276.893 61.3661 276.746 61.1297 276.775 60.6865Z" fill="#FA9200"/>
<path d="M212.928 60.0664C213.12 60.0514 213.312 60.094 213.48 60.1887C213.649 60.2834 213.785 60.4259 213.872 60.5982C213.682 60.5966 213.497 60.5471 213.331 60.4541C213.166 60.3611 213.027 60.2277 212.928 60.0664Z" fill="#FA9200"/>
<path d="M215.375 59.9481L214.607 59.4754C214.769 59.4631 214.93 59.5022 215.068 59.5871C215.205 59.672 215.313 59.7983 215.375 59.9481Z" fill="#FA9200"/>
<path d="M211.01 59.3572C211.172 59.3406 211.335 59.3742 211.478 59.4534C211.62 59.5327 211.735 59.6537 211.806 59.8003L211.01 59.3572Z" fill="#FA9200"/>
<path d="M213.487 59.0914C213.297 59.1175 213.104 59.083 212.934 58.9928C212.765 58.9027 212.628 58.7615 212.543 58.5892C212.73 58.5848 212.915 58.6287 213.081 58.7166C213.246 58.8046 213.386 58.9337 213.487 59.0914Z" fill="#FA9200"/>
<path d="M209.477 58.7075C209.674 58.6819 209.875 58.7196 210.05 58.8152C210.224 58.9107 210.365 59.0591 210.45 59.2393C210.256 59.2428 210.064 59.1956 209.893 59.1024C209.722 59.0092 209.579 58.8731 209.477 58.7075Z" fill="#FA9200"/>
<path d="M211.984 58.5589L211.217 58.1157L211.984 58.5589Z" fill="#FA9200"/>
<path d="M206.053 57.3479C206.251 57.3178 206.454 57.3499 206.634 57.4399C206.813 57.5298 206.961 57.6731 207.056 57.8502C206.86 57.8563 206.666 57.8137 206.491 57.726C206.316 57.6383 206.165 57.5084 206.053 57.3479Z" fill="#FA9200"/>
<path d="M204.164 56.6389C204.33 56.6203 204.498 56.6527 204.646 56.7318C204.793 56.811 204.914 56.9331 204.99 57.0821L204.164 56.6389Z" fill="#FA9200"/>
<path d="M206.526 56.4915C206.342 56.5033 206.158 56.4623 205.996 56.3734C205.834 56.2845 205.701 56.1512 205.611 55.9893L206.526 56.4915Z" fill="#FA9200"/>
<path d="M205.108 55.8414L204.4 55.4277L205.108 55.8414Z" fill="#FA9200"/>
<path d="M200.625 55.2795C200.803 55.2594 200.983 55.2938 201.141 55.3782C201.299 55.4626 201.428 55.593 201.51 55.7523L200.625 55.2795Z" fill="#FA9200"/>
<path d="M203.219 55.1026C203.037 55.1291 202.85 55.0978 202.686 55.0131C202.522 54.9283 202.389 54.7943 202.305 54.6299L203.219 55.1026Z" fill="#FA9200"/>
<path d="M200.24 54.5113V55.1613C199.827 55.1613 199.502 55.0135 199.473 54.5408L199.856 54.2749L200.24 54.5113Z" fill="#FA9200"/>
<path d="M186.256 180.463C184.722 173.432 183.335 166.39 182.096 159.338C181.971 157.966 181.389 156.676 180.444 155.675C178.762 155.675 177.051 155.675 175.369 155.882C162.948 156.975 150.527 158.127 138.135 159.25C132.751 158.845 127.336 159.213 122.056 160.343C120.247 160.324 118.476 160.86 116.981 161.879C116.685 162.063 116.368 162.212 116.037 162.323C103.911 163.682 95.7681 170.713 89.7199 180.759C84.6808 189.544 80.9815 199.035 78.7445 208.916C73.1388 231.282 71.103 254.091 68.5362 277.018C66.8545 291.791 65.0843 306.563 58.918 320.45C57.9739 322.577 58.918 322.636 60.5702 322.636C64.7598 322.636 68.9788 322.636 73.1978 322.636C74.699 323.464 76.4269 323.786 78.1249 323.552C105.268 323.552 132.402 323.552 159.526 323.552C160.971 323.552 162.476 323.818 163.715 322.607C163.837 321.943 163.916 321.272 163.951 320.598C164.718 298.202 165.475 275.816 166.223 253.441C166.518 245.05 166.96 236.629 167.167 228.238C167.462 216.184 168.819 190.42 168.731 189.593C168.495 187.348 169.35 186.638 171.681 186.373C176.474 185.846 181.219 184.947 185.872 183.684C186.199 183.222 186.406 182.685 186.473 182.122C186.54 181.56 186.465 180.99 186.256 180.463Z" fill="#004A76"/>
<path d="M454.503 170.714C451.169 152.986 447.835 135.466 444.354 117.857C443.115 111.505 442.289 105.093 440.459 98.8591C438.879 98.3699 437.209 98.2381 435.572 98.4731C433.934 98.7081 432.369 99.3041 430.989 100.218C429.189 100.425 429.337 101.695 429.425 102.995C429.691 107.545 429.927 112.095 430.192 116.616C431.136 134.668 432.641 152.691 435.001 170.595C432.051 169.916 429.307 167.936 426.15 167.345L409.805 160.107C409.375 159.292 408.645 158.678 407.769 158.393C402.99 156.325 398.24 154.139 393.342 152.307C389.11 150.571 384.456 150.139 379.977 151.066C378.59 151.745 378.413 153.193 377.912 154.434C374.637 162.589 369.297 168.468 360.209 170.211C358.836 170.622 357.378 170.657 355.987 170.312C354.596 169.968 353.323 169.256 352.299 168.252C351.275 167.248 350.538 165.988 350.165 164.602C349.793 163.216 349.797 161.756 350.178 160.373C350.726 158.879 350.839 157.26 350.503 155.705C350.402 155.564 350.251 155.467 350.081 155.434C349.911 155.401 349.734 155.434 349.588 155.527C346.343 156.148 343.127 156.857 339.881 157.359C328.225 159.633 316.306 160.25 304.477 159.191C296.716 158.489 289.457 155.043 284.001 149.47C278.305 143.42 273.289 136.762 269.043 129.616C264.116 121.668 260.192 113.277 255.943 104.945C253.05 104.471 250.084 105.093 247.623 106.689C246.473 107.161 246.502 108.255 247.623 109.111C250.544 119.843 254.313 130.326 258.894 140.459C262.143 147.601 266.097 154.401 270.695 160.757C275.809 167.903 282.778 173.513 290.846 176.977C302.865 182.682 315.911 185.898 329.201 186.432C329.801 186.651 330.46 186.651 331.06 186.432C333.155 186.609 333.007 188.145 333.096 189.652C333.033 192.672 333.657 195.667 334.919 198.41C336.182 201.154 338.05 203.574 340.383 205.489C340.775 205.808 341.079 206.223 341.265 206.694C341.451 207.165 341.513 207.676 341.445 208.177C341.652 214.086 341.888 219.995 342.094 225.905C342.842 246.685 343.589 267.455 344.336 288.216C344.231 289.117 344.384 290.029 344.779 290.845C347.552 291.85 350.119 290.314 352.804 290.136C370.506 286.709 388.208 283.43 405.911 280.002C410.389 279.654 414.787 278.617 418.951 276.93C422.521 276.309 422.492 276.309 421.902 272.941C421.636 271.257 421.459 269.573 421.223 267.859C419.04 251.993 416.886 236.127 414.614 220.261C413.375 211.693 412.342 203.125 410.631 194.675C410.693 192.842 410.484 191.01 410.012 189.239C413.641 189.416 417.152 190.42 420.751 190.893C426.917 191.72 432.965 193.611 439.279 193.286C442.877 193.243 446.347 191.949 449.097 189.626C451.847 187.303 453.706 184.096 454.356 180.552C455.083 177.318 455.133 173.968 454.503 170.714Z" fill="#8DB300"/>
<path d="M447.186 316.136C446.036 315.12 444.656 314.4 443.164 314.039C441.673 313.679 440.117 313.689 438.63 314.068C438.34 314.395 438.102 314.763 437.922 315.161C433.339 332.652 428.776 350.133 424.232 367.605C424.156 367.675 424.1 367.763 424.069 367.862C424.038 367.96 424.033 368.065 424.055 368.166C422.787 367.575 423.259 366.393 423.288 365.477C423.465 355.136 423.023 344.796 422.787 334.455C422.403 316.964 421.37 299.502 419.246 282.13C419.366 280.384 419.216 278.63 418.804 276.93C418.363 276.872 417.917 276.872 417.476 276.93C402.046 279.884 386.615 282.839 371.214 285.793C364.93 287.064 358.557 287.861 352.361 289.664C349.819 289.896 347.301 290.351 344.838 291.023C344.838 297.966 345.162 304.88 345.516 311.705C346.254 327.186 346.844 342.639 347.493 358.121C348.673 385.696 349.844 413.272 351.004 440.848C351.653 456.536 352.391 472.225 352.951 487.943C352.951 490.307 353.748 491.193 355.902 491.075C359.048 492.084 362.417 492.166 365.608 491.311C366.818 490.396 369.208 491.843 369.473 488.712C370.359 478.075 371.716 467.439 372.748 456.802C374.607 437.214 376.554 417.625 378.148 398.007C379.8 377.325 381.363 356.939 381.836 336.316C382.426 332.061 381.835 327.748 382.19 323.464C382.367 322.249 382.367 321.015 382.19 319.8C382.573 320.982 382.19 322.311 383.134 323.375C384.957 335.315 387.41 347.149 390.48 358.83C393.152 370.239 397.36 381.232 402.99 391.507C405.127 395.551 408.153 399.057 411.841 401.759C414.067 403.382 416.741 404.273 419.494 404.31C422.247 404.348 424.944 403.528 427.212 401.966C430.639 399.665 433.356 396.452 435.06 392.689C439.371 383.266 442.14 373.21 443.262 362.907C444.855 352.448 445.74 341.9 446.478 331.323C447.156 326.291 447.392 321.21 447.186 316.136Z" fill="#F4A200"/>
<path d="M163.922 326.891C164.07 325.644 163.979 324.381 163.656 323.168V322.489H77.2693C75.9121 322.489 74.555 322.489 73.1978 322.489V329.816C73.1132 340.272 73.6947 350.723 74.9385 361.105C74.8892 363.919 75.1965 366.729 75.8531 369.466C75.6171 372.716 76.7087 375.818 76.6202 379.039H75.9416L60.1867 352.861C58.1214 349.464 58.1214 349.464 54.286 350.439C52.929 350.526 51.6034 350.885 50.3872 351.494C49.171 352.103 48.089 352.95 47.2051 353.984C47.2091 354.656 47.2584 355.328 47.3526 355.993C49.8371 367.672 53.16 379.155 57.2953 390.355C61.003 401.24 66.3347 411.5 73.1093 420.787C76.7322 425.953 81.6881 430.038 87.4481 432.605C89.9616 433.868 92.8503 434.166 95.5684 433.442C98.2864 432.718 100.645 431.022 102.2 428.675C105.582 424.184 108.057 419.076 109.487 413.637C112.283 403.677 114.15 393.48 115.063 383.175C116.542 369.367 117.301 355.492 117.335 341.605L117.601 337.587C118.161 337.941 118.132 338.532 118.25 339.093C120.876 351.502 123.561 363.941 126.127 376.38C131.733 403.699 137.29 431.049 142.797 458.427C145.334 470.994 147.842 483.561 150.32 496.127C150.556 497.398 150.851 498.343 152.415 498.018C155.769 497.802 158.993 496.634 161.709 494.65C164.128 493.823 163.833 491.696 163.833 489.893L163.922 326.891Z" fill="#EC1C24"/>
<path d="M372.246 140.666C370.83 140.666 369.296 140.489 369.709 138.51C370.122 136.53 371.745 137.21 373.043 137.919C373.279 138.864 373.456 140.016 372.246 140.666Z" fill="#FFFFFE"/>
<path d="M230.128 31.2593C230.149 31.0885 230.117 30.9155 230.038 30.7626C229.959 30.6098 229.836 30.4843 229.685 30.4025C229.742 30.25 229.742 30.0823 229.685 29.9298V29.2207H228.328C228.328 29.9889 228.328 30.8162 228.948 31.3775C228.889 31.57 228.889 31.7759 228.948 31.9684C228.901 32.238 228.929 32.5151 229.027 32.7702C229.126 33.0252 229.292 33.2485 229.508 33.4162C231.16 38.4586 232.823 43.5109 234.494 48.573C234.642 49.0753 234.878 49.8139 235.557 49.6366C236.707 49.3116 235.911 48.4843 235.734 48.0116C233.934 42.4275 232.016 36.8434 230.128 31.2593Z" fill="#F4A200"/>
<path d="M292.292 81.8707L288.604 81.4571C285.447 81.1321 282.29 80.8071 279.133 80.5412C278.543 80.5412 277.629 80.1866 277.57 81.1912C277.51 82.1957 278.307 81.8412 278.838 81.9003L291.466 83.2594C291.751 83.2744 292.036 83.2744 292.321 83.2594C292.852 83.2594 293.59 83.4071 293.59 82.6094C293.59 81.8116 292.823 81.9298 292.292 81.8707Z" fill="#F4A200"/>
<path d="M281.465 59.2682C284.701 57.9996 287.854 56.5293 290.906 54.866C291.29 54.6887 291.791 54.3932 291.585 53.8614C291.378 53.3296 290.729 53.3591 290.227 53.625C286.944 55.0822 283.742 56.7195 280.639 58.5296C280.677 58.7262 280.778 58.9049 280.927 59.0384C281.077 59.1718 281.265 59.2525 281.465 59.2682Z" fill="#F4A200"/>
<path d="M214.609 59.4749L213.488 59.0908C213.128 59.0267 212.798 58.851 212.544 58.5886C212.383 58.4678 212.182 58.4148 211.983 58.4408L211.216 57.9977C209.727 57.2869 208.149 56.78 206.525 56.4908C206.184 56.401 205.869 56.2285 205.61 55.9886C205.429 55.864 205.208 55.8114 204.991 55.8408L204.283 55.4272L203.102 55.1022C202.759 55.0355 202.441 54.8715 202.188 54.6295C201.988 54.5547 201.768 54.5547 201.568 54.6295L200.801 54.2158L200.123 54.0386C199.621 54.0386 199.356 54.0386 199.385 54.6886H200.064C200.045 54.7463 200.045 54.8081 200.064 54.8658C200.045 54.9507 200.049 55.0388 200.075 55.1217C200.101 55.2045 200.148 55.2793 200.211 55.3386H200.447H200.624C200.978 55.3386 201.214 55.634 201.509 55.8113C201.702 55.9354 201.931 55.9877 202.158 55.959C202.542 56.3431 203.161 56.1954 203.545 56.5795H203.811H204.076C204.372 56.6856 204.65 56.835 204.902 57.0227L205.964 57.2886C206.349 57.326 206.707 57.505 206.967 57.7908C207.67 58.3343 208.529 58.6349 209.416 58.6477C209.798 58.6914 210.147 58.8821 210.39 59.1795C210.473 59.217 210.564 59.2364 210.655 59.2364C210.747 59.2364 210.837 59.217 210.921 59.1795L211.718 59.6227L212.839 59.8886C213.206 59.95 213.54 60.1381 213.783 60.4204C213.973 60.4931 214.183 60.4931 214.373 60.4204C214.538 60.5828 214.761 60.6738 214.992 60.6738C215.224 60.6738 215.447 60.5828 215.612 60.4204C215.878 60.0068 215.612 59.7999 215.288 59.7113L214.609 59.4749Z" fill="#F4A200"/>
<path d="M214.727 85.4159C214.21 85.5949 213.707 85.8122 213.222 86.0659C212.953 86.0284 212.68 86.0603 212.427 86.1586C212.174 86.2568 211.95 86.4182 211.777 86.6273C211.679 86.5823 211.574 86.559 211.467 86.559C211.36 86.559 211.254 86.5823 211.157 86.6273L210.213 87.1295L209.092 87.3659L208.236 87.8386L207.026 88.1341C206.756 88.2423 206.499 88.3811 206.259 88.5477C204.666 89.05 203.073 89.5227 201.509 90.0545C201.037 90.2318 200.3 90.4386 200.536 91.1477C200.772 91.8568 201.362 91.6795 201.922 91.4727L208.472 89.0205L209.239 88.6068H209.475H209.77C209.962 88.6107 210.151 88.5668 210.321 88.4791C210.491 88.3914 210.636 88.2627 210.744 88.1045L211.806 87.8682L212.721 87.3955L213.842 87.1591C214.007 87.1733 214.173 87.1353 214.316 87.0505C214.459 86.9658 214.571 86.8385 214.638 86.6864C215.14 86.6864 215.819 86.6864 215.701 85.8591C215.583 85.0318 215.17 85.2682 214.727 85.4159Z" fill="#F4A200"/>
<path d="M280.844 108.491C279.895 107.323 278.695 106.383 277.333 105.744L276.566 105.123C276.525 104.954 276.436 104.801 276.311 104.68C276.185 104.56 276.028 104.478 275.858 104.444L275.862 104.441C275.184 103.762 275.184 103.762 274.505 103.082L274.501 103.084C274.47 102.912 274.389 102.753 274.269 102.627C274.148 102.501 273.993 102.413 273.822 102.375C273.439 101.755 273.026 100.662 272.2 101.519C271.374 102.375 272.583 102.73 273.173 103.144C273.853 103.825 273.853 103.825 274.531 104.505C274.565 104.673 274.647 104.83 274.767 104.956C274.887 105.082 275.04 105.17 275.209 105.212C275.247 105.375 275.331 105.523 275.451 105.638C275.572 105.754 275.724 105.831 275.888 105.862C275.913 106.03 275.993 106.185 276.116 106.303C276.239 106.421 276.397 106.494 276.566 106.512C277.524 107.632 278.698 108.547 280.018 109.2C280.284 109.791 280.549 109.821 280.874 109.2C281.198 108.58 281.434 108.728 280.844 108.491Z" fill="#F4A200"/>
<path d="M264.411 31.3774C263.968 31.3774 263.791 31.3774 263.673 31.8206C263.555 32.2638 263.378 32.3524 263.201 32.6184C263.128 32.7027 263.075 32.8019 263.044 32.9091C263.014 33.0162 263.007 33.1287 263.024 33.2388C262.85 33.4737 262.692 33.7205 262.552 33.9774C262.552 34.2138 262.552 34.4206 262.345 34.657C262.157 34.8486 262.016 35.0812 261.932 35.3365L261.578 36.4593C261.411 36.5521 261.273 36.6897 261.179 36.8567C261.085 37.0236 261.04 37.2133 261.047 37.4047C259.854 39.3457 258.866 41.4052 258.097 43.5502C257.909 43.7418 257.767 43.9743 257.684 44.2297L257.33 45.3229C257.164 45.4253 257.028 45.5691 256.935 45.74C256.842 45.911 256.795 46.1032 256.799 46.2979C256.686 46.4298 256.623 46.5971 256.622 46.7706C256.179 47.1252 256.032 47.4797 256.622 47.7161C257.212 47.9524 257.123 48.2774 257.33 47.7161C257.478 47.6876 257.611 47.6058 257.703 47.4861C257.796 47.3664 257.841 47.217 257.831 47.0661L258.126 45.9729C258.294 45.8727 258.431 45.7294 258.525 45.558C258.618 45.3865 258.664 45.1931 258.657 44.9979C260.223 42.4737 261.537 39.8018 262.581 37.0206C262.742 36.9208 262.876 36.7817 262.968 36.6164C263.061 36.4511 263.111 36.2649 263.112 36.0752C263.147 36.0011 263.165 35.9205 263.165 35.8388C263.165 35.7572 263.147 35.6765 263.112 35.6024L263.614 34.7161C263.683 34.5455 263.683 34.3548 263.614 34.1843L264.116 33.3274C264.18 33.2501 264.23 33.1607 264.26 33.0644C264.29 32.9681 264.301 32.8667 264.293 32.7661C264.883 32.2934 265.532 31.7911 264.411 31.3774Z" fill="#F4A200"/>
<path d="M230.689 260C226.703 262.902 222.267 265.128 217.56 266.589C216.985 266.746 216.495 267.125 216.199 267.643C215.903 268.161 215.825 268.775 215.981 269.351C216.138 269.927 216.516 270.417 217.034 270.714C217.551 271.01 218.165 271.089 218.74 270.932C219.802 270.666 222.516 269.75 223.578 270.577C224.198 271.021 222.841 272.971 222.605 273.355C221.427 275.002 219.913 276.381 218.163 277.4C216.414 278.418 214.468 279.054 212.456 279.264C202.955 280.357 200.654 265.525 201.067 258.907C201.482 252.839 203.279 246.947 206.319 241.682C207.509 239.106 209.612 237.063 212.219 235.95C215.465 234.946 219.566 238.491 214.963 240.205C212.308 241.18 213.459 245.523 216.143 244.518C220.628 242.834 223.519 238.373 220.274 234.148C217.029 229.923 210.951 230.839 207.44 233.439C200.152 238.816 196.583 251.166 196.494 259.793C196.19 266.804 198.27 273.71 202.395 279.382C206.791 284.907 213.724 284.287 219.507 281.657C221.716 280.705 223.654 279.219 225.148 277.331C226.641 275.444 227.643 273.215 228.063 270.843C228.191 270.247 228.178 269.629 228.024 269.039C227.87 268.449 227.58 267.903 227.178 267.446C229.227 266.373 231.198 265.158 233.079 263.812C235.439 262.157 233.079 258.257 230.866 259.941" fill="#F9A61A"/>
<path d="M255.265 253.442C250.633 249.867 245.971 253.442 243.228 257.46C241.605 259.853 245.499 262.069 247.122 259.705C248.302 257.932 250.544 255.155 252.728 257.105C253.503 257.947 254.062 258.965 254.355 260.072C254.648 261.18 254.667 262.342 254.409 263.457C253.141 269.367 242.814 268.953 244.113 262.542C244.673 259.587 240.366 258.582 239.776 261.419C239.52 262.564 239.494 263.748 239.699 264.903C239.904 266.059 240.336 267.162 240.97 268.148C241.604 269.135 242.428 269.986 243.392 270.651C244.357 271.317 245.444 271.784 246.591 272.026C249.009 272.603 251.555 272.261 253.736 271.066C255.916 269.87 257.576 267.906 258.392 265.555C259.123 263.448 259.211 261.17 258.643 259.012C258.076 256.854 256.879 254.915 255.206 253.442" fill="#F9A61A"/>
<path d="M276.389 247.887C276.162 247.575 275.864 247.322 275.521 247.147C275.177 246.973 274.798 246.882 274.413 246.882C274.027 246.882 273.648 246.973 273.304 247.147C272.961 247.322 272.663 247.575 272.436 247.887C272.242 247.62 271.989 247.401 271.698 247.248C271.406 247.094 271.083 247.009 270.754 247C268.698 247.144 266.757 248.002 265.265 249.426C263.773 250.85 262.824 252.751 262.582 254.8C262.334 257.031 262.882 259.278 264.13 261.144C265.377 263.009 267.243 264.373 269.397 264.994C273.173 266.205 276.33 262.984 277.599 259.794C278.388 257.884 278.704 255.812 278.519 253.754C278.334 251.695 277.654 249.713 276.537 247.975L276.389 247.887ZM271.138 260.709C269.131 261.33 266.919 257.991 266.801 256.396C266.624 254.15 268.394 251.403 270.813 251.55C271.203 251.595 271.598 251.513 271.938 251.316C272.278 251.12 272.545 250.818 272.701 250.457C274.324 253.146 274.855 259.557 271.138 260.709Z" fill="#F9A61A"/>
<path d="M300.435 253.678C294.092 236.66 292.882 218.637 292.086 200.644C292.086 197.689 287.483 197.689 287.601 200.644C287.872 213.627 289.234 226.564 291.673 239.319C289.835 238.677 287.823 238.751 286.037 239.525C284.851 240.182 283.811 241.073 282.979 242.145C282.147 243.217 281.541 244.446 281.199 245.76C279.812 249.925 280.048 257.991 286.037 258.139C289.725 258.139 292.912 254.682 295.095 251.905C295.42 252.88 295.774 253.885 296.128 254.86C297.131 257.548 301.468 256.396 300.435 253.678ZM292.469 248.182C291.221 249.884 289.775 251.432 288.162 252.791L287.483 253.235C287.283 253.364 287.076 253.482 286.864 253.589L286.332 253.766H285.919L285.624 253.235V252.998L285.447 252.289V251.964C285.447 251.403 285.447 250.871 285.447 250.31V249.689V248.891C285.447 248.33 285.742 247.769 285.919 247.207V246.853L286.362 245.996L286.805 245.287L287.365 244.725H287.601L288.044 244.489H288.575H289.46L290.227 244.696H290.463L290.758 244.844C291.43 245.153 292.064 245.54 292.646 245.996H292.912C293.118 246.794 293.354 247.562 293.561 248.33C293.326 248.34 293.097 248.4 292.888 248.507C292.679 248.614 292.496 248.766 292.351 248.95" fill="#F9A61A"/>
<path d="M231.752 299.03C218.918 303.698 206.054 308.455 193.397 313.95C190.771 315.103 193.043 318.973 195.639 317.821C201.54 315.309 207.234 312.946 213.105 310.671C214.758 319.209 216.262 327.778 217.177 336.405C217.472 339.359 221.956 339.359 221.632 336.405C220.688 327.216 219.095 318.146 217.354 309.105C222.488 307.155 227.651 305.264 232.814 303.373C235.499 302.398 234.348 298.084 231.634 299.059" fill="#F9A61A"/>
<path d="M237.18 331.234C236.188 327.544 235.575 323.763 235.351 319.948C235.115 316.993 230.66 316.993 230.896 319.948C231.143 324.137 231.795 328.293 232.843 332.357C232.919 332.642 233.049 332.91 233.228 333.144C233.407 333.379 233.63 333.576 233.885 333.724C234.14 333.872 234.421 333.968 234.713 334.008C235.005 334.047 235.302 334.028 235.587 333.952C235.872 333.877 236.139 333.746 236.373 333.567C236.607 333.388 236.804 333.164 236.952 332.909C237.1 332.654 237.196 332.372 237.235 332.08C237.274 331.787 237.256 331.49 237.18 331.205" fill="#F9A61A"/>
<path d="M235.144 308.278C235.088 307.833 234.901 307.416 234.606 307.079C234.312 306.742 233.924 306.501 233.491 306.387C232.917 306.251 232.312 306.345 231.805 306.649C231.299 306.952 230.93 307.441 230.777 308.012C230.631 308.709 230.714 309.434 231.013 310.08C231.055 310.524 231.233 310.945 231.524 311.284C231.815 311.623 232.203 311.863 232.636 311.971C233.207 312.115 233.812 312.029 234.319 311.73C234.827 311.432 235.197 310.945 235.35 310.375C235.511 309.669 235.428 308.93 235.114 308.278" fill="#F9A61A"/>
<path d="M285.359 311.232C283.618 313.005 280.727 315.871 278.072 315.25C277.677 315.136 277.31 314.94 276.995 314.676C276.68 314.411 276.424 314.084 276.242 313.714C278.623 312.654 280.643 310.921 282.053 308.726C283.463 306.532 284.202 303.973 284.179 301.364C284.175 300.877 284.012 300.404 283.713 300.02C283.414 299.635 282.997 299.36 282.527 299.237C274.207 296.991 269.899 304.939 271.02 312.178C271.288 313.996 272.054 315.704 273.233 317.112C273.038 317.264 272.878 317.455 272.761 317.673C272.276 318.541 271.636 319.312 270.873 319.948C268.778 315.93 267.745 311.35 264.795 307.775C261.019 303.225 257.832 307.775 255.944 311.823C252.079 308.603 247.771 314.009 245.913 317.378L245.647 315.93C245.116 312.975 240.809 314.275 241.31 317.082C242.402 322.991 243.7 328.9 244.792 334.809C245.293 337.764 249.601 336.464 249.099 333.628C248.302 329.284 247.388 324.971 246.532 320.628C246.772 320.819 247.051 320.954 247.349 321.024C247.648 321.094 247.958 321.096 248.257 321.031C248.556 320.966 248.838 320.835 249.08 320.648C249.323 320.46 249.521 320.221 249.66 319.948C250.364 318.171 251.549 316.626 253.082 315.487C253.082 315.487 253.082 315.309 253.377 315.664C253.816 316.112 254.175 316.631 254.439 317.2C255.839 320.284 256.592 323.623 256.652 327.009C256.829 329.964 261.314 329.964 261.107 327.009C261.004 323.41 260.296 319.854 259.012 316.491C259.376 315.152 259.829 313.839 260.369 312.562C260.576 312.118 260.783 311.705 261.019 311.291L261.461 310.848C261.845 311.409 262.936 313.33 263.231 313.803C264.633 317.373 266.249 320.856 268.07 324.232C268.375 324.709 268.844 325.056 269.388 325.209C269.932 325.361 270.513 325.308 271.02 325.059C273.362 324.034 275.287 322.242 276.478 319.978L276.655 319.623C281.022 321.041 285.507 317.318 288.457 314.482C290.493 312.443 287.336 309.253 285.3 311.291L285.359 311.232ZM279.399 303.462C279.146 304.694 278.633 305.859 277.896 306.878C277.158 307.896 276.212 308.746 275.121 309.371C274.968 308.029 275.323 306.678 276.114 305.584C276.906 304.491 278.078 303.733 279.399 303.462Z" fill="#F9A61A"/>
<path d="M296.393 290.668C292.351 291.053 285.86 293.623 287.542 298.882C288.309 301.334 290.964 302.339 293.177 303.078C295.39 303.816 296.924 303.55 297.986 305.707C299.048 307.864 298.163 308.1 296.305 309.075C295.36 309.496 294.37 309.803 293.354 309.991C290.846 310.523 291.909 314.364 294.416 313.832C298.606 312.946 304.182 310.021 303.267 304.791C303.042 303.832 302.573 302.948 301.906 302.223C301.239 301.499 300.397 300.959 299.461 300.655C298.075 300.093 296.511 300.123 295.065 299.473C293.177 299.237 292.499 297.907 293.059 295.514C294.145 294.981 295.332 294.689 296.541 294.657C298.93 294.391 298.93 290.403 296.393 290.668Z" fill="#F9A61A"/>
<path d="M247.358 76.9956C247.034 76.9956 242.903 78.7092 242.815 79.9502C242.648 83.9133 242.965 87.8821 243.759 91.7683C244.821 97.6774 246.503 105.537 247.034 107.191" fill="#F8B5A8"/>
<path d="M357.85 122.525C357.982 122.485 358.121 122.474 358.257 122.492C358.394 122.51 358.525 122.557 358.642 122.63C358.759 122.702 358.86 122.799 358.937 122.913C359.014 123.028 359.066 123.157 359.089 123.293C359.129 123.424 359.14 123.562 359.119 123.697C359.099 123.832 359.049 123.961 358.973 124.075C358.896 124.188 358.796 124.283 358.678 124.352C358.56 124.421 358.428 124.463 358.292 124.475C358.18 124.501 358.063 124.504 357.95 124.483C357.836 124.463 357.728 124.419 357.631 124.356C357.535 124.292 357.452 124.21 357.388 124.114C357.324 124.017 357.281 123.909 357.26 123.795C357.209 123.674 357.183 123.543 357.186 123.411C357.188 123.279 357.218 123.149 357.274 123.029C357.329 122.91 357.409 122.803 357.508 122.716C357.608 122.629 357.724 122.564 357.85 122.525Z" fill="#484441"/>
<path d="M357.289 120.9C357.561 120.724 357.868 120.609 358.189 120.563C358.51 120.517 358.837 120.542 359.148 120.634C359.623 120.834 360.018 121.188 360.269 121.639" stroke="#484441" stroke-width="0.19" stroke-linecap="round" stroke-linejoin="round"/>
<path d="M364.342 124.712C364.475 124.686 364.612 124.69 364.744 124.722C364.876 124.754 364.999 124.814 365.105 124.898C365.211 124.982 365.298 125.088 365.36 125.209C365.422 125.33 365.457 125.463 365.463 125.598C365.49 125.732 365.486 125.871 365.452 126.003C365.418 126.136 365.355 126.259 365.267 126.364C365.179 126.469 365.069 126.552 364.945 126.609C364.821 126.666 364.685 126.694 364.549 126.691C364.434 126.704 364.318 126.692 364.208 126.658C364.097 126.625 363.995 126.569 363.907 126.494C363.818 126.42 363.746 126.328 363.694 126.225C363.642 126.122 363.612 126.009 363.605 125.894C363.57 125.767 363.561 125.635 363.58 125.505C363.599 125.376 363.644 125.251 363.714 125.14C363.783 125.029 363.875 124.934 363.983 124.86C364.091 124.786 364.213 124.736 364.342 124.712Z" fill="#484441"/>
<path d="M363.986 123.028C364.276 122.889 364.594 122.816 364.916 122.816C365.237 122.816 365.555 122.889 365.845 123.028C366.291 123.276 366.635 123.674 366.819 124.15" stroke="#484441" stroke-width="0.19" stroke-linecap="round" stroke-linejoin="round"/>
<path d="M355.666 134.078C355.925 134.659 356.402 135.116 356.994 135.348C357.626 135.558 358.309 135.558 358.941 135.348" stroke="#D95F73" stroke-width="0.25" stroke-linecap="round" stroke-linejoin="round"/>
<path d="M359.442 125.627L356.816 130.059C356.492 130.709 357.052 130.827 357.613 131.064" stroke="#484441" stroke-width="0.19" stroke-linecap="round" stroke-linejoin="round"/>
<path d="M142.471 132.954C142.56 132.854 142.669 132.773 142.791 132.718C142.913 132.663 143.045 132.634 143.179 132.634C143.313 132.634 143.446 132.663 143.568 132.718C143.69 132.773 143.799 132.854 143.887 132.954C143.977 133.053 144.045 133.169 144.085 133.296C144.126 133.423 144.138 133.558 144.121 133.69C144.104 133.822 144.059 133.949 143.988 134.062C143.917 134.175 143.822 134.271 143.71 134.343C143.633 134.431 143.538 134.502 143.431 134.55C143.324 134.598 143.208 134.623 143.091 134.623C142.974 134.623 142.858 134.598 142.751 134.55C142.644 134.502 142.549 134.431 142.471 134.343C142.376 134.254 142.299 134.147 142.247 134.028C142.195 133.908 142.168 133.779 142.168 133.649C142.168 133.518 142.195 133.389 142.247 133.27C142.299 133.15 142.376 133.043 142.471 132.954Z" fill="#484441"/>
<path d="M141.232 131.832C141.394 131.549 141.614 131.305 141.879 131.116C142.144 130.928 142.447 130.799 142.767 130.739C143.27 130.724 143.766 130.869 144.183 131.153" stroke="#484441" stroke-width="0.19" stroke-linecap="round" stroke-linejoin="round"/>
</svg>
