<svg width="419" height="528" viewBox="0 0 419 528" fill="none" xmlns="http://www.w3.org/2000/svg">
<path d="M163.233 379.551C164.871 379.823 165.963 378.463 167.328 378.192C167.601 377.104 167.055 376.288 166.782 375.473C159.958 364.054 157.774 351.275 155.863 338.496C155.318 334.418 155.045 330.612 154.499 326.533C154.499 325.446 154.499 324.358 153.407 323.815C152.042 322.727 150.677 323.271 149.312 323.271C150.131 335.778 151.769 348.284 155.045 360.519C156.409 367.044 158.866 373.57 163.233 379.551Z" fill="#3B3C3A"/>
<path d="M199.811 390.426V464.923" stroke="#3A3B39" stroke-width="2.8625" stroke-miterlimit="10"/>
<path d="M203.634 483.411C201.523 483.411 199.812 481.707 199.812 479.605C199.812 477.502 201.523 475.798 203.634 475.798C205.744 475.798 207.455 477.502 207.455 479.605C207.455 481.707 205.744 483.411 203.634 483.411Z" fill="#3A3B39"/>
<path d="M173.333 478.789C171.222 478.789 169.511 477.085 169.511 474.983C169.511 472.88 171.222 471.176 173.333 471.176C175.443 471.176 177.154 472.88 177.154 474.983C177.154 477.085 175.443 478.789 173.333 478.789Z" fill="#3A3B39"/>
<path d="M230.384 478.789C228.273 478.789 226.562 477.085 226.562 474.983C226.562 472.88 228.273 471.176 230.384 471.176C232.494 471.176 234.205 472.88 234.205 474.983C234.205 477.085 232.494 478.789 230.384 478.789Z" fill="#3A3B39"/>
<path d="M200.904 462.204C203.906 462.476 214.552 463.835 218.647 465.738C221.376 466.826 226.563 467.913 230.111 469.545C232.841 470.632 234.205 472.807 233.933 474.167C233.66 475.526 232.022 474.711 232.022 474.439C232.022 474.167 229.565 471.72 229.565 471.72C229.565 471.72 228.746 470.632 224.106 469.545C222.468 469.273 221.649 469.273 221.649 469.273C221.649 469.273 221.103 472.535 217.009 472.807C213.187 473.079 200.358 472.807 193.534 472.536C181.523 471.992 179.886 464.379 186.164 463.563C192.988 462.204 195.445 461.932 200.904 462.204Z" fill="#3A3B39"/>
<path d="M207.726 470.904C207.726 471.176 209.364 475.254 208.818 477.973C208.272 480.692 207.726 481.508 206.635 482.051C205.543 482.595 205.27 481.236 205.27 481.236C205.27 481.236 205.816 477.973 206.089 477.973C206.362 477.973 206.908 477.429 206.362 475.526C205.816 473.623 204.178 470.632 204.178 470.632L207.726 470.904Z" fill="#3A3B39"/>
<path d="M185.343 465.738C185.343 465.738 177.154 467.913 173.879 469.273C170.603 470.632 168.965 473.623 169.511 475.254C169.784 477.158 171.695 474.439 171.968 474.167C172.241 473.895 171.968 471.448 175.516 470.632C179.065 469.817 189.438 467.642 189.438 467.642L185.343 465.738Z" fill="#3A3B39"/>
<path d="M161.322 326.262C161.322 322.999 160.23 320.008 159.684 317.018C159.139 312.939 158.047 308.861 157.228 305.055C156.409 301.248 155.59 297.17 154.771 293.364C154.225 289.557 153.406 285.751 152.587 281.944C152.041 279.769 151.769 277.594 151.223 275.419C143.58 275.963 135.937 277.322 128.84 280.857C124.472 283.032 120.651 286.023 117.921 290.373C113.554 297.442 113.281 307.23 119.013 314.571C122.561 318.921 126.929 321.911 132.115 323.815C137.847 325.174 158.866 328.165 161.322 326.262Z" fill="#585755"/>
<path d="M198.99 402.933C200.355 402.933 201.72 402.933 202.812 402.933C208.271 402.389 214.003 402.117 219.463 401.574C228.197 400.486 236.386 398.855 244.302 395.048C245.94 394.233 247.578 393.145 249.216 392.058C252.764 389.067 254.402 385.532 253.31 380.91C252.218 380.367 251.399 380.91 250.853 381.726C245.667 387.164 238.843 389.339 231.746 390.97C216.733 394.505 201.72 395.048 186.161 393.961C180.429 393.417 174.423 392.873 168.964 391.514C164.87 390.426 160.775 389.339 157.5 386.348C156.954 385.804 156.135 385.261 155.043 385.532C153.132 387.708 153.405 390.154 155.043 392.33C156.681 394.777 159.137 396.68 162.14 397.767C166.507 399.399 171.148 400.486 175.788 401.302C180.702 402.117 185.342 402.389 190.255 402.661C193.258 402.389 196.261 402.661 198.99 402.933Z" fill="#3A3B39"/>
<path d="M155.589 385.261C156.954 385.804 157.5 387.164 158.865 387.979C162.687 390.426 166.781 391.514 171.148 392.601C174.424 393.417 177.7 393.961 180.975 394.505C181.248 394.505 181.521 394.505 181.521 394.505C191.075 395.32 200.902 395.32 210.455 395.048C214.823 394.777 219.463 394.233 223.831 393.417C229.017 392.601 234.203 391.514 239.117 389.883C243.211 388.523 246.76 386.348 250.308 383.901C250.581 383.629 252.492 383.085 252.765 382.542C253.311 381.726 253.857 381.454 253.584 380.91C253.311 380.367 252.492 380.367 251.946 380.095C248.67 380.095 247.033 381.454 244.303 382.27C236.933 384.445 229.563 386.348 222.193 387.979C217.006 389.067 211.547 389.883 206.361 390.97C201.175 392.058 196.261 391.786 191.348 389.883C187.253 388.251 184.251 385.804 181.248 382.814C179.064 380.367 177.154 377.648 175.243 374.929C171.967 374.929 168.965 376.288 165.962 377.376C164.87 378.192 163.232 378.463 162.414 379.551C161.595 380.639 160.23 380.91 159.411 381.726C157.773 382.542 156.408 383.629 155.589 385.261Z" fill="#585755"/>
<path d="M204.997 128.33C204.178 128.873 203.359 129.689 202.54 130.233C199.537 132.136 196.535 131.864 193.259 131.048C192.44 130.777 191.348 130.777 190.802 130.233C189.983 130.777 189.711 131.048 189.438 131.864C188.619 135.399 187.8 138.933 186.981 142.196C186.708 144.099 186.435 146.274 186.162 148.177C185.889 149.808 186.162 151.44 187.527 152.799C190.256 153.071 192.986 152.799 195.716 153.071C195.989 154.431 195.716 155.246 196.808 156.334C197.899 156.877 202.54 155.79 203.632 156.334C204.451 153.071 206.634 140.564 206.907 140.564C207.18 135.942 207.18 131.864 204.997 128.33Z" fill="#F8B5A7"/>
<path d="M259.59 267.263C259.045 262.913 257.953 258.562 256.861 254.212C254.95 244.696 252.493 235.18 250.583 225.392C249.491 220.227 248.126 215.333 247.034 210.167C246.761 208.807 245.669 205.001 246.215 204.729C251.129 201.738 260.409 197.388 265.596 194.941C263.139 186.785 252.766 169.112 246.215 158.781C239.118 160.684 232.294 162.315 225.197 164.218C224.924 166.665 224.651 169.384 224.378 171.831C223.832 176.725 222.74 181.619 221.103 186.513C217.827 195.757 210.73 200.651 201.449 202.554C190.804 204.729 181.523 202.01 173.334 195.757C165.964 190.319 161.596 182.978 159.413 174.278C158.321 170.472 157.775 166.393 157.229 162.315C152.316 160.956 147.402 159.324 142.762 157.965C138.121 156.606 133.481 154.974 128.568 153.615C126.384 157.693 115.465 182.707 110.552 196.029C120.106 203.37 130.205 210.439 140.305 217.508C141.124 221.858 142.216 225.936 143.035 230.286C144.127 236.54 145.218 242.793 146.583 248.775C147.675 255.028 149.04 261.281 150.405 267.535C150.951 269.982 151.224 272.428 151.77 274.875C150.951 276.235 151.497 277.866 151.77 279.226C154.772 294.723 157.775 310.492 160.777 325.99C162.142 331.971 162.961 337.953 164.326 343.662C164.599 345.022 165.145 346.381 165.418 348.012C166.783 348.828 168.42 347.741 169.785 347.197C183.706 343.39 197.628 339.312 211.549 335.778C218.646 333.603 225.743 332.243 232.84 330.068C234.205 329.796 235.57 329.796 236.389 328.437C236.389 326.534 234.751 326.262 233.386 325.99C224.378 322.455 215.097 318.921 206.09 315.386C204.725 314.842 203.36 314.571 202.268 313.755C200.63 312.396 199.811 311.036 201.722 309.405C204.998 308.861 208.273 309.405 211.276 309.133C220.83 308.861 230.11 309.405 239.664 308.861C241.848 308.317 242.394 306.414 242.667 304.783C245.942 293.907 250.037 283.032 253.312 272.157C254.677 269.166 255.769 266.991 259.59 267.263Z" fill="#EC1C24"/>
<path d="M311.726 329.524C309.542 329.524 307.085 329.524 304.902 329.524C303.264 332.243 302.718 335.506 301.08 338.225C296.167 338.496 291.253 337.681 286.067 337.409C281.427 337.137 276.786 336.321 271.873 336.321C274.057 339.04 276.24 341.759 278.424 344.478C281.427 348.012 283.883 352.091 286.613 355.625C290.435 361.063 293.983 366.772 297.532 372.482C300.807 372.482 304.356 372.482 307.904 372.482C308.45 372.482 312.545 372.21 314.182 374.385C314.728 375.745 313.91 377.104 313.364 378.192C311.999 381.182 310.361 384.173 308.996 387.164C308.45 388.251 307.631 389.339 308.45 390.698C308.45 391.514 308.723 392.33 308.996 393.145C313.364 401.846 317.731 410.818 322.098 419.518C322.098 419.79 322.371 419.79 322.644 419.79C332.744 408.371 342.298 396.408 350.487 383.357C354.854 376.288 358.949 368.948 361.405 360.791C362.77 356.713 363.316 352.363 363.043 348.012C362.77 342.303 360.04 338.225 354.854 336.05C349.395 333.603 343.39 332.515 337.384 331.427C328.923 330.34 320.188 329.796 311.726 329.524Z" fill="#02394F"/>
<path d="M180.156 154.159C179.883 156.334 177.7 164.762 177.427 166.937C177.427 166.937 169.238 165.578 165.962 164.762C165.416 168.297 166.235 171.287 167.327 174.278C169.511 180.26 173.059 185.425 177.973 189.504C183.705 194.398 190.529 196.845 197.899 195.485C204.45 194.398 209.636 190.591 212.912 184.61C215.915 178.9 216.734 172.919 216.461 166.665C213.458 167.209 211.001 167.753 208.272 166.937C207.726 167.209 207.453 167.753 207.453 168.297C204.996 177.541 195.442 180.26 188.072 174.006C183.432 169.928 181.248 164.762 180.975 158.781C180.975 157.149 181.521 155.246 180.156 154.159Z" fill="#F8B5A7"/>
<path d="M180.158 154.159C180.158 155.79 180.158 157.149 180.158 158.781C180.158 165.578 182.887 171.287 188.074 175.638C192.441 179.172 199.811 179.716 204.724 175.909C206.635 174.278 208 172.103 208 169.656C208 168.84 208 168.025 208 167.481C207.727 163.131 207.181 159.596 204.179 156.606C202.814 155.246 201.449 154.431 200.084 154.431C198.173 154.974 196.536 153.887 195.171 152.799C193.533 152.255 191.622 152.527 189.984 152.527C187.801 152.527 186.982 151.168 186.709 149.265C186.436 146.274 188.893 135.67 190.53 132.408C195.444 132.408 201.176 134.855 204.724 128.873C204.997 128.33 205.543 127.786 205.816 127.242C207.454 124.251 207.454 121.804 204.997 118.814C203.906 117.182 202.268 116.91 200.357 117.182C198.446 117.454 197.9 118.814 197.627 120.445C197.354 121.532 197.354 122.892 196.263 123.708C194.625 123.979 193.26 123.164 191.622 122.892C188.347 122.348 186.982 122.892 185.344 125.883C183.979 128.873 183.433 132.136 182.614 135.399C182.341 136.214 182.068 137.302 181.795 138.117C181.25 142.196 180.977 143.283 180.704 146.002C180.704 148.177 180.431 151.168 180.158 154.159Z" fill="#F4A200"/>
<path d="M306.268 438.278C306.268 436.375 304.63 435.559 303.811 434.472C300.808 430.393 297.533 426.859 294.53 423.053C294.257 422.509 294.257 421.693 293.438 421.693C289.344 430.122 279.517 454.591 279.79 455.407C282.52 457.31 285.249 458.941 288.798 459.213C294.53 452.144 300.262 445.075 306.268 438.278Z" fill="#02394F"/>
<path d="M342.844 464.379C339.022 465.738 335.201 467.098 331.379 468.185C333.29 471.992 336.292 474.983 338.476 478.517C340.933 482.323 343.663 485.858 346.392 489.664C351.851 487.761 357.038 486.13 363.043 484.227C358.403 482.595 354.581 481.236 350.487 479.876C348.303 476.342 346.938 472.264 345.027 468.457C344.208 467.098 343.663 465.467 342.844 464.379Z" fill="#F4A200"/>
<path d="M288.797 459.213C285.794 457.854 283.065 455.951 279.789 455.407C277.059 460.573 274.057 466.01 271.327 471.176C273.238 472.807 285.521 478.245 288.251 478.517C286.613 475.254 284.975 471.992 283.338 468.729C284.975 465.195 287.432 462.476 288.797 459.213Z" fill="#F4A200"/>
<path d="M180.977 144.643C181.249 144.643 181.249 144.643 180.977 144.643C181.522 142.196 181.795 139.749 182.068 137.574C180.976 136.758 179.885 135.127 178.793 135.942C177.701 137.03 177.701 138.117 178.52 139.205C179.066 140.292 179.612 141.38 180.431 142.468C180.976 143.283 180.977 143.827 180.977 144.643Z" fill="#F7B5A7"/>
<path d="M250.31 111.201C249.491 109.841 246.489 113.104 245.124 114.192C243.213 115.551 241.575 116.639 239.938 117.726C238.3 118.542 235.57 119.357 235.57 121.261C235.297 123.164 250.856 112.288 250.31 111.201Z" fill="#F4A200"/>
<path d="M235.57 138.117C235.843 138.933 245.397 137.302 250.037 135.67C252.221 134.855 251.948 133.767 250.856 134.039C249.764 134.311 245.67 135.399 243.213 136.214C240.756 136.758 235.297 137.302 235.57 138.117Z" fill="#F4A200"/>
<path d="M233.384 94.0721C233.93 92.4408 233.111 92.4408 232.566 93.2565C232.02 94.0721 230.109 98.1504 229.017 100.325C227.925 102.501 224.104 105.491 224.377 106.307C224.377 107.394 231.474 101.957 233.384 94.0721Z" fill="#F4A200"/>
<path d="M57.5961 129.961C59.2339 122.892 61.6906 116.095 64.6932 109.57C70.1525 97.8785 76.4307 86.7312 83.5277 76.1277C88.714 68.5149 114.646 54.6488 114.373 55.7363C113.008 58.1833 111.097 62.2616 109.732 64.7085C106.457 70.4181 104.273 76.6715 101.816 82.9248C99.6326 88.3625 97.9948 93.8002 96.3571 99.2379C94.9922 103.86 93.6274 108.482 92.8085 113.376C91.9896 116.91 91.4437 120.445 90.6248 124.251C89.8059 128.601 88.714 132.952 88.987 137.302C90.3518 137.846 91.4437 138.661 92.8085 139.205C100.997 143.011 109.459 146.546 118.194 149.537C119.013 149.808 120.378 150.08 120.924 151.168C114.919 163.946 109.186 176.725 103.181 189.775C100.724 188.144 98.8137 186.513 96.903 184.882C93.3544 182.163 89.8059 179.444 86.2574 176.453C83.2548 174.006 80.5251 171.559 77.5225 169.112C72.6092 165.306 67.9688 161.228 63.3284 156.877C58.688 153.343 53.2287 144.915 57.5961 129.961Z" fill="#F8B5A7"/>
<path d="M283.065 146.818C284.429 146.274 285.794 146.002 286.886 145.458C284.429 140.292 282.519 134.855 280.062 129.689C275.968 121.261 272.419 112.56 268.325 103.86C265.322 97.3347 262.319 91.0814 259.044 84.5561C257.406 81.0216 260.682 64.7086 263.957 68.7868C270.781 77.2153 276.786 86.4593 283.065 95.1596C288.251 102.501 293.164 110.113 297.805 117.726C302.991 126.154 307.904 134.583 312.272 143.283C315.001 148.993 314.456 154.43 311.726 159.596C308.177 166.122 302.991 171.015 296.986 175.366C293.164 178.084 289.343 180.803 285.521 183.25C281.154 185.969 276.786 188.416 272.146 191.135C269.962 184.882 267.233 178.9 264.503 173.191C261.773 167.209 259.044 161.228 255.222 155.518C264.23 152.799 273.784 150.352 283.065 146.818Z" fill="#F8B5A7"/>
<path d="M192.168 159.324C192.441 161.5 193.806 163.675 195.171 164.49C196.536 165.306 197.082 165.034 198.174 164.49C199.539 163.675 200.357 162.315 200.357 160.956C197.901 159.053 195.171 158.509 192.168 159.324Z" fill="#403F3A"/>
<path d="M192.165 159.324C194.895 159.596 197.625 160.684 200.627 160.956C200.627 160.412 201.173 160.14 200.9 159.324C198.17 158.237 195.168 158.509 192.438 157.693C191.619 157.965 191.892 158.509 192.165 159.324Z" fill="#FAF5EE"/>
<path d="M165.146 347.741C165.965 347.469 167.33 347.197 168.149 346.925C179.614 343.662 191.078 340.4 202.27 337.409C204.453 336.865 209.094 335.506 211.823 334.962C212.096 334.962 212.096 334.962 212.369 334.69C219.739 332.787 236.117 328.165 236.117 328.165C236.117 328.165 239.393 328.165 240.758 328.709C247.582 331.971 254.952 333.603 262.595 333.874C265.597 334.146 269.146 333.603 272.148 334.962C280.337 343.934 287.707 353.45 293.713 364.054C296.715 369.491 305.45 384.989 308.999 389.883C312.82 398.583 317.461 406.739 321.555 415.168C322.101 416.527 322.92 417.615 322.92 418.974C323.739 421.965 325.103 424.412 326.468 427.131C331.109 436.919 335.749 446.706 340.117 456.494C341.208 458.669 342.573 460.845 343.119 463.563C339.844 466.282 335.749 467.37 331.655 467.37C331.382 467.098 331.109 467.098 330.836 466.826C324.285 458.669 318.006 450.513 311.455 442.628C310.09 440.725 308.999 438.55 306.815 437.462C302.175 432.84 298.353 427.403 294.259 422.237C293.986 421.693 293.986 421.149 293.713 420.606C282.248 406.196 270.511 391.514 259.046 377.104C259.046 377.104 259.046 377.104 258.773 377.104C257.954 377.648 254.679 378.735 254.133 379.007C253.041 379.551 251.949 379.823 251.949 380.095C236.39 384.989 220.558 389.067 204.453 391.242C196.537 392.33 189.713 390.155 183.708 385.261C180.16 382.27 177.43 378.463 174.973 374.385C173.062 371.394 171.425 367.86 170.333 364.597C169.241 361.063 168.149 358.072 167.057 353.994C165.965 352.906 165.146 350.188 165.146 347.741Z" fill="#004A76"/>
<path d="M236.66 328.165C239.662 328.709 242.119 330.34 244.849 331.156C246.487 331.699 248.124 332.515 249.762 333.059C251.4 333.874 253.038 334.146 254.948 334.146C260.954 334.69 301.625 338.768 301.625 338.768C301.625 338.768 321.825 288.742 323.189 285.207C322.916 283.304 320.733 283.032 319.368 282.76C311.725 280.857 262.318 266.719 260.135 266.175C258.497 265.631 256.859 264.544 254.948 265.903C250.854 278.138 238.844 312.939 238.025 315.386C236.66 319.193 236.114 319.736 232.292 318.377C223.83 315.386 215.642 312.396 207.18 309.405C204.723 308.589 202.539 307.773 199.81 308.317C198.172 311.308 198.718 313.211 201.447 314.299C204.45 315.658 207.726 316.746 210.728 318.105C219.19 321.368 227.379 324.358 235.841 327.621C236.387 327.893 236.387 328.165 236.66 328.165Z" fill="#E3E7EB"/>
<path d="M200.083 308.589C202.267 308.589 204.451 309.405 206.361 310.22C212.912 312.667 236.933 320.552 236.933 320.552L241.301 308.317C241.301 308.317 214.823 308.317 201.721 308.317C200.902 307.773 200.356 307.773 200.083 308.589Z" fill="#B3B8BC"/>
<path d="M283.066 310.492C289.071 308.045 290.709 306.142 290.163 302.064C289.617 298.801 286.615 296.626 283.066 296.626C279.791 296.626 276.515 299.617 276.242 302.88C276.242 304.783 277.061 306.686 278.153 308.317C279.518 309.677 281.428 309.677 283.066 310.492Z" fill="#B3B8BC"/>
<path d="M269.963 107.666L253.039 71.5057C253.039 71.5057 243.212 68.7869 243.212 68.515C243.212 68.2431 243.485 63.0773 243.485 63.0773L238.299 61.7179C238.299 61.7179 240.482 51.6581 241.028 51.93C241.301 51.93 254.677 54.9207 254.677 54.9207C254.677 54.9207 276.514 86.4594 284.43 97.6066" fill="#F8B5A7"/>
<path d="M252.221 59.5428L254.678 61.1741L253.859 64.9804L243.486 63.3491" stroke="#D95F73" stroke-width="0.4568" stroke-miterlimit="10" stroke-linecap="round" stroke-linejoin="round"/>
<path d="M95.2631 99.2379C95.2631 99.2379 98.8116 82.3811 104.271 73.4089C109.73 64.4367 115.735 54.6488 115.735 54.6488L123.105 60.3584C123.105 60.3584 131.567 52.7456 131.294 51.93C131.021 51.3862 128.019 48.6674 128.565 48.1236C129.111 47.5798 131.021 43.7734 131.021 43.7734L125.289 38.3358L111.095 40.2389C111.095 40.2389 100.995 50.0268 90.8957 63.621C80.796 77.2153 72.6071 92.9846 72.6071 92.9846L95.2631 99.2379Z" fill="#F8B5A7"/>
<path d="M128.566 48.3955L120.65 57.6396" stroke="#D95F73" stroke-width="0.4568" stroke-miterlimit="10" stroke-linecap="round" stroke-linejoin="round"/>
<path d="M206.635 142.196C206.089 141.38 205.27 141.652 204.451 142.196C203.906 142.739 203.633 143.555 204.451 144.099C204.997 144.643 205.816 144.643 206.362 144.099C207.181 143.555 207.181 143.011 206.635 142.196Z" fill="#484441"/>
<path d="M204.452 139.477C204.452 139.477 204.725 139.477 204.998 139.477C204.998 139.477 205.817 138.933 206.909 139.205C208 139.477 208.546 140.836 208.546 140.836C208.546 141.108 208.819 141.108 209.092 141.108C209.365 141.108 209.365 140.836 209.365 140.564C209.365 140.564 208.819 138.933 207.182 138.389C205.817 138.117 204.725 138.661 204.725 138.661C204.179 138.933 204.179 139.205 204.452 139.477C204.179 139.477 204.452 139.477 204.452 139.477Z" fill="#484441"/>
<path d="M196.809 140.292C195.99 139.749 195.172 139.749 194.626 140.292C194.08 140.836 194.08 141.652 194.899 142.196C195.445 142.739 196.263 142.468 196.809 142.196C197.355 141.652 197.628 140.836 196.809 140.292Z" fill="#484441"/>
<path d="M194.353 137.846C194.353 137.846 194.626 137.846 194.899 137.846C194.899 137.846 195.718 137.302 196.809 137.302C197.901 137.574 198.72 138.661 198.72 138.661C198.72 138.933 198.993 138.933 199.266 138.933C199.539 138.933 199.539 138.661 199.539 138.389C199.539 138.389 198.72 136.758 197.082 136.486C195.718 136.214 194.626 137.03 194.626 137.03C194.08 137.302 194.08 137.574 194.353 137.846C194.08 137.574 194.353 137.574 194.353 137.846Z" fill="#484441"/>
<path d="M199.264 150.08C199.264 150.352 199.264 150.352 199.264 150.08L199.81 150.352C200.356 150.352 200.902 150.624 201.175 150.352C201.448 150.08 201.448 149.808 201.721 149.537C201.721 148.449 201.994 143.827 201.994 143.555C201.994 143.283 201.721 143.011 201.721 143.011C201.448 143.011 201.175 143.283 201.175 143.283C201.175 143.283 201.175 148.177 200.902 149.265C200.902 149.537 200.902 149.537 200.902 149.537C200.902 149.537 200.356 149.537 200.083 149.537H199.81C199.537 149.537 199.264 149.537 199.264 149.808C198.992 150.08 198.992 150.08 199.264 150.08Z" fill="#484441"/>
</svg>
