<svg width="76" height="76" viewBox="0 0 76 76" fill="none" xmlns="http://www.w3.org/2000/svg">
<g clip-path="url(#clip0)">
<path fill-rule="evenodd" clip-rule="evenodd" d="M42.75 66.1348H5.11538C2.19231 66.1348 0 63.7598 0 61.0194V41.4713C0 38.5483 2.375 36.356 5.11538 36.356H42.75C45.6731 36.356 47.8654 38.731 47.8654 41.4713V60.8367C48.0481 63.7598 45.6731 66.1348 42.75 66.1348Z" fill="#F4A200"/>
<path fill-rule="evenodd" clip-rule="evenodd" d="M0 57.5483V76.0003L14.0673 61.933C14.0673 61.933 0.182692 57.731 0 57.5483Z" fill="#F4A200"/>
<path d="M35.0773 55.7215C36.8935 55.7215 38.3657 54.2492 38.3657 52.433C38.3657 50.6168 36.8935 49.1445 35.0773 49.1445C33.2611 49.1445 31.7888 50.6168 31.7888 52.433C31.7888 54.2492 33.2611 55.7215 35.0773 55.7215Z" fill="white"/>
<path d="M23.933 55.7215C25.7492 55.7215 27.2215 54.2492 27.2215 52.433C27.2215 50.6168 25.7492 49.1445 23.933 49.1445C22.1168 49.1445 20.6445 50.6168 20.6445 52.433C20.6445 54.2492 22.1168 55.7215 23.933 55.7215Z" fill="white"/>
<path d="M12.7887 55.7215C14.6049 55.7215 16.0772 54.2492 16.0772 52.433C16.0772 50.6168 14.6049 49.1445 12.7887 49.1445C10.9725 49.1445 9.50024 50.6168 9.50024 52.433C9.50024 54.2492 10.9725 55.7215 12.7887 55.7215Z" fill="white"/>
<path fill-rule="evenodd" clip-rule="evenodd" d="M25.3943 43.8462H63.0289C65.952 43.8462 68.1443 41.4712 68.1443 38.7308V19.3654C68.1443 16.4423 65.7693 14.25 63.0289 14.25H25.3943C22.4712 14.25 20.0962 16.4423 20.0962 19.3654V38.7308C20.0962 41.6538 22.4712 43.8462 25.3943 43.8462Z" fill="#EB212E"/>
<path fill-rule="evenodd" clip-rule="evenodd" d="M68.1443 35.2598V53.7117L54.077 39.6444C53.8943 39.8271 67.9616 35.6252 68.1443 35.2598Z" fill="#EB212E"/>
<path d="M29.5964 23.9326H58.6445" stroke="white" stroke-width="2" stroke-miterlimit="10"/>
<path d="M29.5964 33.4326H49.5099" stroke="white" stroke-width="2" stroke-miterlimit="10"/>
</g>
<defs>
<clipPath id="clip0">
<rect width="76" height="76" fill="white"/>
</clipPath>
</defs>
</svg>
