<svg width="53" height="63" viewBox="0 0 53 63" fill="none" xmlns="http://www.w3.org/2000/svg">
<g clip-path="url(#clip0)">
<path d="M12.8147 45.7444L8.3184 45.2513C7.41914 45.1418 6.68849 44.4296 6.57609 43.5531L5.84544 37.4174L0.787115 33.747C0.0564685 33.1992 -0.22455 32.2679 0.168876 31.4461L2.69804 25.8035L0.168876 20.1609C-0.168346 19.3392 0.0564685 18.4079 0.787115 17.86L5.84544 14.1896L6.57609 8.05395C6.68849 7.17743 7.41914 6.46525 8.3184 6.35569L14.6132 5.75308L18.3788 0.822644C18.9409 0.11047 19.8963 -0.163443 20.7394 0.220035L26.5284 2.68525L32.3173 0.220035C33.1604 -0.10866 34.1159 0.11047 34.6779 0.822644L38.4435 5.75308L44.7383 6.46525C45.6376 6.57482 46.3682 7.28699 46.4806 8.16351L47.1551 14.2444L52.2134 17.9148C52.9441 18.4626 53.2251 19.3939 52.8317 20.2157L50.3025 25.8583L52.8317 31.5009C53.1689 32.3226 52.9441 33.2539 52.2134 33.8018L47.1551 37.4722L46.4244 43.6079C46.312 44.4844 45.5814 45.1966 44.6821 45.3061L40.1858 45.7992" fill="#004A76"/>
<path d="M26.5279 41.0871C35.1571 41.0871 42.1525 34.2686 42.1525 25.8575C42.1525 17.4464 35.1571 10.6279 26.5279 10.6279C17.8987 10.6279 10.9033 17.4464 10.9033 25.8575C10.9033 34.2686 17.8987 41.0871 26.5279 41.0871Z" fill="white"/>
<path d="M15.7368 40.5938C18.7718 42.6755 22.4812 43.9355 26.4717 43.9355C30.4622 43.9355 34.1716 42.6755 37.2066 40.5938V61.0824C37.2066 62.6163 35.4643 63.4929 34.1716 62.6711L26.4717 57.6311L18.7718 62.6711C17.4791 63.4929 15.7368 62.6163 15.7368 61.0824V40.5938Z" fill="#EC1C24"/>
</g>
<defs>
<clipPath id="clip0">
<rect width="53" height="63" fill="white"/>
</clipPath>
</defs>
</svg>
