<svg width="63" height="63" viewBox="0 0 63 63" fill="none" xmlns="http://www.w3.org/2000/svg">
<path d="M25.5938 63C39.7288 63 51.1875 51.5413 51.1875 37.4063C51.1875 23.2712 39.7288 11.8125 25.5938 11.8125C11.4587 11.8125 0 23.2712 0 37.4063C0 51.5413 11.4587 63 25.5938 63Z" fill="#004A76"/>
<path d="M25.5938 52.7022C34.0413 52.7022 40.8894 45.8541 40.8894 37.4065C40.8894 28.9589 34.0413 22.1108 25.5938 22.1108C17.1462 22.1108 10.2981 28.9589 10.2981 37.4065C10.2981 45.8541 17.1462 52.7022 25.5938 52.7022Z" fill="white"/>
<path d="M25.5938 43.0095C28.6885 43.0095 31.1972 40.5008 31.1972 37.4061C31.1972 34.3114 28.6885 31.8027 25.5938 31.8027C22.4992 31.8027 19.9905 34.3114 19.9905 37.4061C19.9905 40.5008 22.4992 43.0095 25.5938 43.0095Z" fill="#EB212E"/>
<path fill-rule="evenodd" clip-rule="evenodd" d="M28.3197 37.5579L25.1394 38.0122L25.4423 34.8319L49.8245 10.4497L52.7019 13.1757L28.3197 37.5579Z" fill="#8DB300"/>
<path fill-rule="evenodd" clip-rule="evenodd" d="M52.2477 19.5362L44.5242 18.4761L52.5506 10.6011L60.2742 11.5097L52.2477 19.5362Z" fill="#8DB300"/>
<path fill-rule="evenodd" clip-rule="evenodd" d="M43.6155 10.7524L44.5241 18.476L52.5506 10.601L51.4905 2.87744L43.6155 10.7524Z" fill="#8DB300"/>
</svg>
