<svg width="52" height="52" viewBox="0 0 52 52" fill="none" xmlns="http://www.w3.org/2000/svg">
<path d="M47.7833 0.000651211C45.5917 -0.0339917 42.9547 1.31579 40.7563 3.51413C37.1578 6.75284 33.6226 10.3841 30.2159 14.0546L2.10803 8.43304L0 12.6492L21.0808 23.1896L9.13502 37.2435C6.39578 36.3425 2.10811 35.3174 2.10811 38.6489C2.10806 39.3073 2.27282 39.9857 2.81078 40.757L11.243 49.1892C12.0144 49.7271 12.6927 49.8919 13.3511 49.8919C16.6826 49.8919 15.6574 45.6043 14.7565 42.865L28.8104 30.9192L39.3508 52L43.567 49.8919L37.9454 21.7841C41.616 18.3775 45.2472 14.8423 48.4859 11.2437C50.6842 9.04533 52.034 6.40831 51.9994 4.21674C51.9807 3.03611 51.6083 1.91196 50.8524 1.14763C50.0881 0.391724 48.9639 0.0193429 47.7833 0.000651211Z" fill="#004A76"/>
</svg>
