<svg width="83" height="83" viewBox="0 0 83 83" fill="none" xmlns="http://www.w3.org/2000/svg">
<path d="M61.7354 40.5375V39.6577L53.2528 40.5873C47.9574 43.1105 46.8618 42.7619 41.002 42.8117C35.1422 42.8615 32.1044 43.6749 26.809 41.1517L21.082 39.8403V40.5375H20.8828L21.0654 40.6205V52.7883C21.06 53.0881 21.1358 53.3837 21.2849 53.6438C21.4339 53.904 21.6506 54.1189 21.912 54.2657C27.9201 57.4224 34.6053 59.0718 41.3921 59.0718C48.179 59.0718 54.8642 57.4224 60.8722 54.2657C61.1336 54.1189 61.3503 53.904 61.4994 53.6438C61.6484 53.3837 61.7243 53.0881 61.7188 52.7883V40.5707L62.001 40.4545L61.7354 40.5375Z" fill="#F5A300"/>
<path d="M76.2438 33.2C76.1607 32.9759 76.0302 32.7723 75.8612 32.6033C75.6921 32.4343 75.4886 32.3037 75.2644 32.2206L45.2682 20.7334C42.7853 19.7705 40.0322 19.7705 37.5492 20.7334L7.55304 32.204C7.34559 32.2858 7.15673 32.4085 6.99775 32.5649C6.83877 32.7212 6.71291 32.908 6.6277 33.1141C6.54249 33.3201 6.49966 33.5412 6.50178 33.7642C6.5039 33.9872 6.55092 34.2074 6.64004 34.4118C6.72314 34.636 6.85367 34.8395 7.02271 35.0086C7.19175 35.1776 7.3953 35.3081 7.61944 35.3912L20.8994 40.4874L37.4994 46.8618C39.9856 47.8074 42.7323 47.8074 45.2184 46.8618L61.9844 40.421L67.6782 38.263V52.456C68.8028 52.1922 69.9732 52.1922 71.0978 52.456V36.9682L75.2312 35.3912C75.4455 35.3193 75.6428 35.2044 75.8111 35.0535C75.9793 34.9027 76.115 34.719 76.2098 34.5139C76.3046 34.3087 76.3566 34.0864 76.3624 33.8605C76.3683 33.6345 76.3279 33.4098 76.2438 33.2Z" fill="#EC1C24"/>
<path d="M71.1311 52.4562C70.0065 52.1923 68.8361 52.1923 67.7115 52.4562C66.7348 52.8015 65.89 53.4428 65.2949 54.2908C64.6999 55.1387 64.384 56.1512 64.3915 57.1872V62.6984C64.3915 63.1386 64.5664 63.5608 64.8777 63.8722C65.189 64.1835 65.6112 64.3584 66.0515 64.3584H72.6915C73.1318 64.3584 73.554 64.1835 73.8653 63.8722C74.1766 63.5608 74.3515 63.1386 74.3515 62.6984V57.1872C74.3663 56.1631 74.065 55.1595 73.4888 54.3129C72.9125 53.4663 72.0892 52.8179 71.1311 52.4562Z" fill="#F5A300"/>
</svg>
