<svg width="83" height="83" viewBox="0 0 83 83" fill="none" xmlns="http://www.w3.org/2000/svg">
<path d="M72.4425 57.2035V24.3189C72.4425 23.073 71.9475 21.8781 71.0665 20.997C70.1855 20.116 68.9906 19.6211 67.7447 19.6211H20.7667C19.5208 19.6211 18.3259 20.116 17.4448 20.997C16.5638 21.8781 16.0689 23.073 16.0689 24.3189V57.2035H11.3711V58.5813C11.3711 59.8272 11.866 61.0221 12.747 61.9031C13.6281 62.7841 14.823 63.2791 16.0689 63.2791H72.5089C73.7548 63.2791 74.9497 62.7841 75.8307 61.9031C76.7117 61.0221 77.2067 59.8272 77.2067 58.5813V57.2035H72.4425Z" fill="#F5A300"/>
<path d="M47.1199 59.6562H41.0678C39.3997 59.6562 38.0417 59.2452 38.0417 57.0625H50.1459C50.1459 59.2452 48.7879 59.6562 47.1199 59.6562Z" fill="white"/>
<path d="M67.7446 24.3188H20.7666V52.5056H67.7446V24.3188Z" fill="white"/>
</svg>
