<?xml version="1.0" encoding="UTF-8"?> <svg xmlns="http://www.w3.org/2000/svg" viewBox="0 0 166.42 184.8"> <defs> <style>.cls-1{fill:#f8b5a8;}.cls-2{fill:#ec1c24;}.cls-3{fill:#004a76;}.cls-4{fill:#3a3b39;}.cls-5{fill:#fffffe;}.cls-6{fill:#7fb439;}.cls-7{fill:#fa9200;}.cls-8{fill:#8db300;}.cls-9{fill:#f4a200;}.cls-10{fill:#f9a61a;}.cls-11{fill:#484441;}.cls-12,.cls-13{fill:none;stroke-linecap:round;stroke-linejoin:round;}.cls-12{stroke:#484441;stroke-width:0.19px;}.cls-13{stroke:#d95f73;stroke-width:0.25px;}</style> </defs> <title>pict 4</title> <g id="Layer_1" data-name="Layer 1"> <path class="cls-1" d="M86.83,35.52c-.85.24-1.69.52-2.55.72-.49.11-.32.41-.31.69-.38,1.76-.44,3.56-.8,5.32Q80.29,56.17,67,61c-.54.2-1.1.36-1.65.53-.54,0-.68-.43-.77-.86-.53-2.52-1-5-1.65-7.55a.67.67,0,0,1,.13-.65c1.47-.41,3-.57,4.49-.87a13.4,13.4,0,0,0,6-3.24,20,20,0,0,0,4.36-5.16,22.2,22.2,0,0,0,2.49-7,24.46,24.46,0,0,0,.5-4.45,12.35,12.35,0,0,0-.43-3.52c-.08-.29-.28-.77.2-.87s.4.37.49.65a.78.78,0,0,0,.09.21c.1.15,0,.4.28.45a3.41,3.41,0,0,0,0-.46c0-.76,0-1.53,0-2.3,0-.35-.21-.88.38-.92s1.11-.32,1.3.51c.06.27.18.7.59.55.85-.32.84.29,1,.8.18.67.37,1.33.57,2,.11.37.28.56.56.09.19-.31.37-.84.8-.63s.1.71.13,1.08a.21.21,0,0,1,0,.11c-.86,1.86-.5,3.72,0,5.58A1.75,1.75,0,0,1,86.83,35.52Z"></path> <path class="cls-2" d="M138.91,54.19c-1.52-.63-3-1.22-4.54-1.9a10.55,10.55,0,0,0-5.69-.95,1.83,1.83,0,0,1-.71.25,2.7,2.7,0,0,1-2.17-4,2.07,2.07,0,0,0,.58-1.1c.27-.44.8-.62,1.06-1.06.12-.19.27-.41.1-.63s-.34-.15-.53-.13a3.73,3.73,0,0,0-.68.14c-.54.12-.85-.06-.78-.64a4.24,4.24,0,0,0-1.46-3.5c-.94-1-1.5-.91-2.71-.69,0-.1-.22.08.13-.58a4.76,4.76,0,0,1,3.21-2.57,2.94,2.94,0,0,1,3.57,1.78,10.55,10.55,0,0,1,.39,1.07,1.81,1.81,0,0,0,1.77,1.38,2.11,2.11,0,0,1,2.22,2.36c0,.15,0,.31,0,.46,0,1.94,0,2,1.8,2.64a2.08,2.08,0,0,1,1.58,2.13,3.08,3.08,0,0,0,1.27,2.57A3.76,3.76,0,0,1,138.91,54.19Z"></path> <path class="cls-1" d="M126.17,47.61a1,1,0,0,0-.45,1.07,5.75,5.75,0,0,0,.79,2.11c.37.62,1,.5,1.52.56-.94,1.47-1.66,3.09-3,4.24a5.23,5.23,0,0,1-2.51,1.3c-2.66.4-4.08-1.32-3.26-3.9a3.59,3.59,0,0,1,.49-.73,5.36,5.36,0,0,0,1.64-3.68c0-.2-.14-1.14-.31-1.22-1.27-.64-1.54-1.12-1.29-2.47.19-1,1.05-3.93,1.11-4h0s.29-.71.48-1.06c.08,0,.28-.14.36-.16.45-.3.75-.54,1.2-.82.2-.13.5-.38.53.15a2.92,2.92,0,0,0,1.13,1.81,3.61,3.61,0,0,1,1.23,3.5c-.1.44.13.42.44.31a5.58,5.58,0,0,1,.89-.24.78.78,0,0,1,.83.26c.21.31,0,.58-.11.86-.31.57-.91.8-1.38,1.18C125.79,46.83,125.51,47.09,126.17,47.61Z"></path> <path class="cls-1" d="M46.82,53.9c-1.63.22-3.26.45-4.89.63a10.29,10.29,0,0,1-2.28.26c.26-1.52.48-3,.8-4.56a19.81,19.81,0,0,0,.38-2.2c.49,0,.82.89,1.32.89,1.46,0,1.46,0,1.69-1.44a2.64,2.64,0,0,0,0-.28s0-.09,0-.13a2.41,2.41,0,0,0-.08-.25.65.65,0,0,1,0-.13c0-.09-.2-.16-.26-.17l-.15-.08a.92.92,0,0,1-.26-.22c-.24-.45-.31-.91.14-1.24a1.17,1.17,0,0,1,1.29.06c1.05.54,1.06.54,1.39-.58a1.3,1.3,0,0,1,.8-1,7.1,7.1,0,0,1,2.88-.51c.16,1.36.46,2.71.55,4.08,0,.41,0,.65-.38.8-.22.09-.47.18-.51.43-.14.68-.64.63-1.14.6-.28,0-.66-.22-.75.24s.22.55.47.74a.78.78,0,0,0,.21.09c.31.08.81,0,.82.44s-.46.65-.83.84a1.39,1.39,0,0,1-.32.12c-1.35.44-1.35,1-1.52,1.93C46.05,53.79,46.42,53.85,46.82,53.9Z"></path> <path class="cls-3" d="M44.24,47.22c0,.11-.09.21-.12.32-.18.53.19,1.44-.36,1.56a4.86,4.86,0,0,1-3-.11c-.05,0-.06-.13-.08-.2.43-2.18.85-4.36,1.49-6.5a2.87,2.87,0,0,1,2.61-2.35c.49,0,1-.17,1.47-.23.94-.11,1.86-.15,2.37-1.21a1.27,1.27,0,0,1,1.51-.59c.61.14.82.66,1,1.19a3.25,3.25,0,0,1-.8,3.09,10.09,10.09,0,0,1-.74.72,6.48,6.48,0,0,1-2.44.63c-.63,0-.89.32-.94.9,0,.12,0,.23,0,.35-.22,1.48-.37,1.55-1.55.64a2.83,2.83,0,0,0-.28-.2c-.35-.21-.76-.35-1.06,0a.69.69,0,0,0,.09,1c.09.08.63.61.71.7h0A.54.54,0,0,1,44.24,47.22Z"></path> <path class="cls-1" d="M149.29,33.46l-3.21.46A9.32,9.32,0,0,0,144.42,29c-.19-.24-.62-.52-.25-.88s.64.14.93.31a1,1,0,0,0,.53.2c.3.21.65.07,1,.11l.2,0c0-.12,0-.07-.09-.09s0,0-.11,0c-.33,0-.67.09-1-.1.23-1.15.43-2.31.69-3.46a1.51,1.51,0,0,1,1.91-.62c.27.23.17.57.16.87a57.16,57.16,0,0,0,.74,7.61A1.85,1.85,0,0,0,149.29,33.46Z"></path> <path class="cls-4" d="M51.69,168.56a13.2,13.2,0,0,1,3.15-1.14c.18.89.36,1.77.52,2.66,0,.29.12.51.43.58,1.25-.24,2.51.07,3.76-.16H60l.08.08-.08.08h0a.36.36,0,0,1-.22.18c-1.88,1.24-3.76,2.49-5.66,3.73-.76.51-.77.5-1-.46C52.62,172.27,52.15,170.41,51.69,168.56Z"></path> <path class="cls-4" d="M120.66,166.16a10.68,10.68,0,0,1,3.29.08c-.11,1.77-.25,3.53-.32,5.29,0,.59-.22.79-.82.78-1.76,0-3.53,0-5.3,0-.13,0-.33.07-.39-.1s.13-.24.24-.33c.81-.58,1.62-1.17,2.45-1.73a1.27,1.27,0,0,0,.65-1.11C120.48,168.07,120.59,167.12,120.66,166.16Z"></path> <path class="cls-4" d="M151.57,107l-2.9-.7a37.32,37.32,0,0,1,1.08-4.93c.08-.39.36-.35.62-.3,1.62.31,3.25.63,4.87,1a.41.41,0,0,1,.26.18c.05.21-.16.21-.28.26a19.85,19.85,0,0,1-1.95.72,1.49,1.49,0,0,0-1.2,1.45A6.83,6.83,0,0,1,151.57,107Z"></path> <path class="cls-5" d="M63,52.46c.79,2.7,1.29,5.46,1.83,8.21.07.35.11.67.46.85-.78.19-1.75.45-2.47.69-.58-2.93-1-5.9-1.58-8.84,0-.22-.42-.42-.46-.64C61.55,52.71,62.39,52.44,63,52.46Z"></path> <path class="cls-5" d="M119.57,53a3.2,3.2,0,0,0,.25,3c.61.86,2.34.81,3.23.45a7.08,7.08,0,0,0,3.91-4,1.84,1.84,0,0,1,1.07-1h.65a8.67,8.67,0,0,1-4.33,5.83,7.22,7.22,0,0,1-2.63.79,2.84,2.84,0,0,1-3.34-3.24,18.92,18.92,0,0,1,.17-2.12c.06,0,1.07-.3,1.21-.33A2,2,0,0,0,119.57,53Z"></path> <path class="cls-4" d="M18.45,118.66A14,14,0,0,1,16,119.81a10.35,10.35,0,0,1-.7-2.3c-.14-.49-.33-.78-.91-.83-1.07-.08-2.13-.26-3.19-.4-.11,0-.27,0-.3-.11s.09-.25.23-.32c1.43-.64,2.87-1.26,4.29-1.94.46-.22.62,0,.79.32C17,115.71,17.72,117.18,18.45,118.66Z"></path> <path class="cls-6" d="M112.79,41.12a6.9,6.9,0,0,0-2.25.21c-.17.06-.46,0-.44.24s.36.27.55.22a12.85,12.85,0,0,1,2-.22c.52,0,1.13.3,1.56-.28C113.78,40.91,113.22,41.22,112.79,41.12Z"></path> <path class="cls-6" d="M111.52,36.27c-.1,0-.23.06-.29.14a.21.21,0,0,0,.1.29,19.47,19.47,0,0,0,2.88,1.16.36.36,0,0,0,.29-.11.2.2,0,0,0-.09-.29Z"></path> <path class="cls-6" d="M115.09,31.81s-.07,0-.1-.06-.34.17-.27.29a16.76,16.76,0,0,0,1.77,2.49.19.19,0,0,0,.3,0s.08-.16.06-.19C116.27,33.48,115.68,32.65,115.09,31.81Z"></path> <path class="cls-7" d="M95.12,19.81l.28.25a.9.9,0,0,1-.61.29c-.25.09-.33,0-.3-.25A1.15,1.15,0,0,1,95.12,19.81Z"></path> <path class="cls-7" d="M94.49,20.1l.3.25a1.38,1.38,0,0,1-.78.39,1.89,1.89,0,0,1-.2-.2C93.92,20.21,94.22,20.18,94.49,20.1Z"></path> <path class="cls-7" d="M68.55,18.92a.43.43,0,0,1,.47.21A.56.56,0,0,1,68.55,18.92Z"></path> <path class="cls-7" d="M72.69,20.55l.42,0C73,20.83,72.84,20.69,72.69,20.55Z"></path> <path class="cls-6" d="M59.21,39.45c-.05-.13-.19-.13-.3-.08l-3.92,2c-.09,0-.23.1-.15.25a.27.27,0,0,0,.28.14c.25-.09.52-.16.76-.27.93-.46,1.86-.92,2.78-1.39a2.22,2.22,0,0,0,.49-.3A.36.36,0,0,0,59.21,39.45Z"></path> <path class="cls-6" d="M56.16,36.37c-.15-.12-.29,0-.4.09A14.24,14.24,0,0,0,54,38.57c-.08.08-.15.17-.23.24h0a.3.3,0,0,0-.22.23v.23c.07.2.15.17.24,0,1-.66,1.5-1.75,2.34-2.53C56.22,36.66,56.33,36.5,56.16,36.37Z"></path> <path class="cls-6" d="M58.47,44.38c-.84,0-1.68,0-2.52,0a.21.21,0,0,0-.22.21.2.2,0,0,0,.22.2h2.52c.16,0,.31-.09.26-.28A.33.33,0,0,0,58.47,44.38Z"></path> <path class="cls-7" d="M93.81,20.54l.2.2C93.85,20.77,93.8,20.69,93.81,20.54Z"></path> <path class="cls-7" d="M72.17,20.33a.33.33,0,0,1,.32.18A.38.38,0,0,1,72.17,20.33Z"></path> <path class="cls-7" d="M73,20.29l-.26-.16A.26.26,0,0,1,73,20.29Z"></path> <path class="cls-7" d="M71.52,20.09a.27.27,0,0,1,.27.15Z"></path> <path class="cls-7" d="M72.36,20a.31.31,0,0,1-.32-.17A.37.37,0,0,1,72.36,20Z"></path> <path class="cls-7" d="M71,19.87a.32.32,0,0,1,.33.18A.38.38,0,0,1,71,19.87Z"></path> <path class="cls-7" d="M71.85,19.82l-.26-.15Z"></path> <path class="cls-7" d="M69.84,19.41a.33.33,0,0,1,.34.17A.4.4,0,0,1,69.84,19.41Z"></path> <path class="cls-7" d="M69.2,19.17a.28.28,0,0,1,.28.15Z"></path> <path class="cls-7" d="M70,19.12a.33.33,0,0,1-.31-.17Z"></path> <path class="cls-7" d="M69.52,18.9l-.24-.14Z"></path> <path class="cls-7" d="M68,18.71a.3.3,0,0,1,.3.16Z"></path> <path class="cls-7" d="M68.88,18.65a.3.3,0,0,1-.31-.16Z"></path> <path class="cls-7" d="M67.87,18.45v.22c-.14,0-.25-.05-.26-.21l.13-.09Z"></path> <path class="cls-3" d="M63.13,61.08q-.78-3.57-1.41-7.15a2.08,2.08,0,0,0-.56-1.24c-.57,0-1.15,0-1.72.07-4.21.37-8.42.76-12.62,1.14a19.19,19.19,0,0,0-5.45.37,3,3,0,0,0-1.72.52,1.54,1.54,0,0,1-.32.15c-4.11.46-6.87,2.84-8.92,6.24a34.41,34.41,0,0,0-3.72,9.53C24.79,78.28,24.1,86,23.23,93.76c-.57,5-1.17,10-3.26,14.7-.32.72,0,.74.56.74,1.42,0,2.85,0,4.28,0a2.7,2.7,0,0,0,1.67.31q13.8,0,27.59,0c.49,0,1,.09,1.42-.32a5.25,5.25,0,0,0,.08-.68q.39-11.37.77-22.73c.1-2.84.25-5.69.32-8.53.1-4.08.56-12.8.53-13.08-.08-.76.21-1,1-1.09A31.51,31.51,0,0,0,63,62.17,1.15,1.15,0,0,0,63.13,61.08Z"></path> <path class="cls-8" d="M154.05,57.78c-1.13-6-2.26-11.93-3.44-17.89-.42-2.15-.7-4.32-1.32-6.43a3.79,3.79,0,0,0-3.21.46c-.61.07-.56.5-.53.94.09,1.54.17,3.08.26,4.61.32,6.11.83,12.21,1.63,18.27-1-.23-1.93-.9-3-1.1l-5.54-2.45a1.2,1.2,0,0,0-.69-.58c-1.62-.7-3.23-1.44-4.89-2.06a7.79,7.79,0,0,0-4.53-.42c-.47.23-.53.72-.7,1.14-1.11,2.76-2.92,4.75-6,5.34a2.72,2.72,0,0,1-3.4-3.33,2.84,2.84,0,0,0,.11-1.58.23.23,0,0,0-.31-.06c-1.1.21-2.19.45-3.29.62a42.82,42.82,0,0,1-12,.62,11.12,11.12,0,0,1-6.94-3.29,38.46,38.46,0,0,1-5.07-6.72c-1.67-2.69-3-5.53-4.44-8.35a4,4,0,0,0-2.82.59c-.39.16-.38.53,0,.82a71,71,0,0,0,3.82,10.61,39.92,39.92,0,0,0,4,6.87,16.31,16.31,0,0,0,6.83,5.49,33.49,33.49,0,0,0,13,3.2h0a.92.92,0,0,0,.63,0h0c.71.06.66.58.69,1.09a6.75,6.75,0,0,0,2.47,5.36,1,1,0,0,1,.36.91c.07,2,.15,4,.22,6q.38,10.55.76,21.09a1.61,1.61,0,0,0,.15.89c.94.34,1.81-.18,2.72-.24,6-1.16,12-2.27,18-3.43A14.85,14.85,0,0,0,142,93.73c1.21-.21,1.2-.21,1-1.35-.09-.57-.15-1.14-.23-1.72-.74-5.37-1.47-10.74-2.24-16.11-.42-2.9-.77-5.8-1.35-8.66a6.31,6.31,0,0,0-.21-1.84c1.23.06,2.42.4,3.64.56,2.09.28,4.14.92,6.28.81A5.26,5.26,0,0,0,154,61.11,8.12,8.12,0,0,0,154.05,57.78Z"></path> <path class="cls-9" d="M151.57,107a3.19,3.19,0,0,0-2.9-.7,1.47,1.47,0,0,0-.24.37q-2.33,8.88-4.64,17.75a.2.2,0,0,0-.06.19c-.43-.2-.27-.6-.26-.91.06-3.5-.09-7-.17-10.5-.13-5.92-.48-11.83-1.2-17.71a5.78,5.78,0,0,0-.15-1.76,1.73,1.73,0,0,0-.45,0c-5.23,1-10.46,2-15.68,3-2.13.43-4.29.7-6.39,1.31a14.83,14.83,0,0,0-2.55.46c0,2.35.11,4.69.23,7,.25,5.24.45,10.47.67,15.71q.6,14,1.19,28c.22,5.31.47,10.62.66,15.94,0,.8.27,1.1,1,1.06a5.84,5.84,0,0,0,3.29.08c.41-.31,1.22.18,1.31-.88.3-3.6.76-7.2,1.11-10.8.63-6.63,1.29-13.26,1.83-19.9.56-7,1.09-13.9,1.25-20.88.2-1.44,0-2.9.12-4.35a4.29,4.29,0,0,0,0-1.24c.13.4,0,.85.32,1.21a116.08,116.08,0,0,0,2.49,12,43.77,43.77,0,0,0,4.24,11.06,10.23,10.23,0,0,0,3,3.47,4.51,4.51,0,0,0,5.21.07,7.52,7.52,0,0,0,2.66-3.14,32.72,32.72,0,0,0,2.78-10.08c.54-3.54.84-7.11,1.09-10.69A29.49,29.49,0,0,0,151.57,107Z"></path> <path class="cls-2" d="M55.56,110.64a3.35,3.35,0,0,0-.09-1.26l0-.23H26.19c-.46,0-.92,0-1.38,0l0,2.48a83.24,83.24,0,0,0,.59,10.59,11.27,11.27,0,0,0,.31,2.83c-.08,1.1.29,2.15.26,3.24h-.23l-5.34-8.86c-.7-1.15-.7-1.15-2-.82A3.45,3.45,0,0,0,16,119.81a5.06,5.06,0,0,0,.05.68,84,84,0,0,0,3.37,11.63,38.57,38.57,0,0,0,5.36,10.3,11.8,11.8,0,0,0,4.86,4,3.9,3.9,0,0,0,5-1.33A14.65,14.65,0,0,0,37.11,140,56.58,56.58,0,0,0,39,129.69a135.07,135.07,0,0,0,.77-14.07l.09-1.36c.19.12.18.32.22.51.89,4.2,1.8,8.41,2.67,12.62q2.85,13.87,5.65,27.77,1.29,6.38,2.55,12.76c.08.43.18.75.71.64a6,6,0,0,0,3.15-1.14c.82-.28.72-1,.72-1.61Z"></path> <path class="cls-5" d="M126.17,47.61c-.48,0-1-.06-.86-.73s.69-.44,1.13-.2C126.52,47,126.58,47.39,126.17,47.61Z"></path> <path class="cls-9" d="M78,10.58a.29.29,0,0,0-.15-.29.23.23,0,0,0,0-.16V9.89h-.46c0,.26,0,.54.21.73a.34.34,0,0,0,0,.2.51.51,0,0,0,.19.49q.84,2.56,1.69,5.13c.05.17.13.42.36.36.39-.11.12-.39.06-.55C79.29,14.36,78.64,12.47,78,10.58Z"></path> <path class="cls-9" d="M99.07,27.71l-1.25-.14c-1.07-.11-2.14-.22-3.21-.31-.2,0-.51-.12-.53.22s.25.22.43.24l4.28.46a2.76,2.76,0,0,0,.29,0c.18,0,.43.05.43-.22S99.25,27.73,99.07,27.71Z"></path> <path class="cls-9" d="M95.4,20.06a28.21,28.21,0,0,0,3.2-1.49c.13-.06.3-.16.23-.34s-.29-.17-.46-.08a33.12,33.12,0,0,0-3.25,1.66A.31.31,0,0,0,95.4,20.06Z"></path> <path class="cls-9" d="M72.74,20.13,72.36,20a.59.59,0,0,1-.32-.17.26.26,0,0,0-.19-.05l-.26-.15A6.23,6.23,0,0,0,70,19.12a.73.73,0,0,1-.31-.17.3.3,0,0,0-.21-.05l-.24-.14-.4-.11a.62.62,0,0,1-.31-.16.3.3,0,0,0-.21,0l-.26-.14-.23-.06c-.17,0-.26,0-.25.22h.23a.1.1,0,0,0,0,.06.17.17,0,0,0,.05.16l.08,0H68c.12,0,.2.1.3.16a.33.33,0,0,0,.22.05c.13.13.34.08.47.21l.09,0h.09a1.08,1.08,0,0,1,.28.15l.36.09a.53.53,0,0,1,.34.17,1.39,1.39,0,0,0,.83.29.5.5,0,0,1,.33.18.22.22,0,0,0,.18,0l.27.15.38.09a.54.54,0,0,1,.32.18.28.28,0,0,0,.2,0,.3.3,0,0,0,.42,0c.09-.14,0-.21-.11-.24Z"></path> <path class="cls-9" d="M72.78,28.91a3.74,3.74,0,0,0-.51.22.54.54,0,0,0-.49.19.25.25,0,0,0-.21,0l-.32.17-.38.08h0l-.29.16-.41.1a1.3,1.3,0,0,0-.26.14c-.54.17-1.08.33-1.61.51-.16.06-.41.13-.33.37s.28.18.47.11l2.22-.83.26-.14H71l.1,0a.39.39,0,0,0,.33-.17l.36-.08.31-.16.38-.08a.27.27,0,0,0,.27-.16c.17,0,.4,0,.36-.28S72.93,28.86,72.78,28.91Z"></path> <path class="cls-9" d="M95.19,36.72A3.39,3.39,0,0,0,94,35.79l-.26-.21a.31.31,0,0,0-.24-.23,22888779448128,22888779448128,0,0,0-.46-.46.3.3,0,0,0-.23-.24c-.13-.21-.27-.58-.55-.29s.13.41.33.55a7629593149391.48,7629593149391.48,0,0,0,.46.46.31.31,0,0,0,.23.24.29.29,0,0,0,.23.22.26.26,0,0,0,.23.22,3.7,3.7,0,0,0,1.17.91l0,0c.09.2.18.21.29,0S95.39,36.8,95.19,36.72Z"></path> <path class="cls-9" d="M89.62,10.62c-.15,0-.21,0-.25.15s-.1.18-.16.27a.26.26,0,0,0-.06.21,2.13,2.13,0,0,0-.16.25c0,.08,0,.15-.07.23a.59.59,0,0,0-.14.23l-.12.38a.35.35,0,0,0-.18.32,11.17,11.17,0,0,0-1,2.08.59.59,0,0,0-.14.23l-.12.37a.38.38,0,0,0-.18.33.25.25,0,0,0-.06.16c-.15.12-.2.24,0,.32s.17.19.24,0h0a.21.21,0,0,0,.17-.22l.1-.37a.37.37,0,0,0,.18-.33A15.38,15.38,0,0,0,89,12.53a.38.38,0,0,0,.18-.32.19.19,0,0,0,0-.16l.17-.3a.24.24,0,0,0,0-.18l.17-.29a.26.26,0,0,0,.06-.19C89.78,10.93,90,10.76,89.62,10.62Z"></path> <path class="cls-10" d="M78.19,88a15.24,15.24,0,0,1-4.45,2.23.76.76,0,0,0,.4,1.47c.36-.09,1.28-.4,1.64-.12.21.15-.25.81-.33.94a4.85,4.85,0,0,1-3.44,2c-3.22.37-4-4.65-3.86-6.89a13.49,13.49,0,0,1,1.78-5.83,3.88,3.88,0,0,1,2-1.94c1.1-.34,2.49.86.93,1.44-.9.33-.51,1.8.4,1.46,1.52-.57,2.5-2.08,1.4-3.51s-3.16-1.12-4.35-.24c-2.47,1.82-3.68,6-3.71,8.92a10.49,10.49,0,0,0,2,6.63c1.49,1.87,3.84,1.66,5.8.77a4.92,4.92,0,0,0,2.9-3.66A1.32,1.32,0,0,0,77,90.52a16.9,16.9,0,0,0,2-1.23c.8-.56,0-1.88-.75-1.31"></path> <path class="cls-10" d="M86.52,85.78c-1.57-1.21-3.15,0-4.08,1.36-.55.81.77,1.56,1.32.76.4-.6,1.16-1.54,1.9-.88a2.38,2.38,0,0,1,.57,2.15c-.43,2-3.93,1.86-3.49-.31.19-1-1.27-1.34-1.47-.38a3,3,0,0,0,2.31,3.59,3.4,3.4,0,0,0,4-2.19,3.8,3.8,0,0,0-1.08-4.1"></path> <path class="cls-10" d="M93.68,83.9a.83.83,0,0,0-1.34,0,.73.73,0,0,0-.57-.3A3,3,0,0,0,89,86.24a3.22,3.22,0,0,0,2.31,3.45c1.28.41,2.35-.68,2.78-1.76a4.33,4.33,0,0,0-.36-4M91.9,88.24c-.68.21-1.43-.92-1.47-1.46-.06-.76.54-1.69,1.36-1.64a.62.62,0,0,0,.64-.37c.55.91.73,3.08-.53,3.47"></path> <path class="cls-10" d="M101.83,85.86C99.68,80.1,99.27,74,99,67.91c0-1-1.56-1-1.52,0A78.3,78.3,0,0,0,98.86,81a2.63,2.63,0,0,0-1.91.07,3.39,3.39,0,0,0-1.64,2.11c-.47,1.41-.39,4.14,1.64,4.19,1.25,0,2.33-1.17,3.07-2.11.11.33.23.67.35,1,.34.91,1.81.52,1.46-.4M99.13,84a9,9,0,0,1-1.46,1.56l-.23.15a2.25,2.25,0,0,1-.21.12l-.18.06,0,0h-.14l0,0v0l-.1-.18,0-.08-.06-.24,0-.11v0c0-.19,0-.37,0-.56l0-.21,0-.27c0-.19.1-.38.16-.57l0-.12h0l.15-.29.15-.24,0,0,0,0,.19-.19,0,0,.08,0,.15-.08.18,0h.3l.26.07.08,0,.1.05a3.22,3.22,0,0,1,.64.39l.09,0c.07.27.15.53.22.79a.55.55,0,0,0-.41.21"></path> <path class="cls-10" d="M78.55,101.21c-4.35,1.58-8.71,3.19-13,5.05-.89.39-.12,1.7.76,1.31,2-.85,3.93-1.65,5.92-2.42.56,2.89,1.07,5.79,1.38,8.71.1,1,1.62,1,1.51,0-.32-3.11-.86-6.18-1.45-9.24,1.74-.66,3.49-1.3,5.24-1.94.91-.33.52-1.79-.4-1.46"></path> <path class="cls-10" d="M80.39,112.11a19,19,0,0,1-.62-3.82c-.08-1-1.59-1-1.51,0a22,22,0,0,0,.66,4.2.76.76,0,0,0,1.47-.39"></path> <path class="cls-10" d="M79.7,104.34h0a.76.76,0,0,0-.56-.64.77.77,0,0,0-.92.55,1.12,1.12,0,0,0,.08.7h0a.73.73,0,0,0,.55.64.76.76,0,0,0,.92-.54,1.08,1.08,0,0,0-.08-.71"></path> <path class="cls-10" d="M96.72,105.34c-.59.6-1.57,1.57-2.47,1.36a1,1,0,0,1-.62-.52A4.53,4.53,0,0,0,96.32,102a.75.75,0,0,0-.56-.72c-2.82-.76-4.28,1.93-3.9,4.38a3.36,3.36,0,0,0,.75,1.67.6.6,0,0,0-.16.19,2.74,2.74,0,0,1-.64.77c-.71-1.36-1.06-2.91-2.06-4.12-1.28-1.54-2.36,0-3,1.37-1.31-1.09-2.77.74-3.4,1.88l-.09-.49c-.18-1-1.64-.56-1.47.39.37,2,.81,4,1.18,6,.17,1,1.63.56,1.46-.4-.27-1.47-.58-2.93-.87-4.4a.7.7,0,0,0,1.06-.23,3.48,3.48,0,0,1,1.16-1.51s0-.06.1.06a1.86,1.86,0,0,1,.36.52,8.38,8.38,0,0,1,.75,3.32c.06,1,1.58,1,1.51,0a10.84,10.84,0,0,0-.71-3.56,10.45,10.45,0,0,1,.46-1.33c.07-.15.14-.29.22-.43l.15-.15c.13.19.5.84.6,1a32.31,32.31,0,0,0,1.64,3.53.78.78,0,0,0,1,.28,3.82,3.82,0,0,0,1.85-1.72l.06-.12c1.48.48,3-.78,4-1.74.69-.69-.38-1.77-1.07-1.08m-2-2.65a3,3,0,0,1-1.45,2,1.83,1.83,0,0,1,1.45-2"></path> <path class="cls-10" d="M100.46,98.38c-1.37.13-3.57,1-3,2.78.26.83,1.16,1.17,1.91,1.42s1.27.16,1.63.89.06.81-.57,1.14a4.46,4.46,0,0,1-1,.31c-.85.18-.49,1.48.36,1.3,1.42-.3,3.31-1.29,3-3.06a1.94,1.94,0,0,0-1.29-1.4c-.47-.19-1-.18-1.49-.4-.64-.08-.87-.53-.68-1.34a2.85,2.85,0,0,1,1.18-.29C101.32,99.64,101.32,98.29,100.46,98.38Z"></path> <path class="cls-1" d="M83.84,26.06c-.11,0-1.51.58-1.54,1a16.49,16.49,0,0,0,.32,4c.36,2,.93,4.66,1.11,5.22"></path> <path class="cls-11" d="M121.29,41.47a.33.33,0,0,1,.42.26.31.31,0,0,1-.27.4.29.29,0,0,1-.35-.23A.32.32,0,0,1,121.29,41.47Z"></path> <path class="cls-12" d="M121.1,40.92a.76.76,0,0,1,.63-.09.78.78,0,0,1,.38.34"></path> <path class="cls-11" d="M123.49,42.21a.32.32,0,0,1,.38.3.31.31,0,0,1-.31.37.29.29,0,0,1-.32-.27A.32.32,0,0,1,123.49,42.21Z"></path> <path class="cls-12" d="M123.37,41.64a.73.73,0,0,1,.63,0,.74.74,0,0,1,.33.38"></path> <path class="cls-13" d="M120.55,45.38a.82.82,0,0,0,.45.43,1.05,1.05,0,0,0,.66,0"></path> <path class="cls-12" d="M121.83,42.52l-.89,1.5c-.11.22.08.26.27.34"></path> <path class="cls-11" d="M48.29,45a.32.32,0,0,1,.48,0,.31.31,0,0,1-.06.47.28.28,0,0,1-.42,0A.32.32,0,0,1,48.29,45Z"></path> <path class="cls-12" d="M47.87,44.62a.76.76,0,0,1,.52-.37.81.81,0,0,1,.48.14"></path> </g> </svg> 