<?xml version="1.0" encoding="UTF-8"?> <svg xmlns="http://www.w3.org/2000/svg" viewBox="0 0 166.42 184.8"> <defs> <style>.cls-1{fill:#fffffe;}.cls-2{fill:#585755;}.cls-3{fill:#ec1c24;}.cls-4{fill:#02394f;}.cls-5{fill:#3a3b39;}.cls-6{fill:#e3e7eb;}.cls-7{fill:#004a76;}.cls-8{fill:#f8b5a8;}.cls-9{fill:#b3b8bc;}.cls-10{fill:#f4a200;}.cls-11{fill:#8db300;}.cls-12{fill:#484441;}.cls-13{fill:none;stroke:#484441;stroke-linecap:round;stroke-linejoin:round;stroke-width:0.19px;}</style> </defs> <title>pict 4</title> <g id="Layer_1" data-name="Layer 1"> <path class="cls-1" d="M85.15,93.45l1.67,4.94s-11.07,5.07-11.42,4.83-4.31-5.71-4.31-5.71,5.83-3.72,6-3.72Z"></path> <path class="cls-2" d="M47.36,125.87c-.24-.84-.77-1.07-1.65-1a9.91,9.91,0,0,1-4.58-.9,6.53,6.53,0,0,1-3.86-4.26l-1.55-5.33v-3.6c.64-2.29,2.32-3.29,4.53-3.65a11.46,11.46,0,0,0,1.38-.41,1.51,1.51,0,0,1,.87-.48A42.18,42.18,0,0,1,51.16,105c.26,0,.52,0,.78,0,3.49.15,5.86,1.75,6.88,5.2a19.37,19.37,0,0,1,.64,10.18,4.71,4.71,0,0,1-4.35,4A48.8,48.8,0,0,1,49,125,1.25,1.25,0,0,0,47.36,125.87Z"></path> <path class="cls-3" d="M48.81,124.73a48.84,48.84,0,0,0,7-.72c1.9-.3,3.1-1.83,3.5-4.41A19.15,19.15,0,0,0,57.93,109a5.49,5.49,0,0,0-4.54-3.38c-3.09-.51-6.11.06-9.13.58-.88.16-1.75.36-2.63.54a69.48,69.48,0,0,1-1.41-15.16c.37-10.09,6.49-17.79,16.18-20.21a2.45,2.45,0,0,1,1.6-.68,17.55,17.55,0,0,1,6.09,0,29.52,29.52,0,0,1,4.77.62,12.14,12.14,0,0,1,7.82,5,64,64,0,0,1,7.63,14.94c.29.73.51,1.49.84,2.2s.07.88-.54,1.12c-3,1.14-5.9,2.35-8.87,3.49-.75.28-1,.57-.61,1.35a15.88,15.88,0,0,1,.68,1.65,2.37,2.37,0,0,1,.8,1.19c2.59,6.52,5.15,13,8,19.43a23.55,23.55,0,0,0,2.93,5.43.72.72,0,0,1,.18.73c-1.15,1.23-2.74,1.68-4.22,2.28a49.37,49.37,0,0,1-15.44,3.28,61.86,61.86,0,0,1-7.07.16,58.83,58.83,0,0,1-9.72-.95,1.36,1.36,0,0,1-.78-.89,51,51,0,0,1-1.84-6.06C48.63,125.35,48.51,125,48.81,124.73Z"></path> <path class="cls-4" d="M95.36,141.36l5.22-1.79q-2.19,13-4.35,25.92a.89.89,0,0,1-1,.86,3.16,3.16,0,0,1-3.12,0c-.33-5.41-.65-10.83-1-16.23a9.72,9.72,0,0,0-.41-3.39c.06-.46.49-.53.79-.7A7.49,7.49,0,0,0,95.36,141.36Z"></path> <path class="cls-5" d="M95.36,141.36c.15,1.59-.89,2.59-1.89,3.54a9.33,9.33,0,0,1-2.82,1.79,26,26,0,0,1-4.27,1.66,2.8,2.8,0,0,1-1.2.58A47.22,47.22,0,0,1,72.3,150a3.05,3.05,0,0,1-1.07-.3,8.57,8.57,0,0,0-3.06-.62c-6.28-.12-10.78-3.33-14.32-8.2-3.27-4.52-5.11-9.68-6.49-15-.33-1.42.65-1.16,1.45-1.14a32.84,32.84,0,0,0,2.43,7.66,20.53,20.53,0,0,0,2.16,4.89A12.13,12.13,0,0,0,56,140.9c1.54,1.45,8.21,5.11,8.53,4.75a24.46,24.46,0,0,0,8.25,1.25,31.68,31.68,0,0,0,9.34-1.46l12.4-3.88A8.44,8.44,0,0,1,95.36,141.36Z"></path> <path class="cls-6" d="M102.08,35.12c1.7-4.07,3.42-8.14,5.1-12.22.24-.59.54-.59,1-.4,1,.38,1.88.41,2.3-.85a.45.45,0,0,1,.7-.28c4.3,2,8.72,3.74,13,5.89a44,44,0,0,1-5.73,2.15c-5.26,1.91-10.54,3.73-15.82,5.59A4.71,4.71,0,0,1,102.08,35.12Z"></path> <path class="cls-6" d="M118.27,6.54c-2.82,5-5.65,10-8.43,15-.38.69-.81.48-1.3.37l-12.87-3c-.33-.07-.66-.11-1-.16L117.25,7C117.58,6.83,117.93,6.69,118.27,6.54Z"></path> <path class="cls-6" d="M124.79,26.64c-4.33-1.92-8.66-3.86-13-5.74-.71-.31-.52-.57-.24-1q3.56-6.24,7.08-12.48a2.18,2.18,0,0,0,.4-1Z"></path> <path class="cls-5" d="M80.25,152.17c.06,5.81.15,11.61.17,17.42,0,.91.24,1.21,1.17,1.25A9.77,9.77,0,0,1,86.44,172c.62.37,1.54.23,2.29.42a3.14,3.14,0,0,1,2.67,3.25,2,2,0,0,1-1.78,2,1.75,1.75,0,0,1-2-1.11,2.08,2.08,0,0,1,1.12-2.44c.22-.13.45-.24.69-.37a3.73,3.73,0,0,0-3.49-.86,17.82,17.82,0,0,1-6.51,1c-.4,0-.83-.13-1.17.22,1.78.67,2.31,1.22,2.21,2.35a2.49,2.49,0,0,1-2,2.24,2.69,2.69,0,0,1-2.61-1.58c-.46-1.12-.06-2.06,1.43-3.24a15.61,15.61,0,0,1-4.75-1.17,2.49,2.49,0,0,0-2.27.26,1.13,1.13,0,0,0-.44,1.8c.52.73.89,1.42.1,2.18a1.43,1.43,0,0,1-1.84.28,2.12,2.12,0,0,1-.91-2.44,3.2,3.2,0,0,1,2.68-2.29c2.8-.39,5.36-1.91,8.28-1.71.71.05.74-.38.73-.93q-.11-8.84-.17-17.65C79.19,151.84,79.72,151.58,80.25,152.17Z"></path> <path class="cls-6" d="M88.31,102.44a18.28,18.28,0,0,1-1-2.7,39.78,39.78,0,0,0,1.46-5.15,1.36,1.36,0,0,1,1.57-1.19c4.93.12,9.85.38,14.77.67,2.39.15,4.78.18,7.17.26.34,0,.68,0,1,0,2,.11,2.66.38,2,2.63-1.8,5.77-3.49,11.58-5.23,17.37l-2.28.45c-.1-.93.47-1.63.47-2.44a2.88,2.88,0,0,1,.26-1.85c1.24-4.29,2.39-8.59,3.64-12.87.42-1.46.3-1.57-1.23-1.64q-7.23-.33-14.45-.85c-1.53-.11-3.07,0-4.59-.26-.81-.11-1.23.3-1.44,1.07-.48,1.78-1,3.55-1.48,5.31C88.77,101.69,88.76,102.17,88.31,102.44Z"></path> <path class="cls-6" d="M94.68,19.4c3.16.52,6.24,1.44,9.38,2.1l.76.18c2,.47,2,.46,1.14,2.38q-2.13,5-4.23,10c-.14.34-.2.71-.31,1.06Q98.32,28,95.2,20.87C95,20.39,94.85,19.89,94.68,19.4Z"></path> <path class="cls-6" d="M126.69,62.09l-16.52-4.27c0-.5.37-.71.7-.94q2.92-2,5.81-4c.67-.48,1.26-.64,1.77.22.33.57.8.57,1.34.27,2.14-1.21,2.26-.58,3.16,1.07,1.13,2.11,2.23,4.24,3.39,6.33C126.56,61.15,126.92,61.55,126.69,62.09Z"></path> <path class="cls-7" d="M56.21,68.94c-.42-.11-.4-.49-.49-.8-.62-2.24-1.2-4.49-1.63-6.77a2.37,2.37,0,0,1,1.37-3,9.61,9.61,0,0,1,2.75-.93c.35-.07.63-.09.68-.56a2.15,2.15,0,0,1,2-2.13c1-.13,1.64.57,2,1.44.56,1.19,0,2-.89,2.72a1.84,1.84,0,0,0-.23.25c-.24.53-.79.65-1.24.88-1.11.58-1.13.59-.66,1.8.32.83.6,1.68.87,2.54.1.35.25.76-.17,1a1.07,1.07,0,0,1-1.25,0c-.43-.3-.9-1-1.4-.37s.25,1,.64,1.33a2.2,2.2,0,0,1,.67,1.25c.11.63-.06,1-.73,1.13S57,69.27,56.21,68.94Z"></path> <path class="cls-6" d="M113.56,45.3c3,.47,6,.92,8.91,1.41,2.53.42,5,.88,7.58,1.32,0,.41-.38.54-.67.68L120.22,53a1.46,1.46,0,0,1-2.09-.6c-1.39-2-2.8-4-4.18-6C113.72,46.09,113.43,45.76,113.56,45.3Z"></path> <path class="cls-8" d="M56.21,68.94c.62-.12,1.25-.21,1.86-.39.32-.1.91.1.92-.39a1.62,1.62,0,0,0-.46-1.44,7.11,7.11,0,0,1-.92-.81.85.85,0,0,1,0-1.22.88.88,0,0,1,1.22-.09,2.2,2.2,0,0,1,.58.51c.33.48.77.27,1.11.13s.05-.54,0-.77c-.36-1.14-.74-2.28-1.18-3.39-.22-.56-.09-.79.46-1,.7-.25,1.36-.61,2-.91a32,32,0,0,1,2,3.83c.08.16.23.41.06.51-1.16.7-.39,1.56-.17,2.32s.19,1.26-.61,1.51c-1.21.37-1,1.23-.81,2.15s.63,1.06,1.39,1c.13,0,.27.1.41.15a29.61,29.61,0,0,0-7.69.67A5.24,5.24,0,0,0,56.21,68.94Z"></path> <path class="cls-6" d="M130.65,48.61q-1.56,6.09-3.1,12.16c-.07.25-.18.49-.26.73-.52,0-.65-.48-.83-.81-1.33-2.38-2.59-4.8-3.9-7.19-.39-.7-.37-1.27.44-1.66q3.48-1.67,7-3.24A.59.59,0,0,1,130.65,48.61Z"></path> <path class="cls-6" d="M109.75,57.19l3.16-11.91c1.49,1.92,2.82,3.95,4.2,5.94a.84.84,0,0,1-.21,1.28c-2.23,1.65-4.49,3.24-6.83,4.72A.31.31,0,0,1,109.75,57.19Z"></path> <path class="cls-2" d="M80.25,152.17c-.53-.21-1.06.09-1.58,0a11,11,0,0,1-6.39-1.51,2.82,2.82,0,0,1-1-.95c1.57,0,3.13,0,4.7,0a39.94,39.94,0,0,0,9.79-1.25c.21-.05.44-.06.66-.09-.32,1.3-1.36,1.88-2.39,2.5S81.45,151.61,80.25,152.17Z"></path> <path class="cls-6" d="M113.74,85.82,98.49,83.29A1.82,1.82,0,0,1,98,83c-.11-.66.41-.93.81-1.26,1-.81,2-1.6,3-2.35s2-1.84,3.57-1.13c.26.12.62-.11.9-.25.78-.35,1.26,0,1.79.56,1.79,2,3.41,4.1,5.25,6C113.65,84.9,114,85.27,113.74,85.82Z"></path> <path class="cls-9" d="M109.75,57.19c2.24-1.56,4.45-3.15,6.73-4.66.74-.49.7-.85.23-1.48-1.13-1.54-2.2-3.11-3.29-4.67a1.93,1.93,0,0,1-.51-1.1c.23-.33.44,0,.65,0q2.55,3.68,5.08,7.36c.27.38.51.54,1,.3,3.46-1.66,6.93-3.29,10.4-4.93.42,0,.79,0,.6.58-2.55,1.18-5.09,2.37-7.64,3.53-.45.21-.66.4-.37.91,1.59,2.8,3,5.72,4.65,8.45,0,.46,0,.79-.6.59-1.53-2.86-3.07-5.72-4.57-8.6-.32-.62-.69-.69-1.24-.36-.22.13-.49.2-.7.34-.87.58-1.61.73-2.11-.44-.19-.44-.48-.48-.88-.19-2.33,1.67-4.68,3.32-7,5C109.64,57.86,109.49,57.66,109.75,57.19Z"></path> <path class="cls-10" d="M105.56,168.32l3,.05c-.17,1.41-.3,2.83-.53,4.23-.1.61,0,.88.6,1.1a24.9,24.9,0,0,1,3.62,1.67c-1.56.21-3.12.46-4.69.6-.89.09-2,.66-2.6.16s0-1.68,0-2.56C105.16,171.82,105.38,170.07,105.56,168.32Z"></path> <path class="cls-6" d="M115.51,73.34c-.24,3-.4,6-.76,9-.14,1.18.19,2.42-.41,3.55-1.87-2.31-3.85-4.52-5.81-6.76-1.23-1.39-1.18-1.83.48-2.74,1.4-.76,2.77-1.58,4.16-2.35C113.89,73.68,114.56,73,115.51,73.34Z"></path> <path class="cls-10" d="M92.06,166.31l3.12,0c0,.67-.05,1.34-.1,2-.12,1.81-.12,1.81,1.55,2.54a5.94,5.94,0,0,1,1.49.88c-1.87.17-3.74.33-5.61.52-.55.06-.51-.28-.51-.62Z"></path> <path class="cls-6" d="M99.25,72.8l15.42,0c0,.66-.63.81-1.06,1.06-2.29,1.33-4.63,2.57-6.9,3.92a1.76,1.76,0,0,1-2.3,0c-1.68-1.38-3.31-2.82-4.93-4.25A.64.64,0,0,1,99.25,72.8Z"></path> <path class="cls-6" d="M97.31,82.35a77.87,77.87,0,0,1,1.37-9c2.07.61,3.31,2.31,4.76,3.72a.82.82,0,0,1-.23,1.26c-1.85,1.32-3.54,2.84-5.46,4.08A.41.41,0,0,1,97.31,82.35Z"></path> <path class="cls-9" d="M97.31,82.35c1.84-1.35,3.66-2.72,5.51-4.06.71-.52.7-.94,0-1.48-1.4-1.13-2.78-2.3-4.17-3.44-.12-.5.12-.64.57-.57,1.84,1.58,3.7,3.16,5.53,4.76a1,1,0,0,0,1.39.21c2.82-1.67,5.66-3.3,8.5-4.94.36,0,1-.39.84.51-2.32,1.26-4.63,2.55-7,3.77-.9.48-.6.9-.11,1.45,1.62,1.82,3.21,3.66,4.8,5.5.48.55,1.1,1,1.11,1.86l-.6-.1-6.25-7.4c-.07-.08-.18-.24-.21-.22-1.17.53-2.65-.19-3.53.33A29,29,0,0,0,98,83C97.52,83,96.87,83.28,97.31,82.35Z"></path> <path class="cls-7" d="M118.33,124.73a4.24,4.24,0,0,0-3.44-3.43,16,16,0,0,0-3-.42,42.43,42.43,0,0,0-8.92.94,3.58,3.58,0,0,0-2.3.68,38.13,38.13,0,0,1-4.58,2.58c-2.37,1.15-4.72,2.44-7.51,2.28a.94.94,0,0,0-.82.26,19.35,19.35,0,0,1-4.59,2.3c-6.1,2.42-12.49,3.19-19,3.34a93.49,93.49,0,0,1-12.95-.87.61.61,0,0,0-.1.72c1.26,2.84,2.31,5.82,4.76,7.95a9.44,9.44,0,0,1,1,.66,23.77,23.77,0,0,0,7.7,4.23,13.42,13.42,0,0,0,2.27.65,31.35,31.35,0,0,0,15.21-.84c4.43-1.3,8.81-2.73,13.19-4.15,1.09-.4,2.23-.65,3.31-1.06.69-.26,1.48-.32,2-1l6.23-2V140c0,.48-.12,1-.14,1.45q-.36,8-.7,16.06c-.15,3.6-.27,7.19-.41,10.78a3,3,0,0,0,3,.05c1.9-.14,1.9-.14,2.47-2,.06-.18.11-.36.16-.54,3.2-10.92,6.27-21.88,7.39-33.26A23.1,23.1,0,0,0,118.33,124.73Z"></path> <path class="cls-1" d="M88.31,102.44l1.92-7.25a.78.78,0,0,1,.9-.64c3.24.21,6.49.37,9.72.61,1.46.11,2.91.08,4.37.25,2,.22,4,.21,6,.28,1.65,0,1.67,0,1.23,1.6q-2,7.06-4,14.12c-.09.32-.23.63-.34,1-1,0-1,1.2-1.76,1.56a1.7,1.7,0,0,1-1.31.07q-6.1-1-12.22-1.89a2.1,2.1,0,0,1-1.35-.47Q89.76,107.09,88.31,102.44Z"></path> <path class="cls-9" d="M105.67,115.06c-.23.64-.83.7-1.36.83-3.16.75-6.33,1.47-9.49,2.24-.75.18-1.13.08-1.36-.74-.41-1.48-1-2.91-1.46-4.36.36-.34.78-.21,1.17-.15,3.81.56,7.61,1.09,11.41,1.67A1.62,1.62,0,0,1,105.67,115.06Z"></path> <path class="cls-6" d="M105.67,115.06,92,113c-.15-.47-.31-.93-.46-1.4q7.47,1,14.88,2.29C106.35,114.42,105.9,114.66,105.67,115.06Z"></path> <path class="cls-9" d="M119,6.12l0,.22c.27.75-.22,1.3-.54,1.86-2,3.57-4.06,7.16-6.1,10.73-.89,1.55-.9,1.54.77,2.27,3.57,1.56,7.1,3.17,10.67,4.72a2.72,2.72,0,0,1,1,.72c.21.63-.19.64-.62.62a16.59,16.59,0,0,1-4-1.56c-2.78-1.19-5.54-2.43-8.3-3.69-.69-.32-1.18-.35-1.56.4a1.14,1.14,0,0,1-1.55.51c-1-.38-1.41.11-1.76.95-1.42,3.42-2.83,6.84-4.3,10.24a2.05,2.05,0,0,1-.67,1c-.21.1-.42.41-.66,0a3.07,3.07,0,0,1,.43-2.13c1.29-3.11,2.62-6.2,3.92-9.3.53-1.27.49-1.34-.8-1.66-3-.74-6-1.4-9-2.13a2.7,2.7,0,0,1-1.34-.52c-.23-.24-.41-.47,0-.71a4.74,4.74,0,0,1,2.53.19c3.67.88,7.35,1.73,11,2.6a1.31,1.31,0,0,0,1.7-.77c2.42-4.39,5-8.69,7.4-13.08a4.48,4.48,0,0,1,.94-1.09l.49-.42Z"></path> <path class="cls-11" d="M63.08,36c.22-.76-1-1.07-1.19-.31a2,2,0,0,1-.48.83,7.54,7.54,0,0,0-2.11-2.82c-.82-.53-1.32,0-1.61.79a.65.65,0,0,0-.79.75c.3,1.52.8,3,1.24,4.47a.62.62,0,0,0,1.19-.32c-.28-.94-.58-1.87-.84-2.82l0-.12a5.34,5.34,0,0,1,.31-1.58,2,2,0,0,1,.24.27,20.48,20.48,0,0,1,1.65,2.64.64.64,0,0,0,.85.23,3.81,3.81,0,0,0,1.52-2"></path> <path class="cls-11" d="M69.09,39.41c-.8-1.87-2-3.63-2.6-5.57a.59.59,0,0,0-.38-.4,1.75,1.75,0,0,0-.12-.32,1.51,1.51,0,0,0-1.8-.68.59.59,0,0,0-.39.3.63.63,0,0,0-.19,0,.64.64,0,0,0-.62.62,2.18,2.18,0,0,0,1.3,2.3,1.36,1.36,0,0,0,1.42-.34c.93,2.24,2.35,4.27,3,6.63a3.21,3.21,0,0,1,.08,1.71c-.35,1.21-2.18.64-2.7,0-.93-1.23-.12-3.17.31-4.44.25-.75-.94-1-1.19-.3-.58,1.71-1.22,3.69-.18,5.35a2.88,2.88,0,0,0,4.84,0c.85-1.33-.25-3.6-.78-4.82m-4.27-4.94h-.06c.08,0,0,0-.05,0-.18,0-.31-.2-.42-.42a1.36,1.36,0,0,1-.08-.41.62.62,0,0,0,.3,0,.43.43,0,0,1,.17,0h.18v0l0,.08h0l0,.08,0,.06A.17.17,0,0,0,65,34v.14h0l0,.18,0,.11c.06-.11-.16.15,0,0l0,0"></path> <path class="cls-11" d="M71.72,32.84c-1.46,1.75-2.66.5-3.43-1.18.5-1.83,1.31-4,.59-5.75-.34-.83-1.17-1.53-2-.86a3.6,3.6,0,0,0-.82,2.7,10.61,10.61,0,0,0,.9,4.1c0,.11,0,.22-.08.33a.63.63,0,0,0,.65.76,7,7,0,0,0,.58.81,2.68,2.68,0,0,0,4.48,0c.5-.61-.38-1.48-.88-.87m-4.37-4.36a5.12,5.12,0,0,1,.06-1.83,1.51,1.51,0,0,1,.14-.35l.07-.14a1.7,1.7,0,0,1,.25,1,8.81,8.81,0,0,1-.31,2.43c-.1-.42-.17-.8-.21-1.08"></path> <path class="cls-11" d="M74.45,33.58a27.74,27.74,0,0,0-1.18-2.94c-.38-.7-1.45-.08-1.07.61a25.23,25.23,0,0,1,1.06,2.65.64.64,0,0,0,.76.44.62.62,0,0,0,.43-.76"></path> <path class="cls-11" d="M72.38,27.4l-.09,0a.62.62,0,0,0-.6,1.08l.09.05a.61.61,0,0,0,.83-.24.62.62,0,0,0-.23-.84"></path> <path class="cls-11" d="M78.93,30.54a2.27,2.27,0,0,0-1.85-.49c-1.7.11-.67-1.26.24-1.76.7-.39.08-1.45-.62-1.07-1.08.6-2.72,2.3-1.42,3.54a2,2,0,0,0,1.61.53,4.68,4.68,0,0,1,1,0c.38.08.4.75.3,1s-.66.36-1,.37a.62.62,0,0,0,0,1.23,2.3,2.3,0,0,0,2-1,2.08,2.08,0,0,0-.33-2.35"></path> <path class="cls-11" d="M85.68,30.45a9.14,9.14,0,0,1-1.06,1,4.45,4.45,0,0,0-2.32-2.88,1.34,1.34,0,0,0-.82-.07,28,28,0,0,1-.87-5.8.62.62,0,0,0-1.23,0c-.09,2.61.94,5.08,1.11,7.65a7.3,7.3,0,0,0,0,1.25.62.62,0,0,0,1.23,0,9.72,9.72,0,0,0,0-1.62c.07-.21.21-.3.48-.08a4.79,4.79,0,0,1,1.48,2.65.62.62,0,0,0,.9.38,6.63,6.63,0,0,0,2-1.62c.54-.58-.33-1.45-.87-.87"></path> <path class="cls-11" d="M52.6,28.2a3.5,3.5,0,0,0-3.36,3.55,2.73,2.73,0,0,0,3.52,2.44.48.48,0,0,0-.25-.93,7.79,7.79,0,0,0-5.25,3.31,4.09,4.09,0,0,0,1,5,5.72,5.72,0,0,0,5.25,1.15,10.2,10.2,0,0,0,5.36-3.93c.38-.48-.3-1.16-.68-.67-1.92,2.47-5.42,5.18-8.64,3.23a3.24,3.24,0,0,1-1.29-4.58,7.06,7.06,0,0,1,4.51-2.62c-.08-.31-.16-.62-.25-.93a1.77,1.77,0,0,1-2.32-1.8,2.55,2.55,0,0,1,2.41-2.3c.6-.07.62-1,0-1"></path> <path class="cls-8" d="M103,121.82a9.92,9.92,0,0,0-2.89,1.4,49.42,49.42,0,0,1-7.19,3.63,9.71,9.71,0,0,1-5.13.77c-1.76-1.54-2.42-3.75-3.34-5.76-3.11-6.83-5.85-13.82-8.62-20.8l8.93-3.3c1.68-.62,1.68-.63,2.24,1,.11.32,3.71,9.74,4.79,12.77.14.49.32,1,.48,1.45.43,1.39,1.06,2.72,1.45,4.13.2.71.58.8,1.25.64,3.09-.73,6.18-1.48,9.28-2.19a1.71,1.71,0,0,0,1.16-.61,14.57,14.57,0,0,0,.89-1.18,10.94,10.94,0,0,1,.89-1.12c.31-.29.94-.82,1.12-.28a3,3,0,0,1-.55,2.17c.67-.14,3.05-.34,3.45-.38s.64-.19.77.19-.26.46-.51.57-1.74.52-1.74.52,1.14-.15,1.87-.19.53.51,0,.73a17.75,17.75,0,0,1-2,.69c.26-.21,2.26-.4,2.29.28s-1.83.77-2.25.79c.48,0,2.33,0,1.79.41a9.79,9.79,0,0,1-3.19.58,6.36,6.36,0,0,0-3.43,1.44c-.64.46-1.3.88-2,1.31C102.56,121.71,102.82,121.75,103,121.82Z"></path> <path class="cls-12" d="M61.48,61.91a.32.32,0,0,1,.48-.06.3.3,0,0,1,0,.47.28.28,0,0,1-.42,0A.32.32,0,0,1,61.48,61.91Z"></path> <path class="cls-13" d="M61,61.61a.78.78,0,0,1,.43-.48.82.82,0,0,1,.51,0"></path> </g> </svg> 