<?xml version="1.0" encoding="UTF-8"?> <svg xmlns="http://www.w3.org/2000/svg" viewBox="0 0 166.42 184.8"> <defs> <style>.cls-1{fill:#fffffe;}.cls-2{fill:#f8b5a8;}.cls-3{fill:#3a3b39;}.cls-4{fill:#004a76;}.cls-5{fill:#8db300;}.cls-6{fill:#e3e7eb;}.cls-7{fill:#b3b8bc;}.cls-8{fill:#c41627;}.cls-12,.cls-9{fill:#ec1c24;}.cls-10{fill:#f4a200;}.cls-11{fill:#eb212e;}.cls-12{stroke:#ec1c24;stroke-miterlimit:10;stroke-width:0.5px;}.cls-13{fill:#484441;}.cls-14{fill:none;stroke:#484441;stroke-linecap:round;stroke-linejoin:round;stroke-width:0.19px;}</style> </defs> <title>pict 4</title> <g id="Layer_1" data-name="Layer 1"> <path class="cls-1" d="M129.06,59.77h-2.32l-8.08-.83-1-.91-2.14-1.1-1.18,6.65,5.28,4.06,6.21-.31Z"></path> <path class="cls-1" d="M138.06,72.44c0,.14.2,3.09.2,3.09s-6.36.72-6.4.58-.75-2.75-.75-2.75Z"></path> <path class="cls-2" d="M111.94,122a.2.2,0,0,0-.21,0c.12,3.88-.15,7.76-.34,11.62a49.35,49.35,0,0,0,.24,8.77c.49,3.71,1,7.43,1.5,11.14.35,2.51.75,5,1.14,7.51a6.79,6.79,0,0,0,4.51.28c0-4.46-.14-8.92-.46-13.37-.38-5.21.6-10.27,1.5-15.35.55-3.15,1.74-10.22,1.81-10.59Z"></path> <path class="cls-2" d="M132,129.85a1.05,1.05,0,0,0,.15-1.1c-.46-1.66-.87-3.33-1.32-5a1.33,1.33,0,0,0-.55-.83,1.88,1.88,0,0,0-.4-1l-6.39.06c0,.37,0,.74,0,1.11-.31,2.34-.16,4.7-.31,7a68.2,68.2,0,0,0,.15,13.25c.77,6.08,1.7,12.13,2.57,18.2A4.28,4.28,0,0,0,128,162a4.21,4.21,0,0,1,2.44.7c0-2.2-.13-4.46-.16-6.69,0-.66,0-1.33,0-2-.06-5-.9-10.06.06-15.09C130.91,135.92,131.44,132.88,132,129.85Z"></path> <path class="cls-3" d="M22.8,173.07a2.15,2.15,0,0,1-1-2.7c.17-.43,0-.62-.49-.62a23,23,0,0,1-2.34-.16c-.34,0-.81-.09-1-.32-.83-1.14-1.78-.51-2.68-.32-.13.16-.09.24,0,.33.82.75.92,1.48.24,2.06a1.24,1.24,0,0,1-1.88-.07,1.56,1.56,0,0,1,.18-2.28,4.89,4.89,0,0,1,1.25-.63c2.32-.71,4.55-1.71,7-2,.75-.09.93-.4.92-1.12,0-6.59,0-13.19,0-19.78,1.47-.71,2-.38,2,1.2q0,9,0,18a2.91,2.91,0,0,0,.1,1.28,8.58,8.58,0,0,1,2.45.16C29.81,167,32,168,34.16,169a1.26,1.26,0,0,1,.56,1.63,1.32,1.32,0,0,1-1.21,1.1,1.37,1.37,0,0,1-1.39-.89c-.38-.82.26-1.25.81-1.8-1.45-.3-2.63-.94-4.18-.11-1.36.75-3.12.59-4.72.73a5.69,5.69,0,0,0-.92.15c-.22.05-.29.25-.29.46s.18.19.33.24c1.6.58,1.77,1.33.59,2.58Z"></path> <path class="cls-3" d="M108,117.44a4.48,4.48,0,0,1-4.28,2.37c-5.23,0-10.45,0-15.68,0-.94,0-1.27.18-1.28,1.19q-.18,21.22-.48,42.44c0,1,.26,1.19,1.17,1.17,2-.05,4.08,0,6.13,0A3.66,3.66,0,0,1,97,166.9H72.94a3.21,3.21,0,0,1,3.38-2.52c1.85,0,3.7,0,5.54.12,1,.06,1.17-.26,1.18-1.16q.19-20.64.46-41.26c0-2.28,0-2.28-2.22-2.28H65.84a4.09,4.09,0,0,1-4.15-2.85c.08-.53.53-.52.9-.57a9.74,9.74,0,0,1,1.53-.05h41.73a5.78,5.78,0,0,1,2.11.17C108.44,116.8,108.29,117.12,108,117.44Z"></path> <path class="cls-3" d="M10.31,139.81A13.21,13.21,0,0,0,18,144.75a3.35,3.35,0,0,1,1.29.47,8.87,8.87,0,0,1-8.09-2.07c-3-2.49-4.27-5.93-5.08-9.58a45.58,45.58,0,0,1-.7-14.27,2.39,2.39,0,0,1,1.61.47c.58.9.29,1.89.27,2.85-.13,5.31.21,10.54,2.52,15.44C10.05,138.61,10.5,139.12,10.31,139.81Z"></path> <path class="cls-4" d="M111.21,82H35c-2.9,0-4.38-1.46-4.38-4.32V18.91c0-2.82,1.48-4.31,4.28-4.31h75.43c2.63,0,4.23,1.49,4.23,4q0,18.86,0,37.71c-.72.24-1.12-.38-1.66-.63-.39-.18-.75-.41-1.15-.58-.51-.32-1-.67-1.52-1A222.7,222.7,0,0,1,92.54,37.67c-3.25-3.4-6.43-6.89-8.57-11.16-.19-.4-.36-1-1-.77s-.42.85-.27,1.33c.2.64.36,1.29.55,1.93.43,1.5.3,1.64-1.21,1.48-.07.14,0,.23.12.28,1.85,1,2.91,2.65,4,4.34a152.38,152.38,0,0,0,14.32,18.66,103.17,103.17,0,0,0,7.34,7.3c.59.42,1.06,1,1.6,1.43a27.89,27.89,0,0,1,3,3.18,2.24,2.24,0,0,1,.51,1.64c-.41,3.81-.67,7.64-1.07,11.45C111.75,79.86,112.05,81.06,111.21,82Z"></path> <path class="cls-5" d="M111.77,54.88A16.92,16.92,0,0,1,115,56.62c1.13.44,1.48,1.1,1.29,2.42a5.32,5.32,0,0,0,3.57,5.61A6.36,6.36,0,0,0,127,62.8a5.23,5.23,0,0,0,1.16-2.16c.21-1,.71-1,1.5-.77,4.54,1.27,6.87,4.53,7.94,8.88a13.4,13.4,0,0,1,.49,3.84h0c-1.34.24-2.68.49-4,.71-1.52.26-1.52.25-1.29,1.77a3.06,3.06,0,0,1,.56,1.28c1.22,6.21,2.54,12.4,3.57,18.64a72.14,72.14,0,0,1,.58,7.63c.18,3,.41,6,.57,8.93a9.33,9.33,0,0,1-.63,3.9c-.72,1.3-2.14,1.13-3.27,1.56-1.32.16-2.59.55-3.89.79-.69.14-.9.48-.7,1.15a18.56,18.56,0,0,1,.44,1.82c.09.49.23,1-.35,1.34-2.07.18-17.81,0-17.93-.15-1,0-2,0-3,0-.56,0-.76-.12-.67-.73.12-.84.12-1.7.17-2.55.27-.69.89-10.38,1.08-12.6.67-7.57,1.28-15.15,1.9-22.72,0-.43,0-.86,0-1.29.41-4.44.64-8.9,1.29-13.29a4.69,4.69,0,0,0-1.82-4.55c-.58-.52-1.08-1.13-1.62-1.69a1.18,1.18,0,0,1,0-.92c.78-2,1.5-4,2.21-6.1A.86.86,0,0,1,111.77,54.88Z"></path> <path class="cls-4" d="M8.37,105.59l5.28.23a5.37,5.37,0,0,1,5.21,3.54,6.34,6.34,0,0,1-1.08,6.83,10.73,10.73,0,0,1-7.55,3.6c-.62,0-1.25,0-1.88.07a1.59,1.59,0,0,1-1.28.13,4.86,4.86,0,0,1-1.68-.69c0-.06-.07-.16-.13-.19-3.35-1.59-4.3-4.45-4.14-7.88a16.35,16.35,0,0,1,.68-4.4c.52-1.56,1.35-2,3-1.75A19,19,0,0,0,8.37,105.59Z"></path> <path class="cls-6" d="M134.11,116.71c1-.47,2.22-.21,3-1.17,1.62-.29,1.92.07,1.69,2-.49.72,1.73-.22,1.53-.6,0-.81-.19-1.67.6-2.27,1.95-.57,3.91-1.1,5.84-1.73.76-.25,1-.08,1.25.65q1.48,5.25,3,10.48c.24.76.26,1.27-.67,1.44-.35.06-12.39,4.51-15.1,5.58-.43.17-.88.36-1.2-.2a7.4,7.4,0,0,1-1.11-2.58c-1-3-2.11-5.92-3.08-8.91-.39-1.22-.28-1.36.94-1.75S133,117.06,134.11,116.71Z"></path> <path class="cls-7" d="M108.14,116.72H63c-.45,0-1-.19-1.34.21-1.69-.48-3.41-.09-5.1-.22-.49,0-1,.15-1.43-.32a62.36,62.36,0,0,0,7.09-3,2.72,2.72,0,0,0,1.08-.68,1.87,1.87,0,0,1,1.44-.38h10.6a2.31,2.31,0,0,1,1.47.34H89.08a53.09,53.09,0,0,1,6,0l13.5,0a23.78,23.78,0,0,1-.26,4C108.29,116.82,108.21,116.82,108.14,116.72Z"></path> <path class="cls-8" d="M44.08,140.28c2.12-.64,4.34-.71,6.5-1.16.71-.15,1.45-.23,2.17-.37.35-.08.68-.21,1,.14-1.75,3.59-3.48,7.19-5.23,10.78q-3.07,6.29-6.19,12.55c-.19.39-.25.95-.84,1a5.22,5.22,0,0,1-3.8.4c-.9.08-.56-.49-.44-.88q1.56-5.13,3.13-10.24Q42.2,146.4,44.08,140.28Z"></path> <path class="cls-6" d="M76.84,112.66l-13.51,0a1,1,0,0,1-.24-.7,3.26,3.26,0,0,1,2.35-1.26c1.09,0,2.19,0,3.28,0,1.61,0,3.22,0,4.82,0a1.39,1.39,0,0,0,1.59-1.19C76,106,77,102.38,78,98.83c.24-.88-.09-1.1-.91-1.13-4.55-.13-9.09.4-13.64.25-.88,0-1.1.53-1.28,1.24-.75,3-1.43,6-2.17,9a2.34,2.34,0,0,1-.6,1.37,6.1,6.1,0,0,1-1.9.26c1-4.17,2.06-8.34,3.13-12.51A2.23,2.23,0,0,1,63,95.73c1.68,0,3.36-.08,5-.19,3.48-.22,7-.23,10.46-.3,1.83,0,2.6.93,2.13,2.69-1.2,4.45-2.43,8.9-3.66,13.35A3,3,0,0,0,76.84,112.66Z"></path> <path class="cls-2" d="M125.15,57.8a2.1,2.1,0,0,0,1.46,1.81c.49.13.37.4.21.71a5.52,5.52,0,0,1-4.5,3,4.62,4.62,0,0,1-4.12-1.85c-.79-1-.66-2.13-.61-3.27,0-.28.07-.21.34-.28,2.62.16,2.7-3.4,2.51-3.72s-.45-.42-.7-.6a1.73,1.73,0,0,1-.77-2.3c.28-.72.73-1.51.09-2.31a.36.36,0,0,1,0-.33c1-1.29,1.72-2.8,3.17-3.69.83,1.43,2.24,2.56,2.23,4.41a.78.78,0,0,0,.2.42c1,1.47.75,2.14-1,2.52-1.09,0-1.09,0-.68,1,.23,1.58.61,3.08,2.08,4A.29.29,0,0,1,125.15,57.8Z"></path> <path class="cls-9" d="M125.15,57.8a4.62,4.62,0,0,1-2.33-4.48c.28-.38.43-.84.73-1.21,1.31-.26,2-1,1.45-1.67-1.24-1.31-1-3.36-2.46-4.56-.2-.17-.19-.59-.27-.89.61-1.93,1.83-2.46,3.58-1.49,2.12,1.17,3.7,2.65,3.11,5.42a3,3,0,0,0,1,2.86c1.43,1.36,1.62,2.29.91,3.85a4.2,4.2,0,0,1-4,2.52A16.72,16.72,0,0,1,125.15,57.8Z"></path> <path class="cls-4" d="M12.51,138.1a17.84,17.84,0,0,0,5.25,3.47,21,21,0,0,0,10,.73c2.83-.37,5.66-.71,8.49-1.05a1,1,0,0,1,.8.12c-3,2.63-6.56,3.59-10.37,3.85a28.94,28.94,0,0,1-3.63.26,17.45,17.45,0,0,0-3.75-.26,13.21,13.21,0,0,1-8.79-4.74.88.88,0,0,1-.24-.64C10.82,139,11.35,138.16,12.51,138.1Z"></path> <path class="cls-4" d="M18.28,74.52a28.57,28.57,0,0,1-.13-8.36,2.19,2.19,0,0,1,1.79-2c.71-.17,1.39-.49,2.1-.71a2.61,2.61,0,0,0,1.62-1.2c.42-.72,1.1-1.44,2-.93s.64,1.48.35,2.31A4.31,4.31,0,0,1,24.85,65a1.06,1.06,0,0,1-.5.48c-1.53.56-1.94,1.77-2,3.26,0,.73.29,1.86-1.21,1.33-.27-.09-.38.2-.33.47a1.42,1.42,0,0,0,.39.58c1.54,1.69,1.24,2.65-1,3.18A3.22,3.22,0,0,1,18.28,74.52Z"></path> <path class="cls-10" d="M41.84,100a37.49,37.49,0,0,1-2.33-5.46l8.06-5.42a2.7,2.7,0,0,1,1.63,1.86c.2.47-.15.73-.4,1Z"></path> <path class="cls-2" d="M18.28,74.52l2.6-.69c.37-.1.87,0,.88-.58s.28-1.2-.41-1.59a1.86,1.86,0,0,1-.28-.21c-.51-.41-1-.89-.6-1.58s1,0,1.61.19c-.17-2.31,0-4.42,2.77-5,.43,1.8.81,3.63,1.29,5.42.22.81-.67.75-.78,1.26-.52.56-1.32.85-1.62,1.67.68.19,1-.66,1.66-.52a1.83,1.83,0,0,1-1.28,2.29c-.9.29-.51,1.08-.59,1.69a19.76,19.76,0,0,0-5.48.44A11.12,11.12,0,0,1,18.28,74.52Z"></path> <path class="cls-9" d="M114.27,161l4.51.28c.07,1.92.14,3.84.24,5.75,0,.55,0,.87-.73.86-2.26,0-4.52,0-7.13,0,1.14-.8,2-1.45,2.9-2a1.22,1.22,0,0,0,.64-1.44A16.33,16.33,0,0,1,114.27,161Z"></path> <path class="cls-9" d="M125.91,161.56l4.55.16s.12,3.89.16,5.33c0,.48,0,.83-.66.82-2.25,0-4.51,0-7.15,0,1.16-.82,2-1.47,2.91-2a1.17,1.17,0,0,0,.6-1.36C126.16,163.5,126,162.53,125.91,161.56Z"></path> <path class="cls-10" d="M37.65,163.66l3.8-.4c-.51.92-1,1.88-1.54,2.76-.43.65-.31,1,.34,1.36a3.17,3.17,0,0,1,1.29,1.06l-6,.82Z"></path> <path class="cls-7" d="M134.11,116.71c-1.6.56-2.21.76-3.32,1.11-.83.27-.91.62-.65,1.35,1.28,3.58,2.52,7.18,3.76,10.77a9.21,9.21,0,0,1,.2.91,3.5,3.5,0,0,0-.55.17c-.81.36-1.49-1-1.56-1.17-.42-2.3-2.67-10.22-2.87-11.38-.05-.32-.33-.69.28-.81C131,117.36,132.54,117,134.11,116.71Z"></path> <path class="cls-10" d="M50,164.32a11.19,11.19,0,0,1,3.32-.7c-.27,1-1.41,1.85-1.07,2.71s1.5,1.13,2.51,1.82L48,169.32Z"></path> <path class="cls-2" d="M49.2,90.94l-1.63-1.86c-.08-.94-.17-1.87-.23-2.81,0-.28-.15-.73.25-.81s.43.39.58.65,0,.56.45.75a20.37,20.37,0,0,1,1.9-3c.42-.23-.14,1.26-.14,1.26s-.29.71-.22.76.46-.53.46-.53a2.62,2.62,0,0,1,.88-1,4.56,4.56,0,0,1-.67,2.17c.24,0,.76-1,1.13-1,.18.69-.43,1.28-.49,1.79.17-.18,1.15-1.51,1-1C51.94,88.27,50.47,89.53,49.2,90.94Z"></path> <path class="cls-9" d="M66.22,131.66a3.87,3.87,0,0,0-2-3.15,13.21,13.21,0,0,0-3.58-1.43c-7.32-1.73-14.72-1.34-22.13-.79a194.14,194.14,0,0,1-20.67,2.57c-3.12.19-6.28.45-9.35-.55-.54.61-.14,1.27,0,1.87a18.11,18.11,0,0,0,3.92,8.18,14.08,14.08,0,0,0,7.72,4.2,20.48,20.48,0,0,0,6.3.2c3.53-.46,7.09-.67,10.59-1.39a33.78,33.78,0,0,1,7.07-1.09,1,1,0,0,0,.68.09c3-.49,6-.86,9-1.48a5.61,5.61,0,0,1,3.35-.74c-.11.46-.23.91-.34,1.37s-.38,1.1-.55,1.65c-2.31,7.4-4.6,14.8-6.93,22.2-.24.78-.18,1.15.74.95a5.85,5.85,0,0,0,3.33-.7c.49-.4,1.22-.28,1.61-1,4-7.44,7.71-15,10.19-23.07A20,20,0,0,0,66.22,131.66Z"></path> <path class="cls-4" d="M25.4,72.86a3.09,3.09,0,0,1-2.17,1,2.59,2.59,0,0,1,2.13-2.18C25.37,72.09,25.39,72.48,25.4,72.86Z"></path> <path class="cls-11" d="M38.91,56.74,53.18,42.43V52.7L76,29.93l.35.21v3.94c0,3,0,5.9,0,8.84,0,1,.29,1.19,1.2,1.17,2.51-.05,5,0,7.54,0,.44,0,1-.17,1,.62s-.54.55-.93.55c-3,0-6,0-9,0-.77,0-1-.23-1-1,0-3.38,0-6.76,0-10.14V32.91L52.42,55.62l-.33-.17v-10a1.93,1.93,0,0,0-1,.77L39.2,58a1.41,1.41,0,0,0-.59,1.08c0,1.41,0,2.83,0,4.24,0,.61.21.87.83.82.31,0,.62,0,.94,0H94.49c.39,0,.69.06.7.56s-.22.63-.65.62c-.23,0-.47,0-.71,0q-27.52,0-55,0c-1.09,0-1.36-.3-1.36-1.37,0-12.62,0-25.23,0-37.84a7.24,7.24,0,0,1,0-.94c.05-.34.32-.42.61-.42s.52.15.52.49,0,.63,0,.94V56.6Z"></path> <path class="cls-2" d="M107.67,61.23A119,119,0,0,1,91,42.42c-2.22-3-4.37-6.06-6.33-9.23C84,32.15,82.89,31.76,82,31c-.26-.23-.9-.31-.68-.78s.76-.08,1.15,0c.22,0,.44.14.87.27-.38-1.33-.66-2.52-1.06-3.69A1,1,0,0,1,83,25.32c.8-.37.87.33,1.06.71C87.17,32.22,92.15,36.88,97,41.69c4.06,4.05,8.33,7.88,12.7,11.6.23.21.44.45.65.67a1.18,1.18,0,0,1,0,1c-.79,2-1.5,4-2.29,5.9A.87.87,0,0,1,107.67,61.23Z"></path> <path class="cls-6" d="M81.65,78.29H73.3c-.41,0-1,.12-1-.51s.53-.66,1-.66q8.3,0,16.58,0c.47,0,1.05,0,1,.65s-.58.52-1,.53Z"></path> <path class="cls-6" d="M47.45,74.58c-2.75,0-5.49,0-8.24,0-.46,0-1.17.19-1.16-.58,0-.62.63-.6,1.1-.6,5.49,0,11,0,16.46,0,.48,0,1.07,0,1,.64s-.65.54-1.1.54Z"></path> <path class="cls-6" d="M46.14,69.76h7.53c.45,0,1.08-.13,1.12.52s-.62.66-1.12.66H38.37c-.43,0-.83-.14-.85-.61s.44-.57.85-.57h7.77Z"></path> <path class="cls-6" d="M80.93,69.75h7.42c.47,0,1.17-.18,1.15.6s-.63.57-1.09.57h-15c-.49,0-1.15.13-1.14-.63s.65-.54,1.08-.54Z"></path> <path class="cls-6" d="M79.15,74.58H73.27c-.4,0-1,.11-1-.54s.5-.63.93-.63q6.06,0,12.11,0c.43,0,1,0,.92.64s-.59.53-1,.53Z"></path> <path class="cls-6" d="M44.49,78.29H39c-.4,0-.86,0-.9-.51s.42-.67.88-.67H50.12c.46,0,.94,0,.91.64s-.48.54-.89.54Z"></path> <path class="cls-1" d="M107.67,61.23c.45-2,1.46-3.89,2.1-5.87.15-.48.35-.94.53-1.4a3.2,3.2,0,0,1,1.47.92q-1.35,3.81-2.71,7.62A6,6,0,0,1,107.67,61.23Z"></path> <path class="cls-1" d="M59.36,109.6q1.32-5.71,2.62-11.43a.65.65,0,0,1,.66-.55H63c4.86-.09,9.73-.16,14.59-.27.84,0,1.11.14.86,1-1.07,3.93-2.09,7.87-3.12,11.81-.16.6-.41.91-1.12.89-1.81-.07-3.62,0-5.42,0a2.09,2.09,0,0,1-.23-.29,4.32,4.32,0,0,0-4-1.66,4.55,4.55,0,0,1-2.4.14Z"></path> <path class="cls-2" d="M62.13,109.22a7.72,7.72,0,0,1,5.69.19c.63.31,1.08.59.94,1.36-1.15.42-2.37-.08-3.52.26l-2.15,1A12.88,12.88,0,0,1,62.13,109.22Z"></path> <path class="cls-10" d="M63.3,111.9c-.42-.94-.45-2-1.18-2.85a9.93,9.93,0,0,0-2.82.27,3.94,3.94,0,0,0-1.84.54c-3.16.54-6.32,1.08-9.47,1.64-.57.1-.77-.29-1-.65A59.24,59.24,0,0,1,41.84,100a17.84,17.84,0,0,0-2.33-5.46,2.43,2.43,0,0,1-.71-1.19,61.23,61.23,0,0,0-4.7-8.41c-2.65-3.83-5.74-7.09-10.57-8.06a6.57,6.57,0,0,0-5.48.44c-.55.22-1.11.41-1.63.66C12,80.06,10,83.86,9.36,88.48a132.16,132.16,0,0,0-1,17.11c.31.4.77.35,1.19.35,1.37,0,2.73.1,4.1.2a5.17,5.17,0,0,1,4.95,3.51A6,6,0,0,1,17.46,116a10.47,10.47,0,0,1-7.61,3.44c-.6,0-1.29-.16-1.66.55a28.7,28.7,0,0,0-.13,5,9.23,9.23,0,0,0,.19,3.23c.42.64,1.11.69,1.76.81a28.92,28.92,0,0,0,7.49.23A195.68,195.68,0,0,0,37,126.92c.56-.09,1.2-.06,1.57-.63-.5-2.65-1-5.29-1.51-7.94h0c0-.89-.49-1.71-.31-2.62,2.33,2.6,5.35,3.14,8.65,2.93a38.33,38.33,0,0,0,9.81-2.26,2.65,2.65,0,0,0,1.36-.2,41.66,41.66,0,0,0,4.81-2.06c.74-.38,1.65-.54,2.11-1.36A2.18,2.18,0,0,0,63.3,111.9Z"></path> <path class="cls-9" d="M94.9,106.65s0-1.26-.63-1.26c-.89,0-3.47.07-4.37,0-.68,0-.87.21-.86.88,0,2.12,0,4.24,0,6.36a13.58,13.58,0,0,0,6,0,4.45,4.45,0,0,1,0-.85,2,2,0,0,0,2.06-1.72C97.35,108.88,97.81,106.47,94.9,106.65Zm1.63,3c-.09.66-.38,1.37-1.09,1.29-.52-.06-.32-1.92-.32-2.19s-.13-1.15.25-1.27.74.22.94.56A2.56,2.56,0,0,1,96.53,109.62Z"></path> <path class="cls-12" d="M133.82,21.29c-.7.13-5.08.88-4.47-.89.19-.56,1-1.12,1.39-1.52l1.7-1.63.83-.79,1.54-.49c2.12-.71,4.74-1.83,5.79-3.94a.22.22,0,0,0-.22-.29c-2.9.6-5.26,2.43-7.41,4.43a19.93,19.93,0,0,1-4.84,1.28c-.27,0-.22.44.05.42a14.22,14.22,0,0,0,3.07-.76l1.1-.35-1.48,1.42c-.74.72-2.69,2-1.69,3.16s3.4.6,4.68.37c.27-.05.22-.46,0-.42m6.17-9c-1.16,1.82-3.64,2.75-5.57,3.4l-.42.14a15.06,15.06,0,0,1,6-3.54"></path> <path class="cls-12" d="M148.16,25.87c-.22.08-1.22.53-1.19,0a6.32,6.32,0,0,1,.31-1.21c.23-.91-.09-1.57-1-1.67l.07,0c.41-.2,3.22-1.4,3.18-.34,0,.27.41.33.42.06.05-1.57-2.47-.65-3.19-.36l-.38.16a11.14,11.14,0,0,1,1-1.79,6.4,6.4,0,0,0,.42-.49.21.21,0,0,0-.32-.26,3.15,3.15,0,0,0-.41.48,7.39,7.39,0,0,1-4.11,2,1.83,1.83,0,0,0,.54-2.12c-.81-1.75-4.36.11-3,1.92a1.76,1.76,0,0,0,1.15.64,2.14,2.14,0,0,1-2,.07c-.57-.37-.3-1.26-.08-1.74a2.42,2.42,0,0,1,.58-.79,10,10,0,0,0,1.29-.75c.2-.14,0-.43-.2-.36a3.4,3.4,0,0,0-1.35.79,7.25,7.25,0,0,1-1.63.54c.39-.57.49-1.14-.13-1.53a1.73,1.73,0,0,0-1.58,0l-.21-.06a3.26,3.26,0,0,0-2.07,2.26c-.25.95.67,1.4,1.45,1.23a5.7,5.7,0,0,0,2.06-1.34,7.42,7.42,0,0,0,1.57-.44,4.2,4.2,0,0,0-.3.6c-.25.66-.23,1.66.5,2a3.21,3.21,0,0,0,2.83-.46,7.38,7.38,0,0,0,1.63-.27,7.75,7.75,0,0,0,2.42-1.1c-.21.4-.4.82-.6,1.23-1.24.63-2.68,1.65-2.55,3a.22.22,0,0,0,.28.17,4.61,4.61,0,0,0,2.4-2.54l.14.07c.59,0,.94.23.86.86a12.17,12.17,0,0,1-.34,1.32c-.27,1.22,1,.94,1.72.67.26-.09.11-.48-.15-.39M137,21.36c-.47.39-2.51,1.61-2.31,0a2.62,2.62,0,0,1,1.26-1.69.87.87,0,0,0,0,.62,1.26,1.26,0,0,0,1.25.92,1.1,1.1,0,0,1-.16.15m.58-.64h0c-.47,0-1.65-.33-1.16-1a1.32,1.32,0,0,1,.94-.4c1.11-.12.75.73.26,1.39m4.71,1.74c-.89,0-1.94-.42-1.57-1.48s2.55-1.42,2.52-.08a2.17,2.17,0,0,1-1,1.56m1.42,2.89c.11-.79,1-1.45,1.76-1.91a4.25,4.25,0,0,1-1.76,1.91"></path> <path class="cls-12" d="M163.62,27.41c-.53-.74-1.67-.53-2.36-.17h0l-.09,0a2.09,2.09,0,0,0-1.83,1.39h0c-.66.08-3.68.68-3.1-.68a7,7,0,0,1,1.48-2,6.32,6.32,0,0,1,1.3.4.21.21,0,0,0,.17-.39,7.8,7.8,0,0,0-1.13-.36l.39-.4a17,17,0,0,1,2.29-2.5.21.21,0,0,0-.25-.34,4.84,4.84,0,0,0-1.06,1.15,21.46,21.46,0,0,1-1.83,2c-.24-.06-.49-.11-.73-.19s-.43.3-.17.38l.57.16c-.66.66-1.65,1.65-1.57,2.49.13,1.38,2.69.8,3.61.67a1.53,1.53,0,0,0,0,.43c.39,1.62,2.72.4,3.5-.13.57-.39,1.35-1.19.83-1.92m-1.88,2.07c-.59.28-2.1.77-2.06-.37a1.53,1.53,0,0,1,1-1.35.7.7,0,0,0,0,.91,1.78,1.78,0,0,0,1.71.45,6,6,0,0,1-.64.36m1.46-1.09a1.7,1.7,0,0,1-.27.33.2.2,0,0,0-.24-.08,1.83,1.83,0,0,1-1.67-.2c-.55-.46.72-1,1-1.05.66-.15,1.71.14,1.15,1"></path> <path class="cls-12" d="M132,23.93c.22-.17,0-.5-.24-.34-1.34,1.05-2.53,2.27-3.88,3.31l-.42.33a7.61,7.61,0,0,1-1.76-.46.21.21,0,0,0-.16.38,6.87,6.87,0,0,0,1.49.42A7,7,0,0,0,124.92,30a.21.21,0,0,0,.11.27,6.79,6.79,0,0,0,3.35.38c.27,0,.22-.42,0-.42a7.17,7.17,0,0,1-2.92-.25,7.55,7.55,0,0,1,2.13-2.27c.31.07.62.13.93.23s.42-.3.16-.39l-.66-.17c.2-.15.41-.31.6-.47,1.18-.93,2.23-2,3.4-2.93"></path> <path class="cls-12" d="M137.17,33.46a3.82,3.82,0,0,1-1.46.19c-.78-.06-.86-.69-.76-1.23a4.11,4.11,0,0,0,2.28-2,.21.21,0,0,0-.22-.29,2.75,2.75,0,0,0-2.4,2,6.93,6.93,0,0,1-.81.21c-.63.11-1.35,0-1.46-.74s.42-1.23.44-1.87c0-.33-.24-.41-.56-.38.26-.3.5-.61.74-.92s.5-.75.78-1.17l.58-.31c.64-.34,1.9-1,1.91-1.85a.2.2,0,0,0-.23-.23,4.2,4.2,0,0,0-2.54,2.06,11.2,11.2,0,0,1-2.48,1c-.26.06-.22.47.05.41a9.33,9.33,0,0,0,2-.69c-.16.26-.32.49-.48.71a12.13,12.13,0,0,1-1,1.18l-.46.17C130,30,128.81,30.7,128.8,32l.12.17.05,0,.21,0a29.21,29.21,0,0,0,2.54-2.32l.05,0c.61-.2.64-.16.45.35-.48,1.28-.36,2.53,1.26,2.55a3.34,3.34,0,0,0,1-.14c-.17,1.67,1.73,1.58,2.82,1.28.26-.07.11-.46-.15-.39m-1.43-8.17a3.4,3.4,0,0,1-1.47,1.17,3.39,3.39,0,0,1,1.47-1.17m-6.51,6.28c.08-.16.17-.31.25-.46a2.17,2.17,0,0,1,.57-.52,4,4,0,0,1,.73-.41c-.5.48-1,.95-1.55,1.39m7.42-1a3.48,3.48,0,0,1-1.54,1.29,2.34,2.34,0,0,1,1.54-1.29"></path> <path class="cls-12" d="M145.59,33.52c-.17-.67-1.21-.62-1.69-.48a4.23,4.23,0,0,0-.5.17c.27-.46.54-.91.85-1.34.16-.21-.17-.47-.32-.25a17.61,17.61,0,0,0-1.17,1.9c-1.12.61-2.2,1.66-1.76,2.9a.2.2,0,0,0,.35,0,14.72,14.72,0,0,0,1.71-2.64,5.14,5.14,0,0,1,.58-.27,3.47,3.47,0,0,1,.55-.16l.18,0c.41-.09.57.15.49.72-.27,0-.22.47,0,.42.54-.11.83-.44.69-1m-4.27,2.33a2.16,2.16,0,0,1,1-1.52,12.78,12.78,0,0,1-1,1.52"></path> <path class="cls-12" d="M148.07,36.9c-.5,0-1,.05-1.51,0a1.37,1.37,0,0,1-.74-.2c-.21-.15.15-.53.23-.63a11.61,11.61,0,0,1,2.1-1.92.21.21,0,0,0-.25-.34,18.9,18.9,0,0,0-1.53,1.31c-.35.34-.91.8-1,1.31-.25,1.2,2.13.89,2.76.87.26,0,.22-.43-.05-.42"></path> <path class="cls-12" d="M150.34,31.85a.43.43,0,0,0-.64-.14l-.18-.07a1.14,1.14,0,0,0-.82.6.71.71,0,0,0,.25.87,1,1,0,0,0,1.38-.08,1.14,1.14,0,0,0,0-1.18m-.86,1.06c-.2-.07-.46-.19-.43-.43a.44.44,0,0,1,.21-.29.18.18,0,0,0,.12.19,1.94,1.94,0,0,0,.59,0l.11,0a.82.82,0,0,1-.05.28.39.39,0,0,1-.55.22"></path> <path class="cls-12" d="M153.07,36l-.12.14c-.21-.89-1.77-1.13-2.13-.23s.67,1.18,1.58.93a1.49,1.49,0,0,1-.51.36c-.63.29-2.53.3-1.4-.67.2-.17,0-.51-.25-.34-.72.62-.8,1.4.27,1.6a2.76,2.76,0,0,0,1.41-.15c-.76,1.11-1.5,2.24-2.22,3.38-2.27-.64-7.7.71-7.27,3.72a2.74,2.74,0,0,0,2,1.9,2.94,2.94,0,0,0,2.64-1.05,18.65,18.65,0,0,0,2.25-3.23c.21-.3.39-.61.59-.91a.48.48,0,0,1,.29.47c0,.27.4.33.41.06a.82.82,0,0,0-.52-.8c1.06-1.65,2.12-3.32,3.27-4.92.16-.21-.17-.47-.33-.26m-.75.51q-.72.35-.84-.63a1.26,1.26,0,0,1,.64-.07c.38,0,.46.33.44.6l-.24.1m-8.51,9.38c-2.4-1.51.23-3.59,1.85-4.21a10.13,10.13,0,0,1,3.85-.37q-.62,1-1.2,1.95c-.92,1.5-2.47,3.89-4.5,2.63"></path> <path class="cls-12" d="M158,40.74c-.39.16-.77.32-1.17.45-.18.06-1.9.47-1-.8a1.68,1.68,0,0,0,.3-.52,1.2,1.2,0,0,0-.56-1.55c1.42-1.73,2.55-3.78,4-5.39.18-.2-.14-.46-.33-.26-1.5,1.63-2.64,3.77-4.12,5.53-1.31-.19-3.1,1.26-2.92,2.57,0,.12.16.24.28.17a9.63,9.63,0,0,0,2.78-2.29c.57.17.59.93.21,1.48-.13.2-.38.5-.34.76.21,1.49,2.19.58,3,.24a.21.21,0,0,0-.15-.39m-5.38-.36c.14-.91,1.29-1.56,2.11-1.73h0a8.68,8.68,0,0,1-2.12,1.74"></path> <path class="cls-12" d="M163.7,39.37c-.48-.06-1-.08-1.48-.17,1-1.4,2-2.79,3.05-4.15.17-.21-.16-.47-.33-.26-1.09,1.41-2.12,2.85-3.17,4.28a2.18,2.18,0,0,1-.6-.32.21.21,0,0,0-.26.33,2.42,2.42,0,0,0,.6.34c-.6.81-1.21,1.62-1.85,2.41-.26.33-.83,1.17-.36,1.58s1.6.23,2.3.07c.26-.06.22-.48,0-.42-.62.15-2.53.51-1.71-.77.42-.65,1-1.18,1.46-1.81l.66-.92a15.42,15.42,0,0,0,1.68.22.21.21,0,0,0,.06-.41"></path> <path class="cls-2" d="M140.45,117.63a2.57,2.57,0,0,1-1.37,1.94c-.61.15-.73.08-.9-.09a17,17,0,0,1,.39-2.39c.28-1.39-.43-1.52-1.71-1.22-.07,0,.34-.26.25-.33,1.32-3.46.25-7,.17-10.46-.06-3-.32-6-.59-9-.31-3.32-1.16-6.55-1.77-9.82-.69-3.73-1.42-7.45-2.14-11.18,1.55.35,3.92-.36,5.42-.55a5.59,5.59,0,0,1,.16.87c.9,5.76,1.91,11.5,2.74,17.27a53.82,53.82,0,0,1,.16,10.92C141.05,107.25,140.62,116.6,140.45,117.63Z"></path> <circle class="cls-1" cx="122.97" cy="52.61" r="0.61"></circle> <path class="cls-13" d="M121.49,47.22a.33.33,0,0,1,.13.47.3.3,0,0,1-.46.12.29.29,0,0,1-.11-.41A.32.32,0,0,1,121.49,47.22Z"></path> <path class="cls-14" d="M121.72,46.69a.76.76,0,0,1,.53.35.78.78,0,0,1,0,.5"></path> <path class="cls-13" d="M23.68,68.31a.32.32,0,0,1,.48-.06.32.32,0,0,1,.05.48.3.3,0,0,1-.42,0A.32.32,0,0,1,23.68,68.31Z"></path> <path class="cls-14" d="M23.18,68a.72.72,0,0,1,.43-.47.75.75,0,0,1,.5,0"></path> </g> </svg> 