<svg width="69" height="62" viewBox="0 0 69 62" fill="none" xmlns="http://www.w3.org/2000/svg">
<path fill-rule="evenodd" clip-rule="evenodd" d="M42.75 51.8848H5.11538C2.19231 51.8848 0 49.5098 0 46.7694V27.2213C0 24.2983 2.375 22.106 5.11538 22.106H42.75C45.6731 22.106 47.8654 24.481 47.8654 27.2213V46.5867C48.0481 49.5098 45.6731 51.8848 42.75 51.8848Z" fill="#004A76"/>
<path fill-rule="evenodd" clip-rule="evenodd" d="M0 43.2983V61.7503L14.0673 47.683C14.0673 47.683 0.182692 43.481 0 43.2983Z" fill="#004A76"/>
<path d="M35.0775 41.4712C36.8937 41.4712 38.366 39.9989 38.366 38.1828C38.366 36.3666 36.8937 34.8943 35.0775 34.8943C33.2614 34.8943 31.7891 36.3666 31.7891 38.1828C31.7891 39.9989 33.2614 41.4712 35.0775 41.4712Z" fill="white"/>
<path d="M23.933 41.4712C25.7492 41.4712 27.2215 39.9989 27.2215 38.1828C27.2215 36.3666 25.7492 34.8943 23.933 34.8943C22.1168 34.8943 20.6445 36.3666 20.6445 38.1828C20.6445 39.9989 22.1168 41.4712 23.933 41.4712Z" fill="white"/>
<path d="M12.7885 41.4712C14.6046 41.4712 16.0769 39.9989 16.0769 38.1828C16.0769 36.3666 14.6046 34.8943 12.7885 34.8943C10.9723 34.8943 9.5 36.3666 9.5 38.1828C9.5 39.9989 10.9723 41.4712 12.7885 41.4712Z" fill="white"/>
<path fill-rule="evenodd" clip-rule="evenodd" d="M25.3938 29.5962H63.0284C65.9515 29.5962 68.1438 27.2212 68.1438 24.4808V5.11538C68.1438 2.19231 65.7688 0 63.0284 0H25.3938C22.4707 0 20.0957 2.19231 20.0957 5.11538V24.4808C20.0957 27.4038 22.4707 29.5962 25.3938 29.5962Z" fill="#EB212E"/>
<path fill-rule="evenodd" clip-rule="evenodd" d="M68.1433 21.0095V39.4614L54.076 25.3941C53.8933 25.5768 67.9606 21.3749 68.1433 21.0095Z" fill="#EB212E"/>
<path d="M29.5957 9.68286H58.6438" stroke="white" stroke-width="2" stroke-miterlimit="10"/>
<path d="M29.5957 19.1826H49.5092" stroke="white" stroke-width="2" stroke-miterlimit="10"/>
</svg>
