<svg width="63" height="63" viewBox="0 0 63 63" fill="none" xmlns="http://www.w3.org/2000/svg">
<g clip-path="url(#clip0)">
<path fill-rule="evenodd" clip-rule="evenodd" d="M55.125 63.0001H4.24038C1.81731 63.0001 0 61.0313 0 58.7597V17.8703C0 15.4472 1.96875 13.6299 4.24038 13.6299H54.9736C57.3966 13.6299 59.2139 15.5986 59.2139 17.8703V58.7597C59.3654 61.1828 57.3966 63.0001 55.125 63.0001Z" fill="#F4A200"/>
<path d="M15.7488 45.1299C18.7598 45.1299 21.2007 42.689 21.2007 39.678C21.2007 36.667 18.7598 34.2261 15.7488 34.2261C12.7378 34.2261 10.2969 36.667 10.2969 39.678C10.2969 42.689 12.7378 45.1299 15.7488 45.1299Z" fill="white"/>
<path d="M15.7488 48.0073C10.5998 48.0073 6.35938 52.2477 6.35938 57.3967H25.2897C25.1382 52.2477 20.8978 48.0073 15.7488 48.0073Z" fill="white"/>
<path d="M51.1876 22.4136C52.4422 22.4136 53.4593 21.3966 53.4593 20.142C53.4593 18.8874 52.4422 17.8704 51.1876 17.8704C49.9331 17.8704 48.916 18.8874 48.916 20.142C48.916 21.3966 49.9331 22.4136 51.1876 22.4136Z" fill="#004A76"/>
<path d="M44.8263 22.4136C46.0809 22.4136 47.098 21.3966 47.098 20.142C47.098 18.8874 46.0809 17.8704 44.8263 17.8704C43.5717 17.8704 42.5547 18.8874 42.5547 20.142C42.5547 21.3966 43.5717 22.4136 44.8263 22.4136Z" fill="#004A76"/>
<path d="M38.3146 22.4136C39.5692 22.4136 40.5862 21.3966 40.5862 20.142C40.5862 18.8874 39.5692 17.8704 38.3146 17.8704C37.06 17.8704 36.043 18.8874 36.043 20.142C36.043 21.3966 37.06 22.4136 38.3146 22.4136Z" fill="#004A76"/>
<path d="M0 27.7141H59.3654" stroke="white" stroke-width="2" stroke-miterlimit="10"/>
<path d="M31.9551 43.9185H53.6113" stroke="white" stroke-width="2" stroke-miterlimit="10"/>
<path d="M31.9551 38.1636H53.6113" stroke="white" stroke-width="2" stroke-miterlimit="10"/>
<path d="M31.9551 49.6733H46.7964" stroke="white" stroke-width="2" stroke-miterlimit="10"/>
</g>
<defs>
<clipPath id="clip0">
<rect width="63" height="63" fill="white"/>
</clipPath>
</defs>
</svg>
