<svg width="85" height="85" viewBox="0 0 85 85" fill="none" xmlns="http://www.w3.org/2000/svg">
<path d="M43.9673 60.2197H48.1766C48.3806 60.2241 48.583 60.1824 48.7687 60.0978C48.9544 60.0131 49.1187 59.8877 49.2492 59.7309C49.9237 58.9576 50.5409 58.1362 51.0959 57.2732L57.885 62.8675C58.1731 63.1017 58.5393 63.218 58.9098 63.1928C59.2802 63.1676 59.6273 63.0028 59.881 62.7317C59.881 62.5959 60.0168 62.5144 60.0983 62.3786C61.007 59.8717 61.4666 57.2241 61.4561 54.5576C61.4561 44.4961 60.2341 42.1878 55.7397 38.9697V37.9242C55.7397 30.3068 52.8203 20.7477 49.4665 14.1758C49.4217 13.9883 49.3225 13.8182 49.1814 13.687C46.9002 9.13823 44.4018 6.20532 42.5552 6.20532C40.1246 6.20532 37.5583 10.2788 35.766 13.7548C35.6981 13.7548 35.6981 13.7548 35.6167 13.8906C34.9785 15.1534 34.4082 16.3347 34.0552 17.1766C31.162 23.7033 29.5399 30.7219 29.2756 37.8563V38.9018C24.7812 42.1878 23.5727 44.4282 23.5727 54.5576C23.5556 57.2247 24.0155 59.8734 24.9306 62.3786C25.0804 62.7199 25.3556 62.9905 25.6993 63.1345C26.043 63.2786 26.4289 63.285 26.7772 63.1526C26.9079 63.0955 27.031 63.0225 27.1438 62.9354L33.933 57.3547C34.4616 58.1937 35.0516 58.9925 35.6981 59.7445C35.9739 60.0393 36.354 60.2147 36.7572 60.2333H41.048" fill="#004A76"/>
<path d="M42.3225 31.8546C43.3011 31.8359 44.2525 31.5286 45.0571 30.9713C45.8618 30.414 46.4839 29.6314 46.8455 28.7219C47.2072 27.8123 47.2921 26.8162 47.0898 25.8585C46.8874 24.9008 46.4067 24.0243 45.7081 23.3387C45.0094 22.6532 44.1239 22.1892 43.1626 22.005C42.2012 21.8209 41.2069 21.9247 40.3044 22.3034C39.4018 22.6822 38.6312 23.3191 38.0892 24.1341C37.5472 24.9492 37.258 25.9062 37.2578 26.885C37.2721 28.2151 37.8134 29.4852 38.7628 30.4168C39.7122 31.3484 40.9924 31.8655 42.3225 31.8546Z" fill="white"/>
<path d="M42.5414 65.7324C41.7539 65.7324 41.1836 66.0855 41.1836 66.5064V78.0343C41.1836 78.4417 41.8218 78.7947 42.5414 78.7947C43.2611 78.7947 43.9671 78.4417 43.9671 78.0343V66.5335C43.9671 66.0855 43.329 65.7324 42.5414 65.7324Z" fill="#EC1C24"/>
<path d="M36.9726 62.4601C36.7887 62.4509 36.6048 62.4792 36.4321 62.5433C36.2594 62.6074 36.1016 62.706 35.9683 62.833C35.8349 62.96 35.7288 63.1128 35.6563 63.2822C35.5839 63.4515 35.5466 63.6338 35.5469 63.818V72.9697C35.5469 73.3478 35.6971 73.7105 35.9645 73.9778C36.2318 74.2452 36.5945 74.3954 36.9726 74.3954C37.3507 74.3954 37.7134 74.2452 37.9807 73.9778C38.2481 73.7105 38.3983 73.3478 38.3983 72.9697V63.913C38.4121 63.721 38.3848 63.5283 38.3184 63.3476C38.252 63.1669 38.1479 63.0024 38.0131 62.8651C37.8783 62.7277 37.7158 62.6205 37.5364 62.5507C37.357 62.4809 37.1648 62.45 36.9726 62.4601Z" fill="#EC1C24"/>
<path d="M48.0258 62.4601C47.6657 62.4601 47.3203 62.6031 47.0657 62.8578C46.811 63.1124 46.668 63.4578 46.668 63.8179V72.9697C46.668 73.3478 46.8182 73.7104 47.0856 73.9778C47.3529 74.2452 47.7156 74.3954 48.0937 74.3954C48.4718 74.3954 48.8344 74.2452 49.1018 73.9778C49.3692 73.7104 49.5194 73.3478 49.5194 72.9697V63.913C49.5344 63.7148 49.5057 63.5158 49.4353 63.3299C49.3649 63.1441 49.2546 62.976 49.1122 62.8374C48.9698 62.6988 48.7986 62.5932 48.6109 62.528C48.4232 62.4628 48.2235 62.4396 48.0258 62.4601Z" fill="#EC1C24"/>
</svg>
