<svg width="409" height="431" viewBox="0 0 409 431" fill="none" xmlns="http://www.w3.org/2000/svg">
<g clip-path="url(#clip0)">
<path d="M348.782 122.91H342.515L320.443 120.734L317.719 118.287L311.996 115.296L308.727 133.515L323.168 144.664L340.062 143.848L348.782 122.91Z" fill="#FFFFFE"/>
<path d="M373.304 157.172C373.304 157.444 373.849 165.602 373.849 165.602C373.849 165.602 356.41 167.505 356.41 167.233C356.41 166.961 354.23 159.619 354.23 159.619L373.304 157.172Z" fill="#FFFFFE"/>
<path d="M301.915 292.046C301.643 292.046 301.643 292.046 301.371 292.046C301.643 302.651 300.826 313.256 300.553 323.59C300.008 331.475 300.281 339.633 301.098 347.519C302.46 357.58 303.823 367.641 305.185 377.703C306.003 384.501 307.365 391.299 308.183 398.097C311.997 399.728 316.357 400 320.444 398.913C320.444 386.676 320.172 374.711 319.082 362.475C317.992 348.335 320.717 334.467 323.169 320.87C324.804 312.441 327.802 293.134 328.074 292.046H301.915Z" fill="#F8B5A8"/>
<path d="M356.685 313.528C357.503 312.713 357.503 311.625 356.958 310.537C355.595 305.915 354.506 301.564 353.416 296.941C353.143 296.125 352.598 295.309 351.781 294.766C351.781 293.678 351.236 292.862 350.691 292.046L333.252 292.318C333.252 293.406 333.252 294.222 333.252 295.309C332.434 301.564 332.707 308.09 332.434 314.344C331.344 326.309 331.617 338.274 332.979 350.238C335.159 366.826 337.611 383.141 340.064 399.728C341.699 400.544 343.879 401.088 345.786 401.088C348.238 401.088 350.418 401.632 352.326 402.991C352.326 397.009 352.053 390.755 351.781 384.773C351.781 382.869 351.781 381.238 351.781 379.334C351.508 365.738 349.328 351.87 352.053 338.274C353.688 329.844 355.05 321.686 356.685 313.528Z" fill="#F8B5A8"/>
<path d="M59.1319 431C56.407 429.64 55.3171 426.377 56.407 423.658C56.952 422.57 56.407 422.026 55.0446 422.026C52.8647 422.026 50.6848 421.754 48.7775 421.483C47.96 421.483 46.5976 421.211 46.0526 420.667C43.8727 417.676 41.1479 419.307 38.6955 419.851C38.423 420.395 38.423 420.395 38.6955 420.667C40.8754 422.842 41.1479 424.746 39.2405 426.377C37.878 427.737 35.9707 427.737 34.3357 426.649L34.0633 426.377C32.4283 424.746 32.7008 422.026 34.3357 420.395L34.6082 420.123C35.6982 419.307 36.7881 418.763 37.878 418.491C44.1452 416.588 50.1399 413.869 56.952 413.053C59.1319 412.781 59.4044 411.965 59.4044 410.062C59.4044 392.115 59.4044 374.168 59.4044 356.221C63.4916 354.317 64.8541 355.133 64.8541 359.484C64.8541 375.799 64.8541 392.115 64.8541 408.43C64.5816 409.518 64.8541 410.878 65.1266 411.965C67.3064 411.693 69.4863 411.965 71.9387 412.509C78.2058 414.956 84.2005 417.676 89.9227 420.395C91.5576 421.211 92.1026 423.114 91.5576 424.746C91.2851 426.377 89.9227 427.737 88.2878 427.737C86.6529 427.737 85.018 426.921 84.473 425.289C83.3831 423.114 85.2904 422.026 86.6529 420.395C82.5656 419.579 79.5683 417.948 75.2085 420.123C71.3937 422.298 66.7615 421.754 62.4017 422.026C61.5842 422.026 60.7668 422.298 59.9493 422.298C59.4044 422.57 59.1319 422.842 59.1319 423.658C59.1319 424.474 59.6769 424.202 59.9493 424.202C64.3091 425.833 64.8541 427.737 61.5842 431.272L59.1319 431Z" fill="#3A3B39"/>
<path d="M291.288 279.538C289.109 283.889 284.476 286.336 279.572 286.064C265.402 286.064 251.233 286.064 236.791 286.064C234.339 286.064 233.249 286.608 233.249 289.327C232.977 327.668 232.432 366.282 231.887 404.623C231.887 407.342 232.704 407.886 235.157 407.886C240.606 407.614 246.328 407.886 251.778 407.886C255.865 407.886 259.68 410.333 261.043 414.14H195.646C196.464 409.79 200.551 407.07 204.911 407.342C209.815 407.342 214.993 407.342 219.897 407.614C222.622 407.886 223.167 406.798 223.167 404.351C223.44 366.825 223.985 329.572 224.53 292.046C224.53 285.792 224.53 285.792 218.535 285.792H176.3C171.123 286.064 166.49 282.801 164.855 278.178C165.128 276.819 166.218 276.818 167.308 276.547C168.67 276.275 170.033 276.275 171.395 276.275H285.021C286.929 276.003 288.836 276.275 290.743 276.819C292.378 277.906 292.106 278.722 291.288 279.538Z" fill="#3A3B39"/>
<path d="M25.0697 340.45C30.2469 347.248 37.604 352.142 46.051 353.774C47.4134 354.046 48.5034 354.318 49.5933 355.133C41.6913 357.037 33.5167 354.861 27.522 349.423C19.3475 342.625 15.8052 333.379 13.6253 323.318C10.9005 310.538 10.3555 297.485 11.7179 284.433C13.3528 284.433 14.7152 284.705 16.0777 285.793C17.7126 288.24 16.8951 290.959 16.8951 293.407C16.6226 307.819 17.4401 321.959 23.7072 335.283C24.2522 337.186 25.6146 338.546 25.0697 340.45Z" fill="#3A3B39"/>
<path d="M300.006 183.277H92.3722C84.4701 183.277 80.3828 179.198 80.3828 171.584V11.6927C80.3828 4.07887 84.4701 0 92.0997 0H297.553C304.638 0 308.998 4.07886 308.998 10.877C308.998 45.1394 308.998 79.13 308.998 113.392C307.09 113.936 306 112.305 304.365 111.761C303.276 111.217 302.186 110.673 301.096 110.129C299.733 109.314 298.371 108.226 297.008 107.41C280.114 93.27 264.038 78.5861 248.779 62.8145C240.059 53.5691 231.34 44.0517 225.345 32.359C224.8 31.2713 224.255 29.6397 222.62 30.1836C220.985 30.7274 221.53 32.6309 221.803 33.7186C222.348 35.3502 222.892 37.2536 223.437 38.8852C224.527 42.964 224.255 43.236 220.168 42.964C219.895 43.236 220.168 43.5079 220.44 43.7798C225.345 46.4991 228.342 51.1218 231.34 55.4726C243.056 73.4196 256.136 90.2789 270.305 106.322C276.572 113.392 283.384 119.919 290.196 126.173C291.831 127.261 293.194 128.892 294.556 129.98C297.553 132.699 300.278 135.418 302.731 138.681C303.821 140.041 304.365 141.401 304.093 143.032C303.003 153.365 302.186 163.698 301.096 174.032C301.368 177.567 302.186 180.83 300.006 183.277Z" fill="#004A76"/>
<path d="M301.645 109.585C304.642 110.945 307.64 112.304 310.364 114.208C313.362 115.295 314.452 117.199 313.907 120.734C313.089 127.532 317.177 133.786 323.716 135.962C330.528 138.681 338.43 136.505 343.063 130.795C344.698 129.164 345.515 126.988 346.332 124.813C346.877 122.093 348.24 122.093 350.42 122.637C362.682 126.172 369.221 134.874 371.946 146.839C372.764 150.102 373.309 153.637 373.309 157.172C369.766 157.716 365.951 158.531 362.409 159.075C358.322 159.891 358.322 159.619 358.867 163.97C359.684 165.058 360.229 166.145 360.502 167.505C363.772 184.364 367.314 201.223 370.311 218.083C371.129 224.881 371.674 231.951 371.946 238.749C372.491 246.907 373.036 255.064 373.581 262.95C373.854 266.485 373.309 270.292 371.946 273.555C370.039 277.09 366.224 276.546 362.954 277.906C359.412 278.45 355.869 279.538 352.327 280.081C350.42 280.353 349.875 281.441 350.42 283.345C350.965 284.976 351.237 286.608 351.51 288.239C351.782 289.599 352.055 290.958 350.42 291.774C344.698 292.318 301.917 291.774 301.645 291.23C298.92 291.23 296.195 291.23 293.47 291.23C291.835 291.23 291.291 290.958 291.563 289.327C291.835 287.152 291.835 284.704 292.108 282.257C292.925 280.353 294.56 253.977 295.105 247.994C297.013 227.328 298.648 206.662 300.283 186.268C300.283 185.18 300.283 183.82 300.283 182.733C301.372 170.768 301.917 158.531 303.825 146.567C304.642 141.944 302.735 137.049 298.92 134.058C297.285 132.699 295.923 131.067 294.56 129.435C294.288 128.62 294.288 127.804 294.56 126.988C296.74 121.55 298.648 116.111 300.555 110.401C300.283 110.401 300.827 109.857 301.645 109.585Z" fill="#8DB300"/>
<path d="M19.8924 247.451L34.3341 247.995C40.6013 247.723 46.3235 251.802 48.5034 257.512C51.2282 263.767 50.1383 271.109 45.506 276.003C40.3288 281.986 32.9717 285.521 25.0696 285.792C23.4347 285.792 21.5273 285.792 19.8924 286.064C18.8025 286.608 17.4401 286.88 16.3501 286.336C14.7152 286.064 13.0803 285.249 11.7179 284.433C11.7179 284.161 11.4454 283.889 11.4454 283.889C2.45339 279.538 -0.27146 271.924 0.27351 262.407C0.27351 258.328 1.09097 254.249 2.18091 250.442C3.54333 246.092 5.9957 245.004 10.3555 245.548C13.3528 246.907 16.6226 247.179 19.8924 247.451Z" fill="#004A76"/>
<path d="M362.404 277.635C365.129 276.275 368.399 277.091 370.579 274.372C374.939 273.556 375.756 274.644 375.211 279.81C373.849 281.714 379.843 279.266 379.298 278.179C379.298 276.003 378.754 273.556 380.933 271.924C386.111 270.293 391.56 268.933 396.738 267.302C398.917 266.758 399.462 267.03 400.007 269.205C402.732 278.722 405.457 288.24 408.182 297.757C408.727 299.933 408.999 301.292 406.275 301.564C405.185 301.836 372.486 313.801 365.129 316.792C364.039 317.336 362.677 317.88 361.859 316.248C360.497 314.073 359.407 311.625 358.862 309.178C356.137 301.02 353.14 293.134 350.415 284.977C349.325 281.714 349.598 281.17 352.867 280.082C356.137 278.994 359.407 278.722 362.404 277.635Z" fill="#E3E7EB"/>
<path d="M291.559 277.635H168.668C167.305 277.635 165.943 277.091 165.126 278.179C160.493 276.819 155.861 277.907 151.229 277.635C149.866 277.635 148.504 278.179 147.414 276.819C153.954 274.372 160.493 271.652 166.761 268.661C167.85 268.389 168.94 267.573 169.758 266.758C170.848 265.942 172.21 265.398 173.573 265.67H202.456C203.818 265.398 205.181 265.942 206.543 266.486H239.786C245.236 266.214 250.686 266.214 256.136 266.486H292.921C292.921 270.021 292.649 273.828 292.104 277.363C292.104 277.907 291.831 277.907 291.559 277.635Z" fill="#B3B8BC"/>
<path d="M117.17 341.809C122.892 340.177 128.887 339.905 134.881 338.546C136.789 338.274 138.969 338.002 140.876 337.458C141.694 337.186 142.784 336.914 143.601 337.73C138.696 347.519 134.064 357.308 129.432 367.098C123.982 378.519 118.26 389.939 112.538 401.36C111.993 402.448 111.993 403.808 110.358 404.079C107.088 405.711 103.546 406.255 100.003 405.167C97.551 405.439 98.3685 403.808 98.9134 402.72C101.638 393.474 104.636 384.229 107.36 374.983C110.358 363.835 113.628 352.958 117.17 341.809Z" fill="#C41627"/>
<path d="M206.27 266.758H169.485C168.94 266.214 168.667 265.67 168.94 264.855C170.575 262.951 172.755 261.592 175.479 261.32C178.477 261.32 181.474 261.32 184.471 261.32C188.831 261.32 193.191 261.32 197.551 261.32C199.731 261.592 201.638 260.232 201.91 258.057C204.363 248.539 207.088 238.75 209.813 228.961C210.357 226.513 209.54 225.969 207.36 225.969C194.826 225.698 182.564 227.057 170.302 226.513C167.85 226.513 167.305 227.873 166.76 229.776C164.58 237.934 162.945 246.092 160.765 254.25C160.765 255.609 159.948 256.969 159.13 258.057C157.495 258.6 155.588 258.872 153.953 258.872C156.678 247.452 159.675 236.303 162.4 224.882C163.218 222.163 165.942 220.259 168.94 220.531C173.572 220.531 178.204 220.259 182.564 219.987C192.101 219.443 201.638 219.443 211.175 219.171C216.08 219.171 218.26 221.619 216.897 226.513C213.627 238.478 210.358 250.715 206.815 262.679C206.27 264.039 206.27 265.399 206.27 266.758Z" fill="#E3E7EB"/>
<path d="M337.884 117.471C338.156 119.647 339.791 121.822 341.971 122.366C343.333 122.638 343.061 123.454 342.516 124.269C340.064 128.892 335.431 132.155 330.254 132.427C325.894 132.699 321.535 130.796 319.082 127.533C316.902 124.813 317.175 121.822 317.447 118.559C317.447 117.743 317.72 118.015 318.265 117.743C325.349 118.287 325.622 108.498 325.077 107.682C324.532 106.866 323.987 106.594 323.169 106.051C320.99 104.963 319.9 101.972 320.99 99.7963C321.807 97.8928 322.897 95.7174 321.262 93.542C320.99 93.2701 320.99 92.9982 321.262 92.7262C323.987 89.1912 325.894 85.1124 329.982 82.665C332.161 86.472 335.976 89.7351 335.976 94.6297C335.976 95.1736 336.249 95.4455 336.521 95.7174C339.246 99.7963 338.701 101.428 333.796 102.516C330.799 102.516 330.799 102.516 331.889 105.235C332.434 109.586 333.524 113.664 337.611 116.112C337.884 116.384 338.156 116.656 338.156 117.199C338.156 117.199 338.156 117.471 337.884 117.471Z" fill="#F8B5A8"/>
<path d="M337.882 117.471C333.522 115.024 331.069 110.13 331.614 105.235C332.432 104.147 332.704 103.059 333.522 101.972C337.064 101.156 338.972 99.2526 337.337 97.3491C334.067 93.8141 334.612 88.1037 330.524 84.8406C329.98 84.2967 329.98 83.209 329.707 82.3932C331.342 77.2267 334.612 75.5951 339.516 78.3144C345.239 81.5775 349.598 85.6563 347.963 92.9983C347.419 95.9895 348.508 98.9806 350.688 100.884C354.503 104.691 355.048 107.138 353.141 111.217C351.233 115.568 346.874 118.287 342.241 118.015C341.151 118.287 339.516 117.743 337.882 117.471Z" fill="#EC1C24"/>
<path d="M31.064 335.827C35.1513 339.906 40.056 342.897 45.2333 345.344C53.9528 348.063 63.4897 348.879 72.4818 347.247C80.1113 346.16 88.0134 345.344 95.643 344.256C96.4604 343.984 97.2779 344.256 97.8229 344.528C89.6483 351.598 79.8388 354.317 69.4844 354.861C66.2146 355.405 62.9448 355.405 59.675 355.677C56.4051 355.133 52.8628 354.861 49.3205 354.861C40.056 353.774 31.3365 349.151 25.3418 342.081C24.7969 341.537 24.7969 340.993 24.7969 340.449C26.4318 338.274 27.7942 336.099 31.064 335.827Z" fill="#004A76"/>
<path d="M46.8712 162.883C45.5088 155.269 45.5088 147.655 46.5987 140.041C46.8712 137.322 48.7786 135.146 51.5035 134.602C53.4109 134.059 55.3183 133.243 57.2256 132.699C59.133 132.155 60.768 131.067 61.5854 129.436C62.6754 127.532 64.5827 125.629 67.0351 126.989C69.4875 128.348 68.67 131.067 68.125 133.243C67.3076 134.602 66.2177 135.962 64.8552 137.05C64.5827 137.594 64.0378 138.137 63.4928 138.409C59.4055 140.041 58.3156 143.304 58.0431 147.383C58.0431 149.286 58.8606 152.549 54.7733 150.918C53.9558 150.646 53.6833 151.462 53.9558 152.278C54.2283 152.821 54.5008 153.365 55.0458 153.909C59.133 158.532 58.3156 161.251 52.3209 162.611C50.4135 163.155 48.5061 163.155 46.8712 162.883Z" fill="#004A76"/>
<path d="M110.904 232.223C108.452 227.329 106.272 222.434 104.637 217.267L126.708 202.583C128.888 203.399 130.523 205.303 131.068 207.75C131.613 209.11 130.523 209.654 129.978 210.469L110.904 232.223Z" fill="#F4A200"/>
<path d="M46.8703 162.883L53.9549 160.979C55.0449 160.707 56.4073 160.979 56.4073 159.348C56.4073 157.716 57.2248 156.084 55.3174 154.997C55.0449 154.725 54.7724 154.725 54.4999 154.453C53.1375 153.365 51.7751 152.006 52.865 150.102C53.9549 148.199 55.5898 150.102 57.2248 150.646C56.6798 144.392 57.2248 138.681 64.8543 137.05C65.9443 141.944 67.0342 146.839 68.3966 151.734C68.9416 153.909 66.4892 153.909 66.2168 155.269C64.8543 156.9 62.6745 157.444 61.857 159.891C63.7644 160.435 64.5819 157.988 66.4892 158.532C67.3067 161.251 65.6718 163.97 63.2194 164.786C60.7671 165.602 61.857 167.777 61.5845 169.409C56.6798 169.137 51.5026 169.409 46.5978 170.496C46.0529 168.049 46.3254 165.33 46.8703 162.883Z" fill="#F8B5A8"/>
<path d="M308.451 398.097L320.713 398.913C320.985 404.08 320.985 409.246 321.258 414.685C321.258 416.316 321.258 417.132 319.35 417.132C313.083 417.132 307.089 417.132 300.004 417.132C303.001 414.957 305.454 413.325 307.906 411.693C309.268 410.878 310.086 409.246 309.541 407.886C308.723 404.351 308.451 401.36 308.451 398.097Z" fill="#EC1C24"/>
<path d="M340.064 399.729L352.326 400.272C352.326 400.272 352.599 410.877 352.871 414.684C352.871 416.044 352.871 416.86 350.964 416.86C344.969 416.86 338.702 416.86 331.617 416.86C334.887 414.684 337.067 412.781 339.519 411.421C340.882 410.605 341.699 409.246 341.154 407.614C340.882 404.895 340.337 402.176 340.064 399.729Z" fill="#EC1C24"/>
<path d="M99.4566 405.439L109.811 404.352C108.449 406.799 107.086 409.518 105.724 411.965C104.634 413.597 104.906 414.685 106.541 415.772C107.904 416.316 109.266 417.404 110.083 418.764L93.7344 420.939L99.4566 405.439Z" fill="#F4A200"/>
<path d="M362.407 277.635C358.047 279.266 356.412 279.81 353.415 280.626C351.235 281.442 350.962 282.257 351.78 284.161C355.322 293.95 358.592 303.739 362.134 313.529C362.407 314.345 362.407 315.16 362.679 315.976C362.134 315.976 361.589 316.248 361.044 316.52C358.864 317.608 356.957 313.801 356.685 313.257C355.595 307.003 349.327 285.521 348.782 282.257C348.782 281.442 347.965 280.354 349.6 280.082C353.96 279.538 358.047 278.451 362.407 277.635Z" fill="#B3B8BC"/>
<path d="M133.246 407.07C136.243 405.983 139.24 405.439 142.238 405.167C141.42 407.886 138.423 410.334 139.24 412.509C140.058 414.684 143.328 415.5 146.052 417.404L127.523 420.667L133.246 407.07Z" fill="#F4A200"/>
<path d="M131.064 207.478L126.705 202.312C126.432 199.864 126.16 197.145 126.16 194.698C126.16 193.882 125.615 192.794 126.705 192.522C127.795 192.25 127.795 193.61 128.34 194.426C128.885 195.242 128.34 196.057 129.702 196.601C131.064 193.61 132.972 190.891 134.879 188.443C135.969 187.9 134.607 191.978 134.607 191.978C134.607 191.978 133.789 193.882 134.062 194.154C134.334 194.426 135.424 192.794 135.424 192.794C135.969 191.707 136.787 190.891 137.877 190.075C137.877 192.25 137.059 194.154 135.969 196.057C136.514 196.057 138.149 193.338 138.966 193.338C139.511 195.242 137.877 196.873 137.604 198.233C138.149 197.689 140.874 194.154 140.329 195.514C138.422 200.408 134.607 203.671 131.064 207.478Z" fill="#F8B5A8"/>
<path d="M177.39 318.424C177.117 314.889 175.21 311.626 171.94 309.994C168.943 308.362 165.673 307.003 162.131 306.187C142.239 301.564 122.075 302.652 101.911 304.012C83.3824 307.275 64.5809 309.722 45.507 311.082C37.06 311.626 28.3404 312.169 19.8934 309.45C18.531 311.082 19.6209 312.985 19.8934 314.617C21.5283 322.774 25.0706 330.388 30.5203 336.915C36.2425 342.897 43.5996 346.976 51.5017 348.335C57.2238 349.423 62.946 349.695 68.6682 348.879C78.2052 347.52 88.0146 346.976 97.5516 345.072C103.819 343.441 110.358 342.353 116.898 342.081C117.443 342.353 117.988 342.353 118.805 342.353C126.98 340.993 135.155 339.906 143.329 338.274C146.054 336.643 149.324 336.099 152.321 336.371C152.049 337.73 151.776 338.818 151.504 340.178C151.231 341.537 150.414 343.169 150.141 344.528C143.874 364.651 137.607 384.773 131.34 404.896C130.795 407.071 130.795 407.887 133.247 407.343C136.517 407.615 139.514 407.071 142.239 405.439C143.602 404.352 145.509 404.624 146.599 402.72C157.498 382.598 167.58 361.932 174.392 339.906C176.845 332.836 177.935 325.494 177.39 318.424Z" fill="#EC1C24"/>
<path d="M66.2134 158.532C64.5785 160.164 62.6711 161.251 60.2188 161.251C60.7637 158.26 62.9436 155.813 65.9409 155.269C66.2134 156.357 66.2134 157.444 66.2134 158.532Z" fill="#004A76"/>
<path d="M127.524 117.199C119.894 117.199 112.537 117.199 105.18 117.199C103.818 117.199 101.91 117.743 101.91 115.568C101.91 113.936 103.545 113.936 104.907 113.936C119.894 113.936 243.875 113.936 258.862 113.936C260.224 113.936 261.859 113.936 261.586 115.568C261.314 117.199 259.679 116.927 258.589 116.927H127.524V117.199Z" fill="#E3E7EB"/>
<path d="M123.981 98.1645H226.162C227.252 98.1645 229.16 97.8925 229.16 99.5241C229.16 101.156 227.525 101.428 226.162 101.428H102.727C101.637 101.428 100.547 101.156 100.547 99.796C100.547 98.4364 101.637 98.1645 102.727 98.1645H123.981Z" fill="#E3E7EB"/>
<path d="M119.623 133.515H104.636C103.546 133.515 102.184 133.515 102.184 132.155C102.184 130.795 103.274 130.251 104.636 130.251H216.627C217.99 130.251 219.08 130.251 219.08 131.883C219.08 133.515 217.717 133.243 216.627 133.243H119.623V133.515Z" fill="#E3E7EB"/>
<path d="M290.469 126.716C291.559 121.278 294.556 116.111 296.191 110.673C296.736 109.313 297.008 108.225 297.553 106.866C299.188 107.41 300.551 108.225 301.641 109.313C299.188 116.111 296.736 123.181 294.284 129.979C292.649 129.435 291.559 128.076 290.469 126.716Z" fill="#FFFFFE"/>
<path d="M158.859 258.329C161.312 247.995 163.764 237.662 165.944 227.329C166.216 226.513 166.761 225.698 167.851 225.698H168.941C182.293 225.426 195.372 225.154 208.724 224.882C210.904 224.882 211.721 225.154 211.177 227.601C208.179 238.206 205.454 249.083 202.729 259.688C202.185 261.32 201.64 262.136 199.732 262.136C194.827 261.864 189.923 262.136 185.018 262.136C184.745 261.864 184.473 261.592 184.473 261.32C182.021 258.057 177.661 256.153 173.574 256.697C171.394 257.513 169.214 257.513 167.034 256.969L158.859 258.329Z" fill="#FFFFFE"/>
<path d="M166.215 257.24C171.392 255.337 176.842 255.609 181.746 257.784C183.381 258.6 184.744 259.416 184.199 261.591C180.929 262.679 177.659 261.319 174.662 262.407L168.667 265.126C167.85 262.407 166.76 259.959 166.215 257.24Z" fill="#F8B5A8"/>
<path d="M169.489 264.583C168.399 262.135 168.127 259.144 166.219 256.969C163.767 256.969 161.042 256.969 158.59 257.785C156.955 257.785 155.047 258.328 153.685 259.144C144.965 260.504 136.518 262.135 127.799 263.495C126.164 263.767 125.619 262.679 125.074 261.592C119.352 252.346 114.72 242.285 111.177 232.224C109.815 227.057 107.635 221.891 104.91 217.268C104.093 216.452 103.275 215.364 103.003 214.005C99.4605 206.119 95.1007 198.505 90.196 191.163C82.8389 180.83 74.6644 171.857 61.3126 169.137C56.4079 167.234 50.9582 167.778 46.3259 170.225C44.9635 170.769 43.3286 171.313 41.9662 172.128C29.9768 177.839 24.5271 188.172 22.6197 200.681C20.7123 216.18 19.8949 231.68 19.8949 247.18C20.7123 248.267 22.0748 247.995 23.1647 247.995C26.9795 247.995 30.5218 248.267 34.3366 248.539C40.3313 248.539 45.7809 252.346 47.6883 258.057C50.1407 264.039 48.7783 270.565 44.691 275.188C39.5138 281.17 31.8842 284.433 23.9822 284.433C22.3472 284.433 20.4398 283.889 19.3499 286.065C18.8049 290.687 18.8049 295.038 19.0774 299.661C18.8049 302.652 18.8049 305.643 19.6224 308.363C20.7123 309.994 22.6197 310.266 24.5271 310.538C31.3392 311.626 38.1514 311.898 44.9635 311.082C62.675 309.722 80.3865 307.819 98.0981 304.827C99.733 304.556 101.368 304.556 102.458 303.196C101.095 295.854 99.733 288.784 98.3706 281.714C98.3706 279.267 97.0081 277.091 97.5531 274.644C103.82 281.714 111.995 283.074 121.259 282.53C130.524 281.714 139.516 279.539 147.963 276.275C149.325 276.547 150.415 276.275 151.778 275.732C156.137 274.1 160.77 272.197 164.857 270.021C166.764 268.933 169.489 268.662 170.579 266.214C170.034 266.214 169.762 265.398 169.489 264.583Z" fill="#F4A200"/>
<path d="M255.592 250.442C255.592 250.442 255.592 246.907 253.957 246.907C251.505 246.907 244.42 247.179 241.968 246.907C240.061 246.907 239.516 247.451 239.516 249.354C239.516 255.064 239.516 260.775 239.516 266.757C244.965 267.845 250.415 267.845 255.865 266.757C255.865 265.941 255.865 265.126 255.865 264.582C258.59 264.582 261.042 262.678 261.587 259.959C262.132 256.424 263.494 249.898 255.592 250.442ZM259.952 258.599C259.68 260.503 258.862 262.406 256.955 262.135C255.592 261.863 256.137 256.968 256.137 256.152C256.137 255.336 255.865 252.889 256.682 252.617C257.5 252.345 258.59 253.161 259.135 254.249C259.952 255.336 260.224 256.968 259.952 258.599Z" fill="#EC1C24"/>
<path d="M379.571 280.082C379.299 282.257 377.936 284.432 375.756 285.248C374.121 285.792 373.849 285.52 373.304 284.976C373.576 282.801 373.849 280.625 374.394 278.45C375.211 274.643 373.304 274.371 369.762 275.187C369.489 275.187 370.579 274.371 370.307 274.371C373.849 264.854 370.852 255.337 370.852 245.819C370.579 237.661 370.034 229.504 369.217 221.346C368.399 212.373 365.947 203.399 364.312 194.697C362.405 184.636 360.497 174.575 358.59 164.242C362.95 165.058 369.217 163.154 373.304 162.61C373.576 163.426 373.576 164.242 373.849 165.058C376.301 180.829 379.026 196.329 381.206 212.101C382.296 221.89 382.569 231.951 381.751 241.74C381.206 252.073 380.116 277.362 379.571 280.082Z" fill="#F8B5A8"/>
<path d="M332.162 104.963C333.065 104.963 333.797 104.232 333.797 103.331C333.797 102.43 333.065 101.7 332.162 101.7C331.259 101.7 330.527 102.43 330.527 103.331C330.527 104.232 331.259 104.963 332.162 104.963Z" fill="#FFFFFE"/>
<path d="M328.073 88.6467C328.618 88.9186 328.618 89.4625 328.345 89.7344C328.073 90.2783 327.8 90.2783 327.255 90.2783C327.255 90.2783 327.255 90.2783 326.983 90.2783C326.711 90.0063 326.438 89.4625 326.711 89.1906C326.983 88.6467 327.528 88.3748 328.073 88.6467Z" fill="#484441"/>
<path d="M328.617 87.2881C329.162 87.2881 329.707 87.8319 329.98 88.1039C330.252 88.6477 330.252 88.9196 329.98 89.4635" stroke="#484441" stroke-width="0.19" stroke-linecap="round" stroke-linejoin="round"/>
<path d="M61.5852 146.023C61.8577 145.751 62.4027 145.479 62.6752 145.751C62.9477 146.023 63.2201 146.567 62.9477 146.839C62.6752 147.111 62.1302 147.111 61.8577 146.839C61.3127 146.839 61.3127 146.567 61.5852 146.023Z" fill="#484441"/>
<path d="M60.2188 145.208C60.4912 144.664 60.7637 144.12 61.3087 143.848C61.8537 143.577 62.1261 143.577 62.6711 143.848" stroke="#484441" stroke-width="0.19" stroke-linecap="round" stroke-linejoin="round"/>
<path d="M128.614 55.7443C128.614 55.2005 128.614 54.6566 128.614 54.1128C128.614 53.0251 128.614 51.6655 128.341 50.5778C128.341 49.762 127.796 49.2182 126.979 48.9462C126.434 48.6743 125.889 48.6743 125.344 48.6743L124.799 48.9462C123.982 49.2182 123.437 50.3059 123.709 51.1216C123.709 51.9374 123.709 52.7532 123.164 53.0251C122.619 53.8409 121.257 54.1128 119.622 54.1128C117.169 54.1128 113.9 53.5689 111.72 53.0251C111.447 53.0251 111.447 53.0251 111.175 53.0251C110.902 51.1216 110.902 48.9462 110.902 46.7708C110.902 45.9551 110.902 44.8674 110.902 43.7797C111.447 43.5078 112.265 43.5077 113.082 43.5077C114.717 43.5077 114.717 44.0516 114.717 44.3235C114.717 45.4112 115.807 45.9551 116.897 45.9551C117.714 45.9551 118.804 45.4112 118.804 44.3235C118.804 43.2358 118.804 41.8762 118.804 40.7885C118.804 39.9727 118.804 38.885 118.804 38.0693C118.804 37.7973 118.804 37.5254 118.804 37.2535V36.7096C118.804 36.1658 118.532 35.8939 118.259 35.6219C117.987 35.35 117.442 35.0781 116.897 35.0781C116.079 35.0781 114.99 35.6219 114.99 36.7096C114.99 37.2535 114.99 37.5254 114.99 38.3412C114.99 38.6131 114.99 38.6131 114.717 38.6131C114.717 38.6131 114.445 38.6131 114.172 38.885C113.9 38.885 113.627 38.885 113.355 38.885H113.082C112.537 38.885 112.265 38.885 111.72 38.6131H111.447V37.5254C111.447 36.1658 111.175 35.0781 111.175 33.7185C111.175 31.815 111.175 30.1835 111.175 28.8238C111.447 28.8238 111.992 28.8238 112.537 28.5519C113.9 28.28 115.807 28.28 117.714 28.0081C121.257 28.0081 123.709 28.28 124.799 29.3677C125.344 29.9115 125.344 30.1835 125.344 30.9992C125.344 31.5431 125.616 32.0869 125.889 32.6308C126.161 32.9027 126.979 33.1746 127.524 33.1746C128.069 33.1746 128.341 33.1746 128.886 32.9027C129.976 32.6308 130.521 31.815 130.521 30.7273C130.521 29.9115 130.521 29.0958 130.521 28.28C130.521 26.1046 130.521 23.6573 129.159 22.2977C128.341 21.4819 127.251 21.21 125.616 21.21H125.071C123.709 21.21 122.619 21.4819 121.257 21.7538C119.622 22.0257 117.714 22.2977 116.079 22.2977C115.535 22.2977 114.99 22.2977 114.445 22.2977C110.902 22.5696 107.087 22.5696 103.818 21.7538C103.273 21.4819 102.728 21.7538 102.183 22.0257C101.365 22.2977 100.82 23.1134 100.82 23.9292C100.82 24.745 101.638 25.5607 102.728 25.8327V26.1046C102.728 31.2712 103.273 36.1658 103.818 41.0604C104.363 44.8674 104.635 48.6743 104.908 52.7532C103.818 53.297 102.183 54.3847 102.455 56.2882V56.832C102.455 57.104 102.455 57.104 102.455 57.3759C102.455 57.9197 102.455 58.4636 103 58.7355C103.273 59.2794 103.818 59.5513 104.363 59.5513C107.36 59.8232 110.63 59.8232 113.627 59.8232C114.445 59.8232 115.262 59.8232 116.079 59.8232C117.987 59.8232 119.894 59.8232 121.802 60.0951C122.347 60.0951 122.619 60.0951 123.164 60.0951C123.709 60.0951 124.254 60.0951 124.799 60.0951C125.344 60.0951 125.889 60.0951 126.434 60.0951C127.251 60.0951 127.796 60.0951 128.341 60.0951H128.614C129.159 60.0951 129.704 59.8232 129.976 59.5513C130.249 59.0074 130.521 58.4636 130.521 57.9197C128.886 57.3759 128.614 56.5601 128.614 55.7443Z" fill="white"/>
<path d="M151.774 55.2005C150.957 54.9286 150.684 52.2094 150.684 50.8498C150.684 50.5778 150.684 50.034 150.684 50.034C150.412 47.8586 149.595 45.6832 148.232 44.0516C146.87 42.4201 144.962 41.6043 143.055 41.6043C141.148 41.6043 139.513 42.4201 137.605 43.5078C137.605 42.964 137.333 42.692 137.333 42.1482C137.06 41.3324 135.97 40.7886 135.153 41.0605C133.79 41.3324 132.7 41.6043 131.338 41.6043C129.976 41.8763 129.703 42.692 129.703 43.5078C129.703 44.3236 130.521 45.4113 131.611 45.4113L131.883 45.6832C132.156 46.499 132.156 47.8586 131.883 48.9463C131.883 49.4901 131.611 50.034 131.611 50.3059C131.611 50.5778 131.611 50.8498 131.611 51.9374C131.611 52.4813 131.611 53.569 131.611 54.1128C130.793 54.1128 129.976 54.9286 129.976 55.7444C129.703 56.5602 129.703 57.3759 129.976 58.1917C129.976 59.0075 130.793 59.8232 131.883 59.8232H132.155C134.608 59.8232 137.06 59.8232 139.513 59.8232H140.058C140.603 59.8232 140.875 59.5513 141.148 59.2794C141.42 58.7355 141.692 58.1917 141.692 57.6479C141.692 56.0163 140.33 55.4725 139.513 54.9286C138.695 54.3848 138.15 54.1128 138.15 53.569V53.2971V53.0251C138.15 52.2094 138.15 51.3936 138.423 50.5778V50.034C138.968 47.8586 140.33 46.7709 142.237 46.499H142.51C144.417 46.499 145.78 49.4901 146.052 55.2005C145.507 55.4725 144.962 55.7444 144.69 56.2882C144.417 57.104 144.417 57.3759 144.417 58.1917C144.417 58.7356 144.417 59.2794 144.962 59.8232C145.235 60.3671 145.78 60.3671 146.325 60.3671H146.597C147.142 60.3671 147.687 60.3671 148.232 60.0952H148.505C150.14 60.0952 152.592 59.8232 152.864 57.3759C153.137 56.5602 152.592 55.4725 151.774 55.2005Z" fill="white"/>
<path d="M173.574 68.7966C173.302 68.7966 173.302 68.7966 173.029 68.7966C171.939 69.0686 170.577 69.3405 169.487 69.6124C169.487 69.3405 169.487 69.0686 169.214 68.7966C169.759 66.3493 170.304 64.1739 170.849 61.7266C172.484 55.4723 173.847 48.9462 175.482 42.6919C175.754 41.8761 175.482 41.3323 175.209 40.7884C174.937 40.2446 174.392 39.9727 173.847 39.9727C173.302 39.9727 172.484 39.9727 171.939 39.9727C171.122 39.9727 170.577 40.7884 170.304 41.6042C170.304 41.8761 170.304 42.1481 170.032 42.42C168.942 41.3323 167.307 40.7884 165.4 40.7884C164.582 40.7884 164.037 41.0604 163.22 41.3323C158.315 42.9638 156.68 48.1304 156.135 51.1216C155.318 54.9285 156.408 59.2793 160.495 60.9108C162.675 61.7266 164.855 61.4547 167.034 60.367C166.217 64.4458 165.127 67.9809 164.037 70.972H163.765C156.68 72.6036 152.048 75.3228 149.323 79.9455C147.961 82.3928 147.688 85.384 148.778 87.8313C149.595 90.0067 151.503 91.3663 153.683 91.9102C154.5 92.1821 155.318 92.1821 156.135 92.1821C159.95 91.9102 163.492 89.4629 165.4 85.6559C167.034 82.3928 167.579 79.1298 168.397 75.8667C168.397 75.3228 168.669 74.779 168.669 74.2351C170.577 73.6913 172.757 73.4193 174.664 72.8755C175.482 72.6036 176.026 71.7878 176.026 70.972C175.754 69.8843 174.937 68.7966 173.574 68.7966ZM156.135 85.384C155.045 85.384 154.5 85.1121 154.228 84.2963C153.41 82.6648 155.318 79.9455 155.863 79.1298C157.77 76.6824 161.312 75.8667 164.037 75.0509C163.22 78.0421 162.13 81.5771 159.405 83.7525C158.86 84.5682 157.225 85.384 156.135 85.384ZM167.034 48.9462C167.307 49.49 167.307 50.3058 166.762 51.3935C166.217 52.4812 164.31 53.8408 162.947 53.8408C162.13 53.8408 161.857 53.5689 161.857 52.7531C161.585 51.6654 162.13 50.3058 162.947 48.9462H163.22C164.037 48.6742 164.582 48.4023 165.4 48.4023C166.217 48.1304 166.762 48.4023 167.034 48.9462Z" fill="white"/>
<path d="M193.195 57.3757C192.922 55.4722 192.377 53.0249 189.653 53.0249C189.108 53.0249 188.29 53.2968 188.018 53.8407C187.745 54.3845 187.473 54.9284 187.473 55.4722V55.7442C187.473 55.7442 186.928 56.0161 185.565 56.288C185.02 56.288 184.475 56.288 183.658 56.288C183.658 55.7442 183.658 55.2003 183.658 54.3845C183.658 52.2091 183.385 50.0337 183.385 47.8584C183.385 46.7707 183.385 45.9549 183.385 44.5953C183.385 41.3322 183.658 38.6129 183.93 36.1656H184.203C185.293 36.1656 185.838 35.0779 185.838 34.2621C185.838 33.1744 185.02 32.0867 183.658 32.3587C183.113 32.3587 182.568 32.3587 182.296 32.6306C181.206 32.6306 180.388 32.9025 179.298 32.9025C178.753 32.9025 177.936 32.9025 177.391 32.9025C176.028 32.9025 175.211 33.9902 175.211 34.806C175.211 35.6218 175.756 36.7095 176.846 36.7095C177.118 36.7095 177.391 36.7095 177.663 36.7095C178.208 39.7006 178.208 43.2356 178.481 45.9549C178.481 45.9549 178.481 46.2268 178.481 46.4987C178.753 54.3845 177.663 55.4722 177.118 55.4722C176.301 55.7442 175.483 56.288 175.483 57.3757C175.483 58.1915 175.483 58.7353 175.483 59.5511C175.756 60.3669 176.301 61.1826 177.118 61.1826C179.843 61.4546 182.568 61.4546 185.293 61.4546C187.2 61.4546 189.108 61.4546 191.015 61.4546H191.288C191.833 61.4546 192.65 61.1826 192.922 60.6388C193.195 60.0949 193.467 59.823 193.195 59.2792C193.467 57.9195 193.467 57.6476 193.195 57.3757Z" fill="white"/>
<path d="M213.083 44.0513C213.356 43.5074 213.083 42.6917 212.811 42.1478C212.538 41.604 211.993 41.332 211.448 41.332C210.359 41.332 209.541 41.332 208.451 41.604C207.634 41.8759 206.816 42.4197 206.816 43.2355C206.816 43.7793 206.816 44.0513 206.816 44.5951C205.454 43.7793 204.364 43.5074 202.729 43.5074C200.004 43.5074 197.552 44.867 195.917 47.3144C194.009 50.0336 193.464 53.5686 194.282 56.2879C195.099 58.7352 197.552 60.3667 200.004 60.3667C200.549 60.3667 201.094 60.3667 201.639 60.0948C203.001 59.551 204.364 58.7352 205.454 57.6475C205.454 58.4633 205.454 59.0071 205.454 59.8229C205.454 60.3667 205.999 61.1825 206.816 61.4544H207.089C207.361 61.4544 207.634 61.7264 207.906 61.7264H208.179C208.451 61.9983 208.724 61.9983 209.269 61.9983C210.086 61.9983 210.904 61.4544 211.176 60.3667C211.448 58.7352 211.448 56.8317 211.448 55.2002C211.721 51.6652 211.721 47.5863 213.083 44.0513ZM200.004 50.3055C200.277 50.0336 200.277 49.7617 200.277 49.7617C200.549 49.4898 200.549 49.2178 200.822 49.2178C201.094 48.9459 201.094 48.9459 201.367 48.674C201.639 48.4021 201.639 48.674 201.639 48.674C201.911 48.674 202.184 48.9459 202.456 49.4898C203.001 50.5775 202.729 52.4809 202.184 53.5686C201.911 54.1125 201.094 54.6563 200.277 54.6563C200.004 54.6563 200.004 54.6563 199.732 54.6563C199.459 54.6563 199.187 54.3844 199.187 53.8405C199.187 52.209 199.732 50.8494 200.004 50.3055Z" fill="white"/>
<path d="M228.887 46.4992C227.797 44.5957 225.889 43.508 223.709 44.0519C222.347 44.3238 220.985 44.8676 219.622 45.9553C219.622 45.4115 219.895 44.5957 219.895 44.0519C220.167 43.2361 219.895 42.9642 219.622 42.4203C219.35 41.8765 218.532 41.8765 217.987 41.8765C217.715 41.8765 217.442 41.8765 217.17 42.1484C216.352 42.1484 215.807 42.4203 215.262 42.9642C214.99 43.2361 214.717 43.7799 214.717 44.3238C214.717 45.9553 214.445 47.5869 214.172 48.9465C213.9 49.7623 213.9 50.578 213.628 51.6657C213.628 52.7534 213.628 53.8411 213.628 54.9288C213.628 56.5604 213.628 57.92 213.355 59.5515C213.083 60.3673 213.355 60.9112 213.628 61.455C214.173 61.9989 214.717 62.2708 215.535 62.2708C215.807 62.2708 216.352 62.2708 216.625 62.2708C216.897 62.2708 217.442 62.2708 217.715 62.2708C218.532 62.2708 219.35 61.455 219.35 60.3673C219.35 57.6481 219.895 52.4815 223.709 50.578C223.982 50.3061 224.254 50.3061 224.527 50.578C225.617 51.6657 224.799 57.1042 224.527 59.2796C224.527 59.8235 224.254 60.3673 224.254 60.6392C224.254 61.1831 224.527 61.9989 225.072 62.2708C225.344 62.5427 225.889 62.8146 226.434 62.8146H226.707C226.979 62.8146 227.252 62.8146 227.524 62.5427C227.797 62.5427 228.069 62.5427 228.342 62.2708C229.432 61.9989 229.977 61.455 229.977 60.6392C229.977 59.8235 229.977 59.0077 230.249 58.4639C230.249 54.1131 230.522 49.7623 228.887 46.4992Z" fill="white"/>
<path d="M251.503 57.6478C251.503 57.104 251.503 56.5602 251.503 56.0163C251.503 54.1128 251.503 52.2094 251.503 50.3059C251.503 49.762 251.503 49.2182 251.503 48.6743C251.503 45.9551 251.503 42.9639 251.776 39.9728C251.776 38.6131 251.776 37.5254 252.048 36.7097C252.048 36.4378 252.048 35.8939 252.048 35.622C252.321 35.0781 252.321 34.5343 252.048 33.7185C251.503 32.9027 250.686 32.3589 249.868 32.6308C249.596 32.6308 249.323 32.3589 249.051 32.3589C248.506 32.3589 247.961 32.6308 247.416 33.1747C247.144 33.4466 246.871 33.9904 247.144 34.8062C247.144 35.622 247.416 36.1658 247.416 36.9816C246.871 39.4289 246.871 41.8762 246.871 44.3236V45.1393C246.871 45.9551 246.599 46.4989 246.599 47.3147C246.599 47.5866 246.599 47.8586 246.599 47.8586C245.509 46.499 243.601 45.9551 241.421 45.9551C240.604 45.9551 239.786 46.227 238.697 46.499C235.154 47.5866 232.702 50.5778 231.884 54.6567C231.067 58.1917 232.429 62.2706 236.244 63.3583C237.062 63.6302 237.607 63.6302 238.424 63.6302C240.604 63.6302 242.784 62.5425 244.691 60.639C244.419 61.7267 244.419 62.5425 244.146 63.6302C244.146 64.174 244.146 64.7179 244.691 65.2617C245.236 65.8056 245.781 66.0775 246.326 66.0775H246.599C247.144 66.0775 247.961 65.8056 248.778 65.8056C249.323 65.8056 249.868 65.5336 250.141 64.9898C250.686 64.7179 251.231 64.446 251.231 63.6302C251.503 61.4548 251.503 59.5513 251.503 57.6478ZM240.876 51.6655C241.694 51.6655 242.239 51.9374 242.511 52.7532C242.784 53.2971 242.511 54.1128 241.966 55.2005C241.421 56.0163 240.604 56.5601 240.059 56.5601C239.514 56.5601 238.697 56.0163 238.152 55.2005L237.879 54.9286C238.152 53.8409 238.969 52.4813 239.242 52.2094C239.786 51.9374 240.331 51.6655 240.876 51.6655Z" fill="white"/>
<path d="M290.471 126.717C273.577 111.217 258.318 94.0857 244.966 75.5948C238.971 67.4371 232.976 59.0074 227.799 50.5778C225.892 47.8585 222.895 46.7708 220.442 44.5955C219.625 44.0516 217.99 43.7797 218.535 42.4201C219.08 41.0604 220.715 42.1481 221.805 42.4201C222.35 42.4201 222.895 42.692 224.257 43.2358C223.167 39.7008 222.35 36.4377 221.26 33.1746C220.442 31.815 220.987 30.1835 222.35 29.3677C222.622 29.0958 222.895 29.0958 223.167 29.0958C225.347 28.0081 225.619 29.9115 226.164 30.9992C234.611 47.8585 248.236 60.639 261.315 73.6914C272.487 84.5683 283.931 95.1734 295.92 105.235C296.465 105.778 297.01 106.322 297.828 107.138C298.1 107.954 298.1 109.042 297.828 109.857C295.648 115.296 293.741 120.734 291.561 125.901C291.288 126.173 290.743 126.717 290.471 126.717Z" fill="#F8B5A8"/>
<path d="M112.811 163.97H105.454C102.456 163.97 100.004 161.523 100.004 158.532V151.19C100.004 148.199 102.456 145.751 105.454 145.751H112.811C115.808 145.751 118.26 148.199 118.26 151.19V158.532C117.988 161.523 115.808 163.97 112.811 163.97ZM105.454 148.743C104.091 148.743 102.729 149.83 102.729 151.462V158.804C102.729 160.163 103.819 161.523 105.454 161.523H112.811C114.173 161.523 115.536 160.435 115.536 158.804V151.462C115.536 150.102 114.446 148.743 112.811 148.743H105.454Z" fill="#E3E7EB"/>
<path d="M144.963 163.97H137.606C134.609 163.97 132.156 161.523 132.156 158.532V151.19C132.156 148.199 134.609 145.751 137.606 145.751H144.963C147.96 145.751 150.413 148.199 150.413 151.19V158.532C150.413 161.523 147.96 163.97 144.963 163.97ZM137.606 148.743C136.244 148.743 134.881 149.83 134.881 151.462V158.804C134.881 160.163 135.971 161.523 137.606 161.523H144.963C146.325 161.523 147.688 160.435 147.688 158.804V151.462C147.688 150.102 146.598 148.743 144.963 148.743H137.606Z" fill="#8DB300"/>
<path d="M176.569 163.97H169.211C166.214 163.97 163.762 161.523 163.762 158.532V151.19C163.762 148.199 166.214 145.751 169.211 145.751H176.569C179.566 145.751 182.018 148.199 182.018 151.19V158.532C181.746 161.523 179.293 163.97 176.569 163.97ZM169.211 148.743C167.849 148.743 166.487 149.83 166.487 151.462V158.804C166.487 160.163 167.577 161.523 169.211 161.523H176.569C177.931 161.523 179.293 160.435 179.293 158.804V151.462C179.293 150.102 178.203 148.743 176.569 148.743H169.211Z" fill="#E3E7EB"/>
<path d="M140.877 159.347L137.335 156.356C136.79 155.812 136.79 154.997 137.335 154.453C137.879 153.909 138.697 153.909 139.242 154.453L140.877 155.812L144.419 152.006C144.964 151.462 145.782 151.462 146.327 152.006C146.871 152.549 146.871 153.365 146.327 153.909L140.877 159.347Z" fill="#8DB300"/>
</g>
<defs>
<clipPath id="clip0">
<rect width="409" height="431" fill="white"/>
</clipPath>
</defs>
</svg>
