<svg width="540" height="522" viewBox="0 0 540 522" fill="none" xmlns="http://www.w3.org/2000/svg">
<path d="M95.3789 92.9421V94.9845C96.6252 95.3473 97.9099 95.5615 99.2063 95.6227C100.476 95.7159 101.752 95.533 102.944 95.0866C103.141 94.067 103.265 93.0347 103.314 91.9975C102.581 91.5796 101.87 91.1237 101.184 90.6316L95.3789 92.9421Z" fill="#FEFEFD"/>
<path d="M96.6945 71.4841C96.5414 71.9309 92.1016 88.6786 92.1016 88.6786L95.1763 90.287C95.2826 91.0911 95.338 91.9012 95.3421 92.7124C95.2656 93.7208 96.4266 93.9889 98.5827 93.874C99.7044 93.8056 100.829 93.8056 101.951 93.874C101.951 93.874 102.104 97.4865 99.042 97.8567C95.98 98.2268 95.2145 97.3716 95.2145 97.6652C95.2145 97.9588 95.7631 101.954 99.3354 102.912C100.769 103.35 102.231 103.687 103.711 103.92L110.09 121.791C110.09 121.791 121.343 140.415 121.841 140.479C122.338 140.543 134.063 133.369 134.063 133.369L132.29 106.562L124.762 97.7418C124.762 97.7418 119.11 87.9382 119.264 87.5298C119.417 87.1213 119.94 79.2836 119.264 78.5942C118.587 77.9049 113.548 71.3948 113.548 71.3948L96.6945 71.4841Z" fill="#F8B5A7"/>
<path d="M94.8798 55.2599C101.067 51.6347 103.338 61.5403 103.338 61.5403C103.338 61.5403 115.203 64.0933 117.73 65.3698C120.256 66.6463 122.935 75.3138 123.866 81.4665C124.499 86.8557 124.814 92.2774 124.81 97.7036C124.81 97.7036 115.803 97.3717 114.438 96.8101C113.073 96.2484 113.264 92.1253 113.494 90.9637C113.724 89.8021 115.165 89.049 116.747 87.1342C118.329 85.2194 118.75 83.4451 117.398 82.2835C116.046 81.1219 112.001 83.3813 111.095 84.2621C110.19 85.1429 110.113 85.5386 110.113 85.5386C110.113 85.5386 107.561 84.862 107.561 84.5684C107.561 84.2748 107.561 76.3478 107.561 76.3478C107.561 76.3478 98.1459 77.2285 94.0888 69.9652C90.0317 62.702 91.7796 57.0853 94.8798 55.2599Z" fill="#F4A200"/>
<path d="M99.2305 81.7857C99.1651 81.9613 99.1365 82.1485 99.1465 82.3356C99.1565 82.5228 99.2049 82.7059 99.2887 82.8735C99.3724 83.0411 99.4898 83.1897 99.6334 83.31C99.777 83.4303 99.9439 83.5198 100.124 83.5728C100.439 83.6178 100.761 83.5517 101.034 83.3859C101.306 83.22 101.513 82.9646 101.618 82.6633C101.724 82.362 101.721 82.0335 101.612 81.7338C101.502 81.434 101.292 81.1817 101.017 81.0198C100.849 80.9515 100.67 80.9171 100.489 80.9188C100.308 80.9204 100.13 80.9579 99.9635 81.0291C99.7974 81.1004 99.647 81.204 99.5212 81.3338C99.3953 81.4637 99.2965 81.6173 99.2305 81.7857Z" fill="#45423F"/>
<path d="M103.571 80.3175C103.401 79.891 103.139 79.5074 102.804 79.194C102.468 78.8806 102.068 78.6453 101.631 78.5048C100.92 78.3783 100.188 78.4811 99.5391 78.7984" stroke="#484441" stroke-width="0.72" stroke-linecap="round" stroke-linejoin="round"/>
<path d="M115.971 84.2493C114.745 85.577 113.404 86.7943 111.965 87.8873" stroke="#D95F73" stroke-width="0.72" stroke-linecap="round" stroke-linejoin="round"/>
<path d="M103.723 103.895C105.254 104.448 106.829 104.875 108.43 105.171C109.706 105.171 104.82 106.894 104.82 106.894L103.723 103.895Z" fill="#D95F73"/>
<path d="M155.75 97.6142C157.1 97.4661 158.438 97.2272 159.756 96.8993C167.654 95.342 175.245 95.6228 182.453 99.848C186.36 102.267 189.775 105.403 192.519 109.09C209.671 130.689 224.186 154.258 235.756 179.298C238.742 185.897 241.855 192.56 242.544 199.977C242.735 201.994 243.245 203.972 242.684 205.989C239.035 212.372 234.136 214.567 226.392 212.933C219.409 211.331 212.708 208.685 206.515 205.083C198.816 200.877 191.488 196.026 184.609 190.582C183.333 187.85 184.979 185.629 186.051 183.37C187.843 180.068 189.178 176.538 190.019 172.877C185.675 169.996 181.07 167.53 176.265 165.511C171.813 163.418 166.85 162.129 163.635 157.942C163.303 156.338 163.537 154.669 164.298 153.219C167.003 147.168 163.711 143.007 159.795 138.271C145.442 146.798 131.408 155.631 116.94 164.426C119.734 170.298 121.839 175.404 128.614 176.898C135.962 178.519 143.12 181.021 150.303 183.114C151.834 183.548 153.352 184.225 155.049 183.74C158.034 180.357 156.745 175.251 159.858 171.97C161.632 171.358 162.589 172.673 163.686 173.63C170.065 179.4 176.597 184.965 183.18 190.492C191.843 196.352 200.225 202.606 209.564 207.457C215.493 210.616 221.818 212.968 228.369 214.452C229.711 214.624 230.983 215.148 232.057 215.971C233.447 217.618 234.8 219.29 234.366 221.677C228.918 227.013 222.054 230.294 215.79 234.442C210.406 238.004 204.69 241.067 199.204 244.425C194.046 246.876 189.044 249.643 184.226 252.709C177.336 257.123 170.206 261.15 162.869 264.772C162.322 265.163 161.692 265.422 161.028 265.531C160.365 265.639 159.685 265.594 159.042 265.398C148.733 248.356 138.374 231.353 128.129 214.261C94.0903 157.367 73.1925 120.106 39.1666 63.2507C39.039 63.021 38.9625 62.7529 38.8477 62.5104C42.9682 57.7738 48.4929 54.4777 54.6167 53.1025C74.2769 78.2113 119.186 130.893 121.405 132.986C123.166 132.041 123.204 130.433 123.689 129.08C126.024 122.634 128.282 116.149 130.54 109.677C130.8 108.631 131.313 107.664 132.033 106.863C132.754 106.062 133.661 105.45 134.674 105.082C141.46 101.962 148.514 99.4626 155.75 97.6142Z" fill="#004A76"/>
<path d="M241.74 206.194C241.881 194.437 236.88 184.148 231.968 174C221.213 151.725 207.625 131.186 192.902 111.311C184.431 99.8226 169.427 95.674 155.623 97.6909C155.381 97.5887 159.706 96.6569 160.471 96.4143C186.255 89.0745 208.084 98.5844 221.225 122.927C223.522 127.204 225.869 131.467 227.974 135.833C235.246 150.972 246.002 162.729 261.401 169.686C280.602 178.379 294.865 191.654 303.885 211.031C311.349 227.039 325.089 237.659 339.11 247.731C352.136 257.088 365.711 265.832 376.109 278.367C379.409 282.044 382.051 286.263 383.917 290.838C363.606 295.357 351.167 310.19 338.472 324.564C326.416 338.273 314.793 352.315 299.407 362.527C287.274 370.728 273.247 375.689 258.658 376.938C256.961 376.824 256.106 375.56 255.251 374.385C251.169 368.691 247.878 362.468 245.466 355.889C240.707 342.754 235.693 329.695 230.858 316.585C227.834 308.39 224.185 300.412 222.029 291.911C221.914 290.072 220.575 288.285 221.748 286.396C224.453 286.026 224.925 288.439 225.895 289.97C231.472 299.059 237.515 307.853 243.999 316.317C250.964 325.125 258.288 333.601 267.167 340.571C272.271 344.592 277.884 347.872 284.48 348.958C293.806 350.502 299.33 346.928 301.372 337.699C303.069 330.04 302.546 322.381 301.372 314.722C299.771 303.633 297.244 292.698 293.819 282.031C291.497 275.278 289.685 268.359 287.261 261.606C285.628 257.088 285.845 253.207 289.392 249.761C290.092 249.02 290.646 248.154 291.025 247.208C285.986 248.88 281.239 249.914 276.557 252.314C277.948 263.228 279.811 273.797 282.005 284.315C282.388 290.162 283.919 295.804 284.557 301.638C284.263 304.191 287.453 311.569 286.687 314.122C284.021 315.82 281.75 308.275 280.895 306.871C276.021 298.804 271.365 290.596 266.682 282.401C258.721 268.487 250.731 254.581 242.71 240.685C239.993 235.579 237.683 230.141 234.762 225.086C233.992 223.968 233.686 222.595 233.907 221.256L231.215 216.303C231.404 215.791 231.726 215.338 232.147 214.99C232.569 214.642 233.074 214.413 233.613 214.325C238.13 213.342 240.541 210.38 241.74 206.194Z" fill="#EC1C24"/>
<path d="M250.059 362.897C252.024 367.926 255.749 372.266 258.671 376.938C269.464 394.618 275.052 402.468 285.846 420.084C286.157 420.673 286.438 421.278 286.688 421.897C282.98 426.628 278.229 430.437 272.807 433.028C245.3 401.23 223.293 379.159 203.275 341.745C193.069 322.598 181.586 304.229 170.602 285.49C170.874 285.296 171.183 285.16 171.51 285.09C171.837 285.02 172.175 285.017 172.503 285.081C173.476 285.094 174.437 284.862 175.297 284.405C175.959 284.283 176.637 284.283 177.3 284.405C178.296 284.468 179.29 284.251 180.17 283.779C180.848 283.626 181.549 283.6 182.237 283.703C183.44 283.775 184.639 283.491 185.682 282.886C186.364 282.707 187.076 282.668 187.774 282.771C188.804 282.859 189.836 282.632 190.734 282.12C191.595 281.925 192.481 281.856 193.362 281.916C194.42 281.937 195.475 281.791 196.488 281.481C197.017 281.37 197.555 281.301 198.095 281.277C199.193 281.258 200.283 281.091 201.336 280.779C201.883 280.664 202.437 280.588 202.994 280.55C204.296 280.525 205.586 280.306 206.822 279.899C207.366 279.771 207.922 279.694 208.48 279.669C209.576 279.668 210.666 279.518 211.721 279.222C212.258 279.104 212.805 279.035 213.354 279.018C214.63 279.094 215.906 278.686 217.181 278.763C217.552 278.821 217.905 278.961 218.215 279.171C219.095 280.128 219.988 281.073 220.856 282.056C221.029 282.413 221.157 282.791 221.239 283.179C221.711 285.834 240.809 339.103 250.059 362.897Z" fill="#004A76"/>
<path d="M170.588 285.477L159.105 265.347L183.882 251.777C186.523 253.182 186.561 256.73 189.546 258.415C193.991 256.997 198.154 254.811 201.845 251.956C202.304 248.305 198.745 246.518 199.115 243.378L234.021 221.282C237.827 227.367 241.093 233.774 243.781 240.429C242.505 245.395 238.984 249.058 236.33 253.194C230.691 261.989 225.18 270.899 218.89 279.273C218.456 279.363 171.149 285.592 170.588 285.477Z" fill="#02394F"/>
<path d="M54.6165 53.1025L38.8475 62.5486L16.4442 21.8793C16.3568 21.8274 16.281 21.758 16.2216 21.6754C16.1622 21.5929 16.1204 21.499 16.0988 21.3996C16.0773 21.3002 16.0765 21.1974 16.0964 21.0976C16.1163 20.9979 16.1565 20.9033 16.2146 20.8198C16.3681 20.6169 16.561 20.4471 16.7817 20.3206C17.0024 20.1941 17.2464 20.1136 17.499 20.0838C17.7516 20.054 18.0076 20.0755 18.2517 20.1472C18.4958 20.2188 18.7229 20.339 18.9193 20.5007C19.6976 21.0113 20.0803 21.9942 21.0244 22.3644C22.683 22.4793 23.2443 20.3603 24.3032 20.539C23.525 20.6539 22.6957 21.8921 21.3816 22.3516C20.7473 22.1432 20.1829 21.7635 19.7506 21.2544C19.3184 20.7454 19.0351 20.1267 18.9321 19.4667C21.1392 16.5563 23.7036 14.233 27.6204 14.1182L54.6165 53.1025Z" fill="#EC1C24"/>
<path d="M12.1581 23.1047L9.40234 14.3352L22.5049 6.38257L27.2382 13.3906C26.1793 14.1437 25.401 15.3308 24.0359 15.5479C22.3263 14.3735 22.8877 12.8672 23.1684 11.3099C22.4156 12.9183 23.2321 14.5394 22.658 16.4159C20.706 18.2157 18.0906 19.5688 15.7559 21.3049C14.6442 22.066 13.4337 22.6716 12.1581 23.1047Z" fill="#EC1C24"/>
<path d="M15.4258 21.2921L22.1748 15.867L22.5193 10.4929C24.1268 11.6035 22.8382 13.3268 23.7951 14.565C25.224 15.2415 25.9512 13.365 27.2526 13.3778L27.6353 14.1182C24.7775 16.0074 21.5497 17.3733 19.317 20.1305C19.8784 20.8454 19.5339 21.1006 18.7812 21.1389C17.9391 20.4496 17.0843 20.8581 16.2295 21.1389C16.0382 21.5347 15.783 21.6113 15.4258 21.2921Z" fill="#C41627"/>
<path d="M15.4223 21.2922L16.2133 21.1135L16.443 21.8794C14.8099 21.5731 13.9934 24.1261 12.1562 23.1559L15.4223 21.2922Z" fill="#C41627"/>
<path d="M199.028 243.378C201.395 245.846 203.064 248.899 203.863 252.224C199.129 255.437 194.091 258.177 188.821 260.406C186.544 257.921 184.837 254.967 183.82 251.752C188.438 248.209 193.566 245.386 199.028 243.378Z" fill="#F99200"/>
<path d="M182.695 191.539L184.367 190.033C189.585 193.301 194.841 196.505 200.008 199.849C207.714 205.067 216.209 209.011 225.167 211.529C232.72 213.521 237.058 212.155 241.753 206.193C242.301 213.738 236.649 214.938 231.291 216.329C212.626 212.882 197.75 201.93 182.695 191.539Z" fill="#02394F"/>
<path d="M216.659 182.77C210.19 179.502 201.349 179.834 197.879 169.89L216.659 182.77Z" fill="#02394F"/>
<path d="M218.508 278.903C221.966 273.414 225.334 267.861 228.906 262.436C233.767 255.032 238.781 247.731 243.731 240.378C252.381 255.22 261.031 270.065 269.681 284.915C273.993 292.362 278.288 299.812 282.567 307.267C283.09 308.16 287.568 316.202 289.035 318.679C286.943 313.917 285.399 307.854 283.613 301.867C282.809 296.059 280.755 284.29 280.755 284.29C280.755 284.29 290.107 280.996 295.019 282.005C300.033 298.421 304.396 314.964 303.311 332.337C302.265 349.174 291.829 355.097 276.519 347.655C262.371 340.788 252.636 329.006 243.093 317.019C235.488 307.229 228.549 296.938 222.323 286.217C221.187 285.247 220.116 284.239 220.46 282.528L220.205 281.66C219.299 281.022 218.062 280.486 218.508 278.903Z" fill="#004A76"/>
<path d="M283.613 301.867C286.28 308.505 287.632 314.517 290.082 320.708C287.9 316.981 284.685 310.994 284.685 310.994C284.277 308.62 284.009 304.229 283.613 301.867Z" fill="#02394F"/>
<path d="M18.7656 21.1389L19.3015 20.1304L21.3045 21.7005L26.497 18.7773L26.867 19.3901L22.172 22.5558C20.2711 23.0792 19.6077 21.9431 18.7656 21.1389Z" fill="#C41627"/>
<path fill-rule="evenodd" clip-rule="evenodd" d="M272.602 433.028L286.827 421.616L307.291 454.601L301.422 476.25L294.456 457.243L272.602 433.028Z" fill="#F4A200"/>
<path fill-rule="evenodd" clip-rule="evenodd" d="M274.25 250.679L280.769 284.685L295.161 281.941L286.778 255.262L294.893 245.178L274.25 250.679Z" fill="#F4A200"/>
<path d="M122.043 176.157L140.95 207.674L188.156 180.025L167.13 146.798C167.13 146.798 142.89 151.712 141.78 152.657C140.67 153.602 122.043 176.157 122.043 176.157Z" fill="#E3E7EB"/>
<path d="M160.33 172.328C158.978 176.796 157.634 181.268 156.299 185.744C155.811 185.789 155.319 185.789 154.831 185.744L122.043 176.157L115.09 164.312L160.496 136.369L167.13 146.798L164.26 158.082C162.333 159.103 160.955 157.623 159.412 156.984C157.574 156.231 155.98 154.814 153.505 154.802C150.946 156.476 148.881 158.802 147.521 161.542C148.58 164.516 151.093 163.775 153.415 164.26C155.648 166.724 159.475 168.141 160.33 172.328Z" fill="#FEFEFD"/>
<path d="M160.333 172.328L152.461 164.605L149.756 165.945L145.125 161.81C147.83 158.771 150.394 155.887 153.048 152.874L164.198 158.095L191.373 173.247C190.187 178.532 186.716 184.046 184.42 190.033C184.548 191.31 184.101 191.922 182.749 191.539L160.333 172.328Z" fill="#EC1C24"/>
<path d="M454.545 326.963C461.443 326.963 467.035 321.368 467.035 314.466C467.035 307.565 461.443 301.969 454.545 301.969C447.647 301.969 442.055 307.565 442.055 314.466C442.055 321.368 447.647 326.963 454.545 326.963Z" fill="#E3E7EB"/>
<path d="M332.794 435.504C336.296 435.504 339.135 432.664 339.135 429.16C339.135 425.656 336.296 422.816 332.794 422.816C329.292 422.816 326.453 425.656 326.453 429.16C326.453 432.664 329.292 435.504 332.794 435.504Z" fill="#E3E7EB"/>
<path d="M441.596 425.688C461.896 425.688 478.352 409.223 478.352 388.912C478.352 368.601 461.896 352.136 441.596 352.136C421.296 352.136 404.84 368.601 404.84 388.912C404.84 409.223 421.296 425.688 441.596 425.688Z" fill="#E3E7EB"/>
<path d="M493.752 448.933C514.052 448.933 530.508 432.468 530.508 412.157C530.508 391.846 514.052 375.381 493.752 375.381C473.452 375.381 456.996 391.846 456.996 412.157C456.996 432.468 473.452 448.933 493.752 448.933Z" fill="#E3E7EB"/>
<path d="M449.393 479.084C469.693 479.084 486.149 462.619 486.149 442.308C486.149 421.997 469.693 405.532 449.393 405.532C429.093 405.532 412.637 421.997 412.637 442.308C412.637 462.619 429.093 479.084 449.393 479.084Z" fill="#E3E7EB"/>
<path d="M412.405 509.503C432.704 509.503 449.161 493.038 449.161 472.727C449.161 452.416 432.704 435.951 412.405 435.951C392.105 435.951 375.648 452.416 375.648 472.727C375.648 493.038 392.105 509.503 412.405 509.503Z" fill="#E3E7EB"/>
<path d="M403.027 462.324C415.048 462.324 424.792 452.574 424.792 440.546C424.792 428.519 415.048 418.769 403.027 418.769C391.006 418.769 381.262 428.519 381.262 440.546C381.262 452.574 391.006 462.324 403.027 462.324Z" fill="#E3E7EB"/>
<path d="M373.811 472.855C380.709 472.855 386.301 467.26 386.301 460.358C386.301 453.456 380.709 447.861 373.811 447.861C366.912 447.861 361.32 453.456 361.32 460.358C361.32 467.26 366.912 472.855 373.811 472.855Z" fill="#E3E7EB"/>
<path d="M397.837 477.195L351.652 402.213L406.933 459.158L397.837 477.195Z" fill="#E3E7EB"/>
<path d="M421.617 451.422L343.129 338.414L455.4 434.394L421.617 451.422Z" fill="#E3E7EB"/>
<path d="M455.616 436.666L385.867 319.368L485.853 412.553L455.616 436.666Z" fill="#E3E7EB"/>
</svg>
