<svg width="325" height="627" viewBox="0 0 325 627" fill="none" xmlns="http://www.w3.org/2000/svg">
<g clip-path="url(#clip0)">
<path d="M170.198 238.399H12.0855C5.38844 238.399 0 233.007 0 226.305V12.0932C0 5.39189 5.38844 0 12.0855 0H170.198C176.895 0 182.283 5.39189 182.283 12.0932V226.305C182.283 233.007 176.895 238.399 170.198 238.399Z" fill="#E3E7EB"/>
<path d="M238.168 253.265C246.944 258.426 251.562 266.821 255.565 275.603C264.11 294.474 268.882 314.501 273.27 334.605C277.35 353.477 280.275 372.58 283.123 391.682C283.739 395.996 280.275 394.994 278.581 396.304C254.256 403.776 230.008 411.247 205.684 418.719C202.604 419.643 199.525 420.644 196.446 421.569C196.215 421.107 195.907 420.721 195.83 420.259C194.753 409.707 193.675 399.154 192.597 388.601C190.904 372.349 189.21 356.096 187.517 339.843C186.362 328.443 185.284 316.966 184.13 305.566C188.902 301.946 193.367 298.094 197.37 293.627C193.136 294.32 189.133 295.399 185.13 296.323C184.13 296.554 183.437 296.785 183.36 297.94C182.282 297.478 181.282 297.709 180.358 298.48C170.274 301.946 159.728 303.486 149.259 304.719C143.409 305.412 137.558 306.644 131.708 306.028C122.317 305.104 115.543 299.327 109.461 292.78C97.2219 279.685 88.7543 264.28 81.2875 248.181C80.9026 247.334 80.5947 246.563 80.8256 245.562C84.0587 245.1 86.9839 243.636 89.832 242.173C90.9097 242.327 91.2176 243.174 91.6025 243.944C100.07 259.196 112.694 270.827 126.089 281.534C127.32 282.535 128.398 282.766 129.937 281.996C139.021 277.682 148.258 273.523 157.342 269.363C162.191 267.438 167.272 265.897 171.813 263.355C175.123 263.047 178.125 261.661 181.205 260.428C186.054 259.042 190.904 257.732 195.753 256.346C198.371 256.269 200.988 255.653 203.451 254.882C207.531 254.343 211.688 253.727 215.768 253.188C223.234 257.347 230.701 257.578 238.168 253.265Z" fill="#8DB300"/>
<path d="M196.446 421.646C199.525 420.722 202.604 419.72 205.683 418.796C206.222 419.258 206.761 419.335 207.454 419.181C223.927 415.484 240.323 411.71 256.796 408.012C264.34 406.318 271.961 404.777 279.505 403.16C280.89 407.858 281.121 412.788 281.352 417.564C282.122 432.276 282.045 446.988 280.582 461.7C270.421 465.86 260.029 469.48 250.099 474.102C246.25 475.642 242.401 477.183 238.476 478.646C227.853 482.729 217.153 486.657 206.761 491.433C205.144 491.972 203.528 492.511 201.911 493.05C200.295 474.102 198.755 455.153 197.139 436.204C196.831 432.892 196.523 429.58 196.215 426.268C196.369 424.727 196.369 423.187 196.446 421.646Z" fill="#F4A200"/>
<path d="M201.988 493.05C203.605 492.511 205.221 491.972 206.838 491.432C208.454 491.817 209.84 490.97 211.303 490.585C219.924 488.428 228.392 485.501 237.167 483.807C236.859 491.586 234.935 499.135 233.78 506.838C232.01 518.161 229.777 529.407 228.161 540.73C227.468 545.813 229.084 550.82 229.7 555.904C231.548 570.385 233.703 584.866 235.705 599.424C235.858 600.426 236.089 601.427 236.243 602.428C232.087 602.505 228.315 604.431 224.235 604.739C221.772 600.194 221.156 595.111 219.693 590.258C216.152 577.857 212.765 565.455 209.301 552.977C206.53 542.963 206.453 532.565 205.067 522.32C203.682 512.615 202.989 502.832 201.988 493.05Z" fill="#F9B6A8"/>
<path d="M309.991 436.974C305.219 460.622 299.676 484.038 290.901 506.53C289.053 511.305 286.59 515.773 283.819 520.086C278.584 528.405 271.502 526.403 266.653 520.472C260.571 513 257.492 503.988 254.875 494.899C253.413 489.738 252.258 484.5 250.949 479.339C252.566 479.493 253.874 478.723 255.26 478.184C263.497 474.949 271.733 471.713 279.97 468.478C280.124 470.789 278.892 472.946 279.739 476.027C282.818 468.555 285.666 461.623 288.514 454.69C291.055 448.528 293.518 442.366 296.058 436.204C296.52 435.049 296.828 433.739 297.983 433.046C302.139 433.97 305.757 436.435 309.991 436.974Z" fill="#F9B6A8"/>
<path d="M238.171 253.265C230.704 257.578 223.237 257.347 215.847 253.188C212.768 250.415 210.151 247.411 209.535 243.02C208.996 238.861 210.074 235.241 213.076 232.237C213.23 232.083 213.384 231.851 213.461 231.62C214.23 230.157 215.385 228.77 214.23 226.999C213.23 225.458 211.69 225.304 210.151 225.535C206.764 225.997 205.455 224.38 205.455 221.222C205.455 217.601 204.377 214.443 200.99 212.441C199.836 211.208 198.681 210.13 197.68 208.82C196.218 206.972 195.217 204.738 196.757 202.504C198.219 200.424 200.452 200.039 202.915 200.578C203.762 200.81 204.608 201.041 205.455 201.272C209.227 203.814 213.384 205.2 217.925 205.662C225.623 206.433 228.01 209.051 227.702 216.908C227.471 222.839 229.703 226.768 235.168 228.924C247.639 233.854 246.792 247.257 238.171 253.265Z" fill="#EC1C24"/>
<path d="M224.16 604.739C228.239 604.431 232.088 602.505 236.168 602.428C237.015 610.593 237.785 618.835 238.631 627C231.934 627 225.314 627.077 218.617 627.077C219.926 624.766 222.312 623.611 224.467 622.455C227.855 620.607 228.239 618.45 226.931 614.984C225.699 611.671 224.16 608.359 224.16 604.739Z" fill="#3A3B39"/>
<path d="M279.505 403.159C271.961 404.777 264.341 406.317 256.797 408.012C240.324 411.709 223.85 415.407 207.454 419.181C206.761 419.335 206.222 419.258 205.684 418.796C230.009 411.324 254.257 403.852 278.582 396.381C279.197 398.615 279.813 400.848 279.505 403.159Z" fill="#DD8E03"/>
<path d="M309.989 436.974C305.755 436.512 302.137 433.97 297.98 433.046C298.904 426.807 302.291 421.415 304.447 415.638C304.678 414.944 305.37 414.944 306.063 415.099C312.375 416.947 318.687 418.719 325 421.261C321.998 422.031 318.995 423.109 315.916 423.571C312.914 424.034 311.99 425.651 311.606 428.347C311.298 431.197 310.605 434.047 309.989 436.974Z" fill="#3A3B39"/>
<path d="M280.046 468.401C271.809 471.637 263.573 474.949 255.336 478.107C253.95 478.646 252.565 479.493 251.025 479.262C250.717 477.491 250.409 475.796 250.102 474.024C260.032 469.403 270.501 465.782 280.585 461.623C280.431 463.934 280.2 466.168 280.046 468.401Z" fill="#DD968A"/>
<path d="M237.091 483.807C228.316 485.501 219.925 488.428 211.226 490.585C209.764 490.97 208.378 491.741 206.762 491.432C217.154 486.657 227.854 482.728 238.477 478.646C238.015 480.418 238.323 482.343 237.091 483.807Z" fill="#DD968A"/>
<path d="M201.068 212.44C204.455 214.366 205.533 217.524 205.533 221.222C205.533 224.38 206.841 225.997 210.228 225.535C211.768 225.304 213.307 225.458 214.308 226.999C215.463 228.77 214.308 230.157 213.538 231.62C213.384 231.851 213.153 232.236 212.923 232.467C210.074 235.472 208.997 239.015 209.536 243.097C210.074 247.488 212.692 250.492 215.848 253.265C211.768 253.804 207.611 254.42 203.531 254.959C203.377 253.573 203.3 252.186 203.146 250.8C202.838 246.178 201.068 242.789 195.833 242.481C194.679 241.172 194.91 239.554 194.833 238.013C195.603 236.858 197.373 237.628 198.22 236.319C197.758 234.932 193.832 235.626 194.371 234.624C196.603 230.619 189.675 230.465 193.678 227.846C194.294 227.461 194.91 227.076 195.372 226.536C197.065 224.611 197.219 223.224 197.758 220.374C198.143 218.063 196.834 214.366 201.068 212.44Z" fill="#F9B6A8"/>
<path d="M84.9841 237.859C86.0618 239.862 88.833 239.939 89.7567 242.096C86.9085 243.559 83.9834 245.023 80.7503 245.485C77.9791 243.636 76.1317 241.172 75.8238 237.782C75.7468 234.393 75.3619 231.004 79.7496 229.386C81.5971 228.693 82.2129 228.847 82.6748 230.619C83.3676 233.161 83.4445 235.703 84.9841 237.859Z" fill="#F9B6A8"/>
<path d="M156.571 237.859C156.802 238.784 157.11 239.708 157.341 240.632C153.8 241.788 150.182 242.943 146.641 244.098C144.794 242.019 142.946 239.939 147.257 238.552C152.029 237.474 151.414 234.008 150.798 230.542C150.567 229.232 149.951 227.846 151.645 227.384C153.184 226.998 153.184 228.693 153.569 229.694C154.57 232.467 155.57 235.163 156.571 237.859Z" fill="#F9B6A8"/>
<path d="M146.645 244.099C150.186 242.943 153.803 241.788 157.344 240.632C162.194 248.181 166.967 255.73 171.816 263.278C167.198 265.897 162.194 267.438 157.344 269.286C153.803 260.967 150.186 252.572 146.645 244.099Z" fill="#7E9B04"/>
<path d="M184.13 305.489C182.976 303.024 183.438 300.406 183.361 297.787C183.438 296.708 184.207 296.4 185.131 296.169C189.134 295.245 193.137 294.166 197.37 293.473C193.368 298.018 188.903 301.946 184.13 305.489Z" fill="#7E9B04"/>
<path d="M198.527 220.528C198.527 220.528 200.606 218.988 202.53 221.53" stroke="#3A3B39" stroke-miterlimit="10" stroke-linecap="round" stroke-linejoin="round"/>
<path d="M199.834 224.148C200.344 224.148 200.758 223.735 200.758 223.224C200.758 222.714 200.344 222.3 199.834 222.3C199.324 222.3 198.91 222.714 198.91 223.224C198.91 223.735 199.324 224.148 199.834 224.148Z" fill="#3A3B39"/>
<path d="M29.852 109V101.412H32.806V99.2H24.392V101.412H27.332V109H29.852ZM36.1746 109.182C37.3926 109.182 38.3306 108.93 39.0026 108.44V106.536C38.2606 106.942 37.4906 107.152 36.7206 107.152C35.6986 107.152 34.8586 106.788 34.6486 106.046H39.4086V105.43C39.4086 104.338 39.0866 103.442 38.4426 102.756C37.8126 102.056 36.9866 101.706 35.9786 101.706C34.8446 101.706 33.9346 102.07 33.2486 102.784C32.5626 103.498 32.2126 104.394 32.2126 105.444C32.2126 106.578 32.5906 107.488 33.3606 108.174C34.1306 108.846 35.0686 109.182 36.1746 109.182ZM34.6346 104.73C34.7326 103.988 35.2086 103.526 35.8666 103.526C36.4686 103.526 36.9726 104.016 36.9866 104.73H34.6346ZM42.743 109.182C43.681 109.182 44.437 108.902 45.011 108.342C45.333 108.888 45.921 109.154 46.747 109.154C47.279 109.154 47.699 109.028 48.007 108.79V107.026C47.909 107.082 47.769 107.11 47.601 107.11C47.321 107.11 47.181 106.984 47.181 106.732V104.576C47.181 103.694 46.859 103.008 46.215 102.49C45.571 101.972 44.731 101.706 43.681 101.706C42.645 101.706 41.749 101.874 41.007 102.224V104.17C41.637 103.82 42.337 103.652 43.079 103.652C43.513 103.652 43.793 103.694 44.143 103.82C44.521 103.946 44.731 104.282 44.731 104.786V104.884C44.241 104.646 43.639 104.52 42.925 104.52C41.623 104.478 40.167 105.206 40.153 106.816C40.153 107.516 40.391 108.09 40.867 108.524C41.343 108.958 41.973 109.182 42.743 109.182ZM43.583 107.516C43.023 107.516 42.589 107.208 42.589 106.704C42.589 106.186 43.079 105.85 43.695 105.85C44.101 105.85 44.451 105.948 44.731 106.158V106.9C44.465 107.306 44.087 107.516 43.583 107.516ZM52.7436 109.182C53.5416 109.182 54.2836 109.014 54.9696 108.692V106.634C54.4376 106.914 53.8356 107.054 53.1496 107.054C52.0996 107.054 51.2736 106.438 51.2736 105.444C51.2736 104.45 52.0996 103.848 53.1636 103.848C53.7236 103.848 54.2976 103.974 54.8716 104.212V102.14C54.2556 101.846 53.5556 101.706 52.7716 101.706C51.7216 101.706 50.7976 102.042 50.0136 102.7C49.2296 103.358 48.8376 104.268 48.8376 105.43C48.8376 106.592 49.2296 107.502 49.9996 108.174C50.7836 108.846 51.6936 109.182 52.7436 109.182ZM58.955 104.548C59.263 104.128 59.655 103.918 60.145 103.918C60.719 103.918 61.167 104.254 61.167 105.094V109H63.645V104.632C63.645 102.84 62.693 101.706 61.111 101.706C60.285 101.706 59.571 102.028 58.955 102.686V99.2H56.477V109H58.955V104.548ZM67.775 109V101.888H65.297V109H67.775ZM66.529 101.244C67.327 101.244 67.957 100.614 67.957 99.816C67.957 99.018 67.327 98.388 66.529 98.388C65.745 98.388 65.115 99.018 65.115 99.816C65.115 100.614 65.745 101.244 66.529 101.244ZM72.039 104.548C72.347 104.128 72.739 103.918 73.229 103.918C73.803 103.918 74.251 104.254 74.251 105.094V109H76.729V104.632C76.729 102.84 75.777 101.706 74.195 101.706C73.369 101.706 72.655 102.028 72.039 102.686V101.888H69.561V109H72.039V104.548ZM81.405 111.884C82.427 111.884 83.421 111.576 84.261 110.96C85.101 110.358 85.647 109.294 85.647 108.006V101.888H83.169V102.63C82.595 102.014 81.881 101.706 81.013 101.706C80.089 101.706 79.333 102.042 78.745 102.7C78.157 103.358 77.863 104.198 77.863 105.206C77.863 106.214 78.157 107.054 78.745 107.712C79.333 108.37 80.089 108.706 81.013 108.706C81.895 108.706 82.609 108.398 83.169 107.796V108.16C83.169 109.014 82.609 109.546 82.049 109.7C81.783 109.77 81.475 109.812 81.139 109.812C80.201 109.812 79.347 109.588 78.591 109.126V111.282C79.263 111.688 80.201 111.884 81.405 111.884ZM81.755 106.634C80.873 106.634 80.327 106.032 80.327 105.206C80.327 104.38 80.873 103.778 81.755 103.778C82.385 103.778 82.847 104.002 83.169 104.436V105.976C82.861 106.41 82.385 106.634 81.755 106.634ZM27.458 127V122.646L31.294 127H34.36L29.866 121.708L33.66 117.2H30.636L27.458 120.938V117.2H24.938V127H27.458ZM37.6269 122.548C37.9349 122.128 38.3269 121.918 38.8169 121.918C39.3909 121.918 39.8389 122.254 39.8389 123.094V127H42.3169V122.632C42.3169 120.84 41.3649 119.706 39.7829 119.706C38.9569 119.706 38.2429 120.028 37.6269 120.686V119.888H35.1489V127H37.6269V122.548ZM49.0229 123.444C49.0229 124.382 48.3649 125.068 47.4549 125.068C46.5449 125.068 45.8869 124.382 45.8869 123.444C45.8869 122.534 46.5449 121.82 47.4549 121.82C48.3649 121.82 49.0229 122.534 49.0229 123.444ZM50.3249 126.118C51.0809 125.404 51.4589 124.508 51.4589 123.444C51.4589 122.38 51.0809 121.498 50.3249 120.784C49.5689 120.07 48.6169 119.706 47.4549 119.706C46.2929 119.706 45.3409 120.07 44.5849 120.784C43.8289 121.498 43.4509 122.38 43.4509 123.444C43.4509 124.508 43.8289 125.404 44.5849 126.118C45.3409 126.832 46.2929 127.182 47.4549 127.182C48.6169 127.182 49.5689 126.832 50.3249 126.118ZM56.3046 127.056L57.5086 123.402L58.7546 127.056H60.8826L63.2486 119.888H60.8126L59.7066 123.514L58.5446 119.86H56.5846L55.4506 123.514L54.3166 119.888H51.8666L54.1906 127.056H56.3046ZM66.2727 127.182C66.8327 127.182 67.2947 127.098 67.6447 126.916V124.97C67.5187 125.04 67.3787 125.068 67.2247 125.068C66.8887 125.068 66.7207 124.886 66.7207 124.522V117.2H64.2427V125.11C64.2427 126.496 64.9147 127.182 66.2727 127.182ZM72.4325 127.182C73.6505 127.182 74.5885 126.93 75.2605 126.44V124.536C74.5185 124.942 73.7485 125.152 72.9785 125.152C71.9565 125.152 71.1165 124.788 70.9065 124.046H75.6665V123.43C75.6665 122.338 75.3445 121.442 74.7005 120.756C74.0705 120.056 73.2445 119.706 72.2365 119.706C71.1025 119.706 70.1925 120.07 69.5065 120.784C68.8205 121.498 68.4705 122.394 68.4705 123.444C68.4705 124.578 68.8485 125.488 69.6185 126.174C70.3885 126.846 71.3265 127.182 72.4325 127.182ZM70.8925 122.73C70.9905 121.988 71.4665 121.526 72.1245 121.526C72.7265 121.526 73.2305 122.016 73.2445 122.73H70.8925ZM79.7849 127.182C80.7089 127.182 81.4229 126.86 81.9129 126.202V127H84.3909V117.2H81.9129V120.686C81.4089 120.028 80.6949 119.706 79.7849 119.706C78.8469 119.706 78.0769 120.07 77.4609 120.784C76.8449 121.498 76.5369 122.38 76.5369 123.444C76.5369 124.508 76.8449 125.404 77.4609 126.118C78.0769 126.832 78.8469 127.182 79.7849 127.182ZM80.4989 125.082C79.6169 125.082 79.0009 124.382 79.0009 123.444C79.0009 122.506 79.6169 121.806 80.4989 121.806C81.1289 121.806 81.5909 122.058 81.9129 122.562V124.326C81.5909 124.83 81.1289 125.082 80.4989 125.082ZM89.198 129.884C90.22 129.884 91.214 129.576 92.054 128.96C92.894 128.358 93.44 127.294 93.44 126.006V119.888H90.962V120.63C90.388 120.014 89.674 119.706 88.806 119.706C87.882 119.706 87.126 120.042 86.538 120.7C85.95 121.358 85.656 122.198 85.656 123.206C85.656 124.214 85.95 125.054 86.538 125.712C87.126 126.37 87.882 126.706 88.806 126.706C89.688 126.706 90.402 126.398 90.962 125.796V126.16C90.962 127.014 90.402 127.546 89.842 127.7C89.576 127.77 89.268 127.812 88.932 127.812C87.994 127.812 87.14 127.588 86.384 127.126V129.282C87.056 129.688 87.994 129.884 89.198 129.884ZM89.548 124.634C88.666 124.634 88.12 124.032 88.12 123.206C88.12 122.38 88.666 121.778 89.548 121.778C90.178 121.778 90.64 122.002 90.962 122.436V123.976C90.654 124.41 90.178 124.634 89.548 124.634ZM98.5731 127.182C99.7911 127.182 100.729 126.93 101.401 126.44V124.536C100.659 124.942 99.8891 125.152 99.1191 125.152C98.0971 125.152 97.2571 124.788 97.0471 124.046H101.807V123.43C101.807 122.338 101.485 121.442 100.841 120.756C100.211 120.056 99.3851 119.706 98.3771 119.706C97.2431 119.706 96.3331 120.07 95.6471 120.784C94.9611 121.498 94.6111 122.394 94.6111 123.444C94.6111 124.578 94.9891 125.488 95.7591 126.174C96.5291 126.846 97.4671 127.182 98.5731 127.182ZM97.0331 122.73C97.1311 121.988 97.6071 121.526 98.2651 121.526C98.8671 121.526 99.3711 122.016 99.3851 122.73H97.0331ZM110.954 127V119.412H113.908V117.2H105.494V119.412H108.434V127H110.954ZM117.276 127.182C118.494 127.182 119.432 126.93 120.104 126.44V124.536C119.362 124.942 118.592 125.152 117.822 125.152C116.8 125.152 115.96 124.788 115.75 124.046H120.51V123.43C120.51 122.338 120.188 121.442 119.544 120.756C118.914 120.056 118.088 119.706 117.08 119.706C115.946 119.706 115.036 120.07 114.35 120.784C113.664 121.498 113.314 122.394 113.314 123.444C113.314 124.578 113.692 125.488 114.462 126.174C115.232 126.846 116.17 127.182 117.276 127.182ZM115.736 122.73C115.834 121.988 116.31 121.526 116.968 121.526C117.57 121.526 118.074 122.016 118.088 122.73H115.736ZM124.573 127.182C125.567 127.182 126.365 126.972 126.939 126.552C127.527 126.118 127.821 125.572 127.821 124.886C127.821 123.64 127.149 123.01 125.637 122.618C125.399 122.562 124.923 122.464 124.713 122.408L124.377 122.31C124.153 122.24 124.055 122.114 124.055 121.988C124.055 121.75 124.321 121.624 124.853 121.624C125.763 121.624 126.617 121.876 127.443 122.394V120.378C126.701 119.93 125.805 119.706 124.755 119.706C122.725 119.706 121.493 120.56 121.493 121.974C121.493 122.618 121.661 123.094 121.983 123.388C122.319 123.682 122.893 123.948 123.705 124.186C123.971 124.256 124.517 124.396 124.699 124.452L125.021 124.564C125.259 124.662 125.329 124.76 125.329 124.886C125.329 125.124 125.035 125.236 124.461 125.236C123.887 125.236 123.327 125.166 122.795 125.012C122.263 124.858 121.857 124.676 121.563 124.466V126.552C122.249 126.972 123.257 127.182 124.573 127.182ZM132.141 127.182C132.911 127.182 133.513 127.042 133.961 126.762V124.788C133.639 124.956 133.317 125.04 132.981 125.04C132.379 125.04 132.155 124.802 132.155 124.186V121.876H133.961V119.888H132.155V118.068H129.677V119.888H128.431V121.876H129.677V124.858C129.677 126.37 130.685 127.182 132.141 127.182Z" fill="#1D1C1C"/>
<g clip-path="url(#clip1)">
<path d="M34.5039 185.513C37.75 187.806 41.6781 189.171 45.9608 189.171C50.2435 189.171 54.1716 187.806 57.4177 185.513V207.926C57.4177 209.591 55.5628 210.574 54.1716 209.673L45.9608 204.186L37.75 209.673C36.3588 210.601 34.5039 209.591 34.5039 207.926V185.513Z" fill="#EC1C24"/>
<path d="M57.3628 185.46C59.8724 182.702 61.4272 179.044 61.4272 175.031C61.4272 166.514 54.5258 159.608 46.015 159.608C37.5041 159.608 30.5754 166.487 30.5754 175.031C30.5754 179.044 32.103 182.73 34.6399 185.46V192.011L30.9027 191.575C30.1389 191.493 29.5661 190.892 29.4843 190.155L28.8841 184.941L24.656 181.802C24.0559 181.365 23.8376 180.546 24.1377 179.836L26.2381 175.031L24.1377 170.2C23.8376 169.517 24.0559 168.698 24.656 168.234L28.8841 165.122L29.4843 159.908C29.5661 159.144 30.1662 158.57 30.9027 158.488L36.1129 157.888L39.2499 153.656C39.6864 153.056 40.5047 152.838 41.214 153.138L46.015 155.24L50.816 153.138C51.4979 152.838 52.3163 153.056 52.78 153.656L55.8897 157.888L61.0999 158.488C61.8637 158.57 62.4365 159.171 62.5184 159.908L63.1185 165.122L67.3466 168.234C67.9468 168.671 68.165 169.49 67.8649 170.2L65.7645 175.004L67.8649 179.809C68.165 180.491 67.9468 181.31 67.3466 181.774L63.1185 184.886L62.5184 190.1C62.4365 190.865 61.8364 191.438 61.0999 191.52L57.3628 191.957V185.46Z" fill="#004A76"/>
<path d="M46.0135 190.509C54.6008 190.509 61.5622 183.542 61.5622 174.949C61.5622 166.355 54.6008 159.388 46.0135 159.388C37.4262 159.388 30.4648 166.355 30.4648 174.949C30.4648 183.542 37.4262 190.509 46.0135 190.509Z" fill="#8EB400"/>
</g>
</g>
<defs>
<clipPath id="clip0">
<rect width="325" height="627" fill="white"/>
</clipPath>
<clipPath id="clip1">
<rect width="44" height="57" fill="white" transform="translate(24 153)"/>
</clipPath>
</defs>
</svg>
