<svg width="452" height="409" viewBox="0 0 452 409" fill="none" xmlns="http://www.w3.org/2000/svg">
<path d="M64.1002 367.6C65.1002 367.6 66.1002 367.7 67.1002 367.6C69.2002 367.4 69.6002 368.3 69.6002 370.2C69.5002 380.4 69.6002 390.7 69.6002 400.9C69.6002 401.4 69.7002 401.9 69.7002 402.4C48.0002 402.4 26.3002 402.4 4.6002 402.4C4.4002 402.4 4.2002 402.3 3.7002 402.2C7.8002 399.5 11.7002 397 15.4002 394.2C24.6002 387.5 37.0002 373.4 43.4002 363.8C44.0002 363 50.2002 367.5 64.1002 367.6Z" fill="#E3E7EB"/>
<path d="M245.9 402.3C240.1 402.3 234.3 402.4 228.4 402.4C205.4 402.4 182.4 402.3 159.4 402.3C159.7 400.8 161 401 162 400.7C170.8 398.3 176.9 392.7 181.1 384.8C186.5 374.9 188.9 364 190.5 352.9C192.8 336.7 192.8 320.4 192.1 304.2C191.5 289 189.8 273.8 183.9 259.4C181.5 253.5 178.4 248.1 173.9 243.4C162.4 231.3 141.5 232.4 131.1 246C125.7 253.1 122.5 261.2 120.5 269.7C117.6 282 116.3 294.6 116.1 307.3C116.1 311.6 115.3 315.9 115.5 320.2C116.3 336.6 116.7 353.1 121.4 369.1C124.1 378.1 127.5 386.7 134.5 393.5C137.9 396.9 141.8 399.4 146.5 400.6C147.5 400.9 148.8 400.7 149.1 402.2C130.4 402.2 111.6 402.2 92.9001 402.2C92.0001 401.2 92.1001 400 92.1001 398.8C92.1001 389.6 92.1001 380.3 92.1001 371.1C92.1001 367.2 92.7001 366.6 96.7001 366.5C98.9001 366.4 101.1 366.5 103.3 366.5C105 366.5 105.9 365.8 105.9 364C105.9 357.3 105.9 350.5 105.9 343.8C105.9 342.1 105.1 341.2 103.3 341.2C100.9 341.2 98.5001 341.2 96.1001 341.1C92.9001 341 92.2001 340.3 92.1001 337.2C92.0001 336.1 92.1001 335 92.1001 333.9C92.1001 302.9 92.1001 271.8 92.1001 240.8C92.1001 239.7 92.1001 238.6 92.1001 237.5C92.1001 235.9 91.2001 235.1 89.7001 235.1C84.3001 235.1 78.9001 235 73.4002 235.1C71.5001 235.1 70.6002 236.4 69.9002 238C65.0001 249.1 60.0001 260.2 55.0001 271.3C47.9002 287.3 40.7001 303.2 33.6001 319.2C33.1001 320.4 32.7001 321.9 31.0001 322.3C23.2001 312.3 18.2001 301.1 15.9001 288.7C12.8001 271.7 14.5001 255.2 22.0001 239.5C29.6001 223.6 42.2001 212.8 58.4002 206.2C72.9002 200.3 88.1001 198.5 103.5 199.5C120.3 200.6 136.7 204.4 152.9 209C155.5 209.7 158.1 210.5 160.7 211.2C162.5 211.7 163.1 211.1 162.7 209.2C160.4 200.2 158.5 191.1 157.2 181.9C156.6 177.8 156 173.8 155.7 169.7C155.1 160.8 155 152 156.1 143C157.4 132.5 160.1 122.6 164.9 113.2C173.3 97.0999 186.3 85.9999 202.8 78.6999C215.1 73.2999 227.9 71.1999 241.2 72.0999C253 72.8999 264 76.4999 274.3 82.0999C280.4 85.3999 286.1 89.2999 291.3 93.8999C290.7 96.7999 288 97.7999 286.1 99.3999C276.3 108.1 266.4 116.8 257.2 126.1C256.1 127.2 255.2 128.7 253.3 128.6C252.4 128.5 251.7 127.9 251.1 127.3C241.4 118.7 231.5 110.4 222.2 101.4C220.4 99.6999 218.9 97.6999 217.2 95.6999C217 96.9999 217.9 98.3999 216.7 99.3999C216.5 99.4999 216.2 99.5999 215.9 99.6999C212.8 99.2999 209.8 99.5999 207.2 99.2999C208.1 99.2999 209.3 99.3999 210 100.9C208.7 102.3 207 101.7 205.5 101.9C206.7 102.4 209.1 101.5 209.2 103.2C209.3 104.6 206.9 104.2 205.7 104.9C206.9 105.2 208.6 104.6 209.3 105.9C209.7 106.7 208.4 106.9 207.5 107.3C210.8 107.4 213.7 107.2 216.5 108.4C217.2 111 218.8 113 220.4 115C228.6 125.8 236.9 136.5 245.3 147C249 151.6 253.4 152.6 258.6 151.6C266.5 150.2 273.7 146.7 280.6 143C286.9 139.6 293.1 135.7 299 131.6C300.4 131.2 301.6 129.1 303.3 131C304.2 133.9 303.2 136.8 303 139.7C302.2 150.5 301.2 161.3 300.3 172.1C299.4 182.9 298.5 193.7 297.7 204.5C297.1 212.3 296.3 220.1 295.8 227.9C295.5 232.5 295.5 232.5 299.8 234C301.5 236.6 300.2 239.4 300.1 242.1C299.9 251.2 299.1 260.3 298.5 269.4C298.1 276.9 297.5 284.4 297.1 291.9C296.8 297.5 296.2 303.1 296.4 308.7C296.5 312.6 296.8 316.5 297.6 320.3C302 341 306 361.8 310.1 382.6C310.6 385 311.3 387.1 314 387.6C315.9 391.1 315.3 394.5 312.4 396.9C310.3 398.6 308 400 305.7 401.6C311.5 402 317.1 401.2 322.7 402C323 402.1 298.5 402.6 296.2 402.6C287.3 402.5 278.4 402.5 269.5 402.5C268.7 401.5 268.8 400.2 268.8 399C268.8 389.9 268.8 380.7 268.8 371.6C268.8 367.3 269.4 366.8 273.7 366.7C275.6 366.7 277.5 366.7 279.4 366.7C281.1 366.7 282 365.9 282 364.2C282 357.5 282 350.7 282 344C282 342.2 281.1 341.5 279.4 341.4C277 341.4 274.6 341.4 272.2 341.3C270 341.2 268.9 340.1 268.8 337.9C268.8 336.6 268.8 335.3 268.8 334C268.8 303.2 268.8 272.4 268.8 241.5C268.8 240.5 268.7 239.5 268.8 238.5C268.9 236.2 268 235.2 265.6 235.2C260.7 235.2 255.8 235.3 250.8 235.2C247.9 235.1 246.8 237.1 245.9 239.3C241.7 249 237.3 258.5 233 268.2C222.3 292.2 211.5 316.2 200.8 340.2C200 342.1 199.4 343.9 199.4 346C199.4 351.6 199.4 357.2 199.4 362.9C199.4 366.4 199.7 366.7 203.2 366.7C215 366.7 226.9 366.7 238.7 366.7C239.8 366.7 240.9 366.7 242 366.7C245.6 366.8 246.3 367.4 246.3 371C246.4 377.4 246.3 383.9 246.3 390.3C246.3 393.2 246.3 396.1 246.3 399C246.6 400 246.8 401.3 245.9 402.3Z" fill="#E3E7EB"/>
<path d="M149.4 402.3C134 398.9 127.1 387.4 122.3 373.9C118.7 363.8 117.2 353.3 116.2 342.7C115 329 114.8 315.2 115.6 301.5C116.6 285.4 118.1 269.5 125.1 254.6C128.7 246.9 133.8 240.3 141.8 236.8C154.6 231.2 168.8 234.9 177.4 246.1C184.7 255.5 188.1 266.5 190.1 277.9C194.4 302.2 194.3 326.6 191.6 351.1C190.4 361.9 188.2 372.5 183.4 382.4C179 391.5 172.8 398.7 162.5 401.5C161.4 401.8 160.4 402.1 159.3 402.4C156.1 402.3 152.8 402.3 149.4 402.3Z" fill="#EC1C24"/>
<path d="M245.9 402.3C245.9 391.7 245.9 381 246 370.4C246 368.1 245.2 367.6 243.1 367.6C229.5 367.7 216 367.5 202.4 367.7C199.2 367.7 198.4 366.8 198.7 363.8C198.9 361.1 199 358.4 198.7 355.7C197.9 347.2 200.1 339.5 203.6 331.7C217.9 300.4 231.8 269 245.8 237.5C246.9 235 248.2 234.1 250.9 234.2C256 234.4 261.1 234.4 266.3 234.2C269 234.1 269.7 234.9 269.7 237.5C269.6 260.1 269.6 282.7 269.6 305.3C269.6 315.9 269.7 326.6 269.6 337.2C269.6 339.5 270.2 340.2 272.5 340.1C275.3 339.9 278.1 340.1 280.9 340C282.5 340 283.3 340.3 283.3 342.1C283.2 349.8 283.2 357.6 283.3 365.3C283.3 367.1 282.6 367.5 281 367.5C278.2 367.4 275.4 367.6 272.6 367.4C270.4 367.3 269.6 367.9 269.7 370.2C269.8 380.8 269.8 391.5 269.8 402.1C261.8 402.6 253.9 402.6 245.9 402.3Z" fill="#EC1C24"/>
<path d="M31.3002 322.3C36.3002 311.4 41.3002 300.4 46.2002 289.5C54.1002 271.9 61.9002 254.4 69.7002 236.8C70.5002 235 71.5002 234.3 73.5002 234.3C79.0002 234.5 84.5002 234.5 90.1002 234.3C92.7002 234.2 93.2002 235.1 93.2002 237.5C93.1002 270.4 93.1002 303.4 93.1002 336.3C93.1002 340.2 93.1002 340.2 97.0002 340.2C99.6002 340.2 102.2 340.3 104.8 340.2C106.4 340.1 106.9 340.7 106.9 342.3C106.8 350.1 106.9 358 106.9 365.8C106.9 367.3 106.3 367.7 104.9 367.7C101.8 367.6 98.7002 367.8 95.6002 367.6C93.6002 367.5 93.1002 368.2 93.1002 370.2C93.2002 380.9 93.1002 391.7 93.1002 402.4C85.3002 402.4 77.5002 402.4 69.7002 402.5C68.6002 401.1 68.8002 399.5 68.8002 397.9C68.8002 389.5 68.8002 381.1 68.8002 372.7C68.8002 368.9 68.5002 368.6 64.7002 368.5C63.5002 368.5 62.3002 368.5 61.1002 368.5C48.6002 369 36.1002 367.4 23.6002 367.8C23.1002 367.8 22.6002 367.8 22.2002 367.4C22.2002 360 22.2002 352.5 22.2002 345.1C22.2002 343.6 22.6002 342.4 23.1002 341.1C25.9002 334.8 28.6002 328.5 31.3002 322.3Z" fill="#EC1C24"/>
<path d="M387.4 242C396.9 242.6 406.4 242.7 415.5 245.9C426.2 249.6 432.9 259.2 433.3 270.6C433.7 283.1 429.2 293.9 422.8 304.2C418 311.9 412.6 319.1 408.4 327.1C401.8 339.4 399 352.4 403 366.2C404.7 371.9 408.4 375.6 414.5 376.8C418.2 377.5 421.9 378.5 425.1 380.8C430 384.2 431.7 388.6 430 394C428.5 398.9 423.7 402.6 418.5 402.6C405.4 402.7 392.2 402.6 379.1 402.6C377.9 402.6 376.7 402.7 375.5 402.7C375.4 402.6 375.2 402.4 375.1 402.3C374.2 397.5 374 392.8 375.2 388C376.9 387 377.5 385.5 377.8 383.6C378.3 379.3 378.4 375 378.6 370.7C379.6 353.9 380.6 337.1 381.6 320.3C382.3 308.3 383 296.3 383.6 284.3C384.3 271.1 385.1 257.9 386 244.7C386 244 386.1 243.3 386.5 242.7C386.6 242 387 241.9 387.4 242Z" fill="#E3E7EB"/>
<path d="M339.8 234.3C343.4 234.3 347 234.3 350.6 234.3C352.3 236.7 351 239.7 351.9 242.2C352.8 254.4 353.7 266.6 354.6 278.8C355.5 290.7 356.4 302.6 357.3 314.5C358 323.9 358.7 333.3 359.4 342.7C360.3 354.6 361.1 366.5 362.1 378.4C362.2 379.8 362.4 381.2 362.3 382.6C362.1 385.3 363 387.1 365.9 387.5C367.7 390.3 367 394.8 364.3 396.8C363.3 397.6 362.2 398.3 361.1 399C360.1 399.7 358.9 400.3 357.9 401.6C362.6 401.6 367 401.6 371.5 401.6C372.8 401.6 374.1 401.4 375.2 402.3C375.2 402.3 342.1 402 327.2 402.4C326 402.4 324.8 402.5 323.6 402.5L323.4 402.3C322.1 400.8 322.5 398.9 322.5 397.2C322.6 394.2 321.9 391.1 323.1 388.1C325.1 386.9 325.7 385.1 325.6 382.8C324.7 368.7 324.7 354.5 323.9 340.4C322.9 322.7 322.9 305.2 327.5 287.8C331.4 273.1 334 258 337.3 243.1C338.4 240.2 337.8 236.9 339.8 234.3Z" fill="#E3E7EB"/>
<path d="M300 234.3C299.9 236.9 299.8 239.5 299.6 242C299.1 249.2 298.6 256.4 298.2 263.6C297.4 275.4 296.6 287.2 296 299C295.6 305.5 295.3 312 296.6 318.5C301 340.3 305.4 362.1 309.7 383.9C310.3 386.8 311.3 388.4 314.4 387.9C317.4 389.3 320.5 389.3 323.6 387.9C326.1 388.2 326.7 387 326.6 384.6C325.8 364.3 325 343.9 324.3 323.6C324.1 318.9 323.8 314.2 324.5 309.5C326.3 296.3 329.8 283.4 332.4 270.3C334.2 261.1 336.2 251.9 338.1 242.7C339.1 240 339.4 237.2 339.9 234.3C326.6 234.3 313.3 234.3 300 234.3Z" fill="#8DB300"/>
<path d="M314.4 388C317.5 388 320.5 388 323.6 388C323.6 392.8 323.5 397.6 323.5 402.4C317.1 402.4 310.7 402.4 303.9 402.4C305.6 400.4 307.6 399.1 309.6 398.1C314.2 396 314.8 392.3 314.4 388Z" fill="#3A3B39"/>
<path d="M139.101 317.7C139.601 304.3 139.301 290.2 142.701 276.4C143.501 273 144.601 269.6 146.701 266.7C150.901 260.8 157.801 260.8 161.901 266.8C165.201 271.6 166.501 277.1 167.201 282.6C170.401 307.5 170.601 332.4 166.701 357.3C166.101 361.2 165.001 364.9 163.101 368.4C161.201 371.9 158.601 374.7 154.301 374.7C149.901 374.7 147.401 372 145.501 368.4C142.701 363.1 141.801 357.2 141.001 351.3C139.501 340.3 139.401 329.3 139.101 317.7Z" fill="#E3E7EB"/>
<path d="M247.1 276.5C246.9 280.8 246.6 284.8 246.5 288.7C246.1 304.8 245.8 320.8 246 336.9C246 339.3 245.5 340.2 242.9 340.2C236.3 340 229.6 340 223 340.2C220.3 340.3 220.3 339.5 221.2 337.3C227.6 323.2 233.9 309.2 240 295C242.2 289.9 243.7 284.4 245.5 279.1C245.9 278.3 245.8 277.3 247.1 276.5Z" fill="#E3E7EB"/>
<path d="M70.6004 276.5C69.4004 297.3 69.7004 317.5 69.7004 337.8C69.7004 339.6 69.1004 340.2 67.3004 340.2C60.3004 340.1 53.3004 340.1 46.2004 340.2C43.9004 340.2 43.7004 339.6 44.6004 337.7C50.0004 325.9 55.3004 313.9 60.7004 302.1C64.1004 294.7 66.7004 287 69.1004 279.3C69.3004 278.4 69.3004 277.5 70.6004 276.5Z" fill="#E3E7EB"/>
<path d="M350.601 234.3C350.901 236.9 350.201 239.5 351.101 242.1C352.101 256.3 353.201 270.5 354.201 284.7C355.301 299.5 356.301 314.3 357.401 329.1C358.701 347.2 360.201 365.3 361.501 383.3C361.801 387.7 361.701 387.8 366.201 388C369.301 389.4 372.301 389.4 375.401 388C376.901 387.8 378.401 388.3 378.601 385.7C379.701 365.7 380.901 345.7 382.101 325.6C382.801 314.6 383.401 303.6 384.001 292.6C385.001 275.8 386.001 259 386.901 242.1C387.101 242.1 387.201 242 387.401 242C387.401 239.4 387.401 236.9 387.401 234.3C375.101 234.3 362.901 234.3 350.601 234.3Z" fill="#8DB300"/>
<path d="M366.2 388C369.3 388 372.3 388 375.4 388C375.4 392.8 375.4 397.6 375.3 402.3C368.8 402.3 362.4 402.3 355 402.3C357.9 400.3 359.9 398.6 362.2 397.4C365 395.9 366.3 393.8 366.1 390.7C366.1 389.8 366.1 388.9 366.2 388Z" fill="#3A3B39"/>
<path d="M216.7 93.5998C214.9 91.7998 217.8 97.3998 216.8 99.0998C213 98.0998 206.8 98.3998 205.4 98.9998C204 99.5998 208.2 100.1 209.9 100.7C207.5 101.4 205.2 100.3 203 101.6C204.8 103.4 207.1 102.4 209.6 103.2C207.6 103.6 206.3 103.8 204.9 104C204.3 104.1 203.7 104.2 203.8 105.1C203.9 105.7 204.5 105.8 205 105.8C206.3 105.8 207.7 105.8 209.9 105.8C208 106.7 203.7 108 205.6 108.3C207.6 108.5 213.2 108.4 216.9 108.9C218.9 106.3 220.9 103.6 222.9 101C220.8 98.5998 218.5 95.3998 216.7 93.5998ZM215.3 101.7C215.4 101.7 215.4 101.7 215.3 101.7C215.4 101.7 215.4 101.7 215.3 101.7Z" fill="#F8B5A7"/>
<path d="M447.8 53.8999C447 50.3999 444.6 48.1999 441.9 46.1999C438.2 43.4999 434.1 41.6999 429.8 40.2999C413.3 34.6999 396.2 32.3999 378.9 30.6999C378.1 30.5999 377.5 30.7999 377.1 31.4999C375.6 33.4999 374.8 35.6999 375.2 38.2999C375.6 39.4999 373.1 41.3999 376.1 42.0999C390.9 45.5999 405.7 49.1999 420.5 52.6999C421.1 52.8999 421.7 53.0999 422.3 53.1999C422.7 53.2999 423 53.2999 423.4 53.3999C423.3 54.8999 422.1 54.3999 421.4 54.5999C405.5 57.5999 389.5 60.4999 373.5 63.4999C368 64.4999 368 64.4999 368.2 69.8999C368.7 81.7999 361.2 91.5999 349.6 94.2999C337.4 97.0999 326.3 91.5999 321.5 80.2999C320.7 78.4999 320.2 76.5999 319.5 74.5999C314.9 76.5999 310.9 79.1999 307 81.9999C301.8 85.8999 296.6 89.8999 291.5 93.7999C278.9 104.8 266.4 115.9 254.4 127.7C254.1 128 253.7 128.1 253.4 128.2C252.8 127.7 252.2 127.3 251.6 126.8C241.9 118.2 232.2 109.5 222.6 100.9C219.8 103 217.8 105.6 216.6 108.8C215.6 110 216.3 110.9 217.1 112C226.2 124.1 235.5 136.1 245 147.9C248.7 152.5 253.1 153.4 258.4 152.6C260.4 152.3 262.3 151.8 264.2 151.1C277 146.9 288.4 140 299.3 132.3C300.5 131.7 301.7 131.1 302.8 130.5C302.8 131.7 302.8 132.9 302.7 134.1C301.6 147.2 300.4 160.2 299.3 173.3C297.8 191.6 296.4 210 294.9 228.3C294.4 233.9 294.4 233.9 299.8 234.2C300.7 235 301.8 235 302.9 235C315.1 235 327.3 235.1 339.5 234.9C343.2 235 346.9 235 350.6 234.9C361.8 235.1 372.9 235 384.1 235C385.2 235 386.3 234.9 387.2 234.2C388.6 234.2 390 234 391.4 234.1C394 234.4 394.5 233.4 394.5 231C394.5 218.9 394.8 206.7 394.9 194.6C395.2 164.6 395.5 134.6 395.8 104.5C395.8 102.1 396.1 99.6999 396.2 97.2999C397.3 96.8999 398.4 96.3999 399.2 95.4999C402 93.8999 404.8 92.2999 407.5 90.6999C418 84.3999 428.7 78.3999 438.3 70.7999C442.7 67.2999 446.6 63.3999 447.5 57.5999H447.8L448 57.4999C448 56.2999 448 55.0999 448 53.8999C448.1 53.8999 448 53.8999 447.8 53.8999Z" fill="#004A76"/>
<path d="M370.3 29.6996C365.9 28.0996 364.6 28.3996 361.5 32.2996C363 32.5996 364.2 31.8996 365.5 31.1996C366.4 30.6996 367.2 30.8996 367.9 31.4996C369 32.3996 367.9 32.9996 367.5 33.3996C365.1 35.9996 367.2 38.0996 368.5 39.6996C369.8 41.2996 371.7 39.8996 373 38.6996C373.7 37.9996 374.5 38.2996 375.3 38.2996C375.9 35.9996 376.5 33.7996 377.2 31.4996C374.8 30.8996 372.5 30.4996 370.3 29.6996Z" fill="#F8B5A7"/>
<path d="M340.1 20.7998C340.1 20.7998 335.9 21.4998 334.8 25.9998C333.7 30.4998 330.9 43.5998 330.7 46.7998C330.5 49.9998 331.4 54.2998 335.4 55.4998C336.4 55.7998 335.6 68.0998 335.6 68.0998C335.6 68.0998 327.3 72.3998 324.6 72.9998C324.1 73.0998 324.5 85.1998 338.8 88.2998C347.9 90.2998 354.7 87.8998 357.4 84.7998C365.2 76.0998 363 66.4998 363 66.4998C363 66.4998 352.3 69.3998 352 66.5998C351.2 58.8998 354.3 47.7998 354.3 47.7998L354.2 31.7998L353 20.6998L343.9 17.7998L340.1 20.7998Z" fill="#F8B5A7"/>
<path d="M336.8 21.0998C334.3 19.0998 333.3 16.4998 333.6 12.8998C333.9 8.89979 335.8 6.19979 339.6 5.09979C345 4.09979 346.7 9.49979 347.1 12.4998C347.3 13.8998 347.8 14.4998 349.1 14.9998C352.6 16.3998 356.1 17.9998 355.4 22.8998C355.3 23.4998 355.7 23.7998 356.1 24.0998C358.4 25.6998 358.9 28.0998 358.7 30.5998C358.1 37.0998 356.3 43.1998 354 49.1998C352.8 49.7998 351.7 49.6998 350.9 48.5998C350.1 47.3998 351.2 46.5998 351.8 45.7998C352.1 45.3998 352.5 45.0998 352.8 44.6998C353.3 44.0998 353.8 43.3998 353.5 42.5998C352.9 40.7998 351.4 41.7998 350.7 41.9998C347.5 43.5998 347.7 44.7998 347.9 40.1998C348.4 34.9998 347.5 29.5998 350.9 24.6998C348.3 24.1998 345.9 24.3998 343.6 23.7998C341.5 23.1998 339.4 23.0998 336.8 21.0998Z" fill="#F4A200"/>
<path d="M335.5 55.3999C337.2 55.8999 339.1 56.5999 341.4 56.9999C339.2 57.7999 337.3 58.2999 335.8 57.7999C335.9 57.1999 335.7 56.1999 335.5 55.3999Z" fill="#DD968A"/>
<path d="M334.3 32.1997C335.1 31.8997 335.8 32.2997 336 32.8997C336.3 33.5997 336 34.2997 335.2 34.5997C334.5 34.7997 334 34.4997 333.7 33.8997C333.4 33.1997 333.6 32.5997 334.3 32.1997Z" fill="#484441"/>
<path d="M337.2 30.9998C337.1 30.9998 337 30.8998 336.9 30.7998C336.9 30.7998 336.3 29.9998 335.5 29.8998C334.4 29.6998 333.5 30.4998 333.5 30.4998C333.4 30.5998 333.1 30.5998 333 30.4998C332.9 30.3998 332.9 30.0998 333 29.9998C333 29.9998 334.2 28.8998 335.7 29.1998C336.8 29.4998 337.5 30.3998 337.5 30.3998C337.6 30.5998 337.6 30.7998 337.4 30.8998C337.4 30.8998 337.3 30.9998 337.2 30.9998Z" fill="#484441"/>
<path d="M343.1 33.8C344 33.6 344.5 34 344.7 34.7C344.9 35.4 344.6 36.1 343.7 36.3C343 36.5 342.5 36.1 342.3 35.5C342.1 34.7 342.4 34.1 343.1 33.8Z" fill="#484441"/>
<path d="M346.2 32.8998C346.1 32.8998 345.9 32.7998 345.9 32.6998C345.9 32.6998 345.4 31.8998 344.6 31.5998C343.6 31.1998 342.5 31.9998 342.5 31.9998C342.3 32.0998 342.1 32.0998 342 31.8998C341.9 31.6998 341.9 31.4998 342.1 31.3998C342.2 31.3998 343.5 30.3998 344.9 30.8998C346 31.2998 346.6 32.2998 346.6 32.2998C346.7 32.4998 346.6 32.6998 346.5 32.7998C346.3 32.8998 346.3 32.8998 346.2 32.8998Z" fill="#484441"/>
<path d="M350 44.9996C349.8 44.9996 349.6 44.8996 349.6 44.6996C349.5 44.4996 349.6 44.1996 349.9 44.0996C349.9 44.0996 350.8 43.6996 351.5 42.9996C351.7 42.7996 352 42.7996 352.2 42.9996C352.4 43.1996 352.4 43.4996 352.2 43.6996C351.3 44.4996 350.3 44.9996 350.3 44.9996C350.1 44.8996 350.1 44.9996 350 44.9996Z" fill="#D95F73"/>
<path d="M336.1 49.4998C335.9 49.4998 335.7 49.4998 335.5 49.3998C334 49.0998 333.2 47.7998 333.2 47.7998C333.1 47.5998 333.1 47.2998 333.4 47.0998C333.6 46.9998 333.9 46.9998 334.1 47.2998C334.1 47.2998 334.7 48.2998 335.7 48.4998C336.8 48.6998 337.8 48.0998 337.8 48.0998C338 47.9998 338.3 47.9998 338.5 48.2998C338.6 48.4998 338.6 48.7998 338.3 48.9998C338.3 48.8998 337.3 49.4998 336.1 49.4998Z" fill="#D95F73"/>
<path d="M335.6 43.6998C335.5 43.6998 335.5 43.6998 335.6 43.6998C335.4 43.6998 335.3 43.5998 335.2 43.5998C334.7 43.4998 334.3 43.3998 334 42.9998C333.9 42.6998 333.9 42.4998 334 42.0998C334.3 41.1998 336.5 36.0998 336.6 35.7998C336.7 35.5998 336.9 35.4998 337.1 35.5998C337.3 35.6998 337.4 35.8998 337.3 36.0998C337.3 36.1998 335.1 41.3998 334.7 42.2998C334.6 42.3998 334.6 42.5998 334.7 42.5998C334.8 42.6998 335.1 42.7998 335.4 42.8998C335.5 42.8998 335.6 42.9998 335.7 42.9998C335.9 43.0998 336 43.2998 336 43.4998C335.9 43.5998 335.7 43.6998 335.6 43.6998Z" fill="#484441"/>
</svg>
