<svg width="145" height="50" viewBox="0 0 145 50" fill="none" xmlns="http://www.w3.org/2000/svg">
<path d="M144.044 0H48.9307V50H144.044V0Z" fill="#8EB400"/>
<path d="M48.9751 0H0V50H48.9751V0Z" fill="#F5A300"/>
<path d="M33.4184 23.5007C33.4184 23.7212 33.4627 23.9858 33.4627 24.2062C33.4627 26.6754 32.4433 28.8799 30.8478 30.5113C29.2079 32.1427 26.9918 33.1127 24.5098 33.1127C22.0278 33.1127 19.8118 32.0986 18.1719 30.5113C17.6843 30.0263 17.2411 29.4531 16.8422 28.8358C16.0445 28.924 15.2024 28.9681 14.3602 29.0563C14.9364 30.2027 15.6456 31.2168 16.532 32.1427C18.5708 34.1709 21.4073 35.4496 24.5098 35.4055C27.6123 35.4055 30.4489 34.1269 32.4877 32.1427C34.5265 30.1145 35.8118 27.2926 35.7675 24.2062C35.7675 23.7212 35.7231 23.2803 35.6788 22.7953C36.7868 22.4425 37.8062 22.0898 38.7813 21.7371L40.953 20.8993C40.2882 17.6366 38.6483 14.6824 36.3436 12.4337C33.3298 9.3914 29.1193 7.53955 24.4655 7.53955C19.8118 7.53955 15.6456 9.3914 12.5874 12.4337C9.57354 15.432 7.66772 19.6207 7.66772 24.2062C7.66772 24.7794 7.71205 25.3526 7.75637 25.9258C8.19958 30.1586 10.194 33.9064 13.1636 36.596C16.1331 39.2856 20.122 40.917 24.4655 40.917C29.1193 40.917 33.2855 39.0651 36.3436 36.0228C39.4018 33.0246 41.2633 28.8358 41.2633 24.2062C41.2633 24.1621 41.2633 24.118 41.2633 24.0739C40.5098 24.3385 39.7564 24.603 38.9586 24.8676C38.7813 28.6154 37.2301 31.9664 34.7481 34.4355C32.1331 37.0369 28.4988 38.6683 24.5098 38.6683C20.7425 38.6683 17.3298 37.2574 14.7591 34.9205C12.4101 32.8041 10.7702 29.9381 10.2384 26.6754C15.9558 26.6313 20.5652 26.2344 24.7314 25.529C27.7453 24.9999 30.6262 24.3385 33.2411 23.5889C33.2855 23.5448 33.3298 23.5448 33.4184 23.5007ZM15.5126 24.2062C15.5126 21.7371 16.532 19.5325 18.1276 17.9011C19.7675 16.2697 21.9835 15.2997 24.4655 15.2997C26.9475 15.2997 29.1636 16.3138 30.8035 17.9011C31.0694 18.1657 31.3353 18.4302 31.5569 18.7388C32.3547 18.4743 33.1082 18.2538 33.8616 17.9893C33.4627 17.372 32.9752 16.7988 32.4433 16.2697C30.4046 14.2415 27.568 12.9628 24.4655 12.9628C21.363 12.9628 18.5265 14.2415 16.4877 16.2697C14.4489 18.2979 13.1636 21.1198 13.1636 24.2062C13.1636 24.2503 13.1636 24.2503 13.1636 24.2944C12.1442 24.3385 11.0805 24.3385 9.92811 24.3385C9.92811 24.2944 9.92811 24.2503 9.92811 24.2062C9.92811 20.238 11.568 16.6224 14.183 14.021C16.7979 11.4196 20.4323 9.78823 24.4212 9.78823C28.4101 9.78823 32.0445 11.4196 34.6594 14.021C36.2107 15.5642 37.4073 17.4161 38.1165 19.5325C36.5209 20.1498 34.6151 20.7671 32.4877 21.3403C29.917 22.0457 27.1248 22.7071 24.1996 23.2362C21.6289 23.7212 18.7924 24.0299 15.5126 24.2062Z" fill="black"/>
<path d="M61.9612 22.3106C60.0554 22.3106 58.6371 21.8697 57.7064 21.0319C56.7756 20.1942 56.2881 19.0919 56.1995 17.7691H57.928C58.0166 18.7832 58.4598 19.4887 59.169 19.9737C59.9224 20.4587 60.8089 20.6792 61.8726 20.6792C62.892 20.6792 63.6898 20.4587 64.2659 20.0619C64.8864 19.6651 65.1967 19.0919 65.1967 18.3864C65.1967 17.6368 64.8864 17.1077 64.2659 16.755C63.6454 16.4023 62.5374 16.0936 60.9862 15.7409C59.4349 15.4323 58.3269 14.9473 57.6621 14.3741C56.9972 13.8009 56.6427 13.0072 56.6427 12.0813C56.6427 10.979 57.0859 10.0972 57.9723 9.3917C58.8587 8.68623 60.0111 8.3335 61.4737 8.3335C62.9806 8.3335 64.2216 8.68623 65.1524 9.3917C66.0831 10.0972 66.5706 11.0672 66.615 12.3458H64.8864C64.7091 10.7144 63.6011 9.9208 61.518 9.9208C60.5429 9.9208 59.7452 10.0972 59.2133 10.494C58.6815 10.8467 58.4155 11.3758 58.4155 11.9931C58.4155 12.5663 58.6371 12.9631 59.0803 13.2718C59.5236 13.5363 60.3213 13.845 61.518 14.0654C62.7147 14.33 63.6898 14.5945 64.3546 14.8591C65.0637 15.1236 65.6842 15.5204 66.1718 16.0495C66.6593 16.5786 66.9252 17.3282 66.9252 18.21C66.9252 19.3564 66.482 20.3264 65.5513 21.076C64.6205 21.9137 63.4238 22.3106 61.9612 22.3106Z" fill="black"/>
<path d="M82.2161 22.0902H80.4875V15.7851C80.4875 14.9914 80.3546 14.4183 80.133 14.0655C79.9114 13.7128 79.5125 13.5364 78.9806 13.5364C78.1385 13.5364 77.2964 14.0655 76.4986 15.0796V22.0461H74.7701V15.7851C74.7701 14.9914 74.6371 14.4183 74.4155 14.0655C74.1939 13.7128 73.795 13.5364 73.2188 13.5364C72.3767 13.5364 71.5789 14.0655 70.7368 15.0796V22.0461H69.0083V12.3459H70.7368V13.5805C71.5789 12.6105 72.4654 12.1255 73.4848 12.1255C74.903 12.1255 75.8338 12.6987 76.2327 13.8892C76.8975 13.1396 77.4294 12.6546 77.8726 12.4341C78.3158 12.2137 78.759 12.1255 79.2022 12.1255C81.1967 12.1255 82.2161 13.316 82.2161 15.6969V22.0902Z" fill="black"/>
<path d="M91.0803 21.0761C90.1939 21.9138 89.0416 22.3107 87.6676 22.3107C86.6925 22.3107 85.8947 22.0461 85.2742 21.517C84.6538 20.9879 84.3435 20.3265 84.3435 19.4888C84.3435 17.2401 86.2936 16.0937 90.2382 16.0937H91.0803C91.0803 15.3883 91.036 14.9033 90.9917 14.5946C90.9031 14.286 90.7258 14.0214 90.3712 13.801C90.0166 13.5805 89.4848 13.4923 88.7756 13.4923C87.2244 13.4923 86.4266 14.0214 86.3823 15.1237H84.6538C84.7867 13.1396 86.205 12.1255 88.8643 12.1255C90.1053 12.1255 91.0803 12.39 91.7895 12.875C92.4986 13.3601 92.8532 14.3301 92.8532 15.7851V22.0461H91.1247V21.0761H91.0803ZM91.0803 19.5329V17.3724H89.8837C87.3574 17.3724 86.1164 18.0338 86.1164 19.4006C86.1164 19.8856 86.2936 20.2825 86.6482 20.547C87.0028 20.8116 87.4903 20.9438 88.1551 20.9438C88.7313 20.9438 89.2632 20.8116 89.795 20.547C90.3269 20.3265 90.7701 19.9738 91.0803 19.5329Z" fill="black"/>
<path d="M100.388 13.9331C100.122 13.8449 99.8118 13.8449 99.3242 13.8449C98.4378 13.8449 97.6844 14.2858 97.0639 15.2118V22.0901H95.291V12.3899H97.0195V13.7567C97.7287 12.6985 98.6151 12.1694 99.5459 12.1694C99.8118 12.1694 100.033 12.2135 100.344 12.2576V13.9331H100.388Z" fill="black"/>
<path d="M105.529 22.0902C105.13 22.1784 104.731 22.1784 104.288 22.1784C103.579 22.1784 103.047 22.0461 102.737 21.7816C102.427 21.517 102.205 21.2084 102.116 20.8116C102.028 20.4147 101.983 19.8856 101.983 19.1802V13.7128H100.787V12.3459H101.983V9.9209H103.712V12.3459H105.307V13.7128H103.712V19.3124C103.712 19.9738 103.8 20.4147 103.978 20.5911C104.155 20.7675 104.377 20.8556 104.687 20.8556C104.997 20.8556 105.263 20.8116 105.573 20.7675V22.0902H105.529Z" fill="black"/>
<path d="M66.9252 40.0793H56.8643V26.6313H66.6149V28.2186H58.6814V32.3192H66.1274V33.9506H58.6814V38.492H66.9252V40.0793Z" fill="black"/>
<path d="M75.2132 38.8888C74.4597 39.8148 73.529 40.2998 72.4209 40.2998C71.1356 40.2998 70.1605 39.8589 69.4514 38.9329C68.7423 38.0511 68.3877 36.8165 68.3877 35.2733C68.3877 33.686 68.7866 32.4515 69.54 31.5255C70.3378 30.5996 71.3129 30.1587 72.4653 30.1587C73.529 30.1587 74.4154 30.4673 75.1245 31.1287V26.6313H76.8531V40.0352H75.1245V38.8888H75.2132ZM75.2132 37.2575V32.6719C74.4597 31.8783 73.6176 31.4814 72.6425 31.4814C71.8891 31.4814 71.3129 31.7901 70.8697 32.4515C70.4265 33.0687 70.2049 34.0388 70.2049 35.3174C70.2049 36.5079 70.4265 37.4338 70.8254 38.0511C71.2243 38.6684 71.8448 38.977 72.5539 38.977C73.529 38.9329 74.4154 38.3597 75.2132 37.2575Z" fill="black"/>
<path d="M85.6288 38.8006C84.7867 39.7706 83.8116 40.2556 82.7036 40.2556C80.4875 40.2556 79.4238 39.0651 79.4238 36.6842V30.335H81.1524V36.596C81.1524 37.3896 81.2853 37.9628 81.5956 38.3156C81.8615 38.6683 82.349 38.8447 83.0139 38.8447C83.9889 38.8447 84.8754 38.3156 85.6731 37.3014V30.335H87.4017V40.0351H85.6731V38.8006H85.6288Z" fill="black"/>
<path d="M93.8283 40.2998C92.4543 40.2998 91.3463 39.8589 90.5042 38.977C89.6621 38.0952 89.2632 36.8606 89.2632 35.2292C89.2632 33.5978 89.6621 32.3633 90.5042 31.4814C91.3463 30.5996 92.4543 30.1587 93.8283 30.1587C94.892 30.1587 95.7784 30.4232 96.4876 30.9523C97.1967 31.4814 97.6399 32.2751 97.7729 33.2892H96C95.9557 32.716 95.7784 32.2751 95.3352 31.9665C94.9363 31.6578 94.4045 31.5255 93.8283 31.5255C92.9862 31.5255 92.3214 31.8342 91.8338 32.4515C91.302 33.0687 91.0804 33.9947 91.0804 35.2292C91.0804 36.4638 91.3463 37.3897 91.8338 38.007C92.3657 38.6243 93.0305 38.9329 93.8283 38.9329C94.4045 38.9329 94.892 38.8007 95.3352 38.492C95.7341 38.1834 95.9557 37.7425 96 37.1693H97.7729C97.6399 38.1834 97.241 38.977 96.4876 39.5061C95.7784 40.0352 94.892 40.2998 93.8283 40.2998Z" fill="black"/>
<path d="M105.44 39.0654C104.554 39.9031 103.402 40.2999 102.028 40.2999C101.053 40.2999 100.255 40.0354 99.6344 39.5063C99.0139 38.9772 98.7036 38.3158 98.7036 37.4781C98.7036 35.2294 100.654 34.083 104.598 34.083H105.44C105.44 33.3775 105.396 32.8925 105.352 32.5839C105.263 32.2752 105.086 32.0107 104.731 31.7902C104.377 31.5698 103.845 31.4816 103.136 31.4816C101.585 31.4816 100.787 32.0107 100.742 33.113H99.0139C99.1468 31.1289 100.565 30.1147 103.224 30.1147C104.465 30.1147 105.44 30.3793 106.15 30.8643C106.859 31.3493 107.213 32.3193 107.213 33.7744V40.0354H105.485V39.0654H105.44ZM105.44 37.5222V35.3617H104.244C101.717 35.3617 100.476 36.023 100.476 37.3899C100.476 37.8749 100.654 38.2717 101.008 38.5363C101.363 38.8008 101.895 38.9331 102.515 38.9331C103.091 38.9331 103.623 38.8008 104.155 38.5363C104.731 38.2717 105.13 37.9631 105.44 37.5222Z" fill="black"/>
<path d="M113.463 40.0795C113.064 40.1677 112.665 40.1677 112.222 40.1677C111.512 40.1677 110.981 40.0354 110.67 39.7708C110.36 39.5063 110.139 39.1976 110.05 38.8008C109.961 38.404 109.917 37.8749 109.917 37.1694V31.702H108.72V30.3352H109.917V27.9102H111.645V30.3352H113.241V31.702H111.69V37.3017C111.69 37.9631 111.778 38.404 111.956 38.5804C112.133 38.7567 112.355 38.8449 112.665 38.8449C112.975 38.8449 113.241 38.8008 113.551 38.7567V40.0795H113.463Z" fill="black"/>
<path d="M116.875 28.5271H115.147V26.6753H116.875V28.5271ZM116.875 40.0792H115.147V30.379H116.875V40.0792Z" fill="black"/>
<path d="M123.524 30.1147C124.898 30.1147 126.006 30.5557 126.848 31.4375C127.69 32.3193 128.089 33.5539 128.089 35.1853C128.089 36.8167 127.69 38.0513 126.848 38.9331C126.006 39.8149 124.898 40.2558 123.524 40.2558C122.15 40.2558 121.042 39.8149 120.2 38.9331C119.357 38.0513 118.958 36.8167 118.958 35.1853C118.958 33.5539 119.357 32.3193 120.2 31.4375C121.042 30.5557 122.15 30.1147 123.524 30.1147ZM123.524 38.9331C124.366 38.9331 125.031 38.6244 125.518 38.0072C126.05 37.3899 126.272 36.464 126.272 35.2294C126.272 33.9948 126.006 33.0689 125.518 32.4516C124.986 31.8343 124.321 31.5257 123.524 31.5257C122.681 31.5257 122.017 31.8343 121.529 32.4516C120.997 33.0689 120.776 33.9948 120.776 35.2294C120.776 36.464 121.042 37.3899 121.529 38.0072C122.017 38.6244 122.726 38.9331 123.524 38.9331Z" fill="black"/>
<path d="M131.723 31.5698C132.609 30.5998 133.54 30.1147 134.648 30.1147C136.864 30.1147 137.928 31.3052 137.928 33.6862V40.0354H136.199V33.7744C136.199 32.9807 136.067 32.4075 135.756 32.0548C135.49 31.702 135.003 31.5257 134.338 31.5257C133.452 31.5257 132.565 32.0548 131.679 33.0689V40.0354H129.95V30.3352H131.679V31.5698H131.723Z" fill="black"/>
</svg>
