<svg width="450" height="230" viewBox="0 0 450 230" fill="none" xmlns="http://www.w3.org/2000/svg">
<path d="M433.985 67.9635C433.985 67.9635 438.827 62.8697 444.541 66.3731C450.205 69.8606 447.413 76.3568 440.713 77.5077C434.014 78.6587 425.458 79.2246 425.458 79.2246C425.458 79.2246 421.219 70.7959 420.733 63.8338C420.246 56.8717 424.483 53.5259 429.2 55.4854C433.917 57.445 434.244 61.9927 434.283 64.4638C434.262 66.9632 433.985 67.9635 433.985 67.9635Z" fill="#F5A300"/>
<path d="M431.755 64.6259C432.957 63.3441 432.105 61.1299 430.503 60.1029C429.827 59.2728 428.89 58.6452 427.846 58.9803C426.862 59.2868 426.413 60.3316 426.517 61.3134C426.635 63.2009 429.933 66.5185 431.755 64.6259ZM429.885 61.4263L430.086 61.4897C430.308 61.7021 430.469 61.9428 430.561 62.2564C430.309 61.9396 430.097 61.6829 429.885 61.4263Z" fill="white"/>
<path d="M422.631 18.9037C422.631 18.9037 428.241 7.53035 438.078 10.4549C447.834 13.3795 445.801 26.0527 436.045 31.6582C426.29 37.2636 413.526 42.8691 413.526 42.8691C413.526 42.8691 404.258 30.6833 401.169 18.985C398.08 7.28663 403.364 -0.755974 411.169 0.0564103C418.973 0.868795 421.006 8.50521 421.9 12.7296C422.713 17.0352 422.631 18.9037 422.631 18.9037Z" fill="#EC1C24"/>
<path d="M417.108 14.7603C418.49 11.917 416.458 8.58618 413.694 7.69255C412.393 6.63645 410.767 6.06779 409.304 7.20512C407.922 8.26122 407.597 10.2922 408.084 11.917C408.897 15.0853 414.995 18.9847 417.108 14.7603ZM413.206 10.2922H413.531C413.938 10.5359 414.263 10.8609 414.507 11.3483C414.019 10.9421 413.613 10.6171 413.206 10.2922Z" fill="white"/>
<g clip-path="url(#clip0)">
<path d="M159.037 86.9762C162.043 84.2879 164.279 80.8437 165.512 76.9995C166.746 73.1553 166.933 69.0508 166.054 65.11C165.436 62.0659 164.059 59.2282 162.052 56.8611C160.045 54.4939 157.474 52.6744 154.576 51.5718C152.338 50.6425 149.989 50.009 147.587 49.6872C149.009 46.087 149.146 42.1052 147.975 38.4155C146.805 34.7258 144.399 31.5548 141.164 29.4391C137.123 26.5616 132.276 25.0402 127.319 25.0925C123.006 25.0704 118.726 25.8476 114.694 27.3849C113.609 21.8826 110.583 16.9565 106.17 13.5085C101.757 10.0604 96.2525 8.32123 90.6645 8.60927L90.2518 8.60305C72.5886 8.33677 67.5492 19.5157 66.285 23.9655C60.8168 21.3944 54.8831 19.9675 48.8462 19.7717C43.741 19.6034 38.686 20.8287 34.2214 23.3167C31.2978 24.775 28.7611 26.9079 26.8197 29.5402C24.8784 32.1724 23.5879 35.2289 23.0543 38.4583C22.7679 40.7899 22.8577 43.1524 23.3204 45.4553C19.7571 46.1323 16.4436 47.7649 13.7323 50.1795C11.021 52.5942 9.01342 55.7004 7.92317 59.1677C6.98957 62.6608 6.99724 66.3397 7.9454 69.8288C8.89356 73.3179 10.7483 76.4922 13.3202 79.0279C10.227 80.6207 7.61085 83.0079 5.73902 85.9458C3.86718 88.8836 2.80672 92.2667 2.66595 95.7497C1.96606 106.58 10.6622 112.96 14.7586 115.049C12.8322 117.294 11.6088 120.059 11.2415 122.997C10.8741 125.935 11.3791 128.917 12.6933 131.569C14.2335 134.469 16.4565 136.949 19.1694 138.792C21.8823 140.636 25.0031 141.788 28.2609 142.148C27.7689 144.665 28.1499 149.512 35.6261 154.673C39.8267 157.738 44.8471 159.471 50.0398 159.649C51.1038 159.662 52.1673 159.595 53.2213 159.448C53.6739 161.742 54.6366 163.904 56.0377 165.774C57.4389 167.643 59.2424 169.172 61.3142 170.246C64.5324 172.124 68.1978 173.095 71.9217 173.054C75.9939 173.04 80.0402 172.403 83.921 171.166C89.2335 173.867 95.0726 175.368 101.027 175.562C104.834 175.749 108.619 174.875 111.962 173.037C115.059 171.492 117.788 169.298 119.965 166.604C122.142 163.909 123.716 160.778 124.581 157.421C126.745 158.216 129.027 158.642 131.332 158.681C136.142 158.76 140.808 157.029 144.408 153.83C147.315 151.094 149.488 147.668 150.729 143.869C151.969 140.07 152.236 136.019 151.505 132.089C156.586 131.45 161.29 129.071 164.822 125.354C168.353 121.636 170.494 116.81 170.883 111.692C171.352 106.88 170.496 102.032 168.407 97.6741C166.318 93.3163 163.078 89.6162 159.037 86.9762Z" fill="#8EB400"/>
<path d="M78.6068 50.0131L69.302 209.966L90.2667 210.282L78.6068 50.0131Z" fill="#231F20"/>
<path d="M104.804 59.0978L78.8041 83.3673L79.3729 94.9205L104.804 59.0978Z" fill="#231F20"/>
<path d="M115.086 97.2791L80.6677 126.842L81.8446 144.611L115.086 97.2791Z" fill="#231F20"/>
<path d="M38.1016 100.091L76.8774 140.151L77.8166 127.131L38.1016 100.091Z" fill="#231F20"/>
<path d="M49.4297 65.8765L78.5695 98.9219L78.7335 88.0419L49.4297 65.8765Z" fill="#231F20"/>
<path d="M142.777 111.517C142.743 110.727 142.866 109.938 143.14 109.197C143.413 108.455 143.831 107.775 144.369 107.197C145.452 106.031 146.941 105.328 148.527 105.232C150.053 105.232 151.52 105.817 152.63 106.866L153.159 107.412L154.694 106.856C154.415 106.442 154.088 106.062 153.721 105.724C152.994 105.035 152.135 104.5 151.197 104.152C150.259 103.804 149.26 103.649 148.261 103.697C146.256 103.784 144.365 104.66 142.999 106.134C141.633 107.608 140.9 109.562 140.96 111.573L138.814 111.54C138.761 110.255 138.961 108.971 139.405 107.764C139.848 106.556 140.525 105.448 141.397 104.504C142.267 103.566 143.313 102.811 144.476 102.281C145.639 101.752 146.895 101.459 148.172 101.42C149.455 101.355 150.739 101.55 151.945 101.995C153.152 102.44 154.256 103.125 155.191 104.008C156.268 105.025 157.109 106.267 157.654 107.645C156.575 108.084 155.329 108.562 153.918 109.037C152.508 109.512 150.311 110.1 148.406 110.526C146.501 110.953 144.722 111.174 142.531 111.39L142.777 111.517ZM154.557 110.454L154.55 110.95C154.541 112.478 153.959 113.946 152.919 115.063C151.834 116.236 150.328 116.93 148.733 116.991C147.137 117.052 145.583 116.477 144.411 115.39C144.046 115.077 143.731 114.71 143.478 114.3L141.783 114.482C142.189 115.239 142.724 115.919 143.363 116.492C144.841 117.842 146.782 118.568 148.781 118.518C149.778 118.481 150.758 118.245 151.664 117.826C152.571 117.406 153.385 116.811 154.06 116.074C154.744 115.351 155.276 114.498 155.623 113.564C155.971 112.631 156.127 111.637 156.082 110.642L156.096 109.691C156.843 109.412 157.549 109.175 158.172 108.894L159.626 108.296C158.968 105.566 157.323 103.178 155.009 101.594C152.695 100.011 149.877 99.3453 147.101 99.7259C144.325 100.107 141.789 101.507 139.984 103.655C138.179 105.803 137.233 108.546 137.331 111.353L137.313 112.511C137.745 115.365 139.246 117.947 141.511 119.729C143.777 121.512 146.635 122.361 149.503 122.103C152.372 121.845 155.034 120.501 156.947 118.343C158.86 116.185 159.88 113.377 159.799 110.491L158.264 111.048C158.24 113.491 157.306 115.838 155.646 117.629C154.781 118.576 153.737 119.34 152.573 119.876C151.41 120.413 150.151 120.712 148.871 120.754C146.446 120.843 144.075 120.026 142.218 118.461C140.544 117.061 139.394 115.132 138.957 112.991C142.224 112.91 145.477 112.529 148.675 111.855C150.595 111.455 152.491 110.945 154.353 110.326" fill="#231F20"/>
<path d="M111.972 73.8119C111.937 72.7348 112.323 71.6865 113.048 70.8903C113.788 70.111 114.801 69.6513 115.874 69.6088C116.401 69.5782 116.929 69.6582 117.424 69.8438C117.919 70.0294 118.369 70.3164 118.747 70.6865L119.113 71.0645L120.151 70.6663L119.461 69.9111C118.97 69.4564 118.395 69.1039 117.768 68.8743C117.141 68.6446 116.474 68.5423 115.807 68.5733C114.466 68.6279 113.202 69.2124 112.29 70.1988C111.377 71.1853 110.892 72.4936 110.939 73.8377L109.495 73.816C109.458 72.9553 109.592 72.0959 109.889 71.2877C110.187 70.4795 110.641 69.7386 111.227 69.1082C111.813 68.4778 112.518 67.9705 113.301 67.6158C114.084 67.2611 114.93 67.066 115.789 67.042C116.644 67.001 117.499 67.1326 118.303 67.429C119.107 67.7254 119.843 68.1807 120.468 68.7677C121.171 69.4612 121.734 70.2847 122.124 71.1926C121.376 71.5124 120.546 71.8309 119.592 72.1475C118.381 72.5392 117.149 72.8659 115.903 73.1264C114.543 73.4304 113.159 73.6172 111.767 73.6847L111.972 73.8119ZM120.032 73.0645L120.028 73.3541C120.062 74.4312 119.676 75.4794 118.952 76.2757C118.209 77.0503 117.194 77.5047 116.122 77.5426C115.051 77.5805 114.007 77.199 113.211 76.4788L112.603 75.7662L111.488 75.7494C111.755 76.2565 112.112 76.7106 112.541 77.0894C113.526 77.9989 114.83 78.4814 116.168 78.4318C117.507 78.3823 118.771 77.8046 119.687 76.8247C120.61 75.8342 121.105 74.5177 121.063 73.1628L121.072 72.5422L122.442 72.025L123.398 71.5842C123.017 69.8693 122.04 68.346 120.642 67.2865C119.244 66.227 117.516 65.7002 115.766 65.8003C113.768 65.8772 111.882 66.7452 110.521 68.2139C109.16 69.6827 108.436 71.6324 108.507 73.6355L108.495 74.4216C108.694 75.84 109.291 77.1727 110.215 78.2649C111.14 79.3571 112.354 80.164 113.718 80.5918C115.082 81.0197 116.539 81.0509 117.919 80.682C119.3 80.313 120.548 79.559 121.519 78.5075C122.195 77.7796 122.722 76.9253 123.069 75.9934C123.416 75.0614 123.576 74.0701 123.541 73.076L122.503 73.4741C122.48 75.156 121.816 76.7654 120.646 77.9714C119.476 79.1775 117.89 79.8885 116.213 79.9585C114.595 80.0466 113.006 79.5037 111.778 78.4434C110.656 77.5037 109.889 76.207 109.604 74.7693C113.107 74.6675 116.577 74.0649 119.91 72.9799" fill="#231F20"/>
<path d="M127.007 43.0052C126.98 42.4483 127.064 41.8914 127.257 41.3681C127.449 40.8448 127.745 40.3659 128.127 39.9601C128.501 39.5447 128.956 39.2097 129.463 38.9756C129.97 38.7414 130.52 38.6128 131.078 38.5977C131.634 38.5698 132.189 38.6548 132.711 38.8475C133.233 39.0403 133.711 39.3368 134.116 39.7193L134.481 40.1386L135.602 39.7004L134.912 38.9452C133.873 37.9793 132.496 37.4644 131.08 37.5129C129.664 37.5613 128.324 38.1691 127.354 39.2036C126.397 40.2426 125.887 41.6174 125.934 43.0304L124.448 43.008C124.417 42.1053 124.564 41.2053 124.881 40.3596C125.198 39.5139 125.678 38.7392 126.293 38.0797C126.909 37.4202 127.649 36.8889 128.47 36.5163C129.29 36.1436 130.177 35.937 131.077 35.9081C131.971 35.8694 132.863 36.0097 133.702 36.3208C134.54 36.6318 135.309 37.1074 135.962 37.7196C136.741 38.4303 137.337 39.3195 137.698 40.3113C136.951 40.5897 136.078 40.9489 135.083 41.2649C133.806 41.6831 132.505 42.0227 131.187 42.282C129.823 42.5821 128.441 42.7962 127.05 42.9231L127.007 43.0052ZM135.561 42.3894L135.556 42.7203C135.584 43.2773 135.499 43.8341 135.307 44.3574C135.115 44.8807 134.819 45.3597 134.437 45.7654C134.068 46.1953 133.614 46.5444 133.104 46.791C132.595 47.0376 132.04 47.1765 131.474 47.199C130.908 47.2215 130.344 47.1272 129.817 46.9219C129.289 46.7166 128.809 46.4047 128.407 46.0056L127.758 45.251L126.602 45.2335C126.996 45.9755 127.557 46.6148 128.241 47.1003C128.925 47.5857 129.713 47.9037 130.542 48.0288C131.37 48.1539 132.217 48.0827 133.013 47.8208C133.81 47.5589 134.534 47.1136 135.128 46.5207C136.084 45.4817 136.594 44.1069 136.547 42.6939L136.557 42.032L138.011 41.4746L139.049 41.0351C138.721 39.436 137.906 37.9783 136.718 36.8621C135.16 35.4403 133.119 34.6693 131.013 34.7072C128.927 34.7935 126.959 35.6969 125.531 37.223C124.103 38.7491 123.33 40.776 123.377 42.8677L123.365 43.6537C123.665 45.6005 124.649 47.376 126.138 48.6609C127.694 49.9796 129.7 50.6429 131.733 50.5115C133.767 50.3802 135.671 49.4645 137.046 47.9564C138.44 46.4651 139.195 44.4863 139.152 42.4435L138.073 42.841C138.081 43.7358 137.913 44.6234 137.578 45.4527C137.242 46.2821 136.747 47.0368 136.12 47.6735C135.492 48.3101 134.746 48.8161 133.923 49.1624C133.099 49.5086 132.216 49.6882 131.323 49.6908C129.617 49.7723 127.943 49.1997 126.642 48.0892C125.48 47.0936 124.674 45.7448 124.347 44.2478C126.723 44.1902 129.089 43.9212 131.418 43.4441C132.826 43.1343 134.193 42.7825 135.561 42.3894Z" fill="#231F20"/>
<path d="M25.695 66.0567C25.6602 64.536 26.2151 63.0611 27.243 61.9422C27.7585 61.3666 28.3846 60.9012 29.0837 60.5738C29.7828 60.2464 30.5406 60.0638 31.3118 60.0368C32.083 60.0097 32.8516 60.139 33.5718 60.4167C34.2919 60.6943 34.9488 61.1148 35.5031 61.6529L36.0321 62.1574L36.1972 62.1599L37.444 61.5994C37.163 61.2111 36.8356 60.8588 36.4691 60.5503C35.7746 59.8902 34.9562 59.3751 34.0613 59.0348C33.1665 58.6946 32.2131 58.536 31.2566 58.5683C30.2912 58.606 29.3426 58.8342 28.4653 59.2399C27.5879 59.6456 26.799 60.2208 26.1437 60.9325C25.4873 61.6371 24.9779 62.4659 24.6453 63.3704C24.3127 64.2748 24.1636 65.2368 24.2068 66.1998L22.102 66.168C22.055 64.934 22.2513 63.7027 22.6796 62.5447C23.1078 61.3867 23.7597 60.3247 24.5979 59.4196C25.6823 58.2352 27.0506 57.3483 28.573 56.8429C30.0953 56.3375 31.7212 56.2305 33.2964 56.532C34.8715 56.8334 36.3437 57.5334 37.5731 58.5655C38.8025 59.5976 39.7484 60.9275 40.321 62.429C39.3236 62.8691 38.0781 63.3469 36.7506 63.782C35.4231 64.2172 33.2678 64.8054 31.4044 65.191C29.5342 65.5943 27.6413 65.8836 25.7362 66.0573L25.695 66.0567ZM37.3491 65.1565L37.3403 65.7357C37.3756 67.2322 36.8316 68.6844 35.8222 69.7878C34.8129 70.8911 33.4166 71.5599 31.9262 71.6539C31.1726 71.6896 30.4198 71.5704 29.7139 71.3036C29.0081 71.0367 28.3641 70.628 27.8217 70.1024C27.4924 69.7817 27.1937 69.4309 26.9294 69.0545L25.3168 69.2371C25.7089 69.9562 26.2149 70.6066 26.8151 71.1631C28.1856 72.4724 30.0098 73.1972 31.9031 73.1846C33.8508 73.0995 35.6871 72.2503 37.016 70.8203C38.2453 69.4284 38.8933 67.6158 38.826 65.7581L38.8397 64.848L40.8325 64.0918L42.245 63.4924C41.7566 61.3913 40.6491 59.486 39.0665 58.024C36.9324 56.0628 34.1206 55.0113 31.2265 55.092C29.7891 55.1474 28.3768 55.4876 27.0712 56.0929C25.7655 56.6982 24.5924 57.5566 23.6193 58.6187C22.6459 59.6654 21.8897 60.8956 21.3947 62.2378C20.8997 63.58 20.6757 65.0074 20.7358 66.4371C20.6896 66.8077 20.684 67.1822 20.719 67.554C21.1388 70.1821 22.5015 72.566 24.551 74.2578C26.6006 75.9497 29.1959 76.8332 31.8495 76.7423C33.2798 76.7028 34.6874 76.3736 35.9875 75.7745C37.2876 75.1754 38.4534 74.3189 39.4147 73.2564C40.3917 72.2105 41.153 70.9815 41.6549 69.6399C42.1568 68.2983 42.3895 66.8706 42.3395 65.4386L40.9308 65.7898C40.9011 68.1429 39.9989 70.4008 38.3998 72.1239C36.7618 73.9013 34.5026 74.9763 32.0934 75.125C29.6841 75.2737 27.3106 74.4846 25.4676 72.9221C23.855 71.5698 22.7359 69.7191 22.2859 67.6604C25.4376 67.526 28.5751 67.1584 31.6727 66.5606C33.6193 66.1348 35.4432 65.6243 37.144 65.0707" fill="#231F20"/>
</g>
<g clip-path="url(#clip1)">
<path d="M392.066 163.847C390.414 162.008 388.358 160.573 386.058 159.657C383.439 152.192 378.333 148.325 372.561 144.643C364.048 139.12 345.466 137.117 345.307 137.099C344.317 136.993 340.821 130.174 334.978 116.662C328.247 100.895 314.211 92.6831 292.188 91.4366C259.536 89.624 234.882 92.1198 219.229 98.9031C216.379 100.118 213.647 101.592 211.067 103.305C205.45 107.177 197.911 115.092 193.755 130.877C192.292 136.485 191.434 142.234 191.196 148.025C189.851 148.814 182.049 153.481 180.132 160.779C180.132 160.779 180.111 160.97 180.101 161.065C180.091 161.161 179.77 161.738 179.735 161.766L179.895 162.074C178.983 166.37 178.575 170.757 178.68 175.148C178.752 178.376 179.265 184.1 181.644 184.807C188.202 185.606 194.804 186.006 201.41 186.004L201.761 185.752C202.893 182.411 204.663 179.321 206.973 176.651C210.126 173.102 214.339 170.657 218.991 169.674C223.643 168.691 228.49 169.224 232.818 171.192C244.553 176.193 245.208 190.789 245.226 190.92L245.607 191.283L311.157 190.232L311.514 189.917C311.983 185.345 313.894 181.04 316.973 177.622C319.138 175.404 321.721 173.635 324.575 172.419C327.659 171.09 330.983 170.402 334.343 170.399C337.704 170.396 341.03 171.077 344.118 172.399C354.949 176.788 355.457 190.659 355.443 190.787L355.76 191.143C361.01 191.832 366.308 192.091 371.599 191.916C375.545 192.193 379.509 191.837 383.34 190.863L383.719 190.646C385.727 187.224 387.005 183.426 387.473 179.488C389.519 178.545 391.236 177.014 392.404 175.092C393.281 173.336 393.709 171.39 393.65 169.428C393.591 167.467 393.047 165.549 392.066 163.847ZM179.398 174.774C179.391 174.988 179.368 175.201 179.33 175.411C179.33 175.411 179.35 175.22 179.361 175.124C179.371 175.029 179.385 174.902 179.398 174.774ZM180.715 182.936C181.206 183.491 181.806 183.94 182.479 184.253L181.808 184.181C181.55 184.059 181.32 183.885 181.132 183.671C180.944 183.457 180.802 183.207 180.715 182.936Z" fill="#004A76"/>
<path d="M179.049 180.695C177.992 181.741 177.258 183.067 176.936 184.517C176.614 185.967 176.716 187.479 177.231 188.873C178.983 193.893 190.044 194.055 195.629 194.077C201.214 194.099 204.647 194.308 204.647 194.308C204.647 194.308 205.308 182.785 211.026 178.28C213.868 175.915 217.343 174.433 221.021 174.017C224.699 173.601 228.42 174.268 231.724 175.938C234.254 177.061 236.436 178.842 238.039 181.095C239.643 183.347 240.611 185.988 240.84 188.74C241.421 191.752 241.085 194.868 239.876 197.687C239.555 198.196 239.34 198.764 239.244 199.358L315.674 198.643C314.956 195.542 315.082 192.308 316.04 189.273C316.997 186.239 318.751 183.516 321.12 181.387C324.215 178.42 328.243 176.61 332.522 176.261C336.802 175.913 341.073 177.048 344.613 179.474C346.859 181.192 348.674 183.407 349.914 185.944C351.154 188.482 351.785 191.272 351.758 194.094C351.501 196.247 350.948 198.355 350.113 200.358C356.803 201.341 363.564 201.768 370.324 201.634C375.79 200.968 380.344 200.363 383.26 197.586C384.219 196.416 384.844 195.009 385.068 193.514C385.292 192.018 385.106 190.49 384.531 189.091L384.062 188.042L357.359 188.868C357.359 188.868 354.862 174.878 345.606 169.661C336.35 164.444 319.649 170.761 314.052 178.338C308.455 185.915 309.538 187.256 309.538 187.256L247.009 189.341C247.009 189.341 245.638 176.89 237.456 170.694C233.126 167.728 227.928 166.29 222.686 166.606C217.444 166.922 212.46 168.975 208.523 172.438C200.722 179.488 200.222 184.427 200.222 184.427C200.222 184.427 183.728 183.132 182.004 182.946C181.377 182.805 180.787 182.534 180.272 182.151C179.757 181.768 179.328 181.282 179.013 180.723" fill="#8EB400"/>
<path d="M386.215 159.706C387.138 162.771 387.697 165.934 387.88 169.129C388.107 172.684 387.993 176.252 387.539 179.785C387.539 179.785 394.155 176.537 394.265 171.621C394.482 169.874 394.296 168.1 393.719 166.436C393.143 164.771 392.192 163.26 390.939 162.019C389.454 161.078 387.87 160.302 386.215 159.706Z" fill="#8EB400"/>
<path d="M206.716 132.274C206.716 132.274 207.048 122.004 212.478 116.276C217.907 110.549 223.953 107.497 229.553 107.682C235.153 107.866 236.709 107.519 237.295 112.864C237.73 121.559 237.396 130.274 236.297 138.909C235.384 141.387 226.243 140.788 221.97 140.875C217.697 140.962 206.646 141.317 205.856 140.555C205.066 139.794 206.748 132.278 206.748 132.278" fill="#F5A300"/>
<path d="M234.328 138.02C231.215 138.68 228.028 138.921 224.851 138.738L222.043 138.725L220.844 138.757C218.157 138.821 210.771 139.024 207.922 138.781C208.151 136.771 208.496 134.776 208.954 132.805L208.999 132.391C208.999 132.391 209.39 122.771 214.184 117.845C216.685 115.001 219.735 112.69 223.153 111.049C225.146 110.159 227.311 109.711 229.495 109.736L230.581 109.853C231.85 109.786 233.123 109.923 234.348 110.259C234.54 110.28 234.861 110.894 235.114 113.047C235.519 121.381 235.288 129.732 234.423 138.03" fill="white"/>
<path d="M246.649 136.965C245.862 128.612 245.537 120.223 245.676 111.835C246.448 107.667 246.802 105.289 254.281 104.517C261.761 103.745 275.21 102.425 278.873 103.496C282.537 104.568 283.343 107.875 284.113 114.818C284.848 122.481 285.032 130.186 284.664 137.874C284.209 140.595 281.025 141.669 273.291 141.801C265.622 142.161 257.939 142.128 250.273 141.703C247.108 141.105 247.125 140.945 246.864 139.468C246.67 138.651 246.619 137.806 246.713 136.972" fill="#F5A300"/>
<path d="M281.324 138.577C278.693 139.376 275.948 139.733 273.2 139.634L269.962 139.703C263.51 140.005 257.047 139.953 250.6 139.549L248.957 139.211L248.977 139.02C248.852 138.444 248.807 137.854 248.843 137.266L248.895 136.788C248.108 128.633 247.816 120.438 248.019 112.249C248.562 109.312 248.786 108.434 250.446 107.711C251.785 107.184 253.191 106.847 254.624 106.712C259.622 106.188 274.843 104.608 278.319 105.627C280.48 106.246 281.292 108.009 281.891 115.03C282.583 122.544 282.762 130.096 282.427 137.633C282.399 137.888 282.358 138.27 281.31 138.704" fill="white"/>
<path d="M292.801 138.493C292.801 138.493 293.032 109.08 293.421 107.866C293.81 106.652 294.921 105.934 300.74 105.885C303.766 105.608 306.817 105.969 309.695 106.945C312.572 107.921 315.212 109.49 317.442 111.55C322.224 117.147 326.131 123.432 329.03 130.192C330.79 134.536 331.883 137.585 331.883 137.585C326.849 138.442 321.764 138.97 316.661 139.165C305.313 139.874 293.226 140.536 293.226 140.536L292.481 139.36L292.801 138.493Z" fill="#F5A300"/>
<path d="M328.864 135.907C326.607 136.179 322.714 136.629 316.538 136.994L295.035 138.122C295.09 127.725 295.293 111.16 295.549 108.483C297.247 108.006 299.015 107.826 300.774 107.951C307.792 107.87 312.436 109.433 315.864 112.991C320.404 118.388 324.107 124.432 326.85 130.923C327.612 132.841 328.274 134.491 328.718 135.763" fill="white"/>
<path d="M239.873 184.256C241.417 187.536 241.944 191.202 241.386 194.782C240.828 198.362 239.21 201.693 236.74 204.349C234.271 207.005 231.061 208.864 227.524 209.689C223.986 210.513 220.282 210.265 216.885 208.976C213.489 207.687 210.555 205.416 208.46 202.454C206.366 199.492 205.205 195.974 205.128 192.352C205.051 188.729 206.061 185.167 208.027 182.122C209.994 179.076 212.828 176.686 216.167 175.259C220.507 173.331 225.436 173.196 229.878 174.881C234.32 176.567 237.914 179.937 239.873 184.256Z" fill="#231F20"/>
<path d="M235.117 186.416C236.152 188.801 236.454 191.438 235.986 193.994C235.518 196.549 234.299 198.908 232.486 200.772C230.672 202.636 228.344 203.921 225.796 204.465C223.249 205.008 220.597 204.785 218.176 203.825C215.754 202.865 213.673 201.21 212.194 199.07C210.716 196.929 209.907 194.4 209.87 191.802C209.834 189.205 210.571 186.655 211.988 184.476C213.406 182.297 215.44 180.586 217.833 179.561C221.036 178.19 224.654 178.141 227.894 179.426C231.134 180.711 233.732 183.225 235.117 186.416Z" fill="#F5A300"/>
<path d="M228.412 203.987C225.957 205.043 223.244 205.349 220.615 204.867C217.985 204.385 215.557 203.136 213.639 201.279C211.72 199.421 210.396 197.038 209.834 194.432C209.273 191.825 209.498 189.111 210.483 186.633C211.468 184.155 213.168 182.025 215.367 180.511C217.567 178.997 220.168 178.167 222.841 178.127C225.514 178.087 228.139 178.838 230.385 180.286C232.631 181.734 234.396 183.812 235.458 186.26C236.874 189.544 236.928 193.254 235.607 196.577C234.286 199.899 231.699 202.564 228.412 203.987ZM218.088 179.91C215.748 180.908 213.759 182.577 212.373 184.704C210.987 186.832 210.266 189.322 210.301 191.86C210.337 194.398 211.128 196.868 212.573 198.958C214.019 201.047 216.054 202.662 218.421 203.597C220.787 204.532 223.379 204.744 225.866 204.208C228.353 203.672 230.624 202.411 232.391 200.585C234.157 198.759 235.34 196.451 235.788 193.953C236.237 191.455 235.931 188.88 234.909 186.555C233.55 183.459 231.019 181.024 227.868 179.779C224.717 178.535 221.202 178.582 218.088 179.91Z" fill="#231F20"/>
<path d="M350.17 186.675C351.705 189.95 352.225 193.607 351.663 197.178C351.102 200.748 349.485 204.069 347.019 206.717C344.553 209.364 341.35 211.216 337.821 212.037C334.292 212.858 330.597 212.61 327.209 211.324C323.821 210.038 320.894 207.773 318.804 204.82C316.713 201.866 315.553 198.358 315.473 194.745C315.393 191.131 316.396 187.577 318.354 184.536C320.312 181.496 323.136 179.108 326.464 177.678C328.611 176.711 330.929 176.176 333.284 176.105C335.64 176.034 337.986 176.428 340.189 177.264C342.392 178.1 344.408 179.362 346.121 180.977C347.834 182.592 349.21 184.529 350.17 186.675Z" fill="#231F20"/>
<path d="M345.418 188.804C346.458 191.187 346.767 193.824 346.303 196.381C345.84 198.938 344.626 201.3 342.815 203.167C341.005 205.035 338.679 206.325 336.132 206.873C333.585 207.421 330.932 207.203 328.508 206.246C326.085 205.29 324 203.638 322.518 201.499C321.036 199.361 320.224 196.833 320.183 194.234C320.143 191.636 320.876 189.085 322.291 186.903C323.706 184.722 325.739 183.009 328.131 181.981C331.33 180.606 334.946 180.552 338.186 181.831C341.426 183.11 344.027 185.617 345.418 188.804Z" fill="#F5A300"/>
<path d="M338.837 206.389C336.389 207.469 333.675 207.8 331.037 207.34C328.4 206.88 325.959 205.649 324.022 203.804C322.086 201.958 320.743 199.582 320.163 196.975C319.582 194.368 319.791 191.649 320.762 189.161C321.733 186.674 323.424 184.531 325.618 183.003C327.813 181.475 330.414 180.632 333.09 180.581C335.767 180.529 338.399 181.271 340.654 182.713C342.908 184.155 344.682 186.231 345.752 188.679C347.18 191.945 347.253 195.64 345.958 198.959C344.662 202.277 342.102 204.948 338.837 206.389ZM328.513 182.312C326.174 183.31 324.185 184.978 322.798 187.106C321.412 189.234 320.691 191.724 320.727 194.262C320.762 196.8 321.553 199.27 322.999 201.36C324.444 203.449 326.48 205.064 328.846 205.999C331.213 206.933 333.804 207.146 336.291 206.61C338.779 206.074 341.049 204.813 342.816 202.987C344.583 201.161 345.765 198.853 346.214 196.355C346.662 193.857 346.356 191.282 345.335 188.957C343.975 185.861 341.444 183.426 338.294 182.181C335.143 180.937 331.628 180.984 328.513 182.312Z" fill="#231F20"/>
<path d="M224.272 194.458C223.782 194.669 223.24 194.73 222.714 194.634C222.189 194.537 221.704 194.287 221.321 193.915C220.938 193.543 220.675 193.066 220.564 192.545C220.453 192.024 220.5 191.482 220.698 190.987C220.897 190.493 221.238 190.068 221.679 189.768C222.12 189.467 222.64 189.304 223.174 189.299C223.709 189.293 224.232 189.446 224.679 189.739C225.126 190.031 225.476 190.448 225.685 190.939C225.963 191.593 225.971 192.33 225.706 192.989C225.442 193.649 224.926 194.177 224.272 194.458ZM222.409 190.167C221.934 190.391 221.562 190.788 221.371 191.276C221.18 191.765 221.185 192.308 221.383 192.794C221.602 193.266 221.995 193.635 222.48 193.825C222.965 194.016 223.504 194.012 223.986 193.815C224.226 193.714 224.443 193.566 224.625 193.38C224.806 193.194 224.949 192.974 225.044 192.732C225.139 192.491 225.185 192.232 225.179 191.973C225.173 191.713 225.115 191.457 225.009 191.22C224.802 190.738 224.413 190.357 223.926 190.16C223.439 189.962 222.894 189.965 222.409 190.167Z" fill="#231F20"/>
<path d="M225.858 198.623C224.482 199.218 222.959 199.393 221.483 199.124C220.008 198.856 218.644 198.157 217.567 197.116C216.489 196.075 215.745 194.738 215.43 193.275C215.114 191.813 215.241 190.29 215.794 188.899C216.347 187.509 217.301 186.314 218.536 185.466C219.771 184.617 221.231 184.153 222.731 184.133C224.231 184.113 225.703 184.537 226.962 185.351C228.22 186.166 229.208 187.335 229.801 188.71C230.584 190.548 230.609 192.619 229.871 194.475C229.133 196.331 227.691 197.821 225.858 198.623ZM220.111 185.411C218.861 185.944 217.798 186.836 217.057 187.973C216.316 189.11 215.93 190.441 215.947 191.797C215.965 193.154 216.387 194.474 217.158 195.592C217.929 196.71 219.015 197.575 220.279 198.077C221.543 198.579 222.928 198.696 224.258 198.413C225.588 198.13 226.803 197.459 227.751 196.486C228.698 195.513 229.334 194.281 229.579 192.947C229.823 191.613 229.665 190.236 229.124 188.991C228.402 187.327 227.048 186.016 225.358 185.345C223.669 184.674 221.782 184.697 220.111 185.411Z" fill="#231F20"/>
<path d="M227.631 202.228C225.525 203.131 223.198 203.39 220.944 202.974C218.69 202.557 216.609 201.484 214.966 199.889C213.323 198.294 212.19 196.249 211.712 194.013C211.233 191.777 211.43 189.451 212.278 187.327C213.125 185.203 214.585 183.378 216.473 182.083C218.361 180.787 220.592 180.079 222.884 180.048C225.176 180.016 227.426 180.664 229.35 181.908C231.274 183.151 232.786 184.936 233.693 187.036C234.903 189.854 234.944 193.035 233.807 195.882C232.671 198.729 230.451 201.011 227.631 202.228ZM218.77 181.659C216.793 182.51 215.115 183.926 213.946 185.729C212.778 187.531 212.172 189.639 212.205 191.786C212.238 193.933 212.908 196.022 214.132 197.79C215.355 199.557 217.077 200.923 219.078 201.716C221.08 202.508 223.272 202.691 225.376 202.241C227.481 201.791 229.405 200.729 230.904 199.188C232.403 197.648 233.41 195.698 233.797 193.587C234.185 191.475 233.935 189.295 233.081 187.324C231.929 184.686 229.777 182.61 227.095 181.549C224.414 180.487 221.421 180.527 218.77 181.659Z" fill="#231F20"/>
<path d="M334.57 196.846C333.918 197.126 333.181 197.139 332.52 196.88C331.858 196.622 331.325 196.114 331.037 195.467C330.767 194.812 330.764 194.078 331.027 193.421C331.291 192.764 331.801 192.235 332.45 191.948C333.101 191.668 333.837 191.657 334.496 191.918C335.156 192.18 335.684 192.691 335.965 193.341C336.246 193.991 336.257 194.725 335.996 195.382C335.734 196.04 335.221 196.566 334.57 196.846ZM332.736 192.59C332.255 192.795 331.876 193.181 331.682 193.665C331.487 194.148 331.493 194.689 331.699 195.168C331.904 195.647 332.292 196.025 332.777 196.219C333.261 196.414 333.804 196.408 334.284 196.203C334.522 196.102 334.737 195.955 334.918 195.771C335.099 195.586 335.242 195.368 335.338 195.129C335.434 194.89 335.482 194.634 335.479 194.376C335.476 194.118 335.422 193.863 335.321 193.626C335.219 193.389 335.072 193.174 334.887 192.993C334.702 192.813 334.483 192.67 334.243 192.574C334.003 192.478 333.746 192.43 333.488 192.433C333.229 192.436 332.973 192.489 332.736 192.59Z" fill="#231F20"/>
<path d="M336.187 201.046C334.811 201.638 333.291 201.81 331.817 201.54C330.343 201.27 328.983 200.57 327.907 199.529C326.831 198.489 326.089 197.154 325.774 195.693C325.458 194.232 325.584 192.711 326.135 191.322C326.686 189.933 327.638 188.738 328.87 187.889C330.102 187.04 331.559 186.574 333.057 186.55C334.555 186.526 336.027 186.946 337.287 187.756C338.546 188.566 339.537 189.73 340.133 191.101C340.917 192.944 340.943 195.021 340.204 196.881C339.466 198.742 338.023 200.238 336.187 201.046ZM330.473 187.837C328.79 188.549 327.46 189.898 326.775 191.587C326.09 193.277 326.106 195.17 326.821 196.848C327.535 198.527 328.888 199.854 330.583 200.538C332.278 201.222 334.176 201.207 335.859 200.496C336.684 200.141 337.43 199.627 338.056 198.984C338.682 198.341 339.175 197.581 339.506 196.748C339.837 195.915 340 195.024 339.987 194.128C339.973 193.232 339.782 192.347 339.426 191.524C339.069 190.701 338.553 189.956 337.908 189.331C337.263 188.707 336.501 188.215 335.665 187.884C334.83 187.554 333.937 187.39 333.038 187.403C332.139 187.417 331.252 187.606 330.427 187.961" fill="#231F20"/>
<path d="M337.961 204.652C335.857 205.581 333.524 205.866 331.256 205.471C328.989 205.076 326.889 204.019 325.224 202.434C323.559 200.848 322.403 198.805 321.903 196.565C321.402 194.324 321.58 191.986 322.414 189.847C323.247 187.708 324.699 185.864 326.585 184.55C328.471 183.235 330.706 182.508 333.007 182.462C335.308 182.415 337.572 183.051 339.511 184.289C341.45 185.526 342.977 187.31 343.9 189.413C345.121 192.232 345.172 195.419 344.041 198.274C342.91 201.129 340.689 203.419 337.866 204.641L337.961 204.652ZM328.912 184.03C326.94 184.885 325.266 186.304 324.102 188.107C322.938 189.911 322.336 192.018 322.373 194.163C322.409 196.308 323.082 198.394 324.306 200.159C325.531 201.924 327.251 203.287 329.252 204.078C331.252 204.868 333.442 205.05 335.545 204.601C337.648 204.151 339.57 203.09 341.068 201.551C342.567 200.013 343.574 198.066 343.963 195.956C344.352 193.847 344.106 191.669 343.255 189.698C342.097 187.058 339.939 184.98 337.253 183.919C334.566 182.857 331.568 182.897 328.912 184.03Z" fill="#231F20"/>
<path d="M268.343 164.038C268.519 162.023 269.399 160.133 270.828 158.698C272.257 157.263 274.146 156.374 276.166 156.185C283.515 155.431 285.738 162.37 280.843 168.832C275.948 175.293 268.992 182.595 268.992 182.595C263.41 179.275 258.409 175.07 254.184 170.145C248.868 163.131 250.11 156.404 255.551 154.768C260.992 153.132 264.512 157.634 266.266 160.239C267.14 161.418 267.87 162.697 268.439 164.048" fill="#EC1C24"/>
<path d="M255.833 158.438C255.042 158.877 254.39 159.528 253.951 160.317C253.512 161.107 253.303 162.003 253.349 162.905C253.421 166.133 255.621 167.594 256.767 166.848C257.914 166.102 255.405 164.801 256.35 162.327C257.295 159.852 259.195 159.606 258.432 158.3C257.668 156.993 255.833 158.438 255.833 158.438Z" fill="white"/>
<path d="M266.007 173.417C263.57 172.495 261.488 170.827 260.06 168.653C258.803 167.133 256.573 169.243 257.83 170.764C259.629 173.322 262.169 175.27 265.109 176.347C265.488 176.431 265.885 176.37 266.22 176.175C266.555 175.98 266.804 175.667 266.917 175.297C267.031 174.927 267 174.527 266.831 174.179C266.662 173.83 266.368 173.558 266.007 173.417Z" fill="white"/>
<path d="M295.066 176.484L294.556 176.429C293.938 176.441 293.328 176.285 292.792 175.978C292.256 175.67 291.814 175.223 291.514 174.684C291.163 174.093 290.983 173.417 290.994 172.73C291.006 172.043 291.208 171.373 291.578 170.794C293.193 168.392 296.149 168.839 298.769 169.701C298.949 168.648 299.064 167.585 299.112 166.518C299.05 164.726 298.821 162.943 298.426 161.194C298.147 159.918 297.941 158.626 297.81 157.327C297.718 156.383 297.689 155.446 297.661 154.509C297.633 153.572 297.613 152.861 297.535 152.08L297.566 151.793C297.234 150.314 297.47 148.765 298.228 147.452C298.461 147.218 298.74 147.034 299.048 146.912C299.356 146.79 299.685 146.732 300.016 146.743L300.379 146.975C300.465 147.204 300.496 147.45 300.47 147.694C300.444 147.937 300.361 148.171 300.228 148.376L299.693 148.544L299.242 148.238L299.293 147.76C299.122 147.773 298.956 147.819 298.803 147.896C298.65 147.974 298.515 148.081 298.405 148.212C297.673 149.003 297.814 150.693 298.003 151.937L297.972 152.223C297.883 153.051 298.053 153.875 298.094 154.684C298.136 155.494 298.151 156.558 298.211 157.499C298.271 158.439 298.582 160.051 298.838 161.27C299.242 163.063 299.478 164.889 299.542 166.725C299.508 167.847 299.387 168.964 299.182 170.068L300.549 170.57L301.607 170.941L301.894 170.972C304.01 171.716 307.216 172.834 308.759 170.81C309.226 170.154 309.499 169.38 309.549 168.577L309.227 167.962C308.985 167.419 308.863 166.83 308.872 166.236C308.88 165.642 309.018 165.057 309.275 164.521L309.65 164.336C309.75 164.043 309.911 163.775 310.123 163.55C311.638 161.78 312.799 162.099 313.47 162.461C314.347 163.29 314.882 164.416 314.971 165.618C315.401 165.378 315.77 165.042 316.049 164.636C316.328 164.231 316.509 163.766 316.579 163.279C316.39 162.477 316.481 161.635 316.837 160.892L317.276 160.713L317.561 161.066L317.54 161.257C317.53 161.942 317.456 162.624 317.321 163.295L317.58 164.482L317.735 165.143C318.145 163.738 318.683 162.637 319.573 162.475C319.752 162.416 319.941 162.396 320.128 162.416C320.316 162.436 320.496 162.496 320.658 162.592C321.196 163.138 321.519 163.859 321.57 164.622C321.576 164.987 321.537 165.35 321.453 165.705C321.374 166.437 321.326 166.883 322.02 167.344C322.527 167.621 323.125 167.685 323.68 167.523C324.502 167.323 325.227 166.843 325.732 166.166C325.37 165.702 325.11 165.168 324.965 164.598C324.821 164.028 324.797 163.435 324.893 162.855C324.933 162.532 325.079 162.231 325.309 161.999C325.538 161.767 325.838 161.618 326.162 161.575L326.8 161.643C326.938 161.225 327.178 160.848 327.498 160.545C327.818 160.242 328.209 160.024 328.635 159.909C328.987 159.872 329.341 159.949 329.647 160.126C329.953 160.304 330.195 160.574 330.337 160.897L330.368 160.611C330.728 158.186 331.32 155.802 332.136 153.49L332.154 153.331C332.754 151.657 333.423 150.247 334.376 150.092C334.513 150.083 334.649 150.109 334.773 150.168C334.897 150.226 335.003 150.315 335.083 150.426C335.567 151.026 335.274 152.25 334.966 153.312L334.942 153.535C333.962 156.909 332.527 160.135 330.678 163.124C330.496 163.978 330.557 164.866 330.854 165.688C330.89 165.801 330.962 165.9 331.06 165.969C331.158 166.037 331.275 166.072 331.394 166.068C332.033 166.137 333.023 165.342 333.874 164.338C333.559 162.469 334.399 159.467 335.879 158.918L336.103 158.942C336.393 158.634 336.793 158.45 337.217 158.43C337.641 158.409 338.056 158.554 338.376 158.833C338.707 159.078 338.972 159.402 339.146 159.775C339.321 160.148 339.398 160.559 339.373 160.97C340.049 160.302 340.658 159.569 341.191 158.782C341.272 158.319 341.322 157.851 341.342 157.381L341.766 157.041C341.896 157.045 342.022 157.087 342.129 157.162C342.235 157.236 342.318 157.339 342.367 157.46C342.398 157.751 342.367 158.046 342.276 158.325C342.184 158.604 342.035 158.86 341.837 159.077C341.779 159.619 341.724 160.128 341.446 160.613C341.777 160.15 342.203 159.763 342.696 159.478C343.189 159.192 343.738 159.014 344.305 158.957L344.592 158.988L344.562 159.274C344.534 159.529 344.503 159.816 344.469 160.134C344.345 161.28 343.951 163.138 344.436 163.738C344.92 164.337 346 163.906 347.742 163.031C349.273 162.157 350.739 161.174 352.128 160.09L352.687 159.699L352.711 159.476L353.018 159.026L353.473 159.301L353.411 159.874L353.374 160.224L352.638 160.757C348.878 163.572 345.277 165.825 343.962 164.234C343.247 163.384 343.587 161.424 343.805 159.998L343.836 159.711C342.871 160.206 342.048 160.936 341.443 161.834C340.838 162.732 340.471 163.768 340.376 164.846L340.355 165.037L339.963 165.381L340.075 164.942C340.25 163.662 340.537 162.4 340.934 161.17L340.989 160.661L340.148 161.568L340.131 161.728L339.583 162.313C339.029 164.153 337.43 166.107 335.944 166.107C335.672 166.107 335.406 166.03 335.176 165.886C334.946 165.741 334.761 165.535 334.643 165.291C333.961 166.169 332.977 166.763 331.88 166.958C331.616 166.962 331.357 166.887 331.137 166.742C330.916 166.598 330.744 166.391 330.643 166.148L330.332 165.438C330.156 165.731 329.942 166.001 329.696 166.239C329.333 166.649 328.852 166.938 328.318 167.065C327.784 167.192 327.223 167.151 326.713 166.948C326.089 167.788 325.191 168.386 324.173 168.639C323.79 168.726 323.394 168.735 323.007 168.666C322.621 168.596 322.252 168.45 321.923 168.236C321.55 167.983 321.262 167.622 321.1 167.201C320.937 166.781 320.907 166.321 321.014 165.883C321.079 165.58 321.112 165.27 321.114 164.96C321.083 164.394 320.855 163.857 320.47 163.441L319.991 163.389C319.134 163.555 318.499 166.449 318.268 167.391L318.223 167.805L318.186 168.155L317.704 168.425L317.153 167.85L317.183 167.564C317.26 166.645 317.173 165.72 316.929 164.831C316.495 165.583 315.831 166.178 315.034 166.527C315.069 167.425 314.906 168.32 314.558 169.149C314.464 169.42 314.317 169.669 314.125 169.883C313.934 170.096 313.701 170.269 313.441 170.391C313.181 170.513 312.899 170.582 312.611 170.594C312.324 170.605 312.037 170.559 311.768 170.458C311.221 170.282 310.731 169.962 310.35 169.533C310.208 170.196 309.931 170.824 309.537 171.377C307.656 173.848 304.109 172.596 301.776 171.765L301.521 171.737L300.633 171.287L299.39 170.831C298.895 173.322 297.795 176.038 295.226 176.502L295.066 176.484ZM294.348 169.966C293.922 170.037 293.516 170.194 293.152 170.426C292.788 170.658 292.476 170.96 292.232 171.316C291.95 171.776 291.801 172.305 291.8 172.844C291.798 173.383 291.946 173.913 292.225 174.375C292.456 174.814 292.807 175.178 293.239 175.424C293.67 175.671 294.163 175.789 294.66 175.764C297.131 175.612 298.195 172.925 298.644 170.558C297.27 170.043 295.787 169.883 294.334 170.093L294.348 169.966ZM310.641 168.63C311.008 169.203 311.549 169.645 312.185 169.891C312.543 169.949 312.911 169.87 313.214 169.67C313.517 169.47 313.733 169.163 313.819 168.811C314.082 168.216 314.217 167.572 314.217 166.922C313.628 167.223 312.982 167.395 312.321 167.426C311.615 167.417 310.934 167.161 310.397 166.703C310.472 167.292 310.483 167.887 310.431 168.478L310.641 168.63ZM334.967 164.682C334.992 164.863 335.078 165.03 335.212 165.156C335.345 165.282 335.518 165.358 335.7 165.373C336.499 165.459 337.541 164.476 338.189 163.258C337.863 163.468 337.479 163.572 337.091 163.558C336.697 163.505 336.338 163.305 336.086 162.999C335.755 163.586 335.381 164.149 334.967 164.682ZM327.016 166.24C327.388 166.369 327.79 166.382 328.169 166.28C328.549 166.177 328.889 165.963 329.145 165.664C329.482 165.327 329.755 164.931 329.949 164.495C329.673 164.739 329.357 164.934 329.015 165.071C328.775 165.163 328.517 165.198 328.261 165.17C328.006 165.142 327.761 165.054 327.546 164.912L327.387 164.895C327.305 165.408 327.175 165.911 326.998 166.399L327.016 166.24ZM326.447 162.829C326.447 162.829 326.043 162.979 325.924 163.481C325.797 164.314 325.943 165.166 326.341 165.91C326.761 164.904 326.881 163.798 326.684 162.726L326.492 162.705L326.447 162.829ZM335.807 160.489C335.268 161.445 334.985 162.524 334.985 163.621C335.25 163.257 335.486 162.874 335.69 162.473L335.721 162.186C335.595 161.679 335.586 161.149 335.694 160.637L335.807 160.489ZM328.894 161.096C328.554 161.242 328.256 161.47 328.027 161.761C327.798 162.051 327.646 162.394 327.585 162.759C327.487 163.01 327.465 163.285 327.523 163.549C327.581 163.813 327.715 164.054 327.909 164.243L328.675 164.326C329.286 163.998 329.804 163.522 330.181 162.942C330.199 162.54 330.108 162.141 329.918 161.786C329.697 161.44 329.355 161.017 328.93 161.068L328.894 161.096ZM336.575 162.053L336.558 162.212L337.127 162.628C337.442 162.594 337.747 162.498 338.024 162.346C338.301 162.193 338.545 161.987 338.741 161.739C338.813 161.07 338.94 159.892 338.225 159.332C338.137 159.248 338.034 159.183 337.92 159.14C337.807 159.097 337.686 159.077 337.564 159.082C337.443 159.087 337.324 159.117 337.215 159.169C337.105 159.221 337.007 159.295 336.927 159.385L336.91 159.545C337.126 160.388 337.03 161.281 336.639 162.06L336.575 162.053ZM312.501 163.065C311.89 163.251 311.359 163.637 310.994 164.159C310.82 164.357 310.711 164.604 310.683 164.866C310.654 165.128 310.708 165.393 310.836 165.623C311.012 165.951 311.275 166.224 311.597 166.413C311.919 166.601 312.286 166.696 312.659 166.689C313.32 166.624 313.958 166.418 314.533 166.086C314.526 165 314.093 163.959 313.327 163.186L312.657 163.114L312.501 163.065ZM334.929 150.957C334.929 150.957 334.316 151.245 333.439 153.695L333.418 153.886C332.607 156.133 332.021 158.454 331.67 160.816L331.632 161.166C332.936 158.705 333.993 156.122 334.789 153.454L334.813 153.231C335.272 151.67 335.039 151.13 335.053 151.003" fill="white"/>
</g>
<path d="M296.214 46.306C296.214 46.306 292.75 40.0891 284.668 41.0101C276.587 42.1614 276.356 49.9901 276.356 49.9901C276.356 49.9901 259.731 56.4372 253.727 65.187C247.724 73.9367 246.8 76.6998 246.8 76.6998L214.705 87.9823C214.705 87.9823 213.781 89.3638 216.552 90.2849C219.323 91.2059 224.864 88.9033 230.868 87.2915C236.871 85.6797 252.804 81.9957 252.804 81.9957C252.804 81.9957 262.502 91.4361 277.972 87.0613C293.443 82.6864 293.674 65.6475 293.674 62.6541C293.904 59.6608 293.212 56.207 293.212 56.207C293.212 56.207 295.059 53.6742 295.752 51.6019C296.444 49.5296 296.906 48.3783 296.906 48.3783L301.062 45.6152L298.061 45.1547L298.292 42.6219L296.214 46.306Z" fill="#240036"/>
<path d="M271.507 90.9751L271.968 90.7448C271.968 90.7448 273.816 88.6725 274.739 84.2977C275.663 79.9228 275.201 77.1597 275.201 77.1597C275.201 76.9295 274.97 76.6992 274.739 76.6992C274.508 76.6992 274.277 76.9295 274.277 77.1597C274.277 77.1597 274.508 79.9228 273.816 84.0674C272.892 88.212 271.276 90.0541 271.276 90.0541V90.7448L271.507 90.9751Z" fill="#240036"/>
<path d="M261.347 89.8246H261.578C261.808 89.8246 262.732 88.6733 264.348 84.9892C266.196 81.0748 265.734 77.1605 265.734 76.9302C265.734 76.7 265.503 76.4697 265.272 76.4697C265.041 76.4697 264.81 76.7 264.81 76.9302C264.81 76.9302 265.041 80.8446 263.425 84.5287C261.808 88.2128 260.885 89.1338 260.885 89.1338V89.8246H261.347Z" fill="#240036"/>
<path d="M270.122 93.969L270.584 93.7388C270.815 93.5085 271.276 93.2783 271.507 92.3572C271.507 92.127 271.738 91.8967 271.738 91.6665C271.969 91.8967 271.969 92.127 271.969 92.5875C272.2 93.048 272.2 93.2783 271.969 93.2783V93.7388C272.2 93.969 272.431 94.1993 272.662 93.969C272.893 93.7388 273.124 93.5085 272.893 92.127C272.662 90.9757 271.969 90.2849 271.738 90.2849L271.276 90.0547L270.815 90.2849C270.815 90.2849 270.584 90.9757 270.122 91.8967C269.891 92.3572 269.66 92.5875 269.429 92.8178C269.198 93.048 268.967 93.2783 268.967 93.5085C269.66 93.969 269.891 93.969 270.122 93.969Z" fill="#240036"/>
<path d="M269.194 92.1268L269.655 91.8965C269.655 91.8965 269.886 91.436 270.579 91.2058C271.503 90.9755 272.195 90.515 272.195 90.515V89.8242H271.503C271.503 89.8242 271.272 90.0545 270.348 90.2847C269.194 90.515 268.732 91.436 268.732 91.436C268.501 91.6663 268.732 91.8965 268.963 92.1268H269.194Z" fill="#240036"/>
<path d="M259.961 93.0477L260.423 92.8174C260.654 92.5872 261.116 92.3569 261.347 91.4359C261.347 91.2056 261.578 90.9754 261.578 90.7451C261.808 90.9754 261.808 91.2056 262.039 91.6661C262.27 92.1266 262.039 92.3569 262.039 92.3569V92.8174C262.27 93.0477 262.501 93.2779 262.732 93.0477C262.963 92.8174 263.194 92.5871 262.963 91.2056C262.732 90.0543 262.039 89.3636 261.808 89.3636L261.347 89.1333L260.885 89.3636C260.885 89.3636 260.654 89.8241 260.192 90.9753C259.961 91.4359 259.73 91.6661 259.499 91.8964C259.268 92.1266 259.038 92.3569 259.038 92.5871C259.499 92.8174 259.73 93.0477 259.961 93.0477Z" fill="#240036"/>
<path d="M259.037 90.9754L259.499 90.7452C259.499 90.7452 259.73 90.2847 260.423 90.0544C261.346 89.8241 261.808 89.3636 262.039 89.3636V88.6729H261.346C261.346 88.6729 261.115 88.9031 260.192 89.1334C259.037 89.3636 258.576 90.2847 258.576 90.2847C258.345 90.5149 258.576 90.7452 258.806 90.9754H259.037Z" fill="#240036"/>
<defs>
<clipPath id="clip0">
<rect width="168.81" height="201.655" fill="white" transform="translate(4 7.30322) rotate(0.863664)"/>
</clipPath>
<clipPath id="clip1">
<rect width="234.003" height="127.864" fill="white" transform="translate(175.156 76.8892) rotate(6.15212)"/>
</clipPath>
</defs>
</svg>
