<svg width="321" height="234" viewBox="0 0 321 234" fill="none" xmlns="http://www.w3.org/2000/svg">
<g clip-path="url(#clip0)">
<path d="M246.859 185.155C246.859 185.155 264.601 191.565 274.851 177.923C285.268 164.744 276.649 149.546 276.649 149.546C276.649 149.546 286.258 147.907 290.955 136.27C295.651 124.634 285.833 117.716 285.833 117.716C285.833 117.716 296.698 110.131 294.08 98.5198C291.463 86.9091 278.705 87.0695 278.705 87.0695C278.705 87.0695 280.587 74.8803 273.455 69.6084C266.323 64.3365 258.178 68.5858 258.178 68.5858C258.178 68.5858 259.616 57.3416 249.669 51.5168C239.723 45.6919 230.967 50.4234 230.967 50.4234C230.967 50.4234 230.091 40.0149 220.516 36.6716C210.941 33.3284 206.852 37.9442 206.852 37.9442C206.852 37.9442 203.904 31.946 195.016 31.2321C186.128 30.5183 180.707 37.9693 180.707 37.9693C180.707 37.9693 175.389 30.4731 166.576 32.8708C157.616 35.5836 155.936 43.2533 155.936 43.2533C155.936 43.2533 146.915 37.0942 136.551 46.0687C126.187 55.0432 128.137 64.8024 128.137 64.8024C128.137 64.8024 113.915 62.3527 105.296 79.0677C96.6775 95.7827 108.179 101.569 108.179 101.569C108.179 101.569 94.265 118.104 101.791 133.173C109.633 148.391 120.945 146.398 120.945 146.398C120.945 146.398 115.065 160.555 125.44 171.195C135.816 181.835 148.55 174.358 148.55 174.358C148.55 174.358 148.372 186.194 160.318 191.035C172.264 195.877 181.554 187.551 181.554 187.551C181.554 187.551 180.283 199.258 191.227 201.322C202.172 203.386 206.037 195.974 206.037 195.974C206.037 195.974 210.339 206.453 225.54 204.364C240.907 202.738 246.859 185.155 246.859 185.155Z" fill="#ED1C24"/>
<path d="M184.844 118.352C186.657 116.127 183.323 113.408 181.509 115.632C180.751 116.429 179.677 117.079 178.751 117.413C178.342 113.376 178.543 108.856 176.282 105.487C174.503 102.729 172.189 103.565 170.06 105.641C168.949 104.735 166.931 104.941 166.506 106.664C165.231 111.832 164.586 117.297 163.775 122.299C163.221 125.115 167.591 125.629 167.997 123.128C168.384 119.849 168.919 116.256 169.62 113.125L169.768 112.81C170.823 111.382 171.711 109.492 173.08 108.213C173.247 108.676 173.414 109.139 173.266 109.454C174.286 113.009 174.066 116.751 174.457 120.01C174.643 121.251 175.755 122.158 176.68 121.823C180.106 121.894 182.568 120.743 184.844 118.352Z" fill="white"/>
<path d="M198.242 138.101C198.534 130.933 197.271 123.803 198.192 116.931C198.173 116.153 198.007 115.69 197.525 115.079C197.673 114.764 197.506 114.301 197.654 113.986C197.745 111.338 195.522 109.525 193.022 109.119C192.244 109.139 191.781 109.306 191.319 109.473C191.004 109.325 191.004 109.325 190.689 109.177C189.429 108.586 188.356 109.235 187.912 110.18C186.118 113.182 186.36 116.757 188.602 119.348C189.881 120.717 191.751 120.826 193.454 120.473C193.033 128.734 194.483 137.105 193.136 145.7C192.878 147.886 192.138 149.461 190.936 151.203C188.216 154.54 183.121 149.84 182.434 147.211C181.376 142.1 186.706 137.297 189.889 133.794C191.869 132.032 188.534 129.313 186.554 131.074C182.15 135.542 177.302 140.955 178.083 147.474C178.884 154.771 187.218 158.301 193.197 154.572C198.564 151.325 198.356 142.769 198.242 138.101ZM192.267 116.455L191.952 116.307C191.322 116.011 191.303 115.233 191.284 114.455C191.118 113.993 191.413 113.362 191.561 113.047C191.876 113.195 192.191 113.343 192.506 113.491C192.821 113.639 192.821 113.639 193.136 113.787L193.451 113.935L193.765 114.083L193.617 114.398L193.469 114.713L193.322 115.028C193.322 115.028 193.322 115.028 193.174 115.343L193.026 115.658L192.73 116.288L192.267 116.455C192.878 115.973 191.952 116.307 192.267 116.455Z" fill="white"/>
<path d="M216.509 121.303C209.586 124.588 207.583 119.034 207.579 112.496C211.816 107.565 217.59 101.817 217.901 95.4271C218.14 92.4633 216.342 88.9274 212.935 89.6345C209.844 90.4894 207.753 94.1217 206.422 96.9569C204.499 101.052 203.224 106.221 203.19 111.203C203.042 111.518 202.579 111.685 202.431 112C201.377 113.428 202.192 114.964 203.285 115.093C203.471 116.334 203.657 117.574 203.99 118.5C205.717 125.463 211.532 127.809 217.844 125.007C220.158 124.171 218.971 120.153 216.509 121.303ZM209.017 101.251C209.59 99.2135 210.477 97.3234 211.995 95.7291C212.143 95.4141 212.605 95.2469 212.901 94.6169L213.364 94.4497C213.55 95.6905 213.106 96.6356 212.514 97.8956C211.331 100.416 209.832 102.788 208.019 105.012C208.296 103.604 208.888 102.344 209.017 101.251Z" fill="white"/>
<path d="M223.828 127.817C224.048 124.075 224.583 120.481 224.34 116.907C224.116 114.11 220.08 114.521 219.989 117.17C220.38 120.43 219.53 123.875 219.291 126.839C219.162 127.932 219.811 129.006 220.903 129.134C222.311 129.411 223.699 128.909 223.828 127.817Z" fill="white"/>
<path d="M226.386 105.18C225.423 103.958 224.015 103.682 223.257 104.479C222.183 105.128 221.906 106.536 222.703 107.295L223.018 107.443C223.666 108.516 225.074 108.793 225.833 107.996C226.758 107.661 227.035 106.253 226.386 105.18Z" fill="white"/>
<path d="M242.119 124.872C241.285 122.558 239.396 121.671 237.192 120.635C231.691 118.437 236.763 115.82 240.336 115.576C243.132 115.351 242.723 111.314 240.075 111.224C235.724 111.487 228.171 114.476 230.489 120.179C231.471 122.178 232.75 123.548 234.787 124.12C235.731 124.563 237.139 124.84 237.935 125.599C239.047 126.505 238.159 128.395 237.4 129.192C236.494 130.305 234.605 129.417 233.66 128.974C231.141 127.791 229.366 131.571 231.885 132.754C234.718 134.085 237.051 134.027 239.661 132.561C242.123 131.41 243.269 127.335 242.119 124.872Z" fill="white"/>
<path d="M263.361 134.464C261.824 135.281 260.121 135.634 258.418 135.988C258.934 131.616 258.338 126.338 255.466 123.451C254.67 122.693 253.725 122.249 253.095 121.953C254.647 115.377 255.884 108.652 258.842 102.352C260.026 99.8316 256.248 98.0571 255.064 100.577C250.903 108.62 250.501 117.659 247.284 126.145C246.544 127.72 245.952 128.98 245.508 129.925C244.64 132.593 248.103 134.22 249.287 131.7C250.027 130.124 250.914 128.234 251.654 126.659C252.265 126.177 252.727 126.01 253.376 127.084C255.007 130.157 254.639 134.213 254.253 137.492C253.976 138.9 255.402 139.954 256.494 140.083C259.605 140.006 262.382 139.003 265.159 138C267.325 137.48 265.823 133.314 263.361 134.464Z" fill="white"/>
<path d="M163.491 78.7167C157.528 76.685 150.252 78.2663 147.923 84.8624C145.574 90.6805 149.3 96.6595 155.392 97.5983C157.577 97.8555 157.816 94.8917 156.094 94.4674C149.205 92.77 140.65 92.9819 134.839 97.1734C129.175 101.05 128.105 108.237 130.59 114.403C133.075 120.568 138.928 124.471 145.336 125.557C153.15 126.921 161.037 124.857 167.793 121.109C169.792 120.126 168.624 116.885 166.625 117.869C156.481 123.102 141.466 126.432 134.35 115.399C130.958 110.346 131.083 102.715 136.914 99.3015C142.282 96.055 149.133 96.1966 154.929 97.7654C155.058 96.6725 155.187 95.5796 155.631 94.6345C151.261 94.1201 149.129 89.6584 151.052 85.5632C152.975 81.468 157.937 80.7224 162.012 81.8668C164.049 82.439 165.38 79.6039 163.491 78.7167Z" fill="white"/>
</g>
<g clip-path="url(#clip1)">
<path d="M84.9654 134.298C77.5855 128.244 69.2477 133.355 67.9815 134.242C67.3056 132.242 66.9039 131.26 66.9039 131.26C66.8696 131.133 66.7078 131.04 66.7078 131.04C66.3841 130.855 62.2543 129.241 58.5548 130.239C55.4931 131.064 53.5833 133.624 52.8959 134.628C51.8906 133.944 49.1146 132.784 45.7387 133.967C42.7455 135.047 41.7878 137.077 41.4241 138.266C40.4188 137.583 38.2216 136.539 35.4493 137.423C32.677 138.307 31.8811 140.43 31.5517 141.746C30.5121 140.936 28.4082 139.73 25.6702 140.741C22.9321 141.752 21.8811 143.944 21.5517 145.26C20.6396 144.415 18.6976 143.303 16.0529 144.152C13.4424 145.129 12.8331 146.929 12.8521 148.015C11.5917 147.4 9.42871 146.484 6.91158 147.299C3.40815 148.516 2.01241 152.983 2.04668 153.11L1.98765 153.398C2.05619 153.653 7.09009 170.293 15.4543 179.491C23.4262 188.249 34.9987 197.672 52.2607 191.655C53.0261 191.448 53.6297 191.149 54.3609 190.816C62.2512 187.598 67.7882 181.742 70.5892 173.351C71.7146 169.912 72.3201 166.067 72.602 162.037C73.1465 162.027 74.7116 161.741 76.7185 161.064C78.8529 160.352 81.5224 159.087 84.0795 156.898C87.9029 153.822 90.0641 149.149 90.0813 144.645C90.0737 140.556 88.2802 136.949 84.9654 134.298ZM69.6512 139.927C69.7788 139.893 70.4757 139.432 73.5126 139.022C75.4947 138.761 77.7509 139.516 79.1237 141.054C80.07 142.026 81.0943 143.795 80.4697 146.554C79.4072 151.749 73.8474 154.475 72.3851 155.142C72.2632 153.675 72.1414 152.208 71.892 150.776C71.1438 146.478 70.3118 142.885 69.6512 139.927Z" fill="#FAA61A"/>
<path d="M43.0389 157.313C43.0389 157.313 40.4547 148.672 48.8394 144.391C57.2242 140.11 63.0194 147.681 60.0737 157.572C57.128 167.464 51.8629 179.317 51.8629 179.317C51.8629 179.317 37.9503 176.829 28.5871 171.042C19.1347 164.987 17.71 156.256 23.419 151.977C29.1281 147.697 35.4595 151.525 38.5805 153.751C41.7906 156.245 43.0389 157.313 43.0389 157.313Z" fill="#ED1C24"/>
<path d="M36.7943 158.207C35.9031 155.534 32.6034 154.556 30.0167 155.715C28.5897 155.894 26.9842 156.43 26.7161 158.301C26.359 159.905 27.518 161.597 28.9448 162.309C31.4417 163.555 37.8635 162.305 36.7943 158.207ZM31.2648 157.675C31.8 157.496 32.3352 157.318 32.6919 157.496C32.0676 157.407 31.5324 157.586 31.2648 157.675Z" fill="white"/>
</g>
<defs>
<clipPath id="clip0">
<rect width="196.191" height="166.008" fill="white" transform="translate(142.43) rotate(25.1568)"/>
</clipPath>
<clipPath id="clip1">
<rect width="87.7315" height="57.7914" fill="white" transform="translate(0 146.026) rotate(-15.0893)"/>
</clipPath>
</defs>
</svg>
