<?xml version="1.0" encoding="UTF-8"?> <svg xmlns="http://www.w3.org/2000/svg" viewBox="0 0 50 50"> <defs> <style>.cls-1{fill:#eb212e;}.cls-1,.cls-2{fill-rule:evenodd;}.cls-2{fill:#004a76;}</style> </defs> <title>pict 4</title> <g id="Layer_1" data-name="Layer 1"> <path class="cls-1" d="M25,25,9.68,9.68a1.42,1.42,0,0,1,1-2.42H23.58A1.42,1.42,0,0,1,25,8.68Z"></path> <path class="cls-1" d="M25,25,40.32,40.32a1.42,1.42,0,0,1-1,2.42H26.42A1.42,1.42,0,0,1,25,41.32Z"></path> <path class="cls-2" d="M25,25,9.68,40.32a1.42,1.42,0,0,1-2.42-1V26.42A1.42,1.42,0,0,1,8.68,25Z"></path> <path class="cls-2" d="M25,25,40.32,9.68a1.42,1.42,0,0,1,2.42,1V23.58A1.42,1.42,0,0,1,41.32,25Z"></path> </g> </svg> 