<?xml version="1.0" encoding="UTF-8"?> <!-- Generator: Adobe Illustrator 23.0.4, SVG Export Plug-In . SVG Version: 6.00 Build 0) --> <svg xmlns="http://www.w3.org/2000/svg" xmlns:xlink="http://www.w3.org/1999/xlink" x="0px" y="0px" viewBox="0 0 41.6 41.6" style="enable-background:new 0 0 41.6 41.6;" xml:space="preserve"> <style type="text/css"> .st0{fill:#231F20;} .st1{fill-rule:evenodd;clip-rule:evenodd;fill:#EB212E;} .st2{fill-rule:evenodd;clip-rule:evenodd;fill:#004A76;} .st3{fill-rule:evenodd;clip-rule:evenodd;fill:#F4A200;} .st4{fill-rule:evenodd;clip-rule:evenodd;fill:#FFFFFF;} .st5{fill-rule:evenodd;clip-rule:evenodd;fill:#1B1C20;} .st6{fill-rule:evenodd;clip-rule:evenodd;fill:none;stroke:#FFFFFF;stroke-width:2;stroke-miterlimit:10;} .st7{fill:#FFFFFF;} .st8{fill:#EC1C24;} .st9{fill:#7FB439;} .st10{fill:#F9A51A;} .st11{fill:#F6B433;} .st12{fill:#004A76;} .st13{fill:#F9A61A;} .st14{fill:#240036;} .st15{fill:none;stroke:#3A3B39;stroke-width:5;stroke-miterlimit:10;} .st16{fill:#585755;} .st17{fill:#3A3B39;} .st18{fill:#F8B5A7;} .st19{fill:#FFFFFE;} .st20{fill:#F8B5A8;} .st21{fill:#F4A200;} .st22{fill:#DD968A;} .st23{fill:#FEFEFD;} .st24{fill:#B3B8BC;} .st25{fill:#C41627;} .st26{fill:#8DB300;} .st27{fill:#02394F;} .st28{fill:#F6A7A1;} .st29{fill:#F7B5A7;} .st30{fill:#0180A3;} .st31{fill:#45423F;} .st32{fill:#484441;} .st33{fill:#E3E7EB;} .st34{fill:#DD8E03;} .st35{fill:none;stroke:#484441;stroke-width:0.75;stroke-linecap:round;stroke-linejoin:round;stroke-miterlimit:10;} .st36{fill:none;stroke:#D95F73;stroke-linecap:round;stroke-linejoin:round;stroke-miterlimit:10;} .st37{fill:none;stroke:#484441;stroke-width:0.7177;stroke-linecap:round;stroke-linejoin:round;stroke-miterlimit:10;} .st38{fill:none;stroke:#D95F73;stroke-width:0.7177;stroke-linecap:round;stroke-linejoin:round;stroke-miterlimit:10;} .st39{fill:#D95F73;} .st40{fill:#F99200;} .st41{fill:#FA9200;} .st42{fill:none;stroke:#484441;stroke-width:0.1897;stroke-linecap:round;stroke-linejoin:round;stroke-miterlimit:10;} .st43{fill:none;stroke:#D95F73;stroke-width:0.2529;stroke-linecap:round;stroke-linejoin:round;stroke-miterlimit:10;} .st44{fill:#EB212E;} .st45{fill:#EC1C24;stroke:#EC1C24;stroke-width:0.5;stroke-miterlimit:10;} .st46{clip-path:url(#SVGID_2_);fill-rule:evenodd;clip-rule:evenodd;fill:#FFFFFF;} .st47{clip-path:url(#SVGID_2_);fill-rule:evenodd;clip-rule:evenodd;fill:#8DB300;} .st48{fill:none;stroke:#FFFFFF;stroke-width:2;stroke-miterlimit:10;} .st49{fill-rule:evenodd;clip-rule:evenodd;fill:#8DB300;} </style> <g id="Layer_2"> </g> <g id="Layer_1"> <g> <rect x="15.4" y="27.3" class="st2" width="8.4" height="11.5"></rect> <rect x="11.9" y="38.2" class="st2" width="15.3" height="3.4"></rect> <path class="st3" d="M36.3,31.9H2.8C1.3,31.9,0,30.6,0,29V10.4c0-1.6,1.3-2.8,2.8-2.8h33.5c1.6,0,2.8,1.3,2.8,2.8V29 C39.2,30.6,37.9,31.9,36.3,31.9z"></path> <g> <g> <circle class="st4" cx="8.3" cy="18.4" r="2.8"></circle> <path class="st7" d="M8.3,22.6c-2.6,0-4.8,2.1-4.8,4.8h9.6C13.1,24.7,10.9,22.6,8.3,22.6z"></path> </g> <g> <circle class="st4" cx="19.6" cy="18.4" r="2.8"></circle> <path class="st7" d="M19.6,22.6c-2.6,0-4.8,2.1-4.8,4.8h9.6C24.4,24.7,22.2,22.6,19.6,22.6z"></path> </g> <g> <circle class="st4" cx="30.9" cy="18.4" r="2.8"></circle> <path class="st7" d="M30.9,22.6c-2.6,0-4.8,2.1-4.8,4.8h9.6C35.7,24.7,33.5,22.6,30.9,22.6z"></path> </g> </g> <circle class="st2" cx="19.6" cy="8.2" r="2.8"></circle> <circle class="st4" cx="19.6" cy="8.2" r="1.3"></circle> </g> </g> </svg> 