<?xml version="1.0" encoding="UTF-8"?> <!-- Generator: Adobe Illustrator 23.0.4, SVG Export Plug-In . SVG Version: 6.00 Build 0) --> <svg xmlns="http://www.w3.org/2000/svg" xmlns:xlink="http://www.w3.org/1999/xlink" x="0px" y="0px" viewBox="0 0 41.6 41.6" style="enable-background:new 0 0 41.6 41.6;" xml:space="preserve"> <style type="text/css"> .st0{fill:#231F20;} .st1{fill-rule:evenodd;clip-rule:evenodd;fill:#EB212E;} .st2{fill-rule:evenodd;clip-rule:evenodd;fill:#004A76;} .st3{fill-rule:evenodd;clip-rule:evenodd;fill:#F4A200;} .st4{fill-rule:evenodd;clip-rule:evenodd;fill:#FFFFFF;} .st5{fill-rule:evenodd;clip-rule:evenodd;fill:#1B1C20;} .st6{fill-rule:evenodd;clip-rule:evenodd;fill:none;stroke:#FFFFFF;stroke-width:2;stroke-miterlimit:10;} .st7{fill:#FFFFFF;} .st8{fill:#EC1C24;} .st9{fill:#7FB439;} .st10{fill:#F9A51A;} .st11{fill:#F6B433;} .st12{fill:#004A76;} .st13{fill:#F9A61A;} .st14{fill:#240036;} .st15{fill:none;stroke:#3A3B39;stroke-width:5;stroke-miterlimit:10;} .st16{fill:#585755;} .st17{fill:#3A3B39;} .st18{fill:#F8B5A7;} .st19{fill:#FFFFFE;} .st20{fill:#F8B5A8;} .st21{fill:#F4A200;} .st22{fill:#DD968A;} .st23{fill:#FEFEFD;} .st24{fill:#B3B8BC;} .st25{fill:#C41627;} .st26{fill:#8DB300;} .st27{fill:#02394F;} .st28{fill:#F6A7A1;} .st29{fill:#F7B5A7;} .st30{fill:#0180A3;} .st31{fill:#45423F;} .st32{fill:#484441;} .st33{fill:#E3E7EB;} .st34{fill:#DD8E03;} .st35{fill:none;stroke:#484441;stroke-width:0.75;stroke-linecap:round;stroke-linejoin:round;stroke-miterlimit:10;} .st36{fill:none;stroke:#D95F73;stroke-linecap:round;stroke-linejoin:round;stroke-miterlimit:10;} .st37{fill:none;stroke:#484441;stroke-width:0.7177;stroke-linecap:round;stroke-linejoin:round;stroke-miterlimit:10;} .st38{fill:none;stroke:#D95F73;stroke-width:0.7177;stroke-linecap:round;stroke-linejoin:round;stroke-miterlimit:10;} .st39{fill:#D95F73;} .st40{fill:#F99200;} .st41{fill:#FA9200;} .st42{fill:none;stroke:#484441;stroke-width:0.1897;stroke-linecap:round;stroke-linejoin:round;stroke-miterlimit:10;} .st43{fill:none;stroke:#D95F73;stroke-width:0.2529;stroke-linecap:round;stroke-linejoin:round;stroke-miterlimit:10;} .st44{fill:#EB212E;} .st45{fill:#EC1C24;stroke:#EC1C24;stroke-width:0.5;stroke-miterlimit:10;} .st46{clip-path:url(#SVGID_2_);fill-rule:evenodd;clip-rule:evenodd;fill:#FFFFFF;} .st47{clip-path:url(#SVGID_2_);fill-rule:evenodd;clip-rule:evenodd;fill:#8DB300;} .st48{fill:none;stroke:#FFFFFF;stroke-width:2;stroke-miterlimit:10;} .st49{fill-rule:evenodd;clip-rule:evenodd;fill:#8DB300;} </style> <g id="Layer_2"> </g> <g id="Layer_1"> <g> <g> <path class="st3" d="M23.4,36.2H2.8c-1.6,0-2.8-1.3-2.8-2.8V22.7c0-1.6,1.3-2.8,2.8-2.8h20.6c1.6,0,2.8,1.3,2.8,2.8v10.6 C26.3,34.9,25,36.2,23.4,36.2z"></path> <path class="st3" d="M0,31.5v10.1l7.7-7.7C7.7,33.9,0.1,31.6,0,31.5z"></path> </g> <g> <circle class="st4" cx="19.2" cy="28.7" r="1.8"></circle> <circle class="st4" cx="13.1" cy="28.7" r="1.8"></circle> <circle class="st4" cx="7" cy="28.7" r="1.8"></circle> </g> <g> <path class="st1" d="M13.9,24h20.6c1.6,0,2.8-1.3,2.8-2.8V10.6c0-1.6-1.3-2.8-2.8-2.8H13.9C12.3,7.8,11,9,11,10.6v10.6 C11,22.8,12.3,24,13.9,24z"></path> <path class="st1" d="M37.3,19.3v10.1l-7.7-7.7C29.5,21.8,37.2,19.5,37.3,19.3z"></path> </g> <g> <line class="st48" x1="16.2" y1="13.1" x2="32.1" y2="13.1"></line> <line class="st48" x1="16.2" y1="18.3" x2="27.1" y2="18.3"></line> </g> </g> </g> </svg> 