<svg width="61" height="56" xmlns="http://www.w3.org/2000/svg">

 <g>
  <title>background</title>
  <rect fill="none" id="canvas_background" height="58" width="63" y="-1" x="-1"/>
 </g>
 <g>
  <title>Layer 1</title>
  <path id="svg_1" fill="#004A76" d="m37.050669,33.623902l-12.768,0l0,17.48l12.768,0l0,-17.48z"/>
  <path id="svg_2" fill="#004A76" d="m42.218569,50.343902l-23.256,0l0,5.168l23.256,0l0,-5.168z"/>
  <path id="svg_3" fill="#F4A200" d="m56.202669,40.615902l-51.072,0c-2.432,0 -4.25599,-1.976 -4.25599,-4.256l0,-28.272c0,-2.432 1.97599,-4.408 4.25599,-4.408l50.92,0c2.432,0 4.256,1.976 4.256,4.256l0,28.272c0.152,2.584 -1.824,4.408 -4.104,4.408z" clip-rule="evenodd" fill-rule="evenodd"/>
  <path id="svg_4" fill="white" d="m13.490769,24.503902c2.3505,0 4.256,-1.9054 4.256,-4.256c0,-2.3505 -1.9055,-4.256 -4.256,-4.256c-2.3505,0 -4.256,1.9055 -4.256,4.256c0,2.3506 1.9055,4.256 4.256,4.256z"/>
  <path id="svg_5" fill="white" d="m13.490769,26.632002c-3.952,0 -7.296,3.192 -7.296,7.296l14.592,0c0,-4.104 -3.192,-7.296 -7.296,-7.296z"/>
  <path id="svg_6" fill="white" d="m30.666769,24.503902c2.3506,0 4.256,-1.9054 4.256,-4.256c0,-2.3505 -1.9054,-4.256 -4.256,-4.256c-2.3505,0 -4.256,1.9055 -4.256,4.256c0,2.3506 1.9055,4.256 4.256,4.256z"/>
  <path id="svg_7" fill="white" d="m30.666769,26.632002c-3.952,0 -7.296,3.192 -7.296,7.296l14.592,0c0,-4.104 -3.344,-7.296 -7.296,-7.296z"/>
  <path id="svg_8" fill="white" d="m47.842869,24.503902c2.3505,0 4.256,-1.9054 4.256,-4.256c0,-2.3505 -1.9055,-4.256 -4.256,-4.256c-2.3506,0 -4.256,1.9055 -4.256,4.256c0,2.3506 1.9054,4.256 4.256,4.256z"/>
  <path id="svg_9" fill="white" d="m47.842769,26.632002c-3.952,0 -7.296,3.192 -7.296,7.296l14.592,0c0,-4.104 -3.344,-7.296 -7.296,-7.296z"/>
  <path id="svg_10" fill="#004A76" d="m30.666569,8.999902c2.3505,0 4.256,-1.9055 4.256,-4.256c0,-2.3505 -1.9055,-4.256 -4.256,-4.256c-2.3505,0 -4.256,1.9055 -4.256,4.256c0,2.3505 1.9055,4.256 4.256,4.256z"/>
  <path id="svg_11" fill="white" d="m30.666569,6.719902c1.0913,0 1.976,-0.8846 1.976,-1.976c0,-1.0913 -0.8847,-1.976 -1.976,-1.976c-1.0913,0 -1.976,0.8847 -1.976,1.976c0,1.0914 0.8847,1.976 1.976,1.976z"/>
 </g>
</svg>