<svg width="203" height="177" viewBox="0 0 203 177" fill="none" xmlns="http://www.w3.org/2000/svg">
<path d="M13.0857 88.3838C13.0857 88.3838 12.3847 96.7614 13.9736 105.465C15.5157 114.122 21.0299 118.59 21.0299 118.59" stroke="#3A3B39" stroke-width="5" stroke-miterlimit="10"/>
<path d="M32.9453 124.175V156.661" stroke="#3A3B39" stroke-width="5" stroke-miterlimit="10"/>
<path d="M193.514 96.7612C193.514 96.7612 192.065 105.465 188.701 110.305C183.7 117.566 178.98 120.777 178.98 120.777" stroke="#3A3B39" stroke-width="5" stroke-miterlimit="10"/>
<path d="M166.082 124.175V156.661" stroke="#3A3B39" stroke-width="5" stroke-miterlimit="10"/>
<path d="M194.26 76.5156C194.26 76.5156 201.504 78.3308 200.663 88.1512C199.634 99.9264 188.98 99.1351 188.139 99.4609C187.297 99.7402 190.615 84.8932 190.615 84.8932L194.26 76.5156Z" fill="#585755"/>
<path d="M149.912 118.59C149.912 118.59 153.277 125.99 166.221 125.664C179.166 125.338 180.848 122.174 180.942 121.382C181.035 120.545 181.035 115.472 180.147 114.773C179.259 114.029 162.67 113.61 162.67 113.61L149.912 118.59Z" fill="#585755"/>
<path d="M164.354 164.713C165.258 164.713 165.99 163.984 165.99 163.084C165.99 162.184 165.258 161.455 164.354 161.455C163.451 161.455 162.719 162.184 162.719 163.084C162.719 163.984 163.451 164.713 164.354 164.713Z" fill="#3A3B39"/>
<path d="M177.673 162.758C178.576 162.758 179.308 162.029 179.308 161.129C179.308 160.23 178.576 159.5 177.673 159.5C176.769 159.5 176.037 160.23 176.037 161.129C176.037 162.029 176.769 162.758 177.673 162.758Z" fill="#3A3B39"/>
<path d="M152.671 162.665C153.574 162.665 154.306 161.936 154.306 161.036C154.306 160.137 153.574 159.407 152.671 159.407C151.767 159.407 151.035 160.137 151.035 161.036C151.035 161.936 151.767 162.665 152.671 162.665Z" fill="#3A3B39"/>
<path d="M165.616 155.497C164.308 155.591 159.681 156.242 157.906 156.987C156.784 157.499 154.448 157.964 152.905 158.616C151.737 159.081 151.13 160.012 151.176 160.617C151.27 161.222 151.971 160.85 151.971 160.757C151.924 160.664 153.046 159.593 153.046 159.593C153.046 159.593 153.419 159.128 155.382 158.662C156.13 158.476 156.41 158.476 156.41 158.476C156.41 158.476 156.691 159.965 158.42 160.012C160.149 160.105 165.616 159.965 168.701 159.826C173.981 159.593 174.682 156.289 171.925 155.87C169.028 155.497 167.906 155.358 165.616 155.497Z" fill="#3A3B39"/>
<path d="M162.624 159.268C162.577 159.361 161.876 161.176 162.11 162.34C162.344 163.503 162.624 163.876 163.091 164.108C163.559 164.341 163.746 163.689 163.746 163.689C163.746 163.689 163.465 162.247 163.419 162.247C163.325 162.247 162.998 162.014 163.278 161.223C163.559 160.431 164.26 159.035 164.26 159.035L162.624 159.268Z" fill="#3A3B39"/>
<path d="M172.344 157.08C172.344 157.08 175.989 158.011 177.391 158.569C178.84 159.128 179.494 160.431 179.307 161.222C179.12 162.014 178.373 160.897 178.232 160.757C178.092 160.617 178.232 159.593 176.737 159.221C175.242 158.849 170.615 157.918 170.615 157.918L172.344 157.08Z" fill="#3A3B39"/>
<path d="M13.0382 65.9038C13.0382 65.9038 2.33681 70.8373 3.17797 80.6577C4.20606 92.4329 11.87 95.2254 12.6644 95.5046C13.5055 95.7839 16.6365 74.2349 16.6365 74.2349L13.0382 65.9038Z" fill="#585755"/>
<path d="M49.8157 119.195C49.8157 119.195 46.4511 126.595 33.5066 126.269C20.5153 125.99 18.8797 122.779 18.7863 121.987C18.6928 121.15 18.6928 116.077 19.5807 115.378C20.4686 114.634 37.0581 114.215 37.0581 114.215L49.8157 119.195Z" fill="#585755"/>
<path d="M32.5731 164.713C33.4764 164.713 34.2087 163.984 34.2087 163.084C34.2087 162.184 33.4764 161.455 32.5731 161.455C31.6698 161.455 30.9375 162.184 30.9375 163.084C30.9375 163.984 31.6698 164.713 32.5731 164.713Z" fill="#3A3B39"/>
<path d="M21.4032 162.758C22.3065 162.758 23.0388 162.029 23.0388 161.129C23.0388 160.23 22.3065 159.5 21.4032 159.5C20.4999 159.5 19.7676 160.23 19.7676 161.129C19.7676 162.029 20.4999 162.758 21.4032 162.758Z" fill="#3A3B39"/>
<path d="M46.4032 162.665C47.3065 162.665 48.0388 161.936 48.0388 161.036C48.0388 160.137 47.3065 159.407 46.4032 159.407C45.4999 159.407 44.7676 160.137 44.7676 161.036C44.7676 161.936 45.4999 162.665 46.4032 162.665Z" fill="#3A3B39"/>
<path d="M33.4589 155.497C34.7673 155.591 39.3937 156.242 41.1695 156.987C42.291 157.499 44.6276 157.964 46.1697 158.616C47.338 159.081 47.9455 160.012 47.8988 160.617C47.8053 161.222 47.1044 160.85 47.1044 160.757C47.1511 160.664 46.0295 159.593 46.0295 159.593C46.0295 159.593 45.6557 159.128 43.693 158.662C42.9453 158.476 42.6649 158.476 42.6649 158.476C42.6649 158.476 42.3845 159.965 40.6555 160.012C38.9264 160.105 33.4589 159.965 30.3746 159.826C25.094 159.593 24.393 156.289 27.1502 155.87C30.0475 155.497 31.169 155.358 33.4589 155.497Z" fill="#3A3B39"/>
<path d="M30.796 159.268C30.7492 159.361 30.0483 161.176 30.2819 162.34C30.5156 163.503 30.796 163.876 31.2633 164.108C31.7306 164.341 31.9175 163.689 31.9175 163.689C31.9175 163.689 31.6371 162.247 31.5904 162.247C31.4969 162.247 31.1698 162.014 31.4502 161.223C31.7306 160.431 32.4316 159.035 32.4316 159.035L30.796 159.268Z" fill="#3A3B39"/>
<path d="M26.7305 157.08C26.7305 157.08 23.0855 158.011 21.6835 158.569C20.2349 159.128 19.5806 160.431 19.7675 161.222C19.9545 162.014 20.7022 160.897 20.8424 160.757C20.9826 160.617 20.8424 159.593 22.3378 159.221C23.8332 158.849 28.4595 157.918 28.4595 157.918L26.7305 157.08Z" fill="#3A3B39"/>
<path d="M116.593 14.1028C116.593 14.1028 114.677 14.7544 114.444 16.9418C114.21 19.1293 113.93 25.5056 114.07 26.995C114.21 28.4843 114.958 30.4856 116.967 30.7649C117.481 30.8114 117.668 35.7914 117.668 35.7914C117.668 35.7914 114.724 36.6757 113.93 36.955C113.135 37.2342 111.032 44.7275 119.21 45.8911C127.388 47.0546 128.65 44.5414 129.584 42.8658C130.519 41.1903 130.566 36.9084 130.566 36.9084C130.566 36.9084 125.986 36.0241 125.659 34.721C124.678 31.1838 125.332 25.6918 125.332 25.6918L124.07 18.1985L122.622 13.0788L118.089 12.4272L116.593 14.1028Z" fill="#F8B5A7"/>
<path d="M40.9358 16.1504C41.0292 16.1969 44.207 18.3379 45.0481 21.2235C45.6089 23.2713 45.0948 23.7368 45.3285 24.2022C45.5154 24.6676 46.5435 26.6224 46.7304 27.0413C46.9174 27.4601 45.936 28.1117 45.8425 28.2514C45.7958 28.391 45.9827 31.0439 45.8425 32.0678C45.6556 33.2779 42.8517 33.883 42.8517 33.883L42.5246 39.6077L45.9827 41.8417L37.3842 46.6821C37.3842 46.6821 31.4961 40.7247 31.4961 39.8404L35.1879 38.1183L35.7019 32.7194L36.8702 29.7407L33.1784 25.5519L40.9358 16.1504Z" fill="#F8B5A7"/>
<path d="M111.407 37.839L114.024 36.9547C114.024 36.9547 116.548 44.5877 122.81 44.1222C129.633 43.5637 130.427 36.9082 130.427 36.9082C130.427 36.9082 133.324 37.746 133.371 37.8856C133.418 38.0252 131.268 46.6355 131.315 46.7286C131.362 46.8217 129.539 48.823 128.371 49.1488C127.249 49.4746 118.838 49.7073 118.838 49.7073C118.838 49.7073 113.978 48.4972 113.09 47.7991C112.202 47.0544 110.52 43.6103 110.52 43.6103L111.407 37.839Z" fill="#FFFFFE"/>
<path d="M76.1255 52.3604C75.7984 50.9175 75.2844 49.5213 74.7236 48.1716C74.4432 47.4269 74.0226 46.9615 73.2282 46.6357C71.8263 46.0306 68.5551 44.5413 68.8822 44.2155C69.2093 43.8897 71.4524 44.5413 72.9478 44.6809C71.6394 43.6104 69.1626 42.1676 69.4897 41.7953C69.8168 41.4229 73.9759 43.4708 74.0694 43.3777C74.3965 43.145 71.359 39.3285 71.873 39.1424C72.3871 38.9562 74.5834 41.6556 76.0788 42.7727C75.7517 41.0506 74.1161 37.653 74.7236 37.6065C75.3311 37.5599 76.8732 40.6783 77.434 42.2141C77.9013 43.4242 78.3219 43.7035 79.4434 43.0054C80.1444 42.5865 81.6398 41.8418 81.9202 42.2607C82.1538 42.6796 80.7519 43.7035 80.051 44.2155C79.4902 44.6343 79.2565 45.0067 79.5369 45.7048C79.9108 46.7753 80.0977 47.8458 80.3781 48.9162C80.0977 49.6144 79.4434 49.754 78.8827 50.0332C77.7611 50.6848 76.733 51.2433 76.1255 52.3604Z" fill="#F8B5A8"/>
<path d="M75.6113 50.7313C75.6113 50.7313 79.3031 49.5678 80.3779 49.0093C81.4527 51.7553 82.9014 55.5252 83.6491 58.4108C83.6491 58.8762 82.9014 57.9454 82.5743 57.8523C80.6583 57.5265 78.789 57.2007 76.9665 56.5026C76.8263 56.456 76.7796 56.3164 76.6861 56.2233C76.4992 54.9201 75.6113 50.7313 75.6113 50.7313Z" fill="#EC1C24"/>
<path d="M53.4607 61.2031L57.1991 77.2602L67.4333 77.4464L66.0781 83.7296C66.0781 83.7296 50.9372 85.4982 49.7689 85.5912C48.6006 85.6843 44.8621 77.586 44.7687 76.8879C44.6752 76.1897 44.4883 64.5542 44.4883 64.5542L53.4607 61.2031Z" fill="#F8B5A7"/>
<path d="M52.5726 57.5728L53.4605 61.2031L46.9649 63.5302L45.7031 59.7137L52.5726 57.5728Z" fill="#FFFFFE"/>
<path d="M115.053 14.5214C113.698 13.7301 113.043 12.6131 112.95 10.8911C112.81 8.98283 113.464 7.58656 115.193 6.7488C117.67 5.8645 118.885 8.23815 119.305 9.68096C119.492 10.3326 119.819 10.5653 120.427 10.7049C122.203 11.0772 123.932 11.5892 123.979 13.9163C123.979 14.1956 124.165 14.2886 124.399 14.3817C125.614 14.9402 126.035 16.0107 126.128 17.2208C126.362 20.2926 125.941 23.3178 125.287 26.3431C124.773 26.7154 124.212 26.762 123.792 26.2965C123.324 25.7846 123.745 25.3657 123.979 24.9468C124.072 24.7606 124.259 24.5745 124.352 24.3883C124.586 24.0625 124.726 23.7367 124.539 23.3644C124.119 22.5732 123.465 23.1317 123.184 23.3178C121.782 24.3418 122.016 24.8537 121.735 22.6662C121.549 20.1995 120.707 17.6862 121.969 15.1264C120.707 15.0799 119.586 15.3591 118.464 15.266C117.389 15.1264 116.408 15.266 115.053 14.5214Z" fill="#F4A200"/>
<path d="M143.793 87.8719C139.915 87.3599 136.129 86.6152 132.297 85.8706C131.737 85.5913 131.55 85.0794 131.316 84.5674C129.213 80.0528 127.157 75.4917 125.241 70.9305C124.4 68.8827 123.091 67.9984 120.848 68.0915C113.839 68.4172 106.829 68.6034 99.8193 68.6965C96.8753 68.743 96.6416 69.2085 97.8099 71.9545C99.5389 76.0967 101.175 80.239 102.904 84.3812C103.09 84.8001 103.184 85.2655 103.137 85.7309C103.044 86.2429 102.717 86.6618 102.343 87.0341C99.7259 89.5009 96.8285 91.4556 93.2302 92.2003C92.1087 92.4796 91.0339 92.5727 89.9123 92.2003C87.2954 91.0833 85.9402 88.8493 84.7252 86.4756C84.3981 84.9863 84.8654 83.6831 85.6131 82.4265C86.5944 82.1007 86.9683 81.4025 86.9683 80.4251C86.9683 79.3547 87.529 78.2377 86.8748 77.1672C86.8281 75.4451 87.4823 73.8627 87.9496 72.2337C87.9963 72.001 87.1085 70.6047 87.3888 70.6513C88.0898 71.9079 89.3048 74.5143 90.1927 76.0036C91.1273 77.9119 91.9218 78.7962 92.576 80.0993C92.0152 77.8188 91.8283 75.3055 91.361 72.7457C94.7724 64.2285 98.1837 55.6647 101.875 47.2871C103.605 43.3775 106.315 40.4454 110.007 38.351C110.334 38.1648 111.268 37.7925 111.409 37.7925C111.782 45.9839 121.549 49.3349 126.83 46.7286C130.054 45.1461 132.064 42.5863 132.998 39.1887C133.139 38.6302 133.326 37.839 133.326 37.839C133.326 37.839 134.167 38.1183 134.681 38.3044C137.625 39.3749 140.522 40.5385 143.373 41.7951C145.382 42.6794 146.644 44.2618 147.625 46.077C150.102 50.6847 151.177 55.7578 152.158 60.8309C152.485 62.5995 152.766 64.4146 153.093 66.1832C152.392 70.6047 151.457 75.0262 150.943 79.4943C150.663 81.7749 150.429 84.102 150.195 86.3825C150.195 87.2203 150.663 88.1511 149.915 88.8958C149.167 88.9889 148.42 88.7096 147.719 88.57C147.064 88.2442 146.971 87.6392 146.878 87.0341C145.616 80.0528 143.933 73.1646 143.139 66.1367C143.092 65.6713 142.952 65.2524 142.765 64.88C142.625 64.7404 142.625 65.0662 142.718 64.9266C142.765 64.88 142.812 64.88 142.859 65.0197C143.419 66.9744 143.513 68.9758 143.606 70.9771C143.887 75.7244 144.167 80.4717 144.494 85.1724C144.541 85.7309 144.541 86.2895 144.448 86.848C144.401 87.3134 144.494 87.8719 143.793 87.8719Z" fill="#EC1C24"/>
<path d="M117.016 30.7646C117.857 30.9043 118.838 31.0439 119.913 31.0904C118.932 31.649 118.044 31.9747 117.343 31.8817C117.343 31.5559 117.156 31.137 117.016 30.7646Z" fill="#DD968A"/>
<path d="M117.716 35.791C117.716 35.791 117.95 36.908 117.996 37.7923C117.529 37.0942 116.828 36.0703 116.828 36.0703L117.716 35.791Z" fill="#DD968A"/>
<path d="M129.306 85.4047C127.904 85.172 126.502 84.9393 125.1 84.66C124.679 84.567 124.305 84.4739 123.932 84.7531C123.324 84.8928 122.717 84.7531 122.156 84.567C120.38 84.0085 118.698 84.1015 116.969 84.7997C116.128 85.1255 115.193 85.3116 114.305 85.5909C113.884 85.7305 113.23 85.7771 113.277 86.3356C113.37 87.0337 114.071 86.8475 114.539 86.8941C115.613 86.9406 116.688 86.801 117.716 86.9872C118.417 87.1268 120.24 86.9872 120.24 88.1042C120.146 88.1507 119.165 88.3369 119.072 88.3369C115.193 88.6161 111.314 88.4765 107.436 88.43C106.735 88.43 106.361 87.918 106.127 87.313C103.931 82.1468 101.688 77.0271 99.538 71.8609C98.9772 70.5112 99.2576 70.1389 100.8 70.0458C100.987 70.0458 100.753 70.0458 100.94 70.0458C107.716 70.1854 114.492 69.6269 121.268 69.72C122.81 69.7665 123.651 70.232 124.259 71.6282C125.894 75.5378 127.717 79.3542 129.446 83.2638C129.633 83.6827 129.82 84.1015 129.913 84.567C129.96 85.0789 130.007 85.5444 129.306 85.4047Z" fill="#FEFEFD"/>
<path d="M129.307 85.4048C129.868 85.3117 129.774 84.9859 129.587 84.6136C127.531 80.0525 125.428 75.4448 123.419 70.8371C123.138 70.2321 122.765 70.139 122.204 70.139C114.914 70.2786 107.624 70.4182 100.334 70.5113C99.5859 70.5113 99.4924 70.744 99.7728 71.3956C102.063 76.7014 104.306 82.0072 106.596 87.3131C106.829 87.8716 107.203 88.0577 107.764 88.0577C111.643 88.0112 120.148 87.9181 120.148 87.9181C120.148 87.9181 120.288 87.8716 120.521 88.3835C122.858 89.5936 125.195 90.8037 127.531 91.9673C120.194 91.9673 112.904 91.9673 105.567 92.0138C104.493 89.7798 100.427 79.587 99.2121 76.4687C98.4644 74.5139 97.6232 72.6057 96.8288 70.6509C96.2213 69.115 96.5484 68.51 98.1372 68.4635C102.203 68.2773 117.484 68.3704 121.035 68.1377C123.372 67.998 124.681 68.9289 125.568 71.0233C127.765 76.1429 130.008 80.7506 132.298 85.8702C131.316 85.7306 130.288 85.5444 129.307 85.4048Z" fill="#B3B8BC"/>
<path d="M143.792 87.8719L142.857 64.0889C142.857 64.0889 143.699 68.4173 144.072 70.4186C145.287 76.4691 146.175 82.6127 147.717 88.6166C146.456 88.3839 143.792 87.8719 143.792 87.8719Z" fill="#C41627"/>
<path d="M124.54 84.7072C124.54 84.7072 120.194 83.5437 120.053 83.5902C119.913 83.6368 112.67 85.8243 112.67 85.8243L112.717 87.3136L117.997 87.2671L120.895 88.3841L124.54 84.7072Z" fill="#F8B5A7"/>
<path d="M103.977 105.791C102.435 100.438 98.0421 98.9489 93.3223 97.8785C93.3223 97.4131 93.6494 97.5061 93.9298 97.5061C99.3506 97.5061 104.725 97.5061 110.145 97.5061C110.286 97.5061 110.426 97.5992 110.519 97.6458C108.603 98.8093 106.687 99.9263 105.472 101.928C104.725 103.138 104.678 104.581 103.977 105.791Z" fill="#8DB300"/>
<path d="M135.615 137.114C135.521 136.695 135.381 136.322 135.381 135.904C135.381 129.807 135.381 123.663 135.428 117.566C137.484 118.357 139.68 118.683 141.83 119.241C142.391 119.381 142.951 119.614 143.512 119.8C145.335 131.529 147.017 143.164 148.839 154.893C148.886 155.079 148.933 155.544 148.933 155.544L143.652 155.358C143.699 155.312 138.185 143.211 135.615 137.114Z" fill="#02394F"/>
<path d="M143.512 154.939L148.886 154.893C148.886 154.893 150.008 161.781 149.774 161.781C149.587 161.781 140.428 161.967 140.428 161.967L144.914 158.849L143.512 154.939Z" fill="#3A3B39"/>
<path d="M122.857 157.266C121.735 155.358 115.52 144.979 114.399 141.535C113.23 138.789 112.015 136.09 110.847 133.344C108.277 127.247 103.323 110.585 103.744 105.884C104.165 101.136 106.735 98.949 110.613 97.3665C110.847 97.32 111.127 97.2734 111.361 97.2734C116.969 97.2734 122.577 97.2734 128.231 97.2734C130.287 97.2734 130.521 97.5062 130.568 99.6471C130.568 106.628 130.895 116.635 130.895 116.635L128.044 115.471L126.222 114.727C126.222 114.727 119.819 112.586 116.688 111.422C115.286 110.678 113.791 110.166 112.389 109.561C114.118 111.422 116.174 113.098 117.81 115.146C118.464 116.728 118.745 118.357 119.118 119.986C120.287 124.733 121.548 129.434 122.67 134.228C124.493 141.256 125.801 148.516 127.624 155.591C127.81 156.242 128.091 157.127 128.044 157.173C126.268 157.406 124.446 157.778 122.857 157.266Z" fill="#004A76"/>
<path d="M122.763 157.08L127.997 156.987L129.96 164.527H120.707L125.053 161.455L122.763 157.08Z" fill="#3A3B39"/>
<path d="M12.1976 76.0036C12.1976 70.1393 14.908 51.9413 26.1235 42.1674C27.8058 41.0039 29.6283 40.1661 31.7312 39.7007C31.8247 39.7938 32.0583 40.073 32.1985 40.3057C34.8155 43.4706 38.2736 43.2844 42.0588 42.7725C44.4888 42.4467 45.844 41.7951 45.9842 41.8416C48.3675 42.9121 49.5825 45.0065 50.2835 47.2871C50.9844 49.5211 51.6854 52.7325 52.1994 55.6647C52.2462 56.037 52.5733 57.5729 52.5733 57.5729C52.5733 57.5729 48.5077 58.9226 48.461 58.9226C47.9469 58.9226 51.0312 62.1806 49.1152 67.7656C48.274 70.1393 47.2459 70.977 47.5731 73.2111C48.1338 77.2137 48.3675 78.098 48.3675 78.098C48.3675 78.098 44.9094 81.8214 44.2084 81.8214C43.3673 81.5421 43.5075 78.6565 43.0869 78.0515C40.984 72.5129 38.9278 66.9744 36.8716 61.3893C36.5445 60.412 36.1239 59.4811 35.7968 58.5037C35.5164 57.666 35.0959 57.4333 34.208 57.8521C30.9835 59.388 27.7123 60.8308 24.4412 62.3202C22.899 63.0183 22.899 63.1114 23.5065 64.6473C23.7402 65.2523 23.9739 65.8574 24.2542 66.4624C27.0581 73.2111 30.0489 79.8666 34.1145 86.0102C35.4697 88.058 37.0118 90.0128 39.2082 91.316C39.4886 91.5022 39.9559 91.6883 39.5353 92.1537C38.9278 92.5261 38.2736 92.433 37.6193 92.433C35.423 92.433 33.2266 92.433 31.0303 92.433C30.0956 92.433 29.7218 92.7588 29.6751 93.7362C29.5349 96.901 29.4881 96.8545 32.6658 96.901C34.9557 96.9476 37.2455 96.6218 39.4886 97.1338C40.1896 97.8784 39.4886 98.4369 39.1147 98.9489C36.8716 102.114 34.5818 105.186 32.292 108.257C29.9554 111.422 27.6189 114.634 25.2823 117.799C24.9085 118.31 23.8337 119.009 23.8337 119.009C23.8337 119.009 21.9644 117.38 21.2167 116.356C16.824 110.398 12.1509 102.44 12.1976 76.0036Z" fill="#8DB300"/>
<path d="M89.083 59.0807L72.7695 55.1826L65.9228 83.6044L82.2363 87.5025L89.083 59.0807Z" fill="#B3B8BC"/>
<path d="M141.83 97.5524C144.821 98.4367 147.812 99.321 150.803 100.159C151.176 100.298 151.504 100.485 151.737 100.857C154.448 103.417 157.158 105.976 159.915 108.443C161.411 109.746 162.859 111.143 164.308 112.492C166.411 114.401 168.56 116.262 170.523 118.31C170.757 118.589 172.439 118.31 172.019 118.869C169.028 120.172 164.729 121.01 161.504 121.242C158.887 121.428 150.289 121.149 143.466 119.753C136.643 118.357 135.148 117.565 135.054 117.193C134.914 116.635 134.914 116.076 134.914 115.518C134.914 110.212 134.914 104.906 134.914 99.6468C134.914 97.4593 135.148 97.2731 137.344 97.2266C138.886 97.2266 140.382 97.2731 141.83 97.5524Z" fill="#004A76"/>
<path d="M103.977 105.79C103.93 105.884 103.93 105.977 103.977 106.07C104.117 107.28 104.211 108.49 103.884 109.7C102.529 115.332 99.7247 120.265 96.9208 125.245C94.7244 129.294 92.2009 133.111 89.1167 136.508C84.3034 142.745 79.3966 148.889 74.7702 155.265C73.0412 155.404 70.985 156.103 69.3494 155.265C70.0971 153.403 71.2187 151.262 71.9664 149.447C72.1533 148.982 72.1533 148.423 72.5271 148.004C78.7891 140.325 85.4249 132.878 90.7056 124.454C92.3411 121.848 93.7898 119.148 94.8179 116.216C95.5189 114.308 95.3319 112.493 94.4908 110.677C92.014 105.092 87.7615 102.393 81.593 102.067C78.8358 101.927 76.1254 102.393 73.3683 102.16C73.1814 100.997 74.2095 100.345 74.63 99.4607C74.817 99.0884 75.2843 98.7626 75.0506 98.3437C74.817 97.9714 74.3029 98.111 73.8823 98.111C67.0129 98.111 60.1434 98.111 53.2739 98.111C52.5262 98.111 51.7785 98.2506 51.1243 97.7387C51.0775 97.5525 51.1243 97.4129 51.3112 97.2733C51.9187 96.9475 52.5729 96.994 53.2272 96.994C65.1436 96.994 77.1068 96.994 89.0232 96.994C89.7242 96.994 90.4252 96.994 91.1261 97.1802C91.8271 97.4129 92.5748 97.4129 93.229 97.599C95.9394 97.9248 98.4162 98.9022 100.613 100.438C102.435 101.648 104.024 103.231 103.977 105.79Z" fill="#F6A7A1"/>
<path d="M51.1694 97.5527C59.4409 97.5527 67.759 97.5527 76.3108 97.5527C75.236 99.2283 74.3014 100.671 73.3667 102.114C68.8805 108.583 64.4878 115.146 60.1886 121.708C57.2445 122.779 54.207 123.244 51.1227 123.803C50.6087 123.291 50.6554 122.592 50.6554 121.941C50.6554 114.401 50.6554 106.861 50.6554 99.3679C50.7021 98.7628 50.6087 98.1112 51.1694 97.5527Z" fill="#F4A200"/>
<path d="M164.586 39.4216C164.493 39.5147 164.399 39.6078 164.306 39.7009C163.839 40.0732 163.465 40.5387 162.811 40.5387C161.268 41.0506 159.726 41.6557 158.044 41.1902C155.193 40.4456 153.651 37.1411 155.1 34.5347C156.081 32.7661 157.577 31.4164 159.259 30.2528C159.773 31.9749 160.427 33.6039 161.689 34.9071C162.156 33.3246 161.315 31.7887 161.128 30.1597C163.792 29.6943 165.007 27.693 166.035 25.459C166.736 23.8765 167.857 23.1784 169.493 23.1784C168.044 22.8992 166.596 22.8061 165.755 21.5029C165.334 20.9444 164.773 20.479 164.633 19.7808C164.399 18.8034 164.867 18.0588 165.614 17.5003C166.549 16.8021 167.53 16.9883 168.325 17.6864C170.054 19.1758 171.736 20.7117 173.559 22.0614C174.587 22.8061 174.774 24.0162 174.774 25.2263C174.82 27.9723 174.213 30.5321 172.951 32.9988C172.25 33.8366 171.222 33.8366 170.287 34.0693C169.773 34.2089 169.4 33.8831 169.306 33.3246C169.119 32.2076 169.072 31.0906 170.287 30.3925C170.568 30.2063 170.848 30.0201 171.035 29.7874C171.362 29.4151 171.783 28.9496 171.316 28.4377C170.895 27.9723 170.381 28.1584 169.914 28.3911C169.119 28.7635 169.026 29.5082 168.886 30.2528C168.325 32.5799 167.577 34.907 166.456 37.048C166.035 37.9323 165.474 38.8166 164.586 39.4216Z" fill="#004A76"/>
<path d="M89.1172 136.509C91.7341 132.739 94.3511 128.969 96.9213 125.246C97.6223 129.9 98.37 134.507 99.0709 139.162C99.8654 144.281 100.613 149.354 101.361 154.474C101.407 154.66 101.548 155.451 101.548 155.638C100.473 156.615 99.2579 157.127 97.8092 157.08C95.3792 152.147 93.1361 146.329 91.0332 141.256C90.3789 139.674 89.7714 138.091 89.1172 136.509Z" fill="#8DB300"/>
<path d="M41.265 22.7597C40.3771 23.644 39.8163 24.9472 39.3023 26.1107C39.0219 26.7623 38.7415 27.0881 38.1808 26.3435C38.0873 26.2504 37.9938 26.1573 37.9004 26.0642C37.2461 25.5057 36.5919 24.9937 35.7507 25.7384C34.9563 26.4365 35.3769 27.4605 36.0779 27.9724C36.6854 28.4379 37.7602 28.624 37.62 29.741C37.4331 31.0442 36.7788 32.0681 35.6573 32.8128C34.3021 30.9977 32.3394 29.7876 30.7505 28.2517C30.7038 28.2051 30.5168 28.2982 30.3767 28.3448C27.0587 24.6679 27.5728 20.4326 29.442 17.8262C29.8159 17.3143 30.1897 16.7558 30.8907 16.6161C33.6478 15.1268 36.5919 14.9872 39.5827 15.7318C40.8912 16.0576 42.2464 16.8023 42.7604 17.6866C43.5548 19.2225 41.8725 22.1081 41.265 22.7597Z" fill="#EC1C24"/>
<path d="M30.9348 16.6157C27.944 19.4083 27.43 24.0625 30.0002 27.1808C30.2806 27.5066 30.7479 28.1582 30.7479 28.2047C30.374 30.2061 29.86 32.6728 29.2057 34.6276C29.0656 35.093 28.8319 34.9999 28.3646 35.0464C26.215 35.2792 24.1121 35.5119 21.9624 35.7911C21.2147 35.8842 21.0278 36.0704 21.168 35.3722C22.1961 30.9507 22.5232 26.0173 22.1961 21.5027C22.1026 20.246 22.383 18.9894 23.0372 17.8724C24.6261 14.9402 28.2244 14.4283 30.9348 16.6157Z" fill="#C41627"/>
<path d="M164.588 39.4214C166.831 36.303 168.046 32.7658 168.84 29.089C169.027 28.2047 170.429 27.46 171.317 27.7393C172.112 27.972 172.299 28.5305 171.971 29.2752C171.644 29.9733 171.037 30.4387 170.383 30.8111C170.009 31.0438 169.635 31.2765 169.635 31.835C169.495 33.8828 169.541 33.9759 171.551 33.4174C172.065 33.2778 172.532 33.1382 173.046 33.0451C173.327 34.3483 173.607 35.698 173.887 37.0012C170.663 37.3735 167.532 37.9786 164.588 39.4214Z" fill="#F7B5A7"/>
<path d="M114.398 141.535C116.081 144.886 117.763 148.191 119.445 151.542C119.258 152.426 118.931 153.078 118.698 153.962C117.202 154.614 115.847 154.753 114.352 154.195C114.352 149.959 114.352 145.724 114.398 141.535Z" fill="#8DB300"/>
<path d="M165.802 21.5493C167.017 22.2009 168.279 22.806 170.101 23.1318C167.718 23.5041 166.643 24.7607 165.942 26.5293C165.522 27.5533 164.821 28.4376 164.026 29.2753C163.232 30.0665 162.344 30.4389 161.222 30.1596C160.662 30.1131 160.241 29.7873 159.867 29.4149C160.101 28.9961 159.82 28.7168 159.587 28.4376C159.353 28.1118 159.26 27.786 159.54 27.4136C161.503 25.2727 163.045 22.7594 165.802 21.5493Z" fill="#F8B5A7"/>
<path d="M159.914 29.3685C160.568 29.2754 160.895 29.7408 161.269 30.1132C162.063 31.7421 162.531 33.4642 161.97 35.4655C160.334 33.9762 159.119 32.4868 159.306 30.2528C159.493 29.9735 159.68 29.6943 159.914 29.3685Z" fill="#02394F"/>
<path d="M91.3595 72.792C91.7801 74.0952 92.668 78.7959 92.8549 81.03C91.8736 79.3545 90.8455 77.8651 90.1445 75.9569C90.5651 74.9329 90.9857 73.8159 91.3595 72.792Z" fill="#C41627"/>
<path d="M151.457 100.904C153.046 101.974 154.588 103.045 156.177 104.115C161.972 108.397 167.766 112.679 173.608 116.914C173.841 117.1 174.028 117.287 174.215 117.473C173.327 118.264 172.159 118.962 170.991 119.195C170.477 119.195 169.963 118.543 169.635 118.217C166.458 115.285 163.654 112.26 160.476 109.328C157.719 106.768 154.868 104.301 152.111 101.788C151.831 101.555 151.504 101.323 151.457 100.904Z" fill="#02394F"/>
<path d="M149.96 88.9426C150.1 88.1048 149.867 87.267 149.96 85.9639C151.129 86.9412 152.577 88.3375 154.026 89.5476C152.437 89.5011 151.175 89.3149 149.96 88.9426Z" fill="#F4A200"/>
<path d="M40.7951 95.3649C42.7111 95.0856 44.0196 95.9234 45.9356 95.8303C45.9823 96.575 45.5617 98.9021 45.5617 99.6468C45.5617 107.419 45.5617 115.192 45.5617 122.964C45.5617 123.476 45.7954 124.081 45.2346 124.5C41.8232 124.454 38.4119 124.454 35.0939 123.849C31.1685 123.104 23.8317 119.194 23.7383 119.008C29.0189 111.887 35.5613 102.486 40.7951 95.3649Z" fill="#F4A200"/>
<path d="M126.128 114.727C125.006 120.824 124.259 125.338 123.137 131.435C123.044 131.854 122.857 133.53 122.576 134.181C120.941 127.759 119.025 121.382 117.389 114.96C116.688 113.749 116.034 112.493 116.501 111.003C119.726 112.26 122.95 113.517 126.128 114.727Z" fill="#8DB300"/>
<path d="M116.548 111.05C116.828 112.353 117.108 113.656 117.436 115.006C115.52 112.958 113.557 110.91 111.734 109.002C113.183 109.607 114.959 110.072 116.548 111.05Z" fill="#02394F"/>
<path d="M129.82 121.568C129.119 119.753 128.044 117.24 127.67 115.285C128.371 115.518 129.726 115.937 129.726 116.263C129.773 117.985 130.38 119.846 129.82 121.568Z" fill="#02394F"/>
<path d="M50.0036 87.0342C50.2372 88.6166 50.4241 90.1991 50.6578 91.7815C50.6111 91.8746 50.5643 91.9677 50.4709 91.9677C47.5268 92.0607 44.5827 92.2469 41.6387 91.8746C44.3023 91.2695 46.3585 89.594 48.5082 88.0581C49.0222 87.6858 49.4895 87.36 50.0036 87.0342Z" fill="#8DB300"/>
<path d="M43.5524 24.761C43.5524 25.1799 43.3187 25.4591 42.8981 25.5057C42.4775 25.5522 42.1972 25.3195 42.1504 24.9006C42.1037 24.4817 42.3374 24.2025 42.7579 24.156C43.2252 24.1094 43.4589 24.3887 43.5524 24.761Z" fill="#45423F"/>
<path d="M164.074 24.9468C164.541 24.9933 164.775 25.2726 164.775 25.6449C164.775 26.0638 164.495 26.343 164.027 26.2965C163.654 26.25 163.42 26.0172 163.42 25.6449C163.42 25.2726 163.654 24.9933 164.074 24.9468Z" fill="#484441"/>
<path d="M143.23 91.8745H28.8789V98.1577H143.23V91.8745Z" fill="#E3E7EB"/>
<path d="M153.139 66.23C154.307 61.5758 155.335 56.875 156.971 52.3139C159.447 45.0999 164.494 39.189 164.681 39.0959C167.018 37.6996 169.635 37.1411 172.298 36.8619C172.812 36.8153 173.326 36.7223 173.841 36.955C179.822 36.7688 184.963 38.5839 188.794 43.3778C191.038 46.1703 192.486 49.3817 193.468 52.8259C195.617 60.4122 195.991 68.1383 195.617 75.9108C195.617 76.3297 195.617 76.7486 195.617 77.1674C195.43 78.936 193.841 92.3867 191.552 98.8561C189.963 102.812 188.28 106.722 186.037 110.399C184.448 113.005 182.719 115.518 180.757 117.892C180.196 118.497 178.093 120.731 178.093 120.731C178.093 120.731 174.962 118.497 173.934 117.706C168.373 113.563 162.578 109.561 156.971 105.419C156.457 105.046 155.428 104.162 155.428 104.162C155.428 104.162 156.597 103.231 157.017 102.998C161.363 100.485 164.354 96.6686 166.737 92.3867C170.523 85.5916 172.205 78.1448 172.859 70.4654C172.906 69.6741 173.14 68.8829 173.186 68.0917C173.233 67.347 173.373 66.5558 173.373 66.0904C173.046 69.9999 171.925 74.0491 170.71 78.0983C169.074 83.5903 167.065 88.8961 163.653 93.5503C161.176 96.9013 158.279 99.6473 153.933 100.392C152.858 100.578 151.783 100.532 150.709 100.485C147.718 99.7869 144.774 98.9026 141.83 97.9253C141.362 97.7391 140.895 97.5995 140.428 97.4598C135.988 96.017 131.689 94.2484 127.436 92.3402C125.567 91.3163 123.651 90.432 121.735 89.4546C121.221 89.2219 120.754 88.9426 120.38 88.5237C120.193 87.9652 120.614 87.6394 120.941 87.3136C121.922 86.3828 122.81 85.3589 123.838 84.4746C125.1 83.9161 131.268 85.4054 132.297 85.545C136.082 86.2432 139.867 86.8482 143.652 87.5464C144.961 87.8722 146.363 87.9652 147.671 88.291C148.372 88.4307 149.073 88.6168 149.774 88.6634C150.755 88.9426 151.783 88.9426 152.858 89.1753C151.783 88.1049 150.148 86.9413 149.867 86.1501C149.774 83.6834 150.288 81.2632 150.568 78.843C151.129 75.1661 152.438 68.8364 153.139 66.23Z" fill="#F4A200"/>
<path d="M150.66 100.439C154.539 100.671 157.95 99.1353 160.707 96.4824C162.904 94.388 164.633 91.8748 166.035 89.1753C169.586 82.2871 171.549 74.8868 173.044 67.347C173.185 66.6489 173.465 65.9507 173.465 65.2061C173.932 67.4401 173.512 69.6276 173.278 71.8151C172.811 75.9108 172.11 79.9599 170.848 83.916C168.465 91.3162 164.96 97.9718 158.418 102.626C157.717 103.138 155.894 104.488 155.894 104.488C155.894 104.488 155.333 104.069 155.006 103.79C153.791 102.766 150.847 100.718 150.66 100.439Z" fill="#DD8E03"/>
<path d="M51.0782 98.0645H45.377V168.809H51.0782V98.0645Z" fill="#B3B8BC"/>
<path d="M135.381 98.0645H129.68V168.809H135.381V98.0645Z" fill="#B3B8BC"/>
<path d="M90.9775 61.0197L74.6641 57.1216L68.1444 84.1856L84.4579 88.0838L90.9775 61.0197Z" fill="#E3E7EB"/>
<path d="M101.547 155.125L97.6684 156.708L99.2573 160.711L96.5469 163.131L102.528 161.269L101.547 155.125Z" fill="#3A3B39"/>
<path d="M114.259 154.241L114.072 158.616L111.969 160.478L117.343 160.013L118.745 153.916L114.259 154.241Z" fill="#3A3B39"/>
<path d="M74.7704 155.312L69.3963 155.079L66.1719 163.177L77.1537 162.991L71.8731 159.733L74.7704 155.312Z" fill="#3A3B39"/>
<path d="M56.3582 158.849C56.5451 158.849 62.1529 158.988 62.1529 158.988L58.4611 163.456L62.5267 167.273L52.8066 166.947L56.3582 158.849Z" fill="#3A3B39"/>
<path d="M62.0583 159.221C60.6097 159.5 59.3012 159.314 57.8525 159.314C57.432 159.314 56.5908 159.314 56.2637 158.942C56.9179 157.546 75.6571 119.335 75.6571 119.335C75.6571 119.335 65.937 120.87 61.5443 121.662C61.077 121.755 60.1424 121.755 60.1424 121.755L73.3205 101.928C73.3205 101.928 81.2181 101.276 85.1435 102.207C90.7513 103.51 95.4711 106.861 95.3776 112.586C95.2842 115.192 94.3496 118.031 93.5084 119.94C91.312 124.827 88.9287 127.852 85.751 132.134C81.6854 137.626 77.1992 142.838 72.8065 148.051C72.4794 148.377 65.1893 155.777 62.0583 159.221Z" fill="#F8B5A7"/>
<path d="M163.98 23.7367C163.98 23.7367 164.728 23.4574 165.289 23.8763C165.71 24.2021 165.85 24.7606 165.85 24.7606" stroke="#484441" stroke-width="0.75" stroke-miterlimit="10" stroke-linecap="round" stroke-linejoin="round"/>
<path d="M114.679 19.9206C115.052 19.7344 115.38 19.8275 115.567 20.1533C115.753 20.4791 115.707 20.8049 115.333 20.991C115.006 21.1772 114.772 21.0376 114.585 20.8049C114.351 20.4791 114.398 20.1998 114.679 19.9206Z" fill="#484441"/>
<path d="M114.07 19.0826C114.07 19.0826 114.491 18.5241 115.145 18.5706C115.612 18.6172 115.986 18.943 115.986 18.943" stroke="#484441" stroke-width="0.75" stroke-miterlimit="10" stroke-linecap="round" stroke-linejoin="round"/>
<path d="M118.977 20.0134C119.351 19.8738 119.678 20.0134 119.819 20.3392C119.959 20.665 119.865 20.9908 119.491 21.1304C119.164 21.27 118.931 21.1304 118.744 20.8511C118.557 20.5253 118.65 20.2461 118.977 20.0134Z" fill="#484441"/>
<path d="M118.463 19.0825C118.463 19.0825 118.977 18.5705 119.584 18.7102C120.052 18.8032 120.379 19.1756 120.379 19.1756" stroke="#484441" stroke-width="0.75" stroke-miterlimit="10" stroke-linecap="round" stroke-linejoin="round"/>
<path d="M41.6855 23.5039C41.6855 23.5039 42.1529 22.8523 42.8538 22.8989C43.4146 22.8989 43.8352 23.3177 43.8352 23.3177" stroke="#484441" stroke-width="0.75" stroke-miterlimit="10" stroke-linecap="round" stroke-linejoin="round"/>
<path d="M45.7494 30.0664C44.6746 30.0664 44.3008 29.3218 44.3008 29.3218" stroke="#D95F73" stroke-miterlimit="10" stroke-linecap="round" stroke-linejoin="round"/>
<path d="M23.7383 67.0673L36.823 61.5754L44.0196 80.2853L68.0861 64.0421L71.3106 60.5049V61.7615L77.7127 62.4597L75.0491 65.9969L71.1236 66.3692C71.1236 66.3692 62.6653 76.7481 54.6276 83.5898C47.3375 89.8265 43.3186 92.5725 40.2811 92.4794C35.6547 92.3863 31.7293 84.1483 29.2526 79.1683C26.8225 74.1883 23.7383 67.0673 23.7383 67.0673Z" fill="#F8B5A7"/>
<path d="M23.7394 67.0675L36.8241 61.5755L35.3754 57.2471L22.1973 63.3441L23.7394 67.0675Z" fill="#FFFFFE"/>
<path d="M84.1165 77.5393L83.8828 82.6589L87.2475 82.3331L88.0419 76.748L84.1165 77.5393Z" fill="#F8B5A7"/>
<path d="M36.6367 26.7617C36.6367 26.7617 36.9638 27.1806 37.4311 27.4599" stroke="#D95F73" stroke-miterlimit="10" stroke-linecap="round" stroke-linejoin="round"/>
<path d="M41.3105 81.9612L43.32 78.5171L43.9742 80.2392L41.3105 81.9612Z" fill="#DD968A"/>
<path d="M170.055 29.6475C170.055 29.6475 170.522 29.3683 170.849 28.9028" stroke="#D95F73" stroke-miterlimit="10" stroke-linecap="round" stroke-linejoin="round"/>
<path d="M123.137 24.4346C123.137 24.4346 123.604 24.1554 123.931 23.6899" stroke="#D95F73" stroke-miterlimit="10" stroke-linecap="round" stroke-linejoin="round"/>
<path d="M115.566 27.2271C115.566 27.2271 115.987 27.739 116.595 27.739C117.202 27.739 117.716 27.3201 117.716 27.3201" stroke="#D95F73" stroke-miterlimit="10" stroke-linecap="round" stroke-linejoin="round"/>
<path d="M116.221 21.5029C116.221 21.5029 115.567 24.2024 115.474 24.6213C115.38 25.0401 115.754 25.0401 116.128 25.0867" stroke="#484441" stroke-width="0.75" stroke-miterlimit="10" stroke-linecap="round" stroke-linejoin="round"/>
</svg>
