<svg width="197" height="165" viewBox="0 0 197 165" fill="none" xmlns="http://www.w3.org/2000/svg">
<g clip-path="url(#clip0)">
<path d="M35.5953 112.948H28.3555V141.162H35.5953V112.948Z" fill="#02394F"/>
<path d="M152.068 111.173H144.955V138.657H152.068V111.173Z" fill="#02394F"/>
<path d="M178.267 56.3633H11.4961V69.3604H178.267V56.3633Z" fill="#7DB1A1"/>
<path d="M178.267 76.9688H11.4961V89.9658H178.267V76.9688Z" fill="#7DB1A1"/>
<path d="M178.265 107.56H0V114.248H178.265V107.56Z" fill="#7DB1A1"/>
<path d="M178.265 107.464H0L11.1138 99.5708H178.265V107.464Z" fill="#B3E0D0"/>
<path d="M173.121 39.7842L168.135 52.3058L167.85 53.8908L169.977 54.4614L175.947 54.5565L181.504 40.545L173.121 39.7842Z" fill="#3A3B39"/>
<path d="M176.328 87.7466C176.328 87.7466 196.142 93.3575 196.968 101.029C197.793 108.7 183.79 121.634 173.375 133.236L167.596 129.686L183.441 108.035L172.073 92.1529L176.328 87.7466Z" fill="#F7A8A2"/>
<path d="M123.236 86.9856C123.236 86.9856 127.333 107.939 159.848 106.164L176.71 87.2075L157.276 82.3257L123.236 86.9856Z" fill="#8DB300"/>
<path d="M156.387 43.0488L160.546 41.4004C160.546 41.4004 160.737 55.6972 159.911 58.4551L169.31 53.7952L172.803 54.6194C172.803 54.6194 167.564 64.0661 164.008 67.458C160.451 70.85 158.101 71.5157 157.657 71.0085L156.387 43.0488Z" fill="#F6A7A1"/>
<path d="M150.8 22.856L150.895 26.0894C150.895 26.0894 147.275 29.196 142.956 28.7522C138.638 28.3084 135.367 24.6946 135.081 23.9338C135.081 23.9338 127.365 26.977 124.603 37.8819C121.84 48.7868 120.284 59.7551 123.269 86.9539L157.849 82.1989C157.849 82.1989 157.468 44.3488 156.134 39.9424L160.294 38.2306C160.262 38.2306 159.754 26.9136 150.8 22.856Z" fill="#F4A200"/>
<path d="M152.926 19.7811L152.418 12.2364L153.752 3.86755C153.752 3.86755 157.911 1.77533 160.134 5.42087C162.357 9.0664 159.404 10.9684 159.531 16.7696L159.69 21.6514L152.926 19.7811Z" fill="#C41627"/>
<path d="M144.003 3.0752C144.003 3.0752 142.574 4.24811 141.844 5.57952C141.113 6.91093 141.05 8.36914 140.637 8.90805C140.224 9.44695 139.494 10.0493 139.24 10.2395C138.986 10.4297 139.621 11.0003 139.907 11.1271C139.907 11.1271 139.875 11.983 139.716 12.1415C139.557 12.3 140.923 12.8072 141.367 12.7755C141.812 12.7438 141.399 13.568 139.43 13.6631C139.43 13.6631 139.081 14.5824 139.43 15.1213C139.78 15.6602 141.367 16.0406 141.558 16.738C141.748 17.4354 141.018 21.3346 141.018 21.3346C141.018 21.3346 138.192 22.349 137.303 22.7611C137.303 22.7611 139.621 26.5651 144.924 26.5968C144.924 26.5968 148.766 26.5334 150.735 22.8879C150.735 22.8879 147.623 21.5565 147.464 21.5565L147.623 16.8965L149.814 10.5565L145.749 5.00891L144.003 3.0752Z" fill="#F9B6A8"/>
<path d="M25.0209 93.0088C25.0209 93.0088 43.8826 97.3518 72.2387 88.5708C72.2387 88.5708 74.4615 90.9483 77.4781 89.395C77.4781 89.395 87.3217 94.7207 87.544 99.8244C87.7663 104.928 85.1625 112.092 81.7648 119.922C78.3672 127.752 64.9036 152.954 64.9036 152.954L58.5528 151.623L70.8098 106.006C70.8098 106.006 58.8386 104.453 56.9017 104.072C54.9647 103.692 47.5661 103.185 42.7713 105.626C37.9764 108.066 20.9565 119.796 20.9565 119.796L47.7248 153.049L44.3907 156.758C44.3907 156.758 17.5271 137.548 10.2872 129.274C3.04737 121 0.507071 116.879 7.77867 107.559C15.0503 98.2394 25.0209 93.0088 25.0209 93.0088Z" fill="#004A76"/>
<path d="M17.5586 47.1384C17.5586 47.1384 18.8287 28.0231 32.7369 21.4929L44.6445 31.7003L56.7109 28.5303L64.4588 20.8271C64.4588 20.8271 75.5726 26.2162 78.3034 44.4122L68.0787 47.1701L70.0792 73.7666L72.2385 88.539C72.2385 88.539 49.8204 97.415 25.0207 92.977L24.9572 79.6946L27.7833 48.4381L17.5586 47.1384Z" fill="#8DB300"/>
<path d="M68.0803 47.2018L78.305 44.4438C78.305 44.4438 83.6397 73.0375 80.5278 83.7839C77.4159 94.5303 69.9856 88.317 66.3339 84.4496C62.6822 80.5822 51.2509 66.6024 50.457 66.5072V62.6398H52.3305L70.0808 73.83L68.0803 47.2018Z" fill="#F8B5A7"/>
<path d="M41.2154 6.94248C41.2154 6.94248 38.9291 7.89349 39.8817 10.8416C40.8343 13.7897 42.7078 17.8474 42.7078 17.8474C42.7078 17.8474 40.485 17.8474 36.1348 19.6226C36.1348 19.6226 37.1191 30.052 47.0263 29.9569C55.314 29.8618 59.2197 22.5073 60.2676 18.6716C60.2676 18.6716 56.9969 18.0693 55.1552 17.8474C55.1552 17.8474 53.0595 17.5938 52.3927 16.0405C51.7258 14.4872 51.3448 13.5995 51.3448 13.5995C51.3448 13.5995 50.9637 13.2825 52.0116 12.6485C53.0595 12.0462 53.3453 10.8099 52.7737 10.1442C52.2339 9.47851 50.2652 11.1269 50.0429 11.5707C50.0429 11.5707 47.9789 7.63989 48.0424 6.02318C48.1059 4.40646 46.931 5.04047 46.931 5.04047L41.2154 6.94248Z" fill="#F8B5A7"/>
<path d="M42.709 17.8794C42.709 17.8794 44.1061 21.4298 45.3445 21.1762C46.5512 20.8909 49.0597 19.9082 49.0597 19.9082" stroke="#DD968A" stroke-miterlimit="10"/>
<path d="M69.7949 71.0723L70.0807 73.7985L74.2405 76.3028L69.7949 71.0723Z" fill="#DD968A"/>
<path d="M36.1364 19.6546L32.707 21.4932C32.707 21.4932 36.2634 32.8736 46.8374 32.8102C57.4114 32.7468 64.2385 23.2051 64.302 20.6373C64.302 20.6373 61.4124 18.7036 60.2375 18.7036C60.2375 18.7036 57.5067 28.5941 47.7265 29.2598C37.9464 29.9255 36.1364 19.6546 36.1364 19.6546Z" fill="white"/>
<path d="M27.9103 45.0463L27.7515 48.4699L17.5586 47.1385L18.0031 43.7148L27.9103 45.0463Z" fill="white"/>
<path d="M67.8574 43.144L68.0797 47.2016L78.3044 44.4437L77.4153 40.2593L67.8574 43.144Z" fill="white"/>
<path d="M17.1797 115.516L20.9584 119.796L23.1176 118.242L17.1797 115.516Z" fill="#02394F"/>
<path d="M71.859 100.965L67.5723 105.784L70.8111 106.006L71.859 100.965Z" fill="#02394F"/>
<path d="M47.281 153.493L53.1555 158.438L48.1066 165L49.0592 159.992L44.709 156.505L47.281 153.493Z" fill="#3A3B39"/>
<path d="M59.1243 151.559L56.457 160.499L64.6812 162.432L60.6803 158.216L63.7921 152.827L59.1243 151.559Z" fill="#3A3B39"/>
<path d="M44.1387 12.1733L44.4245 16.0408C44.4245 16.0408 44.4562 16.4212 44.9325 16.3578C45.4088 16.3261 46.2344 15.7555 46.2344 15.7555" stroke="#3A3B39" stroke-width="0.5" stroke-miterlimit="10" stroke-linecap="round"/>
<path d="M41.0898 11.3486C41.0898 11.3486 41.4074 10.3976 42.741 10.7146" stroke="#3A3B39" stroke-width="0.5" stroke-miterlimit="10" stroke-linecap="round"/>
<path d="M45.5977 10.1445C45.5977 10.1445 45.9152 9.19349 47.2488 9.5105" stroke="#3A3B39" stroke-width="0.5" stroke-miterlimit="10" stroke-linecap="round"/>
<path d="M42.3918 13.1879C42.6373 13.1879 42.8364 12.9892 42.8364 12.7441C42.8364 12.499 42.6373 12.3003 42.3918 12.3003C42.1463 12.3003 41.9473 12.499 41.9473 12.7441C41.9473 12.9892 42.1463 13.1879 42.3918 13.1879Z" fill="#3A3B39"/>
<path d="M46.9953 12.0146C47.2408 12.0146 47.4399 11.8159 47.4399 11.5708C47.4399 11.3257 47.2408 11.127 46.9953 11.127C46.7498 11.127 46.5508 11.3257 46.5508 11.5708C46.5508 11.8159 46.7498 12.0146 46.9953 12.0146Z" fill="#3A3B39"/>
<path d="M45.7246 17.7842C45.7246 17.7842 47.09 17.9744 47.7568 16.6113" stroke="#D95F73" stroke-width="0.5" stroke-miterlimit="10" stroke-linecap="round" stroke-linejoin="round"/>
<path d="M50.7422 12.2365L52.1076 11.127" stroke="#D95F73" stroke-width="0.5" stroke-miterlimit="10" stroke-linecap="round" stroke-linejoin="round"/>
<path d="M148.035 1.96542C148.035 1.96542 143.97 1.64842 143.526 4.05764C143.113 6.46686 145.336 6.97406 145.526 9.16138C145.717 11.3487 145.621 11.7291 145.621 11.7291C145.621 11.7291 147.463 9.89049 148.257 10.5245C149.051 11.1268 148.733 12.2997 148.225 12.6167C147.717 12.9337 146.352 13.3458 146.32 13.8213C146.288 14.2968 146.447 16.3256 147.654 16.8963C147.654 16.8963 153.084 13.219 154.004 12.2046C154.925 11.2219 155.529 10.1124 155.37 7.70317C155.243 5.26225 154.004 2.09222 148.035 1.96542Z" fill="#EC1C24"/>
<path d="M142.32 7.64013C142.32 7.64013 143.654 7.00612 144.13 7.95713" stroke="#484441" stroke-width="0.5" stroke-miterlimit="10" stroke-linecap="round" stroke-linejoin="round"/>
<path d="M143.367 9.06644C143.367 9.35174 143.208 9.54194 142.922 9.57364C142.636 9.60534 142.446 9.44684 142.414 9.16154C142.382 8.87624 142.541 8.68604 142.827 8.65434C143.145 8.62264 143.303 8.81284 143.367 9.06644Z" fill="#45423F"/>
<path d="M146.289 12.5218C146.289 12.5218 147.686 11.3806 147.94 11.4123" stroke="#D95F73" stroke-width="0.5" stroke-miterlimit="10" stroke-linecap="round" stroke-linejoin="round"/>
<path d="M137.335 22.729L135.049 23.9336C135.049 23.9336 137.78 28.8155 143.749 28.6887C149.751 28.5936 150.862 26.0892 150.862 26.0892L150.767 22.8558C150.767 22.8558 148.862 26.8183 144.194 26.3745C139.558 25.9307 137.78 23.3313 137.335 22.729Z" fill="#FFFFFE"/>
<path d="M156.102 39.9425C156.102 39.9425 159.721 38.1673 160.261 38.2307L160.547 41.4007L156.387 43.0491L156.102 39.9425Z" fill="#FFFFFE"/>
<path d="M138.732 47.4238L128.793 53.8907L129.809 56.3316L139.685 50.0233L138.732 47.4238Z" fill="#FFFFFE"/>
<path d="M166.961 51.7987L146.099 66.3174L139.653 50.0234L129.777 56.3318C129.777 56.3318 135.493 69.4557 139.653 72.4989C143.812 75.5422 145.146 74.5912 149.592 72.1819C154.037 69.741 168.358 54.9053 168.358 54.9053L172.01 54.8102L173.28 52.0523L166.961 51.7987Z" fill="#F9B6A8"/>
<path d="M123.236 86.986L124.252 90.473L157.816 82.1992L123.236 86.986Z" fill="#8DB300"/>
<path d="M159.88 106.133L172.074 92.1846C172.074 92.1846 190.046 94.2768 191.285 103.914C192.491 113.551 156.673 138.467 156.673 138.467L151.91 133.141L178.107 107.115L159.88 106.133Z" fill="#F9B6A8"/>
<path d="M178.933 43.2078C179.441 43.2078 179.853 42.7962 179.853 42.2884C179.853 41.7807 179.441 41.3691 178.933 41.3691C178.424 41.3691 178.012 41.7807 178.012 42.2884C178.012 42.7962 178.424 43.2078 178.933 43.2078Z" fill="white"/>
<path d="M146.1 66.317L147.052 68.6945L147.274 65.5879L146.1 66.317Z" fill="#DD968A"/>
<path d="M49.2812 69.2969H42.4224C41.7874 69.2969 41.2793 68.7897 41.2793 68.1557V55.0001C41.2793 54.3661 41.7874 53.8589 42.4224 53.8589H49.2812C49.9163 53.8589 50.4244 54.3661 50.4244 55.0001V68.1557C50.4244 68.7897 49.9163 69.2969 49.2812 69.2969Z" fill="#3A3B39"/>
<path d="M42.9305 56.6483C43.2988 56.6483 43.5973 56.3503 43.5973 55.9826C43.5973 55.6149 43.2988 55.3169 42.9305 55.3169C42.5622 55.3169 42.2637 55.6149 42.2637 55.9826C42.2637 56.3503 42.5622 56.6483 42.9305 56.6483Z" fill="#FFFFFE"/>
<path d="M151.877 133.173L142.986 141.922L149.369 150.671L148.543 143.697L156.64 138.498L151.877 133.173Z" fill="#3A3B39"/>
<path d="M173.535 133.553L167.692 129.527L160.992 141.827L167.533 147.565L166.073 141.764L173.535 133.553Z" fill="#3A3B39"/>
<path d="M43.6304 1.64862C43.6304 1.64862 42.011 -0.728906 39.9788 0.222102C37.9148 1.17311 37.6925 4.97715 38.9944 6.30856C40.2963 7.63997 43.7575 7.79847 47.3774 6.15006C47.3774 6.15006 48.1077 5.76965 48.1077 6.81576C48.1077 6.84746 48.1077 6.91086 48.1077 6.94256C48.1712 7.32297 48.4888 9.38348 49.2826 10.81C49.5366 11.2855 50.1717 11.3806 50.5527 11.0319C50.7433 10.8417 50.9655 10.6515 51.1561 10.493C51.3466 10.3345 51.4736 10.1126 51.4736 9.89069C51.5371 8.17887 51.5054 2.02902 47.4409 2.21922C47.4409 2.21922 46.393 2.15582 44.9006 2.53622C44.5513 2.63132 44.202 2.50452 44.0115 2.18752L43.6304 1.64862Z" fill="#004A76"/>
<path d="M17.5592 47.1382C17.5592 47.1382 13.5583 74.6223 14.6696 85.4638C15.781 96.337 23.1796 95.7981 26.7361 91.7405C30.2925 87.6829 39.7551 70.0892 39.7551 70.0892C39.7551 70.0892 40.4854 68.4725 42.3589 68.1555C44.2006 67.8702 46.8044 67.4264 46.8044 67.4264L46.6456 64.3197H39.7551L24.9578 79.6944L27.7839 48.4379L17.5592 47.1382Z" fill="#F8B5A7"/>
<path d="M20.9258 83.2769L25.1808 76.0176L24.9585 79.6948L20.9258 83.2769Z" fill="#DD968A"/>
</g>
<defs>
<clipPath id="clip0">
<rect width="197" height="165" fill="white"/>
</clipPath>
</defs>
</svg>
