<svg width="169" height="182" viewBox="0 0 169 182" fill="none" xmlns="http://www.w3.org/2000/svg">
<g clip-path="url(#clip0)">
<path d="M151.311 126.605C151.311 126.605 164.294 111.734 162.098 94.8325" stroke="#3A3B39" stroke-width="3" stroke-miterlimit="10"/>
<path d="M118.588 129.53V153.202L82.0511 141.934V123.896L107.221 108.01L101.84 96.8392L46.0454 106.1L13.2734 94.1553L13.3217 98.3867L48.1932 128.297L79.7826 124.114L115.788 122.204L118.805 130.207" fill="#B3B8BC"/>
<path d="M97.9289 170.998L98.9666 172.86C98.9666 172.86 94.864 172.642 92.668 175.036L104.662 176.535L101.838 170.805L97.9289 170.998Z" fill="#3A3B39"/>
<path d="M118.105 167.637L118.902 170.007C118.902 170.007 114.316 170.732 113.23 172.062L123.318 173.876L121.604 167.541L118.105 167.637Z" fill="#3A3B39"/>
<path d="M101.042 105.858C101.042 105.858 70.5143 105.979 64.7708 109.606C59.0272 113.233 59.1237 119.06 63.3469 127.185C67.5701 135.309 87.3829 162.245 96.3361 170.95L102.828 170.877L77.5127 127.112L115.666 127.161L101.042 105.858Z" fill="#F4A200"/>
<path d="M135.746 134.681V172.594" stroke="#3A3B39" stroke-width="5" stroke-miterlimit="10"/>
<path d="M115.209 125.806C115.209 125.806 120.88 136.784 135.891 136.421C150.901 136.034 152.856 132.359 152.976 131.416C153.073 130.449 153.073 124.525 152.059 123.703C151.022 122.832 131.788 122.349 131.788 122.349L115.209 125.806Z" fill="#585755"/>
<path d="M133.742 182C134.795 182 135.649 181.145 135.649 180.09C135.649 179.035 134.795 178.18 133.742 178.18C132.689 178.18 131.836 179.035 131.836 180.09C131.836 181.145 132.689 182 133.742 182Z" fill="#3A3B39"/>
<path d="M149.188 179.727C150.241 179.727 151.094 178.872 151.094 177.817C151.094 176.762 150.241 175.907 149.188 175.907C148.135 175.907 147.281 176.762 147.281 177.817C147.281 178.872 148.135 179.727 149.188 179.727Z" fill="#3A3B39"/>
<path d="M119.906 180.82C120.959 180.82 121.813 179.965 121.813 178.91C121.813 177.855 120.959 177 119.906 177C118.854 177 118 177.855 118 178.91C118 179.965 118.854 180.82 119.906 180.82Z" fill="#3A3B39"/>
<path d="M135.19 171.24C133.669 171.337 128.312 172.111 126.237 172.981C124.933 173.585 122.231 174.117 120.445 174.891C119.093 175.423 118.394 176.511 118.442 177.237C118.538 177.938 119.359 177.503 119.359 177.406C119.311 177.309 120.614 176.052 120.614 176.052C120.614 176.052 121.048 175.52 123.317 174.964C124.185 174.746 124.499 174.746 124.499 174.746C124.499 174.746 124.813 176.487 126.84 176.535C128.843 176.632 135.19 176.487 138.761 176.318C144.891 176.052 145.712 172.183 142.502 171.699C139.148 171.24 137.868 171.071 135.19 171.24Z" fill="#3A3B39"/>
<path d="M131.74 175.641C131.692 175.737 130.871 177.865 131.137 179.219C131.402 180.573 131.74 181.009 132.271 181.275C132.802 181.541 133.019 180.791 133.019 180.791C133.019 180.791 132.705 179.098 132.633 179.098C132.536 179.098 132.15 178.832 132.464 177.914C132.778 176.995 133.598 175.351 133.598 175.351L131.74 175.641Z" fill="#3A3B39"/>
<path d="M143.009 173.078C143.009 173.078 147.232 174.166 148.873 174.819C150.562 175.471 151.31 176.995 151.093 177.914C150.876 178.832 150.007 177.527 149.838 177.382C149.669 177.237 149.838 176.028 148.101 175.592C146.363 175.157 141.006 174.069 141.006 174.069L143.009 173.078Z" fill="#3A3B39"/>
<path d="M94.3086 86.8047L96.9149 87.2157L97.3251 90.6734L94.3086 86.8047Z" fill="#02394F"/>
<path d="M89.9893 77.423L89.4102 81.05L95.9018 81.727L94.9848 76.9878L89.9893 77.423Z" fill="#02394F"/>
<path d="M118.007 167.589L123.727 167.661L109.899 127.015L92.8613 126.943L118.007 167.589Z" fill="#DD8E03"/>
<path d="M71.9395 127.016L77.5141 127.112L78.6966 129.482L71.9395 127.016Z" fill="#DD8E03"/>
<path d="M13.3223 98.3872V156.177L47.9042 167.662V110.55L13.3223 98.3872Z" fill="#E3E7EB"/>
<path d="M9.72418 89.7546L50.6529 83.4438L43.0029 56.6285L76.6195 54.4766L84.3902 78.7045L105.53 74.7633L106.761 96.9602L102.707 96.2831L45.6092 106.1L9.60352 92.898C9.60352 92.898 9.72418 89.6337 9.72418 89.7546Z" fill="#E3E7EB"/>
<path d="M46.5508 58.8774L52.3426 82.2107L82.0497 76.9154L75.3409 56.5562L46.5508 58.8774Z" fill="#3A3B39"/>
<path d="M50.9434 84.1693L67.5224 95.6062C67.5224 95.6062 68.1981 96.114 69.9356 95.4853C71.6732 94.8567 86.1286 91.5441 86.1286 91.5441L99.6186 86.9741L96.3125 84.6529L84.8978 78.5112L50.9434 84.1693Z" fill="#FFFFFE"/>
<path d="M80.457 80.8805C80.457 80.8805 81.2534 78.8736 81.4947 78.6318C81.7361 78.39 89.9894 77.4229 89.9894 77.4229L89.4102 81.0498C89.4102 81.0498 87.3831 82.1137 87.0694 82.5247H85.2353C85.2353 82.5247 86.4902 81.1465 86.4902 80.9772C86.5143 80.7838 80.457 80.8805 80.457 80.8805Z" fill="#F9B6A8"/>
<path d="M73.0733 82.8879L67.909 82.4043L63.2031 84.1452L63.2273 86.9259L71.6978 87.2161L73.0733 82.8879Z" fill="#F9B6A8"/>
<path d="M32.2404 80.5422C32.2404 80.4697 32.2404 81.8963 32.2404 81.8963C32.2404 81.8963 28.2344 81.1951 28.2344 86.563C28.2344 91.9308 32.1921 91.4956 32.1921 91.4956V92.0275C32.1921 92.5837 32.6265 93.0189 33.1815 93.0189H41.4349C41.9899 93.0189 42.4243 92.5837 42.4243 92.0275V80.5422H32.2404ZM32.0714 89.7788C32.0714 89.7788 29.9237 89.2469 29.9237 86.563C29.9237 83.879 32.0956 83.7098 32.0956 83.7098L32.0714 89.7788Z" fill="#8DB300"/>
<path d="M51.8848 62.0209V63.1332L56.0838 62.6979V61.6099L51.8848 62.0209Z" fill="#8DB300"/>
<path d="M71.0215 67.5575V68.6698L75.2447 68.2346V67.1465L71.0215 67.5575Z" fill="#8DB300"/>
<path d="M60.4043 60.9807V62.0688L73.5083 60.8356V59.7476L60.4043 60.9807Z" fill="#8DB300"/>
<path d="M52.7051 64.197V65.2851L65.8332 64.0519V62.9639L52.7051 64.197Z" fill="#8DB300"/>
<path d="M53.3574 66.7597V67.872L74.9802 65.5266V64.4385L53.3574 66.7597Z" fill="#8DB300"/>
<path d="M29.3451 57.7652L0 60.1832V35.0605L29.3451 32.6426V57.7652Z" fill="#F4A200"/>
<path d="M46.5272 41.2021L19.8125 42.8463V10.8083L46.5272 9.16406V41.2021Z" fill="#8DB300"/>
<path d="M10.9079 14.0242H3.8612C1.73754 14.0242 0 12.3074 0 10.1554V3.86874C0 1.74093 1.73754 0 3.8612 0H10.9079C13.0316 0 14.7691 1.74093 14.7691 3.86874V10.1554C14.7691 12.3074 13.0316 14.0242 10.9079 14.0242Z" fill="#EC1C24"/>
<path d="M65.0139 25.9205L38.6612 27.7097C36.0307 27.879 33.8105 25.7996 33.8105 23.1882V6.86692C33.8105 4.47313 35.6688 2.4904 38.0337 2.34533L64.3864 0.556035C67.0169 0.386778 69.2371 2.46622 69.2371 5.07762V21.3989C69.2612 23.7926 67.403 25.7754 65.0139 25.9205Z" fill="#F4A200"/>
<path d="M41.0978 10.5663L41.0254 11.8962L45.4416 11.6302L45.514 10.3003L41.0978 10.5663Z" fill="white"/>
<path d="M50.0509 9.79252L49.9785 11.1224L63.7099 10.4212L63.7823 9.09131L50.0509 9.79252Z" fill="white"/>
<path d="M41.8465 13.2261L41.75 14.556L55.5055 13.8548L55.5779 12.5249L41.8465 13.2261Z" fill="white"/>
<path d="M42.329 16.3695L42.2324 17.6994L64.917 16.1761L64.9894 14.8462L42.329 16.3695Z" fill="white"/>
<path d="M132.536 26.09C132.536 26.09 111.058 25.2921 100.608 28.242C90.1591 31.1919 89.9177 39.6306 90.3763 46.4976C90.8348 53.3647 97.0127 87.6272 97.0127 87.6272L73.0491 82.7913L71.8184 87.4096C71.8184 87.4096 95.2028 96.7671 101.501 96.3077L101.043 105.883L115.667 127.185C115.667 127.185 146.484 130.014 151.987 123.921C157.489 117.828 167.624 89.9968 157.151 59.1194C146.677 28.242 140.644 26.3077 132.536 26.09Z" fill="#004A76"/>
<path d="M104.664 12.4285L104.785 19.3197C104.785 19.3197 109.056 19.2713 110.601 21.641C110.601 21.641 109.37 22.1971 108.453 21.9795C107.536 21.7619 106.643 21.0123 106.643 21.0123C106.643 21.0123 106.715 23.8897 107.367 24.1315C107.994 24.3733 110.697 24.1315 110.987 24.3491C111.276 24.5667 113.062 26.7187 113.062 26.7187L124.839 26.3318L117.889 19.9L112.024 12.767C112.024 12.767 111.228 10.8568 111.107 10.9052C110.987 10.9536 104.833 11.824 104.833 11.824L104.664 12.4285Z" fill="#F9B6A8"/>
<path d="M105.482 7.49534C105.482 7.49534 105.096 5.29499 103.745 6.35889C102.393 7.4228 102.562 11.6059 104.662 12.4038C106.761 13.2259 109.078 12.0411 110.261 12.162C111.443 12.2829 109.633 12.2104 109.706 13.8062C109.754 15.3779 110.164 17.9651 110.623 18.2069C111.081 18.4487 111.371 18.1585 111.371 18.1585C111.371 18.1585 112.432 15.9582 113.229 16.6836C114.025 17.409 112.674 18.618 112.336 19.0048L113.398 21.0359L117.983 19.972C117.983 19.972 114.098 10.4694 112.288 9.57478C110.478 8.68014 107.051 9.62314 106.182 8.82522C105.313 8.02729 105.482 7.49534 105.482 7.49534Z" fill="#004A76"/>
<path d="M106.4 19.4887C106.4 19.4887 105.507 22.3177 110.623 21.8099C110.623 21.8099 109.513 19.3919 106.4 19.4887Z" fill="#004A76"/>
<path d="M105.99 14.943C105.99 14.943 107.124 13.9759 108.066 14.943" stroke="#3A3B39" stroke-width="0.5" stroke-miterlimit="10" stroke-linecap="round" stroke-linejoin="round"/>
<path d="M107.125 16.3939C107.378 16.3939 107.583 16.1882 107.583 15.9345C107.583 15.6808 107.378 15.4751 107.125 15.4751C106.871 15.4751 106.666 15.6808 106.666 15.9345C106.666 16.1882 106.871 16.3939 107.125 16.3939Z" fill="#3A3B39"/>
<path d="M111.805 18.9086C111.805 18.9086 111.781 18.3283 112.143 18.0624C112.505 17.8206 112.843 17.1919 112.843 17.1919" stroke="#D95F73" stroke-width="0.5" stroke-miterlimit="10" stroke-linecap="round" stroke-linejoin="round"/>
<path d="M110.334 60.3525C110.334 60.3525 117.091 89.0778 110.672 94.4941C110.672 94.4941 108.452 97.0813 101.502 96.3075L101.381 98.387C101.381 98.387 111.999 98.9673 113.857 93.406C115.716 87.8205 114.195 69.9034 110.479 59.9414" fill="#02394F"/>
<path d="M159.226 74.0863C156.572 74.9567 153.821 75.4645 151.021 75.6579C147.763 75.8756 142.913 76.9878 141.537 81.4127C139.389 88.2797 145.254 98.0966 158.406 96.5007C171.558 94.9049 168.759 80.9533 168.759 80.9533C168.759 80.9533 167.528 71.2573 162.243 73.0707C161.109 73.4576 160.119 73.7961 159.226 74.0863Z" fill="#3A3B39"/>
</g>
<defs>
<clipPath id="clip0">
<rect width="169" height="182" fill="white"/>
</clipPath>
</defs>
</svg>
