<svg width="155" height="262" viewBox="0 0 155 262" fill="none" xmlns="http://www.w3.org/2000/svg">
<g clip-path="url(#clip0)">
<path d="M10.4805 86.6891C10.4805 86.6891 -0.00131607 58.6555 24.7607 47.6826C49.5227 36.7097 95.5041 -1.23961 118.477 0.0363007C141.449 1.31222 160.587 14.2901 153.465 36.491C146.343 58.6919 138.162 59.421 141.705 77.2474C145.284 95.0737 155.473 127.956 139.404 141.991C123.334 156.026 113.619 145.819 101.859 165.176C90.0988 184.534 51.8601 185.554 31.6999 149.1C11.5397 112.645 10.4805 86.6891 10.4805 86.6891Z" fill="#8EB400"/>
<path d="M95.2019 85.6672C95.6036 84.683 94.0332 84.1361 93.6314 85.1204C93.4488 85.5579 93.1931 85.886 92.901 86.1776C92.2801 84.7194 91.6227 83.079 90.454 82.1311C89.4314 81.3291 88.7009 81.9853 88.1896 82.9696C87.6783 82.8238 86.9844 83.1519 87.0209 83.881C87.24 85.9589 87.7148 87.9639 88.1166 90.0054C88.3357 91.0625 89.9427 90.7709 89.7601 89.7137C89.5044 88.4378 89.2122 87.1254 88.9931 85.8495L89.0296 85.6672C89.1757 85.0111 89.2853 84.2091 89.6505 83.5893C89.7601 83.6987 89.8331 83.8445 89.9427 83.9903C90.7462 85.1204 91.221 86.5057 91.8053 87.7087C91.9879 88.0733 92.4992 88.3649 92.901 88.1097C93.9601 87.5629 94.7636 86.8338 95.2019 85.6672Z" fill="#EC1C24"/>
<path d="M102.797 91.0265C101.957 88.4382 100.57 85.9228 100.022 83.2616C99.9486 82.97 99.766 82.7877 99.5834 82.6783C99.5469 82.5325 99.5104 82.3867 99.4739 82.2409C99.1086 81.2931 98.086 80.965 97.1364 81.1108C96.8808 81.1472 96.6982 81.293 96.5886 81.4753C96.5156 81.4389 96.406 81.4024 96.333 81.4024C95.8582 81.366 95.5295 81.7305 95.4199 82.168C95.1642 83.4439 95.6756 84.7927 96.8443 85.376C97.5017 85.7041 98.2321 85.5583 98.7799 85.1208C99.7295 88.2194 101.373 91.0994 101.957 94.3438C102.103 95.1094 102.14 95.9114 101.848 96.6405C101.227 98.2081 98.853 97.2238 98.2686 96.2395C97.173 94.4897 98.4878 92.0107 99.2182 90.3703C99.6565 89.386 98.086 88.8392 97.6478 89.8235C96.6617 92.0107 95.566 94.599 96.7347 96.9321C98.013 99.4475 101.519 99.7027 103.199 97.5519C104.55 95.8749 103.382 92.7398 102.797 91.0265ZM97.7208 83.8813H97.6478C97.7573 83.8813 97.6112 83.8813 97.5747 83.8449C97.3191 83.772 97.173 83.5532 97.0634 83.2252C96.9904 83.0429 96.9904 82.8606 96.9904 82.6783C97.0999 82.7148 97.246 82.7148 97.3921 82.7148C97.5382 82.6783 97.5382 82.6783 97.6112 82.6783H97.7208L97.7938 82.7148L97.8304 82.7512L97.9034 82.8606L97.9399 82.97L97.9764 83.0793C97.9764 83.0793 97.9764 83.1158 97.9764 83.1887V83.3345V83.371L97.9034 83.6262L97.8304 83.772C97.9034 83.6262 97.6112 83.9542 97.8304 83.8084L97.7208 83.8813Z" fill="#EC1C24"/>
<path d="M107.143 82.605C104.989 84.7558 103.528 82.9331 102.724 80.6C103.637 78.2304 104.989 75.387 104.222 73.0174C103.856 71.8509 102.834 70.8301 101.665 71.6321C100.643 72.2883 100.35 74.0017 100.241 75.1318C100.095 76.9181 100.314 78.8866 100.935 80.7094C100.898 80.8552 100.825 81.001 100.789 81.1468C100.606 81.7665 101.081 82.204 101.556 82.2405C101.738 82.6415 101.994 83.0425 102.213 83.407C103.783 85.7401 106.23 85.8859 108.203 83.9174C108.97 83.1154 107.91 81.8395 107.143 82.605ZM101.848 76.2254C101.811 75.4234 101.884 74.585 102.14 73.8194C102.213 73.6736 102.286 73.4913 102.359 73.3455L102.469 73.1632C102.688 73.5642 102.724 74.0382 102.688 74.4756C102.615 75.5693 102.323 76.6264 101.994 77.6836C101.921 77.1368 101.884 76.6264 101.848 76.2254Z" fill="#EC1C24"/>
<path d="M110.686 83.9172C110.285 82.5684 110.029 81.1467 109.481 79.8343C109.043 78.85 107.545 79.5427 107.984 80.5269C108.495 81.6935 108.678 82.9694 109.079 84.2088C109.226 84.6463 109.554 84.9744 110.029 84.865C110.431 84.7921 110.832 84.3547 110.686 83.9172Z" fill="#EC1C24"/>
<path d="M108.714 75.4234L108.605 75.3505C108.24 75.0953 107.728 75.2047 107.436 75.5692C107.181 75.9338 107.29 76.4806 107.655 76.7358L107.765 76.8087C108.13 77.0639 108.641 76.9545 108.934 76.59C109.189 76.189 109.08 75.6786 108.714 75.4234Z" fill="#EC1C24"/>
<path d="M117.078 80.4177C116.42 79.6886 115.617 79.5428 114.667 79.5428C112.366 79.4699 113.937 77.793 115.215 77.2097C116.201 76.7722 115.507 75.2776 114.521 75.7151C112.987 76.3712 110.613 78.4492 112.184 80.2719C112.768 80.9281 113.426 81.1468 114.266 81.1833C114.704 81.2197 115.142 81.1833 115.58 81.3291C116.092 81.4749 116.019 82.3863 115.873 82.6779C115.653 83.1518 114.923 83.0789 114.521 83.0424C113.462 82.9695 113.316 84.61 114.375 84.6829C115.544 84.7558 116.493 84.5371 117.224 83.5893C117.845 82.8237 117.772 81.1833 117.078 80.4177Z" fill="#EC1C24"/>
<path d="M126.098 81.1834C125.587 81.6209 125.112 82.0583 124.564 82.3864C124.163 80.7459 123.323 78.9232 121.825 78.267C121.424 78.0848 121.058 78.0118 120.73 78.0848C120.51 75.46 119.963 72.8717 120.291 70.247C120.437 69.1898 118.794 69.044 118.648 70.1012C118.21 73.5644 119.269 76.9911 119.159 80.4179C119.05 81.0376 119.013 81.6573 119.013 82.0948C119.013 83.152 120.51 83.2978 120.657 82.2406C120.766 81.5115 120.803 80.7824 120.803 80.0898C120.912 79.7981 121.131 79.7252 121.46 80.0533C122.446 81.0011 122.921 82.4593 123.104 83.7717C123.177 84.3185 123.761 84.5737 124.272 84.3914C125.404 83.9904 126.244 83.2613 127.157 82.4958C127.961 81.7302 126.902 80.4543 126.098 81.1834Z" fill="#EC1C24"/>
<path d="M82.1997 74.002C79.7161 74.0749 77.3422 75.6424 77.2692 78.3036C77.1961 80.6732 79.3509 82.4959 81.6518 82.022C82.4553 81.8397 82.2362 80.6732 81.4327 80.7461C78.6935 81.0013 75.6622 82.2043 74.0187 84.5009C72.4848 86.6153 72.9961 89.4952 74.7126 91.3544C76.4657 93.25 79.0953 93.9062 81.5788 93.5417C84.6466 93.0678 87.1667 91.1721 89.2484 88.9848C89.7963 88.4016 88.9928 87.3808 88.4084 88.0006C85.5232 91.0628 80.5196 94.2343 76.4657 91.2086C74.4935 89.7504 73.5804 86.9434 75.297 84.9384C76.8674 83.1156 79.3509 82.2043 81.6518 82.022C81.5788 81.5845 81.5057 81.1835 81.4327 80.7461C79.7527 81.1106 78.3283 79.7253 78.5474 78.0484C78.7666 76.2986 80.4101 75.3143 82.0536 75.2779C82.8936 75.2779 83.0031 74.002 82.1997 74.002Z" fill="#EC1C24"/>
<path d="M47.9531 253.178L48.0992 261.817L58.1428 262L53.0662 257.734L53.7236 252.813L47.9531 253.178Z" fill="#3A3B39"/>
<path d="M9.49487 253.178L7.96094 261.489L17.8219 261.818L14.0601 258.245L14.9367 253.324L9.49487 253.178Z" fill="#3A3B39"/>
<path d="M3.28711 160.856L11.6872 211.747L7.59672 252.722L15.9238 252.904C15.9238 252.904 28.0126 215.866 26.4787 199.388C24.9447 182.911 24.2508 162.861 24.2508 162.861H28.3413L43.498 204.492C43.498 204.492 47.7711 248.165 47.9172 252.904H54.8929C54.8929 252.904 59.8234 208.721 58.2895 199.571C56.7555 190.384 48.7572 154.513 48.7572 154.513L3.28711 160.856Z" fill="#004A76"/>
<path d="M15.9961 77.247C15.9961 77.247 0.949014 84.3193 0.693359 102.802L15.3022 102.875L2.33686 135.028C2.33686 135.028 2.00816 158.031 3.28643 161.166L48.793 154.786L45.7982 95.6202L51.7878 95.2557L52.0435 76.7002L43.2417 75.3149L40.5755 78.45L36.1564 82.132L31.445 83.1162L24.6884 82.6788L18.5892 78.0126L15.9961 77.247Z" fill="#F5A300"/>
<path d="M28.7415 56.3223L29.618 62.9935C29.618 62.9935 27.6458 61.2802 26.8789 62.3738C26.1119 63.4675 28.2667 64.8527 28.2667 64.8527L26.5502 65.436L26.1119 73.857C26.1119 73.857 19.6475 75.2059 18.6614 76.0808C17.6388 76.9557 23.2632 82.3145 23.2632 82.3145L33.0146 83.3353L41.7069 77.2109L40.9399 74.9142C40.9399 74.9142 35.2059 73.8206 34.2929 73.8206L34.1103 68.1337C34.1103 68.1337 36.4112 67.4775 36.6668 66.3474C36.9225 65.2173 35.5346 62.9206 35.7903 62.8113C36.0825 62.6654 36.6668 62.3738 36.959 62.2644C37.2877 62.1186 37.4338 61.7541 37.2877 61.426C36.9955 60.8792 35.0233 58.9106 34.8772 58.5825C34.5485 57.7441 34.6216 56.6504 34.439 55.8849C34.2929 55.3381 33.5989 54.4631 32.7955 53.6611C31.1885 54.4996 30.3485 55.4474 28.7415 56.3223Z" fill="#F9B6A8"/>
<path d="M53.9785 77.1744L54.5629 95.1101C54.5629 95.1101 72.1665 94.1622 75.7457 88.8399C79.3249 83.481 88.6745 48.9949 88.6745 48.9949L97.2572 42.9798L92.9842 41.631L88.9667 44.1828L88.7111 41.4487L87.2502 41.631L68.003 79.6168L53.9785 77.1744Z" fill="#F9B6A8"/>
<path d="M0.620339 105.099C0.620339 105.099 -1.93621 130.07 3.24993 136.705C8.43608 143.34 15.6675 142.829 19.5753 138.309C23.4832 133.825 28.5233 124.201 34.2938 106.885L40.3199 88.5482L37.2521 87.4546L34.9512 91.9385L34.3668 89.4596L33.0885 89.7877L32.5042 96.2402L14.1335 127.409L14.9735 105.062H0.620339V105.099Z" fill="#F9B6A8"/>
<path d="M29.6562 51.8385C29.6562 51.8385 31.738 47.7555 34.0754 48.995C36.4128 50.2344 35.9746 53.7706 32.1763 55.4475C28.378 57.1244 28.6336 55.7027 29.3641 57.7441C30.0945 59.7856 30.2406 62.4468 30.2406 62.4468L29.6928 62.9571C29.6928 62.9571 28.0493 61.499 27.2823 62.0093C26.5153 62.5197 26.8806 63.6862 28.1953 64.6705L28.3049 64.8163L26.5884 65.3996C26.5884 65.3996 23.3014 59.02 24.1779 55.9943C25.0179 52.9686 26.9901 52.0936 29.6562 51.8385Z" fill="#EC1C24"/>
<path d="M36.046 64.2329C36.046 64.2329 36.1556 65.6546 35.206 65.9463C34.2564 66.2379 33.5625 65.363 33.5625 65.363L36.046 64.2329Z" fill="#3A3B39"/>
<path d="M35.8267 63.6494C35.8267 63.6494 33.7084 64.4879 33.5258 64.743C33.3432 64.9982 33.5623 65.3628 33.5623 65.3628L36.0458 64.2327L35.8267 63.6494Z" fill="#FFFFFE"/>
<path d="M33.6367 57.2705C33.6367 57.2705 32.541 57.0153 32.1758 57.9996" stroke="#3A3B39" stroke-width="0.5" stroke-miterlimit="10" stroke-linecap="round" stroke-linejoin="round"/>
<path d="M33.2344 58.9835C33.4361 58.9835 33.5996 58.8203 33.5996 58.6189C33.5996 58.4176 33.4361 58.2544 33.2344 58.2544C33.0327 58.2544 32.8691 58.4176 32.8691 58.6189C32.8691 58.8203 33.0327 58.9835 33.2344 58.9835Z" fill="#3A3B39"/>
<path d="M27.8652 62.9204L28.8879 63.7953" stroke="#D95F73" stroke-width="0.5" stroke-miterlimit="10" stroke-linecap="round" stroke-linejoin="round"/>
<path d="M19.064 75.789C19.064 75.789 24.031 82.3508 30.678 81.8405C37.325 81.3301 40.9407 74.9141 40.9407 74.9141L43.2416 75.2786C43.2416 75.2786 40.1007 84.2465 29.4728 84.6475C18.8448 85.0485 15.9961 77.2472 15.9961 77.2472L19.064 75.789Z" fill="#FFFFFE"/>
<path d="M52.0428 76.6641L51.7871 95.2195L54.855 95.0008L53.9784 77.1744L52.0428 76.6641Z" fill="#FFFFFE"/>
<path d="M0.875574 102.292L0.546875 104.88L15.1557 105.391L15.3018 102.839L0.875574 102.292Z" fill="#FFFFFE"/>
<path d="M14.1337 124.128L11.7598 131.346L14.2067 127.628L14.1337 124.128Z" fill="#DD968A"/>
<path d="M68.8437 78.1953L68.1133 79.5441L71.4003 80.2368L68.8437 78.1953Z" fill="#DD968A"/>
<path d="M36.9231 162.625L28.377 163.135L29.2535 165.687L36.9231 162.625Z" fill="#002B44"/>
<path d="M48.7937 154.787V157.63L3.28711 161.13L48.7937 154.787Z" fill="#002B44"/>
<path d="M80.5667 122.05C78.7406 122.014 76.951 121.759 75.2344 121.175C74.2483 120.811 73.664 122.305 74.6501 122.706C75.0153 122.852 76.0379 123.18 76.184 123.654C76.2571 123.909 75.4536 124.201 75.271 124.274C73.9196 124.821 72.2031 124.529 70.9614 123.836C67.8935 122.087 70.4866 117.238 71.984 115.342C73.3353 113.666 75.344 112.244 77.2797 111.369C78.1927 110.968 79.3249 110.64 80.311 110.968C81.4797 111.369 81.9545 113.301 80.2015 112.827C79.1788 112.535 78.5945 114.067 79.6171 114.358C81.2971 114.832 83.1598 114.139 83.0867 112.171C83.0502 110.348 81.0415 109.182 79.4345 109.182C76.111 109.182 72.3857 112.062 70.45 114.613C68.9526 116.618 67.857 119.17 67.9665 121.686C68.0761 124.274 70.2674 125.586 72.5683 126.06C74.2118 126.388 76.3301 126.024 77.4623 124.711C77.8275 124.274 77.9371 123.873 77.864 123.472C78.7041 123.581 79.5441 123.654 80.3841 123.691C81.4432 123.691 81.6258 122.05 80.5667 122.05Z" fill="white"/>
<path d="M89.2961 125.441C88.6752 123.399 86.5204 123.436 84.8404 124.019C83.8543 124.383 84.5117 125.878 85.4978 125.513C86.2282 125.258 87.5065 124.93 87.7256 125.951C87.9082 126.753 87.4335 127.664 86.8491 128.211C85.1691 129.742 82.2108 127.336 84.0004 125.696C84.7673 124.967 83.7447 123.691 82.9412 124.42C81.5534 125.696 81.5169 127.591 82.6856 129.05C83.8543 130.508 86.1187 130.763 87.6161 129.706C88.8943 128.794 89.7709 127.008 89.2961 125.441Z" fill="white"/>
<path d="M96.7825 128.357C96.7825 127.664 96.0886 127.336 95.6138 127.518C95.6138 127.3 95.5042 127.081 95.3216 126.899C94.0799 125.878 92.2173 126.352 91.1581 127.372C89.9529 128.575 89.9894 130.544 90.9755 131.856C91.852 133.023 93.4955 132.768 94.5547 132.075C95.7964 131.346 96.7825 129.888 96.7825 128.357ZM92.4364 131.018C91.7059 130.763 91.779 129.305 92.0712 128.794C92.5094 128.102 93.6416 127.664 94.3355 128.211C94.6277 128.43 94.8834 128.43 95.139 128.32C95.0295 129.487 93.7877 131.492 92.4364 131.018Z" fill="white"/>
<path d="M102.699 135.283C104.489 128.867 108.031 123.253 111.72 117.748C112.304 116.873 110.99 115.926 110.369 116.8C107.739 120.774 105.146 124.784 103.21 129.122C102.809 128.539 102.224 128.138 101.494 127.956C100.508 127.737 99.4852 128.211 98.7182 128.758C97.4034 129.705 95.7234 132.148 97.4764 133.46C98.5721 134.299 100.289 133.934 101.53 133.57C101.421 133.934 101.311 134.299 101.202 134.663C100.873 135.72 102.407 136.304 102.699 135.283ZM101.53 131.893C100.8 132.111 100.033 132.294 99.2295 132.33H98.9373C98.8643 132.33 98.7547 132.294 98.6817 132.294L98.4625 132.221H98.426L98.3895 132.184L98.353 132.148V132.075V132.039L98.3895 131.82L98.426 131.71C98.4625 131.638 98.4991 131.528 98.5356 131.455L98.5721 131.346L98.6086 131.309C98.7182 131.127 98.8278 130.981 98.9738 130.799L99.1199 130.617L99.3391 130.398C99.4852 130.252 99.6678 130.106 99.8504 129.997L99.96 129.924C100.07 129.851 100.179 129.815 100.289 129.742C100.362 129.705 100.471 129.669 100.581 129.633H100.617H100.69L100.983 129.596H101.056H101.129L101.311 129.633L101.494 129.705L101.603 129.778L101.713 129.888L101.75 129.924C101.823 129.997 101.859 130.07 101.932 130.143L102.005 130.216L102.078 130.325C102.224 130.58 102.297 130.836 102.37 131.091L102.407 131.2C102.297 131.492 102.188 131.747 102.115 132.039C101.896 131.893 101.713 131.856 101.53 131.893Z" fill="white"/>
<path d="M72.4224 133.862C67.6015 132.476 62.7441 131.091 57.8136 129.998C56.791 129.779 56.6083 131.419 57.631 131.638C59.8953 132.148 62.1232 132.695 64.3875 133.315C63.0362 136.195 61.6119 139.075 60.0049 141.809C59.4936 142.72 60.8084 143.668 61.3562 142.757C63.0728 139.84 64.5702 136.778 65.9945 133.716C67.9302 134.263 69.9024 134.81 71.8381 135.356C72.8607 135.684 73.445 134.153 72.4224 133.862Z" fill="white"/>
<path d="M67.0538 144.579C67.5286 143.267 68.2225 142.027 68.953 140.861C69.5008 139.95 68.186 139.002 67.6016 139.913C66.7981 141.225 66.0312 142.574 65.4833 144.032C65.1547 144.98 66.6886 145.564 67.0538 144.579Z" fill="white"/>
<path d="M71.4354 137.325C71.5815 137.033 71.5814 136.669 71.3623 136.413C71.1067 136.085 70.5223 135.976 70.1936 136.304C69.9745 136.486 69.8649 136.705 69.8284 136.96C69.6823 137.252 69.6823 137.58 69.9014 137.872C70.1571 138.2 70.7414 138.273 71.0701 137.981C71.2528 137.799 71.3623 137.616 71.4354 137.325Z" fill="white"/>
<path d="M85.716 149.099C84.8029 149.245 83.342 149.464 82.6846 148.698C82.502 148.48 82.4655 148.188 82.4655 147.86C84.3647 148.261 86.3369 147.532 87.5056 145.928C87.7247 145.636 87.7247 145.199 87.469 144.944C85.4968 142.501 82.4655 143.886 81.2603 146.292C80.9316 146.912 80.7855 147.568 80.8585 148.224C80.7855 148.224 80.6759 148.261 80.6029 148.297C80.2377 148.443 79.909 148.553 79.5437 148.553C79.7994 146.912 80.4933 145.308 80.3837 143.631C80.2377 141.444 78.3385 142.1 76.9141 142.939C76.4394 141.152 73.9924 141.808 72.7141 142.428C72.7871 142.282 72.8602 142.1 72.9332 141.954C73.408 141.006 71.8741 140.423 71.3993 141.371C70.4497 143.34 69.5732 145.381 68.6236 147.35C68.1488 148.297 69.7193 148.881 70.1575 147.933C70.8515 146.475 71.5454 144.98 72.2028 143.522C72.3489 143.923 72.7871 144.251 73.2984 143.996C73.8828 143.704 74.5767 143.34 75.2706 143.412C75.2706 143.412 75.2706 143.34 75.3072 143.522C75.3437 143.741 75.3072 143.996 75.2706 144.214C75.088 145.417 74.4306 146.584 73.8098 147.605C73.2254 148.48 74.5767 149.464 75.1611 148.553C75.8185 147.495 76.5124 146.256 76.8046 144.98C77.2063 144.652 77.6081 144.36 78.0463 144.105C78.1924 144.032 78.3385 143.959 78.5211 143.886L78.7403 143.85C78.7403 144.105 78.6307 144.907 78.5942 145.126C78.375 146.511 77.8272 147.86 77.7541 149.282C77.7176 149.756 78.0098 150.084 78.4846 150.193C79.4342 150.412 80.3107 150.266 81.2238 149.865L81.3698 149.792C82.3559 151.177 84.5107 151.031 85.9716 150.813C87.0308 150.558 86.7751 148.917 85.716 149.099ZM85.6795 145.49C84.9855 146.11 84.036 146.475 83.1229 146.329C83.7803 145.454 84.8029 144.98 85.6795 145.49Z" fill="white"/>
<path d="M93.4601 145.381C92.1818 144.616 89.6983 143.959 89.0409 145.892C88.7488 146.803 89.3331 147.641 89.8079 148.37C90.2827 149.063 90.8305 149.318 90.6844 150.193C90.5384 150.995 90.2096 150.959 89.4427 150.813C89.0409 150.74 88.7122 150.594 88.347 150.448C87.4705 150.047 86.9592 151.433 87.8357 151.834C89.2601 152.49 91.561 152.818 92.401 151.068C92.7297 150.375 92.5471 149.646 92.1453 149.027C91.8532 148.553 91.3418 148.188 91.0862 147.714C90.5749 147.24 90.6479 146.694 91.3418 146.11C91.7801 146.183 92.1818 146.365 92.5471 146.621C93.3871 147.022 94.2636 145.855 93.4601 145.381Z" fill="white"/>
<path d="M95.8309 25.383C96.8535 25.0184 97.6935 24.3258 97.6935 23.1592C97.7301 21.2271 95.6848 20.2064 94.0779 19.8419C93.6761 19.7325 93.457 20.0241 93.4205 20.3158C93.3109 20.3887 93.2013 20.4981 93.1648 20.6803C92.5439 24.1071 91.8135 27.4974 91.1926 30.9241C91.1561 31.1793 91.2657 31.3616 91.4118 31.4709C91.3022 31.7261 91.3752 32.0177 91.7039 32.1636C94.0413 33.2207 97.9127 33.5488 98.7892 30.3773C99.4466 28.0077 97.8031 26.2943 95.8309 25.383ZM96.5248 23.0499C96.6709 24.3258 94.5892 24.581 93.6031 24.6539C93.8222 23.4873 94.0779 22.2843 94.297 21.1178C95.2831 21.4094 96.4153 21.9562 96.5248 23.0499ZM92.3248 31.1793V31.1428C92.6535 29.3565 93.0187 27.5703 93.3474 25.8204C95.3561 26.1485 98.0222 27.3515 97.6935 29.794C97.3648 32.4187 94.0413 31.9084 92.3248 31.1793Z" fill="#004A76"/>
<path d="M102.916 27.0964C102.916 26.3309 101.747 26.4402 101.747 27.1693C101.747 28.9556 100.761 30.5596 100.798 32.3824C100.798 33.1115 101.967 33.0385 101.967 32.3094C101.967 30.4867 102.953 28.8827 102.916 27.0964Z" fill="#004A76"/>
<path d="M104.195 22.5393C103.428 21.8467 102.478 22.5029 101.967 23.1226C101.748 23.3778 101.821 23.7059 102.004 23.8881C102.004 24.034 102.04 24.2162 102.15 24.3621C102.369 24.6902 102.807 24.7631 103.172 24.7631C103.574 24.7631 104.159 24.6902 104.451 24.3621C104.925 23.8152 104.67 22.9768 104.195 22.5393Z" fill="#004A76"/>
<path d="M110.732 29.0648C110.695 28.3721 109.782 28.4086 109.6 28.9919C109.454 29.4658 109.344 29.9397 109.271 30.4136C108.723 31.6166 107.518 32.7467 106.532 31.5437C105.4 30.1584 107.189 27.8982 108.796 27.8618C108.796 27.9711 108.76 28.117 108.723 28.2263C108.541 28.9554 109.673 29.1741 109.855 28.4451C110.001 27.9347 110.001 27.643 109.855 27.1327C109.819 26.914 109.6 26.8046 109.417 26.7681C106.532 26.039 104.121 29.7939 105.582 32.1634C106.313 33.3664 107.737 33.2935 108.833 32.7102L108.979 32.6009C108.942 32.929 108.869 33.2935 108.833 33.6216C108.65 34.4601 108.468 35.335 108.029 36.0641C107.518 36.939 106.787 36.3193 106.24 35.8089C105.692 35.2985 104.925 36.1734 105.473 36.6838C109.052 40.0741 109.855 34.2778 110.44 30.8875C110.622 30.3407 110.732 29.6845 110.732 29.0648Z" fill="#004A76"/>
<path d="M121.871 31.2521C123.368 30.7053 124.5 29.5387 124.719 27.7889C125.011 25.2006 122.711 23.7789 120.373 23.8518C120.081 23.8518 119.935 24.0341 119.862 24.2163C119.606 24.0705 119.241 24.0705 119.095 24.4715C117.744 28.117 117.78 32.2364 115.771 35.6267C115.516 36.1006 115.954 36.4651 116.356 36.4287C116.246 36.7203 116.356 37.1578 116.757 37.2671C119.131 38.0327 125.048 39.6002 125.961 35.9912C126.582 33.6946 124.135 32.1635 121.871 31.2521ZM124.829 35.8454C123.879 38.2879 118.766 36.7203 117.013 36.137L116.867 36.1006C118.876 32.6738 118.839 28.6274 120.154 24.9819V24.9454C120.227 24.9819 120.337 25.0183 120.446 25.0183C122.199 24.9454 123.77 25.8933 123.551 27.7889C123.295 29.8668 121.14 30.5595 119.351 30.4866C118.657 30.4501 118.693 31.4708 119.277 31.6531C120.775 32.0177 125.705 33.5488 124.829 35.8454Z" fill="#004A76"/>
<path d="M130.82 39.637C129.286 40.439 128.154 39.1631 128.081 37.8872C129.359 38.5798 130.856 38.3611 131.696 37.0122C132.025 36.5019 132.062 35.8092 131.733 35.2989C131.258 34.5698 130.199 34.6062 129.468 34.7521C127.46 35.1166 126.583 36.9393 127.058 38.835C127.569 40.9129 129.651 41.5326 131.441 40.6213C132.098 40.2567 131.441 39.3089 130.82 39.637ZM129.176 36.028C129.688 35.8092 131.222 35.5176 130.674 36.5019C130.162 37.3768 129.067 37.1945 128.373 36.6842C128.555 36.429 128.811 36.1738 129.176 36.028Z" fill="#004A76"/>
<path d="M141.008 38.5798C140.022 38.9808 138.89 39.3089 138.488 38.1059C138.196 37.231 138.269 36.2103 138.196 35.2989C138.159 34.5698 138.05 33.8407 137.392 33.4033C136.735 33.0023 135.858 33.5491 135.274 33.9866C135.237 33.3668 134.251 33.221 134.142 33.9136L133.302 38.5434C133.156 39.2725 134.324 39.4912 134.434 38.7621L135.055 35.2625C135.201 35.3718 135.42 35.3718 135.603 35.1896C136.041 34.825 136.844 33.9501 136.99 34.825C137.137 35.7364 137.063 36.6842 137.21 37.5956C137.538 39.9651 139.328 40.4755 141.41 39.637C142.067 39.4183 141.702 38.3247 141.008 38.5798Z" fill="#004A76"/>
</g>
<defs>
<clipPath id="clip0">
<rect width="155" height="262" fill="white"/>
</clipPath>
</defs>
</svg>
