<svg width="137" height="250" viewBox="0 0 137 250" fill="none" xmlns="http://www.w3.org/2000/svg">
<g clip-path="url(#clip0)">
<path d="M84.3633 18.1054L95.1791 42.7289L129.069 30.2723L120.127 0L84.3633 18.1054Z" fill="#E3E7EB"/>
<path d="M131.953 81.2572L106.572 74.8841L111.475 56.6338L137.001 60.8343L131.953 81.2572Z" fill="#E3E7EB"/>
<path d="M71.2403 126.448L73.6918 133.546C73.6918 133.546 57.6845 140.933 57.2518 140.498C56.8192 140.064 51.0508 132.242 51.0508 132.242C51.0508 132.242 59.415 126.883 59.7034 126.883L71.2403 126.448Z" fill="#FFFFFE"/>
<path d="M16.7284 173.522C16.44 172.364 15.5747 171.929 14.2768 172.074C11.9695 172.219 9.80632 171.784 7.64316 170.77C4.90316 169.756 2.88421 167.439 2.01895 164.542L0 156.865V151.651C0.865263 148.32 3.31684 146.871 6.48947 146.292C7.21053 146.147 7.78737 146.002 8.50842 145.712C8.79684 145.278 9.22947 145.133 9.80632 144.988C13.8442 143.974 18.0263 143.395 22.3526 143.25C22.7853 143.25 23.0737 143.25 23.5063 143.25C28.5537 143.54 32.0147 145.857 33.4568 150.782C35.0432 155.562 35.3316 160.631 34.3221 165.556C33.8895 168.742 31.2937 171.205 28.1211 171.35C25.2368 171.784 22.2084 172.074 19.3242 172.219C18.4589 171.929 17.3053 172.364 17.0168 173.233C16.8726 173.377 16.8726 173.377 16.7284 173.522Z" fill="#585755"/>
<path d="M18.8912 171.785C22.2081 171.64 25.6691 171.35 28.986 170.771C31.726 170.336 33.4565 168.164 34.0333 164.398C34.8986 159.183 34.1776 153.824 32.0144 149.044C30.8607 146.292 28.4091 144.409 25.5249 144.12C21.0544 143.395 16.7281 144.264 12.4018 144.989C11.1039 145.278 9.80598 145.568 8.65229 145.713C7.21019 138.471 6.48913 131.084 6.63335 123.697C7.06598 109.212 15.8628 98.0593 29.8512 94.4382C30.4281 93.8588 31.2933 93.4243 32.1586 93.4243C35.0428 92.8449 38.0712 92.8449 40.9554 93.4243C43.2628 93.5691 45.5702 93.8588 47.8776 94.2933C52.4923 95.1624 56.5302 97.7696 59.126 101.536C63.7407 108.198 67.4902 115.44 70.086 123.117C70.5186 124.131 70.807 125.29 71.2397 126.304C71.6723 127.318 71.3839 127.607 70.5186 127.897C66.1923 129.49 62.0102 131.228 57.6839 132.967C56.5302 133.401 56.2418 133.836 56.8186 134.85C57.2512 135.574 57.5397 136.443 57.8281 137.312C58.4049 137.746 58.8376 138.326 58.9818 139.05C62.7312 148.465 66.4807 157.88 70.5186 167.15C71.5281 169.902 72.9702 172.654 74.7007 174.971C74.9891 175.261 75.1333 175.695 74.9891 175.985C73.2586 177.723 71.0954 178.447 68.9323 179.317C61.866 182.069 54.2228 183.662 46.7239 184.096C43.2628 184.386 39.946 184.386 36.4849 184.386C31.726 184.386 27.1112 183.807 22.4965 183.082C21.9197 182.793 21.487 182.358 21.3428 181.779C20.3333 178.882 19.3239 175.985 18.747 172.943C18.6028 172.654 18.4586 172.219 18.8912 171.785Z" fill="#EC1C24"/>
<path d="M85.9501 195.828L93.449 193.221C91.2859 205.823 89.2669 218.279 87.248 230.736C87.248 231.46 86.6711 232.039 85.9501 232.039H85.8059C84.3638 232.763 82.6332 232.763 81.3354 232.039C80.9027 224.218 80.3259 216.396 79.8933 208.575C80.0375 206.981 79.749 205.243 79.3164 203.65C79.4606 202.926 80.0375 202.926 80.4701 202.636C83.2101 201.332 85.229 198.87 85.9501 195.828Z" fill="#02394F"/>
<path d="M85.9497 195.828C86.2381 198.146 84.6518 199.594 83.2097 200.898C82.056 202.057 80.6139 202.926 79.1718 203.505C77.1529 204.519 75.1339 205.243 72.9708 205.968C72.5381 206.402 71.8171 206.692 71.2402 206.837C65.1834 208.14 58.8381 208.72 52.6371 208.43C52.0602 208.43 51.6276 208.285 51.0508 207.995C49.6087 207.416 48.1665 207.126 46.5802 207.126C37.495 206.981 31.0055 202.346 25.9581 195.249C21.1992 188.731 18.6034 181.199 16.5844 173.523C16.1518 171.495 17.5939 171.784 18.7476 171.929C19.4687 175.695 20.6223 179.461 22.2087 183.082C22.9297 185.545 23.9392 188.007 25.3813 190.18C26.2466 192.207 27.5444 193.946 29.1308 195.394C31.2939 197.422 40.956 202.781 41.3887 202.346C45.2823 203.65 49.176 204.229 53.2139 204.085C57.8287 204.085 62.2992 203.36 66.6255 201.912L84.5076 196.263C85.2286 196.118 85.6613 195.973 85.9497 195.828Z" fill="#3A3B39"/>
<path d="M64.1742 211.617C64.3184 220.017 64.4626 228.418 64.4626 236.819C64.4626 238.123 64.7511 238.557 66.1932 238.557C68.6447 238.557 71.0963 239.137 73.2595 240.296C74.1247 240.875 75.4226 240.585 76.5763 240.875C78.8837 241.165 80.47 243.192 80.47 245.51C80.47 246.958 79.3163 248.262 77.8742 248.407C76.7205 248.696 75.4226 247.972 74.99 246.813C74.5574 245.365 75.2784 243.917 76.5763 243.337C76.8647 243.192 77.1532 243.048 77.5858 242.758C76.2879 241.454 74.2689 241.02 72.5384 241.454C69.51 242.468 66.3374 243.048 63.1647 242.903C62.5879 242.903 62.0111 242.758 61.4342 243.192C64.03 244.206 64.7511 244.931 64.6068 246.669C64.4626 248.262 63.309 249.566 61.7226 249.855C60.1363 250 58.55 248.986 57.9732 247.538C57.2521 245.944 57.8289 244.496 59.9921 242.903C57.6847 242.758 55.3774 242.179 53.07 241.165C51.9163 240.73 50.7626 240.875 49.7532 241.599C48.8879 241.889 48.4553 242.903 48.8879 243.772C48.8879 243.917 49.0321 244.061 49.1763 244.206C49.8974 245.22 50.4742 246.234 49.3205 247.393C48.5995 248.117 47.59 248.407 46.7247 247.827C45.5711 247.103 44.9942 245.655 45.4268 244.351C46.0037 242.613 47.4458 241.309 49.3205 241.02C53.3584 240.44 57.1079 238.268 61.29 238.557C62.2995 238.702 62.2995 237.978 62.2995 237.254C62.1553 228.708 62.1553 220.162 62.0111 211.761C62.7321 211.037 63.4532 210.747 64.1742 211.617Z" fill="#3A3B39"/>
<path d="M75.8542 139.484C75.2774 138.181 74.8447 136.877 74.4121 135.573C75.2774 133.111 75.9984 130.649 76.5753 128.042C76.7195 127.028 77.729 126.159 78.7384 126.303C78.7384 126.303 78.7384 126.303 78.8826 126.303C85.949 126.448 93.1595 126.883 100.226 127.317C103.687 127.607 107.148 127.607 110.609 127.752C111.042 127.752 111.618 127.752 112.051 127.752C114.935 127.897 115.945 128.331 114.935 131.518C112.339 139.919 109.888 148.32 107.436 156.721L104.119 157.3C103.975 155.996 104.841 154.982 104.841 153.824C104.696 152.955 104.841 151.941 105.273 151.217C107.004 144.988 108.734 138.76 110.465 132.532C111.042 130.359 110.897 130.214 108.734 130.214C101.812 129.925 94.89 129.49 87.8237 129.055C85.6605 128.911 83.3532 129.055 81.19 128.621C80.0363 128.476 79.4595 129.055 79.1711 130.214C78.45 132.821 77.729 135.429 77.0079 137.891C76.4311 138.47 76.4311 139.05 75.8542 139.484Z" fill="#E3E7EB"/>
<path d="M29.5638 90.9615C28.987 90.8167 28.987 90.2373 28.8428 89.8028C27.9775 86.6162 27.1122 83.2848 26.5354 79.9534C25.9585 78.2153 26.8238 76.3323 28.5543 75.6081C29.8522 75.0287 31.1501 74.4493 32.5922 74.3045C33.0249 74.1597 33.4575 74.1597 33.6017 73.4354C33.6017 71.8422 34.8996 70.3937 36.4859 70.3937C37.928 70.2489 38.7933 71.2628 39.3701 72.4215C40.2354 74.1597 39.3701 75.3184 38.0722 76.3323C37.928 76.4772 37.7838 76.622 37.7838 76.622C37.4954 77.3462 36.6301 77.6359 36.0533 77.9256C34.467 78.7946 34.467 78.7946 35.0438 80.5328C35.4764 81.6915 35.9091 82.9951 36.3417 84.1539C36.4859 84.5884 36.6301 85.3126 36.0533 85.6023C35.4764 86.0368 34.7554 86.0368 34.3228 85.6023C33.7459 85.1678 33.0249 84.1539 32.3038 85.0229C31.5828 85.892 32.5922 86.4714 33.1691 86.9059C33.7459 87.3404 34.0343 88.0646 34.1785 88.644C34.3228 89.5131 34.0343 90.0924 33.1691 90.2373C32.3038 90.3821 30.7175 91.396 29.5638 90.9615Z" fill="#004A76"/>
<path d="M29.5625 90.9618C30.4278 90.8169 31.293 90.6721 32.3025 90.3824C32.7351 90.2376 33.6004 90.5272 33.6004 89.803C33.7446 89.0788 33.4562 88.2097 32.8793 87.7752C32.4467 87.4855 32.0141 87.051 31.5814 86.6165C31.1488 86.1819 31.1488 85.3129 31.5814 84.8783C32.0141 84.299 32.8793 84.299 33.312 84.7335C33.6004 84.8783 33.8888 85.168 34.1772 85.4577C34.6099 86.1819 35.3309 85.8922 35.7636 85.6026C36.1962 85.3129 35.7636 84.8783 35.7636 84.4438C35.1867 82.8505 34.7541 81.1124 34.033 79.5191C33.7446 78.6501 33.8888 78.3604 34.7541 78.0707C35.7636 77.781 36.773 77.2016 37.6383 76.7671C38.792 78.5052 39.6572 80.3882 40.5225 82.2711C40.6667 82.5608 40.8109 82.8505 40.6667 82.9954C38.9362 84.1541 40.0899 85.4577 40.3783 86.4716C40.6667 87.4855 40.6667 88.3546 39.513 88.6443C37.7825 89.2236 38.0709 90.3824 38.3593 91.8308C38.6478 93.1344 39.2246 93.4241 40.3783 93.2793C40.5225 93.2793 40.8109 93.4241 40.9551 93.569C37.2057 93.4241 33.4562 93.7138 29.8509 94.5829C29.9951 93.2793 29.8509 92.1205 29.5625 90.9618Z" fill="#F8B5A8"/>
<path d="M64.1743 211.616C63.4532 211.327 62.5879 211.761 61.8669 211.616C58.6943 211.906 55.3774 211.037 52.6374 209.444C52.0606 209.154 51.4837 208.575 51.1953 208.14C53.5027 208.14 55.6658 208.14 57.9732 208.14C62.7322 208.14 67.4911 207.561 72.1058 206.402C72.3943 206.257 72.6827 206.257 73.1153 206.257C72.6827 208.14 71.0964 209.009 69.6543 209.878C68.2122 210.747 65.9048 210.747 64.1743 211.616Z" fill="#585755"/>
<path d="M112.484 115.44L90.4194 111.819C90.131 111.674 89.9868 111.529 89.6983 111.385C89.5541 110.371 90.2752 110.081 90.852 109.502C92.2941 108.343 93.7362 107.184 95.1783 106.17C96.6204 105.156 98.0626 103.563 100.37 104.577C100.803 104.722 101.235 104.432 101.668 104.287C102.821 103.853 103.543 104.287 104.264 105.156C106.859 108.053 109.167 111.095 111.763 113.847C112.339 114.137 112.916 114.571 112.484 115.44Z" fill="#E3E7EB"/>
<path d="M100.66 234.936L104.986 235.081C104.698 237.109 104.554 239.137 104.265 241.165C104.121 242.034 104.265 242.468 105.131 242.758C106.861 243.482 108.736 244.206 110.322 245.22C108.015 245.51 105.852 245.944 103.544 246.089C102.246 246.234 100.66 247.103 99.7947 246.379C98.9295 245.655 99.7947 243.917 99.7947 242.613C100.083 240.006 100.516 237.543 100.66 234.936Z" fill="#F4A200"/>
<path d="M115.08 97.3348C114.791 101.68 114.503 106.025 113.926 110.371C113.782 112.109 114.215 113.847 113.349 115.585C110.609 112.254 107.869 109.067 104.985 105.736C103.255 103.708 103.255 103.129 105.706 101.825C107.725 100.666 109.744 99.5074 111.763 98.4935C112.772 97.9142 113.638 96.9003 115.08 97.3348Z" fill="#E3E7EB"/>
<path d="M81.1907 232.04H85.6612C85.6612 233.053 85.517 233.923 85.517 234.936C85.3728 237.544 85.3728 237.544 87.8243 238.558C88.5454 238.847 89.2664 239.282 89.9875 239.861C87.2475 240.151 84.6517 240.296 81.9117 240.585C81.0464 240.73 81.1907 240.151 81.1907 239.716V232.04Z" fill="#F4A200"/>
<path d="M91.5742 96.6108H113.783C113.783 97.6247 112.917 97.7696 112.196 98.2041C108.879 100.087 105.563 101.97 102.246 103.853C101.236 104.722 99.9384 104.722 98.9289 103.853C96.4773 101.825 94.1699 99.7974 91.8626 97.7696C91.5742 97.3351 91.4299 96.9005 91.5742 96.6108Z" fill="#E3E7EB"/>
<path d="M88.834 110.371C89.2666 106.026 89.8435 101.68 90.8529 97.335C93.8814 98.204 95.6119 100.666 97.775 102.694C98.2077 103.129 98.2077 103.998 97.6308 104.432L97.4866 104.577C94.6024 106.46 92.295 108.633 89.4108 110.516C89.2666 110.661 88.9782 110.516 88.834 110.371Z" fill="#E3E7EB"/>
<path d="M88.8333 110.371C91.429 108.488 94.169 106.46 96.7648 104.432C97.7743 103.708 97.7743 103.129 96.7648 102.26C94.7459 100.666 92.7269 98.9282 90.708 97.3349C90.5638 96.6107 90.8522 96.4658 91.5733 96.4658C94.169 98.7833 96.909 101.101 99.5048 103.418C99.9375 103.998 100.803 104.143 101.524 103.708C105.562 101.246 109.744 98.9282 113.782 96.6107C114.359 96.6107 115.224 96.0313 114.935 97.3349C111.619 99.2178 108.302 101.101 104.841 102.839C103.543 103.563 103.975 104.143 104.696 104.867C107.004 107.474 109.311 110.226 111.619 112.833C112.34 113.702 113.205 114.282 113.205 115.585L112.484 115.44L103.543 104.722C103.399 104.577 103.254 104.432 103.254 104.432C101.524 105.156 99.5048 104.143 98.2069 104.867C95.1785 106.605 92.4385 108.778 89.9869 111.385C89.1217 111.385 88.2564 111.819 88.8333 110.371Z" fill="#B3B8BC"/>
<path d="M119.117 171.784C118.685 169.177 116.666 167.294 114.214 166.86C112.772 166.57 111.33 166.28 109.888 166.28C105.562 166.28 101.235 166.715 97.0533 167.584C95.8996 167.584 94.7459 167.874 93.7364 168.598C91.5733 170.046 89.4101 171.205 87.1027 172.364C83.6417 174.102 80.3249 175.84 76.287 175.695C75.8543 175.55 75.4217 175.695 75.1333 176.13C73.1143 177.578 70.807 178.592 68.4996 179.461C59.7027 182.937 50.4733 184.096 41.0996 184.241C34.8985 184.241 28.5533 183.806 22.3522 182.937C22.0638 183.227 22.0638 183.661 22.208 183.951C24.0827 188.007 25.5248 192.352 29.1301 195.539C29.5627 195.828 30.1396 196.118 30.5722 196.553C33.8891 199.305 37.6385 201.332 41.6764 202.636C42.6859 203.071 43.8396 203.36 44.9933 203.505C52.348 204.954 59.847 204.519 66.9133 202.346C73.2585 200.463 79.6038 198.436 85.9491 196.408C87.5354 195.828 89.1217 195.539 90.708 194.814C91.7175 194.38 92.8712 194.38 93.5922 193.366L102.533 190.469V193.945C102.533 194.67 102.389 195.394 102.389 195.973C102.101 203.65 101.668 211.471 101.38 219.293C101.235 224.507 100.947 229.722 100.803 234.936C102.101 235.805 103.831 235.805 105.129 235.081C107.869 234.936 107.869 234.936 108.734 232.184C108.879 231.894 108.879 231.605 109.023 231.46C113.637 215.672 118.108 199.739 119.694 183.227C119.983 179.316 119.839 175.55 119.117 171.784Z" fill="#004A76"/>
<path d="M75.8555 139.484L78.5955 129.055C78.7397 128.476 79.3165 128.041 79.8934 128.186C84.5081 128.476 89.267 128.766 93.8818 129.055C96.0449 129.2 98.0639 129.2 100.227 129.345C103.111 129.635 105.995 129.635 108.88 129.78C111.331 129.78 111.331 129.78 110.61 132.097C108.735 138.905 106.717 145.712 104.842 152.52C104.698 152.955 104.553 153.389 104.409 153.968C102.967 153.968 102.967 155.707 101.813 156.286C101.237 156.576 100.515 156.576 99.9386 156.431C94.026 155.417 88.2576 154.548 82.3449 153.679C81.6239 153.679 80.9028 153.389 80.4702 152.955C78.7397 148.464 77.2976 143.974 75.8555 139.484Z" fill="#FFFFFE"/>
<path d="M100.803 157.735C100.515 158.604 99.6497 158.749 98.7844 158.893C94.1697 160.052 89.6992 161.066 85.0844 162.08C83.9308 162.37 83.4981 162.225 83.0655 161.066C82.4887 158.893 81.6234 156.866 80.9023 154.693C81.4792 154.258 82.056 154.403 82.6329 154.403C88.1129 155.272 93.5929 155.997 99.0729 156.866C99.9381 157.155 100.515 157.3 100.803 157.735Z" fill="#B3B8BC"/>
<path d="M100.802 157.735L81.0453 154.693C80.7569 153.969 80.6126 153.389 80.3242 152.665C87.5347 153.679 94.6011 154.693 101.812 155.996C101.812 156.865 101.235 157.155 100.802 157.735Z" fill="#E3E7EB"/>
<path d="M39.5133 43.3084C39.8017 42.1496 38.0712 41.7151 37.7828 42.8738C37.6386 43.3084 37.3502 43.7429 37.0617 44.0326C36.3407 42.4393 35.3312 40.9909 34.0333 39.977C32.8796 39.2528 32.1586 39.977 31.7259 41.1357C31.2933 40.9909 30.7165 41.2806 30.5723 41.8599C30.5723 42.0048 30.5723 42.1496 30.5723 42.2945C31.0049 44.4671 31.7259 46.6398 32.3028 48.8124C32.447 49.247 33.0238 49.5367 33.4565 49.3918C33.8891 49.247 34.0333 48.8124 34.0333 48.3779C33.6007 47.0743 33.1681 45.6259 32.8796 44.3223V44.1774C32.8796 43.4532 33.0238 42.5842 33.3123 41.8599C33.4565 42.0048 33.6007 42.1496 33.6007 42.2945C34.4659 43.4532 35.3312 44.7568 36.0523 46.0604C36.3407 46.4949 36.9175 46.6398 37.2059 46.3501C38.2154 45.481 39.0807 44.4671 39.5133 43.3084Z" fill="#8DB300"/>
<path d="M48.1666 48.2328C47.0129 45.4808 45.2824 43.0185 44.4171 40.1216C44.2729 39.8319 44.1287 39.687 43.8403 39.5422C43.8403 39.3974 43.6961 39.2525 43.6961 39.1077C43.1192 38.2386 42.1098 37.8041 41.1003 38.0938C40.8119 38.0938 40.6677 38.2386 40.5234 38.5283C40.3792 38.5283 40.3792 38.5283 40.235 38.5283C39.8024 38.5283 39.3698 38.9628 39.3698 39.3974C39.2255 40.8458 39.9466 42.1494 41.2445 42.7288C41.9656 43.0185 42.8308 42.7288 43.2634 42.2942C44.5613 45.4808 46.5803 48.5225 47.5898 51.8539C47.8782 52.723 47.8782 53.4472 47.734 54.3163C47.3013 56.0544 44.5613 55.1853 43.8403 54.3163C42.5424 52.5781 43.6961 49.6813 44.2729 47.9431C44.5613 46.7844 42.975 46.4947 42.5424 47.5086C41.6771 49.9709 40.8119 52.8678 42.254 55.1853C43.5519 57.0683 46.0034 57.6477 48.0224 56.4889C48.455 56.1992 48.8877 55.7647 49.3203 55.1853C50.474 53.3023 48.8877 49.9709 48.1666 48.2328ZM41.9656 41.1355H41.8213C41.5329 41.1355 41.3887 40.8458 41.2445 40.5561C41.2445 40.4113 41.1003 40.1216 41.1003 39.9767C41.2445 39.9767 41.3887 39.9767 41.5329 39.9767C41.6771 39.9767 41.6771 39.9767 41.8213 39.9767H42.1098V40.1216V40.2664V40.4113C42.1098 40.5561 42.254 40.5561 42.254 40.5561V40.8458V40.9906C42.3982 40.8458 41.9655 41.2803 42.254 40.9906" fill="#8DB300"/>
<path d="M51.9156 38.6735C49.7525 41.2807 48.0219 39.3977 47.0125 36.9354C47.7335 34.3282 48.8872 31.1417 47.8777 28.5345C47.4451 27.3757 46.1472 26.3618 44.9935 27.2309C44.1283 28.3896 43.6956 29.6932 43.8398 31.1417C43.8398 33.1695 44.2725 35.1973 45.1377 37.0802C45.1377 37.2251 45.1377 37.3699 44.9935 37.5148C44.8493 37.9493 45.1377 38.5287 45.7146 38.5287C45.8588 38.5287 45.8588 38.5287 46.003 38.5287C46.2914 38.9632 46.5798 39.3977 46.8682 39.6874C48.0219 41.4255 50.4735 42.0049 52.204 40.8462C52.6367 40.5565 53.0693 40.1219 53.3577 39.6874C53.9346 39.108 52.6367 37.9493 51.9156 38.6735ZM45.5704 32.4452C45.4261 31.5762 45.4261 30.7071 45.7146 29.8381C45.7146 29.6932 45.8588 29.5484 45.8588 29.4035L46.003 29.2587C46.2914 29.6932 46.4356 30.1277 46.2914 30.7071C46.2914 31.8659 46.1472 33.0246 45.8588 34.1834C45.7146 33.4591 45.7146 32.8798 45.5704 32.4452Z" fill="#8DB300"/>
<path d="M55.8087 39.8321C55.3761 38.3837 54.7992 36.9352 54.0782 35.6316C53.5013 34.6177 52.0592 35.4868 52.4918 36.5007C53.0687 37.8043 53.6455 38.963 54.0782 40.4115C54.2224 40.846 54.655 41.1357 55.2318 40.9908C55.6645 40.7012 55.9529 40.2666 55.8087 39.8321Z" fill="#8DB300"/>
<path d="M52.9267 30.8517C52.3499 30.7068 51.773 30.8517 51.6288 31.2862C51.4846 31.7207 51.6288 32.1553 51.9173 32.445H52.0615C52.4941 32.7346 53.0709 32.5898 53.2152 32.1553C53.5036 31.7207 53.3594 31.1414 52.9267 30.8517Z" fill="#8DB300"/>
<path d="M62.2984 35.342C61.5774 34.7626 60.5679 34.4729 59.7026 34.6178C57.2511 34.7626 58.6932 32.7348 59.9911 32.0106C61.0005 31.4312 60.1353 29.8379 59.1258 30.4173C57.5395 31.2864 55.2321 33.7487 57.1068 35.4868C57.6837 36.0662 58.549 36.3559 59.4142 36.211C59.8469 36.211 60.4237 36.211 60.8563 36.211C61.4332 36.3559 61.4332 37.3698 61.289 37.6595C61.1447 37.9492 60.2795 38.2388 59.8469 38.2388C59.4142 38.2388 58.9816 38.8182 59.1258 39.2528C59.1258 39.6873 59.5584 39.977 59.8469 39.977C61.0005 39.977 62.1542 39.5424 62.7311 38.5285C63.3079 37.6595 63.0195 36.3559 62.2984 35.342Z" fill="#8DB300"/>
<path d="M72.1051 35.1969C71.6725 35.7763 71.0957 36.2108 70.5188 36.6453C70.0862 34.7624 68.7883 33.3139 67.202 32.4449C66.7693 32.3 66.4809 32.3 66.0483 32.3C65.3272 29.548 64.8946 26.796 64.7504 23.8991C64.7504 23.4646 64.1736 23.0301 63.7409 23.1749C63.3083 23.1749 63.0199 23.6094 63.0199 23.8991C62.8757 27.665 64.3178 31.2861 64.6062 34.9072C64.6062 35.4866 64.6062 36.066 64.6062 36.6453C64.6062 37.0799 65.183 37.5144 65.6157 37.3696C66.0483 37.3696 66.3367 36.935 66.3367 36.6453C66.3367 35.9211 66.3367 35.0521 66.3367 34.3279C66.4809 34.0382 66.6251 33.8933 67.0578 34.183C68.2114 35.1969 68.9325 36.5005 69.2209 38.0938C69.3651 38.5283 69.7978 38.818 70.3746 38.6732C70.3746 38.6732 70.5188 38.6732 70.5188 38.5283C71.6725 37.9489 72.5378 37.0799 73.403 36.2108C74.1241 35.6314 72.8262 34.3278 72.1051 35.1969Z" fill="#8DB300"/>
<path d="M24.3722 32.0102C21.6322 32.1551 19.469 34.4726 19.469 37.0797C19.6132 39.2524 21.488 40.8457 23.6511 40.8457C23.9395 40.8457 24.228 40.7008 24.5164 40.7008C24.949 40.556 25.0932 40.2663 24.949 39.8318C24.8048 39.3972 24.5164 39.2524 24.0838 39.3972C21.0553 39.8318 18.3153 41.5699 16.5848 44.1771C15.2869 46.6394 15.8638 49.6811 18.0269 51.4193C20.0459 53.1574 22.9301 53.8816 25.5259 53.1574C28.6985 52.1435 31.4385 50.1157 33.3132 47.5085C33.8901 46.7843 32.8806 45.7704 32.3038 46.4946C29.5638 50.1157 24.5164 54.0264 19.9017 51.1296C17.5943 49.9708 16.729 47.0739 17.8827 44.7564C17.8827 44.6116 18.0269 44.6116 18.0269 44.4668C19.6132 42.439 21.9206 40.9905 24.5164 40.7008C24.3722 40.2663 24.228 39.8318 24.228 39.3972C22.9301 39.8318 21.488 39.1076 21.0553 37.804C20.9111 37.5143 20.9111 37.2246 20.9111 36.7901C21.0553 34.9071 22.4974 33.6035 24.3722 33.4587C25.2374 33.169 25.2374 31.8654 24.3722 32.0102Z" fill="#8DB300"/>
<path d="M97.0537 167.584C95.6116 168.019 94.1695 168.743 92.8716 169.612C89.5548 171.64 86.0937 173.378 82.4884 174.826C80.1811 175.84 77.5853 176.275 75.1337 175.985C72.5379 173.812 71.6727 170.481 70.3748 167.584C65.9042 157.735 62.0106 147.596 57.9727 137.457L70.8074 132.677C73.259 131.808 73.259 131.808 73.98 134.125C74.1242 134.56 79.3158 148.175 80.9021 152.665C81.0463 153.389 81.3348 154.114 81.6232 154.693C82.2 156.721 83.2095 158.604 83.6421 160.632C83.9305 161.646 84.5074 161.79 85.3727 161.501C89.8432 160.487 94.3137 159.328 98.7842 158.314C99.5053 158.314 100.082 157.88 100.515 157.445C100.947 156.866 101.38 156.286 101.813 155.707C102.245 155.128 102.678 154.548 103.111 154.114C103.543 153.679 104.408 152.955 104.697 153.679C104.841 154.838 104.553 155.852 103.832 156.866C104.841 156.721 108.302 156.431 108.735 156.286C109.167 156.142 109.6 155.997 109.888 156.576C110.033 157.155 109.456 157.3 109.167 157.445C108.879 157.59 106.716 158.169 106.716 158.169C106.716 158.169 108.302 157.88 109.456 157.88C110.465 157.88 110.177 158.604 109.456 158.894C108.446 159.328 107.581 159.618 106.572 159.907C107.004 159.618 109.888 159.328 109.888 160.342C109.888 161.356 107.293 161.501 106.716 161.501C107.437 161.501 110.033 161.501 109.312 162.08C107.869 162.659 106.283 162.949 104.697 162.949C102.822 163.094 101.092 163.818 99.7937 164.977C98.9284 165.701 97.919 166.281 96.9095 166.86C96.3326 167.439 96.7653 167.439 97.0537 167.584Z" fill="#F8B5A8"/>
<path d="M37.2058 80.823C37.35 80.6782 37.6384 80.5333 37.7827 80.6782C37.9269 80.823 38.0711 81.1127 37.7827 81.2575C37.6384 81.4024 37.35 81.4024 37.2058 81.2575C37.0616 81.2575 37.0616 80.9679 37.2058 80.823Z" fill="#484441"/>
<path d="M36.4863 80.388C36.6305 80.0983 36.7748 79.8087 37.0632 79.6638C37.3516 79.519 37.4958 79.519 37.7842 79.6638" stroke="#484441" stroke-width="0.19" stroke-linecap="round" stroke-linejoin="round"/>
<path d="M118.829 63.8762L117.243 70.3942C117.099 70.9736 117.676 71.5529 118.253 71.4081L125.319 69.8148C126.04 69.67 126.184 68.8009 125.752 68.3664L120.416 63.4417C119.839 63.0072 118.974 63.152 118.829 63.8762Z" fill="#F4A200"/>
<path d="M113.494 15.3535L114.648 16.6571C114.359 16.2226 113.927 15.788 113.494 15.3535Z" fill="white"/>
<path d="M116.234 22.0167L114.936 23.7549L114.792 25.493L111.763 29.6935L110.61 28.8244L110.321 23.7549H107.581C107.437 23.7549 106.428 19.9889 106.428 19.9889L109.6 16.9472L109.745 15.0643C109.745 15.0643 110.754 14.1952 111.331 13.6158C110.61 13.3261 109.889 13.0364 109.168 12.8916C108.591 13.471 107.293 14.4849 107.293 14.4849L104.12 15.3539C104.12 15.3539 104.265 13.7607 104.12 13.7607C103.832 13.9055 103.543 13.9055 103.255 14.0504L102.822 17.3818H101.38L98.4961 20.7132L98.7845 22.0167L103.976 25.493L104.12 27.376C104.12 27.376 102.967 28.6795 102.967 28.9692C102.967 29.1141 102.822 30.4177 102.678 31.4316C103.976 32.011 105.418 32.4455 106.86 32.4455C112.196 32.4455 116.667 28.1002 116.667 22.5961C116.667 22.1616 116.667 21.7271 116.522 21.2925L116.234 22.0167Z" fill="white"/>
<path d="M109.456 17.0918L106.283 20.1335C106.283 20.1335 107.293 23.8995 107.437 23.8995H110.177L110.465 28.969L111.619 29.8381L114.647 25.6376L114.792 23.8995L116.09 22.1614L116.522 21.4371C116.234 19.699 115.657 18.1057 114.647 16.8021L113.494 15.4986C112.773 14.9192 112.052 14.3398 111.186 13.9053C110.61 14.4846 109.6 15.3537 109.6 15.3537L109.456 17.0918Z" fill="#8DB300"/>
<path d="M104.119 27.3756L103.975 25.4926L98.7836 22.0164L98.4952 20.7128L101.379 17.3814H102.821L103.254 14.05C103.543 13.9052 103.831 13.7603 104.119 13.7603C104.264 13.7603 104.119 15.3536 104.119 15.3536L107.292 14.4845C107.292 14.4845 108.59 13.4706 109.167 12.8912C108.446 12.7464 107.725 12.6016 107.004 12.6016C101.668 12.6016 97.1973 16.9469 97.1973 22.4509C97.1973 26.3617 99.5046 29.6931 102.677 31.2864C102.821 30.2725 102.966 28.9689 102.966 28.824C102.966 28.6792 104.119 27.3756 104.119 27.3756Z" fill="#8DB300"/>
</g>
<defs>
<clipPath id="clip0">
<rect width="137" height="250" fill="white"/>
</clipPath>
</defs>
</svg>
