<svg width="76" height="76" viewBox="0 0 76 76" fill="none" xmlns="http://www.w3.org/2000/svg">
<g clip-path="url(#clip0)">
<path fill-rule="evenodd" clip-rule="evenodd" d="M42.75 66.1349H5.11538C2.19231 66.1349 0 63.7599 0 61.0195V41.4715C0 38.5484 2.375 36.3561 5.11538 36.3561H42.75C45.6731 36.3561 47.8654 38.7311 47.8654 41.4715V60.8368C48.0481 63.7599 45.6731 66.1349 42.75 66.1349Z" fill="#F4A200"/>
<path fill-rule="evenodd" clip-rule="evenodd" d="M0 57.5486V76.0005L14.0673 61.9332C14.0673 61.9332 0.182692 57.7313 0 57.5486Z" fill="#F4A200"/>
<path d="M35.0773 55.7213C36.8935 55.7213 38.3657 54.249 38.3657 52.4329C38.3657 50.6167 36.8935 49.1444 35.0773 49.1444C33.2611 49.1444 31.7888 50.6167 31.7888 52.4329C31.7888 54.249 33.2611 55.7213 35.0773 55.7213Z" fill="white"/>
<path d="M23.933 55.7213C25.7492 55.7213 27.2215 54.249 27.2215 52.4329C27.2215 50.6167 25.7492 49.1444 23.933 49.1444C22.1168 49.1444 20.6445 50.6167 20.6445 52.4329C20.6445 54.249 22.1168 55.7213 23.933 55.7213Z" fill="white"/>
<path d="M12.7887 55.7213C14.6049 55.7213 16.0772 54.249 16.0772 52.4329C16.0772 50.6167 14.6049 49.1444 12.7887 49.1444C10.9725 49.1444 9.50024 50.6167 9.50024 52.4329C9.50024 54.249 10.9725 55.7213 12.7887 55.7213Z" fill="white"/>
<path fill-rule="evenodd" clip-rule="evenodd" d="M25.3943 43.8463H63.0289C65.952 43.8463 68.1443 41.4713 68.1443 38.7309V19.3655C68.1443 16.4424 65.7693 14.2501 63.0289 14.2501H25.3943C22.4712 14.2501 20.0962 16.4424 20.0962 19.3655V38.7309C20.0962 41.654 22.4712 43.8463 25.3943 43.8463Z" fill="#EB212E"/>
<path fill-rule="evenodd" clip-rule="evenodd" d="M68.1443 35.2598V53.7117L54.077 39.6444C53.8943 39.8271 67.9616 35.6252 68.1443 35.2598Z" fill="#EB212E"/>
<path d="M29.5964 23.9329H58.6445" stroke="white" stroke-width="2" stroke-miterlimit="10"/>
<path d="M29.5964 33.4327H49.5099" stroke="white" stroke-width="2" stroke-miterlimit="10"/>
</g>
<defs>
<clipPath id="clip0">
<rect width="76" height="76" fill="white"/>
</clipPath>
</defs>
</svg>
