<svg width="76" height="76" viewBox="0 0 76 76" fill="none" xmlns="http://www.w3.org/2000/svg">
<path d="M44.384 43.6239H31.616V61.1039H44.384V43.6239Z" fill="#004A76"/>
<path d="M49.5519 60.3439H26.2959V65.5119H49.5519V60.3439Z" fill="#004A76"/>
<path fill-rule="evenodd" clip-rule="evenodd" d="M63.536 50.6159H12.464C10.032 50.6159 8.20801 48.6399 8.20801 46.3599V18.0879C8.20801 15.6559 10.184 13.6799 12.464 13.6799H63.384C65.816 13.6799 67.64 15.6559 67.64 17.9359V46.2079C67.792 48.7919 65.816 50.6159 63.536 50.6159Z" fill="#F4A200"/>
<path d="M20.8241 34.5039C23.1746 34.5039 25.0801 32.5985 25.0801 30.2479C25.0801 27.8974 23.1746 25.9919 20.8241 25.9919C18.4736 25.9919 16.5681 27.8974 16.5681 30.2479C16.5681 32.5985 18.4736 34.5039 20.8241 34.5039Z" fill="white"/>
<path d="M20.8241 36.632C16.8721 36.632 13.5281 39.824 13.5281 43.928H28.1201C28.1201 39.824 24.9281 36.632 20.8241 36.632Z" fill="white"/>
<path d="M38.0001 34.5039C40.3507 34.5039 42.2561 32.5985 42.2561 30.2479C42.2561 27.8974 40.3507 25.9919 38.0001 25.9919C35.6496 25.9919 33.7441 27.8974 33.7441 30.2479C33.7441 32.5985 35.6496 34.5039 38.0001 34.5039Z" fill="white"/>
<path d="M38.0001 36.632C34.0481 36.632 30.7041 39.824 30.7041 43.928H45.2961C45.2961 39.824 41.9521 36.632 38.0001 36.632Z" fill="white"/>
<path d="M55.1762 34.5039C57.5267 34.5039 59.4322 32.5985 59.4322 30.2479C59.4322 27.8974 57.5267 25.9919 55.1762 25.9919C52.8256 25.9919 50.9202 27.8974 50.9202 30.2479C50.9202 32.5985 52.8256 34.5039 55.1762 34.5039Z" fill="white"/>
<path d="M55.1761 36.632C51.2241 36.632 47.8801 39.824 47.8801 43.928H62.4721C62.4721 39.824 59.1281 36.632 55.1761 36.632Z" fill="white"/>
<path d="M37.9999 18.9999C40.3504 18.9999 42.2559 17.0944 42.2559 14.7439C42.2559 12.3934 40.3504 10.4879 37.9999 10.4879C35.6494 10.4879 33.7439 12.3934 33.7439 14.7439C33.7439 17.0944 35.6494 18.9999 37.9999 18.9999Z" fill="#004A76"/>
<path d="M37.9999 16.7199C39.0912 16.7199 39.9759 15.8353 39.9759 14.7439C39.9759 13.6526 39.0912 12.7679 37.9999 12.7679C36.9086 12.7679 36.0239 13.6526 36.0239 14.7439C36.0239 15.8353 36.9086 16.7199 37.9999 16.7199Z" fill="white"/>
</svg>
