<?xml version="1.0" encoding="UTF-8"?> <!-- Generator: Adobe Illustrator 23.0.4, SVG Export Plug-In . SVG Version: 6.00 Build 0) --> <svg xmlns="http://www.w3.org/2000/svg" xmlns:xlink="http://www.w3.org/1999/xlink" x="0px" y="0px" viewBox="0 0 153.5 194.2" style="enable-background:new 0 0 153.5 194.2;" xml:space="preserve"> <style type="text/css"> .st0{fill:#231F20;} .st1{fill-rule:evenodd;clip-rule:evenodd;fill:#EB212E;} .st2{fill-rule:evenodd;clip-rule:evenodd;fill:#004A76;} .st3{fill-rule:evenodd;clip-rule:evenodd;fill:#F4A200;} .st4{fill-rule:evenodd;clip-rule:evenodd;fill:#FFFFFF;} .st5{fill-rule:evenodd;clip-rule:evenodd;fill:#1B1C20;} .st6{fill-rule:evenodd;clip-rule:evenodd;fill:none;stroke:#FFFFFF;stroke-width:2;stroke-miterlimit:10;} .st7{fill:#FFFFFF;} .st8{fill:#EC1C24;} .st9{fill:#7FB439;} .st10{fill:#F9A51A;} .st11{fill:#F6B433;} .st12{fill:#004A76;} .st13{fill:#F9A61A;} .st14{fill:#240036;} .st15{fill:#FEFEFD;} .st16{fill:#F8B5A7;} .st17{fill:#F4A200;} .st18{fill:#45423F;} .st19{fill:none;stroke:#484441;stroke-width:0.7177;stroke-linecap:round;stroke-linejoin:round;stroke-miterlimit:10;} .st20{fill:none;stroke:#D95F73;stroke-width:0.7177;stroke-linecap:round;stroke-linejoin:round;stroke-miterlimit:10;} .st21{fill:#D95F73;} .st22{fill:#02394F;} .st23{fill:#C41627;} .st24{fill:#F99200;} .st25{fill:#E3E7EB;} .st26{fill:#F8B5A8;} .st27{fill:#3A3B39;} .st28{fill:#FFFFFE;} .st29{fill:#FA9200;} .st30{fill:#8DB300;} .st31{fill:#484441;} .st32{fill:none;stroke:#484441;stroke-width:0.1897;stroke-linecap:round;stroke-linejoin:round;stroke-miterlimit:10;} .st33{fill:none;stroke:#D95F73;stroke-width:0.2529;stroke-linecap:round;stroke-linejoin:round;stroke-miterlimit:10;} .st34{fill:#585755;} .st35{fill:#B3B8BC;} .st36{fill:#EB212E;} .st37{fill:#EC1C24;stroke:#EC1C24;stroke-width:0.5;stroke-miterlimit:10;} .st38{clip-path:url(#SVGID_2_);fill-rule:evenodd;clip-rule:evenodd;fill:#FFFFFF;} .st39{clip-path:url(#SVGID_2_);fill-rule:evenodd;clip-rule:evenodd;fill:#8DB300;} .st40{fill:none;stroke:#FFFFFF;stroke-width:2;stroke-miterlimit:10;} .st41{fill-rule:evenodd;clip-rule:evenodd;fill:#8DB300;} .st42{fill:none;stroke:#3A3B39;stroke-width:5;stroke-miterlimit:10;} .st43{fill:#DD968A;} .st44{fill:#F6A7A1;} .st45{fill:#F7B5A7;} .st46{fill:#DD8E03;} .st47{fill:none;stroke:#484441;stroke-width:0.75;stroke-linecap:round;stroke-linejoin:round;stroke-miterlimit:10;} .st48{fill:none;stroke:#D95F73;stroke-linecap:round;stroke-linejoin:round;stroke-miterlimit:10;} .st49{clip-path:url(#SVGID_4_);fill:#E3E7EB;} .st50{clip-path:url(#SVGID_4_);fill:#FEFEFD;} .st51{clip-path:url(#SVGID_4_);fill:#B3B8BC;} .st52{clip-path:url(#SVGID_4_);} .st53{clip-path:url(#SVGID_4_);fill:#F4A200;} .st54{clip-path:url(#SVGID_4_);fill:#004A76;} .st55{clip-path:url(#SVGID_4_);fill:#FDFEFD;} .st56{clip-path:url(#SVGID_4_);fill:#F8B6A8;} .st57{clip-path:url(#SVGID_4_);fill:#F8B5A7;} .st58{clip-path:url(#SVGID_4_);fill:#8DB300;} .st59{fill:#FDFEFD;} .st60{fill:none;stroke:#484441;stroke-width:0.4426;stroke-linecap:round;stroke-linejoin:round;stroke-miterlimit:10;} .st61{fill:none;stroke:#D95F73;stroke-width:0.4426;stroke-linecap:round;stroke-linejoin:round;stroke-miterlimit:10;} .st62{fill:none;stroke:#484441;stroke-width:0.4642;stroke-linecap:round;stroke-linejoin:round;stroke-miterlimit:10;} .st63{fill:none;stroke:#D95F73;stroke-width:0.4642;stroke-linecap:round;stroke-linejoin:round;stroke-miterlimit:10;} .st64{fill:#97C5B6;} .st65{fill:none;stroke:#484441;stroke-width:0.35;stroke-linecap:round;stroke-linejoin:round;stroke-miterlimit:10;} .st66{fill:#EC6883;} .st67{fill:#EA5372;} .st68{fill:#799600;} .st69{fill:#CF4463;} .st70{fill:none;stroke:#D95F73;stroke-width:0.35;stroke-linecap:round;stroke-linejoin:round;stroke-miterlimit:10;} .st71{fill:#3B3C3A;} .st72{fill:none;stroke:#3A3B39;stroke-width:2.8625;stroke-miterlimit:10;} .st73{fill:#403F3A;} .st74{fill:#FAF5EE;} .st75{fill:none;stroke:#D95F73;stroke-width:0.4568;stroke-linecap:round;stroke-linejoin:round;stroke-miterlimit:10;} </style> <g id="Layer_2"> </g> <g id="Layer_1"> <g> <rect x="111" y="122.2" class="st34" width="8.7" height="5.2"></rect> <rect x="107.6" y="126.4" class="st34" width="15.5" height="2.6"></rect> <g> <g> <path class="st27" d="M59.5,150.4c-0.2-0.2-4.7-3.9-6-11.2c-1.3-7-0.7-13.7-0.7-14l1.9,0.2c0,0.1-0.5,6.7,0.7,13.5 c1.2,6.5,5.3,10,5.4,10L59.5,150.4z"></path> </g> <g> <rect x="68.7" y="154.1" class="st27" width="1.9" height="26.2"></rect> </g> <g> <path class="st34" d="M53.6,107.1c0,0-8.6,4-7.9,11.9c0.8,9.5,7,11.8,7.6,12c0.7,0.2,3.2-17.2,3.2-17.2L53.6,107.1z"></path> </g> <g> <path class="st34" d="M83.2,150.1c0,0-2.7,6-13.1,5.7c-10.4-0.2-11.8-2.8-11.8-3.5c-0.1-0.7-0.1-4.7,0.6-5.3 c0.7-0.6,14.1-0.9,14.1-0.9L83.2,150.1z"></path> </g> <g> <circle class="st27" cx="69.3" cy="185.5" r="1.3"></circle> </g> <g> <circle class="st27" cx="60.4" cy="183.9" r="1.3"></circle> </g> <g> <circle class="st27" cx="80.4" cy="183.8" r="1.3"></circle> </g> <g> <path class="st27" d="M70,179.4c1.1,0.1,4.8,0.6,6.2,1.2c0.9,0.4,2.8,0.8,4,1.3c0.9,0.4,1.4,1.1,1.4,1.6 c-0.1,0.5-0.6,0.2-0.6,0.1c0-0.1-0.9-0.9-0.9-0.9s-0.3-0.4-1.9-0.7c-0.6-0.1-0.8-0.1-0.8-0.1s-0.2,1.2-1.6,1.2s-5.8,0-8.3-0.1 c-4.2-0.2-4.8-2.9-2.6-3.2S68.2,179.3,70,179.4z"></path> </g> <g> <path class="st27" d="M67.9,182.4c0,0.1-0.6,1.5-0.4,2.5s0.4,1.2,0.8,1.4c0.4,0.2,0.5-0.3,0.5-0.3s-0.2-1.2-0.3-1.2 c-0.1,0-0.3-0.2-0.1-0.8c0.2-0.6,0.8-1.8,0.8-1.8L67.9,182.4z"></path> </g> <g> <path class="st27" d="M64.6,180.7c0,0-2.9,0.8-4.1,1.2c-1.1,0.4-1.7,1.5-1.6,2.1c0.1,0.6,0.8-0.3,0.9-0.4c0.1-0.1,0-1,1.2-1.2 c1.2-0.3,4.9-1.1,4.9-1.1L64.6,180.7z"></path> </g> </g> <rect x="127.4" y="130.8" class="st35" width="18.4" height="51"></rect> <rect x="80.6" y="130.8" class="st35" width="18.4" height="47.5"></rect> <rect x="82.3" y="129" class="st25" width="66.4" height="3.8"></rect> <path class="st16" d="M58.2,8.6C57.9,7.5,57.3,7,56.1,7c-2.8,0.1-2.4-0.5-2.4,2.5c0,0.3,0.3,0.2,0.5,0.3c-0.3,1.3,1,0.8,1.5,1.2 c0,1.1,0.1,2.1,0.1,3.2c1.1-0.1,2.2,0,3.3-0.3C58.9,12.2,58.7,10.4,58.2,8.6z"></path> <path class="st16" d="M15.8,5.6c0-0.6-3-0.3-3.5-0.2c-0.6,0.1-1.1,0.2-1.3,1c-0.5,1.8-1,3.6-1.6,5.4c1.4-0.5,2.9-0.2,4.4-0.2 c-0.7-0.8-0.1-1.5,0.1-2.2v0c0.4-0.3,1.2-0.4,1-1.2c0.3-0.1,1,0.3,1-0.5l0,0C15.8,6.8,15.8,6.1,15.8,5.6z"></path> <path class="st16" d="M35.2,58.4c-0.5-0.1-2-0.4-2.6-0.6l-0.3-0.1c0-0.1-0.1-2,0-3.2c0-0.2,0.1-0.5,0.2-0.8c0,0,0,0,0,0 c1.5-0.3,1.9-1.9,2-3.1c0-1.2-0.7-6.1-1-7.8s-1.9-2-1.9-2l-1.3-1.2l-3.4,0.8L26,44.5l-0.4,5.9c0,0,0.9,4.2,0.4,7 c-0.2,1-3.7,2-3.7,2s0.7,3,1.6,4.3c0.9,1.2,3.1,2.8,7.8,1.9C38,64.5,35.8,58.5,35.2,58.4z"></path> <path class="st16" d="M100.6,77.6c-0.8-2.3-1.6-4.5-2.7-6.7c-3.4-6.8-7.5-13.2-12-19.3c-2.4-3.2-2.9-3.2-5.7-0.5 c-0.3,0.3-1.1,0.5-0.6,1.1c0.6,0.7,0.7,1.9,1.9,1.9c0.5,0.2,0.8-0.2,1.2-0.4c0.3-0.1,0.6-0.5,1-0.3c0.5,0.3,0.1,0.7,0,1.1 c0.1,0.1,0.1,0.2,0.2,0.3c3.4,8.5,6.9,16.9,10.3,25.4c0.2,0.4,0.3,0.8-0.2,1.1c-0.2,0.1-0.5,0.2-0.7,0.3c0,0,0,0,0,0c0,0,0,0,0,0 c-1.9,0.7-3.8,1.3-5.6,2c-0.5,0.2-1.1,0.3-1,1.2c0.8,3.2,1.5,6.3,2.3,9.5c0.1,0.5,0.4,0.6,0.9,0.3c0.6-0.3,1-0.5,1.7-1 c0.2,0,4.7-3.7,6.5-5.6C101,85,101.9,81.7,100.6,77.6z"></path> <path class="st66" d="M4.8,36.1c0.4,0.6,0.4,1.1,0,1.7C4.8,37.2,4.8,36.7,4.8,36.1z"></path> <path class="st67" d="M4.8,39.8c0.4,0.6,0.4,1.1,0,1.7C4.8,40.9,4.8,40.3,4.8,39.8z"></path> <path class="st68" d="M114.2,151.2c-3.4,9.9-8.4,19.1-13.7,28.1c-0.3,0.5-0.6,0.7-1.1,0.8c-1.3,0.2-2.5,0.4-3.7-0.2 c0-0.2,0-0.3,0.1-0.5c0.1-0.8,0.1-1.6,0.7-2.2c1.8-3.1,4.1-5.9,6.1-8.9c3-4.7,5.9-9.5,7.9-14.8c1-2.6,1.7-5.2,1.5-8 c-0.2-2.3-1.5-3.9-3.5-5c-2.8-1.6-5.9-2.4-9-3c-6.3-1.1-12.7-1-19-1c-1.6,0-4.2,0.5,5.7-2.7c0.1,0,0.2-0.1,0.3-0.2 c1-0.7,2.2-0.4,3.3-0.3c3.5,0.3,7,0.2,10.4,0.7c4.1,0.6,8.1,1.2,11.8,3.3c1.5,0.8,2.9,1.9,3.6,3.5c0.6,1.2,0.8,2.4,0.6,3.7 C115.9,146.3,114.3,151.1,114.2,151.2z"></path> <path class="st12" d="M70.4,85.2c-0.8-0.1-1.5-0.7-2.2-1c-0.2-0.1-0.5-0.2-0.3-0.6c0.5-0.8,0.5-2.1,2-2.1c0.6,0,1.3-0.4,1.2-1.1 c-0.2-0.8-1-0.8-1.6-0.7c-0.3,0-0.6,0.2-0.8,0.2c-0.5-0.1-1.1-0.3-0.6-0.9c1-1.6,0.7-2.8-0.9-3.8c-0.4-0.3-0.7-0.8-1-1.2 c-0.6-1.7-0.6-3.3,0.6-4.7c0.5-0.7,1.2-1.2,2.1-0.9c0.9,0.3,1.2,1.1,1.2,2c-0.1,0.9,0.3,1.4,1,1.9c3.9,3,4,3.5,2,7.9 C72.1,81.8,71.2,83.5,70.4,85.2z"></path> <path class="st27" d="M25.6,181.9c0.9,0,1.9,0,2.8,0c0.4,0,0.9-0.1,0.9,0.5c-0.4,1.2-1.1,2.4-1.1,3.6c0.1,1.2,1.6,1.8,2.3,3 c-2.3,0-4.5,0-6.7,0C24.4,186.6,25,184.2,25.6,181.9z"></path> <path class="st27" d="M11.8,181.9c1.3,0.1,2.6-0.3,3.8,0.3c-0.3,1-0.6,2.1-1,3.1c-0.2,0.6-0.2,1,0.3,1.5c0.7,0.6,1.2,1.3,2.1,2.2 c-2.3,0-4.4,0-6.5,0c-0.7,0-0.3-0.6-0.2-0.9C10.8,186,11.3,184,11.8,181.9z"></path> <path class="st27" d="M92.8,181.4c-0.7,1.1-1.4,2.2-2.2,3.2c-0.4,0.5-0.4,0.8,0.2,1.2c0.7,0.5,1.3,1.1,2.2,1.8c-2.3,0-4.4,0-6.6,0 c0.9-2.1,1.8-4.1,2.8-6.2C90.3,181.2,91.6,181.2,92.8,181.4z"></path> <path class="st27" d="M95.7,179.9c1.2,0.1,2.5-0.2,3.7,0.2c-0.1,0.1-0.1,0.3-0.2,0.4c-0.5,0.9-1.3,1.8-1.4,2.7 c-0.1,1,1.4,1.3,2,2.3c-1.8,0-3.5,0-5.3,0c-0.6,0-0.4-0.4-0.3-0.7C94.8,183.2,95,181.5,95.7,179.9z"></path> <path class="st12" d="M44.6,115.8c-10.3,0-20.7,0-31,0c-0.2,0.4-0.1,0.7,0,1.1c0,0.6,0,1.1,0.1,1.7c0.1,2.5,0.1,5.1,0.2,7.6 c0.3,7.6,0.6,15.1,0.9,22.7c0.1,2.9,0.6,5.9,0.4,8.8c-0.2,3.4-0.8,6.7-1.4,10c-0.8,4.5-1.7,9-2.5,13.5c-0.1,0.5,0,0.9,0.6,0.9 c1.2,0.6,2.5,0.3,3.8,0.3c0.9-0.4,1.1-1.3,1.5-2.1c5.6-15.1,9.5-30.7,11-46.7c0.3-2.6,0.7-5.1,1-8c0.2,0.5,0.3,0.8,0.4,1 c0,0.1,0,0.3,0,0.4c0.4,6.8,0.9,13.6,1.3,20.5c0.1,2.4,0.7,4.7,0.2,7.1c-2.1,8.8-4.2,17.6-6.3,26.4c-0.2,0.8-0.2,1.3,0.8,1.2 c1.2,0.7,2.5,0.2,3.7,0.5c0.4-0.5,0.7-1.1,0.9-1.7c2.5-6.2,5-12.4,7.6-18.5c2.3-5.4,4-10.9,4.6-16.8c0.6-6.4,1.2-12.8,1.6-19.2 C44.3,122.7,44.7,119.2,44.6,115.8z"></path> <path class="st8" d="M59.1,14c-1.1-0.3-2.3-0.4-3.3,0.3c-0.9,9.1-1.8,18.2-2.7,27.3c-0.1,1.1-0.5,1.8-1.2,2.5 c-4.2,4.1-8.4,8.3-12.6,12.5c-0.5,0.5-0.8,1.1-0.8,1.8c-0.1,2.6-0.3,4.9-1.8,7c-1,1.5-3,2.5-4.8,3c-4,1-9.9-0.7-11.6-6.9 c-0.3-1-0.5-2-0.9-3c-2.4-6-4.8-12-7.3-18c-0.2-0.5-0.4-0.9-0.4-1.4c0.3-3.3,0.5-6.6,0.8-9.9c0.4-5.8,0.9-11.7,1.3-17.5 c-1.5-0.6-3-0.7-4.4,0c-0.4,0.4-0.5,1-0.7,1.6c-0.6,2.3-1.1,4.6-1.6,6.9c-1,4.8-2,9.7-2.4,14.6c0,0.5,0,1,0,1.5 c0.2,0.6,0.2,1.1,0,1.7c0,0.7,0,1.3,0,2c0.2,0.6,0.2,1.1,0,1.7c0,0.7,0,1.5,0,2.2C5,43.8,5,44,5,44.2C5.5,49,6.6,53.7,8,58.4 c1.8,5.8,3.2,11.7,3.7,17.9c0.7,9.5,1.3,19,1.5,28.6c0.1,3.6,0.3,7.3,0.4,10.9c0.4,0.4,0.9,0.3,1.4,0.3c9.3,0,18.7-0.1,28,0.1 c0.6,0,1.2,0.1,1.6-0.4c0-0.5,0.1-1,0.1-1.5c0-14.8,0-29.6,0-44.5c0-0.5-0.1-1.1,0.2-1.6c0.7-0.8,1.3-1.5,1.7-2.4 c3.5-4.7,7-9.5,10.6-14.2c1.3-1.7,2.1-3.6,2.4-5.7c0.5-2.5,0.7-5,0.7-7.4C60.5,30.3,60,22.2,59.1,14z"></path> <path class="st30" d="M39.2,39.5c-0.2,0-0.4,0-0.4-0.2c-0.1-0.3,0.2-0.4,0.4-0.6c1.2-0.7,2.4-1.4,3.6-2.1c0.5-0.3,1-0.6,1.5-0.8 c0.2-0.1,0.3-0.1,0.4,0.1c0.1,0.1,0.1,0.3,0,0.4C42.8,37.4,41,38.4,39.2,39.5z"></path> <path class="st17" d="M59.5,74c-2.1-0.9-3.8-2.2-5.7-3.2c-0.2-0.1-0.3-0.3-0.1-0.5c0.2-0.3,0.5-0.1,0.7,0c1.6,0.9,3.2,1.8,4.8,2.8 C59.3,73.2,59.6,73.4,59.5,74z"></path> <path class="st17" d="M86.2,129.5c-0.1-0.6-0.1-1.1-0.6-1.5c-0.4-0.2,0.1-2.6-0.7-5.6c-0.7-5.7-1.5-11.5-2.1-17.2 c-0.2-2-0.8-4-0.5-6.1c0.3-0.1,3-1.8,4.1-2.4c0.5-0.3,0.6-0.6,0.5-1.1c-0.6-3.4-1.2-6.8-2.2-10.2c-0.2-0.8-0.6-0.8-1.2-0.6 c-1.9,0.5-3.7,1-5.6,1.4c-0.7,0.2-0.9,0.5-0.8,1.2c0.3,1.6,0,3.2-0.4,4.7c-1.1,3.5-3.2,6.1-7,6.8c-3.7,0.7-6.6-0.8-8.9-3.6 c-0.9-1.2-1.7-2.4-2.3-3.8c-0.4-0.9-0.8-1-1.7-0.6c-2.2,0.9-3.6,2.6-4.6,4.8c-1.6,3.6-1.9,7.5-2,11.4c-0.1,4.1,2.6,24.3,3.8,29.5 c0.7,2.2,1.1,4.5,1.9,6.7c0.1,0.2,0.3,0.3,0.5,0.4c0.6,0.1,1-0.2,1.5-0.3c5-1.7,10.1-3.3,15.1-4.9c4.1-1.3,8.2-2.6,12.3-4 c0.4-0.1,0.9-0.2,1.1-0.7c0.2-0.5,0-0.9-0.1-1.4C86.5,131.4,86.3,130.4,86.2,129.5z"></path> <path class="st16" d="M81.4,54.1c0.5-0.3,0.9-0.5,1.4-0.8c0.4-0.2,0.7-0.8,1.2-0.1c0.4,0.6,0.4,1-0.3,1.4 C82.8,54.9,82,55.3,81.4,54.1z"></path> <path class="st17" d="M58.4,66.1c0.2,0.2,0.4,0.3,0.5,0.4c0.8,1.1,1.7,2.3,2.5,3.5c0.1,0.2,0.3,0.5,0.1,0.6 c-0.3,0.3-0.5-0.1-0.7-0.3c-0.8-1.1-1.7-2.3-2.5-3.5C58.1,66.6,58.1,66.3,58.4,66.1z"></path> <path class="st30" d="M37,36.3c-0.4-0.1-0.3-0.4-0.2-0.6c0.9-1.3,1.8-2.5,2.7-3.7c0.1-0.2,0.3-0.3,0.5-0.1c0.1,0.1,0.1,0.3,0,0.4 c-0.9,1.3-1.8,2.6-2.8,3.8C37.3,36.2,37.1,36.2,37,36.3z"></path> <path class="st30" d="M44.7,43c-1.2,0.6-2.6,0.6-3.9,0.7c-0.2,0-0.4,0-0.5-0.2c-0.1-0.3,0.1-0.4,0.3-0.4 C42,43.1,43.3,42.5,44.7,43z"></path> <path class="st17" d="M53.6,77.6c0.3-0.6,0.7-0.5,1.1-0.4c1,0.1,1.9,0.2,2.9,0.3c0.2,0,0.5,0.1,0.5,0.5c0,0.2-0.2,0.3-0.4,0.2 C56.3,78,54.9,78,53.6,77.6z"></path> <path class="st30" d="M107.7,139.8c-0.6-0.3-1.1-0.5-1.7-0.8c-5.1-2-10.5-2.4-15.9-2.7c-3.1-0.2-6.2,0-9.3,0 c-0.9,0-1.8,0.2-2.6,0.5c-3.3,1.3-7.3,1.5-10.6,2.9c-3.3,1.3-6.8,1.7-10.1,3.1c-0.5,0.2-1,0.4-1.2,0.9c-0.1,0.6,0.9,3.2,1.2,3.6 c1.3,2.2,3.1,3.6,5.3,4.7c3.7,1.8,7.7,1.6,11.6,1.3c3.8-0.3,7.5-0.9,11.3-1.2c4.7-0.5,14.7-1.2,14.9-1.3c0.5,0,0.9,0,1.4,0.1 c0,0.1-0.1,0.2-0.1,0.3c-1.6,3.6-3.1,7.3-4.8,10.9c-2.1,4.9-4.3,9.7-6.4,14.6c-0.3,0.7-1.6,4.3-1.8,4.9c1.2,1,2.3,0.6,3.6,0.3 c0.7-0.7,3.5-4.2,4.2-4.7c3.8-5.2,7.6-10.5,10.6-16.2c2.1-3.9,4.1-7.8,4.8-12.2C112.8,144.7,112.1,141.9,107.7,139.8z"></path> <path class="st69" d="M68.7,81.1c0.4-0.6,1-0.5,1.6-0.4C69.8,80.8,69.2,80.9,68.7,81.1z"></path> <path class="st16" d="M73.2,87.5c-2,0.5-2.8-0.2-2.8-2.2c-0.3-0.4-0.7-0.5-1.1-0.8c-0.4-0.2-1.1-0.3-0.9-1 c0.2-0.6,0.4-1.3,1.1-1.5c0.4-0.1,0.9-0.2,1.2-0.5c0.4-0.3,0.7-0.6,0.6-1.1c-0.1-0.5-0.4-0.7-0.8-0.8c-0.4-0.1-0.7-0.1-1.1-0.1 c-1.2,0.1-1.3,0-0.8-1.2c0.2-0.6,0.7-1.3,0.2-1.8c-0.8-0.8-1.6-1.9-2.7-2.4c-0.6,0.3-0.9,0.8-1.1,1.3c-1.3,2.4-3.2,2.1-2.3,3.7 c0.4,0.7-1,1.2,0.6,1.8c0.2,0.1,1.3,0.4,1.2,0.8C64.3,81.9,64,82,63.7,82c-0.3,0-0.7-0.1-0.9-0.3c-1-0.5-1,0.2-1.1,0.8 c-0.1,0.7,0.3,1.2,0.9,1.5c0.7,0.3,1.1,1.1,1.3,1.8l0,0c0.2,1.2,0.3,2.3,0.5,3.5c-0.3,0.1-0.7,0.2-1,0.2c-0.6,0.1-1.2,0.2-1.8,0.3 c-0.7,0.1-1.1,0.4-0.6,1.2c0.6,1,1,2,1.8,2.9c2.1,2.6,5.1,3.5,8.2,2.4c2.9-1.1,4.8-4.1,4.6-7.2C75.2,87,75.2,87,73.2,87.5z"></path> <path class="st17" d="M32.7,41c1-0.7,1.4-1.6,1.4-3c0-1.5-0.6-2.5-2-3.1c-2-0.5-2.8,1.4-3,2.6c-0.1,0.5-0.3,0.7-0.8,0.9 c-1.3,0.4-2.7,0.9-2.5,2.8c0,0.2-0.1,0.3-0.3,0.4c-0.9,0.5-1.1,1.4-1.1,2.3c0,2.4,0.6,4.7,1.3,7c0.4,0.3,0.9,0.2,1.2-0.1 c0.3-0.4,0-0.7-0.3-1c-0.1-0.1-0.2-0.3-0.3-0.4c-0.2-0.2-0.3-0.5-0.2-0.8c0.3-0.6,0.8-0.3,1-0.1c1.1,0.7,1,1.1,1.1-0.6 c0-1.9,0.4-3.9-0.7-5.8c1-0.1,1.9,0,2.7-0.2C30.9,41.6,31.7,41.7,32.7,41z"></path> <path class="st31" d="M33.4,45.2c-0.3-0.1-0.5,0-0.7,0.2c-0.1,0.3-0.1,0.5,0.2,0.6c0.3,0.1,0.5,0,0.6-0.2 C33.7,45.6,33.6,45.3,33.4,45.2z"></path> <path class="st65" d="M33.8,44.5c0,0-0.4-0.4-0.9-0.3c-0.4,0.1-0.6,0.4-0.6,0.4"></path> <path class="st31" d="M30.1,45.6c-0.3-0.1-0.5,0-0.6,0.3c-0.1,0.3,0,0.5,0.3,0.6c0.3,0.1,0.4,0,0.5-0.3 C30.4,45.9,30.3,45.7,30.1,45.6z"></path> <path class="st65" d="M30.4,44.8c0,0-0.4-0.4-0.9-0.2c-0.4,0.1-0.6,0.4-0.6,0.4"></path> <path class="st70" d="M33.2,50.9c0,0-0.3,0.4-0.8,0.5c-0.5,0.1-0.9-0.2-0.9-0.2"></path> <path class="st65" d="M32.3,46.5c0,0,0.7,2,0.8,2.4c0.1,0.3-0.2,0.3-0.5,0.4"></path> <path class="st31" d="M65.8,77c-0.1-0.3-0.3-0.4-0.6-0.3c-0.3,0.1-0.4,0.3-0.3,0.6c0.1,0.3,0.3,0.3,0.5,0.3 C65.7,77.5,65.8,77.3,65.8,77z"></path> <path class="st65" d="M66.6,76.8c0,0,0.1-0.5-0.3-0.9c-0.3-0.2-0.7-0.2-0.7-0.2"></path> <path class="st35" d="M137.4,122.5h-44c-0.8,0-1.4-0.6-1.4-1.4V93.6c0-0.8,0.6-1.4,1.4-1.4h44c0.8,0,1.4,0.6,1.4,1.4v27.5 C138.8,121.9,138.2,122.5,137.4,122.5z"></path> <path class="st16" d="M52.5,109c0,0,5,17.2,5.7,19.1c0.8,1.9,1.6,3.7,4.9,3.6s13.5-0.9,20.3-3.1c6.8-2.1,13.7-4.7,13.7-4.7 l4.4,0.5c0,0,2.1-1,1.8-0.9s-5-1.9-5-1.9l-31.8,2.7l-3.9-15.9L52.5,109z"></path> <polygon class="st28" points="51.8,106.7 52.5,109 62.5,108.3 61.5,105.3 "></polygon> <path class="st7" d="M135.4,120.5H95.4c-0.7,0-1.3-0.6-1.3-1.3V95.4c0-0.7,0.6-1.3,1.3-1.3h39.9c0.7,0,1.3,0.6,1.3,1.3v23.9 C136.6,120,136.1,120.5,135.4,120.5z"></path> <path class="st7" d="M123.2,107.5c-0.2-3-0.6-8.3-1-13.4h-1.9l1.3,15.8C121.9,109,122.5,108.2,123.2,107.5z"></path> <path class="st7" d="M115.8,116.1c0.1-0.5,0.3-1,0.6-1.5c0.4-5.3,1.1-13.9,1.6-20.5h-2.6l-1.1,21.7 C114.8,115.8,115.3,115.9,115.8,116.1z"></path> <path class="st25" d="M131.5,117.8c1.8-1.2,2.9-3.2,2.9-5.5c0-3.7-3-6.7-6.7-6.7c-0.5,0-1,0.1-1.5,0.2L124,94.1l-2.5-13.3 l-0.3,1.1c0,0.1,0.5,5.9,1,12.2c0.4,5,0.8,10.4,1,13.4c-0.7,0.7-1.3,1.5-1.6,2.5l-1.3-15.8l-0.8-9.9l-0.7,0.9c0,0.1-0.3,3.9-0.7,9 c-0.5,6.6-1.2,15.2-1.6,20.5c-0.3,0.5-0.5,1-0.6,1.5c-0.5-0.2-1-0.3-1.5-0.3l1.1-21.7l0.7-13.7c0,0.2-0.9,6.3-2.1,13.7 c-1.2,7.7-2.6,16.9-3.4,22.2c-1-2.5-3.4-4.3-6.2-4.3c-3.7,0-6.7,3-6.7,6.7c0,0.6,0.1,1.3,0.3,1.8h36.2 C133.7,119.3,132.7,118.4,131.5,117.8z"></path> <path class="st17" d="M119.1,90.9c-2.1-3.8-3.4-7.3-3.7-11.1c-0.2-2.5,1.5-4,3.8-4c2.5,0,3.9,1.4,3.6,4.1 C122.5,83.7,121.1,87.1,119.1,90.9z"></path> <path class="st12" d="M122.2,64.3c0,0,3.3,1.6,4,4.5c0.7,2.8-0.7,6.2-0.7,6.2l-3.8-3.3L122.2,64.3z"></path> <path class="st12" d="M116,64.3c0,0-3.3,1.6-4,4.5c-0.7,2.8,0.7,6.2,0.7,6.2l3.8-3.3L116,64.3z"></path> <rect x="115.9" y="57.2" class="st25" width="6.6" height="17.1"></rect> <path class="st46" d="M119.1,85.9c-1.1-2-1.8-3.8-1.9-5.7c-0.1-1.3,0.8-2.1,2-2.1c1.3,0,2,0.7,1.9,2.1 C120.9,82.2,120.1,84,119.1,85.9z"></path> <circle class="st7" cx="119.2" cy="61.6" r="1.8"></circle> <circle class="st7" cx="119.2" cy="66.8" r="1.8"></circle> <path class="st12" d="M121.2,52.1c-1.2-2.3-1.7-2.9-2-2.9c-0.3,0-0.8,0.6-2,2.9c-0.9,1.8-1.4,5-1.4,5h3.3l0,0h3.3 C122.5,57.2,122.1,53.9,121.2,52.1z"></path> <path class="st12" d="M123.6,76.8c-0.1-0.2-1-3.8-1-3.8h-3.2h-0.2h-3.2c0,0-1,3.6-1,3.8c-0.2,0.6,0,0.9,0.6,0.9c0.5,0,2.4,0,3.4,0 c0,0,0.3,0,0.6,0c1,0,3,0,3.4,0C123.6,77.7,123.7,77.4,123.6,76.8z"></path> </g> </g> </svg> 