<?xml version="1.0" encoding="UTF-8"?> <!-- Generator: Adobe Illustrator 23.0.4, SVG Export Plug-In . SVG Version: 6.00 Build 0) --> <svg xmlns="http://www.w3.org/2000/svg" xmlns:xlink="http://www.w3.org/1999/xlink" x="0px" y="0px" viewBox="0 0 153.5 194.2" style="enable-background:new 0 0 153.5 194.2;" xml:space="preserve"> <style type="text/css"> .st0{fill:#231F20;} .st1{fill-rule:evenodd;clip-rule:evenodd;fill:#EB212E;} .st2{fill-rule:evenodd;clip-rule:evenodd;fill:#004A76;} .st3{fill-rule:evenodd;clip-rule:evenodd;fill:#F4A200;} .st4{fill-rule:evenodd;clip-rule:evenodd;fill:#FFFFFF;} .st5{fill-rule:evenodd;clip-rule:evenodd;fill:#1B1C20;} .st6{fill-rule:evenodd;clip-rule:evenodd;fill:none;stroke:#FFFFFF;stroke-width:2;stroke-miterlimit:10;} .st7{fill:#FFFFFF;} .st8{fill:#EC1C24;} .st9{fill:#7FB439;} .st10{fill:#F9A51A;} .st11{fill:#F6B433;} .st12{fill:#004A76;} .st13{fill:#F9A61A;} .st14{fill:#240036;} .st15{fill:#FEFEFD;} .st16{fill:#F8B5A7;} .st17{fill:#F4A200;} .st18{fill:#45423F;} .st19{fill:none;stroke:#484441;stroke-width:0.7177;stroke-linecap:round;stroke-linejoin:round;stroke-miterlimit:10;} .st20{fill:none;stroke:#D95F73;stroke-width:0.7177;stroke-linecap:round;stroke-linejoin:round;stroke-miterlimit:10;} .st21{fill:#D95F73;} .st22{fill:#02394F;} .st23{fill:#C41627;} .st24{fill:#F99200;} .st25{fill:#E3E7EB;} .st26{fill:#F8B5A8;} .st27{fill:#3A3B39;} .st28{fill:#FFFFFE;} .st29{fill:#FA9200;} .st30{fill:#8DB300;} .st31{fill:#484441;} .st32{fill:none;stroke:#484441;stroke-width:0.1897;stroke-linecap:round;stroke-linejoin:round;stroke-miterlimit:10;} .st33{fill:none;stroke:#D95F73;stroke-width:0.2529;stroke-linecap:round;stroke-linejoin:round;stroke-miterlimit:10;} .st34{fill:#585755;} .st35{fill:#B3B8BC;} .st36{fill:#EB212E;} .st37{fill:#EC1C24;stroke:#EC1C24;stroke-width:0.5;stroke-miterlimit:10;} .st38{clip-path:url(#SVGID_2_);fill-rule:evenodd;clip-rule:evenodd;fill:#FFFFFF;} .st39{clip-path:url(#SVGID_2_);fill-rule:evenodd;clip-rule:evenodd;fill:#8DB300;} .st40{fill:none;stroke:#FFFFFF;stroke-width:2;stroke-miterlimit:10;} .st41{fill-rule:evenodd;clip-rule:evenodd;fill:#8DB300;} .st42{fill:none;stroke:#3A3B39;stroke-width:5;stroke-miterlimit:10;} .st43{fill:#DD968A;} .st44{fill:#F6A7A1;} .st45{fill:#F7B5A7;} .st46{fill:#DD8E03;} .st47{fill:none;stroke:#484441;stroke-width:0.75;stroke-linecap:round;stroke-linejoin:round;stroke-miterlimit:10;} .st48{fill:none;stroke:#D95F73;stroke-linecap:round;stroke-linejoin:round;stroke-miterlimit:10;} .st49{clip-path:url(#SVGID_4_);fill:#E3E7EB;} .st50{clip-path:url(#SVGID_4_);fill:#FEFEFD;} .st51{clip-path:url(#SVGID_4_);fill:#B3B8BC;} .st52{clip-path:url(#SVGID_4_);} .st53{clip-path:url(#SVGID_4_);fill:#F4A200;} .st54{clip-path:url(#SVGID_4_);fill:#004A76;} .st55{clip-path:url(#SVGID_4_);fill:#FDFEFD;} .st56{clip-path:url(#SVGID_4_);fill:#F8B6A8;} .st57{clip-path:url(#SVGID_4_);fill:#F8B5A7;} .st58{clip-path:url(#SVGID_4_);fill:#8DB300;} .st59{fill:#FDFEFD;} .st60{fill:none;stroke:#484441;stroke-width:0.4426;stroke-linecap:round;stroke-linejoin:round;stroke-miterlimit:10;} .st61{fill:none;stroke:#D95F73;stroke-width:0.4426;stroke-linecap:round;stroke-linejoin:round;stroke-miterlimit:10;} .st62{fill:none;stroke:#484441;stroke-width:0.4642;stroke-linecap:round;stroke-linejoin:round;stroke-miterlimit:10;} .st63{fill:none;stroke:#D95F73;stroke-width:0.4642;stroke-linecap:round;stroke-linejoin:round;stroke-miterlimit:10;} .st64{fill:#97C5B6;} .st65{fill:none;stroke:#484441;stroke-width:0.35;stroke-linecap:round;stroke-linejoin:round;stroke-miterlimit:10;} .st66{fill:#EC6883;} .st67{fill:#EA5372;} .st68{fill:#799600;} .st69{fill:#CF4463;} .st70{fill:none;stroke:#D95F73;stroke-width:0.35;stroke-linecap:round;stroke-linejoin:round;stroke-miterlimit:10;} .st71{fill:#3B3C3A;} .st72{fill:none;stroke:#3A3B39;stroke-width:2.8625;stroke-miterlimit:10;} .st73{fill:#403F3A;} .st74{fill:#FAF5EE;} .st75{fill:none;stroke:#D95F73;stroke-width:0.4568;stroke-linecap:round;stroke-linejoin:round;stroke-miterlimit:10;} </style> <g id="Layer_2"> </g> <g id="Layer_1"> <g> <defs> <path id="SVGID_3_" d="M138.1,187.6H15.4c-2.5,0-4.5-2-4.5-4.5V11.1c0-2.5,2-4.5,4.5-4.5h122.7c2.5,0,4.5,2,4.5,4.5v171.9 C142.6,185.6,140.6,187.6,138.1,187.6z"></path> </defs> <clipPath id="SVGID_2_"> <use xlink:href="#SVGID_3_" style="overflow:visible;"></use> </clipPath> <path style="clip-path:url(#SVGID_2_);fill:#E3E7EB;" d="M138.1,187.6H15.4c-2.5,0-4.5-2-4.5-4.5V11.1c0-2.5,2-4.5,4.5-4.5h122.7 c2.5,0,4.5,2,4.5,4.5v171.9C142.6,185.6,140.6,187.6,138.1,187.6z"></path> <path style="clip-path:url(#SVGID_2_);fill:#FEFEFD;" d="M90.9,180.8H22.1c-2.5,0-4.5-2-4.5-4.5v-30.1c0-2.5,2-4.5,4.5-4.5h68.8 c2.5,0,4.5,2,4.5,4.5v30.1C95.4,178.8,93.4,180.8,90.9,180.8z"></path> <path style="clip-path:url(#SVGID_2_);fill:#FEFEFD;" d="M85.7,141.8c0,0,6.9,0,14.6,0s-6.3,11.3-9.5,14.3 C86.8,159.9,85.7,141.8,85.7,141.8z"></path> <path style="clip-path:url(#SVGID_2_);fill:#FEFEFD;" d="M41.7,10.3h90.9c2.5,0,4.5,2,4.5,4.5v29.3c0,2.5-2,4.5-4.5,4.5H41.7 c-2.5,0-4.5-2-4.5-4.5V14.8C37.3,12.3,39.3,10.3,41.7,10.3z"></path> <path style="clip-path:url(#SVGID_2_);fill:#FEFEFD;" d="M47,48.5c0,0-6.9,0-14.6,0s6.3-11.3,9.5-14.3C45.8,30.4,47,48.5,47,48.5z "></path> <path style="clip-path:url(#SVGID_2_);fill:#B3B8BC;" d="M87.4,17c13.3,0,26.6,0,39.8,0c0.6,0,1.1,0,1.7,0c1,0,1.4,0.5,1.6,1.1 c0.2,0.6-0.3,1.1-1,1.4c-0.8,0.4-1.7,0.3-2.5,0.3c-26.4,0-52.9,0-79.3,0c-0.9,0-1.7,0.1-2.5-0.3c-0.7-0.3-1.2-0.7-1-1.4 c0.2-0.6,0.6-1.1,1.6-1.1c0.6,0,1.1,0,1.7,0C60.8,17,74.1,17,87.4,17z"></path> <path style="clip-path:url(#SVGID_2_);fill:#B3B8BC;" d="M87.4,24.4c13.3,0,26.7,0,40,0c0.6,0,1.1,0,1.7,0c0.8,0,1.2,0.5,1.4,1 c0.3,0.6,0,1-0.6,1.3c-0.7,0.4-1.6,0.4-2.5,0.4c-26.7,0-53.4,0-80.1,0c-0.5,0-1,0-1.5-0.1c-0.9-0.2-1.8-0.6-1.6-1.4 c0.1-0.9,0.8-1.3,2-1.3c4.7,0,9.3,0,14,0C69.3,24.4,78.3,24.4,87.4,24.4z"></path> <path style="clip-path:url(#SVGID_2_);fill:#B3B8BC;" d="M87.4,31.8c13.3,0,26.6,0,39.8,0c0.6,0,1.1,0,1.7,0c1,0,1.4,0.5,1.6,1.1 c0.2,0.6-0.3,1.1-1,1.4c-0.8,0.4-1.7,0.3-2.5,0.3c-26.4,0-52.9,0-79.3,0c-0.9,0-1.7,0.1-2.5-0.3c-0.7-0.3-1.2-0.7-1-1.4 c0.2-0.6,0.6-1.1,1.6-1.1c0.6,0,1.1,0,1.7,0C60.8,31.8,74.1,31.8,87.4,31.8z"></path> <path style="clip-path:url(#SVGID_2_);fill:#B3B8BC;" d="M65.8,39.1c6.3,0,12.7,0,19,0c1.4,0,2.6,0.2,2.6,1.4 c0,1.1-1.3,1.4-2.6,1.4c-12.7,0-25.3,0-38,0c-2.1,0-3.1-1-2.3-2.2c0.5-0.7,1.3-0.6,2.1-0.6C53,39.1,59.4,39.1,65.8,39.1z"></path> <g style="clip-path:url(#SVGID_2_);"> <path class="st35" d="M49.4,149.1c13.3,0,21.9,0,35.2,0c0.6,0,1.1,0,1.7,0c1,0,1.4,0.5,1.6,1.1c0.2,0.6-0.3,1.1-1,1.4 c-0.8,0.4-1.7,0.3-2.5,0.3c-26.4,0-30,0-56.4,0c-0.9,0-1.7,0.1-2.5-0.3c-0.7-0.3-1.2-0.7-1-1.4c0.2-0.6,0.6-1.1,1.6-1.1 c0.6,0,1.1,0,1.7,0C41,149.1,36.1,149.1,49.4,149.1z"></path> <path class="st35" d="M49.4,156.5c13.3,0,22,0,35.3,0c0.6,0,1.1,0,1.7,0c0.8,0,1.2,0.5,1.4,1c0.3,0.6,0,1-0.6,1.3 c-0.7,0.4-1.6,0.4-2.5,0.4c-26.7,0-30.5,0-57.2,0c-0.5,0-1,0-1.5-0.1c-0.9-0.2-1.8-0.6-1.6-1.4c0.1-0.9,0.8-1.3,2-1.3 c4.7,0,9.3,0,14,0C49.5,156.5,40.4,156.5,49.4,156.5z"></path> <path class="st35" d="M49.4,163.8c13.3,0,21.9,0,35.2,0c0.6,0,1.1,0,1.7,0c1,0,1.4,0.5,1.6,1.1c0.2,0.6-0.3,1.1-1,1.4 c-0.8,0.4-1.7,0.3-2.5,0.3c-26.4,0-30,0-56.4,0c-0.9,0-1.7,0.1-2.5-0.3c-0.7-0.3-1.2-0.7-1-1.4c0.2-0.6,0.6-1.1,1.6-1.1 c0.6,0,1.1,0,1.7,0C41,163.8,36.1,163.8,49.4,163.8z"></path> <path class="st35" d="M46,171.2c6.3,0-5.5,0,0.8,0c1.4,0,2.6,0.2,2.6,1.4c0,1.1-1.3,1.4-2.6,1.4c-12.7,0-7.1,0-19.8,0 c-2.1,0-3.1-1-2.3-2.2c0.5-0.7,1.3-0.6,2.1-0.6C33.2,171.2,39.6,171.2,46,171.2z"></path> </g> <path style="clip-path:url(#SVGID_2_);fill:#F4A200;" d="M10.8,65c2.4-1.9,4.8-3.9,6.8-6.3c0.9-1,2.2-1.4,3.5-0.5 c0.5,0.3,0.9,0.4,1.4,0.3c3.9-0.6,7.7,2.7,8.2,7.3c0.3,2.2,0.1,4.5-0.7,6.6c-0.7,1.8-0.5,3.4,0.7,4.9c0.8,1,1,2.2,0.2,3.3 c-1,1.6-0.5,3.4-0.6,5.1c0,0,0,0,0,0c-1.2,0.8-2.2-0.2-3.4-0.4c-1.6-0.6-3.3-1-5-1.4c-0.5-0.1-0.9-0.3-1.2-0.8 c0.2-2.3-1-5.5,2-6.3c0.8-0.2,0.6-0.9,0.8-1.7c0.4-1.5,2.4-2.3,2.9-3.8c0.2-0.4,0.3-0.8,0.3-1.3c0.1-0.6-0.2-1.1-0.5-1.6 c-1.2-1.9-2.8-3.5-3.8-5.4c-0.5-1-0.7,0-0.8,0.4c-0.6,1.8-1.1,3.6-2,5.2c-1.1,2-1.5,2.1-3.5,0.9c-0.4-0.2-0.9-0.7-1.3-0.3 c-0.4,0.4-0.1,0.9,0.2,1.3c0.3,0.5,0.6,0.9,0.6,1.5c-0.3,1.1,0.6,1.5,1.1,2.2c0.8,3.6-0.9,6.2-4,6.3c-1.7,0-2-0.3-2-2 C10.8,74.1,10.8,69.5,10.8,65z"></path> <path style="clip-path:url(#SVGID_2_);fill:#004A76;" d="M140.6,99.1c-1.3-1-2.4-0.5-3.5,0.3c-0.3,0.3-0.6,0.8-1.1,0.6 c-0.5-0.3-0.2-0.9-0.2-1.3c0.3-1.8,0.7-3.6,1.2-5.4c0.3-1,0-1.2-0.9-1.2c-1.7,0-3.3-0.3-4.7-1.3c-1.2-2.3-1-4.1,0.7-5.2 c1.9-1.2,4.1-0.8,5.5,1.2c0.5,0.7,1.2,1,1.9,1.4c2.3,1.2,2.8,2.1,2,4.5c-0.1,0.5-0.1,0.8,0,1.2C142.1,95.9,141.1,97.5,140.6,99.1z "></path> <path style="clip-path:url(#SVGID_2_);fill:#FEFEFD;" d="M123.2,111.8c0.9,8.9,11.2,11.3,17.7,7.9c0.5-0.3,1.1-0.6,1.6-0.8 c0,1.1,0,2.3,0,3.4c-3.9,1.8-7.9,2.9-12.2,1.8c-5.6-1.4-10.8-5.6-11.2-11C117.5,111.9,119,111.7,123.2,111.8z"></path> <path style="clip-path:url(#SVGID_2_);fill:#FDFEFD;" d="M11,85.8c1.4,1.9,3.1,3.5,5.6,4c4.4,0.9,7.7-0.7,10.4-4.9 c1.1,0.3,2.2,0.5,3.4,0.8c-3.8,7.2-12.1,9.2-19,4.4c-0.3-0.1-0.5-0.3-0.4-0.6C11,88.3,11,87,11,85.8z"></path> <path style="clip-path:url(#SVGID_2_);fill:#F8B6A8;" d="M68.7,63c-1.6,0-3.2,0-4.7,0c-0.3-2-0.6-4-1-6c-0.1-0.4-0.3-0.9,0.3-1 c0.5-0.1,0.8,0.2,0.9,0.7c0.3,0.9,1.1,2.5,1.1,2.5c0.6-1.8,1.2-3.6,1.7-5.5c0.4-1.5,1.6-1.2,2.5-1.1c1.2,0.2,0.4,1.1,0.3,1.6 C69.5,57.2,69.1,60.1,68.7,63z"></path> <path style="clip-path:url(#SVGID_2_);fill:#F8B5A7;" d="M102.2,83.9c-1.6-0.1-3.1-0.2-4.7,0c1.3-2.9,2.6-5.7,3.8-8.7 c0.7-1.8,2-1.1,3.1-0.9c1.5,0.3,0.6,1.3,0.4,2.1c-0.3,1.1-0.6,2.3-1,3.4c-0.5,1.3-0.3,2.1,1.2,2.4c0.5,0.1,1.5,0.2,1.3,1 c-0.2,0.8-1.1,0.6-1.7,0.4C103.7,83.5,102.9,83.3,102.2,83.9z"></path> <path style="clip-path:url(#SVGID_2_);fill:#8DB300;" d="M142.5,121.5c-0.6,0.6-1.7,1-2.5,1.3c-2.2,0.9-4.5,1.3-6.9,1.2 c-5.1-0.3-9.3-3.6-12-9.1c-0.5-1-0.9-3.2-1-3.2c-3.2,0-7.8,0.3-11,0.4c-3.8,0.1-7.6,0.2-11.4,0.3c-0.7,0-1.4,0-2.1,0l0,0v0 c0-0.4-0.1-0.9,0-1.3c2.2-9.1,4.4-18.2,6.6-27.3c-1.6-1-3.1-0.9-4.7,0c-1.1,2.2-2.2,4.4-3.2,6.7c-3.9,8.2-7.8,16.5-10.2,25.3 c-1.2,4.4-0.1,6.9,4.2,8.5c6.8,2.6,13.9,2.8,21.1,2.3l0,0l0,0c0.9,0,1.7,0,2.6,0l0,0c-1.3,10.6-2.6,21.1-3.9,31.7 c-1.2,9.3-2.3,18.7-3.5,28c-0.2,1.5,0.2,2,1.8,2c10.3-0.1,20.6,0,30.9,0c1.4,0,2.8-0.2,4.1-1c0.8-0.6,1.3-1.2,1.3-2.3 C142.5,164.2,142.5,142.4,142.5,121.5z"></path> <path style="clip-path:url(#SVGID_2_);fill:#004A76;" d="M64,63c-3.1,9.2-6.2,18.4-9.4,27.5c-0.4,0.6-0.5,1.2-0.7,1.9c0,0,0,0,0,0 c0,0,0,0,0,0c-7.9-1.9-15.7-4.3-23.5-6.7c-0.1,0-0.2,0.1-0.3,0.1c-1.4,1.6-2.6,3.5-4.5,4.6c-4.1,2.4-8.3,2.5-12.5,0.3 c-0.7-0.3-2.2-1.3-2.2-1.3s-8.8,37.1-8.7,55.3c0,0.5,6.6,6,7.5,6.3c6.5-14.8,14.6-33.8,21.1-48.6c0.3-0.7,0.4-1.7,1.5-1.5l0,0 c0.4,0.1,0.8,0.1,1.1,0.2c0,0,0,0,0,0c0,0,0,0,0,0c6.2,1.5,12.5,2.7,18.9,2.7c6,0,5.9-0.4,7.8-5.2c0.2-0.5,0.4-1.1,0.5-1.6 C64,85.8,66.4,74.4,68.7,63C67.1,62.1,65.5,62.1,64,63z"></path> <path style="clip-path:url(#SVGID_2_);fill:#F8B5A7;" d="M139.9,111.4c-0.6,0-1.9,0.2-1.8-0.7c0.4-3.3-1.5-7,1.6-9.8 c0.5-0.5,0.6-1.2,0.8-1.8c-0.8-1.3-1.8-1.1-2.9-0.5c-0.3,0.2-0.7,0.7-1.1,0.3c-0.3-0.3-0.1-0.8,0-1.2c0.3-1.4,0.5-2.8,0.9-4.2 c0.3-1,0.1-1.9-1.1-1.9c-1.7,0-3.3-0.6-4.9-0.8c-0.7,1.3-1.9,2.4-1.9,4c0.1,0.4,0.2,0.8,0,1.2c-0.4,1.4-0.8,2.8-1.2,4.3 c-1.1,4.3-0.9,4.6,3,6.5c0,0.2,0,0.5,0,0.7l0,0l0,0c-0.6,1.5,0,3.6-2.3,4.1l0,0l0,0c0,0,0,0,0,0v0c-2,0-3.9,0-5.9,0 c-0.7,1.7,0.2,3.1,1,4.5c2.5,4.2,8.2,6.3,13.5,5.1c1.8-0.4,3.6-0.9,4.8-2.5c0-1.5,1.8-3.2,1.8-4.7 C144.3,111.3,142.9,111.5,139.9,111.4z"></path> <path style="clip-path:url(#SVGID_2_);fill:#F8B6A8;" d="M27.4,70.1c-0.1-0.5,0.3-1.1-0.2-1.6c-1.8-1.8-3.3-3.9-4.4-6.1 c-0.2-0.3-0.5-0.5-0.8-0.7c-0.2,0.3-0.4,0.6-0.4,1c-0.5,2.4-1.3,4.7-2.6,6.7c-0.5,0.8-1.1,1.4-1.9,0.2c-0.1-0.1-0.2-0.2-0.3-0.3 c-0.7-0.5-1.5-1.3-2.3-0.4c-0.7,0.7-0.2,1.5,0.3,2.2c0.3,0.4,0.8,0.6,0.7,1.2c0.7,0.4,0.8,1.1,0.7,1.8c1.1,3.4-0.7,6.8-3.8,6.1 c-2.8-0.6-2.2-1.4-1.5,5.6c0.3,0.9,0.7,1.7,1.4,2.3c4,3.8,11.4,2.8,14.3-1.9c0.2-0.4,0.6-0.8,0.3-1.4c-1.5-0.7-5.5-1.7-5.9-1.8 c0.2-0.8,0.3-1.6,0.6-2.3c0.6-1.4,0.7-2.3,1.7-2.7C24.7,77.5,27.2,71.4,27.4,70.1z"></path> <g style="clip-path:url(#SVGID_2_);"> <circle class="st59" cx="15.9" cy="73" r="0.8"></circle> <path class="st31" d="M26.4,70.5c-0.3-0.3-0.6-0.3-0.9-0.1c-0.3,0.2-0.3,0.5-0.1,0.9c0.2,0.3,0.5,0.3,0.8,0.1 C26.5,71.1,26.6,70.8,26.4,70.5z"></path> <path class="st60" d="M27.3,69.9c0,0-0.2-0.7-0.8-0.9c-0.5-0.1-0.9,0.1-0.9,0.1"></path> <path class="st31" d="M22.4,69c-0.3-0.3-0.6-0.3-0.9,0c-0.2,0.2-0.3,0.6,0,0.9c0.3,0.2,0.5,0.2,0.8,0 C22.6,69.6,22.7,69.3,22.4,69z"></path> <path class="st60" d="M23.3,68.4c0,0-0.3-0.6-0.9-0.8c-0.5-0.1-0.9,0.2-0.9,0.2"></path> <path class="st61" d="M23,76.9c0,0-0.6,0.3-1.1,0.1c-0.6-0.2-0.9-0.8-0.9-0.8"></path> <path class="st60" d="M24.4,71.4c0,0-0.4,2.7-0.5,3.1c-0.1,0.4-0.4,0.3-0.8,0.2"></path> </g> <g style="clip-path:url(#SVGID_2_);"> <path class="st31" d="M130.3,94.4c0.4-0.1,0.7,0.1,0.8,0.4c0.1,0.4,0,0.7-0.4,0.8c-0.4,0.1-0.6-0.1-0.7-0.4 C129.8,94.9,129.9,94.6,130.3,94.4z"></path> <path class="st62" d="M129.8,93.4c0,0,0.6-0.5,1.2-0.3c0.5,0.1,0.8,0.6,0.8,0.6"></path> <path class="st31" d="M134.5,95.5c0.4-0.1,0.7,0.2,0.8,0.5c0.1,0.4-0.1,0.7-0.5,0.7c-0.4,0.1-0.6-0.1-0.7-0.5 C134,96,134.2,95.7,134.5,95.5z"></path> <path class="st62" d="M134.2,94.5c0,0,0.6-0.4,1.2-0.1c0.5,0.2,0.7,0.7,0.7,0.7"></path> <path class="st63" d="M129.4,102c0,0,0.3,0.6,0.9,0.8s1.2-0.2,1.2-0.2"></path> <path class="st62" d="M131.4,96.4c0,0-1.3,2.5-1.5,3s0.2,0.5,0.5,0.6"></path> </g> </g> </g> </svg> 