<?xml version="1.0" encoding="UTF-8"?> <!-- Generator: Adobe Illustrator 23.0.4, SVG Export Plug-In . SVG Version: 6.00 Build 0) --> <svg xmlns="http://www.w3.org/2000/svg" xmlns:xlink="http://www.w3.org/1999/xlink" x="0px" y="0px" viewBox="0 0 153.5 194.2" style="enable-background:new 0 0 153.5 194.2;" xml:space="preserve"> <style type="text/css"> .st0{fill:#231F20;} .st1{fill-rule:evenodd;clip-rule:evenodd;fill:#EB212E;} .st2{fill-rule:evenodd;clip-rule:evenodd;fill:#004A76;} .st3{fill-rule:evenodd;clip-rule:evenodd;fill:#F4A200;} .st4{fill-rule:evenodd;clip-rule:evenodd;fill:#FFFFFF;} .st5{fill-rule:evenodd;clip-rule:evenodd;fill:#1B1C20;} .st6{fill-rule:evenodd;clip-rule:evenodd;fill:none;stroke:#FFFFFF;stroke-width:2;stroke-miterlimit:10;} .st7{fill:#FFFFFF;} .st8{fill:#EC1C24;} .st9{fill:#7FB439;} .st10{fill:#F9A51A;} .st11{fill:#F6B433;} .st12{fill:#004A76;} .st13{fill:#F9A61A;} .st14{fill:#240036;} .st15{fill:#FEFEFD;} .st16{fill:#F8B5A7;} .st17{fill:#F4A200;} .st18{fill:#45423F;} .st19{fill:none;stroke:#484441;stroke-width:0.7177;stroke-linecap:round;stroke-linejoin:round;stroke-miterlimit:10;} .st20{fill:none;stroke:#D95F73;stroke-width:0.7177;stroke-linecap:round;stroke-linejoin:round;stroke-miterlimit:10;} .st21{fill:#D95F73;} .st22{fill:#02394F;} .st23{fill:#C41627;} .st24{fill:#F99200;} .st25{fill:#E3E7EB;} .st26{fill:#F8B5A8;} .st27{fill:#3A3B39;} .st28{fill:#FFFFFE;} .st29{fill:#FA9200;} .st30{fill:#8DB300;} .st31{fill:#484441;} .st32{fill:none;stroke:#484441;stroke-width:0.1897;stroke-linecap:round;stroke-linejoin:round;stroke-miterlimit:10;} .st33{fill:none;stroke:#D95F73;stroke-width:0.2529;stroke-linecap:round;stroke-linejoin:round;stroke-miterlimit:10;} .st34{fill:#585755;} .st35{fill:#B3B8BC;} .st36{fill:#EB212E;} .st37{fill:#EC1C24;stroke:#EC1C24;stroke-width:0.5;stroke-miterlimit:10;} .st38{clip-path:url(#SVGID_2_);fill-rule:evenodd;clip-rule:evenodd;fill:#FFFFFF;} .st39{clip-path:url(#SVGID_2_);fill-rule:evenodd;clip-rule:evenodd;fill:#8DB300;} .st40{fill:none;stroke:#FFFFFF;stroke-width:2;stroke-miterlimit:10;} .st41{fill-rule:evenodd;clip-rule:evenodd;fill:#8DB300;} .st42{fill:none;stroke:#3A3B39;stroke-width:5;stroke-miterlimit:10;} .st43{fill:#DD968A;} .st44{fill:#F6A7A1;} .st45{fill:#F7B5A7;} .st46{fill:#DD8E03;} .st47{fill:none;stroke:#484441;stroke-width:0.75;stroke-linecap:round;stroke-linejoin:round;stroke-miterlimit:10;} .st48{fill:none;stroke:#D95F73;stroke-linecap:round;stroke-linejoin:round;stroke-miterlimit:10;} .st49{clip-path:url(#SVGID_4_);fill:#E3E7EB;} .st50{clip-path:url(#SVGID_4_);fill:#FEFEFD;} .st51{clip-path:url(#SVGID_4_);fill:#B3B8BC;} .st52{clip-path:url(#SVGID_4_);} .st53{clip-path:url(#SVGID_4_);fill:#F4A200;} .st54{clip-path:url(#SVGID_4_);fill:#004A76;} .st55{clip-path:url(#SVGID_4_);fill:#FDFEFD;} .st56{clip-path:url(#SVGID_4_);fill:#F8B6A8;} .st57{clip-path:url(#SVGID_4_);fill:#F8B5A7;} .st58{clip-path:url(#SVGID_4_);fill:#8DB300;} .st59{fill:#FDFEFD;} .st60{fill:none;stroke:#484441;stroke-width:0.4426;stroke-linecap:round;stroke-linejoin:round;stroke-miterlimit:10;} .st61{fill:none;stroke:#D95F73;stroke-width:0.4426;stroke-linecap:round;stroke-linejoin:round;stroke-miterlimit:10;} .st62{fill:none;stroke:#484441;stroke-width:0.4642;stroke-linecap:round;stroke-linejoin:round;stroke-miterlimit:10;} .st63{fill:none;stroke:#D95F73;stroke-width:0.4642;stroke-linecap:round;stroke-linejoin:round;stroke-miterlimit:10;} .st64{fill:#97C5B6;} .st65{fill:none;stroke:#484441;stroke-width:0.35;stroke-linecap:round;stroke-linejoin:round;stroke-miterlimit:10;} .st66{fill:#EC6883;} .st67{fill:#EA5372;} .st68{fill:#799600;} .st69{fill:#CF4463;} .st70{fill:none;stroke:#D95F73;stroke-width:0.35;stroke-linecap:round;stroke-linejoin:round;stroke-miterlimit:10;} .st71{fill:#3B3C3A;} .st72{fill:none;stroke:#3A3B39;stroke-width:2.8625;stroke-miterlimit:10;} .st73{fill:#403F3A;} .st74{fill:#FAF5EE;} .st75{fill:none;stroke:#D95F73;stroke-width:0.4568;stroke-linecap:round;stroke-linejoin:round;stroke-miterlimit:10;} </style> <g id="Layer_2"> </g> <g id="Layer_1"> <g> <path class="st35" d="M71.1,171.8c-6.5,2.1-12.9,2.6-19.4,0.1c-5.4-2.1-9.6-5.8-13-10.4c-5.7-7.7-9-16.5-11.4-25.7 c-0.6-2.2-1-4.4-1.5-6.7c-0.2-0.7,0.3-0.9,0.7-1.2c0.9-0.5,1.7-0.9,2.6-1.3c0.8-0.4,1.1-0.9,0.8-1.8c-0.8-3-1.6-6.1-2.4-9.1 c-0.8-2.9-1.7-5.8-2-8.8c0-2,0-3.9,0-5.9c0.7-1.6,0.8-3.4,1.4-5c3.7-9,10.3-14.4,20-15.3c9.7-0.9,17.2,3.1,22.4,11.3 c0.8,1.2,1.1,2.7,1.6,4.1c1.9,6,3.8,12,5.7,18c0.2,0.7-0.3,0.8-0.7,1c-1.9,0.4-3.7,1-5.6,1.3c-0.4,0.1-0.8,0.1-1.1-0.2 c-0.3-0.3-0.4-0.7-0.5-1.1c-1.8-5.6-3.5-11.2-5.3-16.8c-1-3.2-3-5.5-5.7-7.3c-5.7-3.7-13.1-3.4-18.1,0.7 c-5.2,4.3-7.2,9.8-5.6,16.5c1.1,4.5,2.4,9,3.6,13.5c0.1,0.5,0.3,1.1,0.3,1.6c-0.2,0.9-1,0.9-1.6,1.1c-1.3,0.4-1.3,0.4-1.1,1.7 c1.6,8.5,3.9,16.9,7.6,24.8c1.8,3.9,3.9,7.6,6.6,10.9c3.4,4,7.1,7.5,12.3,9c1.7,0.5,3.4,0.8,5.1,0.8c1.2,0,2.4-0.1,3.7,0 C70.8,171.4,71.1,171.4,71.1,171.8z"></path> <path class="st16" d="M82.5,22.6c-0.8-0.1-1.5,0.2-2.3,0.3c-1.1-0.7-1.7-1.6-2-2.8c1.7-0.6,3.5-1.1,5.2-1.7c0.2,0,0.3,0,0.5,0 c0.3,0.7,0.7,1.4,1,2.1c-0.1,0.2,0.1,0.2,0.4,0.2c0.6-0.1,1.2-0.1,1.4,0.6c0.1,0.6-0.2,0.9-0.7,1c-0.6,0.2-1.3,0.3-1.9,0.4 C83.5,22.6,83,22.8,82.5,22.6z"></path> <path class="st25" d="M90.5,125.9c-0.2,2.1-0.4,4.2-0.7,6.3c-0.6,3.9,0.1,7.7,0.8,11.4c0.9,4.5,1.7,9.1,2.5,13.6 c-1,1.3-1.8,2.8-2.9,4c-3.5,4.1-8.1,6.7-13.1,8.6c-1.8,0.7-3.6,1.1-5.4,1.7c-0.4-0.1-0.8-0.1-1.2,0c-3.8,0.2-7.6,0-11.2-1.6 c-2.2-1-4.3-2.3-6.1-4c-5.3-4.7-8.8-10.7-11.6-17.1c-3.2-7.3-5.2-14.9-6.7-22.6c0-0.2,0-0.3-0.1-0.5c-0.5-1.3,0.2-1.7,1.3-1.9 c0.6-0.1,1.3,0,1.6-0.8c6.2-1.3,12.4-2.9,18.6-4.3c4.4-1,8.7-2.1,13.1-3.1c0.8,0.5,1.6-0.1,2.4-0.3c1.4-0.2,2.8-0.6,4.2-1 c0.3-0.1,0.7-0.2,0.7-0.7c0.3,0.5,0.7,0.3,1.1,0.2c1.3-0.3,2.7-0.6,4-1c0.8-0.2,1.1,0,1.5,0.6C86.1,117.6,88.4,121.7,90.5,125.9z"></path> <path class="st22" d="M86.8,56.6c0.9-0.8,2-0.5,3-0.8c2.5-0.6,5-1,7.5-1.5c0.1,0,0.3,0,0.7,0.1c-1.4,1-2.5,1.9-3.7,2.6 c-1.2,0.7-1.7,1.6-1.6,3c0.2,4.6,0.3,9.1,0.3,13.7c-1.9,0.7-3.8,1.5-5.8,1.8c-3.4,0.5-5.3-1.2-5-4.7c0.3-3,1.2-5.8,2.3-8.5 C85.1,60.3,86,58.5,86.8,56.6z"></path> <path class="st16" d="M111.5,41c-2.4-0.4-4.9-0.3-7.3-0.2c-0.1-0.7-0.3-1.4-0.4-2.6c0-0.2-0.2-0.4-0.2-0.4 c-0.7-0.3-1.5-0.4-2.2-0.7c-0.3-0.5,0-0.7,0.3-0.9c0.3-0.2,0.8-0.3,1.1-0.7c-0.6-0.1-1.2,0.6-1.8,0.1c-0.1-1,0.8-2.1-0.3-3 c-0.2-0.1,0-0.4,0.1-0.7c0.8-1.9,1.6-3.8,2.4-5.6c0.9-0.4,1.9,0,2.8,0.1c0.7,0.1,0.4,0.7,0.3,1.2c-0.4,1.5-0.7,3.1-0.6,4.6 c0.4,0.2,0.6-0.2,0.8-0.3c1-0.6,2-0.1,2,1c-0.1,0.8,0.3,1.3,0.7,1.9C109.9,36.9,110.7,38.9,111.5,41z"></path> <path class="st17" d="M109.2,34.8c-0.8-0.3-1.5-0.7-1-1.8c0.2-0.4,0-0.8-0.5-1.1c-0.4-0.2-0.8-0.1-1.1,0.2 c-0.2,0.2-0.4,0.5-0.7,0.7c-0.2,0.1-0.4,0.2-0.6,0.1c-0.2-0.1-0.2-0.3-0.2-0.5c0.2-1.9,0.2-3.9,1.1-5.7c-1.1-0.1-2-0.3-3-0.4 c-0.7-0.4-1.4-0.8-1.5-1.8c0-0.9,0.2-1.6,1-2c0.8-0.4,1.6-0.4,2.2,0.2c0.5,0.4,0.9,0.5,1.5,0.5c0.4,0,0.7,0.1,1,0.1 c2.8,0.6,3.2,1.1,3,4C110.3,29.9,110.1,32.4,109.2,34.8z"></path> <path class="st27" d="M96.3,166.4c1.2-0.3,2.4-0.2,3.6,0c0.4,3.2,0.8,6.3,1.2,9.6c-2.2-0.7-4.3-1.4-6.6-2.1 c0.7-0.4,1.2-0.7,1.7-0.9c0.9-0.3,1-0.9,0.8-1.6C96.8,169.6,96.6,168,96.3,166.4z"></path> <path class="st27" d="M116.9,166.5c1-0.7,2.1-0.2,3.2-0.3c0.3,2.8,0.6,5.7,0.9,8.7c-2.1-0.6-4.1-1.1-6.3-1.8 c0.9-0.5,1.5-0.9,2.2-1.1c0.9-0.3,1-0.9,0.8-1.7C117.3,169.1,117.1,167.8,116.9,166.5z"></path> <path class="st16" d="M101.1,35.6c0.5-0.1,1-0.3,1.6-0.4c0.2,0,0.6-0.5,0.8,0c0.1,0.4-0.2,0.5-0.5,0.7c-0.5,0.4-1.3,0.4-1.6,1.1 c0.7,1.3,0.7,1.4-0.4,2.4c-0.5,0.4-0.8,1-1.3,1.3c-1.1-0.2-2.1-0.3-3-1.1c0.7-0.9,1.4-1.8,2-2.7C99.2,35.9,100.3,36,101.1,35.6z"></path> <path class="st22" d="M96.7,39.5c1,0.3,2,0.6,3,0.9c0.2-0.1,0.5-0.1,0.6,0.2c0.1,0.3-0.1,0.5-0.3,0.6c-1.6,0.4-3.3,0.7-5,0.7 C95.5,41.1,96.1,40.3,96.7,39.5z"></path> <path class="st12" d="M126.8,67.4c-0.6-5.3-1.6-10.5-3.7-15.4c-2.3-5.3-5.5-9.7-11.6-11c-0.5-0.4-1-0.5-1.6-0.5 c-1.9,0-3.7-0.1-5.6,0.1c-1.5,0.2-2.9,0.3-4.4,0.5c-1.7,0.4-3.4,0.3-5.1,1c-0.2,0.1-0.4,0.2-0.7,0.2c-5.7,1-11.4,1.9-17.1,2.8 c-1.2,0.2-2.5,0.7-3.8,0.5c0.1-0.6,0.2-1.3,0.2-1.9l0,0c0.3-1.5,0.6-2.9,0.9-4.4c1.3-5.7,3.3-11.1,5.6-16.4 c-0.7-0.9-1.3-1.9-2-2.8c-0.1,0.1-0.3,0.2-0.4,0.3c-4.6,5.5-8.5,11.4-11.1,18.1c-1.4,3.5-2.4,7.1-2.2,10.9c0.1,2.2,1,3.8,2.8,5.1 c1.2,0.9,2.5,1.4,3.8,1.7c4.7,1.2,9.4,0.8,14.1,0.4c0.6-0.1,1.1-0.4,1.7,0.1c0.3,0.1,0.6,0,0.9-0.1c3-0.5,4.5,2,4.6,3.1 c0.1,4.3,0.4,8.6,0.3,13c0,0.4,0,0.8,0.3,1.1c0.1,4.4,0.2,8.7,0.3,13.1c0.1,5,0.2,10,0.3,15c0.1,0.2,0.3,0.2,0.6,0.2 c2.8-0.3,5.6-0.5,8.4-0.8c6.5-0.7,13-1.2,19.5-1.9c1.4-0.1,2.9,0.1,4.1-0.7c1.2,0.1,1.5-0.5,1.5-1.6C128,87.1,128,77.2,126.8,67.4 z"></path> <path class="st64" d="M70.6,171.6c0.4-0.3,0.8-0.4,1.2,0c-0.2,0.1-0.5,0.1-0.7,0.2C70.9,171.7,70.8,171.7,70.6,171.6z"></path> <path class="st8" d="M124.4,120.7c1.1-6.2,2-12.5,1.7-18.9c0.1-1.1,0-2.2-0.2-3.2c-4.3,0.4-8.7,0.8-13,1.2 c-4.7,0.4-9.4,0.9-14,1.4c-1.7,0.2-3.5,0.2-5.2,0.6c0,0,0,0,0,0c-0.1,0-0.2,0-0.3,0c-0.6,4.9-1.2,9.7-1.8,14.6 c-0.4,3.2-0.8,6.4-1.2,9.6c-0.7,1.1-0.5,2.4-0.7,3.5c-0.4,3.1-0.9,6.2-0.4,9.4c1,5.8,4.7,23.1,5.1,25.5c0.2,1.1,0.3,2.2,1.8,2 c1.2,0.2,2.4,0.3,3.6,0c0.5-0.1,0.6-0.4,0.6-0.9c-0.2-9.3-0.3-18.6-0.4-27.9c0-0.8,0.1-1.5,0.3-2.2c2.8-8.1,5.7-16.2,8.5-24.3 c0.1-0.2,0.1-0.6,0.6-0.8c0,0.2,0,0.4,0,0.6c0,1.1,0,2.2,0,3.3c0,6.5,0,12.9,0,19.4c0,1.8,0.1,3.5,0.5,5.3c1.7,8.5,3.4,17,5,25.5 c0.2,1,0.2,2.1,1.7,2.1c0.1,0,1.6,0,3.3-0.1c1.2-0.2,1.6-0.3,1.5-1.6c-0.2-2-0.2-4-0.3-6c-0.3-5.4-0.6-10.8-0.8-16.2 c-0.1-1.5-0.4-3.1,0-4.6C122,132.2,123.4,126.5,124.4,120.7z"></path> <path class="st15" d="M89,145.1c0.1,8.2-4.7,13.9-11.8,17c-3.2,1.4-6.5,2.3-10,2.2c-4-0.1-7.5-1.6-10.5-4.1 c-4.9-4.1-7.8-9.6-10.1-15.4c-1.9-4.9-3.3-10-4.2-15.2c-0.1-0.7,0-0.9,0.7-1c7.6-1.7,15.1-3.4,22.7-5.2c4.2-1,8.5-1.9,12.7-2.9 c0.6-0.1,0.8-0.1,1.2,0.4c4.4,6.1,7.6,12.6,9.1,20c0.1,0.7,0.2,1.4,0.3,2.1C89.1,143.6,89,144.4,89,145.1z"></path> <path class="st25" d="M87.9,144.6c-0.1,7.2-3.1,12-8.8,15.2c-3.7,2.1-7.6,3.4-11.9,3.3c-3.8-0.1-7-1.5-9.9-3.9 c-4.7-4-7.5-9.3-9.7-14.9c-1.7-4.4-3-8.9-3.9-13.6c-0.2-1.1,0.2-1.3,1-1.5c7-1.6,14.1-3.2,21.1-4.8c4-0.9,8-1.8,11.9-2.8 c0.7-0.2,1.1,0,1.5,0.6c3.8,5.8,7,11.8,8.2,18.6C87.8,142.4,88,143.8,87.9,144.6z"></path> <path class="st35" d="M65.2,154.5c0-3.1,0-6,0-9c0-0.9-0.3-1.4-1-1.9c-2.9-2-4.5-4.8-4.6-8.3c-0.1-2.3,0.9-3.9,3-4.7 c2-0.8,3.9-0.4,5.4,1.1c2.9,2.9,3.8,6.3,2.6,10.2c-0.3,1-0.2,1.7,0.4,2.5c1.3,2,2.6,4.1,3.8,6.2c0.2,0.4,0.5,0.8-0.1,1 C71.5,152.6,68.4,153.5,65.2,154.5z"></path> <g> <g> <path class="st35" d="M86.6,30.1c-2.7,0-5-2.2-5-5s2.2-5,5-5s5,2.2,5,5S89.3,30.1,86.6,30.1z M86.6,21.2c-2.2,0-4,1.8-4,4 s1.8,4,4,4c2.2,0,4-1.8,4-4S88.8,21.2,86.6,21.2z"></path> </g> <g transform="translate(-510 -1700)"> <path class="st30" d="M602.7,1727.5c0.4-0.8,0.2-1.9-0.6-2.5c-0.9-0.8-2.2-0.6-3,0.3c-0.8,0.9-0.6,2.2,0.3,3 c0.7,0.6,1.8,0.7,2.6,0.1l1.8,1.6l-0.8,0.9l1.2,1l0.7-0.9l0.3,0.2l0.7-0.9L602.7,1727.5z M600.1,1727.4c-0.4-0.4-0.5-1-0.1-1.4 c0.4-0.4,1-0.5,1.4-0.1c0.4,0.4,0.5,1,0.1,1.4C601.2,1727.7,600.6,1727.7,600.1,1727.4z"></path> </g> <g transform="translate(-510 -1700)"> <path class="st17" d="M593.4,1730.4c0.9-0.1,1.7-0.8,1.9-1.7c0.2-1.2-0.5-2.3-1.7-2.5c-1.2-0.2-2.3,0.5-2.5,1.7 c-0.2,1,0.3,1.9,1.1,2.3l-0.4,2.4l-1.1-0.2l-0.3,1.5l1.1,0.2l-0.1,0.4l1.1,0.2L593.4,1730.4z M592.2,1728.1 c0.1-0.6,0.6-0.9,1.2-0.8c0.6,0.1,0.9,0.6,0.8,1.2c-0.1,0.6-0.6,0.9-1.2,0.8C592.5,1729.2,592.1,1728.7,592.2,1728.1z"></path> </g> <g transform="translate(-510 -1700)"> <path class="st12" d="M598.3,1731.5c0.8-0.4,1.4-1.3,1.2-2.3c-0.2-1.2-1.3-2-2.4-1.8c-1.2,0.2-2,1.3-1.8,2.4 c0.1,1,0.9,1.7,1.8,1.8l0.3,2.4l-1.2,0.2l0.2,1.5l1.2-0.2l0.1,0.4l1.2-0.2L598.3,1731.5z M596.4,1729.7 c-0.1-0.6,0.3-1.1,0.9-1.2c0.6-0.1,1.1,0.3,1.2,0.9c0.1,0.6-0.3,1.1-0.9,1.2C597,1730.6,596.5,1730.2,596.4,1729.7z"></path> </g> <path class="st35" d="M82.8,26.2l-1,0c0.1,0.6,0.3,1.1,0.6,1.6l1.2,0C83.2,27.3,82.9,26.8,82.8,26.2z"></path> <path class="st35" d="M86.5,29.1c-0.5,0-0.8-0.1-1.2-0.2l0,1c0.4,0.1,0.9,0.2,1.4,0.2c0.1,0,0.1-0.1,0.2-0.1l0-0.9 C86.7,29.2,86.6,29.1,86.5,29.1z"></path> <path class="st35" d="M90.9,27.6l-0.8-0.6c-0.2,0.5-0.5,0.9-0.9,1.2l0.7,0.7C90.4,28.5,90.7,28,90.9,27.6z"></path> </g> <path class="st31" d="M103.8,29.1c-0.2-0.3-0.4-0.3-0.7-0.2c-0.2,0.1-0.4,0.4-0.2,0.7c0.1,0.2,0.3,0.3,0.6,0.2 C103.8,29.6,103.9,29.4,103.8,29.1z"></path> <path class="st65" d="M104.6,28.8c0,0,0-0.5-0.5-0.8c-0.3-0.2-0.7-0.1-0.7-0.1"></path> </g> </g> </svg> 