<?xml version="1.0" encoding="UTF-8"?> <!-- Generator: Adobe Illustrator 23.0.4, SVG Export Plug-In . SVG Version: 6.00 Build 0) --> <svg xmlns="http://www.w3.org/2000/svg" xmlns:xlink="http://www.w3.org/1999/xlink" x="0px" y="0px" viewBox="0 0 153.5 194.2" style="enable-background:new 0 0 153.5 194.2;" xml:space="preserve"> <style type="text/css"> .st0{fill:#231F20;} .st1{fill-rule:evenodd;clip-rule:evenodd;fill:#EB212E;} .st2{fill-rule:evenodd;clip-rule:evenodd;fill:#004A76;} .st3{fill-rule:evenodd;clip-rule:evenodd;fill:#F4A200;} .st4{fill-rule:evenodd;clip-rule:evenodd;fill:#FFFFFF;} .st5{fill-rule:evenodd;clip-rule:evenodd;fill:#1B1C20;} .st6{fill-rule:evenodd;clip-rule:evenodd;fill:none;stroke:#FFFFFF;stroke-width:2;stroke-miterlimit:10;} .st7{fill:#FFFFFF;} .st8{fill:#EC1C24;} .st9{fill:#7FB439;} .st10{fill:#F9A51A;} .st11{fill:#F6B433;} .st12{fill:#004A76;} .st13{fill:#F9A61A;} .st14{fill:#240036;} .st15{fill:#FEFEFD;} .st16{fill:#F8B5A7;} .st17{fill:#F4A200;} .st18{fill:#45423F;} .st19{fill:none;stroke:#484441;stroke-width:0.7177;stroke-linecap:round;stroke-linejoin:round;stroke-miterlimit:10;} .st20{fill:none;stroke:#D95F73;stroke-width:0.7177;stroke-linecap:round;stroke-linejoin:round;stroke-miterlimit:10;} .st21{fill:#D95F73;} .st22{fill:#02394F;} .st23{fill:#C41627;} .st24{fill:#F99200;} .st25{fill:#E3E7EB;} .st26{fill:#F8B5A8;} .st27{fill:#3A3B39;} .st28{fill:#FFFFFE;} .st29{fill:#FA9200;} .st30{fill:#8DB300;} .st31{fill:#484441;} .st32{fill:none;stroke:#484441;stroke-width:0.1897;stroke-linecap:round;stroke-linejoin:round;stroke-miterlimit:10;} .st33{fill:none;stroke:#D95F73;stroke-width:0.2529;stroke-linecap:round;stroke-linejoin:round;stroke-miterlimit:10;} .st34{fill:#585755;} .st35{fill:#B3B8BC;} .st36{fill:#EB212E;} .st37{fill:#EC1C24;stroke:#EC1C24;stroke-width:0.5;stroke-miterlimit:10;} .st38{clip-path:url(#SVGID_2_);fill-rule:evenodd;clip-rule:evenodd;fill:#FFFFFF;} .st39{clip-path:url(#SVGID_2_);fill-rule:evenodd;clip-rule:evenodd;fill:#8DB300;} .st40{fill:none;stroke:#FFFFFF;stroke-width:2;stroke-miterlimit:10;} .st41{fill-rule:evenodd;clip-rule:evenodd;fill:#8DB300;} .st42{fill:none;stroke:#3A3B39;stroke-width:5;stroke-miterlimit:10;} .st43{fill:#DD968A;} .st44{fill:#F6A7A1;} .st45{fill:#F7B5A7;} .st46{fill:#DD8E03;} .st47{fill:none;stroke:#484441;stroke-width:0.75;stroke-linecap:round;stroke-linejoin:round;stroke-miterlimit:10;} .st48{fill:none;stroke:#D95F73;stroke-linecap:round;stroke-linejoin:round;stroke-miterlimit:10;} .st49{clip-path:url(#SVGID_4_);fill:#E3E7EB;} .st50{clip-path:url(#SVGID_4_);fill:#FEFEFD;} .st51{clip-path:url(#SVGID_4_);fill:#B3B8BC;} .st52{clip-path:url(#SVGID_4_);} .st53{clip-path:url(#SVGID_4_);fill:#F4A200;} .st54{clip-path:url(#SVGID_4_);fill:#004A76;} .st55{clip-path:url(#SVGID_4_);fill:#FDFEFD;} .st56{clip-path:url(#SVGID_4_);fill:#F8B6A8;} .st57{clip-path:url(#SVGID_4_);fill:#F8B5A7;} .st58{clip-path:url(#SVGID_4_);fill:#8DB300;} .st59{fill:#FDFEFD;} .st60{fill:none;stroke:#484441;stroke-width:0.4426;stroke-linecap:round;stroke-linejoin:round;stroke-miterlimit:10;} .st61{fill:none;stroke:#D95F73;stroke-width:0.4426;stroke-linecap:round;stroke-linejoin:round;stroke-miterlimit:10;} .st62{fill:none;stroke:#484441;stroke-width:0.4642;stroke-linecap:round;stroke-linejoin:round;stroke-miterlimit:10;} .st63{fill:none;stroke:#D95F73;stroke-width:0.4642;stroke-linecap:round;stroke-linejoin:round;stroke-miterlimit:10;} .st64{fill:#97C5B6;} .st65{fill:none;stroke:#484441;stroke-width:0.35;stroke-linecap:round;stroke-linejoin:round;stroke-miterlimit:10;} .st66{fill:#EC6883;} .st67{fill:#EA5372;} .st68{fill:#799600;} .st69{fill:#CF4463;} .st70{fill:none;stroke:#D95F73;stroke-width:0.35;stroke-linecap:round;stroke-linejoin:round;stroke-miterlimit:10;} .st71{fill:#3B3C3A;} .st72{fill:none;stroke:#3A3B39;stroke-width:2.8625;stroke-miterlimit:10;} .st73{fill:#403F3A;} .st74{fill:#FAF5EE;} .st75{fill:none;stroke:#D95F73;stroke-width:0.4568;stroke-linecap:round;stroke-linejoin:round;stroke-miterlimit:10;} </style> <g id="Layer_2"> </g> <g id="Layer_1"> <g> <path class="st71" d="M93.7,139.6c-0.6,0.1-1-0.4-1.5-0.5c-0.1-0.4,0.1-0.7,0.2-1c2.5-4.2,3.3-8.9,4-13.6c0.2-1.5,0.3-2.9,0.5-4.4 c0-0.4,0-0.8,0.4-1c0.5-0.4,1-0.2,1.5-0.2c-0.3,4.6-0.9,9.2-2.1,13.7C96.2,135,95.3,137.4,93.7,139.6z"></path> <line class="st72" x1="80.3" y1="143.6" x2="80.3" y2="171"></line> <circle class="st27" cx="78.9" cy="176.4" r="1.4"></circle> <circle class="st27" cx="90" cy="174.7" r="1.4"></circle> <circle class="st27" cx="69.1" cy="174.7" r="1.4"></circle> <path class="st27" d="M79.9,170c-1.1,0.1-5,0.6-6.5,1.3c-1,0.4-2.9,0.8-4.2,1.4c-1,0.4-1.5,1.2-1.4,1.7s0.7,0.2,0.7,0.1 c0-0.1,0.9-1,0.9-1s0.3-0.4,2-0.8c0.6-0.1,0.9-0.1,0.9-0.1s0.2,1.2,1.7,1.3c1.4,0.1,6.1,0,8.6-0.1c4.4-0.2,5-3,2.7-3.3 C82.8,170,81.9,169.9,79.9,170z"></path> <path class="st27" d="M77.4,173.2c0,0.1-0.6,1.6-0.4,2.6c0.2,1,0.4,1.3,0.8,1.5c0.4,0.2,0.5-0.3,0.5-0.3s-0.2-1.2-0.3-1.2 s-0.3-0.2-0.1-0.9s0.8-1.8,0.8-1.8L77.4,173.2z"></path> <path class="st27" d="M85.6,171.3c0,0,3,0.8,4.2,1.3c1.2,0.5,1.8,1.6,1.6,2.2c-0.1,0.7-0.8-0.3-0.9-0.4s0-1-1.3-1.3 c-1.3-0.3-5.1-1.1-5.1-1.1L85.6,171.3z"></path> <path class="st34" d="M94.4,120c0-1.2,0.4-2.3,0.6-3.4c0.2-1.5,0.6-3,0.9-4.4c0.3-1.4,0.6-2.9,0.9-4.3c0.2-1.4,0.5-2.8,0.8-4.2 c0.2-0.8,0.3-1.6,0.5-2.4c2.8,0.2,5.6,0.7,8.2,2c1.6,0.8,3,1.9,4,3.5c1.6,2.6,1.7,6.2-0.4,8.9c-1.3,1.6-2.9,2.7-4.8,3.4 C103,119.6,95.3,120.7,94.4,120z"></path> <path class="st27" d="M80.6,148.2c-0.5,0-1,0-1.4,0c-2-0.2-4.1-0.3-6.1-0.5c-3.2-0.4-6.2-1-9.1-2.4c-0.6-0.3-1.2-0.7-1.8-1.1 c-1.3-1.1-1.9-2.4-1.5-4.1c0.4-0.2,0.7,0,0.9,0.3c1.9,2,4.4,2.8,7,3.4c5.5,1.3,11,1.5,16.7,1.1c2.1-0.2,4.3-0.4,6.3-0.9 c1.5-0.4,3-0.8,4.2-1.9c0.2-0.2,0.5-0.4,0.9-0.3c0.7,0.8,0.6,1.7,0,2.5c-0.6,0.9-1.5,1.6-2.6,2c-1.6,0.6-3.3,1-5,1.3 c-1.8,0.3-3.5,0.4-5.3,0.5C82.7,148,81.6,148.1,80.6,148.2z"></path> <path class="st34" d="M96.5,141.7c-0.5,0.2-0.7,0.7-1.2,1c-1.4,0.9-2.9,1.3-4.5,1.7c-1.2,0.3-2.4,0.5-3.6,0.7c-0.1,0-0.2,0-0.2,0 c-3.5,0.3-7.1,0.3-10.6,0.2c-1.6-0.1-3.3-0.3-4.9-0.6c-1.9-0.3-3.8-0.7-5.6-1.3c-1.5-0.5-2.8-1.3-4.1-2.2 c-0.1-0.1-0.8-0.3-0.9-0.5c-0.2-0.3-0.4-0.4-0.3-0.6c0.1-0.2,0.4-0.2,0.6-0.3c1.2,0,1.8,0.5,2.8,0.8c2.7,0.8,5.4,1.5,8.1,2.1 c1.9,0.4,3.9,0.7,5.8,1.1c1.9,0.4,3.7,0.3,5.5-0.4c1.5-0.6,2.6-1.5,3.7-2.6c0.8-0.9,1.5-1.9,2.2-2.9c1.2,0,2.3,0.5,3.4,0.9 c0.4,0.3,1,0.4,1.3,0.8c0.3,0.4,0.8,0.5,1.1,0.8C95.7,140.7,96.2,141.1,96.5,141.7z"></path> <path class="st16" d="M78.4,47.2c0.3,0.2,0.6,0.5,0.9,0.7c1.1,0.7,2.2,0.6,3.4,0.3c0.3-0.1,0.7-0.1,0.9-0.3 c0.3,0.2,0.4,0.3,0.5,0.6c0.3,1.3,0.6,2.6,0.9,3.8c0.1,0.7,0.2,1.5,0.3,2.2c0.1,0.6,0,1.2-0.5,1.7c-1,0.1-2,0-3,0.1 c-0.1,0.5,0,0.8-0.4,1.2c-0.4,0.2-2.1-0.2-2.5,0c-0.3-1.2-1.1-5.8-1.2-5.8C77.6,50,77.6,48.5,78.4,47.2z"></path> <path class="st8" d="M58.4,98.3c0.2-1.6,0.6-3.2,1-4.8c0.7-3.5,1.6-7,2.3-10.6c0.4-1.9,0.9-3.7,1.3-5.6c0.1-0.5,0.5-1.9,0.3-2 c-1.8-1.1-5.2-2.7-7.1-3.6c0.9-3,4.7-9.5,7.1-13.3c2.6,0.7,5.1,1.3,7.7,2c0.1,0.9,0.2,1.9,0.3,2.8c0.2,1.8,0.6,3.6,1.2,5.4 c1.2,3.4,3.8,5.2,7.2,5.9C83.6,75.3,87,74.3,90,72c2.7-2,4.3-4.7,5.1-7.9c0.4-1.4,0.6-2.9,0.8-4.4c1.8-0.5,3.6-1.1,5.3-1.6 c1.7-0.5,3.4-1.1,5.2-1.6c0.8,1.5,4.8,10.7,6.6,15.6c-3.5,2.7-7.2,5.3-10.9,7.9c-0.3,1.6-0.7,3.1-1,4.7c-0.4,2.3-0.8,4.6-1.3,6.8 c-0.4,2.3-0.9,4.6-1.4,6.9c-0.2,0.9-0.3,1.8-0.5,2.7c0.3,0.5,0.1,1.1,0,1.6c-1.1,5.7-2.2,11.5-3.3,17.2c-0.5,2.2-0.8,4.4-1.3,6.5 c-0.1,0.5-0.3,1-0.4,1.6c-0.5,0.3-1.1-0.1-1.6-0.3c-5.1-1.4-10.2-2.9-15.3-4.2c-2.6-0.8-5.2-1.3-7.8-2.1c-0.5-0.1-1-0.1-1.3-0.6 c0-0.7,0.6-0.8,1.1-0.9c3.3-1.3,6.7-2.6,10-3.9c0.5-0.2,1-0.3,1.4-0.6c0.6-0.5,0.9-1,0.2-1.6c-1.2-0.2-2.4,0-3.5-0.1 c-3.5-0.1-6.9,0.1-10.4-0.1c-0.8-0.2-1-0.9-1.1-1.5c-1.2-4-2.7-8-3.9-12C60.2,99,59.8,98.2,58.4,98.3z"></path> <path class="st22" d="M39.3,121.2c0.8,0,1.7,0,2.5,0c0.6,1,0.8,2.2,1.4,3.2c1.8,0.1,3.6-0.2,5.5-0.3c1.7-0.1,3.4-0.4,5.2-0.4 c-0.8,1-1.6,2-2.4,3c-1.1,1.3-2,2.8-3,4.1c-1.4,2-2.7,4.1-4,6.2c-1.2,0-2.5,0-3.8,0c-0.2,0-1.7-0.1-2.3,0.7 c-0.2,0.5,0.1,1,0.3,1.4c0.5,1.1,1.1,2.2,1.6,3.3c0.2,0.4,0.5,0.8,0.2,1.3c0,0.3-0.1,0.6-0.2,0.9c-1.6,3.2-3.2,6.5-4.8,9.7 c0,0.1-0.1,0.1-0.2,0.1c-3.7-4.2-7.2-8.6-10.2-13.4c-1.6-2.6-3.1-5.3-4-8.3c-0.5-1.5-0.7-3.1-0.6-4.7c0.1-2.1,1.1-3.6,3-4.4 c2-0.9,4.2-1.3,6.4-1.7C33,121.5,36.2,121.3,39.3,121.2z"></path> <path class="st16" d="M87.5,56.7c0.1,0.8,0.9,3.9,1,4.7c0,0,3-0.5,4.2-0.8c0.2,1.3-0.1,2.4-0.5,3.5c-0.8,2.2-2.1,4.1-3.9,5.6 c-2.1,1.8-4.6,2.7-7.3,2.2c-2.4-0.4-4.3-1.8-5.5-4c-1.1-2.1-1.4-4.3-1.3-6.6c1.1,0.2,2,0.4,3,0.1c0.2,0.1,0.3,0.3,0.3,0.5 c0.9,3.4,4.4,4.4,7.1,2.1c1.7-1.5,2.5-3.4,2.6-5.6C87.2,57.8,87,57.1,87.5,56.7z"></path> <path class="st17" d="M87.5,56.7c0,0.6,0,1.1,0,1.7c0,2.5-1,4.6-2.9,6.2c-1.6,1.3-4.3,1.5-6.1,0.1c-0.7-0.6-1.2-1.4-1.2-2.3 c0-0.3,0-0.6,0-0.8c0.1-1.6,0.3-2.9,1.4-4c0.5-0.5,1-0.8,1.5-0.8c0.7,0.2,1.3-0.2,1.8-0.6c0.6-0.2,1.3-0.1,1.9-0.1 c0.8,0,1.1-0.5,1.2-1.2c0.1-1.1-0.8-5-1.4-6.2c-1.8,0-3.9,0.9-5.2-1.3c-0.1-0.2-0.3-0.4-0.4-0.6c-0.6-1.1-0.6-2,0.3-3.1 c0.4-0.6,1-0.7,1.7-0.6c0.7,0.1,0.9,0.6,1,1.2c0.1,0.4,0.1,0.9,0.5,1.2c0.6,0.1,1.1-0.2,1.7-0.3c1.2-0.2,1.7,0,2.3,1.1 c0.5,1.1,0.7,2.3,1,3.5c0.1,0.3,0.2,0.7,0.3,1c0.2,1.5,0.3,1.9,0.4,2.9C87.3,54.5,87.4,55.6,87.5,56.7z"></path> <path class="st22" d="M41.3,161.2c0-0.7,0.6-1,0.9-1.4c1.1-1.5,2.3-2.8,3.4-4.2c0.1-0.2,0.1-0.5,0.4-0.5c1.5,3.1,5.1,12.1,5,12.4 c-1,0.7-2,1.3-3.3,1.4C45.6,166.3,43.5,163.7,41.3,161.2z"></path> <path class="st17" d="M27.9,170.8c1.4,0.5,2.8,1,4.2,1.4c-0.7,1.4-1.8,2.5-2.6,3.8c-0.9,1.4-1.9,2.7-2.9,4.1c-2-0.7-3.9-1.3-6.1-2 c1.7-0.6,3.1-1.1,4.6-1.6c0.8-1.3,1.3-2.8,2-4.2C27.4,171.8,27.6,171.2,27.9,170.8z"></path> <path class="st17" d="M47.7,168.9c1.1-0.5,2.1-1.2,3.3-1.4c1,1.9,2.1,3.9,3.1,5.8c-0.7,0.6-5.2,2.6-6.2,2.7 c0.6-1.2,1.2-2.4,1.8-3.6C49.1,171.1,48.2,170.1,47.7,168.9z"></path> <path class="st45" d="M87.2,53.2C87.1,53.2,87.1,53.2,87.2,53.2c-0.2-0.9-0.3-1.8-0.4-2.6c0.4-0.3,0.8-0.9,1.2-0.6 c0.4,0.4,0.4,0.8,0.1,1.2c-0.2,0.4-0.4,0.8-0.7,1.2C87.2,52.7,87.2,52.9,87.2,53.2z"></path> <path class="st17" d="M61.8,40.9c0.3-0.5,1.4,0.7,1.9,1.1c0.7,0.5,1.3,0.9,1.9,1.3c0.6,0.3,1.6,0.6,1.6,1.3 C67.3,45.3,61.6,41.3,61.8,40.9z"></path> <path class="st17" d="M67.2,50.8c-0.1,0.3-3.6-0.3-5.3-0.9c-0.8-0.3-0.7-0.7-0.3-0.6c0.4,0.1,1.9,0.5,2.8,0.8 C65.3,50.3,67.3,50.5,67.2,50.8z"></path> <path class="st17" d="M68,34.6c-0.2-0.6,0.1-0.6,0.3-0.3c0.2,0.3,0.9,1.8,1.3,2.6c0.4,0.8,1.8,1.9,1.7,2.2 C71.3,39.5,68.7,37.5,68,34.6z"></path> <path class="st16" d="M132.4,47.8c-0.6-2.6-1.5-5.1-2.6-7.5c-2-4.3-4.3-8.4-6.9-12.3c-1.9-2.8-11.4-7.9-11.3-7.5 c0.5,0.9,1.2,2.4,1.7,3.3c1.2,2.1,2,4.4,2.9,6.7c0.8,2,1.4,4,2,6c0.5,1.7,1,3.4,1.3,5.2c0.3,1.3,0.5,2.6,0.8,4 c0.3,1.6,0.7,3.2,0.6,4.8c-0.5,0.2-0.9,0.5-1.4,0.7c-3,1.4-6.1,2.7-9.3,3.8c-0.3,0.1-0.8,0.2-1,0.6c2.2,4.7,4.3,9.4,6.5,14.2 c0.9-0.6,1.6-1.2,2.3-1.8c1.3-1,2.6-2,3.9-3.1c1.1-0.9,2.1-1.8,3.2-2.7c1.8-1.4,3.5-2.9,5.2-4.5C132,56.4,134,53.3,132.4,47.8z"></path> <path class="st16" d="M49.8,54c-0.5-0.2-1-0.3-1.4-0.5c0.9-1.9,1.6-3.9,2.5-5.8c1.5-3.1,2.8-6.3,4.3-9.5c1.1-2.4,2.2-4.7,3.4-7.1 c0.6-1.3-0.6-7.3-1.8-5.8c-2.5,3.1-4.7,6.5-7,9.7c-1.9,2.7-3.7,5.5-5.4,8.3c-1.9,3.1-3.7,6.2-5.3,9.4c-1,2.1-0.8,4.1,0.2,6 c1.3,2.4,3.2,4.2,5.4,5.8c1.4,1,2.8,2,4.2,2.9c1.6,1,3.2,1.9,4.9,2.9c0.8-2.3,1.8-4.5,2.8-6.6c1-2.2,2-4.4,3.4-6.5 C56.7,56.2,53.2,55.3,49.8,54z"></path> <path class="st73" d="M83.1,58.6c-0.1,0.8-0.6,1.6-1.1,1.9s-0.7,0.2-1.1,0c-0.5-0.3-0.8-0.8-0.8-1.3C81,58.5,82,58.3,83.1,58.6z"></path> <path class="st74" d="M83.1,58.6c-1,0.1-2,0.5-3.1,0.6c0-0.2-0.2-0.3-0.1-0.6c1-0.4,2.1-0.3,3.1-0.6 C83.3,58.1,83.2,58.3,83.1,58.6z"></path> <path class="st12" d="M93,127.9c-0.3-0.1-0.8-0.2-1.1-0.3c-4.2-1.2-8.4-2.4-12.5-3.5c-0.8-0.2-2.5-0.7-3.5-0.9 c-0.1,0-0.1,0-0.2-0.1c-2.7-0.7-8.7-2.4-8.7-2.4s-1.2,0-1.7,0.2c-2.5,1.2-5.2,1.8-8,1.9c-1.1,0.1-2.4-0.1-3.5,0.4 c-3,3.3-5.7,6.8-7.9,10.7c-1.1,2-4.3,7.7-5.6,9.5c-1.4,3.2-3.1,6.2-4.6,9.3c-0.2,0.5-0.5,0.9-0.5,1.4c-0.3,1.1-0.8,2-1.3,3 c-1.7,3.6-3.4,7.2-5,10.8c-0.4,0.8-0.9,1.6-1.1,2.6c1.2,1,2.7,1.4,4.2,1.4c0.1-0.1,0.2-0.1,0.3-0.2c2.4-3,4.7-6,7.1-8.9 c0.5-0.7,0.9-1.5,1.7-1.9c1.7-1.7,3.1-3.7,4.6-5.6c0.1-0.2,0.1-0.4,0.2-0.6c4.2-5.3,8.5-10.7,12.7-16c0,0,0,0,0.1,0 c0.3,0.2,1.5,0.6,1.7,0.7c0,0,0,0,0,0c0.4,0.2,0.8,0.3,0.8,0.4c5.7,1.8,11.5,3.3,17.4,4.1c2.9,0.4,5.4-0.4,7.6-2.2 c1.3-1.1,2.3-2.5,3.2-4c0.7-1.1,1.3-2.4,1.7-3.6c0.4-1.3,0.8-2.4,1.2-3.9C92.7,129.8,93,128.8,93,127.9z"></path> <path class="st25" d="M66.8,120.7c-1.1,0.2-2,0.8-3,1.1c-0.6,0.2-1.2,0.5-1.8,0.7c-0.6,0.3-1.2,0.4-1.9,0.4 c-2.2,0.2-17.1,1.7-17.1,1.7s-7.4-18.4-7.9-19.7c0.1-0.7,0.9-0.8,1.4-0.9c2.8-0.7,20.9-5.9,21.7-6.1c0.6-0.2,1.2-0.6,1.9-0.1 c1.5,4.5,5.9,17.3,6.2,18.2c0.5,1.4,0.7,1.6,2.1,1.1c3.1-1.1,6.1-2.2,9.2-3.3c0.9-0.3,1.7-0.6,2.7-0.4c0.6,1.1,0.4,1.8-0.6,2.2 c-1.1,0.5-2.3,0.9-3.4,1.4c-3.1,1.2-6.1,2.3-9.2,3.5C66.9,120.6,66.9,120.7,66.8,120.7z"></path> <path class="st35" d="M80.2,113.5c-0.8,0-1.6,0.3-2.3,0.6c-2.4,0.9-11.2,3.8-11.2,3.8l-1.6-4.5c0,0,9.7,0,14.5,0 C79.9,113.2,80.1,113.2,80.2,113.5z"></path> <path class="st35" d="M49.8,114.2c-2.2-0.9-2.8-1.6-2.6-3.1c0.2-1.2,1.3-2,2.6-2c1.2,0,2.4,1.1,2.5,2.3c0,0.7-0.3,1.4-0.7,2 C51.1,113.9,50.4,113.9,49.8,114.2z"></path> <path class="st16" d="M54.6,39.6l6.2-13.3c0,0,3.6-1,3.6-1.1s-0.1-2-0.1-2l1.9-0.5c0,0-0.8-3.7-1-3.6c-0.1,0-5,1.1-5,1.1 s-8,11.6-10.9,15.7"></path> <polyline class="st75" points="61.1,21.9 60.2,22.5 60.5,23.9 64.3,23.3 "></polyline> <path class="st16" d="M118.6,36.5c0,0-1.3-6.2-3.3-9.5s-4.2-6.9-4.2-6.9l-2.7,2.1c0,0-3.1-2.8-3-3.1c0.1-0.2,1.2-1.2,1-1.4 c-0.2-0.2-0.9-1.6-0.9-1.6l2.1-2l5.2,0.7c0,0,3.7,3.6,7.4,8.6c3.7,5,6.7,10.8,6.7,10.8L118.6,36.5z"></path> <line class="st75" x1="106.4" y1="17.8" x2="109.3" y2="21.2"></line> <g> <g> <path class="st31" d="M77.8,52.3c0.2-0.3,0.5-0.2,0.8,0c0.2,0.2,0.3,0.5,0,0.7c-0.2,0.2-0.5,0.2-0.7,0 C77.6,52.8,77.6,52.6,77.8,52.3z"></path> </g> <g> <path class="st31" d="M78.6,51.3c0,0-0.1,0-0.2,0c0,0-0.3-0.2-0.7-0.1c-0.4,0.1-0.6,0.6-0.6,0.6c0,0.1-0.1,0.1-0.2,0.1 c-0.1,0-0.1-0.1-0.1-0.2c0,0,0.2-0.6,0.8-0.8c0.5-0.1,0.9,0.1,0.9,0.1C78.7,51.1,78.7,51.2,78.6,51.3 C78.7,51.3,78.6,51.3,78.6,51.3z"></path> </g> <g> <path class="st31" d="M81.4,51.6c0.3-0.2,0.6-0.2,0.8,0c0.2,0.2,0.2,0.5-0.1,0.7c-0.2,0.2-0.5,0.1-0.7,0 C81.2,52.1,81.1,51.8,81.4,51.6z"></path> </g> <g> <path class="st31" d="M82.3,50.7c0,0-0.1,0-0.2,0c0,0-0.3-0.2-0.7-0.2c-0.4,0.1-0.7,0.5-0.7,0.5c0,0.1-0.1,0.1-0.2,0.1 c-0.1,0-0.1-0.1-0.1-0.2c0,0,0.3-0.6,0.9-0.7c0.5-0.1,0.9,0.2,0.9,0.2C82.4,50.5,82.4,50.6,82.3,50.7 C82.4,50.6,82.3,50.6,82.3,50.7z"></path> </g> <g> <path class="st31" d="M80.5,55.2C80.5,55.3,80.5,55.3,80.5,55.2l-0.2,0.1c-0.2,0-0.4,0.1-0.5,0c-0.1-0.1-0.1-0.2-0.2-0.3 c0-0.4-0.1-2.1-0.1-2.2c0-0.1,0.1-0.2,0.1-0.2c0.1,0,0.2,0.1,0.2,0.1c0,0,0,1.8,0.1,2.2c0,0.1,0,0.1,0,0.1c0,0,0.2,0,0.3,0 c0,0,0.1,0,0.1,0c0.1,0,0.2,0,0.2,0.1C80.6,55.2,80.6,55.2,80.5,55.2z"></path> </g> </g> </g> </g> </svg> 