<svg width="61" height="61" viewBox="0 0 61 61" fill="none" xmlns="http://www.w3.org/2000/svg">
<path d="M4.68483 48.8977C4.68322 49.6367 4.8276 50.3688 5.10967 51.0519C5.39174 51.7349 5.80596 52.3556 6.32853 52.8782C6.85111 53.4007 7.47175 53.815 8.15484 54.097C8.83792 54.3791 9.57 54.5235 10.309 54.5219H50.691C51.4301 54.5235 52.1621 54.3791 52.8452 54.097C53.5283 53.815 54.149 53.4007 54.6715 52.8782C55.1941 52.3556 55.6083 51.7349 55.8904 51.0519C56.1725 50.3688 56.3168 49.6367 56.3152 48.8977V22.9849H4.68483V48.8977Z" fill="#8EB400"/>
<path d="M50.691 11.4922H43.371V8.66183C43.4064 8.13789 43.2405 7.6202 42.9073 7.21438C42.574 6.80856 42.0984 6.54519 41.5776 6.47803C41.0507 6.5621 40.5744 6.84041 40.2425 7.25815C39.9105 7.67588 39.7471 8.20277 39.7842 8.73503V11.4922H21.1792V8.66183C21.2146 8.13789 21.0487 7.6202 20.7155 7.21438C20.3822 6.80856 19.9066 6.54519 19.3858 6.47803C18.8589 6.5621 18.3826 6.84041 18.0507 7.25815C17.7187 7.67588 17.5553 8.20277 17.5924 8.73503V11.4922H10.2724C8.79345 11.5018 7.37779 12.0936 6.33199 13.1394C5.28618 14.1852 4.69441 15.6009 4.68481 17.0798V20.508H56.3152V17.0798C56.3055 15.5945 55.7087 14.1734 54.655 13.1266C53.6013 12.0797 52.1763 11.4922 50.691 11.4922Z" fill="#8EB400"/>
<path d="M18.7759 29.0117H14.0789V33.7087H18.7759V29.0117Z" fill="white"/>
<path d="M32.8547 29.0117H28.1577V33.7087H32.8547V29.0117Z" fill="#EC1C24"/>
<path d="M18.7759 40.272H14.0789V44.969H18.7759V40.272Z" fill="white"/>
<path d="M45.9941 29.0117H41.2971V33.7087H45.9941V29.0117Z" fill="white"/>
<path d="M45.9941 40.272H41.2971V44.969H45.9941V40.272Z" fill="#EC1C24"/>
<path d="M32.8547 40.272H28.1577V44.969H32.8547V40.272Z" fill="white"/>
</svg>
