<svg width="154" height="195" viewBox="0 0 154 195" fill="none" xmlns="http://www.w3.org/2000/svg">
<path d="M119.7 122.2H111V127.4H119.7V122.2Z" fill="#585755"/>
<path d="M123.1 126.4H107.6V129H123.1V126.4Z" fill="#585755"/>
<path d="M59.4984 150.4C59.2984 150.2 54.7984 146.5 53.4984 139.2C52.1984 132.2 52.7984 125.5 52.7984 125.2L54.6984 125.4C54.6984 125.5 54.1984 132.1 55.3984 138.9C56.5984 145.4 60.6984 148.9 60.7984 148.9L59.4984 150.4Z" fill="#3A3B39"/>
<path d="M70.5992 154.1H68.6992V180.3H70.5992V154.1Z" fill="#3A3B39"/>
<path d="M53.5987 107.1C53.5987 107.1 44.9987 111.1 45.6987 119C46.4987 128.5 52.6987 130.8 53.2987 131C53.9987 131.2 56.4987 113.8 56.4987 113.8L53.5987 107.1Z" fill="#585755"/>
<path d="M83.1993 150.1C83.1993 150.1 80.4993 156.1 70.0993 155.8C59.6993 155.6 58.2993 153 58.2993 152.3C58.1993 151.6 58.1993 147.6 58.8993 147C59.5993 146.4 72.9993 146.1 72.9993 146.1L83.1993 150.1Z" fill="#585755"/>
<path d="M69.298 186.8C70.016 186.8 70.598 186.218 70.598 185.5C70.598 184.782 70.016 184.2 69.298 184.2C68.5801 184.2 67.998 184.782 67.998 185.5C67.998 186.218 68.5801 186.8 69.298 186.8Z" fill="#3A3B39"/>
<path d="M60.3996 185.2C61.1176 185.2 61.6996 184.618 61.6996 183.9C61.6996 183.182 61.1176 182.6 60.3996 182.6C59.6816 182.6 59.0996 183.182 59.0996 183.9C59.0996 184.618 59.6816 185.2 60.3996 185.2Z" fill="#3A3B39"/>
<path d="M80.3996 185.1C81.1176 185.1 81.6996 184.518 81.6996 183.8C81.6996 183.082 81.1176 182.5 80.3996 182.5C79.6816 182.5 79.0996 183.082 79.0996 183.8C79.0996 184.518 79.6816 185.1 80.3996 185.1Z" fill="#3A3B39"/>
<path d="M69.9981 179.4C71.0981 179.5 74.7981 180 76.1981 180.6C77.0981 181 78.9981 181.4 80.1981 181.9C81.0981 182.3 81.5981 183 81.5981 183.5C81.4981 184 80.9981 183.7 80.9981 183.6C80.9981 183.5 80.0981 182.7 80.0981 182.7C80.0981 182.7 79.7981 182.3 78.1981 182C77.5981 181.9 77.3981 181.9 77.3981 181.9C77.3981 181.9 77.1981 183.1 75.7981 183.1C74.3981 183.1 69.9981 183.1 67.4981 183C63.2981 182.8 62.6981 180.1 64.8981 179.8C67.0981 179.5 68.1981 179.3 69.9981 179.4Z" fill="#3A3B39"/>
<path d="M67.8978 182.4C67.8978 182.5 67.2978 183.9 67.4978 184.9C67.6978 185.9 67.8979 186.1 68.2979 186.3C68.6979 186.5 68.7979 186 68.7979 186C68.7979 186 68.5978 184.8 68.4978 184.8C68.3978 184.8 68.1978 184.6 68.3978 184C68.5978 183.4 69.1978 182.2 69.1978 182.2L67.8978 182.4Z" fill="#3A3B39"/>
<path d="M64.5995 180.7C64.5995 180.7 61.6995 181.5 60.4995 181.9C59.3995 182.3 58.7995 183.4 58.8995 184C58.9995 184.6 59.6995 183.7 59.7995 183.6C59.8995 183.5 59.7995 182.6 60.9995 182.4C62.1995 182.1 65.8995 181.3 65.8995 181.3L64.5995 180.7Z" fill="#3A3B39"/>
<path d="M145.798 130.8H127.398V181.8H145.798V130.8Z" fill="#B3B8BC"/>
<path d="M98.9996 130.8H80.5996V178.3H98.9996V130.8Z" fill="#B3B8BC"/>
<path d="M148.699 129H82.2988V132.8H148.699V129Z" fill="#E3E7EB"/>
<path d="M58.1994 8.6C57.8994 7.5 57.2994 7 56.0994 7C53.2994 7.1 53.6994 6.5 53.6994 9.5C53.6994 9.8 53.9994 9.7 54.1994 9.8C53.8994 11.1 55.1994 10.6 55.6994 11C55.6994 12.1 55.7994 13.1 55.7994 14.2C56.8994 14.1 57.9994 14.2 59.0994 13.9C58.8994 12.2 58.6994 10.4 58.1994 8.6Z" fill="#F8B5A7"/>
<path d="M15.7984 5.60012C15.7984 5.00012 12.7984 5.30012 12.2984 5.40012C11.6984 5.50012 11.1984 5.60012 10.9984 6.40012C10.4984 8.20012 9.99844 10.0001 9.39844 11.8001C10.7984 11.3001 12.2984 11.6001 13.7984 11.6001C13.0984 10.8001 13.6984 10.1001 13.8984 9.40012C14.2984 9.10012 15.0984 9.00012 14.8984 8.20012C15.1984 8.10012 15.8984 8.50012 15.8984 7.70012C15.7984 6.80012 15.7984 6.10012 15.7984 5.60012Z" fill="#F8B5A7"/>
<path d="M35.1988 58.4001C34.6988 58.3001 33.1988 58.0001 32.5988 57.8001L32.2988 57.7001C32.2988 57.6001 32.1988 55.7001 32.2988 54.5001C32.2988 54.3001 32.3988 54.0001 32.4988 53.7001C33.9988 53.4001 34.3988 51.8001 34.4988 50.6001C34.4988 49.4001 33.7988 44.5001 33.4988 42.8001C33.1988 41.1001 31.5988 40.8001 31.5988 40.8001L30.2988 39.6001L26.8988 40.4001L25.9988 44.5001L25.5988 50.4001C25.5988 50.4001 26.4988 54.6001 25.9988 57.4001C25.7988 58.4001 22.2988 59.4001 22.2988 59.4001C22.2988 59.4001 22.9988 62.4001 23.8988 63.7001C24.7988 64.9001 26.9988 66.5001 31.6988 65.6001C37.9988 64.5001 35.7988 58.5001 35.1988 58.4001Z" fill="#F8B5A7"/>
<path d="M100.6 77.6C99.8001 75.3 99.0001 73.1 97.9001 70.9C94.5001 64.1 90.4001 57.7 85.9001 51.6C83.5001 48.4 83 48.4 80.2 51.1C79.9 51.4 79.1001 51.6 79.6001 52.2C80.2001 52.9 80.3001 54.1 81.5001 54.1C82.0001 54.3 82.3 53.9 82.7 53.7C83 53.6 83.3 53.2 83.7 53.4C84.2 53.7 83.8 54.1 83.7 54.5C83.8 54.6 83.8001 54.7 83.9001 54.8C87.3001 63.3 90.8 71.7 94.2 80.2C94.4 80.6 94.5001 81 94.0001 81.3C93.8001 81.4 93.5001 81.5 93.3001 81.6C91.4001 82.3 89.5 82.9 87.7 83.6C87.2 83.8 86.6 83.9 86.7 84.8C87.5 88 88.2001 91.1 89.0001 94.3C89.1001 94.8 89.4001 94.9 89.9001 94.6C90.5001 94.3 90.9001 94.1 91.6001 93.6C91.8001 93.6 96.3001 89.9 98.1 88C101 85 101.9 81.7 100.6 77.6Z" fill="#F8B5A7"/>
<path d="M4.79883 36.1001C5.19883 36.7001 5.19883 37.2001 4.79883 37.8001C4.79883 37.2001 4.79883 36.7001 4.79883 36.1001Z" fill="#EC6883"/>
<path d="M4.79883 39.8C5.19883 40.4 5.19883 40.9 4.79883 41.5C4.79883 40.9 4.79883 40.3 4.79883 39.8Z" fill="#EA5372"/>
<path d="M114.199 151.2C110.799 161.1 105.799 170.3 100.499 179.3C100.199 179.8 99.8987 180 99.3987 180.1C98.0987 180.3 96.8987 180.5 95.6987 179.9C95.6987 179.7 95.6987 179.6 95.7987 179.4C95.8987 178.6 95.8987 177.8 96.4987 177.2C98.2987 174.1 100.599 171.3 102.599 168.3C105.599 163.6 108.499 158.8 110.499 153.5C111.499 150.9 112.199 148.3 111.999 145.5C111.799 143.2 110.499 141.6 108.499 140.5C105.699 138.9 102.599 138.1 99.4987 137.5C93.1987 136.4 86.7987 136.5 80.4987 136.5C78.8987 136.5 76.2987 137 86.1987 133.8C86.2987 133.8 86.3987 133.7 86.4987 133.6C87.4987 132.9 88.6987 133.2 89.7987 133.3C93.2987 133.6 96.7987 133.5 100.199 134C104.299 134.6 108.299 135.2 111.999 137.3C113.499 138.1 114.899 139.2 115.599 140.8C116.199 142 116.399 143.2 116.199 144.5C115.899 146.3 114.299 151.1 114.199 151.2Z" fill="#799600"/>
<path d="M70.3988 85.2001C69.5988 85.1001 68.8988 84.5001 68.1988 84.2001C67.9988 84.1001 67.6988 84.0001 67.8988 83.6001C68.3988 82.8001 68.3988 81.5001 69.8988 81.5001C70.4988 81.5001 71.1988 81.1001 71.0988 80.4001C70.8988 79.6001 70.0988 79.6001 69.4988 79.7001C69.1988 79.7001 68.8988 79.9001 68.6988 79.9001C68.1988 79.8001 67.5988 79.6001 68.0988 79.0001C69.0988 77.4001 68.7988 76.2001 67.1988 75.2001C66.7988 74.9001 66.4988 74.4001 66.1988 74.0001C65.5988 72.3001 65.5988 70.7001 66.7988 69.3001C67.2988 68.6001 67.9988 68.1001 68.8988 68.4001C69.7988 68.7001 70.0988 69.5001 70.0988 70.4001C69.9988 71.3001 70.3988 71.8001 71.0988 72.3001C74.9988 75.3001 75.0988 75.8001 73.0988 80.2001C72.0988 81.8001 71.1988 83.5001 70.3988 85.2001Z" fill="#004A76"/>
<path d="M25.5988 181.9C26.4988 181.9 27.4988 181.9 28.3988 181.9C28.7988 181.9 29.2988 181.8 29.2988 182.4C28.8988 183.6 28.1988 184.8 28.1988 186C28.2988 187.2 29.7988 187.8 30.4988 189C28.1988 189 25.9988 189 23.7988 189C24.3988 186.6 24.9988 184.2 25.5988 181.9Z" fill="#3A3B39"/>
<path d="M11.8001 181.9C13.1001 182 14.4001 181.6 15.6001 182.2C15.3001 183.2 15.0001 184.3 14.6001 185.3C14.4001 185.9 14.4001 186.3 14.9001 186.8C15.6001 187.4 16.1001 188.1 17.0001 189C14.7001 189 12.6001 189 10.5001 189C9.8001 189 10.2001 188.4 10.3001 188.1C10.8001 186 11.3001 184 11.8001 181.9Z" fill="#3A3B39"/>
<path d="M92.7984 181.4C92.0984 182.5 91.3984 183.6 90.5984 184.6C90.1984 185.1 90.1984 185.4 90.7984 185.8C91.4984 186.3 92.0984 186.9 92.9984 187.6C90.6984 187.6 88.5984 187.6 86.3984 187.6C87.2984 185.5 88.1984 183.5 89.1984 181.4C90.2984 181.2 91.5984 181.2 92.7984 181.4Z" fill="#3A3B39"/>
<path d="M95.6998 179.9C96.8998 180 98.1998 179.7 99.3998 180.1C99.2998 180.2 99.2998 180.4 99.1998 180.5C98.6998 181.4 97.8998 182.3 97.7998 183.2C97.6998 184.2 99.1998 184.5 99.7998 185.5C97.9998 185.5 96.2998 185.5 94.4998 185.5C93.8998 185.5 94.0998 185.1 94.1998 184.8C94.7998 183.2 94.9998 181.5 95.6998 179.9Z" fill="#3A3B39"/>
<path d="M44.5994 115.8C34.2994 115.8 23.8994 115.8 13.5994 115.8C13.3994 116.2 13.4994 116.5 13.5994 116.9C13.5994 117.5 13.5994 118 13.6994 118.6C13.7994 121.1 13.7994 123.7 13.8994 126.2C14.1994 133.8 14.4994 141.3 14.7994 148.9C14.8994 151.8 15.3994 154.8 15.1994 157.7C14.9994 161.1 14.3994 164.4 13.7994 167.7C12.9994 172.2 12.0994 176.7 11.2994 181.2C11.1994 181.7 11.2994 182.1 11.8994 182.1C13.0994 182.7 14.3994 182.4 15.6994 182.4C16.5994 182 16.7994 181.1 17.1994 180.3C22.7994 165.2 26.6994 149.6 28.1994 133.6C28.4994 131 28.8994 128.5 29.1994 125.6C29.3994 126.1 29.4994 126.4 29.5994 126.6C29.5994 126.7 29.5994 126.9 29.5994 127C29.9994 133.8 30.4994 140.6 30.8994 147.5C30.9994 149.9 31.5994 152.2 31.0994 154.6C28.9994 163.4 26.8994 172.2 24.7994 181C24.5994 181.8 24.5994 182.3 25.5994 182.2C26.7994 182.9 28.0994 182.4 29.2994 182.7C29.6994 182.2 29.9994 181.6 30.1994 181C32.6994 174.8 35.1994 168.6 37.7994 162.5C40.0994 157.1 41.7994 151.6 42.3994 145.7C42.9994 139.3 43.5994 132.9 43.9994 126.5C44.2994 122.7 44.6994 119.2 44.5994 115.8Z" fill="#004A76"/>
<path d="M59.0992 14.0001C57.9992 13.7001 56.7992 13.6001 55.7992 14.3001C54.8992 23.4001 53.9992 32.5001 53.0992 41.6001C52.9992 42.7001 52.5992 43.4001 51.8992 44.1001C47.6992 48.2001 43.4992 52.4001 39.2992 56.6001C38.7992 57.1001 38.4992 57.7001 38.4992 58.4001C38.3992 61.0001 38.1992 63.3001 36.6992 65.4001C35.6992 66.9001 33.6992 67.9001 31.8992 68.4001C27.8992 69.4001 21.9992 67.7001 20.2992 61.5001C19.9992 60.5001 19.7992 59.5001 19.3992 58.5001C16.9992 52.5001 14.5992 46.5001 12.0992 40.5001C11.8992 40.0001 11.6992 39.6001 11.6992 39.1001C11.9992 35.8001 12.1992 32.5001 12.4992 29.2001C12.8992 23.4001 13.3992 17.5001 13.7992 11.7001C12.2992 11.1001 10.7992 11.0001 9.39922 11.7001C8.99922 12.1001 8.89922 12.7001 8.69922 13.3001C8.09922 15.6001 7.59922 17.9001 7.09922 20.2001C6.09922 25.0001 5.09922 29.9001 4.69922 34.8001C4.69922 35.3001 4.69922 35.8001 4.69922 36.3001C4.89922 36.9001 4.89922 37.4001 4.69922 38.0001C4.69922 38.7001 4.69922 39.3001 4.69922 40.0001C4.89922 40.6001 4.89922 41.1001 4.69922 41.7001C4.69922 42.4001 4.69922 43.2001 4.69922 43.9001C4.99922 43.8001 4.99922 44.0001 4.99922 44.2001C5.49922 49.0001 6.59922 53.7001 7.99922 58.4001C9.79922 64.2001 11.1992 70.1001 11.6992 76.3001C12.3992 85.8001 12.9992 95.3001 13.1992 104.9C13.2992 108.5 13.4992 112.2 13.5992 115.8C13.9992 116.2 14.4992 116.1 14.9992 116.1C24.2992 116.1 33.6992 116 42.9992 116.2C43.5992 116.2 44.1992 116.3 44.5992 115.8C44.5992 115.3 44.6992 114.8 44.6992 114.3C44.6992 99.5001 44.6992 84.7001 44.6992 69.8001C44.6992 69.3001 44.5992 68.7001 44.8992 68.2001C45.5992 67.4001 46.1992 66.7001 46.5992 65.8001C50.0992 61.1001 53.5992 56.3001 57.1992 51.6001C58.4992 49.9001 59.2992 48.0001 59.5992 45.9001C60.0992 43.4001 60.2992 40.9001 60.2992 38.5001C60.4992 30.3001 59.9992 22.2001 59.0992 14.0001Z" fill="#EC1C24"/>
<path d="M39.1992 39.5001C38.9992 39.5001 38.7992 39.5001 38.7992 39.3001C38.6992 39.0001 38.9992 38.9001 39.1992 38.7001C40.3992 38.0001 41.5992 37.3001 42.7992 36.6001C43.2992 36.3001 43.7992 36.0001 44.2992 35.8001C44.4992 35.7001 44.5992 35.7001 44.6992 35.9001C44.7992 36.0001 44.7992 36.2001 44.6992 36.3001C42.7992 37.4001 40.9992 38.4001 39.1992 39.5001Z" fill="#8DB300"/>
<path d="M59.4989 74C57.3989 73.1 55.6989 71.8 53.7989 70.8C53.5989 70.7 53.4989 70.5 53.6989 70.3C53.8989 70 54.1989 70.2 54.3989 70.3C55.9989 71.2 57.5989 72.1 59.1989 73.1C59.2989 73.2 59.5989 73.4 59.4989 74Z" fill="#F4A200"/>
<path d="M86.2 129.5C86.1 128.9 86.1 128.4 85.6 128C85.2 127.8 85.7 125.4 84.9 122.4C84.2 116.7 83.4 110.9 82.8 105.2C82.6 103.2 82 101.2 82.3 99.1001C82.6 99.0001 85.3 97.3001 86.4 96.7001C86.9 96.4001 87 96.1001 86.9 95.6001C86.3 92.2001 85.7 88.8001 84.7 85.4001C84.5 84.6001 84.1 84.6001 83.5 84.8001C81.6 85.3001 79.8 85.8001 77.9 86.2001C77.2 86.4001 77 86.7001 77.1 87.4001C77.4 89.0001 77.1 90.6001 76.7 92.1001C75.6 95.6001 73.5 98.2001 69.7 98.9001C66 99.6001 63.1 98.1001 60.8 95.3001C59.9 94.1001 59.1 92.9001 58.5 91.5001C58.1 90.6001 57.7 90.5001 56.8 90.9001C54.6 91.8001 53.2 93.5001 52.2 95.7001C50.6 99.3001 50.3 103.2 50.2 107.1C50.1 111.2 52.8 131.4 54 136.6C54.7 138.8 55.1 141.1 55.9 143.3C56 143.5 56.2 143.6 56.4 143.7C57 143.8 57.4 143.5 57.9 143.4C62.9 141.7 68 140.1 73 138.5C77.1 137.2 81.2 135.9 85.3 134.5C85.7 134.4 86.2 134.3 86.4 133.8C86.6 133.3 86.4 132.9 86.3 132.4C86.5 131.4 86.3 130.4 86.2 129.5Z" fill="#F4A200"/>
<path d="M81.3984 54.1C81.8984 53.8 82.2984 53.6 82.7984 53.3C83.1984 53.1 83.4984 52.5 83.9984 53.2C84.3984 53.8 84.3984 54.2 83.6984 54.6C82.7984 54.9 81.9984 55.3 81.3984 54.1Z" fill="#F8B5A7"/>
<path d="M58.3995 66.1001C58.5995 66.3001 58.7995 66.4001 58.8995 66.5001C59.6995 67.6001 60.5995 68.8001 61.3995 70.0001C61.4995 70.2001 61.6995 70.5001 61.4995 70.6001C61.1995 70.9001 60.9995 70.5001 60.7995 70.3001C59.9995 69.2001 59.0995 68.0001 58.2995 66.8001C58.0995 66.6001 58.0995 66.3001 58.3995 66.1001Z" fill="#F4A200"/>
<path d="M36.9984 36.3C36.5984 36.2 36.6984 35.9 36.7984 35.7C37.6984 34.4 38.5984 33.2 39.4984 32C39.5984 31.8 39.7984 31.7 39.9984 31.9C40.0984 32 40.0984 32.2 39.9984 32.3C39.0984 33.6 38.1984 34.9 37.1984 36.1C37.2984 36.2 37.0984 36.2 36.9984 36.3Z" fill="#8DB300"/>
<path d="M44.7 43.0002C43.5 43.6002 42.1 43.6002 40.8 43.7002C40.6 43.7002 40.4 43.7002 40.3 43.5002C40.2 43.2002 40.4 43.1002 40.6 43.1002C42 43.1002 43.3 42.5002 44.7 43.0002Z" fill="#8DB300"/>
<path d="M53.5996 77.6001C53.8996 77.0001 54.2996 77.1001 54.6996 77.2001C55.6996 77.3001 56.5996 77.4001 57.5996 77.5001C57.7996 77.5001 58.0996 77.6001 58.0996 78.0001C58.0996 78.2001 57.8996 78.3001 57.6996 78.2001C56.2996 78.0001 54.8996 78.0001 53.5996 77.6001Z" fill="#F4A200"/>
<path d="M107.7 139.8C107.1 139.5 106.6 139.3 106 139C100.9 137 95.5 136.6 90.1 136.3C87 136.1 83.9 136.3 80.8 136.3C79.9 136.3 79 136.5 78.2 136.8C74.9 138.1 70.9 138.3 67.6 139.7C64.3 141 60.8 141.4 57.5 142.8C57 143 56.5 143.2 56.3 143.7C56.2 144.3 57.2 146.9 57.5 147.3C58.8 149.5 60.6 150.9 62.8 152C66.5 153.8 70.5 153.6 74.4 153.3C78.2 153 81.9 152.4 85.7 152.1C90.4 151.6 100.4 150.9 100.6 150.8C101.1 150.8 101.5 150.8 102 150.9C102 151 101.9 151.1 101.9 151.2C100.3 154.8 98.8 158.5 97.1 162.1C95 167 92.8 171.8 90.7 176.7C90.4 177.4 89.1 181 88.9 181.6C90.1 182.6 91.2 182.2 92.5 181.9C93.2 181.2 96 177.7 96.7 177.2C100.5 172 104.3 166.7 107.3 161C109.4 157.1 111.4 153.2 112.1 148.8C112.8 144.7 112.1 141.9 107.7 139.8Z" fill="#8DB300"/>
<path d="M68.6992 81.1001C69.0992 80.5001 69.6992 80.6001 70.2992 80.7001C69.7992 80.8001 69.1992 80.9001 68.6992 81.1001Z" fill="#CF4463"/>
<path d="M73.1988 87.5001C71.1988 88.0001 70.3988 87.3001 70.3988 85.3001C70.0988 84.9001 69.6988 84.8001 69.2988 84.5001C68.8988 84.3001 68.1988 84.2001 68.3988 83.5001C68.5988 82.9001 68.7988 82.2001 69.4988 82.0001C69.8988 81.9001 70.3988 81.8001 70.6988 81.5001C71.0988 81.2001 71.3988 80.9001 71.2988 80.4001C71.1988 79.9001 70.8988 79.7001 70.4988 79.6001C70.0988 79.5001 69.7988 79.5001 69.3988 79.5001C68.1988 79.6001 68.0988 79.5001 68.5988 78.3001C68.7988 77.7001 69.2988 77.0001 68.7988 76.5001C67.9988 75.7001 67.1988 74.6001 66.0988 74.1001C65.4988 74.4001 65.1988 74.9001 64.9988 75.4001C63.6988 77.8001 61.7988 77.5001 62.6988 79.1001C63.0988 79.8001 61.6988 80.3001 63.2988 80.9001C63.4988 81.0001 64.5988 81.3001 64.4988 81.7001C64.2988 81.9001 63.9988 82.0001 63.6988 82.0001C63.3988 82.0001 62.9988 81.9001 62.7988 81.7001C61.7988 81.2001 61.7988 81.9001 61.6988 82.5001C61.5988 83.2001 61.9988 83.7001 62.5988 84.0001C63.2988 84.3001 63.6988 85.1001 63.8988 85.8001C64.0988 87.0001 64.1988 88.1001 64.3988 89.3001C64.0988 89.4001 63.6988 89.5001 63.3988 89.5001C62.7988 89.6001 62.1988 89.7001 61.5988 89.8001C60.8988 89.9001 60.4988 90.2001 60.9988 91.0001C61.5988 92.0001 61.9988 93.0001 62.7988 93.9001C64.8988 96.5001 67.8988 97.4001 70.9988 96.3001C73.8988 95.2001 75.7988 92.2001 75.5988 89.1001C75.1988 87.0001 75.1988 87.0001 73.1988 87.5001Z" fill="#F8B5A7"/>
<path d="M32.6984 41.0002C33.6984 40.3002 34.0984 39.4002 34.0984 38.0002C34.0984 36.5002 33.4984 35.5002 32.0984 34.9002C30.0984 34.4002 29.2984 36.3002 29.0984 37.5002C28.9984 38.0002 28.7984 38.2002 28.2984 38.4002C26.9984 38.8002 25.5984 39.3002 25.7984 41.2002C25.7984 41.4002 25.6984 41.5002 25.4984 41.6002C24.5984 42.1002 24.3984 43.0002 24.3984 43.9002C24.3984 46.3002 24.9984 48.6002 25.6984 50.9002C26.0984 51.2002 26.5984 51.1002 26.8984 50.8002C27.1984 50.4002 26.8984 50.1002 26.5984 49.8002C26.4984 49.7002 26.3984 49.5002 26.2984 49.4002C26.0984 49.2002 25.9984 48.9002 26.0984 48.6002C26.3984 48.0002 26.8984 48.3002 27.0984 48.5002C28.1984 49.2002 28.0984 49.6002 28.1984 47.9002C28.1984 46.0002 28.5984 44.0002 27.4984 42.1002C28.4984 42.0002 29.3984 42.1002 30.1984 41.9002C30.8984 41.6002 31.6984 41.7002 32.6984 41.0002Z" fill="#F4A200"/>
<path d="M33.3985 45.2001C33.0985 45.1001 32.8985 45.2001 32.6985 45.4001C32.5985 45.7001 32.5985 45.9001 32.8985 46.0001C33.1985 46.1001 33.3985 46.0001 33.4985 45.8001C33.6985 45.6001 33.5985 45.3001 33.3985 45.2001Z" fill="#484441"/>
<path d="M33.7988 44.5001C33.7988 44.5001 33.3988 44.1001 32.8988 44.2001C32.4988 44.3001 32.2988 44.6001 32.2988 44.6001" stroke="#484441" stroke-width="0.35" stroke-miterlimit="10" stroke-linecap="round" stroke-linejoin="round"/>
<path d="M30.0984 45.6C29.7984 45.5 29.5984 45.6 29.4984 45.9C29.3984 46.2 29.4984 46.4 29.7984 46.5C30.0984 46.6 30.1984 46.5 30.2984 46.2C30.3984 45.9 30.2984 45.7 30.0984 45.6Z" fill="#484441"/>
<path d="M30.3984 44.8002C30.3984 44.8002 29.9984 44.4002 29.4984 44.6002C29.0984 44.7002 28.8984 45.0002 28.8984 45.0002" stroke="#484441" stroke-width="0.35" stroke-miterlimit="10" stroke-linecap="round" stroke-linejoin="round"/>
<path d="M33.2 50.9001C33.2 50.9001 32.9 51.3001 32.4 51.4001C31.9 51.5001 31.5 51.2001 31.5 51.2001" stroke="#D95F73" stroke-width="0.35" stroke-miterlimit="10" stroke-linecap="round" stroke-linejoin="round"/>
<path d="M32.2988 46.5C32.2988 46.5 32.9988 48.5 33.0988 48.9C33.1988 49.2 32.8988 49.2 32.5988 49.3" stroke="#484441" stroke-width="0.35" stroke-miterlimit="10" stroke-linecap="round" stroke-linejoin="round"/>
<path d="M65.7988 77.0001C65.6988 76.7001 65.4988 76.6001 65.1988 76.7001C64.8988 76.8001 64.7988 77.0001 64.8988 77.3001C64.9988 77.6001 65.1988 77.6001 65.3988 77.6001C65.6988 77.5001 65.7988 77.3001 65.7988 77.0001Z" fill="#484441"/>
<path d="M66.5996 76.8002C66.5996 76.8002 66.6996 76.3002 66.2996 75.9002C65.9996 75.7002 65.5996 75.7002 65.5996 75.7002" stroke="#484441" stroke-width="0.35" stroke-miterlimit="10" stroke-linecap="round" stroke-linejoin="round"/>
<path d="M137.4 122.5H93.4C92.6 122.5 92 121.9 92 121.1V93.6001C92 92.8001 92.6 92.2001 93.4 92.2001H137.4C138.2 92.2001 138.8 92.8001 138.8 93.6001V121.1C138.8 121.9 138.2 122.5 137.4 122.5Z" fill="#B3B8BC"/>
<path d="M52.5 109C52.5 109 57.5 126.2 58.2 128.1C59 130 59.8 131.8 63.1 131.7C66.4 131.6 76.6 130.8 83.4 128.6C90.2 126.5 97.1 123.9 97.1 123.9L101.5 124.4C101.5 124.4 103.6 123.4 103.3 123.5C103 123.6 98.3 121.6 98.3 121.6L66.5 124.3L62.6 108.4L52.5 109Z" fill="#F8B5A7"/>
<path d="M51.7988 106.7L52.4988 109L62.4988 108.3L61.4988 105.3L51.7988 106.7Z" fill="#FFFFFE"/>
<path d="M135.4 120.5H95.3996C94.6996 120.5 94.0996 119.9 94.0996 119.2V95.4001C94.0996 94.7001 94.6996 94.1001 95.3996 94.1001H135.3C136 94.1001 136.6 94.7001 136.6 95.4001V119.3C136.6 120 136.1 120.5 135.4 120.5Z" fill="white"/>
<path d="M123.199 107.5C122.999 104.5 122.599 99.2001 122.199 94.1001H120.299L121.599 109.9C121.899 109 122.499 108.2 123.199 107.5Z" fill="white"/>
<path d="M115.799 116.1C115.899 115.6 116.099 115.1 116.399 114.6C116.799 109.3 117.499 100.7 117.999 94.1001H115.399L114.299 115.8C114.799 115.8 115.299 115.9 115.799 116.1Z" fill="white"/>
<path d="M131.499 117.8C133.299 116.6 134.399 114.6 134.399 112.3C134.399 108.6 131.399 105.6 127.699 105.6C127.199 105.6 126.699 105.7 126.199 105.8L123.999 94.1L121.499 80.8L121.199 81.9C121.199 82 121.699 87.8 122.199 94.1C122.599 99.1 122.999 104.5 123.199 107.5C122.499 108.2 121.899 109 121.599 110L120.299 94.2L119.499 84.3L118.799 85.2C118.799 85.3 118.499 89.1 118.099 94.2C117.599 100.8 116.899 109.4 116.499 114.7C116.199 115.2 115.999 115.7 115.899 116.2C115.399 116 114.899 115.9 114.399 115.9L115.499 94.2L116.199 80.5C116.199 80.7 115.299 86.8 114.099 94.2C112.899 101.9 111.499 111.1 110.699 116.4C109.699 113.9 107.299 112.1 104.499 112.1C100.799 112.1 97.7988 115.1 97.7988 118.8C97.7988 119.4 97.8988 120.1 98.0988 120.6H134.299C133.699 119.3 132.699 118.4 131.499 117.8Z" fill="#E3E7EB"/>
<path d="M119.099 90.9C116.999 87.1 115.699 83.6 115.399 79.8C115.199 77.3 116.899 75.8 119.199 75.8C121.699 75.8 123.099 77.2 122.799 79.9C122.499 83.7 121.099 87.1 119.099 90.9Z" fill="#F4A200"/>
<path d="M122.199 64.3C122.199 64.3 125.499 65.9 126.199 68.8C126.899 71.6 125.499 75 125.499 75L121.699 71.7L122.199 64.3Z" fill="#004A76"/>
<path d="M115.999 64.3C115.999 64.3 112.699 65.9 111.999 68.8C111.299 71.6 112.699 75 112.699 75L116.499 71.7L115.999 64.3Z" fill="#004A76"/>
<path d="M122.498 57.2002H115.898V74.3002H122.498V57.2002Z" fill="#E3E7EB"/>
<path d="M119.099 85.9001C117.999 83.9001 117.299 82.1001 117.199 80.2001C117.099 78.9001 117.999 78.1001 119.199 78.1001C120.499 78.1001 121.199 78.8001 121.099 80.2001C120.899 82.2001 120.099 84.0001 119.099 85.9001Z" fill="#DD8E03"/>
<path d="M119.198 63.4001C120.193 63.4001 120.998 62.5942 120.998 61.6C120.998 60.6059 120.193 59.8 119.198 59.8C118.204 59.8 117.398 60.6059 117.398 61.6C117.398 62.5942 118.204 63.4001 119.198 63.4001Z" fill="white"/>
<path d="M119.198 68.6C120.193 68.6 120.998 67.7941 120.998 66.8C120.998 65.8059 120.193 65 119.198 65C118.204 65 117.398 65.8059 117.398 66.8C117.398 67.7941 118.204 68.6 119.198 68.6Z" fill="white"/>
<path d="M121.199 52.1002C119.999 49.8002 119.499 49.2002 119.199 49.2002C118.899 49.2002 118.399 49.8002 117.199 52.1002C116.299 53.9002 115.799 57.1002 115.799 57.1002H119.099H122.399C122.499 57.2002 122.099 53.9002 121.199 52.1002Z" fill="#004A76"/>
<path d="M123.599 76.8C123.499 76.6 122.599 73 122.599 73H119.399H119.199H115.999C115.999 73 114.999 76.6 114.999 76.8C114.799 77.4 114.999 77.7 115.599 77.7C116.099 77.7 117.999 77.7 118.999 77.7C118.999 77.7 119.299 77.7 119.599 77.7C120.599 77.7 122.599 77.7 122.999 77.7C123.599 77.7 123.699 77.4 123.599 76.8Z" fill="#004A76"/>
</svg>
