<svg width="154" height="195" viewBox="0 0 154 195" fill="none" xmlns="http://www.w3.org/2000/svg">
<path d="M138.1 187.6H15.4004C12.9004 187.6 10.9004 185.6 10.9004 183.1V11.1C10.9004 8.59998 12.9004 6.59998 15.4004 6.59998H138.1C140.6 6.59998 142.6 8.59998 142.6 11.1V183C142.6 185.6 140.6 187.6 138.1 187.6Z" fill="#E3E7EB"/>
<path d="M90.8996 180.8H22.0996C19.5996 180.8 17.5996 178.8 17.5996 176.3V146.2C17.5996 143.7 19.5996 141.7 22.0996 141.7H90.8996C93.3996 141.7 95.3996 143.7 95.3996 146.2V176.3C95.3996 178.8 93.3996 180.8 90.8996 180.8Z" fill="#FEFEFD"/>
<path d="M85.6992 141.8C85.6992 141.8 92.5992 141.8 100.299 141.8C107.999 141.8 93.9992 153.1 90.7992 156.1C86.7992 159.9 85.6992 141.8 85.6992 141.8Z" fill="#FEFEFD"/>
<path d="M41.6992 10.2999H132.599C135.099 10.2999 137.099 12.2999 137.099 14.7999V44.0999C137.099 46.5999 135.099 48.5999 132.599 48.5999H41.6992C39.1992 48.5999 37.1992 46.5999 37.1992 44.0999V14.7999C37.2992 12.2999 39.2992 10.2999 41.6992 10.2999Z" fill="#FEFEFD"/>
<path d="M47.0002 48.5C47.0002 48.5 40.1002 48.5 32.4002 48.5C24.7002 48.5 38.7002 37.2 41.9002 34.2C45.8002 30.4 47.0002 48.5 47.0002 48.5Z" fill="#FEFEFD"/>
<path d="M87.3987 17C100.699 17 113.999 17 127.199 17C127.799 17 128.299 17 128.899 17C129.899 17 130.299 17.5 130.499 18.1C130.699 18.7 130.199 19.2 129.499 19.5C128.699 19.9 127.799 19.8 126.999 19.8C100.599 19.8 74.0987 19.8 47.6987 19.8C46.7987 19.8 45.9987 19.9 45.1987 19.5C44.4987 19.2 43.9987 18.8 44.1987 18.1C44.3987 17.5 44.7987 17 45.7987 17C46.3987 17 46.8987 17 47.4987 17C60.7987 17 74.0987 17 87.3987 17Z" fill="#B3B8BC"/>
<path d="M87.4 24.3999C100.7 24.3999 114.1 24.3999 127.4 24.3999C128 24.3999 128.5 24.3999 129.1 24.3999C129.9 24.3999 130.3 24.8999 130.5 25.3999C130.8 25.9999 130.5 26.3999 129.9 26.6999C129.2 27.0999 128.3 27.0999 127.4 27.0999C100.7 27.0999 74 27.0999 47.3 27.0999C46.8 27.0999 46.3 27.0999 45.8 26.9999C44.9 26.7999 44 26.3999 44.2 25.5999C44.3 24.6999 45 24.2999 46.2 24.2999C50.9 24.2999 55.5 24.2999 60.2 24.2999C69.3 24.3999 78.3 24.3999 87.4 24.3999Z" fill="#B3B8BC"/>
<path d="M87.3987 31.7999C100.699 31.7999 113.999 31.7999 127.199 31.7999C127.799 31.7999 128.299 31.7999 128.899 31.7999C129.899 31.7999 130.299 32.2999 130.499 32.8999C130.699 33.4999 130.199 33.9999 129.499 34.2999C128.699 34.6999 127.799 34.5999 126.999 34.5999C100.599 34.5999 74.0987 34.5999 47.6987 34.5999C46.7987 34.5999 45.9987 34.6999 45.1987 34.2999C44.4987 33.9999 43.9987 33.5999 44.1987 32.8999C44.3987 32.2999 44.7987 31.7999 45.7987 31.7999C46.3987 31.7999 46.8987 31.7999 47.4987 31.7999C60.7987 31.7999 74.0987 31.7999 87.3987 31.7999Z" fill="#B3B8BC"/>
<path d="M65.7995 39.1C72.0995 39.1 78.4995 39.1 84.7995 39.1C86.1995 39.1 87.3995 39.3 87.3995 40.5C87.3995 41.6 86.0995 41.9 84.7995 41.9C72.0995 41.9 59.4995 41.9 46.7995 41.9C44.6995 41.9 43.6995 40.9 44.4995 39.7C44.9995 39 45.7995 39.1 46.5995 39.1C52.9995 39.1 59.3995 39.1 65.7995 39.1Z" fill="#B3B8BC"/>
<path d="M49.3995 149.1C62.6995 149.1 71.2995 149.1 84.5995 149.1C85.1995 149.1 85.6995 149.1 86.2995 149.1C87.2995 149.1 87.6995 149.6 87.8995 150.2C88.0995 150.8 87.5995 151.3 86.8995 151.6C86.0995 152 85.1995 151.9 84.3995 151.9C57.9995 151.9 54.3995 151.9 27.9995 151.9C27.0995 151.9 26.2995 152 25.4995 151.6C24.7995 151.3 24.2995 150.9 24.4995 150.2C24.6995 149.6 25.0995 149.1 26.0995 149.1C26.6995 149.1 27.1995 149.1 27.7995 149.1C40.9995 149.1 36.0995 149.1 49.3995 149.1Z" fill="#B3B8BC"/>
<path d="M49.3993 156.5C62.6993 156.5 71.3993 156.5 84.6993 156.5C85.2993 156.5 85.7993 156.5 86.3993 156.5C87.1993 156.5 87.5993 157 87.7993 157.5C88.0993 158.1 87.7993 158.5 87.1993 158.8C86.4993 159.2 85.5993 159.2 84.6993 159.2C57.9993 159.2 54.1993 159.2 27.4993 159.2C26.9993 159.2 26.4993 159.2 25.9993 159.1C25.0993 158.9 24.1993 158.5 24.3993 157.7C24.4993 156.8 25.1993 156.4 26.3993 156.4C31.0993 156.4 35.6993 156.4 40.3993 156.4C49.4993 156.5 40.3993 156.5 49.3993 156.5Z" fill="#B3B8BC"/>
<path d="M49.3995 163.8C62.6995 163.8 71.2995 163.8 84.5995 163.8C85.1995 163.8 85.6995 163.8 86.2995 163.8C87.2995 163.8 87.6995 164.3 87.8995 164.9C88.0995 165.5 87.5995 166 86.8995 166.3C86.0995 166.7 85.1995 166.6 84.3995 166.6C57.9995 166.6 54.3995 166.6 27.9995 166.6C27.0995 166.6 26.2995 166.7 25.4995 166.3C24.7995 166 24.2995 165.6 24.4995 164.9C24.6995 164.3 25.0995 163.8 26.0995 163.8C26.6995 163.8 27.1995 163.8 27.7995 163.8C40.9995 163.8 36.0995 163.8 49.3995 163.8Z" fill="#B3B8BC"/>
<path d="M45.9987 171.2C52.2987 171.2 40.4987 171.2 46.7987 171.2C48.1987 171.2 49.3987 171.4 49.3987 172.6C49.3987 173.7 48.0987 174 46.7987 174C34.0987 174 39.6987 174 26.9987 174C24.8987 174 23.8987 173 24.6987 171.8C25.1987 171.1 25.9987 171.2 26.7987 171.2C33.1987 171.2 39.5987 171.2 45.9987 171.2Z" fill="#B3B8BC"/>
<path d="M10.7992 65C13.1992 63.1 15.5992 61.1 17.5992 58.7C18.4992 57.7 19.7992 57.3 21.0992 58.2C21.5992 58.5 21.9992 58.6 22.4992 58.5C26.3992 57.9 30.1992 61.2 30.6992 65.8C30.9992 68 30.7992 70.3 29.9992 72.4C29.2992 74.2 29.4992 75.8 30.6992 77.3C31.4992 78.3 31.6992 79.5 30.8992 80.6C29.8992 82.2 30.3992 84 30.2992 85.7C29.0992 86.5 28.0992 85.5 26.8992 85.3C25.2992 84.7 23.5992 84.3 21.8992 83.9C21.3992 83.8 20.9992 83.6 20.6992 83.1C20.8992 80.8 19.6992 77.6 22.6992 76.8C23.4992 76.6 23.2992 75.9 23.4992 75.1C23.8992 73.6 25.8992 72.8 26.3992 71.3C26.5992 70.9 26.6992 70.5 26.6992 70C26.7992 69.4 26.4992 68.9 26.1992 68.4C24.9992 66.5 23.3992 64.9 22.3992 63C21.8992 62 21.6992 63 21.5992 63.4C20.9992 65.2 20.4992 67 19.5992 68.6C18.4992 70.6 18.0992 70.7 16.0992 69.5C15.6992 69.3 15.1992 68.8 14.7992 69.2C14.3992 69.6 14.6992 70.1 14.9992 70.5C15.2992 71 15.5992 71.4 15.5992 72C15.2992 73.1 16.1992 73.5 16.6992 74.2C17.4992 77.8 15.7992 80.4 12.6992 80.5C10.9992 80.5 10.6992 80.2 10.6992 78.5C10.7992 74.1 10.7992 69.5 10.7992 65Z" fill="#F4A200"/>
<path d="M140.6 99.0999C139.3 98.0999 138.2 98.5999 137.1 99.3999C136.8 99.6999 136.5 100.2 136 99.9999C135.5 99.6999 135.8 99.0999 135.8 98.6999C136.1 96.8999 136.5 95.0999 137 93.2999C137.3 92.2999 137 92.0999 136.1 92.0999C134.4 92.0999 132.8 91.7999 131.4 90.7999C130.2 88.4999 130.4 86.6999 132.1 85.5999C134 84.3999 136.2 84.7999 137.6 86.7999C138.1 87.4999 138.8 87.7999 139.5 88.1999C141.8 89.3999 142.3 90.2999 141.5 92.6999C141.4 93.1999 141.4 93.4999 141.5 93.8999C142.1 95.8999 141.1 97.4999 140.6 99.0999Z" fill="#004A76"/>
<path d="M123.199 111.8C124.099 120.7 134.399 123.1 140.899 119.7C141.399 119.4 141.999 119.1 142.499 118.9C142.499 120 142.499 121.2 142.499 122.3C138.599 124.1 134.599 125.2 130.299 124.1C124.699 122.7 119.499 118.5 119.099 113.1C117.499 111.9 118.999 111.7 123.199 111.8Z" fill="#FEFEFD"/>
<path d="M10.9987 85.8C12.3987 87.7 14.0987 89.3 16.5987 89.8C20.9987 90.7 24.2987 89.1 26.9987 84.9C28.0987 85.2 29.1987 85.4 30.3987 85.7C26.5987 92.9 18.2987 94.9 11.3987 90.1C11.0987 90 10.8987 89.8 10.9987 89.5C10.9987 88.3 10.9987 87 10.9987 85.8Z" fill="#FDFEFD"/>
<path d="M68.6986 63C67.0986 63 65.4986 63 63.9986 63C63.6986 61 63.3986 59 62.9986 57C62.8986 56.6 62.6986 56.1 63.2986 56C63.7986 55.9 64.0986 56.2 64.1986 56.7C64.4986 57.6 65.2987 59.2 65.2987 59.2C65.8987 57.4 66.4986 55.6 66.9986 53.7C67.3986 52.2 68.5986 52.5 69.4986 52.6C70.6986 52.8 69.8987 53.7 69.7987 54.2C69.4987 57.2 69.0986 60.1 68.6986 63Z" fill="#F8B6A8"/>
<path d="M102.2 83.9C100.6 83.8 99.1 83.7 97.5 83.9C98.8 81 100.1 78.2 101.3 75.2C102 73.4 103.3 74.1 104.4 74.3C105.9 74.6 105 75.6 104.8 76.4C104.5 77.5 104.2 78.7 103.8 79.8C103.3 81.1 103.5 81.9 105 82.2C105.5 82.3 106.5 82.4 106.3 83.2C106.1 84 105.2 83.8 104.6 83.6C103.7 83.5 102.9 83.3 102.2 83.9Z" fill="#F8B5A7"/>
<path d="M142.499 121.5C141.899 122.1 140.799 122.5 139.999 122.8C137.799 123.7 135.499 124.1 133.099 124C127.999 123.7 123.799 120.4 121.099 114.9C120.599 113.9 120.199 111.7 120.099 111.7C116.899 111.7 112.299 112 109.099 112.1C105.299 112.2 101.499 112.3 97.6992 112.4C96.9992 112.4 96.2992 112.4 95.5992 112.4C95.5992 112 95.4992 111.5 95.5992 111.1C97.7992 102 99.9992 92.9 102.199 83.8C100.599 82.8 99.0992 82.9 97.4992 83.8C96.3992 86 95.2992 88.2 94.2992 90.5C90.3992 98.7 86.4992 107 84.0992 115.8C82.8992 120.2 83.9992 122.7 88.2992 124.3C95.0992 126.9 102.199 127.1 109.399 126.6C110.299 126.6 111.099 126.6 111.999 126.6C110.699 137.2 109.399 147.7 108.099 158.3C106.899 167.6 105.799 177 104.599 186.3C104.399 187.8 104.799 188.3 106.399 188.3C116.699 188.2 126.999 188.3 137.299 188.3C138.699 188.3 140.099 188.1 141.399 187.3C142.199 186.7 142.699 186.1 142.699 185C142.499 164.2 142.499 142.4 142.499 121.5Z" fill="#8DB300"/>
<path d="M64.0004 63C60.9004 72.2 57.8004 81.4 54.6004 90.5C54.2004 91.1 54.1004 91.7 53.9004 92.4C46.0004 90.5 38.2004 88.0999 30.4004 85.6999C30.3004 85.6999 30.2004 85.8 30.1004 85.8C28.7004 87.4 27.5004 89.3 25.6004 90.4C21.5004 92.8 17.3004 92.8999 13.1004 90.6999C12.4004 90.3999 10.9004 89.4 10.9004 89.4L10.9012 151C17.4012 136.2 24.3004 117.2 30.8004 102.4C31.1004 101.7 31.2004 100.7 32.3004 100.9C32.7004 101 33.1004 101 33.4004 101.1C39.6004 102.6 45.9004 103.8 52.3004 103.8C58.3004 103.8 58.2004 103.4 60.1004 98.5999C60.3004 98.0999 60.5004 97.5 60.6004 97C64.0004 85.7999 66.4004 74.4 68.7004 63C67.1004 62.1 65.5004 62.1 64.0004 63Z" fill="#004A76"/>
<path d="M139.899 111.4C139.299 111.4 137.999 111.6 138.099 110.7C138.499 107.4 136.599 103.7 139.699 100.9C140.199 100.4 140.299 99.6999 140.499 99.0999C139.699 97.7999 138.699 97.9999 137.599 98.5999C137.299 98.7999 136.899 99.2999 136.499 98.8999C136.199 98.5999 136.399 98.0999 136.499 97.6999C136.799 96.2999 136.999 94.8999 137.399 93.4999C137.699 92.4999 137.499 91.5999 136.299 91.5999C134.599 91.5999 132.999 90.9999 131.399 90.7999C130.699 92.0999 129.499 93.1999 129.499 94.7999C129.599 95.1999 129.699 95.5999 129.499 95.9999C129.099 97.3999 128.699 98.7999 128.299 100.3C127.199 104.6 127.399 104.9 131.299 106.8C131.299 107 131.299 107.3 131.299 107.5C130.699 109 131.299 111.1 128.999 111.6C126.999 111.6 125.099 111.6 123.099 111.6C122.399 113.3 123.299 114.7 124.099 116.1C126.599 120.3 132.299 122.4 137.599 121.2C139.399 120.8 141.199 120.3 142.399 118.7C142.399 117.2 144.199 115.5 144.199 114C144.299 111.3 142.899 111.5 139.899 111.4Z" fill="#F8B5A7"/>
<path d="M27.3996 70.0999C27.2996 69.5999 27.6996 69 27.1996 68.5C25.3996 66.7 23.8996 64.6 22.7996 62.4C22.5996 62.1 22.2996 61.9 21.9996 61.7C21.7996 62 21.5996 62.3 21.5996 62.7C21.0996 65.1 20.2996 67.4 18.9996 69.4C18.4996 70.2 17.8996 70.7999 17.0996 69.5999C16.9996 69.4999 16.8996 69.4 16.7996 69.3C16.0996 68.8 15.2996 68 14.4996 68.9C13.7996 69.6 14.2996 70.3999 14.7996 71.0999C15.0996 71.4999 15.5996 71.7 15.4996 72.3C16.1996 72.7 16.2996 73.3999 16.1996 74.0999C17.2996 77.4999 15.4996 80.8999 12.3996 80.1999C9.59962 79.5999 10.1996 78.8 10.8996 85.8C11.1996 86.7 11.5996 87.4999 12.2996 88.0999C16.2996 91.8999 23.6996 90.8999 26.5996 86.1999C26.7996 85.7999 27.1996 85.4 26.8996 84.8C25.3996 84.1 21.3996 83.1 20.9996 83C21.1996 82.2 21.2996 81.3999 21.5996 80.6999C22.1996 79.2999 22.2996 78.4 23.2996 78C24.6996 77.5 27.1996 71.3999 27.3996 70.0999Z" fill="#F8B6A8"/>
<path d="M15.8996 73.8C16.3414 73.8 16.6996 73.4418 16.6996 73C16.6996 72.5581 16.3414 72.2 15.8996 72.2C15.4578 72.2 15.0996 72.5581 15.0996 73C15.0996 73.4418 15.4578 73.8 15.8996 73.8Z" fill="#FDFEFD"/>
<path d="M26.3992 70.5C26.0992 70.2 25.7992 70.2 25.4992 70.4C25.1992 70.6 25.1992 70.9 25.3992 71.3C25.5992 71.6 25.8992 71.6 26.1992 71.4C26.4992 71.1 26.5992 70.8 26.3992 70.5Z" fill="#484441"/>
<path d="M27.2996 69.9C27.2996 69.9 27.0996 69.2 26.4996 69C25.9996 68.9 25.5996 69.1 25.5996 69.1" stroke="#484441" stroke-width="0.4426" stroke-miterlimit="10" stroke-linecap="round" stroke-linejoin="round"/>
<path d="M22.3999 69C22.0999 68.7 21.7999 68.7 21.4999 69C21.2999 69.2 21.1999 69.6 21.4999 69.9C21.7999 70.1 21.9999 70.1 22.2999 69.9C22.5999 69.6 22.6999 69.3 22.3999 69Z" fill="#484441"/>
<path d="M23.3 68.4C23.3 68.4 23 67.8 22.4 67.6C21.9 67.5 21.5 67.8 21.5 67.8" stroke="#484441" stroke-width="0.4426" stroke-miterlimit="10" stroke-linecap="round" stroke-linejoin="round"/>
<path d="M23 76.9C23 76.9 22.4 77.2 21.9 77C21.3 76.8 21 76.2 21 76.2" stroke="#D95F73" stroke-width="0.4426" stroke-miterlimit="10" stroke-linecap="round" stroke-linejoin="round"/>
<path d="M24.3996 71.4C24.3996 71.4 23.9996 74.1 23.8996 74.5C23.7996 74.9 23.4996 74.8 23.0996 74.7" stroke="#484441" stroke-width="0.4426" stroke-miterlimit="10" stroke-linecap="round" stroke-linejoin="round"/>
<path d="M130.3 94.3999C130.7 94.2999 131 94.4999 131.1 94.7999C131.2 95.1999 131.1 95.4999 130.7 95.5999C130.3 95.6999 130.1 95.4999 130 95.1999C129.8 94.8999 129.9 94.5999 130.3 94.3999Z" fill="#484441"/>
<path d="M129.801 93.4C129.801 93.4 130.401 92.9 131.001 93.1C131.501 93.2 131.801 93.7 131.801 93.7" stroke="#484441" stroke-width="0.4642" stroke-miterlimit="10" stroke-linecap="round" stroke-linejoin="round"/>
<path d="M134.5 95.5C134.9 95.4 135.2 95.7 135.3 96C135.4 96.4 135.2 96.7 134.8 96.7C134.4 96.8 134.2 96.6 134.1 96.2C134 96 134.2 95.7 134.5 95.5Z" fill="#484441"/>
<path d="M134.201 94.4999C134.201 94.4999 134.801 94.0999 135.401 94.3999C135.901 94.5999 136.101 95.0999 136.101 95.0999" stroke="#484441" stroke-width="0.4642" stroke-miterlimit="10" stroke-linecap="round" stroke-linejoin="round"/>
<path d="M129.4 102C129.4 102 129.7 102.6 130.3 102.8C130.9 103 131.5 102.6 131.5 102.6" stroke="#D95F73" stroke-width="0.4642" stroke-miterlimit="10" stroke-linecap="round" stroke-linejoin="round"/>
<path d="M131.4 96.3999C131.4 96.3999 130.1 98.8999 129.9 99.3999C129.7 99.8999 130.1 99.8999 130.4 99.9999" stroke="#484441" stroke-width="0.4642" stroke-miterlimit="10" stroke-linecap="round" stroke-linejoin="round"/>
</svg>
