<svg width="154" height="195" viewBox="0 0 154 195" fill="none" xmlns="http://www.w3.org/2000/svg">
<path d="M71.1 171.8C64.6 173.9 58.2 174.4 51.7 171.9C46.3 169.8 42.1 166.1 38.7 161.5C33 153.8 29.7 145 27.3 135.8C26.7 133.6 26.3 131.4 25.8 129.1C25.6 128.4 26.1 128.2 26.5 127.9C27.4 127.4 28.2 127 29.1 126.6C29.9 126.2 30.2 125.7 29.9 124.8C29.1 121.8 28.3 118.7 27.5 115.7C26.7 112.8 25.8 109.9 25.5 106.9C25.5 104.9 25.5 103 25.5 101C26.2 99.4 26.3 97.6 26.9 96C30.6 87 37.2 81.6 46.9 80.7C56.6 79.8 64.1 83.8 69.3 92C70.1 93.2 70.4 94.7 70.9 96.1C72.8 102.1 74.7 108.1 76.6 114.1C76.8 114.8 76.3 114.9 75.9 115.1C74 115.5 72.2 116.1 70.3 116.4C69.9 116.5 69.5 116.5 69.2 116.2C68.9 115.9 68.8 115.5 68.7 115.1C66.9 109.5 65.2 103.9 63.4 98.3C62.4 95.1 60.4 92.8 57.7 91C52 87.3 44.6 87.6 39.6 91.7C34.4 96 32.4 101.5 34 108.2C35.1 112.7 36.4 117.2 37.6 121.7C37.7 122.2 37.9 122.8 37.9 123.3C37.7 124.2 36.9 124.2 36.3 124.4C35 124.8 35 124.8 35.2 126.1C36.8 134.6 39.1 143 42.8 150.9C44.6 154.8 46.7 158.5 49.4 161.8C52.8 165.8 56.5 169.3 61.7 170.8C63.4 171.3 65.1 171.6 66.8 171.6C68 171.6 69.2 171.5 70.5 171.6C70.8 171.4 71.1 171.4 71.1 171.8Z" fill="#B3B8BC"/>
<path d="M82.4992 22.6C81.6992 22.5 80.9992 22.8 80.1992 22.9C79.0992 22.2 78.4992 21.3 78.1992 20.1C79.8992 19.5 81.6992 19 83.3992 18.4C83.5992 18.4 83.6992 18.4 83.8992 18.4C84.1992 19.1 84.5992 19.8 84.8992 20.5C84.7992 20.7 84.9992 20.7 85.2992 20.7C85.8992 20.6 86.4992 20.6 86.6992 21.3C86.7992 21.9 86.4992 22.2 85.9992 22.3C85.3992 22.5 84.6992 22.6 84.0992 22.7C83.4992 22.6 82.9992 22.8 82.4992 22.6Z" fill="#F8B5A7"/>
<path d="M90.4991 125.9C90.2991 128 90.0991 130.1 89.7991 132.2C89.1991 136.1 89.8991 139.9 90.5991 143.6C91.4991 148.1 92.2991 152.7 93.0991 157.2C92.0991 158.5 91.2991 160 90.1991 161.2C86.6991 165.3 82.0991 167.9 77.0991 169.8C75.2991 170.5 73.4991 170.9 71.6991 171.5C71.2991 171.4 70.8991 171.4 70.4991 171.5C66.6991 171.7 62.8991 171.5 59.2991 169.9C57.0991 168.9 54.9991 167.6 53.1991 165.9C47.8991 161.2 44.3991 155.2 41.5991 148.8C38.3991 141.5 36.3991 133.9 34.8991 126.2C34.8991 126 34.8991 125.9 34.7991 125.7C34.2991 124.4 34.9991 124 36.0991 123.8C36.6991 123.7 37.3991 123.8 37.6991 123C43.8991 121.7 50.0991 120.1 56.2991 118.7C60.6991 117.7 64.9991 116.6 69.3991 115.6C70.1991 116.1 70.9991 115.5 71.7991 115.3C73.1991 115.1 74.5991 114.7 75.9991 114.3C76.2991 114.2 76.6991 114.1 76.6991 113.6C76.9991 114.1 77.3991 113.9 77.7991 113.8C79.0991 113.5 80.4991 113.2 81.7991 112.8C82.5991 112.6 82.8991 112.8 83.2991 113.4C86.0991 117.6 88.3991 121.7 90.4991 125.9Z" fill="#E3E7EB"/>
<path d="M86.8008 56.6C87.7008 55.8 88.8008 56.1 89.8008 55.8C92.3008 55.2 94.8008 54.8 97.3008 54.3C97.4008 54.3 97.6008 54.3001 98.0008 54.4001C96.6008 55.4001 95.5008 56.3 94.3008 57C93.1008 57.7 92.6008 58.6 92.7008 60C92.9008 64.6 93.0008 69.1 93.0008 73.7C91.1008 74.4 89.2008 75.2001 87.2008 75.5C83.8008 76 81.9008 74.3001 82.2008 70.8001C82.5008 67.8001 83.4008 65 84.5008 62.3C85.1008 60.3 86.0008 58.5 86.8008 56.6Z" fill="#02394F"/>
<path d="M111.501 41C109.101 40.6 106.601 40.7 104.201 40.8C104.101 40.1 103.901 39.4 103.801 38.2C103.801 38 103.601 37.8 103.601 37.8C102.901 37.5 102.101 37.4 101.401 37.1C101.101 36.6 101.401 36.4 101.701 36.2C102.001 36 102.501 35.9 102.801 35.5C102.201 35.4 101.601 36.1 101.001 35.6C100.901 34.6 101.801 33.5 100.701 32.6C100.501 32.5 100.701 32.2 100.801 31.9C101.601 30 102.401 28.1 103.201 26.3C104.101 25.9 105.101 26.3 106.001 26.4C106.701 26.5 106.401 27.1 106.301 27.6C105.901 29.1 105.601 30.7 105.701 32.2C106.101 32.4 106.301 32 106.501 31.9C107.501 31.3 108.501 31.8 108.501 32.9C108.401 33.7 108.801 34.2 109.201 34.8C109.901 36.9 110.701 38.9 111.501 41Z" fill="#F8B5A7"/>
<path d="M109.199 34.8C108.399 34.5 107.699 34.1 108.199 33C108.399 32.6 108.199 32.2 107.699 31.9C107.299 31.7 106.899 31.8 106.599 32.1C106.399 32.3 106.199 32.6 105.899 32.8C105.699 32.9 105.499 33 105.299 32.9C105.099 32.8 105.099 32.6 105.099 32.4C105.299 30.5 105.299 28.5 106.199 26.7C105.099 26.6 104.199 26.4 103.199 26.3C102.499 25.9 101.799 25.5 101.699 24.5C101.699 23.6 101.899 22.9 102.699 22.5C103.499 22.1 104.299 22.1 104.899 22.7C105.399 23.1 105.799 23.2 106.399 23.2C106.799 23.2 107.099 23.3 107.399 23.3C110.199 23.9 110.599 24.4 110.399 27.3C110.299 29.9 110.099 32.4 109.199 34.8Z" fill="#F4A200"/>
<path d="M96.3 166.4C97.5 166.1 98.7 166.2 99.9 166.4C100.3 169.6 100.7 172.7 101.1 176C98.9 175.3 96.8 174.6 94.5 173.9C95.2 173.5 95.7 173.2 96.2 173C97.1 172.7 97.2 172.1 97 171.4C96.8 169.6 96.6 168 96.3 166.4Z" fill="#3A3B39"/>
<path d="M116.899 166.5C117.899 165.8 118.999 166.3 120.099 166.2C120.399 169 120.699 171.9 120.999 174.9C118.899 174.3 116.899 173.8 114.699 173.1C115.599 172.6 116.199 172.2 116.899 172C117.799 171.7 117.899 171.1 117.699 170.3C117.299 169.1 117.099 167.8 116.899 166.5Z" fill="#3A3B39"/>
<path d="M101.099 35.6C101.599 35.5 102.099 35.3 102.699 35.2C102.899 35.2 103.299 34.7 103.499 35.2C103.599 35.6 103.299 35.7 102.999 35.9C102.499 36.3 101.699 36.3 101.399 37C102.099 38.3 102.099 38.4 100.999 39.4C100.499 39.8 100.199 40.4 99.6992 40.7C98.5992 40.5 97.5992 40.4 96.6992 39.6C97.3992 38.7 98.0992 37.8 98.6992 36.9C99.1992 35.9 100.299 36 101.099 35.6Z" fill="#F8B5A7"/>
<path d="M96.7 39.5C97.7 39.8 98.7 40.1 99.7 40.4C99.9 40.3 100.2 40.3 100.3 40.6C100.4 40.9 100.2 41.1 100 41.2C98.4 41.6 96.7 41.9 95 41.9C95.5 41.1 96.1 40.3 96.7 39.5Z" fill="#02394F"/>
<path d="M126.799 67.4C126.199 62.1 125.199 56.9 123.099 52C120.799 46.7 117.599 42.3 111.499 41C110.999 40.6 110.499 40.5 109.899 40.5C107.999 40.5 106.199 40.4 104.299 40.6C102.799 40.8 101.399 40.9 99.8993 41.1C98.1993 41.5 96.4993 41.4 94.7993 42.1C94.5993 42.2 94.3993 42.3 94.0993 42.3C88.3993 43.3 82.6993 44.2 76.9993 45.1C75.7993 45.3 74.4993 45.8 73.1993 45.6C73.2993 45 73.3993 44.3 73.3993 43.7C73.6993 42.2 73.9993 40.8 74.2993 39.3C75.5993 33.6 77.5993 28.2 79.8993 22.9C79.1993 22 78.5993 21 77.8993 20.1C77.7993 20.2 77.5993 20.3 77.4993 20.4C72.8993 25.9 68.9993 31.8 66.3993 38.5C64.9993 42 63.9993 45.6 64.1993 49.4C64.2993 51.6 65.1993 53.2 66.9993 54.5C68.1993 55.4 69.4993 55.9 70.7993 56.2C75.4993 57.4 80.1993 57 84.8993 56.6C85.4993 56.5 85.9993 56.2 86.5993 56.7C86.8993 56.8 87.1993 56.7 87.4993 56.6C90.4993 56.1 91.9993 58.6 92.0993 59.7C92.1993 64 92.4993 68.3 92.3993 72.7C92.3993 73.1 92.3993 73.5 92.6993 73.8C92.7993 78.2 92.8993 82.5 92.9993 86.9C93.0993 91.9 93.1993 96.9 93.2993 101.9C93.3993 102.1 93.5993 102.1 93.8993 102.1C96.6993 101.8 99.4993 101.6 102.299 101.3C108.799 100.6 115.299 100.1 121.799 99.4C123.199 99.3 124.699 99.5 125.899 98.7C127.099 98.8 127.399 98.2 127.399 97.1C127.999 87.1 127.999 77.2 126.799 67.4Z" fill="#004A76"/>
<path d="M70.5996 171.6C70.9996 171.3 71.3996 171.2 71.7996 171.6C71.5996 171.7 71.2996 171.7 71.0996 171.8C70.8996 171.7 70.7996 171.7 70.5996 171.6Z" fill="#97C5B6"/>
<path d="M124.4 120.7C125.5 114.5 126.4 108.2 126.1 101.8C126.2 100.7 126.1 99.6 125.9 98.6C121.6 99 117.2 99.4 112.9 99.8C108.2 100.2 103.5 100.7 98.8995 101.2C97.1995 101.4 95.3995 101.4 93.6995 101.8C93.5995 101.8 93.4995 101.8 93.3995 101.8C92.7995 106.7 92.1995 111.5 91.5995 116.4C91.1995 119.6 90.7995 122.8 90.3995 126C89.6995 127.1 89.8995 128.4 89.6995 129.5C89.2995 132.6 88.7995 135.7 89.2995 138.9C90.2995 144.7 93.9995 162 94.3995 164.4C94.5995 165.5 94.6995 166.6 96.1995 166.4C97.3995 166.6 98.5995 166.7 99.7995 166.4C100.3 166.3 100.4 166 100.4 165.5C100.2 156.2 100.1 146.9 99.9995 137.6C99.9995 136.8 100.1 136.1 100.3 135.4C103.1 127.3 106 119.2 108.8 111.1C108.9 110.9 108.9 110.5 109.4 110.3C109.4 110.5 109.4 110.7 109.4 110.9C109.4 112 109.4 113.1 109.4 114.2C109.4 120.7 109.4 127.1 109.4 133.6C109.4 135.4 109.5 137.1 109.9 138.9C111.6 147.4 113.3 155.9 114.9 164.4C115.1 165.4 115.1 166.5 116.6 166.5C116.7 166.5 118.2 166.5 119.9 166.4C121.1 166.2 121.5 166.1 121.4 164.8C121.2 162.8 121.2 160.8 121.1 158.8C120.8 153.4 120.5 148 120.3 142.6C120.2 141.1 119.9 139.5 120.3 138C122 132.2 123.4 126.5 124.4 120.7Z" fill="#EC1C24"/>
<path d="M89 145.1C89.1 153.3 84.3 159 77.2 162.1C74 163.5 70.7 164.4 67.2 164.3C63.2 164.2 59.7 162.7 56.7 160.2C51.8 156.1 48.9 150.6 46.6 144.8C44.7 139.9 43.3 134.8 42.4 129.6C42.3 128.9 42.4 128.7 43.1 128.6C50.7 126.9 58.2 125.2 65.8 123.4C70 122.4 74.3 121.5 78.5 120.5C79.1 120.4 79.3 120.4 79.7 120.9C84.1 127 87.3 133.5 88.8 140.9C88.9 141.6 89 142.3 89.1 143C89.1 143.6 89 144.4 89 145.1Z" fill="#FEFEFD"/>
<path d="M87.8994 144.6C87.7994 151.8 84.7994 156.6 79.0994 159.8C75.3994 161.9 71.4994 163.2 67.1994 163.1C63.3994 163 60.1994 161.6 57.2994 159.2C52.5994 155.2 49.7994 149.9 47.5994 144.3C45.8994 139.9 44.5994 135.4 43.6994 130.7C43.4994 129.6 43.8994 129.4 44.6994 129.2C51.6994 127.6 58.7994 126 65.7994 124.4C69.7994 123.5 73.7994 122.6 77.6994 121.6C78.3994 121.4 78.7994 121.6 79.1994 122.2C82.9994 128 86.1994 134 87.3994 140.8C87.7994 142.4 87.9994 143.8 87.8994 144.6Z" fill="#E3E7EB"/>
<path d="M65.2006 154.5C65.2006 151.4 65.2006 148.5 65.2006 145.5C65.2006 144.6 64.9006 144.1 64.2006 143.6C61.3006 141.6 59.7006 138.8 59.6006 135.3C59.5006 133 60.5006 131.4 62.6006 130.6C64.6006 129.8 66.5006 130.2 68.0006 131.7C70.9006 134.6 71.8006 138 70.6006 141.9C70.3006 142.9 70.4006 143.6 71.0006 144.4C72.3006 146.4 73.6006 148.5 74.8006 150.6C75.0006 151 75.3006 151.4 74.7006 151.6C71.5006 152.6 68.4006 153.5 65.2006 154.5Z" fill="#B3B8BC"/>
<path d="M86.5996 30.1C83.8996 30.1 81.5996 27.9 81.5996 25.1C81.5996 22.3 83.7996 20.1 86.5996 20.1C89.3996 20.1 91.5996 22.3 91.5996 25.1C91.5996 27.9 89.2996 30.1 86.5996 30.1ZM86.5996 21.2C84.3996 21.2 82.5996 23 82.5996 25.2C82.5996 27.4 84.3996 29.2 86.5996 29.2C88.7996 29.2 90.5996 27.4 90.5996 25.2C90.5996 23 88.7996 21.2 86.5996 21.2Z" fill="#B3B8BC"/>
<path d="M92.7008 27.5001C93.1008 26.7001 92.9008 25.6001 92.1008 25.0001C91.2008 24.2001 89.9008 24.4001 89.1008 25.3001C88.3008 26.2001 88.5008 27.5001 89.4008 28.3001C90.1008 28.9001 91.2008 29.0001 92.0008 28.4001L93.8008 30.0001L93.0008 30.9001L94.2008 31.9001L94.9008 31.0001L95.2008 31.2L95.9008 30.3001L92.7008 27.5001ZM90.1008 27.4001C89.7008 27.0001 89.6008 26.4001 90.0008 26.0001C90.4008 25.6001 91.0008 25.5001 91.4008 25.9001C91.8008 26.3001 91.9008 26.9001 91.5008 27.3001C91.2008 27.7001 90.6008 27.7001 90.1008 27.4001Z" fill="#8DB300"/>
<path d="M83.4004 30.4C84.3004 30.3 85.1004 29.5999 85.3004 28.6999C85.5004 27.4999 84.8003 26.3999 83.6003 26.1999C82.4003 25.9999 81.3003 26.7 81.1003 27.9C80.9003 28.9 81.4004 29.7999 82.2004 30.1999L81.8004 32.5999L80.7004 32.4L80.4004 33.9L81.5004 34.0999L81.4004 34.5L82.5004 34.6999L83.4004 30.4ZM82.2004 28.0999C82.3004 27.4999 82.8004 27.2 83.4004 27.3C84.0004 27.4 84.3004 27.9 84.2004 28.5C84.1004 29.1 83.6004 29.4 83.0004 29.3C82.5004 29.2 82.1004 28.6999 82.2004 28.0999Z" fill="#F4A200"/>
<path d="M88.3002 31.5C89.1002 31.1 89.7002 30.1999 89.5002 29.1999C89.3002 27.9999 88.2001 27.2 87.1001 27.4C85.9001 27.6 85.1002 28.7 85.3002 29.8C85.4002 30.8 86.2001 31.5 87.1001 31.6L87.4002 34L86.2002 34.1999L86.4002 35.6999L87.6001 35.5L87.7002 35.9L88.9002 35.6999L88.3002 31.5ZM86.4002 29.6999C86.3002 29.0999 86.7002 28.6 87.3002 28.5C87.9002 28.4 88.4002 28.8 88.5002 29.4C88.6002 30 88.2001 30.5 87.6001 30.6C87.0001 30.6 86.5002 30.1999 86.4002 29.6999Z" fill="#004A76"/>
<path d="M82.8008 26.2H81.8008C81.9008 26.8 82.1008 27.2999 82.4008 27.7999H83.6008C83.2008 27.2999 82.9008 26.8 82.8008 26.2Z" fill="#B3B8BC"/>
<path d="M86.5008 29.1C86.0008 29.1 85.7008 29 85.3008 28.9V29.9C85.7008 30 86.2008 30.1 86.7008 30.1C86.8008 30.1 86.8008 30 86.9008 30V29.1C86.7008 29.2 86.6008 29.1 86.5008 29.1Z" fill="#B3B8BC"/>
<path d="M90.9012 27.6L90.1012 27C89.9012 27.5 89.6012 27.9 89.2012 28.2L89.9012 28.9C90.4012 28.5 90.7012 28 90.9012 27.6Z" fill="#B3B8BC"/>
<path d="M103.799 29.1C103.599 28.8 103.399 28.8 103.099 28.9C102.899 29 102.699 29.3 102.899 29.6C102.999 29.8 103.199 29.9 103.499 29.8C103.799 29.6 103.899 29.4 103.799 29.1Z" fill="#484441"/>
<path d="M104.6 28.8C104.6 28.8 104.6 28.3 104.1 28C103.8 27.8 103.4 27.9 103.4 27.9" stroke="#484441" stroke-width="0.35" stroke-miterlimit="10" stroke-linecap="round" stroke-linejoin="round"/>
</svg>
