<?xml version="1.0" encoding="UTF-8"?> <svg xmlns="http://www.w3.org/2000/svg" xmlns:xlink="http://www.w3.org/1999/xlink" viewBox="0 0 50 50"> <defs> <style>.cls-1{fill:none;}.cls-2{clip-path:url(#clip-path);}.cls-3{fill:#fff;}.cls-4{fill:#8db300;fill-rule:evenodd;}</style> <clipPath id="clip-path"> <circle class="cls-1" cx="25" cy="25" r="18.35"></circle> </clipPath> </defs> <title>pict 4</title> <g id="Layer_1" data-name="Layer 1"> <g class="cls-2"> <circle class="cls-3" cx="25" cy="25" r="18.35"></circle> <path class="cls-4" d="M33.91,7.7c-.35.35-3.93,3.41-3.93,3.41l-.26,3.49-5.86,5.68s2,7,2.28,7l5.06-.09.53,9.62L34,38.46l5.68-8,.26-3.32L42.39,24l2.53-4.28Z"></path> <path class="cls-4" d="M29.54,6.56c-.17.35-4.1,3.5-4.1,3.5L19.5,11.81s.17-3.06-.09-3.06a13.26,13.26,0,0,0-1.75.61l-.7,6.2-2.62-.08L9,21.68,9.62,24l9.79,6.46.26,3.41s-2.18,2.45-2.18,3-.79,7-.79,7L4.12,40.38-6,24.13l2.53-13.9L13.38-2.09,30.59-5.84,34-1.91Z"></path> </g> </g> </svg> 