<svg width="227" height="153" viewBox="0 0 227 153" fill="none" xmlns="http://www.w3.org/2000/svg">
<g clip-path="url(#clip0)">
<path fill-rule="evenodd" clip-rule="evenodd" d="M77.4788 116.319C77.4788 115.454 77.4788 114.416 77.4788 113.551C77.1314 110.611 76.784 107.843 76.4365 104.903C76.4365 104.73 75.9154 104.384 75.7416 104.211C75.2205 103.692 74.0045 103.346 72.0935 103.346C71.9198 103.346 71.7461 103.346 71.5724 103.173C70.8775 103.173 70.1826 103 69.4878 103C65.3185 103 60.9755 103 56.6325 103.173C52.1158 103.519 47.4254 103.692 42.9087 104.038C38.5657 104.384 34.049 104.557 29.706 104.903C25.363 105.249 20.8463 105.595 16.3296 105.768C13.3764 105.941 10.5969 106.114 7.81737 106.286C5.55902 106.286 3.64811 106.632 2.08463 107.324C1.38976 107.497 0.868597 107.67 0.694878 108.016C0.173719 108.535 0 109.227 0 109.746C0 112.859 0.173719 115.973 0.173719 119.086C0.173719 119.951 0.347439 120.989 0.521158 121.854C0.521158 122.719 0.521158 123.757 0.521158 124.622C0.868597 127.389 1.21604 130.33 1.56347 133.097C1.56347 133.27 2.08463 133.616 2.25835 133.789C2.77951 134.308 3.99555 134.654 5.90646 134.654C6.08018 134.654 6.2539 134.654 6.42762 134.827C7.12249 134.827 7.81737 135 8.51225 135C12.6815 135 17.0245 135 21.3675 134.827C25.8842 134.481 30.5746 134.308 35.0913 133.962C39.4343 133.616 43.951 133.443 48.294 133.097C52.8107 132.751 57.3274 132.405 61.8441 132.232C64.6236 132.059 67.5768 131.886 70.3563 131.886C72.6147 131.714 74.3519 131.368 76.0891 130.849C76.6102 130.676 77.3051 130.33 77.4788 130.157C77.8263 129.638 78.1737 128.946 78.1737 128.427C78.1737 125.314 78.1737 122.373 78 119.259C77.8263 118.222 77.6526 117.357 77.4788 116.319Z" fill="#EC1C24"/>
<path d="M31.095 111.822C28.3155 111.995 26.2309 111.995 24.8411 111.995C24.4937 111.995 24.32 112.168 24.1463 112.341C23.9725 112.514 23.7988 112.86 23.7988 113.033C23.7988 113.379 23.9725 113.552 24.1463 113.724C24.32 113.897 24.6674 114.07 24.8411 114.07C25.536 114.07 26.2309 114.07 26.9258 114.07C27.0995 117.703 27.2732 120.816 27.2732 123.065C27.2732 123.411 27.4469 123.584 27.6207 123.757C27.7944 123.93 28.1418 124.103 28.3155 124.103C28.663 124.103 28.8367 123.93 29.0104 123.757C29.1841 123.584 29.3578 123.238 29.3578 123.065C29.3578 120.816 29.3579 117.703 29.0104 114.07L31.2688 113.897C31.6162 113.897 31.7899 113.724 31.9636 113.552C32.1374 113.379 32.3111 113.033 32.3111 112.687C32.3111 112.514 32.1374 112.168 31.9636 111.995C31.6162 111.995 31.2688 111.822 31.095 111.822Z" fill="white"/>
<path d="M39.6074 121.508C39.0862 121.508 37.8702 121.508 35.6119 121.681C35.6119 120.816 35.6119 119.779 35.6119 118.741C37.0016 118.741 37.8702 118.568 38.5651 118.568C38.9125 118.568 39.0863 118.395 39.26 118.222C39.4337 118.049 39.6074 117.703 39.6074 117.53C39.6074 117.184 39.4337 117.011 39.26 116.838C39.0863 116.665 38.7388 116.665 38.5651 116.665C37.8702 116.665 37.0016 116.838 35.6119 116.838C35.6119 116.146 35.6119 115.281 35.4381 114.243C37.0016 114.07 38.3914 113.897 39.26 113.897C39.6074 113.897 39.7811 113.724 39.9548 113.552C40.1286 113.379 40.3023 113.033 40.3023 112.86C40.3023 112.514 40.1286 112.341 39.9548 112.168C39.7811 111.995 39.4337 111.822 39.26 111.822C38.2177 111.822 36.6542 111.995 34.5695 112.168H34.3958C34.2221 112.168 33.8747 112.341 33.701 112.514C33.5272 112.687 33.3535 113.033 33.3535 113.206L33.5272 115.627C33.5272 116.146 33.5272 117.011 33.5272 117.876C33.5272 118.741 33.5272 119.606 33.5272 120.47C33.5272 121.335 33.5272 122.027 33.5272 122.719C33.5272 123.065 33.5272 123.238 33.8747 123.584C34.0484 123.757 34.2221 123.93 34.5695 123.93C34.7433 123.93 34.7433 123.93 34.917 123.93L38.2177 123.757C38.7388 123.757 39.26 123.757 39.7811 123.757C40.1286 123.757 40.3023 123.584 40.476 123.411C40.6497 123.238 40.8234 122.892 40.8234 122.719C40.8234 122.373 40.6497 122.2 40.476 122.027C40.1286 121.681 39.7811 121.508 39.6074 121.508Z" fill="white"/>
<path d="M47.7718 118.395C47.4244 118.395 47.2506 118.395 47.0769 118.395C46.7295 118.568 46.5558 118.741 46.5558 119.087C46.2083 120.298 45.6872 121.162 45.166 121.508C44.8186 121.854 44.4711 122.027 44.1237 121.854C43.7763 121.681 43.2551 121.508 43.0814 120.989C42.9077 120.643 42.7339 119.952 42.5602 118.568C42.5602 117.53 42.5602 116.492 42.9077 115.8C43.0814 115.454 43.0814 115.108 43.2551 114.762C43.4288 114.416 43.6025 114.071 43.7763 114.071C44.1237 113.725 44.1237 113.898 44.2974 113.898C44.4711 114.071 44.6449 114.243 44.6449 114.416C44.8186 114.589 44.8186 114.935 44.8186 115.108C44.8186 115.454 44.9923 115.627 45.166 115.8C45.5135 116.146 46.2083 116.146 46.7295 115.8C46.7295 115.8 46.9032 115.454 46.9032 115.281C46.9032 114.762 46.7295 114.243 46.5558 113.725C46.382 113.206 46.0346 112.86 45.6872 112.514C45.3397 112.168 44.9923 111.995 44.6449 111.995C44.2974 111.822 43.7763 111.995 43.4288 111.995C43.0814 112.168 42.5602 112.341 42.2128 112.687C41.8653 113.033 41.5179 113.552 41.3442 114.071C41.1705 114.589 40.9967 115.108 40.823 115.627C40.6493 116.665 40.4756 117.703 40.4756 118.914C40.4756 120.471 40.823 121.508 41.1705 122.373C41.6916 123.411 42.5602 123.93 43.6025 124.276C43.95 124.276 44.1237 124.449 44.4711 124.449C45.3397 124.449 46.0346 124.103 46.7295 123.411C47.4244 122.719 48.1192 121.508 48.6404 119.952C48.8141 119.606 48.6404 119.433 48.6404 119.087C48.293 118.741 48.1192 118.568 47.7718 118.395Z" fill="white"/>
<path d="M55.5887 112.168C55.415 111.995 55.0676 111.822 54.8939 111.822C52.1144 111.995 50.0297 111.995 48.64 111.995C48.2925 111.995 48.1188 112.168 47.9451 112.341C47.7714 112.514 47.5977 112.86 47.5977 113.033C47.5977 113.379 47.7714 113.552 47.9451 113.724C48.1188 113.897 48.4663 114.07 48.64 114.07C49.3349 114.07 50.0297 114.07 50.7246 114.07C50.8983 117.703 51.072 120.816 51.072 123.065C51.072 123.411 51.2458 123.584 51.4195 123.757C51.5932 123.93 51.9406 124.103 52.1144 124.103C52.4618 124.103 52.6355 123.93 52.8092 123.757C52.983 123.584 53.1567 123.238 53.1567 123.065C53.1567 120.816 53.1567 117.703 52.8092 114.07L55.0676 113.897C55.415 113.897 55.5887 113.724 55.7625 113.552C55.9362 113.379 56.1099 113.033 56.1099 112.687C55.9362 112.514 55.7625 112.341 55.5887 112.168Z" fill="white"/>
</g>
<g clip-path="url(#clip1)">
<path fill-rule="evenodd" clip-rule="evenodd" d="M222.695 89.0644C223.011 87.5681 223.103 86.0057 223.307 84.4764C223.655 80.7888 222.29 77.9431 218.787 76.5487C216.184 75.4184 213.403 74.4803 210.735 73.5752C207.053 72.3728 203.193 71.3626 199.545 70.0477C193.036 67.6491 186.427 65.5881 179.833 63.8979C175.41 62.7225 171.053 61.322 166.63 60.1467C160.856 58.5751 154.904 57.1955 149.13 55.6239C143.582 54.1183 138.132 52.275 132.214 52.8616C128.812 53.2082 126.449 54.5934 124.915 57.3218C123.725 59.2954 123.032 61.6592 122.08 64.0696C125.596 65.8347 129.006 66.7128 132.337 67.4454C137.163 68.4947 141.924 69.7691 146.685 71.0435C150.657 72.0868 154.644 73.5008 158.616 74.544C161.689 75.3231 164.714 75.844 167.786 76.6231C171.759 77.6663 175.586 78.7891 179.526 79.945C189.657 82.9171 199.9 85.9222 209.997 89.0069C212.924 89.8655 215.851 90.7241 218.777 91.5827C221.512 92.2627 222.127 91.832 222.695 89.0644ZM151.402 67.0485C150.078 67.3936 148.84 67.0304 147.913 66.0247C146.793 64.8405 147.731 62.0595 149.426 61.7009C149.942 61.6078 150.538 61.6604 151.167 61.6004C153.729 61.6185 154.351 62.4125 153.592 65.0014C153.374 66.1601 152.58 66.7829 151.402 67.0485ZM134.187 63.2206C132.837 62.8243 132.134 61.8847 132.531 60.534C132.979 58.5874 134.826 57.2952 136.627 57.8236C138.09 58.2529 138.951 59.4837 138.555 60.8344C137.994 62.748 136.214 63.815 134.187 63.2206ZM164.81 71.349C163.473 71.3234 162.208 70.2187 162.008 68.8154C161.776 67.5247 162.556 66.5311 163.927 66.4442C164.556 66.3841 165.264 66.4697 165.972 66.5553C167.647 66.6799 168.158 67.4409 167.808 69.0498C167.411 70.4005 166.148 71.3745 164.81 71.349Z" fill="#ED1C24"/>
<path fill-rule="evenodd" clip-rule="evenodd" d="M221.366 92.3422C221.432 92.1171 221.273 91.8259 221.213 91.1971C219.524 90.7017 217.836 90.2063 216.035 89.678C211.34 88.1784 206.646 86.6789 201.918 85.2919C196.29 83.6407 190.629 82.1021 185.113 80.484C179.485 78.8328 173.956 76.8439 168.308 75.676C162.661 74.5081 157.079 73.1151 151.53 71.6095C142.155 68.9811 132.746 66.4653 123.337 63.9495C123 63.8504 122.629 63.8639 122.033 63.8114C121.689 64.5663 121.491 65.2416 121.213 65.7714C119.516 71.1414 117.626 76.3328 116.186 81.6562C113.195 92.2701 110.541 102.983 107.774 113.663C107.51 114.564 107.954 115.55 107.915 116.516C108.043 118.999 108.964 120.858 111.341 121.922C111.567 121.988 111.58 122.359 111.772 122.538C112.541 123.252 113.163 124.046 113.998 124.535C119.104 127.134 124.454 129.315 130.003 130.82C136.002 132.458 142 134.096 147.887 135.7C153.66 137.272 159.388 138.585 165.082 140.011C171.001 141.504 176.874 142.737 182.76 144.342C186.395 145.286 190.077 146.489 193.758 147.691C196.572 148.517 199.346 148.23 201.98 147.169C202.966 146.725 204.131 146.088 204.62 145.254C205.777 143.393 206.742 141.353 207.337 139.327C210.897 128.025 214.345 116.689 217.681 105.32C219.114 100.85 220.223 96.6526 221.366 92.3422Z" fill="#004A76"/>
<path fill-rule="evenodd" clip-rule="evenodd" d="M153.592 65.0014C153.374 66.1601 152.58 66.7829 151.402 67.0485C150.078 67.3936 148.84 67.0304 147.913 66.0247C146.793 64.8405 147.731 62.0595 149.426 61.7009C149.942 61.6078 150.538 61.6604 151.167 61.6004C153.729 61.6185 154.351 62.4125 153.592 65.0014Z" fill="#004A76"/>
<path fill-rule="evenodd" clip-rule="evenodd" d="M167.807 69.0497C167.411 70.4004 166.147 71.3744 164.81 71.3489C163.473 71.3233 162.208 70.2186 162.008 68.8153C161.775 67.5246 162.556 66.531 163.926 66.444C164.555 66.384 165.263 66.4696 165.972 66.5552C167.647 66.6798 168.157 67.4408 167.807 69.0497Z" fill="#004A76"/>
<path fill-rule="evenodd" clip-rule="evenodd" d="M134.188 63.2204C132.837 62.8242 132.135 61.8846 132.531 60.5339C132.98 58.5873 134.826 57.2951 136.627 57.8235C138.09 58.2528 138.952 59.4835 138.555 60.8343C137.994 62.7478 136.214 63.8149 134.188 63.2204Z" fill="#004A76"/>
<path fill-rule="evenodd" clip-rule="evenodd" d="M145.685 80.2858C147.969 80.8337 150.141 81.3486 152.425 81.8965C155.385 82.6425 158.146 84.064 160.663 85.9026C161.577 86.5375 162.021 87.5236 161.691 88.6492C161.441 89.9204 161.157 91.3042 160.681 92.5094C159.875 94.8401 159.102 97.0584 158.183 99.3561C157.641 100.786 156.954 102.296 156.3 103.694C155.5 105.17 154.189 105.886 152.547 105.649C151.018 105.445 149.409 105.095 147.913 104.778C146.529 104.495 130.632 101.176 126.665 99.2783C125.268 98.6238 124.618 97.0885 124.935 95.5921C126.176 90.944 128.785 82.0516 129.83 80.1576C130.418 78.9854 131.471 78.3161 132.728 78.1961C134.84 78.0821 136.919 78.0807 138.865 78.5295C141.149 79.0774 143.434 79.6253 145.718 80.1732L145.685 80.2858ZM137.721 89.9299C137.985 89.0294 137.799 87.9968 137.269 87.7192C136.66 87.2959 135.998 87.4685 135.138 88.3164C135.138 88.3164 135.105 88.429 134.993 88.3959C134.344 88.9392 134.179 89.502 134.464 90.197C134.749 90.8919 135.471 91.3481 136.1 91.2881C136.875 91.1486 137.49 90.7179 137.721 89.9299ZM154.314 95.0425C154.611 94.0295 154.167 93.0434 153.525 92.7327C152.85 92.5345 152.155 92.8197 151.698 93.5416C151.487 93.8462 151.421 94.0714 151.322 94.409C151.09 95.197 151.488 95.9249 152.13 96.2356C152.66 96.5133 153.322 96.3407 153.858 95.7644C154.037 95.5723 154.136 95.2346 154.314 95.0425ZM146.653 91.5722C146.851 90.8969 146.373 90.0233 145.586 89.7922C144.798 89.561 143.745 90.2304 143.448 91.2434C143.217 92.0314 143.615 92.7593 144.403 92.9905C145.27 93.3672 146.322 92.6979 146.653 91.5722Z" fill="white"/>
<path fill-rule="evenodd" clip-rule="evenodd" d="M137.72 89.9298C137.489 90.7177 136.874 91.1485 136.245 91.2085C135.504 91.2354 134.782 90.7792 134.609 90.1173C134.324 89.4224 134.489 88.8596 135.137 88.3163C135.137 88.3163 135.171 88.2037 135.283 88.2367C136.256 87.4218 136.918 87.2492 137.414 87.6395C137.799 87.9967 137.985 89.0293 137.72 89.9298Z" fill="#ED1C24"/>
<path fill-rule="evenodd" clip-rule="evenodd" d="M154.313 95.0424C154.135 95.2345 154.036 95.5722 153.711 95.8439C153.176 96.4202 152.626 96.6257 151.984 96.315C151.342 96.0043 151.089 95.1969 151.175 94.4885C151.274 94.1508 151.453 93.9587 151.552 93.621C152.008 92.8991 152.736 92.5014 153.378 92.8121C154.166 93.0433 154.61 94.0294 154.313 95.0424Z" fill="#ED1C24"/>
<path fill-rule="evenodd" clip-rule="evenodd" d="M146.653 91.5721C146.322 92.6977 145.383 93.4 144.482 93.1358C143.694 92.9047 143.297 92.1768 143.528 91.3888C143.825 90.3758 144.765 89.6734 145.665 89.9376C146.373 90.0232 146.851 90.8967 146.653 91.5721Z" fill="#ED1C24"/>
<path fill-rule="evenodd" clip-rule="evenodd" d="M187.703 101.66C189.987 102.207 192.159 102.722 194.443 103.27C197.402 104.016 200.164 105.438 202.681 107.276C203.595 107.911 204.039 108.897 203.709 110.023C203.458 111.294 203.174 112.678 202.699 113.883C201.893 116.214 201.119 118.432 200.201 120.73C199.659 122.16 198.972 123.67 198.317 125.067C197.517 126.544 196.207 127.26 194.565 127.023C193.036 126.819 191.427 126.469 189.93 126.152C188.547 125.868 172.65 122.549 168.683 120.652C167.286 119.998 166.636 118.462 166.953 116.966C168.194 112.318 170.803 103.425 171.848 101.531C172.436 100.359 173.488 99.6899 174.746 99.5698C176.858 99.4559 178.936 99.4545 180.883 99.9033C183.167 100.451 185.451 100.999 187.736 101.547C187.736 101.547 187.736 101.547 187.703 101.66Z" fill="white"/>
<path fill-rule="evenodd" clip-rule="evenodd" d="M196.271 113.709L176.573 107.93C175.897 107.731 175.612 107.037 175.777 106.474C175.975 105.798 176.67 105.513 177.233 105.678L196.931 111.457C197.607 111.656 197.892 112.351 197.727 112.913C197.562 113.476 196.946 113.907 196.271 113.709Z" fill="#ED1C24"/>
<path fill-rule="evenodd" clip-rule="evenodd" d="M186.985 116.608L175.053 113.108C174.378 112.909 174.093 112.215 174.258 111.652C174.456 110.976 175.151 110.691 175.714 110.856L187.645 114.357C188.321 114.555 188.606 115.25 188.441 115.813C188.275 116.376 187.66 116.806 186.985 116.608Z" fill="#ED1C24"/>
</g>
<g clip-path="url(#clip2)">
<path d="M70.7429 57.7301C70.6565 59.5725 73.0735 62.1573 74.8976 60.9113C75.6632 61.0571 76.9281 59.9701 76.3088 59.0556C75.896 58.4458 76.6504 57.2617 76.4928 56.7006C76.4328 55.6269 75.5095 54.92 74.5375 54.4693C72.1805 52.9582 70.6228 55.5828 70.7429 57.7301Z" fill="white"/>
<path d="M95.3092 21.7781C93.001 20.0108 91.0945 17.5232 91.1208 14.6071C90.9408 11.3862 94.7842 7.86913 97.7868 7.37868C106.382 5.29761 112.135 16.75 112.142 23.6558L112.045 24.1684C112.458 24.7781 112.056 25.4983 111.703 25.9622C110.742 26.8415 109.928 26.9519 108.956 26.5013C105.248 27.9196 97.3622 23.4968 95.3092 21.7781Z" fill="#8EB400"/>
<path d="M95.5353 12.2606L95.5841 12.0044C95.3777 11.6995 95.2201 11.1384 95.7793 10.9793C96.9466 10.4049 98.6731 9.67146 99.8516 10.427C100.617 10.5728 100.726 11.3902 100.58 12.159C100.178 12.8792 99.57 13.2945 98.7555 13.405C97.6371 13.7231 95.2425 13.7982 95.5353 12.2606Z" fill="white"/>
<path d="M99.7596 35.903C99.7596 35.903 93.7544 36.8839 86.6981 46.1625C79.3865 55.3924 68.8547 63.4781 60.1661 60.4957C50.0437 56.7092 50.7836 41.7133 68.1687 36.5261C79.7063 32.881 99.7596 35.903 99.7596 35.903Z" fill="#8EB400"/>
</g>
<defs>
<clipPath id="clip0">
<rect width="78" height="32" fill="white" transform="translate(0 103)"/>
</clipPath>
<clipPath id="clip1">
<rect width="104.403" height="78.3609" fill="white" transform="translate(126.061 48) rotate(16.3506)"/>
</clipPath>
<clipPath id="clip2">
<rect width="53" height="60" fill="white" transform="translate(63.2246) rotate(10.7817)"/>
</clipPath>
</defs>
</svg>
