<svg width="279" height="164" viewBox="0 0 279 164" fill="none" xmlns="http://www.w3.org/2000/svg">
<g clip-path="url(#clip0)">
<path d="M159.934 35.8165C157.744 21.2721 150.931 14.5655 142.009 16.2624C133.168 17.9592 120.434 19.1713 105.429 19.3329C90.4243 19.4945 73.7972 13.1919 60.0088 14.1615C46.2204 15.0504 39.9751 18.3633 39.6506 24.2618C39.3262 30.0796 41.0295 38.8062 38.1096 50.0378C35.1897 61.2693 34.5408 67.4103 41.7594 74.1168C50.7625 82.4395 73.7161 74.3592 105.673 76.1369C105.916 76.1369 106.24 76.1369 106.484 76.2177C106.565 76.2177 111.026 77.1873 109.647 84.9444C108.187 92.7014 106.078 93.671 107.376 94.8022C108.674 95.9335 117.271 88.7421 122.219 82.9243C124.003 80.9042 125.139 79.1266 125.95 77.7529C139.089 78.8034 148.417 78.965 155.554 73.9552C165.936 66.683 162.124 50.361 159.934 35.8165Z" fill="#ED1C24"/>
<path d="M94.3982 47.7747C95.2093 46.4819 93.1816 45.3506 92.3705 46.5627C92.046 47.1283 91.5594 47.5323 91.0727 47.7747C90.5861 45.5931 90.1806 43.169 88.7206 41.5529C87.504 40.1793 86.2874 40.9065 85.3952 42.1186C84.7463 41.7953 83.6108 42.0378 83.5297 43.0882C83.2864 45.9971 83.3675 48.9059 83.3675 51.8148C83.3675 53.3501 85.7196 53.3501 85.7196 51.8956C85.7196 50.0372 85.6385 48.1787 85.7196 46.3203L85.8007 46.0779C86.2063 45.189 86.5307 44.1386 87.1796 43.4114C87.2607 43.573 87.4229 43.8154 87.504 44.0578C88.3151 45.8355 88.5584 47.8555 89.1261 49.714C89.2884 50.2796 89.9372 50.7644 90.505 50.6028C92.2083 50.0372 93.4249 49.2292 94.3982 47.7747Z" fill="white"/>
<path d="M103.482 57.2287C102.996 53.431 101.779 49.6333 101.698 45.7547C101.698 45.3507 101.536 45.0275 101.211 44.8659C101.211 44.6235 101.211 44.4619 101.13 44.2195C100.887 42.8459 99.5079 42.0378 98.2102 42.0378C97.8046 42.0378 97.5613 42.1994 97.318 42.361C97.2369 42.2802 97.0746 42.1994 96.9935 42.1994C96.3447 42.0378 95.7769 42.4419 95.5336 43.0075C94.8036 44.7043 95.128 46.7244 96.6691 47.8556C97.4802 48.502 98.5346 48.502 99.4268 48.0172C99.9134 52.5421 101.454 56.9863 101.373 61.592C101.373 62.7232 101.211 63.7737 100.643 64.7433C99.3457 66.7633 96.3447 64.7433 95.7769 63.2888C94.7225 60.5416 97.2369 57.4711 98.6968 55.451C99.589 54.239 97.5613 53.027 96.6691 54.239C94.7225 56.9863 92.4515 60.2992 93.5059 63.8545C94.5603 67.6522 99.3457 68.945 102.266 66.4401C104.618 64.4201 103.807 59.7335 103.482 57.2287ZM98.3724 45.9972H98.2913C98.4535 45.9972 98.2102 45.9972 98.2102 45.9164C97.8857 45.7547 97.7235 45.4315 97.6424 44.9467C97.6424 44.7043 97.6424 44.4619 97.7235 44.1387C97.8857 44.2195 98.0479 44.3003 98.2913 44.3003C98.5346 44.3003 98.5346 44.3003 98.6157 44.3003H98.7779L98.859 44.3811V44.4619L98.9401 44.6235V44.7851V44.9467C98.9401 44.9467 98.9401 44.9467 98.859 45.1083L98.7779 45.2699V45.3507L98.6157 45.6739L98.4535 45.9164C98.6157 45.7547 98.0479 46.078 98.4535 45.9972H98.3724Z" fill="white"/>
<path d="M111.755 46.7244C108.186 49.1484 106.645 46.2396 106.159 42.7651C108.024 39.6946 110.701 36.1393 110.295 32.6648C110.133 30.9679 108.997 29.2711 107.132 30.0791C105.591 30.7255 104.618 32.988 104.212 34.5232C103.482 36.9473 103.32 39.7754 103.644 42.4419C103.563 42.6035 103.401 42.8459 103.32 43.0075C102.914 43.8155 103.401 44.5427 104.131 44.7043C104.293 45.3507 104.536 45.9164 104.78 46.482C106.321 50.1181 109.646 51.0069 112.972 48.7444C114.107 47.8556 113.053 45.8356 111.755 46.7244ZM106.159 36.4625C106.321 35.3313 106.645 34.2 107.213 33.2304C107.294 32.988 107.456 32.8264 107.619 32.6648L107.862 32.4224C108.105 33.0688 107.943 33.7152 107.781 34.2808C107.375 35.7353 106.726 37.1897 105.915 38.5633C105.996 37.7553 106.078 37.0281 106.159 36.4625Z" fill="white"/>
<path d="M116.378 49.4717C116.135 47.4516 116.216 45.5124 115.81 43.4923C115.486 42.0379 113.215 42.6035 113.539 44.0579C113.945 45.8356 113.864 47.6132 114.026 49.3909C114.107 50.0373 114.432 50.5221 115.162 50.6029C115.729 50.6029 116.378 50.1181 116.378 49.4717Z" fill="white"/>
<path d="M115.892 37.1898L115.729 37.0282C115.243 36.5433 114.513 36.5433 114.107 37.0282C113.621 37.513 113.621 38.2402 114.107 38.6442L114.269 38.8058C114.756 39.2906 115.486 39.2906 115.892 38.8058C116.297 38.4018 116.297 37.6746 115.892 37.1898Z" fill="white"/>
<path d="M126.112 46.3203C125.382 45.1083 124.327 44.7043 123.03 44.4619C119.867 43.7347 122.462 41.7954 124.409 41.3914C125.869 41.0682 125.301 38.8057 123.841 39.1289C121.57 39.6137 117.677 41.8762 119.38 44.7851C120.029 45.8355 120.84 46.3203 122.056 46.6435C122.705 46.8051 123.273 46.8859 123.841 47.2091C124.49 47.5324 124.165 48.7444 123.841 49.1484C123.354 49.714 122.462 49.4716 121.894 49.31C120.434 48.906 119.785 51.1685 121.245 51.5725C122.786 51.9765 124.246 51.8957 125.463 50.8453C126.599 49.8756 126.842 47.5324 126.112 46.3203Z" fill="white"/>
<path d="M138.44 49.7947C137.629 50.2796 136.817 50.7644 136.006 51.0876C135.925 48.7443 135.195 45.997 133.33 44.6234C132.762 44.2194 132.357 44.0578 131.87 44.0578C132.275 40.3409 132.194 36.624 133.411 33.0687C133.898 31.6142 131.627 31.0486 131.14 32.4222C129.599 37.1088 130.167 42.1185 129.112 46.8859C128.788 47.6939 128.544 48.5827 128.463 49.1483C128.22 50.6028 130.167 51.2492 130.734 49.7947C131.059 48.8251 131.302 47.8555 131.545 46.8859C131.789 46.5627 132.113 46.4818 132.438 46.9667C133.573 48.5019 133.816 50.6836 133.735 52.542C133.654 53.35 134.465 53.8349 135.195 53.6733C136.817 53.4308 138.277 52.6228 139.656 51.8148C140.873 51.0876 139.737 48.9867 138.44 49.7947Z" fill="white"/>
<path d="M79.4743 28.1398C75.9866 27.5742 72.3368 29.1095 71.4446 32.7456C70.7146 35.9777 73.2289 39.129 76.5544 39.0482C77.771 39.0482 77.771 37.3513 76.5544 37.2705C72.6612 36.8665 68.1191 37.7553 65.2803 40.5026C62.6038 43.0075 62.5227 47.1284 64.3882 50.1181C66.2536 53.1886 69.7413 54.8046 73.3101 54.9662C77.6899 55.1278 81.6642 53.1886 85.1518 50.6837C86.1251 50.0373 85.2329 48.4212 84.2596 49.0676C79.5554 52.6229 71.6879 55.6126 66.9025 50.3605C64.5504 47.8556 64.0637 43.7347 66.9836 41.3914C69.6602 39.2906 73.3101 38.7249 76.5544 39.0482C76.5544 38.4825 76.5544 37.8361 76.5544 37.2705C74.1211 37.2705 72.499 35.008 73.3101 32.7456C74.1211 30.4023 76.6355 29.4327 78.9065 29.8367C80.1231 30.0791 80.6098 28.3015 79.4743 28.1398Z" fill="white"/>
<path d="M155.878 98.842C161.474 79.6111 203.407 73.8741 219.142 69.7532C234.877 65.6323 260.832 65.4707 273.809 87.8529C286.137 109.104 276.648 135.041 246.8 141.667C248.584 145.788 252.477 153.141 258.074 155C258.074 155 243.637 155.727 230.903 143.606C216.79 144.334 195.945 143.283 178.182 135.203C154.823 124.376 150.281 118.154 155.878 98.842Z" fill="#004A76"/>
</g>
<path d="M47.666 137.826C47.666 137.826 41.5021 142.524 43.0105 147.715C44.5188 152.906 49.7541 156.415 58.7006 155.157C67.7111 153.888 77.7068 149.975 82.5539 145.291C87.465 140.596 87.5216 136.425 85.0135 132.673C82.4529 128.996 79.3196 128.433 78.0851 128.165C76.862 127.961 74.8466 127.753 74.8466 127.753L47.666 137.826Z" fill="#F9A51A"/>
<path d="M34.3268 115.354C34.3268 115.354 36.9794 125.54 40.3749 130.997C43.7589 136.389 51.4893 142.943 60.7069 141.909C69.8491 140.821 74.9583 136.249 76.9042 128.654C78.8501 121.058 76.7444 112.853 75.2558 108.889C73.7556 104.859 72.2538 101.565 71.0595 100.758C69.8653 99.9503 65.9498 98.2508 57.7577 100.253C49.5656 102.255 44.4388 104.492 40.8685 106.609C37.2982 108.727 35.784 110.576 34.9203 112.386C33.8649 114.227 34.3268 115.354 34.3268 115.354Z" fill="#7FB439"/>
<path d="M73.8813 106.467C73.8813 106.467 76.1766 102.762 80.1193 102.452C84.0621 102.143 87.3397 104.007 87.8388 108.322C88.3379 112.638 85.7176 116.729 83.0778 119.224C80.4381 121.719 77.7382 122.759 77.7382 122.759L77.2602 119.306C77.2602 119.306 79.3099 119.039 81.788 116.37C84.2661 113.701 85.3006 109.535 84.6214 107.914C84.0059 106.282 82.4235 104.741 79.3937 105.768C76.4275 106.784 75.3262 109.828 75.3262 109.828L73.8813 106.467Z" fill="#7FB439"/>
<path d="M42.0233 118.514C42.0233 118.514 47.4992 111.664 54.5411 109.223C61.583 106.783 67.5782 107.423 68.4712 107.615C69.2998 107.817 69.9061 108.259 69.9061 108.259C69.9061 108.259 63.7633 113.189 56.7674 115.893C49.6958 118.541 46.0696 118.595 44.913 118.784C43.7449 118.908 41.8882 118.875 41.8882 118.875L42.0233 118.514Z" fill="#F9A51A"/>
<path d="M61.8781 142.311C54.5237 143.509 46.7847 140.291 41.8436 133.543C36.3287 126.153 34.1903 116.275 34.1674 116.145C34.133 115.95 34.238 115.799 34.4298 115.768C34.6217 115.737 34.7725 115.846 34.8069 116.041C34.8299 116.171 36.9453 125.919 42.3618 133.124C47.9751 140.698 57.1965 143.742 65.2759 140.688C73.6111 137.592 77.9117 130.275 77.4475 120.191C77.039 111.167 72.3276 103.112 72.3162 103.047C72.2178 102.862 72.2588 102.722 72.4392 102.626C72.6196 102.53 72.759 102.574 72.8573 102.758C72.8688 102.823 77.667 110.998 78.11 120.217C78.6314 130.626 74.162 138.104 65.5185 141.317C64.2968 141.85 63.0932 142.113 61.8781 142.311Z" fill="#7FB439"/>
<path d="M47.5377 118.878C42.0824 119.77 37.3941 119.392 35.4147 117.898C34.3551 117.129 33.8912 115.993 33.9293 114.708C34.058 112.062 36.5385 108.897 39.9024 107.001C44.5335 104.426 49.8228 102.216 50.1964 102.087C50.4301 101.914 52.4329 100.914 60.5492 99.3854C60.8701 99.333 61.191 99.2805 61.5119 99.2281C67.4165 98.2631 70.2829 99.5447 71.6272 100.806C72.6572 101.782 73.1556 103.114 73.0879 104.606C72.763 108.765 61.6807 114.076 56.969 116.193C54.0792 117.405 50.875 118.333 47.5377 118.878ZM61.5628 99.8929C61.2419 99.9453 60.921 99.9978 60.6001 100.05C52.2386 101.686 50.504 102.71 50.504 102.71L50.4398 102.72C50.3756 102.731 44.958 104.963 40.21 107.623C37.0271 109.422 34.7047 112.36 34.6056 114.799C34.533 115.888 34.9509 116.762 35.7949 117.432C37.623 118.816 42.1713 119.15 47.4341 118.29C50.6431 117.765 53.8472 116.838 56.6087 115.646C66.1078 111.468 72.1659 107.247 72.3704 104.656C72.4133 103.774 72.2588 102.52 71.1416 101.424C69.8616 100.152 67.2107 98.9698 61.5628 99.8929Z" fill="#7FB439"/>
<path d="M78.1378 122.759C77.9468 122.79 77.7966 122.681 77.7623 122.487C77.7281 122.293 77.8326 122.142 78.0236 122.111C78.0873 122.101 82.128 121.242 85.7238 115.262C87.6001 112.159 87.9728 108.701 86.7064 105.977C85.7794 104.064 84.1274 102.868 82.1146 102.597C77.3541 101.974 74.7577 106.193 74.6941 106.204C74.5895 106.354 74.3985 106.385 74.2484 106.276C74.0982 106.168 74.0639 105.974 74.1048 105.834C74.157 105.759 76.951 101.174 82.1163 101.864C84.3316 102.169 86.2088 103.528 87.1701 105.635C88.523 108.478 88.1959 112.195 86.1629 115.523C82.5605 121.838 78.3288 122.728 78.1378 122.759Z" fill="#7FB439"/>
<path d="M78.1039 119.312L77.9765 119.332C77.7854 119.363 77.6238 119.19 77.6532 118.985C77.6189 118.791 77.7872 118.63 77.9897 118.664C77.9897 118.664 79.4663 118.49 82.3923 115.015C84.1746 112.859 84.8301 109.887 83.9958 107.758C83.6561 106.947 82.9523 105.929 81.4708 105.704C77.9869 105.273 76.0147 109.325 76.0147 109.325C75.9102 109.475 75.7305 109.571 75.5802 109.463C75.43 109.354 75.332 109.17 75.4366 109.02C75.4252 108.955 75.9545 107.869 76.9527 106.84C78.276 105.426 79.8752 104.832 81.5477 105.026C82.954 105.196 84.0924 106.077 84.5985 107.46C85.5308 109.773 84.7937 113.025 82.9067 115.331C80.0968 118.72 78.5499 119.239 78.1039 119.312Z" fill="#7FB439"/>
<path d="M59.7495 124.293C59.7495 124.293 57.1183 120.919 54.8006 122.297C52.4829 123.675 53.8964 126.848 56.9877 129.48C60.0789 132.112 63.694 133.992 63.694 133.992C63.694 133.992 66.5919 127.715 66.3471 123.352C66.1022 118.989 63.1563 118.668 61.4883 120.007C59.8089 121.281 59.7495 124.293 59.7495 124.293Z" fill="#EC1C24"/>
<path d="M63.7289 134.187L63.5898 134.143C63.5898 134.143 59.8993 132.209 56.8194 129.641C54.5791 127.738 53.2848 125.614 53.393 123.995C53.4472 123.186 53.9186 122.508 54.6274 122.059C54.9237 121.878 55.1676 121.771 55.4867 121.719C57.1464 121.449 58.7207 122.927 59.444 123.677C59.5391 122.727 59.9207 120.797 61.2515 119.78C61.7164 119.437 62.268 119.214 62.7787 119.13C63.6085 118.995 64.4318 119.195 65.0454 119.695C65.6591 120.196 66.3644 121.215 66.5392 123.322C66.784 127.685 63.9909 133.811 63.8975 134.026L63.7289 134.187ZM55.6421 122.228C55.3868 122.269 55.1429 122.376 54.899 122.482C54.2427 122.856 53.9398 123.372 53.8628 124.052C53.784 125.466 54.9916 127.471 57.0814 129.265C59.6343 131.451 62.693 133.155 63.5621 133.614C64.0811 132.462 66.2866 127.099 66.0809 123.329C66.0091 121.807 65.5478 120.681 64.7835 120.072C64.2451 119.626 63.6248 119.46 62.9226 119.574C62.4758 119.647 61.988 119.86 61.587 120.192C60.0238 121.381 59.9415 124.263 59.9529 124.328C59.9758 124.457 59.8596 124.543 59.7958 124.553C59.6681 124.574 59.5928 124.52 59.5175 124.465C59.5061 124.4 57.5571 121.916 55.6421 122.228Z" fill="#EC1C24"/>
<path d="M60.9219 155.061C52.65 156.41 46.2907 154.762 43.6328 150.16C39.7619 143.54 46.5218 138.475 46.5859 138.465C46.7027 138.379 46.8424 138.423 46.9295 138.543C47.0166 138.663 46.9755 138.804 46.8588 138.89C46.8588 138.89 45.2243 140.097 44.0599 142.1C42.5387 144.698 42.5498 147.382 44.0587 149.956C47.6568 156.151 58.4472 156.74 71.5124 151.519C81.3055 147.571 84.7014 143.257 85.833 140.319C86.6537 138.238 86.6064 136.097 85.6613 134.103C83.0875 128.48 77.2837 128.487 77.2195 128.497C77.0913 128.518 77.0042 128.398 76.9812 128.267C76.9582 128.137 77.0749 128.051 77.2032 128.03C77.2673 128.019 83.4032 128.025 86.0872 133.899C87.0668 136.089 87.1256 138.296 86.2637 140.518C84.5926 144.886 79.5428 148.799 71.7211 151.955C67.9065 153.518 64.2563 154.516 60.9219 155.061Z" fill="#F9A51A"/>
<path d="M17.3453 126.027C16.3052 125.728 15.3358 125.083 14.9488 124.009C14.4864 122.881 15.3741 121.198 16.2535 120.587C18.9672 118.807 22.4364 122.054 23.4596 124.496L23.4941 124.691C23.7204 124.854 23.7138 125.19 23.6203 125.406C23.4332 125.837 23.1248 125.955 22.7294 125.952C21.5235 126.951 18.2459 126.281 17.3453 126.027Z" fill="#7FB439"/>
<path d="M16.0856 122.649L16.0626 122.519C15.9116 122.41 15.8773 122.215 15.9824 122.065C16.3209 121.742 16.8286 121.259 17.3114 121.381C17.5905 121.469 17.7644 121.708 17.7462 121.978C17.728 122.248 17.5061 122.484 17.2729 122.656C17.051 122.892 16.2527 123.222 16.0856 122.649Z" fill="white"/>
<path d="M20.5949 130.347C20.5949 130.347 18.6843 131.462 17.3772 135.623C16.0701 139.785 13.5239 144.014 10.1036 144.036C6.08415 144.022 4.39287 138.542 9.6783 134.535C13.2796 131.807 20.5949 130.347 20.5949 130.347Z" fill="#7FB439"/>
<path d="M62.4921 122.724C62.4463 122.464 62.4758 122.259 62.633 122.033C62.7264 121.818 62.9705 121.711 63.2145 121.604C63.47 121.563 63.6731 121.597 63.8991 121.76L63.9745 121.815C64.0383 121.804 64.0908 121.729 64.2185 121.708C64.1432 121.654 64.1317 121.589 64.0564 121.534C63.8304 121.371 63.4881 121.293 63.1687 121.345C62.8493 121.397 62.6167 121.568 62.4709 121.859C62.3137 122.085 62.2432 122.43 62.3005 122.755C62.1727 122.776 62.1088 122.786 61.9811 122.807C61.9123 122.417 61.9714 122.007 62.1811 121.706C62.3907 121.405 62.6758 121.158 63.1229 121.085C63.5062 121.023 63.9123 121.09 64.2137 121.308C64.4282 121.407 64.5903 121.581 64.6886 121.765C64.5723 121.851 64.3921 121.947 64.148 122.053C63.904 122.16 63.6714 122.331 63.3635 122.448C63.1194 122.555 62.8115 122.672 62.4921 122.724ZM64.2577 122.302L64.2692 122.367C64.315 122.627 64.2855 122.832 64.1282 123.058C64.0348 123.273 63.7908 123.38 63.5467 123.486C63.2912 123.528 63.0881 123.494 62.8621 123.331C62.7868 123.276 62.7115 123.222 62.7 123.157C62.6361 123.167 62.5084 123.188 62.456 123.264C62.5428 123.383 62.6181 123.437 62.7688 123.546C62.9948 123.71 63.337 123.788 63.6564 123.736C63.9758 123.684 64.2084 123.512 64.3542 123.221C64.5115 122.996 64.582 122.65 64.5247 122.326C64.5132 122.261 64.5132 122.261 64.5018 122.196C64.6181 122.11 64.682 122.1 64.7983 122.014L64.9784 121.918C64.8573 121.604 64.6084 121.311 64.3185 121.158C63.9418 120.885 63.4718 120.828 63.0247 120.901C62.5775 120.974 62.1762 121.306 61.978 121.672C61.7159 122.049 61.6683 122.524 61.7485 122.978C61.7599 123.043 61.7714 123.108 61.7828 123.173C61.9269 123.617 62.1758 123.91 62.541 124.118C62.9062 124.325 63.3124 124.393 63.7595 124.32C64.2067 124.247 64.608 123.914 64.8062 123.548C65.0683 123.172 65.1159 122.697 65.0357 122.243C64.9718 122.253 64.9194 122.328 64.7917 122.349C64.8604 122.738 64.7899 123.084 64.5802 123.385C64.3705 123.686 64.0855 123.933 63.6498 124.071C63.2666 124.133 62.9243 124.055 62.5705 123.913C62.2806 123.759 62.0317 123.466 61.9106 123.152C62.474 122.994 62.9097 122.856 63.3454 122.718C63.7172 122.591 64.0137 122.409 64.2577 122.302Z" fill="#231F20"/>
<g clip-path="url(#clip1)">
<path d="M218.077 109.303C218.078 104.064 217.924 98.7584 218.037 93.4753C219.924 94.0099 221.948 94.2353 223.934 93.709C227.011 93.0082 230.324 90.9373 231.264 87.7561C232.044 85.1492 230.731 82.4716 227.727 82.3767C223.699 82.3018 219.765 89.3452 225.326 89.7108C226.127 89.7788 226.293 88.5634 225.604 88.4514C221.756 88.1778 225.338 83.1895 228.206 83.5936C231.453 83.9763 230.531 87.5335 229.137 89.2326C227.674 91.0864 225.527 92.1871 223.231 92.5801C219.508 93.2795 216.496 91.5267 213.44 89.6632C211.093 88.2876 208.702 86.8014 205.915 87.2596C200.789 88.0003 197.86 94.6479 199.267 99.2048C200.07 101.572 202.889 102.506 205.079 101.516C207.716 100.35 207.371 96.5252 206.053 94.4886C205.68 93.8689 204.65 94.5298 205.023 95.1496C206.54 97.3635 205.972 101.165 202.484 100.494C200.261 100.091 200.128 97.4603 200.344 95.7143C200.775 92.2225 202.807 88.8667 206.463 88.3219C209.516 87.8863 212.411 90.3242 214.913 91.7665C215.578 92.1437 216.397 92.5876 217.13 92.8102L217.106 93.0754C216.881 98.4025 217.19 103.775 217.078 109.058C216.868 110.163 218.115 110.055 218.077 109.303Z" fill="white"/>
<path d="M230.612 106.412C231.152 105.817 230.201 105.041 229.662 105.637C228.36 106.916 226.003 109.122 224.214 107.526C223.817 107.172 223.487 106.662 223.313 106.22C224.914 106.356 226.277 103.264 226.356 101.827C226.49 99.219 223.696 98.0193 222.296 100.36C221.075 102.501 221.469 105.796 222.787 107.832C224.851 111.109 228.771 108.287 230.612 106.412ZM223.537 100.893C223.81 100.274 224.815 99.8786 225.163 100.764C225.555 101.759 224.182 106.133 223.082 104.65C222.976 104.053 223.025 103.522 223.074 102.992C223.036 102.24 223.153 101.555 223.537 100.893Z" fill="white"/>
<path d="M247.54 102.558C247.769 101.829 246.502 101.561 246.273 102.29C245.698 104.433 243.206 106.948 241.36 104.225C240.701 103.207 240.221 101.99 239.898 100.839C239.884 99.8226 239.691 99.0042 239.163 98.3178C238.678 97.742 237.94 98.1604 238.09 98.8682C238.239 99.5759 238.432 100.394 238.694 101.058C238.609 103.136 237.339 105.808 236.173 106.778C234.176 108.586 233.663 103.678 233.804 102.728C233.922 102.043 234.919 99.9888 235.64 101.494C235.728 101.715 235.703 101.98 235.834 102.312L235.877 102.423C235.499 102.444 235.027 102.885 235.357 103.394C236.873 105.608 237.596 101.874 236.583 100.611C234.252 97.3125 232.494 102.349 232.633 104.339C232.897 107.302 235.413 109.761 237.775 106.914C238.382 106.164 239.039 104.883 239.497 103.425C240.019 104.753 240.877 105.948 242.119 106.481C244.801 107.725 246.965 104.701 247.54 102.558Z" fill="white"/>
<path d="M205.574 131.604C206.599 126.345 206.401 120.928 206.892 115.624L206.917 115.359C208.115 115.781 209.158 116.137 210.425 116.405C213.38 117.031 216.42 115.578 214.623 112.325C214.206 111.594 213.22 112.366 213.593 112.986C215.676 116.638 209.17 114.855 207.816 114.366C205.841 113.61 203.867 112.854 201.824 112.253C198.472 111.273 194.512 111.044 192.678 114.577C191.117 117.491 191.797 121.184 195.607 120.706C198.326 120.403 201.197 117.867 199.841 115.078C199.424 114.348 198.438 115.12 198.811 115.739C200.254 118.749 193.442 121.431 193.004 118.026C192.797 116.191 194.086 113.894 195.718 113.124C197.281 112.509 199.082 112.822 200.658 113.223C202.391 113.691 204.166 114.27 205.83 114.892C205.719 114.936 205.651 115.091 205.582 115.245C205.091 120.55 205.289 125.966 204.264 131.225C204.233 132.132 205.5 132.399 205.574 131.604Z" fill="white"/>
<path d="M215.516 129.989C216.055 129.393 215.105 128.618 214.566 129.213C214.07 129.92 213.419 130.559 212.637 130.867C211.229 131.549 211.177 129.781 211.363 128.941C211.578 127.195 212.259 125.649 212.363 123.947C212.325 123.196 211.19 123.259 211.116 124.055C211.148 125.448 210.647 126.795 210.257 128.099C210.115 129.049 209.769 130.463 210.453 131.216C211.882 133.209 214.301 131.49 215.516 129.989Z" fill="white"/>
<path d="M213.173 120.434C213.377 119.97 213.271 119.373 212.985 118.975C212.898 118.753 212.699 118.576 212.432 118.554L212.277 118.487C211.966 118.354 211.631 118.485 211.495 118.795C211.291 119.258 211.198 119.678 211.261 120.165C211.391 120.497 211.677 120.895 212.099 120.984C212.522 121.074 212.968 120.898 213.173 120.434Z" fill="white"/>
<path d="M227.98 124.954C228.364 124.292 227.525 123.472 227.03 124.178C226.714 124.686 226.329 125.348 225.659 125.612C225.436 125.7 225.286 124.992 225.243 124.882C224.851 123.886 224.682 122.803 224.178 121.851C223.718 121.01 223.146 120.213 222.19 120.078C221.123 119.987 220.559 120.848 220.107 121.665C219.355 121.067 218.53 121.264 217.835 121.793C217.593 121.505 216.836 121.548 216.786 122.078C216.366 124.288 216.636 126.61 216.638 128.909C216.564 129.704 217.812 129.597 217.885 128.801C217.989 127.099 217.671 125.308 217.886 123.562L217.998 123.518C218.134 123.209 218.81 122.304 219.232 122.393C219.698 122.593 219.916 123.146 220.09 123.589C220.525 124.695 220.738 125.889 220.683 127.06C220.609 127.856 221.857 127.748 221.93 126.953C222.01 125.516 221.71 124.1 221.188 122.773L221.256 122.618C221.46 122.155 221.782 121.006 222.558 121.339C223.067 121.65 223.329 122.313 223.546 122.866C223.895 123.751 224.02 124.724 224.48 125.565C225.239 127.822 227.056 126.212 227.98 124.954Z" fill="white"/>
<path d="M232.863 123.925C231.523 124.453 230.083 123.742 229.424 122.724C230.739 122.462 231.682 121.579 231.761 120.143C231.816 118.971 230.735 117.864 229.55 118.458C227.962 119.339 227.474 121.703 228.307 123.164C229.271 124.956 231.4 125.779 233.343 125.142C233.969 124.768 233.534 123.661 232.863 123.925ZM230.47 120.14C230.552 121.002 229.813 121.421 229.056 121.463C228.994 120.977 229.155 120.402 229.626 119.961C230.01 119.299 230.389 119.278 230.47 120.14Z" fill="white"/>
</g>
<g clip-path="url(#clip2)">
<path d="M177.93 24.6906C183.226 20.133 190.778 21.7364 196.345 17.7747C200.259 14.9217 199.71 8.16644 195.786 5.45594C184.449 -2.51278 176.138 14.0087 174.195 22.7924C173.842 24.3895 175.56 25.4061 176.603 24.9332C177.036 25.0959 177.483 24.8933 177.93 24.6906Z" fill="#FAA61A"/>
<path d="M173.937 23.8076C173.802 23.5096 173.815 23.1442 173.829 22.7787C175.31 16.5395 179.866 6.39071 186.556 3.71587C189.602 2.51358 192.729 3.07111 195.8 5.09056C197.153 6.09336 198.126 7.44781 198.721 9.15391C199.639 11.9703 199.135 15.6112 196.277 17.6259C193.568 19.5729 190.468 20.2608 187.3 20.7997C184.118 21.7041 180.869 22.4595 178.146 24.7721C177.767 25.1237 177.103 25.245 176.67 25.0822C176.074 25.3525 175.641 25.1897 175.059 25.0944C174.559 24.7827 174.139 24.2544 173.937 23.8076Z" fill="#FAA61A"/>
<path d="M193.51 9.54228C193.295 7.48454 190.914 6.58919 189.154 6.66899C187.028 6.73495 184.848 8.26282 184.467 10.5908C184.439 11.3218 185.238 11.4984 185.834 11.2281C187.931 11.8931 193.765 12.4799 193.51 9.54228Z" fill="white"/>
<path d="M175.595 34.1917C175.595 34.1917 186.604 29.5575 194.265 30.2135C201.777 30.937 205.943 34.9743 203.137 39.4797C200.332 43.9851 189.925 40.4436 187.341 39.1014C184.458 37.8943 175.595 34.1917 175.595 34.1917Z" fill="#FAA61A"/>
<path d="M197.548 38.2431C197.995 38.0405 198.239 37.3909 197.82 36.8626L197.752 36.7137C197.617 36.4158 197.401 36.3344 197.035 36.3205C195.736 35.8322 194.395 36.4402 193.204 36.9807C192.757 37.1834 192.58 37.9819 192.932 38.3612C193.067 38.6592 193.5 38.8219 193.649 38.7544C194.15 39.0661 194.799 39.3103 195.314 39.2566C196.275 39.0002 196.803 38.581 197.548 38.2431Z" fill="white"/>
</g>
<defs>
<clipPath id="clip0">
<rect width="243" height="141" fill="white" transform="translate(36 13.9995)"/>
</clipPath>
<clipPath id="clip1">
<rect width="57.7313" height="45.2969" fill="white" transform="matrix(0.93047 -0.366369 0.366352 0.930476 183.09 96.1196)"/>
</clipPath>
<clipPath id="clip2">
<rect width="31.5678" height="40.0731" fill="white" transform="translate(166 13.0396) rotate(-24.3976)"/>
</clipPath>
</defs>
</svg>
