<svg width="263" height="144" viewBox="0 0 263 144" fill="none" xmlns="http://www.w3.org/2000/svg">
<g clip-path="url(#clip0)">
<path d="M106.771 131C106.771 131 102.859 124.653 103.022 116.68C103.185 108.706 108.238 101.383 108.238 101.383C108.238 101.383 122.583 108.868 134.157 98.2908C145.567 87.7131 142.307 72.0908 140.188 67.3715L138.069 62.4895C138.069 62.4895 150.295 59.5603 154.696 44.9144C159.097 30.2684 151.925 19.2026 141.981 15.9479C131.875 12.856 126.006 16.5988 126.006 16.5988C126.006 16.5988 121.768 1.6274 108.564 6.97821e-05C95.3606 -1.46453 86.7211 5.69572 84.276 8.13672C81.8308 10.5777 81.5048 12.3678 81.5048 12.3678C81.5048 12.3678 70.4202 1.6274 57.7054 4.23113C44.9907 6.83485 42.2195 15.297 40.7524 17.5752C39.2854 19.8535 39.2854 21.3181 39.2854 21.3181C39.2854 21.3181 24.9405 16.2734 15.323 23.7591C5.5424 31.2448 7.1725 41.1715 9.29163 46.2162C11.4108 51.2609 14.3449 54.8411 14.3449 54.8411C14.3449 54.8411 -0.814957 61.1876 0.326111 79.0883C1.30417 96.9889 15.975 100.406 20.8653 99.9181C25.7556 99.2672 29.5048 99.4299 29.5048 99.4299L30.3198 99.5926C30.3198 99.5926 31.2979 113.588 44.0126 118.632C56.8904 123.677 65.8559 117.005 68.7901 114.89C71.7242 112.611 74.0064 110.008 74.0064 110.008C74.0064 110.008 78.4076 124.491 87.5361 127.908C96.3387 131.326 106.771 131 106.771 131Z" fill="#004A76"/>
<path fill-rule="evenodd" clip-rule="evenodd" d="M128.985 28.5825C128.871 28.8235 128.771 29.0344 128.679 29.2673C128.552 29.6127 128.477 29.9639 128.312 30.2733C127.874 31.0808 127.466 31.9023 126.8 32.568C126.763 32.6062 126.727 32.6444 126.698 32.7046C126.431 33.1506 126.04 33.3923 125.543 33.548C125.156 33.6634 125.081 33.6655 124.857 33.3231C124.484 32.7102 124.112 32.0973 123.739 31.4844C123.429 30.9736 123.088 30.4489 122.542 30.1233C122.186 29.9035 121.844 29.6536 121.502 29.4037C121.85 28.9033 122.19 28.3809 122.538 27.8805C122.936 27.3118 123.184 26.6733 123.341 25.9929C123.411 25.768 123.376 25.5314 123.318 25.3028C123.179 24.7796 122.856 24.3732 122.438 24.0513C121.905 23.6213 121.285 23.6469 120.871 23.8967C120.503 24.1304 120.142 24.386 119.849 24.6917C119.403 25.1281 118.918 25.5285 118.548 26.037C118.446 26.1736 118.308 26.3485 118.063 26.4374C118.194 25.2675 118.289 24.1359 118.458 23.0021C118.62 21.8462 118.587 20.7109 118.546 19.5535C118.537 19.1082 118.415 18.7033 118.242 18.2925C117.934 17.5811 117.596 17.4796 116.939 17.8925C116.88 17.9388 116.822 17.9851 116.755 18.0093C116.349 18.2812 116.149 18.7029 115.988 19.1607C115.791 19.7309 115.782 20.3328 115.712 20.9067C115.632 21.6591 115.7 22.4072 115.725 23.1714C115.735 23.6167 115.864 24.0437 115.926 24.4949C116.171 26.077 116.296 27.6775 116.629 29.2274C116.679 29.4339 116.653 29.6425 116.606 29.8593C116.52 30.3891 116.367 30.8689 116.108 31.337C115.877 31.7448 115.685 32.1886 115.477 32.5883C115.42 32.7088 115.341 32.8374 115.253 32.944C115.042 33.1952 114.735 33.182 114.52 32.9358C114.359 32.7697 114.332 32.5551 114.327 32.3324C114.268 31.6806 114.223 30.9987 114.141 30.355C114.111 29.9919 113.991 29.6613 113.797 29.3328C113.549 28.9241 113.167 28.9131 112.757 28.9622C112.399 29.0173 112.232 29.2524 112.15 29.5816C112.055 30.0152 112.026 30.4245 112.133 30.8595C112.191 31.088 112.188 31.2887 112.126 31.5355C112.043 31.8647 111.893 32.144 111.681 32.3952C111.47 32.6465 111.289 32.9118 111.077 33.1631C111.027 33.2314 110.946 33.2858 110.887 33.332C110.548 33.2306 110.483 32.98 110.365 32.7235C110.033 31.946 109.918 31.1399 109.825 30.3257C109.746 29.7562 109.785 29.1683 109.854 28.5944C109.888 28.4077 109.943 28.213 110.029 28.0323C110.264 27.4981 110.94 27.2777 111.425 27.5754C111.554 27.6533 111.691 27.7533 111.819 27.8312C112.045 27.5498 112.032 27.3051 111.87 27.0648C111.739 26.9126 111.571 26.7245 111.389 26.6407C111.042 26.5172 110.673 26.4018 110.284 26.3686C109.714 26.3259 109.233 26.5257 108.801 26.932C108.317 27.4067 107.903 27.9313 107.556 28.5059C106.901 29.6169 106.731 30.7507 107.169 31.9632C107.377 32.5364 107.584 33.1096 107.799 33.7049C107.691 33.8937 107.575 34.0605 107.467 34.2494C107.373 34.4081 107.265 34.5969 107.149 34.7637C106.882 35.2097 106.615 35.6557 106.357 36.1238C106.22 36.3728 106.015 36.572 105.724 36.6028C105.358 36.6358 104.988 36.7952 104.625 36.6276C103.787 36.2586 103.182 35.6302 102.679 34.8652C102.752 34.7888 102.766 34.7586 102.781 34.7285C103.506 34.3656 103.985 33.7425 104.405 33.0915C104.977 32.2355 105.27 31.306 105.203 30.2831C105.185 29.8157 105.062 29.3366 104.696 29.0206C104.047 28.4084 103.278 28.1635 102.402 28.4566C101.98 28.6101 101.581 28.8298 101.166 29.0054C100.884 29.1324 100.619 29.3036 100.43 29.5468C99.8975 30.164 99.4861 30.8371 99.3165 31.6218C99.269 31.8386 99.2214 32.0554 99.1962 32.2641C99.0584 33.137 99.032 33.9696 99.2902 34.8235C99.3699 35.044 99.4051 35.2806 99.4323 35.4952C99.4834 35.7759 99.4325 35.8442 99.1654 35.9412C98.7568 36.0646 98.3705 36.1799 97.9619 36.3033C97.8728 36.3356 97.7758 36.3459 97.6121 36.3804C97.6517 36.1416 97.6627 35.963 97.7039 35.7984C97.8529 35.0959 97.7776 34.4 97.4416 33.7489C97.2616 33.3903 97.0149 33.0559 96.7682 32.7215C96.4291 32.271 95.9598 32.0174 95.4254 31.8623C94.425 31.602 93.4533 31.6305 92.5457 32.1845C91.9035 32.5672 91.2836 32.9419 90.834 33.5789C90.645 33.8221 90.4639 34.0874 90.1619 34.2968C90.0965 34.0462 90.0471 33.8397 89.9754 33.6413C89.8957 33.4208 89.816 33.2003 89.7141 32.988C89.574 32.7396 89.3465 32.5977 89.0412 32.6586C88.8997 32.6851 88.7645 32.6593 88.6293 32.6336C88.2317 32.5784 87.9583 32.7276 87.809 33.081C87.6598 33.4344 87.5933 33.8077 87.6317 34.1928C87.7053 34.8145 87.7789 35.4361 87.8303 36.0659C87.992 37.6282 88.3398 39.1479 88.6431 40.6838C88.7675 41.2371 88.9444 41.7963 89.0911 42.3416C89.3145 43.308 90.2465 47.9074 90.6325 49.4631C90.7888 50.1047 91.0643 50.7279 91.2874 51.3452C91.3193 51.4333 91.3734 51.5135 91.4196 51.5715C91.7204 51.986 92.3964 52.1147 92.7904 51.6724C92.9001 51.5578 93.04 51.4571 93.1655 51.3866C93.5057 51.2132 93.6788 50.9259 93.6404 50.5409C93.6036 50.23 93.5748 49.9412 93.5157 49.6385C93.2748 48.5538 93.1932 47.9101 92.9523 46.8254C92.804 46.2059 92.6858 45.6004 92.5375 44.9809C92.2966 43.8963 92.0334 42.8197 91.7703 41.7431C91.539 40.7547 91.3219 39.7362 91.1129 38.7397C90.9549 38.024 90.797 37.3082 90.639 36.5925C90.5816 36.3639 90.5687 36.1192 90.6688 35.9083C90.7751 35.6453 90.8735 35.3602 91.0101 35.1111C91.4849 34.2654 92.1285 33.6078 92.9933 33.1442C93.2444 33.0032 93.5052 32.9584 93.766 32.9136C94.1237 32.8585 94.3672 33.0445 94.5169 33.3892C94.6045 33.6317 94.7287 33.836 94.8164 34.0785C94.8801 34.2548 94.9581 34.4011 94.9773 34.5936C95.1114 35.2432 95.1787 35.9171 95.1855 36.563C95.1841 36.8378 95.1748 37.0906 95.0541 37.3838C94.7584 37.541 94.4628 37.6982 94.1369 37.8415C93.4183 38.1522 92.8223 38.593 92.3887 39.2742C92.2076 39.5394 92.0869 39.8326 92.1762 40.1493C92.2894 40.5322 92.4026 40.915 92.5523 41.2597C92.8614 42.0453 93.9094 42.0888 94.3782 41.6443C94.9423 41.1153 95.454 40.5804 95.9036 39.9434C96.3023 39.3747 96.6183 38.7861 96.9566 38.1895C97.0932 37.9404 97.2474 37.8096 97.5145 37.7126C98.233 37.4019 98.9834 37.1794 99.6399 36.7665C99.6987 36.7202 99.7814 36.7401 99.8705 36.7077C99.9405 36.8319 100.011 36.9561 100.081 37.0803C100.699 38.3025 101.714 38.8817 103.056 39.0428C103.423 39.084 103.781 39.0289 104.115 38.9077C104.663 38.6837 105.25 38.4956 105.79 38.2496C106.027 38.1386 106.256 38.0057 106.425 37.8448C106.857 37.4385 107.198 36.9903 107.464 36.47C107.578 36.229 107.715 35.9799 107.829 35.7389C107.929 35.528 108.029 35.3172 108.099 35.0923C108.154 34.8976 108.248 34.7389 108.424 34.6C108.509 34.6941 108.571 34.7962 108.647 34.8683C109.198 35.4165 109.829 35.5614 110.586 35.2867C111.209 35.0604 111.587 34.574 111.867 34.0237C112.067 33.6019 112.358 33.222 112.648 32.8422C112.846 32.9701 112.895 33.1766 112.959 33.3529C113.376 34.2987 114.055 34.5759 115.011 34.1542C115.078 34.13 115.136 34.0837 115.203 34.0594C115.752 33.8354 116.087 33.4394 116.3 32.9133C116.428 32.6421 116.549 32.3489 116.678 32.0778C116.72 31.9874 116.793 31.911 116.873 31.7824C116.898 31.9228 116.922 31.9889 116.938 32.033C117.039 32.5202 117.139 33.0074 117.248 33.5167C117.339 33.9076 117.452 34.2905 117.713 34.5948C118.028 34.9791 118.469 34.9439 118.743 34.52C118.925 34.2547 119.009 33.9997 118.934 33.6529C118.801 33.0775 118.691 32.494 118.603 31.9025C118.55 31.5475 118.52 31.1845 118.475 30.8516C118.742 30.7547 118.973 30.6959 119.165 30.6011C119.491 30.4579 119.776 30.4792 120.08 30.6931C120.802 31.2289 121.473 31.8331 122.123 32.4453C122.428 32.7334 122.728 33.0737 122.996 33.4C123.304 33.7623 123.662 34.0563 124.093 34.2739C124.214 34.3297 124.357 34.3775 124.492 34.4032C124.74 34.4628 124.987 34.4481 125.231 34.3593C125.707 34.2116 126.251 34.114 126.624 33.754C127.107 33.2793 127.536 32.7246 127.951 32.2C128.052 32.0633 128.108 31.8686 128.21 31.7319C128.674 31.0648 129.039 30.3336 129.261 29.5547C129.55 29.1007 129.486 28.9243 128.985 28.5825ZM116.973 22.7932C116.936 22.4823 116.885 22.2016 116.848 21.8908C116.776 21.3433 116.704 20.7958 116.677 20.2322C116.675 19.8089 116.8 19.3894 117.039 19.0036C117.104 18.9052 117.229 18.8346 117.347 18.7421C117.417 18.8663 117.471 18.9464 117.481 19.0426C117.522 19.2271 117.578 19.3814 117.567 19.56C117.569 20.6813 117.654 21.8225 117.455 22.9424C117.401 23.2114 117.4 23.4862 117.368 23.747C117.355 23.8514 117.335 23.9337 117.322 24.038C117.051 23.6375 117.027 23.2223 116.973 22.7932ZM93.9114 40.492C93.6841 40.6992 93.4107 40.8483 93.0862 40.7167C92.989 40.378 93.1096 40.0848 93.313 39.8115C93.6403 39.3934 94.0758 39.1355 94.5844 38.8012C94.5467 39.4633 94.2483 40.1702 93.9114 40.492ZM101.814 32.2615C101.812 32.1873 101.81 32.1131 101.786 32.0469C101.565 31.5039 101.778 30.9777 101.893 30.4619C101.914 30.3796 101.943 30.3194 101.971 30.2591C102.345 29.8991 102.78 29.6412 103.327 29.692C103.852 29.7509 104.083 30.0412 104.117 30.5526C104.135 31.02 104.025 31.4836 103.855 31.9194C103.622 32.5278 103.244 33.0142 102.805 33.4727C102.681 33.6174 102.489 33.7122 102.29 33.8591C102.039 33.3021 101.789 32.8193 101.814 32.2615ZM119.704 27.5627C119.205 27.9932 118.728 28.4157 118.237 28.8683C118.052 28.636 118.071 28.4795 118.179 28.2907C118.417 27.9049 118.625 27.5052 118.894 27.1334C119.51 26.2612 120.203 25.4611 121.079 24.819C121.174 24.7345 121.308 24.686 121.5 24.5912C121.467 24.7779 121.476 24.8742 121.441 24.9866C121.006 25.9425 120.533 26.8625 119.704 27.5627Z" fill="#EC1C24"/>
<path fill-rule="evenodd" clip-rule="evenodd" d="M85.2255 37.0532C85.0521 36.9914 84.9072 36.8694 84.7704 36.7694C84.0941 36.2916 83.3685 35.9563 82.6207 35.6291C82.0464 35.3637 81.4371 35.2107 80.8341 35.0056C80.4046 34.8622 80.0036 34.6585 79.7186 34.288C79.4496 33.9617 79.5145 33.514 79.8149 33.2304C80.0279 33.0533 80.2186 32.8843 80.4316 32.7071C80.9896 32.2302 81.6654 32.0098 82.3349 31.8416C82.4462 31.8012 82.5814 31.8269 82.7309 31.8225C82.8933 32.0629 82.9953 32.2753 83.1338 32.4496C83.2723 32.6238 83.4759 32.6995 83.7065 32.6407C83.9371 32.582 84.1039 32.3468 84.0688 32.1101C84.0319 31.7992 83.9649 31.4743 83.8756 31.1575C83.7783 30.8187 83.5126 30.6408 83.188 30.5092C82.8635 30.3775 82.504 30.3584 82.1684 30.4054C81.289 30.55 80.435 30.8351 79.691 31.3546C78.7929 32.005 78.0697 32.7913 77.4692 33.7078C77.2881 33.9731 77.1754 34.2884 77.0547 34.5816C76.9912 34.7544 76.9436 34.9712 76.9629 35.1638C77.0494 36.0303 77.3648 36.7639 78.2113 37.1551C78.302 37.197 78.4006 37.2609 78.4913 37.3028C79.2311 37.608 79.963 37.8911 80.6949 38.1741C80.8158 38.23 80.951 38.2558 81.0496 38.3197C81.7021 38.7314 82.3767 39.135 82.9926 39.5849C83.2966 39.7989 83.5719 40.0731 83.825 40.3554C84.0861 40.6597 84.2216 41.0346 84.2155 41.4359C84.2094 41.8372 84.1206 42.2186 83.8362 42.5464C83.7265 42.661 83.663 42.8338 83.5836 42.9624C83.2372 43.5371 82.8288 44.0096 82.2374 44.3241C81.2834 44.8201 80.2577 45.1176 79.2559 45.4813C78.7884 45.651 78.3223 45.5459 77.8848 45.3804C77.6812 45.3047 77.5364 45.1827 77.5092 44.968C77.4836 44.8276 77.4581 44.6873 77.4548 44.5388C77.507 44.1955 77.5592 43.8523 77.6719 43.537C77.8259 43.0571 77.3628 42.7512 76.9987 42.8585C76.8651 42.907 76.7172 42.9856 76.6219 43.0701C76.3517 43.3678 76.142 43.6933 76.0611 44.0968C75.9391 44.665 75.9808 45.1986 76.18 45.7499C76.4526 46.5739 77.0319 47.062 77.8877 47.2003C78.4509 47.2952 79.0107 47.2416 79.5609 47.0918C80.1556 46.9257 80.7344 46.7156 81.3611 46.6378C81.5551 46.6172 81.7475 46.5225 81.9176 46.4358C82.6347 46.0507 83.3437 45.6436 84.0528 45.2365C84.932 44.7427 85.7428 44.199 86.4214 43.4288C86.6185 43.2076 86.7631 42.9805 86.8615 42.6953C87.0377 42.2073 87.1009 41.6855 87.1944 41.1776C87.2466 40.8343 87.2241 40.4933 87.1348 40.1765C86.9578 39.6171 86.7729 39.0357 86.5514 38.4925C86.2838 37.8913 85.9048 37.3304 85.2255 37.0532Z" fill="#EC1C24"/>
<path fill-rule="evenodd" clip-rule="evenodd" d="M26.0219 66.1426C25.1184 63.5024 24.1846 60.8483 23.2811 58.2081C23.1983 58.1882 23.1681 58.1743 23.1458 58.1823C22.737 58.3058 22.4267 58.1441 22.2468 57.7854C22.1448 57.573 22.0429 57.3606 21.9632 57.1401C21.9473 57.096 21.9234 57.0298 21.9297 56.9776C22.0807 56.6983 22.1552 56.347 22.4733 56.1816C23.1985 55.8185 23.9158 55.4334 24.6951 55.1504C25.2295 54.9563 25.7736 54.8586 26.3431 54.9012C26.4704 54.9049 26.5976 54.9086 26.7249 54.9122C27.8481 54.9534 28.7774 55.3643 29.4779 56.2573C29.8552 56.7439 30.2627 57.2445 30.4556 57.8479C30.4874 57.9361 30.5193 58.0243 30.5655 58.0824C30.7963 58.3727 30.9158 58.7035 31.0353 59.0342C31.1867 59.4532 31.3381 59.8722 31.4894 60.2911C31.6328 60.688 31.7317 61.1011 31.7861 61.5304C31.8582 62.4271 31.9303 63.3238 31.6953 64.2073C31.5636 64.6792 31.4016 65.1371 31.0884 65.5252C30.8913 65.7464 30.7244 65.9816 30.5272 66.2029C29.9485 66.7622 29.2678 67.1092 28.4772 67.2216C27.9777 67.3032 27.5021 67.451 26.9884 67.5627C26.683 67.6237 26.3998 67.6766 26.1246 67.7516C25.561 66.9585 25.5578 66.81 26.0219 66.1426ZM25.1625 57.3503C25.2551 57.8156 27.951 65.068 28.1293 65.3525C28.5318 65.2812 28.9103 65.1437 29.1869 64.7939C29.6018 64.269 29.8958 63.6884 29.8588 63.0283C29.8186 62.2198 29.6813 61.4216 29.5218 60.6314C29.3111 59.5605 28.8047 58.6469 28.3206 57.7252C28.1486 57.3885 27.8748 57.1886 27.5057 57.0732C27.197 56.9857 26.9186 56.9122 26.5989 57.0034C26.5098 57.0357 26.3825 57.032 26.2775 57.0203C25.8734 57.0173 25.5172 57.1467 25.1625 57.3503Z" fill="#F5A300"/>
<path fill-rule="evenodd" clip-rule="evenodd" d="M39.917 56.5852C40.0365 56.916 40.148 57.2247 40.2675 57.5554C40.6357 58.644 40.7652 59.7694 40.5733 60.9116C40.4354 61.7848 40.0175 62.5103 39.3337 63.0579C39.1795 63.1887 39.0093 63.2755 38.8168 63.3703C38.4908 63.5136 38.1265 63.6209 37.7925 63.7422C37.4585 63.8635 37.1292 63.8584 36.7966 63.7047C36.464 63.5511 36.0869 63.4137 35.74 63.2902C35.4234 63.1807 35.1798 62.9947 34.9935 62.6882C34.8311 62.4478 34.6687 62.2075 34.5063 61.9671C34.1735 61.4644 33.9075 60.9373 33.7084 60.3861C33.5075 59.7605 33.2765 59.1211 33.0311 58.5117C32.6679 57.6459 32.4908 56.7374 32.1944 55.8472C32.1705 55.7811 32.1466 55.7149 32.1449 55.6407C32.1923 55.0747 32.2175 54.5168 32.2951 53.9648C32.3411 53.6737 32.4777 53.4246 32.6447 53.1893C33.1088 52.5219 33.7354 52.0949 34.5004 51.842C34.6563 51.7854 34.8584 51.7869 35.0302 51.7744C35.0524 51.7663 35.1049 51.7722 35.1352 51.7862C36.384 51.7568 37.288 52.3764 38.0633 53.2673C38.9452 54.2441 39.4565 55.3805 39.917 56.5852ZM37.9854 61.6268C38.4497 61.3085 38.6356 60.9168 38.7149 60.439C38.8195 59.7525 38.7523 59.0784 38.5658 58.4228C38.3633 57.723 38.1084 57.0174 37.8614 56.3338C37.5523 55.5481 37.1319 54.8027 36.5795 54.1802C36.4569 54.0501 36.3264 53.8979 36.1609 53.8582C35.7393 53.7369 35.3192 53.6899 34.8978 53.9178C34.5797 54.0831 34.4271 54.2882 34.4496 54.6293C34.48 54.9924 34.5407 55.3695 34.6761 55.7443C35.033 56.6624 35.3676 57.5885 35.7245 58.5066C35.8759 58.9255 36.005 59.3526 36.3123 59.715C36.3966 59.8091 36.4222 59.9495 36.4843 60.0516C36.7249 60.7874 37.2963 61.2534 37.9854 61.6268Z" fill="#F5A300"/>
<path fill-rule="evenodd" clip-rule="evenodd" d="M63.5526 42.5982C63.3426 42.5747 63.1406 42.5732 62.9672 42.5115C62.8017 42.4718 62.6506 42.402 62.536 42.2939C62.1619 41.9558 62.2698 41.4178 62.7231 41.2782C62.8121 41.2458 62.9091 41.2356 62.9839 41.2334C63.1255 41.2069 63.275 41.2025 63.4006 41.1319C63.7695 40.8982 64.1878 40.871 64.5823 40.7777C64.9545 40.6924 65.2933 40.7939 65.572 41.2165C65.6882 41.3988 65.7678 41.6192 65.8475 41.8397C66.4912 43.5515 67.1348 45.2633 67.7864 46.9971C68.1592 47.9592 68.5622 48.9353 68.9573 49.8893C69.115 50.256 69.3093 50.5846 69.4892 50.9432C69.5991 51.1777 69.9603 51.271 70.2799 51.1799C70.3913 51.1395 70.4723 51.0851 70.5837 51.0447C71.1403 50.8426 71.4651 51.3232 71.4224 51.7627C71.3907 52.0237 71.2906 52.2346 71.0617 52.3676C70.4701 52.6822 69.8673 52.8262 69.2468 52.5028C69.0876 52.411 68.9285 52.3191 68.7837 52.1971C68.2871 51.7289 67.8716 51.2063 67.5515 50.5992C67.4815 50.475 67.3891 50.3589 67.2268 50.1186C67.2396 50.3633 67.2349 50.4897 67.2525 50.6081C67.3912 51.1314 67.3804 51.6591 67.2041 52.1471C67.1263 52.3499 67.0564 52.5749 66.8799 52.7138C66.8211 52.7601 66.7702 52.8284 66.7416 52.8887C66.5065 53.423 66.0549 53.6369 65.5428 53.8228C65.1563 53.9382 64.7682 53.9794 64.4214 53.8559C63.75 53.6008 63.0928 53.3157 62.6375 52.6828C62.499 52.5087 62.3971 52.2962 62.3254 52.0978C62.0147 51.2379 61.712 50.4 61.4013 49.5401C61.1623 48.8786 60.9313 48.2391 60.6255 47.6019C60.3356 47.0088 60.1571 46.3752 59.9261 45.7358C59.7827 45.3389 59.6027 44.9802 59.3925 44.6076C59.2062 44.3011 58.9707 44.1372 58.6271 44.1622C58.4776 44.1666 58.3281 44.171 58.1929 44.1453C57.8334 44.1262 57.6201 43.9542 57.5531 43.6293C57.4861 43.3045 57.637 43.0252 57.9631 42.8819C58.1189 42.8253 58.2668 42.7466 58.4163 42.7422C58.7154 42.7334 58.9825 42.6364 59.2497 42.5394C59.3388 42.507 59.4278 42.4747 59.4946 42.4504C60.0974 42.3064 60.6385 42.7584 60.7582 43.4383C60.7838 43.5786 60.8173 43.7411 60.8651 43.8734C61.1296 44.6752 61.4244 45.4911 61.7111 46.2848C61.8386 46.6376 62.0329 46.9662 62.1826 47.3109C62.3244 47.6335 62.4741 47.9782 62.6159 48.3009C62.9265 49.1608 63.2515 49.9906 63.54 50.8586C63.7232 51.3658 64.0972 51.7039 64.4855 52.0118C64.729 52.1978 65.0662 52.225 65.3191 52.1581C65.6086 52.053 65.812 51.7796 65.842 51.4444C65.8831 50.9307 65.8494 50.4191 65.7775 49.8716C65.6784 49.1094 65.379 48.42 65.2354 47.674C65.1061 46.8979 64.8352 46.1482 64.6089 45.3823C64.4638 44.9112 64.2743 44.4562 64.0402 44.0175C63.8586 43.5846 63.7279 43.0833 63.5526 42.5982Z" fill="#F5A300"/>
<path fill-rule="evenodd" clip-rule="evenodd" d="M53.4136 51.4654C53.2542 51.0244 53.0726 50.5915 52.9356 50.1424C52.8463 49.8256 52.7872 49.5228 52.698 49.206C52.6661 49.1178 52.6788 49.0134 52.6549 48.9472C52.4271 48.4562 52.5206 47.9483 52.5251 47.4728C52.5313 47.0714 52.7554 46.7157 52.9349 46.3761C53.0001 46.2776 53.1178 46.185 53.2211 46.1225C53.7762 45.8462 54.3535 45.5617 54.9308 45.2773C55.3379 45.0796 55.7865 45.0663 56.2018 45.2398C57.3411 45.6742 58.269 46.36 58.906 47.4258C59.5349 48.4695 59.919 49.6022 60.2808 50.743C60.4083 51.0958 60.469 51.4729 60.5296 51.8499C60.6749 52.6702 60.2637 54.0418 59.7773 54.7173C59.1605 55.5897 58.2237 55.8551 57.2789 56.0983C57.1373 56.1248 56.9575 56.1152 56.7921 56.0755C56.0013 55.8389 55.3043 55.4434 54.8759 54.676C54.6975 54.3916 54.5335 54.077 54.3329 53.8006C53.9699 53.2839 53.7993 52.6724 53.5842 52.077C53.565 51.8844 53.4853 51.6639 53.4136 51.4654ZM58.5528 50.0734L58.575 50.0653C58.2994 49.442 58.0239 48.8187 57.7483 48.1954C57.3947 47.4258 56.7581 47.0583 55.9673 46.8216C55.7414 46.754 55.5553 46.7966 55.3724 46.9877C55.1673 47.1869 55.045 47.4059 55.0213 47.6889C55.0009 48.1204 55.025 48.5356 55.1763 48.9546C55.3516 49.4397 55.5492 49.9168 55.6576 50.4261C55.7167 50.729 55.798 51.0237 55.8793 51.3185C56.0738 51.9962 56.4162 52.5952 56.7665 53.2163C56.9847 53.611 57.2554 54.0116 57.7232 54.191C57.9348 54.2887 58.1289 54.2681 58.2752 54.1153C58.5311 53.8477 58.7791 53.5581 58.8902 53.1685C59.0553 52.51 59.0708 51.8558 58.8621 51.2082C58.7711 50.8172 58.6659 50.4563 58.5528 50.0734Z" fill="#F5A300"/>
<path fill-rule="evenodd" clip-rule="evenodd" d="M49.6824 58.1305C49.6568 57.9901 49.625 57.9019 49.5931 57.8137C49.147 56.5789 48.7009 55.3442 48.277 54.1014C48.1177 53.6604 47.8487 53.3341 47.4763 53.0702C47.1803 52.8784 46.8907 52.6344 46.617 52.4344C46.609 52.4124 46.5868 52.4205 46.5788 52.3984C45.8357 51.945 45.18 51.3849 44.5243 50.8249C44.0596 50.4449 43.5504 50.0811 43.0412 49.7172C42.7056 49.7643 42.3859 49.8554 42.0423 49.8804C41.6765 49.9135 41.4187 49.7576 41.2929 49.4791C41.1511 49.1564 41.2622 48.7669 41.5723 48.5795C41.7202 48.5009 41.8681 48.4222 42.0239 48.3656C42.8255 48.0746 43.6349 47.8056 44.4365 47.5146C44.5478 47.4741 44.6368 47.4418 44.7641 47.4455C45.1077 47.4205 45.4355 47.7005 45.4802 48.0335C45.4995 48.226 45.4805 48.3826 45.296 48.4994C45.1561 48.6001 44.9859 48.6868 44.9161 48.9117C45.0991 49.0698 45.2964 49.1976 45.4874 49.3777C45.8073 49.6357 46.0906 49.9319 46.4184 50.2119C46.4487 50.2259 46.4646 50.27 46.4948 50.2839C46.5633 50.3339 46.6015 50.3699 46.6699 50.4199C47.1791 50.7837 47.6883 51.1475 48.2278 51.5253C48.6565 50.2722 48.95 48.9934 49.2054 47.6785C49.0701 47.6528 48.9429 47.6491 48.8299 47.6153C48.6645 47.5756 48.4768 47.544 48.3399 47.4441C47.9675 47.1802 47.9784 46.6525 48.3918 46.4026C48.4363 46.3864 48.4951 46.3401 48.5397 46.324C49.2076 46.0814 49.8755 45.8389 50.5355 45.5743C50.7136 45.5096 50.8934 45.5192 51.0668 45.5809C51.6236 45.7279 51.8164 46.3314 51.4445 46.7657C51.2982 46.9186 51.1138 47.0354 50.9373 47.1743C50.8562 47.2287 50.7449 47.2692 50.7004 47.2853C50.3782 48.6244 50.0625 49.9113 49.7769 51.2122C49.6691 51.7502 49.5994 52.3242 49.5663 52.86C49.5553 53.0386 49.6493 53.229 49.721 53.4274C50.1272 54.5519 50.5478 55.6463 50.9764 56.7627C51.064 57.0052 51.1596 57.2698 51.2631 57.5565C51.4492 57.5138 51.6051 57.4573 51.7912 57.4146C51.947 57.358 52.0949 57.2794 52.2587 57.2449C52.6674 57.1214 53.0684 57.325 53.1736 57.6858C53.3011 58.0386 53.1375 58.4223 52.7669 58.5818C52.4552 58.6949 52.1578 58.778 51.8302 58.8471C51.6664 58.8816 51.4946 58.8941 51.361 58.9426C50.6708 59.1932 49.9583 59.4519 49.2761 59.7246C48.8531 59.8782 48.4521 59.6746 48.42 59.2373C48.3753 58.9044 48.5485 58.617 48.8968 58.4656C49.059 58.3568 49.3261 58.2598 49.6824 58.1305Z" fill="#F5A300"/>
<g clip-path="url(#clip1)">
<path d="M77.7249 83.3952C78.2819 81.7273 75.4969 81.0323 75.0792 82.7002C74.8007 83.3952 74.5222 84.0901 73.9652 84.5071C72.7119 82.1442 71.3194 79.5034 69.2307 78.1135C67.4205 76.8625 66.3065 78.1135 65.6102 79.9204C64.7747 79.7814 63.6607 80.4763 63.8 81.5883C64.4962 84.9241 65.6102 88.2599 66.585 91.5957C67.142 93.2636 69.7877 92.5686 69.2307 90.9007C68.6737 88.8159 67.9775 86.731 67.2812 84.6461V84.3681C67.4205 83.2562 67.5597 81.8662 67.9775 80.8933C68.1167 81.0323 68.3952 81.3103 68.5345 81.4493C70.0662 83.2562 71.0409 85.48 72.2942 87.4259C72.7119 87.9819 73.5474 88.3989 74.2437 87.9819C75.9147 86.731 77.1679 85.341 77.7249 83.3952Z" fill="white"/>
<path d="M91.2316 91.1786C89.4214 87.0088 86.7756 83.1171 85.3831 78.6693C85.2439 78.2523 84.9654 77.9744 84.5476 77.8354C84.4084 77.5574 84.4084 77.2794 84.2691 77.1404C83.5729 75.6115 81.7627 75.1945 80.2309 75.6115C79.8132 75.7505 79.5347 76.0285 79.3954 76.3065C79.2562 76.3065 79.1169 76.1675 78.9777 76.1675C78.1422 76.1675 77.7244 76.8624 77.5852 77.5574C77.3067 79.7813 78.4207 81.8661 80.5094 82.7001C81.6234 83.1171 82.8766 82.7001 83.7121 82.0051C85.8009 87.0088 89.0036 91.5956 90.3961 96.8773C90.6746 98.1282 90.9531 99.3791 90.5354 100.769C89.6999 103.41 85.6616 102.159 84.5476 100.63C82.4589 97.8502 84.2691 93.5415 85.2439 90.7616C85.8009 89.0937 83.1551 88.3988 82.5981 90.0667C81.3449 93.9585 79.8132 98.2672 82.1804 102.02C84.6869 106.051 90.5354 105.912 93.0419 102.02C94.8521 98.9622 92.3456 93.8195 91.2316 91.1786ZM81.6234 80.0592C81.6234 80.0592 81.4842 80.0592 81.3449 80.0592C80.9272 79.9203 80.6487 79.6423 80.3702 79.0863C80.2309 78.8083 80.2309 78.5303 80.2309 78.1134C80.3702 78.1134 80.6487 78.1134 80.9272 78.1134C81.2057 78.1134 81.2057 77.9744 81.3449 77.9744H81.4842H81.6234L81.7627 78.1134V78.2524V78.3913C81.7627 78.3913 81.7627 78.3913 81.7627 78.5303V78.8083V78.9473L81.6234 79.3643L81.4842 79.6423C81.9019 79.6423 81.3449 80.1982 81.6234 80.0592Z" fill="white"/>
<path d="M97.0803 76.4454C93.8776 80.3372 91.0926 77.5574 89.4216 73.8046C90.5356 69.6348 92.3458 64.7701 90.8141 60.8783C89.9786 59.0714 88.1683 57.4035 86.3581 58.9324C84.8263 60.1834 84.5479 63.1022 84.5479 64.9091C84.5479 67.8279 85.2441 71.1637 86.4973 74.0826C86.4973 74.3605 86.3581 74.6385 86.3581 74.7775C86.0796 75.7505 87.0543 76.4454 87.7506 76.4454C88.1683 77.1404 88.5861 77.6964 89.0038 78.2523C92.0673 81.8661 96.1056 81.7271 99.0298 78.1133C100.144 77.0014 98.1943 75.0555 97.0803 76.4454ZM87.3328 66.716C87.1936 65.3261 87.1936 63.9361 87.4721 62.6852C87.4721 62.4072 87.6113 62.1293 87.7506 61.8513L87.8898 61.5733C88.3076 62.1292 88.4468 62.8242 88.4468 63.6582C88.4468 65.4651 88.1683 67.272 87.7506 69.0789C87.4721 68.1059 87.3328 67.272 87.3328 66.716Z" fill="white"/>
<path d="M103.207 78.1134C102.372 75.8895 101.676 73.6656 100.562 71.5808C99.7262 70.0518 97.3589 71.4418 98.1944 72.9707C99.1692 74.9166 99.7262 76.8624 100.562 78.9473C100.84 79.6423 101.397 80.1983 102.233 79.9203C102.929 79.6423 103.486 78.8083 103.207 78.1134Z" fill="white"/>
<path d="M98.6122 64.2143L98.4729 64.0753C97.7767 63.6583 96.9412 63.9363 96.5234 64.6313C96.1057 65.3262 96.3842 66.1602 97.0804 66.5772L97.2197 66.7162C97.9159 67.1331 98.7514 66.8552 99.1692 66.1602C99.4477 65.4652 99.1692 64.6313 98.6122 64.2143Z" fill="white"/>
<path d="M113.233 71.3029C111.98 70.1909 110.726 70.0519 109.055 70.1909C105.296 70.4689 107.524 67.4111 109.612 66.2992C111.144 65.4652 109.752 63.1023 108.22 63.9363C105.713 65.3262 102.093 69.079 105.017 71.8588C106.131 72.8318 107.245 73.1098 108.638 73.1098C109.334 73.1098 110.169 72.9708 110.866 73.1098C111.701 73.2488 111.701 74.7777 111.562 75.3336C111.283 76.0286 110.169 76.0286 109.473 76.0286C107.663 76.0286 107.663 78.8084 109.473 78.8084C111.423 78.8084 112.954 78.2525 114.068 76.5846C114.904 75.0557 114.486 72.4148 113.233 71.3029Z" fill="white"/>
<path d="M128.411 71.0248C127.715 71.8588 126.88 72.5537 126.044 73.2487C125.069 70.6079 123.398 67.689 120.892 66.8551C120.196 66.5771 119.499 66.5771 119.082 66.7161C118.246 62.4073 116.993 58.0986 117.132 53.6508C117.132 51.8439 114.486 51.8439 114.347 53.6508C114.208 59.4885 116.436 65.0482 116.854 70.7468C116.714 71.8588 116.854 72.8317 116.854 73.5267C116.993 75.3336 119.499 75.3336 119.639 73.5267C119.778 72.2758 119.639 71.1638 119.499 69.9129C119.639 69.4959 119.917 69.2179 120.613 69.7739C122.424 71.1638 123.398 73.5267 123.955 75.7506C124.234 76.7235 125.209 77.0015 126.044 76.5845C127.854 75.7506 129.108 74.3606 130.5 72.9707C131.614 71.7198 129.665 69.7739 128.411 71.0248Z" fill="white"/>
<path d="M54.1911 66.021C50.0136 66.438 46.3932 69.4958 46.6717 73.9436C46.9502 77.8354 50.8491 80.6152 54.6089 79.3643C56.0014 78.9473 55.4444 77.0014 54.0519 77.2794C49.5959 78.1134 44.7222 80.6152 42.2157 84.646C39.9877 88.3988 41.2409 93.1245 44.4437 95.9043C47.6464 98.8232 52.1024 99.5181 56.2799 98.5452C61.2928 97.2943 65.1918 93.6805 68.2553 89.7887C69.0908 88.6768 67.5591 87.1478 66.7236 88.2598C62.4068 93.8195 54.6089 99.9351 47.3679 95.4874C43.8867 93.4025 41.9372 88.8157 44.4437 85.2019C46.6717 82.0051 50.7099 80.1982 54.6089 79.5033C54.4696 78.8083 54.1911 78.1134 54.0519 77.4184C51.2669 78.2523 48.7604 76.1675 48.8996 73.3876C49.0389 70.4688 51.5454 68.5229 54.3304 68.2449C55.5836 67.9669 55.5836 65.8821 54.1911 66.021Z" fill="white"/>
</g>
</g>
<path d="M207.521 40.1457C207.521 40.1457 208.708 32.5346 216.653 32.2259C224.598 31.9172 226.247 39.85 220.395 46.4476C214.542 53.0451 206.209 60.3293 206.209 60.3293C206.209 60.3293 196.525 53.4213 191.51 45.5905C186.523 37.5211 188.625 30.2559 194.533 28.9898C200.441 27.7238 203.864 32.9532 205.427 35.7932C206.961 38.8719 207.521 40.1457 207.521 40.1457Z" fill="#8EB400"/>
<path d="M202.362 38.6008C202.659 36.2129 200.503 34.2731 198.109 34.2436C196.957 33.8707 195.538 33.7098 194.651 35.062C193.793 36.1755 194.058 37.9007 194.885 38.9631C196.332 40.8224 201.68 42.1558 202.362 38.6008ZM198.344 36.2076C198.817 36.2613 199.29 36.3149 199.496 36.5805C199.053 36.2881 198.58 36.2344 198.344 36.2076Z" fill="white"/>
<path d="M249.622 45.2094C249.622 45.2094 253.224 41.9827 257.229 45.0867C261.235 48.1907 258.89 52.7357 253.41 53.5566C247.93 54.3775 240.965 54.517 240.965 54.517C240.965 54.517 238.976 47.1808 239.635 41.3064C240.403 35.3277 244.315 32.6448 247.705 34.4472C251.095 36.2497 250.691 40.2026 250.327 42.2284C249.854 44.3585 249.622 45.2094 249.622 45.2094Z" fill="#8EB400"/>
<path d="M247.76 42.3755C248.853 41.3329 248.57 39.5047 247.413 38.5107C246.998 37.8573 246.369 37.1983 245.399 37.4943C244.538 37.6861 243.983 38.6356 243.965 39.492C243.933 40.9906 246.016 43.8295 247.76 42.3755ZM246.748 39.5644C246.958 39.7841 247.167 40.0037 247.163 40.2178C247.062 39.8939 246.853 39.6743 246.748 39.5644Z" fill="white"/>
<g clip-path="url(#clip2)">
<path d="M175.822 84.0499C175.822 84.0499 180.189 78.0766 188.419 80.054C196.621 82.269 195.865 90.3746 195.865 90.3746C195.865 90.3746 212.219 99.1389 217.309 108.928C222.399 118.718 223.002 121.686 223.002 121.686L254.692 137.642C254.692 137.642 255.47 139.185 252.491 139.783C249.78 140.173 244.11 137.064 238.352 134.667C232.356 132.241 216.367 126.416 216.367 126.416C216.367 126.416 205.152 134.922 189.728 128.442C174.304 121.963 176.229 104.355 176.609 101.267C176.75 98.15 177.904 94.6749 177.904 94.6749C177.904 94.6749 176.318 91.8272 175.865 89.6013C175.413 87.3754 175.082 86.129 175.082 86.129L171.14 82.7503L174.537 82.6861L174.62 80.0438L175.822 84.0499Z" fill="#1D1C1C"/>
<path d="M195.908 133.302L195.46 133.006C195.46 133.006 193.815 130.633 193.417 126.003C193.018 121.372 193.846 118.58 193.846 118.58C193.875 118.343 194.143 118.135 194.382 118.164C194.62 118.193 194.829 118.46 194.8 118.698C194.8 118.698 194.211 121.519 194.4 125.883C194.828 130.276 196.264 132.381 196.264 132.381L196.176 133.094L195.908 133.302Z" fill="#1D1C1C"/>
<path d="M206.31 133.376L206.071 133.347C205.833 133.318 205.025 132.013 203.823 128.007C202.412 123.734 203.386 119.754 203.415 119.517C203.445 119.279 203.712 119.071 203.951 119.1C204.189 119.13 204.399 119.397 204.369 119.634C204.369 119.634 203.634 123.643 204.836 127.649C206.038 131.655 206.875 132.723 206.875 132.723L206.787 133.435L206.31 133.376Z" fill="#1D1C1C"/>
<path d="M196.959 136.566L196.512 136.27C196.302 136.003 195.855 135.707 195.733 134.727C195.762 134.49 195.553 134.223 195.582 133.985C195.315 134.193 195.285 134.431 195.227 134.906C194.93 135.352 194.901 135.589 195.139 135.619L195.081 136.094C194.574 136.273 194.097 136.214 193.859 136.185C193.65 135.918 193.44 135.651 193.854 134.255C194.239 133.097 195.042 132.472 195.281 132.501L195.787 132.322L196.235 132.619C196.235 132.619 196.385 133.361 196.746 134.37C196.926 134.874 197.135 135.141 197.344 135.408C197.553 135.675 197.763 135.942 197.733 136.179C197.198 136.595 196.959 136.566 196.959 136.566Z" fill="#1D1C1C"/>
<path d="M197.94 134.517L197.492 134.22C197.492 134.22 197.312 133.716 196.625 133.39C195.701 133.035 195.044 132.472 195.044 132.472L195.131 131.76L195.847 131.848C195.847 131.848 196.056 132.115 196.981 132.47C198.144 132.854 198.504 133.863 198.504 133.863C198.713 134.13 198.446 134.338 198.178 134.546L197.94 134.517Z" fill="#1D1C1C"/>
<path d="M207.333 136.878L206.886 136.582C206.676 136.315 206.229 136.019 206.107 135.039C206.136 134.802 205.927 134.535 205.956 134.297C205.689 134.506 205.659 134.743 205.362 135.189C205.065 135.635 205.275 135.902 205.275 135.902L205.216 136.377C204.948 136.585 204.681 136.793 204.471 136.526C204.262 136.259 204.053 135.992 204.467 134.596C204.851 133.438 205.655 132.814 205.893 132.843L206.399 132.664L206.609 132.931C206.609 132.931 206.789 133.435 207.12 134.682C207.3 135.186 207.509 135.453 207.718 135.72C207.927 135.987 208.137 136.254 208.107 136.491C207.84 136.699 207.572 136.908 207.333 136.878Z" fill="#1D1C1C"/>
<path d="M208.548 134.858L208.1 134.561C208.1 134.561 207.92 134.057 207.234 133.731C206.309 133.376 205.891 132.843 205.652 132.813L205.74 132.101L206.455 132.189C206.455 132.189 206.665 132.456 207.589 132.81C208.753 133.195 209.113 134.204 209.113 134.204C209.322 134.47 209.054 134.679 208.786 134.887L208.548 134.858Z" fill="#1D1C1C"/>
</g>
<defs>
<clipPath id="clip0">
<rect width="156" height="131" fill="white" transform="matrix(-1 0 0 1 156 0)"/>
</clipPath>
<clipPath id="clip1">
<rect width="89.6767" height="52.4" fill="white" transform="translate(41.1016 52.3999)"/>
</clipPath>
<clipPath id="clip2">
<rect width="89.871" height="55.046" fill="white" transform="matrix(-0.992513 -0.122141 -0.122141 0.992513 260.922 88.9766)"/>
</clipPath>
</defs>
</svg>
