<svg width="208" height="129" viewBox="0 0 208 129" fill="none" xmlns="http://www.w3.org/2000/svg">
<path d="M186.258 36.1977C186.258 36.1977 189.334 29.0619 197.06 30.7031C204.785 32.3442 204.355 40.487 197.046 45.4932C189.737 50.4994 179.865 55.5689 179.865 55.5689C179.865 55.5689 172.301 46.4618 169.464 37.5955C166.716 28.5035 170.586 21.929 176.593 22.1381C182.601 22.3472 184.566 28.286 185.349 31.4391C186.043 34.8178 186.258 36.1977 186.258 36.1977Z" fill="#F5A300"/>
<path d="M181.605 33.4503C182.498 31.1921 180.916 28.7714 178.619 28.1572C177.605 27.5114 176.28 27.0075 175.082 28.1105C173.973 28.9876 173.789 30.7364 174.315 31.9756C175.235 34.1444 180.045 36.7537 181.605 33.4503ZM178.346 30.1318C178.788 30.2998 179.229 30.4678 179.36 30.7776C179.008 30.3838 178.567 30.2158 178.346 30.1318Z" fill="white"/>
<path d="M196.026 71.7893C196.026 71.7893 200.275 69.6102 203.415 73.6604C206.556 77.7105 203.213 81.4938 197.717 80.8546C192.222 80.2155 185.45 78.5286 185.45 78.5286C185.45 78.5286 185.262 70.912 187.288 65.4018C189.445 59.8193 193.864 58.2472 196.717 60.8774C199.57 63.5076 198.245 67.2257 197.414 69.0901C196.452 71.0269 196.026 71.7893 196.026 71.7893Z" fill="#EC1C24"/>
<path d="M194.979 68.5583C196.282 67.8361 196.44 65.9946 195.556 64.7309C195.31 63.9907 194.858 63.1892 193.85 63.2217C192.972 63.1821 192.211 63.9548 191.991 64.7781C191.607 66.2188 192.949 69.5081 194.979 68.5583ZM194.665 65.5759C194.815 65.843 194.966 66.1102 194.911 66.316C194.891 65.9766 194.74 65.7095 194.665 65.5759Z" fill="white"/>
<g clip-path="url(#clip0)">
<path fill-rule="evenodd" clip-rule="evenodd" d="M65.0161 4.40762C65.2849 5.48361 65.6075 6.31751 65.8225 7.1783C66.6287 11.3208 67.4349 15.4633 68.268 19.7134C68.483 21.0315 68.9133 21.3812 70.4466 21.1125C73.0827 20.6826 75.6919 20.1451 78.3012 19.6076C80.3724 19.2045 82.3092 18.7207 84.7032 18.237C85.1334 19.5013 85.6442 20.6311 85.8054 21.734C86.7728 26.9793 87.6058 32.144 88.6808 37.3625C89.8633 43.0113 91.3686 48.5796 92.5511 54.2285C93.8949 60.5229 94.8351 67.0325 96.0713 73.3539C98.0601 82.688 98.4081 92.3177 101.365 101.41C101.392 101.518 101.392 101.518 101.419 101.625C102.091 104.772 101.849 105.176 98.6208 105.982C88.3721 108.428 78.0964 110.766 67.8477 113.212C64.0817 114.153 60.262 115.336 56.496 116.277C50.4705 117.782 44.2836 119.099 38.2312 120.496C35.2184 121.249 32.2057 122.002 29.1929 122.754C28.6549 122.889 28.1169 123.023 27.5789 123.157C26.4761 123.319 25.6961 122.942 25.508 121.731C25.0511 119.902 24.621 118.181 24.1641 116.352C21.96 107.528 19.8904 98.7861 17.9015 89.9092C17.0415 86.0088 16.289 82.0815 15.429 78.1811C13.7088 70.8375 11.881 63.5208 10.1608 56.1772C8.76322 50.1248 7.55391 43.911 6.15629 37.8586C5.40376 34.3886 4.54363 30.9455 3.71038 27.6099C3.38783 26.3187 3.30736 25.0814 3.22689 23.844C3.20009 23.2792 3.57681 22.4992 3.98032 22.2841C5.48679 21.4505 7.02013 20.7245 8.60723 20.2137C15.0094 18.3858 21.4653 16.773 27.8675 14.9451C32.6556 13.5204 37.4976 11.8535 42.2589 10.3212C46.4823 8.92321 50.598 7.55214 54.875 6.36938C58.103 5.56301 61.4116 5.07943 65.0161 4.40762ZM38.9959 56.7473C40.7982 55.7254 42.5468 54.9457 44.1071 53.8701C44.8065 53.4667 44.9412 52.6329 44.484 51.7183C42.5211 47.979 40.5313 44.1322 38.676 40.3661C36.9014 36.9227 34.9922 33.3987 33.1099 29.9823C32.7066 29.2828 32.3032 28.5834 31.7923 27.9109C31.0662 26.8348 30.0442 26.4042 28.6454 26.7537C26.8431 27.3182 25.0677 27.5331 23.2386 27.99C21.517 28.4201 21.3287 28.5814 21.2207 30.4374C21.0049 34.1493 20.5738 37.915 20.3849 41.7346C20.088 46.9528 19.8988 52.1442 19.7096 57.3356C19.7093 58.7074 20.1396 59.0571 21.4307 59.1919C22.5874 59.2459 23.6902 59.0847 24.82 59.0311C25.9497 58.9775 26.6223 58.4665 26.6494 57.2023C26.7037 54.6739 26.7848 52.253 26.839 49.7246C26.8397 46.0664 27.1895 45.6361 30.9015 45.3947C32.0312 45.3411 32.6767 45.6371 33.2683 46.6324C34.5859 49.1611 35.9842 51.5553 37.3825 53.9495C37.732 54.891 38.2698 55.6712 38.9959 56.7473ZM92.1665 98.4494C91.844 97.1582 91.1715 97.2119 90.4183 97.4001C88.6968 97.8301 87.0289 98.4754 85.2805 98.7979C77.9369 100.518 70.5396 102.023 63.3036 103.716C54.5343 105.678 45.792 107.748 37.1572 109.791C36.8344 109.871 36.4847 109.844 36.1888 110.033C35.8929 110.221 35.6239 110.517 35.0858 111.108C35.9196 111.243 36.4038 111.351 36.861 111.351C38.7171 111.001 40.7076 110.733 42.5368 110.276C46.4103 109.308 50.2033 108.018 54.1037 107.158C61.5549 105.411 68.9791 104.013 76.4571 102.374C81.2184 101.299 85.9796 100.224 90.7408 99.1485C91.1443 98.9334 91.5478 98.7183 92.1665 98.4494ZM83.7555 52.882C83.6749 52.5592 83.6212 52.344 83.5405 52.0212C82.7604 52.1017 82.0611 52.0478 81.3079 52.236C80.6623 52.3972 80.1781 52.7468 79.5325 52.9081C73.8298 54.3327 68.2078 55.6228 62.4782 56.9398C55.4574 58.5793 48.4366 60.2189 41.4696 62.0736C35.982 63.4444 30.6289 65.3533 24.8995 65.7557C24.1194 65.8363 23.7428 66.159 23.9847 67.1274C25.3833 67.6925 26.7552 67.2354 28.1271 66.7784C33.2649 65.3806 38.2414 63.7945 43.4062 62.5043C56.1297 59.4402 69.0145 56.5644 81.7649 53.6079C82.4105 53.4466 83.1368 53.1508 83.7555 52.882ZM28.3657 86.0377C28.5002 86.1185 28.6615 86.3068 28.7691 86.2799C29.0112 86.3337 29.2533 86.3876 29.4685 86.3338C48.6479 81.657 68.338 79.0244 87.3831 73.3523C87.7059 73.2717 88.0019 73.0835 88.1902 72.9221C88.2978 72.8952 88.2709 72.7876 88.3785 72.7607C88.3516 72.6531 88.3516 72.6531 88.3786 72.3035C87.8944 72.1958 87.3834 71.9805 86.953 72.088C85.7425 72.2761 84.4782 72.7062 83.187 73.0288C80.0936 73.9159 77.0807 75.1258 74.0411 75.7708C67.2355 77.3566 60.3761 78.7271 53.6513 80.1784C47.6796 81.4416 41.6542 82.4895 35.7632 83.6182C33.7996 83.9944 31.8359 84.3707 29.8722 84.7469C29.1191 84.935 28.339 85.0156 28.3657 86.0377ZM85.5292 61.8126C84.8032 60.7365 84.1576 60.8978 83.4313 61.1935C81.4138 61.8118 79.3424 62.6722 77.2981 63.1829C67.0762 65.7364 56.7467 68.3168 46.498 70.7627C40.6877 72.2142 34.8236 73.4504 28.9057 74.9288C28.1525 75.1169 27.3724 75.1975 27.157 76.6231C28.2598 76.4619 29.282 76.4352 30.2235 76.0857C38.7507 73.6125 47.2779 71.5967 55.9127 69.554C65.3006 67.3231 74.7424 64.8501 84.1035 62.5117C84.5339 62.4041 84.9374 62.189 85.5292 61.8126ZM90.0705 87.3131C90.0167 87.0979 90.0705 86.8558 89.9899 86.533C88.8065 85.9142 87.6498 86.3174 86.4662 86.6131C79.7681 88.6293 72.9893 90.7799 66.2644 92.6885C60.4002 94.382 54.4554 95.7528 48.6182 97.0966C44.2067 98.1987 39.7414 99.0855 35.3298 100.188C34.5767 100.376 33.5276 100.295 33.4198 101.694C33.7963 101.828 34.1998 102.07 34.415 102.016C53.0026 97.2588 71.5366 92.286 90.0705 87.3131ZM47.2012 49.3248C47.255 49.54 47.2819 49.6476 47.3356 49.8628C47.8198 49.9705 48.1963 50.105 48.6267 49.9975C52.2851 49.0836 55.9703 48.2773 59.6018 47.2558C63.5829 46.2613 67.4027 45.0785 71.3839 44.0839C74.1814 43.3851 77.0327 42.9014 79.8572 42.3102C80.718 42.0951 81.5249 42.1222 81.9556 40.6429C70.3351 42.6312 59.5213 46.0185 48.3849 48.5718C47.9545 48.6794 47.6047 49.1097 47.2012 49.3248Z" fill="#004A76"/>
<path fill-rule="evenodd" clip-rule="evenodd" d="M84.9725 18.3987C79.2965 20.3881 73.9973 21.5976 68.4293 22.1884C66.4129 16.4048 65.4187 10.5946 65.0701 4.62308C72.4397 8.04051 78.4909 13.0447 84.9725 18.3987Z" fill="#065E89"/>
<path fill-rule="evenodd" clip-rule="evenodd" d="M92.1663 98.4494C91.5476 98.7183 91.0365 98.9603 90.6061 99.0678C85.8449 100.143 81.1105 101.326 76.3224 102.293C68.8444 103.933 61.4202 105.33 53.969 107.077C50.0686 107.937 46.2756 109.227 42.4021 110.195C40.5729 110.652 38.6093 111.028 36.7263 111.27C36.2959 111.378 35.7849 111.162 34.9511 111.028C35.516 110.544 35.7582 110.14 36.0541 109.952C36.35 109.764 36.6997 109.791 37.0225 109.71C45.7649 107.64 54.5072 105.571 63.1689 103.636C70.5124 101.915 77.9098 100.41 85.1458 98.7172C86.8673 98.2871 88.562 97.7494 90.2836 97.3194C91.1713 97.2119 91.8437 97.1582 92.1663 98.4494Z" fill="white"/>
<path fill-rule="evenodd" clip-rule="evenodd" d="M83.7551 52.8821C83.0288 53.1779 82.4101 53.4467 81.6569 53.6349C68.9065 56.5914 56.0217 59.4672 43.2981 62.5314C38.1334 63.8216 33.1569 65.4077 28.0191 66.8055C26.6203 67.1549 25.2484 67.6119 23.8766 67.1544C23.6347 66.186 24.119 65.8364 24.7914 65.7827C30.494 65.2727 35.874 63.4715 41.3615 62.1006C48.3286 60.2459 55.3762 58.714 62.3701 56.9668C68.0729 55.5422 73.6949 54.2521 79.4245 52.9351C80.0701 52.7739 80.6619 52.3974 81.1999 52.263C81.9531 52.0748 82.6524 52.1288 83.4325 52.0482C83.6207 52.3441 83.7014 52.6669 83.7551 52.8821Z" fill="white"/>
<path fill-rule="evenodd" clip-rule="evenodd" d="M28.3653 86.0377C28.231 85.0424 29.1187 84.935 29.7643 84.7737C31.7279 84.3975 33.6916 84.0213 35.6552 83.645C41.6538 82.4895 47.6524 81.3339 53.5433 80.2053C60.4027 78.8347 67.2351 77.3565 73.9331 75.7976C77.0535 75.0181 80.0932 73.9158 83.0791 73.0556C84.3434 72.6255 85.527 72.3298 86.845 72.1148C87.2754 72.0073 87.8133 72.3302 88.2706 72.3303C88.2437 72.68 88.2705 72.7876 88.2705 72.7876C88.2974 72.8952 88.1898 72.922 88.0822 72.9489C87.7863 73.1372 87.4635 73.2178 87.2752 73.3791C68.2301 79.0513 48.6744 81.7645 29.3605 86.3606C29.1453 86.4144 28.9032 86.3606 28.6612 86.3067C28.6612 86.3067 28.4998 86.1184 28.3653 86.0377Z" fill="white"/>
<path fill-rule="evenodd" clip-rule="evenodd" d="M85.5294 61.8128C84.9107 62.0817 84.5341 62.4044 84.1037 62.5119C74.7426 64.8504 65.3277 67.4309 55.9129 69.5542C47.2781 71.5969 38.7509 73.6128 30.2237 76.0859C29.2553 76.3278 28.26 76.4621 27.1572 76.6233C27.265 75.2246 28.1527 75.1172 28.9059 74.929C34.7431 73.5852 40.5803 72.2413 46.4982 70.7629C56.7469 68.317 67.0764 65.7366 77.2983 63.1831C79.3426 62.6724 81.4409 61.9197 83.4315 61.1938C84.1847 61.0056 84.8034 60.7367 85.5294 61.8128Z" fill="white"/>
<path fill-rule="evenodd" clip-rule="evenodd" d="M90.0701 87.3133C71.5362 92.2862 52.8678 97.1783 34.3339 102.151C34.0111 102.232 33.6076 101.99 33.3387 101.828C33.4465 100.43 34.4955 100.51 35.2487 100.322C39.6871 99.3278 44.1256 98.3334 48.5371 97.2313C54.455 95.753 60.3998 94.3822 66.1833 92.8232C72.9082 90.9146 79.687 88.7639 86.3851 86.7477C87.5418 86.3445 88.8061 85.9143 89.9088 86.6677C90.0702 86.856 90.1239 87.0712 90.0701 87.3133Z" fill="white"/>
<path fill-rule="evenodd" clip-rule="evenodd" d="M47.2008 49.3248C47.6043 49.1097 47.9541 48.6794 48.2769 48.5988C59.4133 46.0454 70.3347 42.6313 81.8475 40.6698C81.39 42.0415 80.61 42.1221 79.7492 42.3371C76.9247 42.9284 74.0734 43.412 71.2758 44.1109C67.2947 45.1054 63.4749 46.2883 59.4938 47.2828C55.8354 48.1967 52.1771 49.1105 48.5187 50.0244C48.0883 50.132 47.6849 49.8898 47.2276 49.8897C47.2814 49.6476 47.2546 49.54 47.2008 49.3248Z" fill="white"/>
<path fill-rule="evenodd" clip-rule="evenodd" d="M44.3762 51.7454C42.4133 48.0062 40.4235 44.1593 38.5682 40.3932C36.7935 36.9499 34.8844 33.4258 33.0021 30.0094C32.5988 29.31 32.1954 28.6105 31.6845 27.938C30.9584 26.8619 29.9363 26.4314 28.5376 26.7808C26.7353 27.3453 24.9599 27.5602 23.1308 28.0171C21.4092 28.4472 21.2209 28.6086 21.1129 30.4645C20.8971 34.1765 20.466 37.9422 20.277 41.7617C19.9802 46.98 19.791 52.1713 19.6018 57.3627C19.6015 58.7345 20.0318 59.0843 21.3229 59.219C22.4796 59.273 23.5824 59.1118 24.7122 59.0582C25.8419 59.0046 26.5145 58.4937 26.5416 57.2294C26.5958 54.701 26.677 52.2802 26.7312 49.7517C26.7319 46.0935 27.0816 45.6632 30.7937 45.4218C31.9234 45.3682 32.5689 45.6642 33.1605 46.6596C34.4781 49.1883 35.8764 51.5825 37.2747 53.9767C37.7049 54.7837 38.2427 55.5639 38.9688 56.6399C40.7711 55.6181 42.5197 54.8384 44.08 53.7627C44.8063 53.467 44.8333 52.66 44.3762 51.7454ZM27.8096 36.222C28.0248 36.1683 28.1324 36.1414 28.3476 36.0876C28.9123 36.9754 29.3963 37.9976 30.1492 39.1813C29.1808 39.4232 28.5621 39.692 27.271 40.0146C27.4595 38.4814 27.6211 37.2979 27.8096 36.222Z" fill="#8EB400"/>
<path fill-rule="evenodd" clip-rule="evenodd" d="M27.1907 40.1489C27.46 38.4812 27.6216 37.2977 27.7025 36.2487C27.9177 36.195 28.0253 36.1681 28.2405 36.1143C28.8052 37.0021 29.2892 38.0243 30.0421 39.208C29.2082 39.5306 28.5626 39.6919 27.1907 40.1489Z" fill="#004A76"/>
</g>
<ellipse cx="90" cy="84.4995" rx="20" ry="18.5" fill="#F5A300"/>
<g clip-path="url(#clip1)">
<path fill-rule="evenodd" clip-rule="evenodd" d="M90.2716 90.0176C91.0152 86.7128 91.6991 83.3068 92.7878 79.9347C93.7339 76.6469 94.8824 73.376 95.9115 69.9027C97.4848 70.6114 97.1893 71.7411 96.6317 72.7527C93.3455 78.9232 93.2026 84.8755 92.1071 90.8444C91.9544 91.8898 91.659 93.0195 91.0183 94.2165C86.9059 92.1411 84.1842 88.8352 81.1539 85.9845C81.0344 85.7821 81.3663 85.0402 81.7215 84.0118C84.5129 86.4577 86.7201 88.5662 89.1298 90.6917C89.4982 90.3377 89.8434 90.2704 90.2716 90.0176Z" fill="#EC1C24" stroke="#EC1C24"/>
</g>
<g clip-path="url(#clip2)">
<path fill-rule="evenodd" clip-rule="evenodd" d="M139.322 50.5867C142.525 53.099 145.87 52.588 149.564 51.8355C149.323 53.7228 149.127 55.9232 148.841 57.4975C148.395 59.9573 147.868 62.3009 147.421 64.7607C146.484 70.4853 145.645 76.2278 144.726 81.8541C144.199 85.3157 143.395 88.6253 142.869 92.0869C142.056 97.1228 141.459 102.096 140.45 107.096C139.45 112.606 138.172 117.964 136.976 123.439C136.609 124.897 135.894 125.478 134.15 125.568C131.914 125.569 129.686 124.961 127.629 123.978C126.028 123.281 126.081 122.986 126.403 121.215C127.34 116.608 128.376 112.019 129.216 107.395C130.251 101.688 131.01 95.8295 131.849 90.087C132.339 86.8222 132.83 83.5574 133.437 80.212C134.991 71.6518 136.428 63.1722 137.964 54.7104C138.196 53.4313 138.822 52.2236 139.322 50.5867Z" fill="#80B539"/>
<path fill-rule="evenodd" clip-rule="evenodd" d="M139.385 50.8009C140.591 48.0725 141.86 45.5587 143.165 42.8482C144.373 43.4739 145.286 44.046 146.252 44.323C147.218 44.6 148.237 44.5817 149.436 44.6976C149.463 45.1091 149.669 45.6546 149.678 46.1644C149.678 47.2824 149.661 48.4989 149.661 49.6169C149.671 52.3628 149.519 52.6401 147.194 53.1328C144.457 53.6525 141.729 53.5639 139.385 50.8009Z" fill="#FAA61A"/>
<path fill-rule="evenodd" clip-rule="evenodd" d="M126.349 121.51C129.525 123.611 132.986 124.137 136.537 124.172C136.171 126.748 135.42 127.527 133.202 127.429C131.887 127.393 130.295 127.206 128.953 126.759C126.431 126.098 125.634 124.328 126.349 121.51Z" fill="#FAA61A"/>
<path fill-rule="evenodd" clip-rule="evenodd" d="M146.153 45.4236C145.777 45.2538 145.026 44.9141 144.292 44.4761C143.264 43.9845 142.914 43.1081 143.504 42.0972C143.978 41.1668 144.47 40.1381 145.122 39.3418C146.464 37.5525 147.859 37.7041 148.817 39.7073C149.148 40.6821 149.479 41.657 149.596 42.6945C149.856 45.1809 149.105 45.9593 146.153 45.4236Z" fill="#80B539"/>
</g>
<defs>
<clipPath id="clip0">
<rect width="82.8461" height="107.245" fill="white" transform="translate(0 20.0776) rotate(-14.0259)"/>
</clipPath>
<clipPath id="clip1">
<rect width="20.7637" height="25.4828" fill="white" transform="translate(77.9277 80.52) rotate(-30.5569)"/>
</clipPath>
<clipPath id="clip2">
<rect width="11.8" height="90.6" fill="white" transform="translate(141.178 36.9995) rotate(10.2862)"/>
</clipPath>
</defs>
</svg>
