<svg width="425" height="231" viewBox="0 0 425 231" fill="none" xmlns="http://www.w3.org/2000/svg">
<path d="M19.7515 85.1721C19.7515 85.1721 13.684 78.7886 6.52256 83.179C-0.575996 87.5496 2.92332 95.6907 11.3194 97.133C19.7155 98.5753 30.4375 99.2846 30.4375 99.2846C30.4375 99.2846 35.7501 88.7217 36.3594 79.9967C36.9687 71.2718 31.6592 67.0789 25.7481 69.5346C19.8369 71.9903 19.427 77.6896 19.3781 80.7863C19.4044 83.9186 19.7515 85.1721 19.7515 85.1721Z" fill="#F5A300"/>
<path d="M22.5457 80.9893C21.04 79.3829 22.1078 76.6082 24.115 75.3211C24.9626 74.2808 26.1367 73.4943 27.4451 73.9142C28.6781 74.2984 29.2403 75.6077 29.1099 76.8381C28.963 79.2035 24.8296 83.3612 22.5457 80.9893ZM24.89 76.9796L24.6378 77.0591C24.3598 77.3252 24.1572 77.6269 24.0425 78.0199C24.3588 77.6228 24.6244 77.3012 24.89 76.9796Z" fill="white"/>
<path d="M33.9769 23.6902C33.9769 23.6902 26.9471 9.43706 14.6194 13.1022C2.39357 16.7673 4.94061 32.6494 17.1664 39.6741C29.3922 46.6989 45.3876 53.7237 45.3876 53.7237C45.3876 53.7237 57.0022 38.4524 60.8737 23.792C64.7452 9.13163 58.1229 -0.94739 48.3422 0.0706936C38.5616 1.08878 36.0145 10.6588 34.8938 15.9528C33.875 21.3486 33.9769 23.6902 33.9769 23.6902Z" fill="#EC1C24"/>
<path d="M40.9004 18.4975C39.1684 14.9342 41.7155 10.76 45.1794 9.64013C46.8095 8.31662 48.8471 7.60397 50.681 9.02928C52.413 10.3528 52.8205 12.898 52.2092 14.9342C51.1904 18.9047 43.5493 23.7915 40.9004 18.4975ZM45.7907 12.898H45.3832C44.8738 13.2034 44.4663 13.6107 44.1606 14.2215C44.7719 13.7125 45.2813 13.3052 45.7907 12.898Z" fill="white"/>
<g clip-path="url(#clip0)">
<path d="M411.076 89.9762C414.083 87.2879 416.318 83.8437 417.551 79.9995C418.785 76.1553 418.972 72.0508 418.093 68.11C417.475 65.0659 416.098 62.2282 414.091 59.8611C412.085 57.4939 409.513 55.6744 406.615 54.5718C404.377 53.6425 402.028 53.009 399.627 52.6872C401.048 49.087 401.185 45.1052 400.014 41.4155C398.844 37.7258 396.438 34.5548 393.203 32.4391C389.162 29.5616 384.315 28.0402 379.358 28.0925C375.045 28.0704 370.765 28.8476 366.734 30.3849C365.648 24.8826 362.622 19.9565 358.209 16.5085C353.796 13.0604 348.292 11.3212 342.704 11.6093L342.291 11.603C324.628 11.3368 319.588 22.5157 318.324 26.9655C312.856 24.3944 306.922 22.9675 300.885 22.7717C295.78 22.6034 290.725 23.8287 286.26 26.3167C283.337 27.775 280.8 29.9079 278.859 32.5402C276.917 35.1724 275.627 38.2289 275.093 41.4583C274.807 43.7899 274.897 46.1524 275.359 48.4553C271.796 49.1323 268.483 50.7649 265.771 53.1795C263.06 55.5942 261.052 58.7004 259.962 62.1677C259.029 65.6608 259.036 69.3397 259.984 72.8288C260.933 76.3179 262.787 79.4922 265.359 82.0279C262.266 83.6207 259.65 86.0079 257.778 88.9458C255.906 91.8836 254.846 95.2667 254.705 98.7497C254.005 109.58 262.701 115.96 266.798 118.049C264.871 120.294 263.648 123.059 263.281 125.997C262.913 128.935 263.418 131.917 264.732 134.569C266.273 137.469 268.496 139.949 271.208 141.792C273.921 143.636 277.042 144.788 280.3 145.148C279.808 147.665 280.189 152.512 287.665 157.673C291.866 160.738 296.886 162.471 302.079 162.649C303.143 162.662 304.206 162.595 305.26 162.448C305.713 164.742 306.676 166.904 308.077 168.774C309.478 170.643 311.281 172.172 313.353 173.246C316.572 175.124 320.237 176.095 323.961 176.054C328.033 176.04 332.079 175.403 335.96 174.166C341.273 176.867 347.112 178.368 353.066 178.562C356.873 178.749 360.659 177.875 364.001 176.037C367.098 174.492 369.827 172.298 372.004 169.604C374.181 166.909 375.755 163.778 376.62 160.421C378.784 161.216 381.066 161.642 383.371 161.681C388.181 161.76 392.847 160.029 396.447 156.83C399.354 154.094 401.527 150.668 402.768 146.869C404.008 143.07 404.275 139.019 403.544 135.089C408.625 134.45 413.329 132.071 416.861 128.354C420.392 124.636 422.533 119.81 422.922 114.692C423.391 109.88 422.535 105.032 420.446 100.674C418.357 96.3163 415.117 92.6162 411.076 89.9762Z" fill="#8EB400"/>
<path d="M330.646 53.0131L321.341 212.966L342.306 213.282L330.646 53.0131Z" fill="#231F20"/>
<path d="M356.843 62.0978L330.843 86.3673L331.412 97.9205L356.843 62.0978Z" fill="#231F20"/>
<path d="M367.125 100.279L332.707 129.842L333.884 147.611L367.125 100.279Z" fill="#231F20"/>
<path d="M290.141 103.091L328.916 143.151L329.856 130.131L290.141 103.091Z" fill="#231F20"/>
<path d="M301.469 68.8765L330.609 101.922L330.773 91.0419L301.469 68.8765Z" fill="#231F20"/>
<path d="M394.816 114.517C394.782 113.727 394.906 112.938 395.179 112.197C395.452 111.455 395.87 110.775 396.409 110.197C397.492 109.031 398.98 108.328 400.566 108.232C402.092 108.232 403.559 108.817 404.669 109.866L405.198 110.412L406.733 109.856C406.454 109.442 406.127 109.062 405.76 108.724C405.033 108.035 404.174 107.5 403.236 107.152C402.298 106.804 401.3 106.649 400.3 106.697C398.295 106.784 396.404 107.66 395.038 109.134C393.672 110.608 392.939 112.562 392.999 114.573L390.853 114.54C390.8 113.255 391.001 111.971 391.444 110.764C391.887 109.556 392.564 108.448 393.436 107.504C394.306 106.566 395.352 105.811 396.515 105.281C397.678 104.752 398.934 104.459 400.211 104.42C401.494 104.355 402.778 104.55 403.984 104.995C405.191 105.44 406.295 106.125 407.23 107.008C408.307 108.025 409.148 109.267 409.693 110.645C408.614 111.084 407.368 111.562 405.957 112.037C404.547 112.512 402.35 113.1 400.445 113.526C398.54 113.953 396.761 114.174 394.57 114.39L394.816 114.517ZM406.597 113.454L406.589 113.95C406.58 115.478 405.998 116.946 404.958 118.063C403.873 119.236 402.367 119.93 400.772 119.991C399.176 120.052 397.622 119.477 396.45 118.39C396.085 118.077 395.77 117.71 395.517 117.3L393.822 117.482C394.228 118.239 394.763 118.919 395.402 119.492C396.88 120.842 398.821 121.568 400.82 121.518C401.817 121.481 402.797 121.245 403.703 120.826C404.61 120.406 405.424 119.811 406.099 119.074C406.783 118.351 407.315 117.498 407.662 116.564C408.01 115.631 408.166 114.637 408.121 113.642L408.135 112.691C408.883 112.412 409.588 112.175 410.211 111.894L411.665 111.296C411.007 108.566 409.362 106.178 407.048 104.594C404.734 103.011 401.916 102.345 399.14 102.726C396.364 103.107 393.828 104.507 392.023 106.655C390.218 108.803 389.272 111.546 389.37 114.353L389.352 115.511C389.784 118.365 391.285 120.947 393.55 122.729C395.816 124.512 398.674 125.361 401.542 125.103C404.411 124.845 407.073 123.501 408.986 121.343C410.9 119.185 411.92 116.377 411.838 113.491L410.303 114.048C410.279 116.491 409.346 118.838 407.685 120.629C406.821 121.576 405.776 122.34 404.612 122.876C403.449 123.413 402.19 123.712 400.91 123.754C398.485 123.843 396.114 123.026 394.257 121.461C392.583 120.061 391.433 118.132 390.996 115.991C394.263 115.91 397.516 115.529 400.714 114.855C402.634 114.455 404.53 113.945 406.392 113.326" fill="#231F20"/>
<path d="M364.011 76.8119C363.976 75.7348 364.362 74.6865 365.087 73.8903C365.827 73.111 366.84 72.6513 367.913 72.6088C368.44 72.5782 368.968 72.6582 369.463 72.8438C369.958 73.0294 370.408 73.3164 370.786 73.6865L371.152 74.0645L372.19 73.6663L371.5 72.9111C371.01 72.4564 370.434 72.1039 369.807 71.8743C369.18 71.6446 368.513 71.5423 367.846 71.5733C366.505 71.6279 365.241 72.2124 364.329 73.1988C363.416 74.1853 362.931 75.4936 362.978 76.8377L361.534 76.816C361.497 75.9553 361.631 75.0959 361.928 74.2877C362.226 73.4795 362.68 72.7386 363.266 72.1082C363.852 71.4778 364.557 70.9705 365.34 70.6158C366.123 70.2611 366.969 70.066 367.828 70.042C368.683 70.001 369.538 70.1326 370.342 70.429C371.146 70.7254 371.882 71.1807 372.508 71.7677C373.211 72.4612 373.773 73.2847 374.163 74.1926C373.416 74.5124 372.585 74.8309 371.631 75.1475C370.42 75.5392 369.188 75.8659 367.942 76.1264C366.582 76.4304 365.198 76.6172 363.806 76.6847L364.011 76.8119ZM372.071 76.0645L372.067 76.3541C372.101 77.4312 371.715 78.4794 370.991 79.2757C370.248 80.0503 369.233 80.5047 368.161 80.5426C367.09 80.5805 366.046 80.199 365.25 79.4788L364.642 78.7662L363.527 78.7494C363.794 79.2565 364.151 79.7106 364.58 80.0894C365.565 80.9989 366.869 81.4814 368.207 81.4318C369.546 81.3823 370.81 80.8046 371.726 79.8247C372.649 78.8342 373.144 77.5177 373.102 76.1628L373.111 75.5422L374.481 75.025L375.437 74.5842C375.056 72.8693 374.079 71.346 372.681 70.2865C371.283 69.227 369.555 68.7002 367.805 68.8003C365.807 68.8772 363.921 69.7452 362.56 71.2139C361.199 72.6827 360.475 74.6324 360.546 76.6355L360.534 77.4216C360.733 78.84 361.33 80.1727 362.254 81.2649C363.179 82.3571 364.393 83.164 365.757 83.5918C367.121 84.0197 368.578 84.0509 369.958 83.682C371.339 83.313 372.587 82.559 373.558 81.5075C374.234 80.7796 374.761 79.9253 375.108 78.9934C375.455 78.0614 375.615 77.0701 375.58 76.076L374.542 76.4741C374.519 78.156 373.855 79.7654 372.685 80.9714C371.515 82.1775 369.929 82.8885 368.252 82.9585C366.634 83.0466 365.045 82.5037 363.817 81.4434C362.695 80.5037 361.928 79.207 361.643 77.7693C365.146 77.6675 368.616 77.0649 371.949 75.9799" fill="#231F20"/>
<path d="M379.047 46.0052C379.019 45.4483 379.104 44.8914 379.296 44.3681C379.488 43.8448 379.784 43.3659 380.166 42.9601C380.54 42.5447 380.995 42.2097 381.502 41.9756C382.009 41.7414 382.559 41.6128 383.117 41.5977C383.673 41.5698 384.228 41.6548 384.75 41.8475C385.272 42.0403 385.75 42.3368 386.155 42.7193L386.52 43.1386L387.641 42.7004L386.951 41.9452C385.912 40.9793 384.535 40.4644 383.119 40.5129C381.703 40.5613 380.363 41.1691 379.393 42.2036C378.436 43.2426 377.926 44.6174 377.973 46.0304L376.487 46.008C376.456 45.1053 376.604 44.2053 376.92 43.3596C377.237 42.5139 377.717 41.7392 378.333 41.0797C378.948 40.4202 379.688 39.8889 380.509 39.5163C381.329 39.1436 382.216 38.937 383.116 38.9081C384.01 38.8694 384.902 39.0097 385.741 39.3208C386.579 39.6318 387.348 40.1074 388.001 40.7196C388.78 41.4303 389.376 42.3195 389.737 43.3113C388.99 43.5897 388.117 43.9489 387.122 44.2649C385.845 44.6831 384.544 45.0227 383.227 45.282C381.862 45.5821 380.48 45.7962 379.089 45.9231L379.047 46.0052ZM387.6 45.3894L387.595 45.7203C387.623 46.2773 387.538 46.8341 387.346 47.3574C387.154 47.8807 386.858 48.3597 386.476 48.7654C386.107 49.1953 385.653 49.5444 385.143 49.791C384.634 50.0376 384.079 50.1765 383.513 50.199C382.948 50.2215 382.383 50.1272 381.856 49.9219C381.328 49.7166 380.848 49.4047 380.446 49.0056L379.797 48.251L378.641 48.2335C379.035 48.9755 379.596 49.6148 380.28 50.1003C380.964 50.5857 381.752 50.9037 382.581 51.0288C383.409 51.1539 384.256 51.0827 385.052 50.8208C385.849 50.5589 386.573 50.1136 387.167 49.5207C388.123 48.4817 388.633 47.1069 388.587 45.6939L388.597 45.032L390.05 44.4746L391.088 44.0351C390.76 42.436 389.945 40.9783 388.757 39.8621C387.199 38.4403 385.158 37.6693 383.052 37.7072C380.966 37.7935 378.998 38.6969 377.57 40.223C376.142 41.7491 375.369 43.776 375.416 45.8677L375.404 46.6537C375.704 48.6005 376.688 50.376 378.177 51.6609C379.733 52.9796 381.739 53.6429 383.772 53.5115C385.806 53.3802 387.71 52.4645 389.085 50.9564C390.479 49.4651 391.234 47.4863 391.191 45.4435L390.112 45.841C390.12 46.7358 389.952 47.6234 389.617 48.4527C389.282 49.2821 388.786 50.0368 388.159 50.6735C387.531 51.3101 386.785 51.8161 385.962 52.1624C385.138 52.5086 384.255 52.6882 383.363 52.6908C381.656 52.7723 379.982 52.1997 378.681 51.0892C377.519 50.0936 376.713 48.7448 376.386 47.2478C378.762 47.1902 381.128 46.9212 383.457 46.4441C384.865 46.1343 386.232 45.7825 387.6 45.3894Z" fill="#231F20"/>
<path d="M277.734 69.0567C277.699 67.536 278.254 66.0611 279.282 64.9422C279.798 64.3666 280.424 63.9012 281.123 63.5738C281.822 63.2464 282.58 63.0638 283.351 63.0368C284.122 63.0097 284.891 63.139 285.611 63.4167C286.331 63.6943 286.988 64.1148 287.542 64.6529L288.071 65.1574L288.236 65.1599L289.483 64.5994C289.202 64.2111 288.875 63.8588 288.508 63.5503C287.814 62.8902 286.995 62.3751 286.1 62.0348C285.206 61.6946 284.252 61.536 283.296 61.5683C282.33 61.606 281.382 61.8342 280.504 62.2399C279.627 62.6456 278.838 63.2208 278.183 63.9325C277.526 64.6371 277.017 65.4659 276.684 66.3704C276.352 67.2748 276.203 68.2368 276.246 69.1998L274.141 69.168C274.094 67.934 274.29 66.7027 274.719 65.5447C275.147 64.3867 275.799 63.3247 276.637 62.4196C277.721 61.2352 279.09 60.3483 280.612 59.8429C282.134 59.3375 283.76 59.2305 285.335 59.532C286.911 59.8334 288.383 60.5334 289.612 61.5655C290.842 62.5976 291.787 63.9275 292.36 65.429C291.363 65.8691 290.117 66.3469 288.79 66.782C287.462 67.2172 285.307 67.8054 283.444 68.191C281.573 68.5943 279.68 68.8836 277.775 69.0573L277.734 69.0567ZM289.388 68.1565L289.379 68.7357C289.415 70.2322 288.871 71.6844 287.861 72.7878C286.852 73.8911 285.456 74.5599 283.965 74.6539C283.212 74.6896 282.459 74.5704 281.753 74.3036C281.047 74.0367 280.403 73.628 279.861 73.1024C279.532 72.7817 279.233 72.4309 278.968 72.0545L277.356 72.2371C277.748 72.9562 278.254 73.6066 278.854 74.1631C280.225 75.4724 282.049 76.1972 283.942 76.1846C285.89 76.0995 287.726 75.2503 289.055 73.8203C290.284 72.4284 290.932 70.6158 290.865 68.7581L290.879 67.848L292.872 67.0918L294.284 66.4924C293.796 64.3913 292.688 62.486 291.106 61.024C288.971 59.0628 286.16 58.0113 283.266 58.092C281.828 58.1474 280.416 58.4876 279.11 59.0929C277.805 59.6982 276.631 60.5566 275.658 61.6187C274.685 62.6654 273.929 63.8956 273.434 65.2378C272.939 66.58 272.715 68.0074 272.775 69.4371C272.729 69.8077 272.723 70.1822 272.758 70.554C273.178 73.1821 274.541 75.566 276.59 77.2578C278.64 78.9497 281.235 79.8332 283.889 79.7423C285.319 79.7028 286.726 79.3736 288.027 78.7745C289.327 78.1754 290.492 77.3189 291.454 76.2564C292.431 75.2105 293.192 73.9815 293.694 72.6399C294.196 71.2983 294.429 69.8706 294.379 68.4386L292.97 68.7898C292.94 71.1429 292.038 73.4008 290.439 75.1239C288.801 76.9013 286.542 77.9763 284.132 78.125C281.723 78.2737 279.35 77.4846 277.507 75.9221C275.894 74.5698 274.775 72.7191 274.325 70.6604C277.477 70.526 280.614 70.1584 283.712 69.5606C285.658 69.1348 287.482 68.6243 289.183 68.0707" fill="#231F20"/>
</g>
<path d="M24.2002 170.4C24.1002 172.4 24.6002 174.3 25.4002 176.1C26.6002 178 28.3002 179.6 30.3002 180.5C30.8002 184.4 32.0002 188.2 34.1002 191.7L34.5002 191.9C38.3002 192.9 42.3002 193.2 46.2002 193C51.5002 193.2 56.8002 192.9 62.0002 192.2L62.3002 191.8C62.3002 191.7 62.8002 177.8 73.6002 173.4C76.7002 172.1 80.0002 171.4 83.4002 171.4C86.8002 171.4 90.1002 172.1 93.2002 173.4C96.1002 174.6 98.6002 176.4 100.8 178.6C103.9 182 105.8 186.3 106.3 190.9L106.7 191.2L172.3 192.3L172.7 191.9C172.7 191.8 173.4 177.2 185.1 172.2C189.4 170.2 194.3 169.7 198.9 170.7C203.6 171.7 207.8 174.1 210.9 177.7C213.2 180.4 215 183.5 216.1 186.8L216.5 187.1C223.1 187.1 229.7 186.7 236.3 185.9C238.7 185.2 239.2 179.5 239.3 176.2C239.4 171.8 239 167.4 238.1 163.1L238.3 162.8C238.3 162.8 237.9 162.2 237.9 162.1C237.9 162 237.9 161.8 237.9 161.8C236 154.5 228.2 149.8 226.8 149C226.6 143.2 225.7 137.5 224.2 131.9C220 116.1 212.5 108.2 206.9 104.3C204.3 102.6 201.6 101.1 198.7 99.9001C183 93.1001 158.4 90.6001 125.7 92.4001C103.7 93.6001 89.6002 101.9 82.9002 117.6C77.0002 131.2 73.5002 138 72.5002 138.1C72.3002 138.1 53.8002 140.1 45.2002 145.6C39.4002 149.3 34.3002 153.1 31.7002 160.6C29.4002 161.5 27.3002 163 25.7002 164.8C24.8002 166.5 24.2002 168.5 24.2002 170.4ZM238.5 176.1C238.5 176.2 238.5 176.4 238.5 176.4C238.5 176.2 238.4 176 238.4 175.8C238.4 175.9 238.4 176 238.5 176.1ZM237.1 183.9C237 184.2 236.9 184.4 236.7 184.6C236.5 184.8 236.3 185 236 185.1L235.3 185.2C236 184.9 236.6 184.5 237.1 183.9Z" fill="#004A76"/>
<path d="M238.8 181.7C238.5 182.3 238.1 182.7 237.5 183.1C237 183.5 236.4 183.8 235.8 183.9C234.1 184.1 217.6 185.4 217.6 185.4C217.6 185.4 217.1 180.5 209.3 173.4C205.4 169.9 200.4 167.9 195.1 167.6C189.9 167.3 184.7 168.7 180.3 171.7C172.1 177.9 170.7 190.3 170.7 190.3L108.2 188.2C108.2 188.2 109.3 186.9 103.7 179.3C98.1003 171.7 81.4003 165.4 72.1003 170.6C62.8003 175.8 60.3003 189.8 60.3003 189.8L33.7003 189L33.2003 190C32.6003 191.4 32.4003 192.9 32.7003 194.4C32.9003 195.9 33.5003 197.3 34.5003 198.5C37.4003 201.3 42.0003 201.9 47.4003 202.5C54.2003 202.6 60.9003 202.2 67.6003 201.2C66.8003 199.2 66.2003 197.1 66.0003 194.9C66.0003 192.1 66.6003 189.3 67.8003 186.8C69.0003 184.3 70.9003 182 73.1003 180.3C76.6003 177.9 80.9003 176.7 85.2003 177.1C89.5003 177.4 93.5003 179.3 96.6003 182.2C99.0003 184.3 100.7 187.1 101.7 190.1C102.7 193.1 102.8 196.4 102.1 199.5L178.5 200.2C178.4 199.6 178.2 199 177.9 198.5C176.7 195.7 176.4 192.6 176.9 189.6C177.1 186.8 178.1 184.2 179.7 182C181.3 179.7 183.5 178 186 176.8C189.3 175.1 193 174.5 196.7 174.9C200.4 175.3 203.9 176.8 206.7 179.2C212.4 183.7 213.1 195.2 213.1 195.2C213.1 195.2 216.5 195 222.1 195C227.7 195 238.7 194.8 240.5 189.8C241 188.4 241.1 186.9 240.8 185.4C240.6 184.1 239.8 182.7 238.8 181.7Z" fill="#8EB400"/>
<path d="M31.5988 160.7C29.8988 161.3 28.3988 162.1 26.8988 163C25.5988 164.2 24.6988 165.8 24.0988 167.4C23.4988 169.1 23.2988 170.8 23.5988 172.6C23.6988 177.5 30.2988 180.8 30.2988 180.8C29.7988 177.3 29.6988 173.7 29.9988 170.1C30.0988 166.9 30.6988 163.8 31.5988 160.7Z" fill="#8EB400"/>
<path d="M211.099 133.3C211.099 133.3 212.799 140.8 211.999 141.6C211.199 142.4 200.199 142 195.899 141.9C191.599 141.8 182.499 142.4 181.599 139.9C180.499 131.3 180.199 122.5 180.599 113.9C181.199 108.6 182.699 108.9 188.299 108.7C193.899 108.5 199.899 111.6 205.399 117.3C210.799 123 211.099 133.3 211.099 133.3Z" fill="#F5A300"/>
<path d="M183.4 139C182.5 130.7 182.3 122.4 182.7 114C183 111.8 183.3 111.2 183.5 111.2C184.7 110.9 186 110.7 187.3 110.8L188.4 110.7C190.6 110.7 192.7 111.1 194.7 112C198.1 113.6 201.2 116 203.7 118.8C208.5 123.7 208.9 133.3 208.9 133.3V133.7C209.4 135.7 209.7 137.7 209.9 139.7C207.1 139.9 199.7 139.7 197 139.7H195.8H193C189.8 139.9 186.6 139.7 183.4 139Z" fill="white"/>
<path d="M171.098 138C171.198 138.8 171.098 139.7 170.898 140.5C170.598 142 170.698 142.1 167.498 142.7C159.798 143.1 152.198 143.2 144.498 142.8C136.798 142.7 133.598 141.6 133.098 138.9C132.698 131.2 132.898 123.5 133.598 115.8C134.398 108.9 135.198 105.5 138.798 104.5C142.498 103.4 155.898 104.7 163.398 105.5C170.898 106.3 171.198 108.6 171.998 112.8C172.298 121.2 171.898 129.6 171.098 138Z" fill="#F5A300"/>
<path d="M136.498 139.7C135.498 139.3 135.398 138.9 135.398 138.6C135.098 131.1 135.198 123.5 135.898 116C136.498 109 137.298 107.2 139.498 106.6C142.998 105.6 158.198 107.2 163.198 107.7C164.598 107.8 165.998 108.2 167.398 108.7C169.098 109.4 169.298 110.3 169.798 113.2C169.998 121.4 169.698 129.6 168.898 137.7L168.998 138.2C168.998 138.8 168.998 139.4 168.898 140V140.2L167.298 140.5C160.898 140.9 154.398 141 147.898 140.7L144.698 140.6C141.998 140.7 139.198 140.3 136.598 139.5" fill="white"/>
<path d="M125.298 140.4L124.598 141.6C124.598 141.6 112.498 140.9 101.198 140.2C95.9984 140 90.9984 139.4 85.8984 138.6C85.8984 138.6 86.9984 135.6 88.7984 131.2C91.6984 124.4 95.5984 118.2 100.398 112.6C102.598 110.5 105.298 109 108.098 108C110.998 107 113.998 106.7 117.098 106.9C122.898 106.9 123.998 107.7 124.398 108.9C124.798 110.1 124.998 139.5 124.998 139.5L125.298 140.4Z" fill="#F5A300"/>
<path d="M89.1 136.8C89.5 135.5 90.2 133.9 91 132C93.7 125.5 97.4 119.5 102 114.1C105.4 110.5 110.1 109 117.1 109.1C118.9 109 120.6 109.2 122.3 109.6C122.6 112.3 122.8 128.8 122.8 139.2L101.3 138C95.1 137.6 91.2 137.2 89 136.9" fill="white"/>
<path d="M187.899 175.9C192.299 174.2 197.299 174.3 201.599 176.3C204.899 177.7 207.799 180.1 209.699 183.2C211.699 186.2 212.699 189.8 212.599 193.4C212.499 197 211.399 200.5 209.299 203.5C207.199 206.5 204.299 208.7 200.899 210C197.499 211.3 193.799 211.5 190.299 210.7C186.799 209.9 183.599 208 181.099 205.4C178.599 202.7 176.999 199.4 176.499 195.8C175.899 192.2 176.499 188.6 177.999 185.3C179.899 180.9 183.499 177.6 187.899 175.9Z" fill="#231F20"/>
<path d="M189.897 180.4C193.097 179.1 196.797 179.2 199.997 180.5C202.397 181.5 204.397 183.2 205.797 185.4C207.197 187.6 207.997 190.1 207.897 192.7C207.897 195.3 207.097 197.8 205.597 200C204.097 202.1 201.997 203.8 199.597 204.8C197.197 205.8 194.497 206 191.997 205.4C189.497 204.9 187.097 203.6 185.297 201.7C183.497 199.8 182.297 197.5 181.797 194.9C181.297 192.3 181.597 189.7 182.697 187.3C184.097 184.2 186.697 181.7 189.897 180.4Z" fill="#F5A300"/>
<path d="M189.397 205C186.097 203.6 183.497 200.9 182.197 197.6C180.897 194.3 180.897 190.6 182.297 187.3C183.397 184.9 185.097 182.8 187.397 181.3C189.597 179.9 192.297 179.1 194.897 179.1C197.597 179.1 200.197 180 202.397 181.5C204.597 183 206.297 185.1 207.297 187.6C208.297 190.1 208.497 192.8 207.897 195.4C207.297 198 205.997 200.4 204.097 202.2C202.197 204.1 199.797 205.3 197.097 205.8C194.597 206.3 191.897 206 189.397 205ZM199.697 180.9C196.597 179.6 193.097 179.5 189.897 180.8C186.697 182 184.197 184.5 182.897 187.6C181.897 189.9 181.597 192.5 181.997 195C182.397 197.5 183.597 199.8 185.397 201.6C187.197 203.4 189.397 204.7 191.897 205.2C194.397 205.7 196.997 205.5 199.297 204.6C201.697 203.7 203.697 202 205.097 200C206.497 197.9 207.297 195.4 207.397 192.9C207.397 190.4 206.697 187.9 205.297 185.7C204.097 183.6 202.097 181.9 199.697 180.9Z" fill="#231F20"/>
<path d="M67.5977 187.7C68.5977 185.6 69.8977 183.6 71.5977 182C73.2977 180.4 75.2977 179.1 77.4977 178.3C79.6977 177.5 81.9977 177.1 84.3977 177.1C86.7977 177.2 89.0977 177.7 91.1977 178.7C94.4977 180.1 97.3977 182.5 99.2977 185.6C101.298 188.6 102.298 192.2 102.198 195.8C102.098 199.4 100.998 202.9 98.8977 205.9C96.7977 208.9 93.8977 211.1 90.4977 212.4C87.0977 213.7 83.3977 213.9 79.8977 213.1C76.3977 212.3 73.1977 210.4 70.6977 207.8C68.1977 205.2 66.5977 201.8 66.0977 198.3C65.5977 194.6 66.0977 190.9 67.5977 187.7Z" fill="#231F20"/>
<path d="M72.4004 189.8C73.8004 186.6 76.4004 184.1 79.6004 182.8C82.8004 181.5 86.5004 181.6 89.7004 183C92.1004 184 94.1004 185.7 95.5004 187.9C96.9004 190.1 97.6004 192.6 97.6004 195.2C97.6004 197.8 96.7004 200.3 95.3004 202.5C93.8004 204.6 91.7004 206.3 89.3004 207.2C86.9004 208.2 84.2004 208.4 81.7004 207.8C79.2004 207.2 76.8004 206 75.0004 204.1C73.2004 202.2 72.0004 199.9 71.5004 197.3C71.0004 194.8 71.4004 192.2 72.4004 189.8Z" fill="#F5A300"/>
<path d="M79 207.4C75.7 206 73.2 203.3 71.9 200C70.6 196.7 70.7 193 72.1 189.7C73.2 187.3 74.9 185.2 77.2 183.7C79.5 182.3 82.1 181.5 84.8 181.6C87.5 181.7 90.1 182.5 92.3 184C94.5 185.5 96.2 187.7 97.2 190.2C98.2 192.7 98.4 195.4 97.8 198C97.2 200.6 95.9 203 93.9 204.8C92 206.6 89.5 207.9 86.9 208.3C84.1 208.8 81.4 208.5 79 207.4ZM89.3 183.3C86.2 182 82.7 181.9 79.5 183.2C76.4 184.4 73.8 186.9 72.5 190C71.5 192.3 71.2 194.9 71.6 197.4C72 199.9 73.2 202.2 75 204C76.8 205.8 79 207.1 81.5 207.6C84 208.1 86.6 207.9 88.9 207C91.3 206.1 93.3 204.5 94.7 202.4C96.1 200.3 96.9 197.8 97 195.3C97 192.8 96.3 190.3 94.9 188.1C93.6 186 91.6 184.3 89.3 183.3Z" fill="#231F20"/>
<path d="M193.5 195.5C192.8 195.2 192.3 194.7 192.1 194C191.8 193.3 191.8 192.6 192.1 191.9C192.3 191.4 192.7 191 193.1 190.7C193.5 190.4 194.1 190.3 194.6 190.3C195.1 190.3 195.7 190.5 196.1 190.8C196.5 191.1 196.9 191.5 197.1 192C197.3 192.5 197.3 193 197.2 193.6C197.1 194.2 196.8 194.6 196.4 195C196 195.4 195.5 195.6 195 195.7C194.6 195.7 194 195.7 193.5 195.5ZM195.4 191.2C194.9 191 194.4 191 193.9 191.2C193.4 191.4 193 191.8 192.8 192.3C192.7 192.5 192.6 192.8 192.6 193.1C192.6 193.4 192.6 193.6 192.7 193.9C192.8 194.1 192.9 194.4 193.1 194.5C193.3 194.7 193.5 194.8 193.7 194.9C194.2 195.1 194.7 195.1 195.2 194.9C195.7 194.7 196.1 194.3 196.3 193.9C196.5 193.4 196.5 192.9 196.3 192.4C196.2 191.8 195.9 191.4 195.4 191.2Z" fill="#231F20"/>
<path d="M191.997 199.6C190.197 198.8 188.697 197.3 187.997 195.5C187.297 193.6 187.298 191.6 188.098 189.7C188.698 188.3 189.697 187.2 190.897 186.3C192.197 185.5 193.598 185.1 195.098 185.1C196.598 185.1 198.098 185.6 199.298 186.4C200.498 187.2 201.497 188.4 201.997 189.8C202.597 191.2 202.697 192.7 202.397 194.2C202.097 195.7 201.298 197 200.298 198C199.198 199 197.897 199.7 196.397 200C194.897 200.4 193.297 200.2 191.997 199.6ZM197.697 186.4C195.997 185.7 194.097 185.7 192.497 186.3C190.797 187 189.497 188.3 188.697 189.9C188.197 191.1 187.997 192.5 188.197 193.9C188.397 195.2 189.097 196.5 189.997 197.4C190.897 198.4 192.197 199 193.497 199.3C194.797 199.6 196.197 199.5 197.497 199C198.797 198.5 199.898 197.6 200.598 196.5C201.398 195.4 201.798 194.1 201.798 192.7C201.798 191.3 201.397 190 200.697 188.9C199.997 187.8 198.997 186.9 197.697 186.4Z" fill="#231F20"/>
<path d="M184 196.9C182.9 194.1 182.9 190.9 184.1 188.1C185 186 186.5 184.2 188.4 183C190.3 181.8 192.6 181.1 194.9 181.1C197.2 181.1 199.4 181.8 201.3 183.1C203.2 184.4 204.6 186.2 205.5 188.3C206.3 190.4 206.5 192.7 206.1 195C205.6 197.2 204.5 199.3 202.8 200.9C201.2 202.5 199.1 203.6 196.8 204C194.5 204.4 192.2 204.2 190.1 203.3C187.4 202 185.1 199.7 184 196.9ZM199 182.7C196.3 181.6 193.4 181.5 190.7 182.6C188 183.7 185.9 185.7 184.7 188.4C183.8 190.4 183.6 192.6 184 194.7C184.4 196.8 185.4 198.8 186.9 200.3C188.4 201.8 190.3 202.9 192.4 203.4C194.5 203.8 196.7 203.7 198.7 202.9C200.7 202.1 202.4 200.7 203.6 199C204.8 197.2 205.5 195.1 205.5 193C205.5 190.9 204.9 188.7 203.8 186.9C202.7 184.9 201 183.5 199 182.7Z" fill="#231F20"/>
<path d="M81.7987 196.4C81.4987 195.7 81.5987 195 81.7987 194.4C82.0987 193.7 82.5987 193.2 83.2987 193C83.9987 192.7 84.6987 192.8 85.2987 193C85.8987 193.3 86.4987 193.8 86.6987 194.5C86.9987 195.2 86.9987 195.9 86.6987 196.5C86.3987 197.1 85.8987 197.7 85.1987 197.9C84.4987 198.2 83.7987 198.1 83.0987 197.9C82.5987 197.6 82.0987 197 81.7987 196.4ZM85.0987 193.6C84.8987 193.5 84.5987 193.4 84.2987 193.4C83.9987 193.4 83.7987 193.4 83.4987 193.5C83.2987 193.6 82.9987 193.7 82.8987 193.9C82.6987 194.1 82.5987 194.3 82.4987 194.5C82.3987 194.7 82.2987 195 82.2987 195.3C82.2987 195.6 82.2987 195.8 82.3987 196.1C82.4987 196.3 82.5987 196.6 82.7987 196.7C82.9987 196.9 83.1987 197 83.3987 197.1C83.8987 197.3 84.3987 197.3 84.8987 197.1C85.3987 196.9 85.7987 196.5 85.9987 196C86.1987 195.5 86.1987 195 85.9987 194.5C85.8987 194.2 85.5987 193.8 85.0987 193.6Z" fill="#231F20"/>
<path d="M77.5991 197.9C76.8991 196 76.8991 194 77.6991 192.1C78.2991 190.7 79.2991 189.6 80.4991 188.8C81.7991 188 83.1991 187.6 84.6991 187.6C86.1991 187.6 87.6991 188.1 88.8991 188.9C90.0991 189.7 91.0991 190.9 91.5991 192.3C92.1991 193.7 92.2991 195.2 91.9991 196.7C91.6991 198.2 90.8991 199.5 89.8991 200.5C88.7991 201.5 87.4991 202.2 85.9991 202.5C84.4991 202.8 82.9991 202.6 81.5991 202C79.7991 201.2 78.2991 199.7 77.5991 197.9ZM87.3991 189C86.5991 188.6 85.6991 188.5 84.7991 188.4C83.8991 188.4 82.9991 188.6 82.1991 188.9C81.3991 189.2 80.5991 189.7 79.9991 190.3C79.3991 190.9 78.7991 191.7 78.4991 192.5C78.0991 193.3 77.9991 194.2 77.8991 195.1C77.8991 196 77.9991 196.9 78.3991 197.7C78.6991 198.5 79.1991 199.3 79.7991 199.9C80.3991 200.5 81.1991 201.1 81.9991 201.4C83.6991 202.1 85.5991 202.1 87.2991 201.4C88.9991 200.7 90.2991 199.4 91.0991 197.7C91.7991 196 91.7991 194.1 91.0991 192.4C90.3991 190.7 89.0991 189.4 87.3991 188.6" fill="#231F20"/>
<path d="M79.8996 205.6C77.0996 204.4 74.8996 202.1 73.6996 199.2C72.5996 196.3 72.5996 193.2 73.7996 190.3C74.6996 188.2 76.1996 186.4 78.1996 185.2C80.0996 184 82.3996 183.3 84.6996 183.4C86.9996 183.4 89.1996 184.2 91.0996 185.5C92.9996 186.8 94.3996 188.7 95.2996 190.8C96.0996 192.9 96.2996 195.3 95.7996 197.5C95.2996 199.7 94.0996 201.8 92.4996 203.4C90.7996 205 88.6996 206 86.4996 206.4C84.2996 206.9 81.9996 206.6 79.8996 205.6ZM88.8996 185C86.1996 183.9 83.1996 183.8 80.5996 184.9C77.8996 186 75.7996 188 74.5996 190.7C73.6996 192.7 73.4996 194.8 73.8996 197C74.2996 199.1 75.2996 201.1 76.7996 202.6C78.2996 204.1 80.1996 205.2 82.2996 205.7C84.3996 206.1 86.5996 206 88.5996 205.2C90.5996 204.4 92.2996 203 93.4996 201.3C94.6996 199.6 95.3996 197.4 95.3996 195.3C95.3996 193.2 94.7996 191 93.6996 189.2C92.4996 187.3 90.8996 185.9 88.8996 185Z" fill="#231F20"/>
<path d="M162.2 162C162.8 160.6 163.5 159.4 164.4 158.2C166.2 155.6 169.7 151.1 175.1 152.7C180.5 154.3 181.8 161.1 176.5 168.1C172.3 173 167.3 177.2 161.7 180.5C161.7 180.5 154.7 173.2 149.8 166.7C144.9 160.2 147.1 153.3 154.5 154.1C156.5 154.3 158.4 155.2 159.8 156.6C161.2 158.1 162.1 160 162.2 162Z" fill="#EC1C24"/>
<path d="M174.799 156.4C174.799 156.4 172.999 155 172.199 156.3C171.399 157.6 173.299 157.9 174.299 160.3C175.199 162.8 172.699 164.1 173.899 164.8C174.999 165.5 177.199 164.1 177.299 160.9C177.299 160 177.099 159.1 176.699 158.3C176.199 157.5 175.599 156.8 174.799 156.4Z" fill="white"/>
<path d="M164.599 171.4C164.199 171.5 163.899 171.8 163.799 172.2C163.599 172.5 163.598 172.9 163.698 173.3C163.798 173.7 164.098 174 164.398 174.2C164.698 174.4 165.098 174.5 165.498 174.4C168.398 173.3 170.999 171.4 172.799 168.8C174.099 167.3 171.799 165.2 170.599 166.7C169.099 168.8 167.099 170.5 164.599 171.4Z" fill="white"/>
<path d="M86.8986 167.2L86.4986 167C85.9986 166.8 85.4986 166.4 85.0986 166C84.6986 165.5 84.4986 165 84.3986 164.4C84.2986 163.8 84.3986 163.1 84.5986 162.5C84.7986 161.9 85.2986 161.4 85.7986 161C87.9986 159.5 90.4986 160.9 92.4986 162.5C92.9986 161.6 93.4986 160.7 93.8986 159.8C94.4986 158.2 94.8986 156.6 95.0986 154.9C95.2986 153.7 95.5986 152.5 95.8986 151.3C96.0986 150.4 96.3986 149.6 96.6986 148.8C96.9986 148 97.1986 147.3 97.3986 146.6L97.4986 146.4C97.6986 145 98.4986 143.7 99.5986 142.8C99.8986 142.7 100.199 142.6 100.499 142.6C100.799 142.6 101.099 142.7 101.399 142.8L101.599 143.1C101.599 143.3 101.499 143.6 101.399 143.8C101.299 144 101.099 144.2 100.999 144.3H100.499L100.199 143.9L100.399 143.5C100.199 143.5 100.099 143.4 99.8986 143.4C99.6986 143.4 99.5986 143.5 99.3986 143.5C98.4986 143.9 97.9986 145.5 97.7986 146.6L97.6986 146.8C97.2986 147.5 97.1986 148.3 96.9986 149C96.7986 149.7 96.3986 150.7 96.0986 151.5C95.7986 152.3 95.4986 153.9 95.2986 155C94.9986 156.7 94.5986 158.4 93.9986 160C93.5986 161 93.0986 161.9 92.4986 162.8L93.4986 163.7L94.2986 164.4L94.4986 164.5C96.0986 165.9 98.4986 168 100.599 166.7C101.199 166.3 101.699 165.7 102.099 165L101.999 164.3C101.999 163.7 102.099 163.2 102.299 162.7C102.499 162.2 102.799 161.7 103.199 161.3H103.599C103.799 161.1 103.999 160.9 104.299 160.8C106.199 159.8 107.099 160.5 107.599 161C108.099 162 108.199 163.2 107.799 164.3C108.299 164.2 108.699 164.1 109.099 163.8C109.499 163.5 109.799 163.2 109.999 162.8C110.099 162 110.499 161.3 111.099 160.8H111.499L111.599 161.2L111.499 161.4C111.299 162 110.999 162.6 110.599 163.1L110.399 164.2L110.299 164.8C111.099 163.7 111.999 162.9 112.799 163.1C112.999 163.1 113.199 163.2 113.299 163.2C113.499 163.3 113.599 163.4 113.699 163.5C113.999 164.2 113.999 164.9 113.799 165.6C113.699 165.9 113.499 166.2 113.299 166.5C112.999 167.1 112.799 167.5 113.199 168.1C113.499 168.5 114.099 168.8 114.599 168.8C115.399 168.9 116.199 168.7 116.899 168.3C116.699 167.8 116.699 167.2 116.799 166.7C116.899 166.2 117.099 165.6 117.299 165.1C117.399 164.8 117.699 164.6 117.999 164.5C118.299 164.4 118.599 164.3 118.899 164.4L119.399 164.7C119.699 164.4 119.999 164.1 120.399 164C120.799 163.8 121.199 163.8 121.599 163.8C121.899 163.9 122.199 164.1 122.399 164.3C122.599 164.6 122.699 164.9 122.699 165.2L122.799 165C123.999 163 125.299 161.1 126.799 159.4L126.899 159.3C127.999 158 129.099 157 129.999 157.2C130.099 157.2 130.199 157.3 130.299 157.4C130.399 157.5 130.499 157.6 130.499 157.7C130.699 158.4 129.999 159.4 129.399 160.2L129.299 160.4C127.299 163 124.899 165.4 122.199 167.3C121.699 168 121.499 168.8 121.499 169.6C121.499 169.7 121.499 169.8 121.599 169.9C121.699 170 121.799 170.1 121.899 170.1C122.399 170.4 123.599 170 124.699 169.4C125.099 167.7 126.799 165.3 128.299 165.3L128.499 165.4C128.899 165.2 129.299 165.2 129.699 165.3C130.099 165.4 130.399 165.7 130.599 166.1C130.799 166.4 130.899 166.8 130.999 167.2C130.999 167.6 130.899 168 130.799 168.3C131.599 167.9 132.399 167.5 133.199 167C133.399 166.6 133.599 166.2 133.799 165.8L134.299 165.6C134.399 165.6 134.499 165.7 134.599 165.8C134.699 165.9 134.699 166 134.699 166.1C134.599 166.4 134.499 166.6 134.299 166.8C134.099 167 133.899 167.2 133.699 167.3C133.499 167.8 133.199 168.2 132.799 168.5C133.299 168.2 133.799 168 134.299 167.9C134.799 167.8 135.399 167.9 135.899 168L136.099 168.1L135.999 168.3C135.899 168.5 135.799 168.8 135.599 169C135.099 170 134.099 171.5 134.299 172.2C134.499 172.9 135.599 172.9 137.399 172.7C138.999 172.5 140.699 172.1 142.299 171.6L142.899 171.5L142.999 171.3L143.399 171L143.699 171.4L143.399 171.9L143.199 172.2L142.399 172.4C138.099 173.6 134.199 174.3 133.599 172.4C133.299 171.4 134.199 169.8 134.899 168.6L134.999 168.4C133.999 168.5 132.999 168.9 132.199 169.4C131.399 170 130.699 170.8 130.199 171.7L130.099 171.9L129.599 172.1L129.899 171.8C130.499 170.7 131.199 169.7 131.999 168.8L132.199 168.4L131.099 168.9L130.999 169L130.299 169.3C129.199 170.7 127.099 171.9 125.799 171.4C125.599 171.3 125.399 171.1 125.199 170.9C124.999 170.7 124.999 170.4 124.899 170.2C123.999 170.7 122.899 170.9 121.899 170.7C121.699 170.6 121.499 170.5 121.299 170.3C121.199 170.1 121.099 169.9 121.099 169.6V168.9C120.799 169.1 120.599 169.3 120.299 169.4C119.799 169.6 119.299 169.7 118.799 169.6C118.299 169.5 117.799 169.3 117.399 168.9C116.599 169.4 115.599 169.6 114.599 169.5C114.199 169.4 113.899 169.3 113.599 169.1C113.299 168.9 112.999 168.6 112.799 168.3C112.599 167.9 112.399 167.5 112.399 167.1C112.399 166.7 112.499 166.3 112.799 165.9C112.999 165.7 113.099 165.4 113.199 165.1C113.399 164.6 113.399 164 113.199 163.5L112.799 163.3C111.999 163.1 110.399 165.5 109.899 166.2L109.699 166.5L109.499 166.8L108.999 166.9L108.699 166.2L108.799 166C109.199 165.2 109.399 164.4 109.499 163.5C108.899 164 108.099 164.3 107.199 164.3C106.899 165.1 106.499 165.8 105.899 166.4C105.699 166.6 105.499 166.8 105.299 166.9C105.099 167 104.799 167.1 104.499 167.1C104.199 167.1 103.999 167.1 103.699 167C103.399 166.9 103.199 166.8 102.999 166.6C102.599 166.3 102.299 165.8 102.099 165.3C101.699 165.8 101.299 166.3 100.699 166.6C98.1986 168.1 95.4986 165.8 93.7986 164.3L93.5986 164.2L92.9986 163.5L92.0986 162.7C90.7986 164.7 88.8986 166.7 86.4986 166.2L86.8986 167.2ZM88.4986 161.2C88.0986 161.1 87.6986 161.1 87.2986 161.2C86.8986 161.3 86.4986 161.4 86.1986 161.7C85.7986 162 85.4986 162.4 85.2986 162.9C85.0986 163.4 85.0986 163.9 85.0986 164.4C85.1986 164.9 85.2986 165.3 85.5986 165.7C85.8986 166.1 86.2986 166.3 86.6986 166.5C88.8986 167.2 90.7986 165.2 91.9986 163.3C90.9986 162.4 89.6986 161.7 88.3986 161.4L88.4986 161.2ZM103.299 165.7C103.399 166.3 103.699 166.9 104.199 167.3C104.499 167.5 104.799 167.5 105.199 167.5C105.499 167.4 105.799 167.2 105.999 167C106.399 166.6 106.799 166.1 106.999 165.5C106.399 165.6 105.799 165.5 105.199 165.3C104.599 165 104.099 164.6 103.799 164C103.699 164.5 103.499 165.1 103.199 165.6L103.299 165.7ZM125.999 170.7C125.999 170.9 125.999 171 126.099 171.2C126.199 171.4 126.299 171.5 126.499 171.6C127.199 172 128.399 171.5 129.399 170.6C128.999 170.7 128.699 170.6 128.299 170.5C127.999 170.3 127.699 170 127.599 169.7C127.099 170 126.499 170.3 125.999 170.7ZM118.499 169.3C118.799 169.5 119.099 169.7 119.499 169.7C119.899 169.7 120.199 169.7 120.599 169.5C120.999 169.3 121.399 169.1 121.699 168.8C121.399 168.9 120.999 169 120.699 169C120.499 169 120.199 168.9 119.999 168.8C119.799 168.7 119.599 168.5 119.499 168.3L119.399 168.2C119.099 168.6 118.899 169 118.499 169.4V169.3ZM119.199 166.1C119.199 166.1 118.799 166.1 118.499 166.5C118.099 167.2 117.899 168 117.999 168.8C118.699 168.1 119.199 167.1 119.399 166.1H119.199ZM128.199 167.3C127.399 168 126.799 168.8 126.399 169.8C126.799 169.6 127.099 169.3 127.399 169L127.499 168.8C127.599 168.3 127.699 167.8 127.999 167.4L128.199 167.3ZM121.899 165.4C121.599 165.4 121.199 165.5 120.899 165.7C120.599 165.9 120.299 166.1 120.199 166.4C119.999 166.6 119.899 166.8 119.899 167.1C119.899 167.4 119.899 167.6 119.999 167.8L120.599 168.1C121.199 168 121.899 167.8 122.399 167.4C122.599 167.1 122.599 166.7 122.599 166.3C122.499 166 122.299 165.5 121.899 165.4ZM128.299 168.9L128.199 169L128.599 169.6C128.899 169.7 129.199 169.7 129.499 169.7C129.799 169.7 130.099 169.6 130.299 169.4C130.599 168.8 131.099 167.8 130.699 167.1C130.699 167 130.599 166.9 130.499 166.8C130.399 166.7 130.299 166.7 130.199 166.6C130.099 166.6 129.999 166.5 129.899 166.6C129.799 166.6 129.699 166.6 129.599 166.7L129.499 166.8C129.399 167.6 128.999 168.4 128.299 168.9ZM106.799 161.5C106.199 161.5 105.599 161.6 105.099 161.9C104.899 162 104.699 162.2 104.599 162.4C104.499 162.6 104.399 162.9 104.499 163.1C104.499 163.4 104.699 163.8 104.899 164.1C105.099 164.4 105.399 164.6 105.699 164.7C106.299 164.9 106.899 164.9 107.599 164.8C107.999 163.8 107.999 162.8 107.499 161.8L106.899 161.5H106.799ZM130.699 158.6C130.699 158.6 130.099 158.6 128.399 160.5L128.299 160.7C126.799 162.4 125.499 164.2 124.399 166.2L124.199 166.5C126.199 164.8 127.999 162.9 129.599 160.8L129.699 160.6C130.799 159.4 130.699 158.8 130.699 158.6Z" fill="white"/>
<defs>
<clipPath id="clip0">
<rect width="168.81" height="201.655" fill="white" transform="translate(256.039 10.3032) rotate(0.863664)"/>
</clipPath>
</defs>
</svg>
