<svg width="295" height="181" viewBox="0 0 295 181" fill="none" xmlns="http://www.w3.org/2000/svg">
<g clip-path="url(#clip0)">
<path d="M174.135 123.366C174.135 123.366 192.906 121.488 196.262 104.758C199.968 88.3729 185.632 78.3854 185.632 78.3854C185.632 78.3854 193.591 72.7583 192.803 60.2348C192.015 47.7114 180.173 45.7103 180.173 45.7103C180.173 45.7103 186.698 34.1772 179.324 24.8345C171.95 15.4918 160.512 21.1446 160.512 21.1446C160.512 21.1446 156.946 9.33766 148.237 7.66159C139.528 5.98552 134.017 13.3348 134.017 13.3348C134.017 13.3348 130.459 2.57194 118.972 1.61239C107.485 0.652834 101.631 8.70073 101.631 8.70073C101.631 8.70073 96.3466 -0.309278 86.2667 0.809023C76.1868 1.92732 74.4911 7.85639 74.4911 7.85639C74.4911 7.85639 69.2426 3.71861 60.9174 6.91221C52.5921 10.1058 50.9194 19.167 50.9194 19.167C50.9194 19.167 42.8856 14.7017 35.9722 20.6692C29.0614 26.9847 30.857 34.6282 30.857 34.6282C30.857 34.6282 20.0609 32.9675 14.5876 45.537C9.11424 58.1066 15.0866 66.0674 15.0866 66.0674C15.0866 66.0674 1.20085 69.998 0.643484 88.796C0.0861217 107.594 12.959 107.847 12.959 107.847C12.959 107.847 7.54718 128.769 20.8422 139.112C34.4851 149.453 43.8284 142.772 43.8284 142.772C43.8284 142.772 44.6368 158.079 58.5891 163.197C72.5414 168.315 80.8001 156.073 80.8001 156.073C80.8001 156.073 85.7494 166.825 98.6146 166.035C111.48 165.244 116.265 153.723 116.265 153.723C116.265 153.723 120.173 164.832 130.936 161.968C141.699 159.105 141.985 150.75 141.985 150.75C141.985 150.75 150.39 158.345 163.199 149.898C176.358 141.796 174.135 123.366 174.135 123.366Z" fill="#ED1C24"/>
<path d="M89.3553 89.8838C90.0305 87.0945 85.8486 86.0812 85.1734 88.8705C84.8333 89.9171 84.1453 90.9662 83.4547 91.6674C81.342 88.2026 79.572 84.0392 76.0782 81.9767C73.2826 80.2571 71.5561 82.01 70.5331 84.8018C69.1391 84.464 67.4076 85.5209 67.7682 87.2584C68.8502 92.471 70.6279 97.6784 72.0551 102.54C72.7713 105.319 76.9352 103.897 76.2216 101.466C75.155 98.3411 74.0859 94.8687 73.3671 91.7416L73.3645 91.3936C73.6996 89.651 73.6842 87.5629 74.3671 85.8177C74.7175 86.1631 75.0679 86.5086 75.0705 86.8566C77.5259 89.6228 78.9429 93.0927 80.7026 95.8641C81.406 96.903 82.8 97.2408 83.4905 96.5396C86.6109 95.1245 88.3348 93.0236 89.3553 89.8838Z" fill="white"/>
<path d="M109.969 101.913C107.137 95.3214 102.919 89.4358 100.784 82.8389C100.431 82.1454 100.08 81.8 99.382 81.4571C99.3794 81.109 99.029 80.7636 99.0265 80.4156C97.965 77.9871 95.1771 77.3116 92.7473 78.0255C92.0542 78.3787 91.7089 78.7293 91.3636 79.0798C91.0157 79.0824 91.0157 79.0824 90.6679 79.085C89.2765 79.0952 88.5885 80.1444 88.5962 81.1884C88.2739 84.6711 90.0362 87.7905 93.1771 89.1595C94.9215 89.8427 96.6556 89.1339 98.0393 88.0796C101.226 95.7129 106.147 102.637 108.644 110.972C109.355 113.055 109.368 114.795 109.035 116.886C108.022 121.069 101.398 119.03 99.6433 116.955C96.4819 112.802 99.216 106.169 100.574 101.634C101.6 99.1905 97.4179 98.1772 96.3923 100.621C94.3487 106.553 92.3129 113.528 95.8324 119.071C99.7048 125.307 108.746 124.892 112.529 118.948C115.969 113.702 112.086 106.074 109.969 101.913ZM95.2335 84.9679L94.8856 84.9705C94.1899 84.9756 93.8369 84.2821 93.484 83.5887C93.1336 83.2432 93.1284 82.5472 93.1259 82.1992C93.4737 82.1966 93.8216 82.1941 94.1694 82.1915C94.5173 82.1889 94.5173 82.1889 94.8651 82.1864L95.213 82.1838L95.5608 82.1812L95.5634 82.5293L95.5659 82.8773L95.5685 83.2253C95.5685 83.2253 95.5685 83.2253 95.5711 83.5733L95.5736 83.9213L95.5787 84.6174L95.2335 84.9679C95.5762 84.2693 94.8856 84.9705 95.2335 84.9679Z" fill="white"/>
<path d="M119.193 78.8754C114.367 84.8275 110.162 80.682 107.335 74.7862C109.028 68.5092 111.755 60.8323 109.276 54.934C108.212 52.1575 105.064 49.7445 102.296 51.8531C99.8768 53.9591 99.5597 58.1378 99.5828 61.27C99.6161 65.7942 100.698 71.0067 102.818 75.5156C102.821 75.8636 102.476 76.2142 102.478 76.5622C102.143 78.3048 103.542 79.3386 104.583 78.9829C105.287 80.0218 105.99 81.0608 106.691 81.7517C111.254 87.2867 117.513 86.8925 121.996 81.639C123.723 79.8861 120.917 76.7745 119.193 78.8754ZM103.777 64.0234C103.414 61.9378 103.399 59.8497 104.079 57.7565C104.077 57.4085 104.422 57.0579 104.417 56.3619L104.762 56.0113C105.465 57.0502 105.473 58.0943 105.483 59.4864C105.504 62.2705 105.176 65.0572 104.501 67.8464C104.143 66.4569 104.133 65.0649 103.777 64.0234Z" fill="white"/>
<path d="M128.607 81.5902C127.19 78.1203 126.121 74.6478 124.359 71.5285C122.949 69.1026 119.486 71.2163 120.548 73.6448C122.307 76.4161 123.029 79.8911 124.093 82.6676C124.448 83.7091 125.497 84.3974 126.538 84.0417C127.927 83.6835 128.963 82.6317 128.607 81.5902Z" fill="white"/>
<path d="M121.14 60.0674C119.743 59.3816 118.354 59.7398 118.014 60.7864C117.326 61.8356 117.684 63.2251 118.73 63.5654L119.078 63.5629C120.127 64.2512 121.516 63.893 121.856 62.8464C122.547 62.1452 122.188 60.7557 121.14 60.0674Z" fill="white"/>
<path d="M143.834 71.0372C142.081 69.3099 139.994 69.3252 137.559 69.3432C131.649 69.7347 135.094 65.1849 138.212 63.4218C140.636 62.0118 138.524 58.547 136.096 59.609C132.285 61.7252 126.763 67.6825 131.316 71.8254C133.066 73.2046 134.81 73.8879 136.895 73.5245C137.938 73.5168 139.327 73.1585 140.373 73.4989C141.767 73.8366 141.782 75.9247 141.442 76.9713C141.105 78.366 139.017 78.3813 137.974 78.389C135.191 78.4095 135.222 82.5857 138.005 82.5652C141.135 82.5422 143.215 81.4827 144.936 79.0338C146.66 76.9329 145.933 72.7619 143.834 71.0372Z" fill="white"/>
<path d="M167.134 70.5176C166.101 71.9174 164.717 72.9717 163.334 74.026C161.912 69.86 159.096 65.3563 155.259 63.9924C154.213 63.6521 153.169 63.6597 152.474 63.6649C151.034 57.0628 149.246 50.4633 149.194 43.503C149.174 40.7189 145 40.7496 145.02 43.5337C144.739 52.5847 148.279 60.9115 149.041 69.9548C149.054 71.6948 149.064 73.0869 149.072 74.1309C149.44 76.9125 153.267 76.8843 153.246 74.1002C153.233 72.3601 153.218 70.272 153.205 68.532C153.548 67.8334 153.893 67.4828 154.942 68.1711C157.74 70.2388 159.16 74.0567 160.226 77.1812C160.584 78.5707 162.326 78.9059 163.367 78.5502C166.14 77.1376 168.211 75.0342 170.283 72.9307C172.012 71.5258 168.858 68.4167 167.134 70.5176Z" fill="white"/>
<path d="M52.9834 63.3532C46.7272 64.0953 40.8471 68.663 41.5941 75.6182C41.988 81.8799 47.9296 85.6646 53.8302 83.881C55.9122 83.1696 54.8481 80.3931 53.1115 80.754C46.1647 82.1972 38.5403 86.0817 35.1079 92.3716C31.673 98.3135 33.8113 105.258 38.7145 109.747C43.6176 114.235 50.5823 115.228 56.8307 113.442C64.468 111.297 70.6908 106.031 75.1667 99.7335C76.5453 97.9832 74.0925 95.565 72.7139 97.3153C65.8235 106.415 53.718 115.901 42.5357 109.023C37.2949 105.929 34.113 98.9916 37.8984 93.3952C41.3384 88.1493 47.5792 85.3191 53.4849 84.2316C53.1294 83.1901 52.7738 82.1486 52.7662 81.1045C48.6022 82.5273 44.7529 79.4233 44.7196 74.8991C44.6863 70.3749 48.8399 67.5601 53.009 66.8333C55.0935 66.4699 55.0705 63.3378 52.9834 63.3532Z" fill="white"/>
</g>
<g clip-path="url(#clip1)">
<path d="M289.819 134.7C286.274 125.837 276.505 126.294 274.968 126.46C275.34 124.383 275.462 123.328 275.462 123.328C275.493 123.201 275.396 123.041 275.396 123.041C275.202 122.723 272.362 119.318 268.64 118.408C265.56 117.654 262.652 118.976 261.566 119.523C261.015 118.44 259.143 116.085 255.615 115.493C252.472 114.995 250.654 116.313 249.762 117.179C249.211 116.095 247.789 114.121 244.934 113.558C242.079 112.996 240.358 114.472 239.435 115.466C238.915 114.255 237.653 112.184 234.767 111.75C231.881 111.315 229.903 112.728 228.98 113.722C228.588 112.542 227.424 110.631 224.697 110.1C221.939 109.696 220.537 110.98 220.03 111.94C219.223 110.794 217.77 108.948 215.172 108.448C211.515 107.825 208.139 111.064 208.107 111.192L207.917 111.417C207.854 111.672 204.239 128.677 207.131 140.769C209.891 152.286 215.484 166.122 233.508 169.175C234.279 169.363 234.952 169.392 235.753 169.452C244.217 170.438 251.892 167.979 258.392 161.979C261.036 159.509 263.421 156.433 265.611 153.038C266.093 153.292 267.602 153.796 269.687 154.171C271.9 154.576 274.849 154.755 278.144 154.071C282.977 153.22 287.124 150.168 289.311 146.231C291.276 142.646 291.444 138.621 289.819 134.7ZM273.689 132.246C273.817 132.277 274.65 132.21 277.508 133.316C279.37 134.042 280.983 135.792 281.443 137.802C281.804 139.109 281.848 141.153 279.97 143.269C276.534 147.307 270.349 147.014 268.746 146.893C269.347 145.55 269.948 144.206 270.42 142.83C271.837 138.705 272.841 135.156 273.689 132.246Z" fill="#FAA61A"/>
<path d="M241.99 134.642C241.99 134.642 243.893 125.826 253.303 126.119C262.713 126.413 264.139 135.84 256.788 143.084C249.437 150.329 239.109 158.174 239.109 158.174C239.109 158.174 228.121 149.285 222.709 139.7C217.348 129.837 220.31 121.502 227.376 120.506C234.441 119.51 238.141 125.917 239.802 129.372C241.411 133.104 241.99 134.642 241.99 134.642Z" fill="#ED1C24"/>
<path d="M236.089 132.414C236.598 129.643 234.179 127.195 231.354 126.963C230.017 126.432 228.352 126.126 227.215 127.636C226.129 128.869 226.328 130.911 227.235 132.223C228.821 134.519 235.05 136.52 236.089 132.414ZM231.502 129.282C232.057 129.383 232.612 129.485 232.838 129.813C232.334 129.434 231.779 129.333 231.502 129.282Z" fill="white"/>
</g>
<defs>
<clipPath id="clip0">
<rect width="196.191" height="166.008" fill="white" transform="translate(0 1.44482) rotate(-0.421741)"/>
</clipPath>
<clipPath id="clip1">
<rect width="87.7315" height="57.7914" fill="white" transform="translate(209.73 104) rotate(13.7431)"/>
</clipPath>
</defs>
</svg>
