<svg width="373" height="353" viewBox="0 0 373 353" fill="none" xmlns="http://www.w3.org/2000/svg">
<g clip-path="url(#clip0)">
<path d="M188.612 246.132C180.388 247.434 174.328 247 173.895 247C173.03 247 171.731 246.132 171.298 245.264C170.865 244.395 170.865 243.093 171.298 242.225C171.298 242.225 179.522 227.032 178.657 212.706C178.224 202.288 173.03 195.777 170.865 193.172C168.701 194.04 165.239 194.909 160.477 195.777C149.657 197.513 129.746 197.079 115.895 177.545C99.0147 153.236 109.403 128.492 113.731 120.244C105.507 115.903 84.2983 101.144 82.9998 73.362C81.7013 44.2777 100.313 31.2548 117.627 29.0844C118.06 29.0844 118.925 29.0844 119.358 28.6503C128.015 27.7821 134.94 29.5185 138.403 30.3866C141.433 22.5729 150.955 3.47276 173.03 0.434095C175.194 0 177.791 0 180.388 0C205.492 0.86819 217.612 15.1933 221.94 22.1388C226.268 17.7979 235.791 10.8524 248.776 8.6819C254.836 7.81371 260.895 8.2478 266.955 9.98418C289.462 16.0615 297.254 31.6889 299.418 39.0685C302.015 38.2004 305.91 36.8981 310.671 36.0299C321.06 34.7276 335.343 35.5958 348.761 47.7504C366.507 64.246 357.418 88.9895 348.328 102.012C362.179 109.826 380.358 129.794 369.537 160.615C362.179 181.886 347.895 187.963 337.507 189.265C328.851 190.568 321.06 188.831 316.731 187.529C315.433 197.079 308.94 219.652 282.97 224.427C258.731 228.768 243.149 215.745 236.657 208.8C233.194 216.613 224.97 230.938 211.985 238.318C205.06 242.225 197.268 244.83 188.612 246.132Z" fill="#F5A300"/>
<path d="M165.671 104.618C163.074 106.789 147.925 118.943 146.194 110.695C145.761 108.091 147.492 104.184 148.358 101.579C149.224 98.1067 150.522 95.068 151.388 91.5953C151.821 89.8589 152.254 88.5566 153.119 86.8202C154.851 85.0838 156.582 83.3475 157.88 81.6111C164.806 74.2315 172.597 64.2473 172.164 53.829C172.164 52.9608 171.298 52.5267 170.866 52.9608C160.91 61.6427 155.716 73.7974 151.388 85.952C146.627 91.5953 141.433 97.2385 135.373 101.145C134.507 102.014 135.373 103.316 136.239 102.448C140.134 99.8431 143.164 96.3703 146.627 92.8975C147.925 91.5953 148.791 90.293 150.089 88.9907C149.224 92.0294 148.358 95.068 147.492 97.6726C146.194 102.014 141.433 111.13 147.492 113.734C153.985 116.339 162.209 108.959 166.537 105.052C167.403 105.486 166.537 103.75 165.671 104.618ZM170.433 55.9995C169.567 65.5496 162.209 74.6656 155.716 81.177C155.283 81.6111 154.851 82.0452 154.418 82.4793C158.313 72.9292 162.642 63.3791 170.433 55.9995Z" fill="white"/>
<path d="M231.03 92.0292C230.164 92.8974 227.567 96.8042 226.268 94.6338C225.403 92.8974 225.403 91.161 224.97 89.4246C224.104 85.5178 221.074 83.3473 217.612 85.0837V84.6496C218.91 82.9132 227.134 72.4949 229.298 76.4018C229.731 77.27 231.462 76.8359 231.03 75.9677C228 69.8904 220.209 78.5723 218.045 81.1768C217.612 81.6109 217.179 82.045 216.746 82.4791C216.746 79.4404 216.313 76.4018 216.746 73.3631C217.179 72.4949 217.179 71.6267 217.179 70.3244C217.179 69.0222 215.88 69.0222 215.448 69.8904C215.015 70.7585 215.015 71.6267 215.015 72.4949C213.283 79.0063 208.522 85.0837 203.328 88.9905C204.194 85.5178 204.194 82.045 201.164 79.4404C194.239 74.2313 184.283 88.9905 193.373 93.3315C195.104 94.1997 197.268 94.1997 199 93.3315C196.836 95.936 194.239 98.1065 191.209 98.1065C188.179 97.6724 187.313 93.7656 187.313 91.5951C187.313 90.2928 187.313 88.5564 187.746 87.2541C189.477 85.0837 190.776 82.9132 191.209 81.6109C191.642 80.7427 190.343 79.8745 189.477 80.7427C187.746 82.4791 186.448 84.6496 186.015 86.8201C184.716 88.9905 182.552 90.7269 180.821 92.4633C181.254 89.4246 180.388 86.8201 176.925 86.8201C174.761 86.8201 172.164 88.1223 170.865 90.2928L170 90.7269C166.537 93.7656 165.671 99.4088 166.537 103.75C167.403 108.091 172.164 107.657 174.761 105.486C176.059 104.184 178.656 99.8429 179.955 95.936C181.686 94.6338 183.418 92.8974 185.149 90.7269C185.149 91.5951 185.149 92.8974 185.149 93.7656C185.582 96.8042 187.746 100.711 191.209 100.711C195.104 100.711 199 97.2383 201.164 92.8974C203.328 91.5951 205.492 89.8587 206.791 88.5564C209.388 85.9519 211.985 82.4791 213.716 79.0063C213.716 81.1768 213.716 82.9132 214.149 85.0837C210.686 90.2928 207.224 97.2383 210.686 102.013C211.119 102.447 211.552 102.447 211.985 102.013C215.88 97.6724 215.88 92.4633 215.88 86.8201H216.746C218.91 85.5178 221.074 85.5178 221.94 88.5564C222.806 90.2928 222.806 92.4633 223.239 94.6338C224.537 99.8429 229.298 96.3701 231.462 93.7656C233.194 92.4633 231.895 91.161 231.03 92.0292ZM177.791 98.1065C176.925 100.711 171.298 109.827 168.701 102.882C167.836 100.277 168.268 96.3701 170 93.7656C170 94.6338 170.433 95.502 171.298 96.3701C173.462 98.5406 175.627 98.5406 178.224 97.2383C178.224 97.6724 178.224 98.1065 177.791 98.1065ZM178.656 94.1997C176.925 95.502 171.298 96.3701 171.731 92.8974C171.731 91.5951 173.462 90.2928 174.328 89.4246C179.089 86.8201 179.522 90.7269 178.656 94.1997ZM200.731 91.161C197.268 92.8974 192.507 93.7656 191.642 88.5564C190.776 84.2155 198.567 77.7041 201.164 82.9132C202.462 85.5178 202.03 88.5564 200.731 91.161ZM212.418 99.4088C211.119 95.936 213.283 91.5951 215.448 88.1223C215.448 92.4633 215.015 96.3701 212.418 99.4088Z" fill="white"/>
<path d="M294.657 65.115C291.194 63.3786 286.866 66.4173 285.134 69.456H284.701C281.671 71.1924 279.94 75.0992 280.373 78.572C277.776 80.3083 267.388 88.9902 266.955 82.4788C266.522 79.0061 267.388 75.0992 268.686 71.6264C270.851 71.1924 272.582 70.7583 274.746 70.3242C276.045 70.3242 275.612 68.5878 274.746 68.5878C273.015 68.5878 271.283 69.0219 269.552 69.456C269.985 68.5878 269.985 67.7196 270.418 67.2855C271.716 62.5105 271.716 56.8672 273.88 52.5263C274.313 51.6581 272.582 50.7899 272.149 51.6581C271.283 53.8286 270.851 55.999 270.418 58.6036C269.985 62.5105 268.686 66.4173 267.388 70.3242C266.522 70.7583 265.224 70.7583 263.925 71.1923C262.627 71.6264 263.06 73.3628 263.925 72.9287C264.791 72.9287 265.657 72.4946 266.522 72.4946C265.224 76.4015 263.492 82.4788 265.657 85.5175C269.119 90.7266 277.776 82.9129 281.239 80.3083C281.672 80.7424 281.672 81.6106 282.104 82.0447C286.866 87.688 293.358 77.7038 295.522 74.231C296.821 71.6264 298.119 66.8514 294.657 65.115ZM291.627 77.2697C289.895 79.4402 285.134 84.6493 282.97 80.3083C281.672 77.7038 282.104 75.0992 283.836 72.9287C283.836 74.231 284.269 75.9674 286 76.4015C288.597 77.2697 291.627 75.9674 293.791 74.6651C292.925 75.5333 292.06 76.4015 291.627 77.2697ZM295.089 69.8901C295.089 70.3242 295.089 71.1924 294.657 71.6264C294.224 71.6264 293.791 71.6264 293.358 71.6264C291.627 73.3628 289.03 75.0992 286.433 74.231C283.403 73.7969 287.298 69.0219 288.164 67.7196C290.761 66.4173 295.522 65.5491 295.089 69.8901Z" fill="white"/>
<path d="M163.941 118.943C164.373 117.641 162.642 117.206 162.209 118.075C159.179 125.02 157.015 132.4 153.985 139.345C153.552 140.213 153.552 140.648 153.12 141.516C150.523 142.384 147.926 143.252 145.329 143.252C144.03 143.252 144.463 144.988 145.329 144.988C147.493 144.988 149.657 144.12 151.821 143.252C150.09 147.593 148.358 152.368 148.791 157.143C148.791 157.577 149.224 158.011 149.657 158.011C154.851 158.011 159.179 154.973 163.508 152.368C164.373 151.934 163.508 150.198 162.642 150.632C158.746 152.802 155.284 155.407 150.523 155.841C150.523 151.066 152.254 146.725 153.985 142.384C155.284 141.95 156.582 141.516 158.314 141.082C159.612 141.082 159.179 138.911 158.314 139.345C157.448 139.345 156.149 139.779 155.284 140.213C155.717 139.345 156.149 138.043 156.582 137.175C159.612 131.532 161.343 125.02 163.941 118.943Z" fill="white"/>
<path d="M204.194 144.988C202.462 146.724 201.164 148.026 199 148.895C195.97 150.197 194.238 148.026 193.373 145.856C196.402 142.383 198.567 137.174 198.134 132.833C198.134 131.965 197.268 131.965 196.835 131.965C192.507 134.569 190.776 139.779 191.641 144.988C190.776 145.856 189.91 146.724 189.044 147.592C186.88 149.329 183.85 150.631 181.686 147.592C179.955 145.422 180.82 141.949 179.522 139.345C178.656 138.042 177.791 138.042 176.492 138.91C176.925 137.174 177.358 135.438 177.358 133.701C177.791 131.965 177.791 129.794 177.791 127.624C178.223 126.756 178.656 125.888 179.522 125.019C181.253 122.415 184.716 117.206 182.985 113.733C182.552 113.299 182.119 112.865 181.686 113.299C177.791 116.337 176.492 121.547 176.059 126.756C173.895 129.794 171.298 133.267 168.268 135.872C167.402 136.74 168.268 138.042 169.134 137.608C171.298 135.438 173.462 133.267 175.194 130.663C175.194 131.965 174.761 133.267 174.761 134.569C174.328 136.74 173.895 138.91 173.462 141.081C172.597 141.949 172.164 142.383 172.164 142.817C168.701 146.724 165.671 151.933 168.268 156.708L169.134 157.142H169.567L170.432 156.708C172.164 151.933 173.895 147.158 175.626 142.383C177.791 140.213 177.791 140.647 178.223 142.817C179.089 148.895 182.119 153.67 188.611 150.197C189.91 149.329 191.208 148.461 192.074 147.592C195.104 154.538 202.029 150.197 205.925 146.724C206.791 145.422 205.059 144.12 204.194 144.988ZM181.686 115.903C181.686 118.074 179.955 121.113 178.223 123.717C178.656 120.678 179.522 118.074 181.686 115.903ZM169.567 154.538C169.567 153.67 169.567 152.801 169.567 152.367C169.567 151.065 169.999 150.197 170.865 149.329C171.298 148.026 172.164 147.158 173.029 146.29C171.731 148.895 170.432 151.499 169.567 154.538ZM196.402 135.004C196.402 138.042 195.104 140.647 192.94 143.251C192.507 140.213 194.238 136.74 196.402 135.004Z" fill="white"/>
<path d="M237.089 127.19C234.925 125.02 231.029 127.19 229.298 128.927C228.865 129.361 228.432 130.229 227.567 130.663C227.567 128.493 227.567 125.888 228 123.718C228 122.415 226.268 122.415 226.268 123.283C225.835 126.756 225.835 129.795 225.835 133.268C222.806 138.043 220.641 144.554 224.97 148.461C225.403 148.895 226.268 148.461 226.268 148.027C227.134 143.252 227.134 138.911 227.134 134.136C227.567 133.268 228 132.399 228.865 131.965C229.298 131.531 230.164 130.663 230.597 130.229L231.462 129.795C232.761 128.493 234.059 129.361 234.925 131.531C234.059 132.399 234.925 133.702 235.791 133.268C238.388 131.097 238.82 129.361 237.089 127.19ZM225.403 145.422C224.104 142.818 224.97 139.779 225.835 137.609C226.268 140.213 225.835 142.818 225.403 145.422Z" fill="white"/>
<path d="M253.97 135.438C252.239 136.74 250.074 137.608 248.343 138.911C247.477 139.345 246.179 139.779 244.88 139.779C243.582 139.779 244.448 137.174 244.448 136.74C245.313 132.833 247.045 128.492 248.776 124.585C249.209 123.283 247.477 122.849 247.045 123.717C245.746 126.322 244.88 129.36 244.015 131.965C243.149 134.135 242.283 137.174 242.716 139.345C244.448 144.554 253.104 138.476 255.268 136.74C256.134 136.306 255.268 134.57 253.97 135.438Z" fill="white"/>
<path d="M252.239 110.695C250.94 109.827 250.075 110.695 249.209 111.564H248.343C247.045 112.432 246.179 114.168 246.612 115.47C246.612 117.207 247.91 118.075 249.209 118.509C251.373 118.943 254.403 117.641 254.403 115.47C254.836 113.734 253.97 111.563 252.239 110.695ZM250.94 116.773C250.075 116.773 248.776 117.207 248.343 115.904C248.343 115.47 248.343 115.036 248.343 114.168C248.343 114.602 248.776 114.602 249.209 114.602C250.075 114.602 250.94 114.168 251.806 113.734L252.239 113.3C252.239 113.734 252.672 114.168 252.672 114.602C253.104 115.904 252.239 116.339 250.94 116.773Z" fill="white"/>
<path d="M271.716 121.113V121.981C269.119 118.942 262.626 121.547 263.059 125.454C263.492 130.229 268.253 128.493 271.283 125.888C271.283 126.756 270.417 127.624 269.984 128.493C268.253 131.097 260.895 135.004 263.059 128.927C263.492 127.624 261.761 127.19 261.328 128.058C259.596 131.965 261.328 135.004 265.656 133.702C267.387 133.268 269.552 131.965 270.85 130.229C270.417 136.306 269.552 142.384 269.552 148.027C259.164 150.197 240.984 167.127 249.208 177.979C251.805 181.018 257.432 182.32 261.328 181.018C266.089 179.716 268.253 175.809 269.552 171.468C271.283 165.825 270.85 159.747 271.716 154.104C271.716 152.368 272.149 151.065 272.149 149.329C273.014 149.329 273.88 149.763 274.313 150.631C274.746 151.5 276.477 151.065 276.044 149.763C275.611 148.461 273.88 147.593 272.149 147.593C272.581 138.911 273.447 130.229 274.313 121.547C273.88 120.245 271.716 120.245 271.716 121.113ZM269.984 125.02C268.686 126.756 266.955 126.756 265.223 124.152C265.656 123.283 266.522 122.849 267.387 122.415C269.119 121.547 269.984 122.849 270.417 123.717L269.984 125.02ZM256.567 179.716C244.014 178.848 250.074 165.391 254.835 159.313C256.567 157.577 263.925 151.065 269.119 149.763C269.119 153.236 268.686 156.709 268.686 159.747C268.253 167.561 267.387 180.15 256.567 179.716Z" fill="white"/>
<path d="M300.716 129.361C299.418 130.663 298.552 132.4 297.254 133.702C296.821 134.136 290.761 139.779 291.627 132.834C291.627 131.966 292.06 131.097 291.627 130.229C290.761 127.191 289.03 125.02 286 125.454C287.731 115.47 287.731 105.052 290.328 95.9358C290.761 94.6335 288.597 94.6335 288.597 95.5017C286 105.052 286.433 115.904 284.269 125.888C278.642 128.059 274.746 137.609 278.209 141.95C278.642 142.384 279.507 142.384 279.507 141.95C282.537 137.609 284.269 132.4 285.567 127.191C288.164 126.757 289.896 129.795 289.463 132.4C289.463 133.268 289.03 135.004 289.896 136.307C293.791 141.516 299.851 134.136 302.015 130.663C302.881 129.361 301.582 128.493 300.716 129.361ZM279.075 139.345C277.776 135.438 280.806 130.663 283.403 128.059C282.537 131.966 281.239 135.872 279.075 139.345Z" fill="white"/>
<path d="M320.194 111.563C318.029 112.431 316.298 113.3 314.134 114.168C314.999 106.788 315.865 98.9744 317.164 91.5948C317.164 90.2926 315.432 90.2925 315.432 91.1607C314.134 98.9744 313.268 106.788 311.97 114.602C311.104 114.602 309.805 114.602 308.94 114.602C307.641 114.602 307.208 116.338 308.507 116.338C309.373 116.338 310.671 116.338 311.537 116.338C311.104 120.679 310.238 125.454 309.373 129.795C308.94 131.532 308.507 136.307 311.104 136.741C314.567 137.609 317.596 134.136 320.194 131.966C321.059 131.097 320.193 129.795 319.328 130.229C317.164 131.966 310.671 137.609 311.104 130.663C311.537 127.191 312.402 123.718 312.835 120.679C313.268 118.943 313.268 117.206 313.268 115.47C315.865 115.036 318.029 113.734 320.194 112.865C321.925 112.865 321.492 111.129 320.194 111.563Z" fill="white"/>
</g>
<g clip-path="url(#clip1)">
<path d="M113.066 272.704L124 276.399L114.309 284.527L113.066 272.704Z" fill="#1D1C1C"/>
<path d="M1.24271 312.36C1.24271 312.36 42.2447 269.995 59.391 260.635C76.5373 251.276 100.642 250.783 109.09 262.852C117.788 275.167 117.291 307.187 93.9321 322.458C70.8219 337.729 44.2327 335.02 31.3109 329.847C18.6375 324.675 1.24271 312.36 1.24271 312.36Z" fill="#8EB400"/>
<path d="M94.4288 323.197C104.617 316.547 111.575 305.709 114.06 292.655C116.296 281.079 114.806 269.256 109.836 262.606C105.611 256.448 97.1622 253 86.4769 253C77.2825 253 67.3426 255.463 59.1422 260.143C41.9959 269.502 2.48487 310.143 0.745392 311.867L-0.000106812 312.606L0.745392 313.099C0.993889 313.345 18.3887 325.414 31.062 330.586C37.5229 333.296 46.2203 334.773 54.6692 334.773C64.8576 334.773 80.0159 332.803 94.4288 323.197ZM59.8877 261.374C67.8396 256.941 77.531 254.478 86.4769 254.478C96.6652 254.478 104.617 257.68 108.593 263.345C113.066 269.749 114.557 281.325 112.569 292.409C110.084 304.97 103.375 315.562 93.6833 321.966C79.5189 331.325 64.8576 333.296 54.9177 333.296C46.4688 333.296 38.0199 331.818 31.8075 329.355C20.8736 324.921 6.21232 315.069 2.48486 312.606C7.9518 306.695 44.2324 269.995 59.8877 261.374Z" fill="#8EB400"/>
<path d="M100.144 273.69C100.144 276.645 98.1561 278.862 95.4226 278.862C92.6891 278.862 90.7012 276.399 90.7012 273.69C90.7012 270.734 92.6891 268.517 95.4226 268.517C98.1561 268.517 100.144 270.734 100.144 273.69Z" fill="white"/>
<path d="M98.6533 271.965C98.6533 273.443 97.6593 274.429 96.4168 274.429C95.1744 274.429 94.1804 273.443 94.1804 271.965C94.1804 270.488 95.1744 269.502 96.4168 269.502C97.6593 269.502 98.6533 270.488 98.6533 271.965Z" fill="#1D1C1C"/>
<path d="M20.3767 308.419C20.3767 310.389 18.8857 312.113 17.1463 312.113C15.4068 312.113 13.9158 310.389 13.9158 308.419C13.9158 306.448 15.4068 304.724 17.1463 304.724C18.8857 304.724 20.3767 306.448 20.3767 308.419Z" fill="#004A76"/>
<path d="M44.7295 302.261C44.7295 304.231 43.2385 305.956 41.499 305.956C39.7595 305.956 38.2686 304.231 38.2686 302.261C38.2686 300.291 39.7595 298.566 41.499 298.566C43.2385 298.566 44.7295 300.291 44.7295 302.261Z" fill="#004A76"/>
<path d="M62.3726 321.719C62.3726 323.689 60.8816 325.414 59.1421 325.414C57.4026 325.414 55.9116 323.689 55.9116 321.719C55.9116 319.749 57.4026 318.024 59.1421 318.024C61.1301 318.024 62.3726 319.502 62.3726 321.719Z" fill="#004A76"/>
<path d="M88.4648 313.098C88.4648 315.069 86.9739 316.793 85.2344 316.793C83.4949 316.793 82.0039 315.069 82.0039 313.098C82.0039 311.128 83.4949 309.404 85.2344 309.404C86.9739 309.65 88.4648 311.128 88.4648 313.098Z" fill="#004A76"/>
<path d="M75.2944 322.705C75.2944 324.675 73.8035 326.399 72.064 326.399C70.3245 326.399 68.8335 324.675 68.8335 322.705C68.8335 320.734 70.3245 319.01 72.064 319.01C74.052 319.256 75.2944 320.734 75.2944 322.705Z" fill="#004A76"/>
<path d="M72.8096 307.187C72.8096 309.158 71.3186 310.882 69.5791 310.882C67.8396 310.882 66.3487 309.158 66.3487 307.187C66.3487 305.217 67.8396 303.493 69.5791 303.493C71.3186 303.493 72.8096 305.217 72.8096 307.187Z" fill="#004A76"/>
<path d="M81.2585 259.404C81.2585 261.374 79.7676 263.099 78.0281 263.099C76.2886 263.099 74.7976 261.374 74.7976 259.404C74.7976 257.434 76.2886 255.709 78.0281 255.709C80.0161 255.709 81.2585 257.434 81.2585 259.404Z" fill="#004A76"/>
<path d="M43.4871 322.212C43.4871 324.182 41.9961 325.906 40.2566 325.906C38.5171 325.906 37.0261 324.182 37.0261 322.212C37.0261 320.241 38.5171 318.517 40.2566 318.517C41.9961 318.517 43.4871 320.241 43.4871 322.212Z" fill="#004A76"/>
<path d="M92.6892 297.335C92.6892 299.305 91.1982 301.03 89.4588 301.03C87.7193 301.03 86.2283 299.305 86.2283 297.335C86.2283 295.365 87.7193 293.64 89.4588 293.64C91.1982 293.887 92.6892 295.365 92.6892 297.335Z" fill="#004A76"/>
<path d="M108.842 295.118C108.842 297.089 107.351 298.813 105.611 298.813C103.872 298.813 102.381 297.089 102.381 295.118C102.381 293.148 103.872 291.424 105.611 291.424C107.351 291.424 108.842 292.902 108.842 295.118Z" fill="#004A76"/>
<path d="M58.6453 275.167C58.6453 277.138 57.1543 278.862 55.4148 278.862C53.6753 278.862 52.1843 277.138 52.1843 275.167C52.1843 273.197 53.6753 271.473 55.4148 271.473C57.1543 271.473 58.6453 273.197 58.6453 275.167Z" fill="#004A76"/>
<path d="M39.7598 290.685C39.7598 292.655 38.2688 294.379 36.5293 294.379C34.7898 294.379 33.2988 292.655 33.2988 290.685C33.2988 288.714 34.7898 286.99 36.5293 286.99C38.2688 287.237 39.7598 288.714 39.7598 290.685Z" fill="#004A76"/>
<path d="M31.5592 319.256C31.5592 319.256 46.2206 294.379 54.918 282.31C63.6153 270.241 78.5252 267.039 81.5071 280.094C84.4891 293.394 66.3488 307.434 53.924 312.113C41.7476 316.793 31.5592 319.256 31.5592 319.256Z" fill="white"/>
<path d="M62.3727 349.798C62.8697 344.625 64.3607 339.453 64.8577 334.281C64.8577 333.295 63.3667 333.295 63.3667 334.281V334.527C63.1182 334.527 62.6212 334.773 62.6212 335.266C62.6212 338.714 61.8757 342.162 61.3787 345.364C61.3787 346.103 61.1302 347.089 60.8817 348.074C60.6332 349.552 60.3847 351.029 60.3847 352.507C60.3847 353.246 61.3787 353.492 61.8757 352.754C62.3727 352.754 62.8697 352.261 62.6212 351.522C62.6212 351.029 62.3727 350.291 62.3727 349.798Z" fill="#1D1C1C"/>
<path d="M71.8156 348.32C72.3126 343.148 73.8035 337.976 74.3005 332.803C74.3005 331.818 72.8096 331.818 72.8096 332.803V333.049C72.5611 333.049 72.0641 333.296 72.0641 333.788C72.0641 337.237 71.3186 340.685 70.8216 343.887C70.5731 344.626 70.5731 345.611 70.3246 346.596C70.0761 348.074 69.8276 349.552 69.8276 351.03C69.8276 351.769 70.8216 352.015 71.3186 351.276C71.8156 351.276 72.3126 350.783 72.0641 350.044C72.0641 349.552 72.0641 349.059 71.8156 348.32Z" fill="#1D1C1C"/>
</g>
<defs>
<clipPath id="clip0">
<rect width="290" height="247" fill="white" transform="translate(83)"/>
</clipPath>
<clipPath id="clip1">
<rect width="124" height="100" fill="white" transform="matrix(-1 0 0 1 124 253)"/>
</clipPath>
</defs>
</svg>
