<svg width="288" height="250" viewBox="0 0 288 250" fill="none" xmlns="http://www.w3.org/2000/svg">
<g clip-path="url(#clip0)">
<path d="M185.876 171.31L176 174.931L184.754 182.897L185.876 171.31Z" fill="black"/>
<path d="M286.878 210.172C286.878 210.172 249.844 168.655 234.357 159.483C218.87 150.31 197.098 149.828 189.467 161.655C181.611 173.724 182.06 205.103 203.158 220.069C224.032 235.034 248.048 232.379 259.719 227.31C271.166 222.241 286.878 210.172 286.878 210.172Z" fill="#FAA61A"/>
<path d="M202.709 220.793C193.507 214.276 187.222 203.655 184.978 190.862C182.958 179.517 184.305 167.931 188.794 161.414C192.609 155.379 200.24 152 209.892 152C218.196 152 227.174 154.414 234.581 159C250.068 168.172 285.755 208 287.327 209.69L288 210.414L287.327 210.897C287.102 211.138 271.391 222.966 259.944 228.034C254.108 230.69 246.252 232.138 238.621 232.138C229.419 232.138 215.727 230.207 202.709 220.793ZM233.908 160.207C226.725 155.862 217.972 153.448 209.892 153.448C200.689 153.448 193.507 156.586 189.916 162.138C185.876 168.414 184.529 179.759 186.325 190.621C188.569 202.931 194.629 213.31 203.383 219.586C216.176 228.759 229.419 230.69 238.397 230.69C246.028 230.69 253.659 229.241 259.27 226.828C269.146 222.483 282.389 212.828 285.755 210.414C280.818 204.621 248.048 168.655 233.908 160.207Z" fill="#FAA61A"/>
<path d="M197.547 172.276C197.547 175.172 199.343 177.345 201.812 177.345C204.281 177.345 206.076 174.931 206.076 172.276C206.076 169.379 204.281 167.207 201.812 167.207C199.343 167.207 197.547 169.379 197.547 172.276Z" fill="white"/>
<path d="M198.894 170.586C198.894 172.034 199.792 173 200.914 173C202.036 173 202.934 172.034 202.934 170.586C202.934 169.138 202.036 168.172 200.914 168.172C199.792 168.172 198.894 169.138 198.894 170.586Z" fill="#292141"/>
<path d="M269.595 206.31C269.595 208.241 270.942 209.931 272.513 209.931C274.084 209.931 275.431 208.241 275.431 206.31C275.431 204.379 274.084 202.69 272.513 202.69C270.942 202.69 269.595 204.379 269.595 206.31Z" fill="#004A76"/>
<path d="M247.599 200.276C247.599 202.207 248.946 203.897 250.517 203.897C252.088 203.897 253.435 202.207 253.435 200.276C253.435 198.345 252.088 196.655 250.517 196.655C248.946 196.655 247.599 198.345 247.599 200.276Z" fill="#004A76"/>
<path d="M231.663 219.345C231.663 221.276 233.01 222.965 234.581 222.965C236.152 222.965 237.499 221.276 237.499 219.345C237.499 217.414 236.152 215.724 234.581 215.724C232.786 215.724 231.663 217.172 231.663 219.345Z" fill="#004A76"/>
<path d="M208.096 210.896C208.096 212.827 209.443 214.517 211.014 214.517C212.585 214.517 213.932 212.827 213.932 210.896C213.932 208.965 212.585 207.276 211.014 207.276C209.443 207.517 208.096 208.965 208.096 210.896Z" fill="#004A76"/>
<path d="M219.992 220.31C219.992 222.241 221.339 223.931 222.91 223.931C224.481 223.931 225.828 222.241 225.828 220.31C225.828 218.379 224.481 216.69 222.91 216.69C221.114 216.931 219.992 218.379 219.992 220.31Z" fill="#004A76"/>
<path d="M222.237 205.103C222.237 207.034 223.583 208.724 225.154 208.724C226.726 208.724 228.072 207.034 228.072 205.103C228.072 203.172 226.726 201.483 225.154 201.483C223.583 201.483 222.237 203.172 222.237 205.103Z" fill="#004A76"/>
<path d="M214.605 158.276C214.605 160.207 215.952 161.897 217.523 161.897C219.094 161.897 220.441 160.207 220.441 158.276C220.441 156.345 219.094 154.655 217.523 154.655C215.727 154.655 214.605 156.345 214.605 158.276Z" fill="#004A76"/>
<path d="M248.721 219.828C248.721 221.759 250.068 223.448 251.639 223.448C253.21 223.448 254.557 221.759 254.557 219.828C254.557 217.897 253.21 216.207 251.639 216.207C250.068 216.207 248.721 217.897 248.721 219.828Z" fill="#004A76"/>
<path d="M204.281 195.448C204.281 197.379 205.627 199.069 207.199 199.069C208.77 199.069 210.116 197.379 210.116 195.448C210.116 193.517 208.77 191.828 207.199 191.828C205.627 192.069 204.281 193.517 204.281 195.448Z" fill="#004A76"/>
<path d="M189.691 193.276C189.691 195.207 191.038 196.897 192.609 196.897C194.18 196.897 195.527 195.207 195.527 193.276C195.527 191.345 194.18 189.655 192.609 189.655C191.038 189.655 189.691 191.104 189.691 193.276Z" fill="#004A76"/>
<path d="M235.03 173.724C235.03 175.655 236.377 177.345 237.948 177.345C239.519 177.345 240.866 175.655 240.866 173.724C240.866 171.793 239.519 170.104 237.948 170.104C236.377 170.104 235.03 171.793 235.03 173.724Z" fill="#004A76"/>
<path d="M252.088 188.931C252.088 190.862 253.435 192.552 255.006 192.552C256.577 192.552 257.924 190.862 257.924 188.931C257.924 187 256.577 185.31 255.006 185.31C253.435 185.552 252.088 187 252.088 188.931Z" fill="#004A76"/>
<path d="M259.495 216.931C259.495 216.931 246.252 192.552 238.397 180.724C230.541 168.897 217.074 165.759 214.381 178.552C211.687 191.586 228.072 205.345 239.294 209.931C250.292 214.517 259.495 216.931 259.495 216.931Z" fill="white"/>
<path d="M231.663 246.862C231.215 241.793 229.868 236.724 229.419 231.655C229.419 230.69 230.766 230.69 230.766 231.655V231.897C230.99 231.897 231.439 232.138 231.439 232.621C231.439 236 232.112 239.379 232.561 242.517C232.561 243.241 232.786 244.207 233.01 245.172C233.235 246.621 233.459 248.069 233.459 249.517C233.459 250.241 232.561 250.483 232.112 249.759C231.663 249.759 231.215 249.276 231.439 248.552C231.439 248.069 231.663 247.345 231.663 246.862Z" fill="black"/>
<path d="M223.134 245.414C222.685 240.345 221.339 235.276 220.89 230.207C220.89 229.242 222.236 229.242 222.236 230.207V230.448C222.461 230.448 222.91 230.69 222.91 231.173C222.91 234.552 223.583 237.931 224.032 241.069C224.256 241.793 224.256 242.759 224.481 243.724C224.705 245.173 224.93 246.621 224.93 248.069C224.93 248.793 224.032 249.035 223.583 248.31C223.134 248.31 222.685 247.828 222.91 247.104C222.91 246.621 222.91 246.138 223.134 245.414Z" fill="black"/>
</g>
<g clip-path="url(#clip1)">
<path d="M114.921 176.476C120.144 177.262 124.062 177 124.062 177C124.584 177 125.368 176.476 125.629 175.951C125.89 175.427 125.89 174.378 125.629 173.853C125.629 173.853 120.406 162.84 120.928 152.613C121.189 145.009 124.323 140.551 125.629 138.716C126.935 139.24 129.286 140.027 132.159 140.551C138.95 141.6 151.486 141.338 160.105 127.44C170.814 110.133 164.284 92.3022 161.411 86.2711C166.374 83.1245 179.955 72.6356 180.739 52.7067C181.522 31.9911 170.03 22.5511 159.061 20.7156C158.538 20.7156 158.277 20.7156 158.016 20.4533C152.792 19.9289 148.613 20.9778 146.263 21.7644C144.434 16.2578 138.427 2.36 124.846 0.262222C123.279 0 121.711 0 120.144 0C104.473 0.524444 96.899 10.7511 94.026 15.7333C91.153 12.5867 85.407 7.60444 77.3103 6.29333C73.6537 5.76889 69.736 6.03111 65.8182 7.08C51.7143 11.2756 47.013 22.8133 45.4459 28.0578C43.8788 27.2711 41.267 26.4844 38.394 25.96C32.3868 24.9111 23.2454 25.6978 14.8875 34.3511C3.65663 46.1511 9.66384 63.9822 15.1487 73.4222C6.52965 78.9289 -4.96242 93.3511 1.82835 115.378C6.52964 130.587 15.1487 135.044 21.9395 136.093C27.4243 136.88 32.1256 135.831 34.9986 135.044C36.0434 141.862 39.9611 158.12 55.8933 161.529C71.0419 164.676 80.9669 155.236 84.8846 150.253C86.9741 155.76 92.1978 166.249 100.294 171.231C104.735 173.853 109.697 175.689 114.921 176.476Z" fill="#8EB400"/>
<path d="M78.8773 86.2707C79.3996 84.1729 76.0042 83.124 75.4819 85.484C75.2207 86.5329 74.6983 87.3196 74.176 87.8441C72.6089 84.9596 70.7806 81.2885 68.1687 79.7152C65.8181 78.1418 64.251 79.7152 63.4674 82.0752C62.4227 81.8129 60.8556 82.8618 61.1168 84.1729C61.9003 88.6307 63.4674 92.8263 64.7734 97.0218C65.2957 99.1196 68.9523 98.3329 68.1687 95.9729C67.3852 93.3507 66.6016 90.4663 65.8181 87.8441V87.5818C66.0793 86.0085 66.0793 84.4352 66.6016 83.1241C66.8628 83.3863 67.124 83.6485 67.3852 83.9107C69.2135 86.2707 70.5194 89.1552 72.0865 91.5152C72.6089 92.3018 73.6536 92.8263 74.4371 92.0396C76.5266 90.4663 78.0937 88.6307 78.8773 86.2707Z" fill="white"/>
<path d="M96.1153 96.2353C93.7647 90.7286 90.3693 85.7464 88.541 79.9775C88.2798 79.453 88.0187 78.9286 87.4963 78.9286C87.4963 78.6664 87.2351 78.4042 87.2351 77.8797C86.1904 75.7819 84.1009 75.2575 82.0114 75.7819C81.4891 76.0442 80.9667 76.3064 80.9667 76.8308C80.7055 76.8308 80.7055 76.8308 80.4443 76.8308C79.3996 76.8308 78.8772 77.6175 78.6161 78.6664C78.3549 81.5508 79.6608 84.173 82.2726 85.2219C83.8397 85.7464 85.4068 85.2219 86.4515 84.173C89.0634 90.7286 93.2423 96.4975 95.0706 103.315C95.593 104.889 95.8542 106.724 95.3318 108.297C94.2871 111.706 89.0634 110.133 87.4963 108.297C84.8845 104.626 87.2351 99.1197 88.2798 95.4486C89.0634 93.3508 85.668 92.3019 84.8845 94.6619C83.3174 99.6442 81.4891 105.413 84.3621 110.133C87.4963 115.377 95.0706 115.115 98.2048 110.133C100.817 106.2 97.6824 99.6442 96.1153 96.2353ZM83.8397 81.813H83.5785C83.0562 81.813 82.795 81.2886 82.2726 80.5019C82.0114 80.2397 82.0114 79.7153 82.0114 79.453C82.2726 79.453 82.5338 79.453 82.795 79.453C83.0562 79.453 83.0562 79.453 83.3174 79.453H83.5785H83.8397L84.1009 79.7153V79.9775V80.2397C84.1009 80.2397 84.1009 80.2397 84.1009 80.5019V80.7642V81.2886L83.8397 81.813C84.1009 81.2886 83.5785 82.0753 83.8397 81.813Z" fill="white"/>
<path d="M103.69 77.0936C99.5108 82.0758 96.1154 78.6669 93.7647 73.6847C95.3318 68.4402 97.4213 61.8847 95.593 56.9025C94.5483 54.5425 92.1976 52.4447 89.847 54.2802C87.7575 55.8536 87.4963 59.7869 87.4963 62.1469C87.4963 66.0802 88.5411 70.2758 90.1082 73.9469C90.1082 74.2091 89.847 74.4714 89.847 74.9958C89.5858 76.3069 90.6305 77.0936 91.6753 77.0936C92.1976 77.8802 92.72 78.6669 93.2424 79.4536C97.1601 84.1736 102.384 83.9114 106.04 79.4536C107.607 77.8802 105.257 75.258 103.69 77.0936ZM91.1529 64.5069C90.8917 62.6714 90.8917 60.8358 91.4141 59.2625C91.4141 59.0002 91.6753 58.4758 91.9365 58.2136L92.1976 57.6891C92.72 58.4758 92.9812 59.5247 92.9812 60.5736C92.9812 62.9336 92.72 65.2936 92.1976 67.6536C91.4141 66.3425 91.1529 65.2936 91.1529 64.5069Z" fill="white"/>
<path d="M111.525 79.1908C110.48 76.3063 109.697 73.4219 108.13 70.7996C107.085 68.7019 103.951 70.5374 104.995 72.6352C106.301 74.9952 107.085 77.8797 108.13 80.2397C108.391 81.0263 109.174 81.813 110.219 81.5508C111.264 81.2885 112.047 80.2397 111.525 79.1908Z" fill="white"/>
<path d="M105.518 61.36C104.473 60.8356 103.428 61.0978 102.906 61.8845C102.384 62.6711 102.645 63.9822 103.69 64.2444L103.951 64.5067C104.734 65.0311 105.779 64.7689 106.301 63.72C106.824 62.9333 106.563 61.8844 105.518 61.36Z" fill="white"/>
<path d="M124.584 70.5375C123.017 69.2263 121.189 68.9641 119.361 69.2263C114.398 69.4886 117.532 65.5552 120.144 64.2441C122.234 63.1952 120.405 60.0486 118.316 61.0975C115.182 62.933 110.48 67.653 114.137 71.3241C115.443 72.6352 117.01 72.8975 118.838 72.8975C119.883 72.8975 120.667 72.6352 121.711 72.8975C122.756 73.1597 122.756 74.9952 122.495 75.7819C121.973 76.8308 120.667 76.8308 119.622 76.8308C117.271 76.8308 117.271 80.5019 119.622 80.5019C122.234 80.5019 124.062 79.7152 125.629 77.6175C126.674 75.5197 126.151 71.8486 124.584 70.5375Z" fill="white"/>
<path d="M143.912 70.2755C142.867 71.3243 142.083 72.3732 140.777 73.1599C139.471 69.751 137.382 66.0799 133.987 64.7688C132.942 64.5066 132.158 64.5066 131.636 64.5066C130.591 58.9999 129.024 53.4932 129.024 47.7243C129.024 45.3643 125.629 45.3643 125.368 47.7243C125.106 55.3288 127.979 62.4088 128.502 69.751C128.502 71.0621 128.502 72.3732 128.502 73.4221C128.763 75.7821 131.897 75.7821 132.158 73.4221C132.158 71.8488 132.158 70.2755 132.158 68.7021C132.42 68.1777 132.681 67.9155 133.464 68.4399C135.815 70.2755 137.121 73.4221 137.643 76.0443C137.904 77.3555 139.21 77.6177 140.255 77.0932C142.606 76.0443 144.173 74.2088 146.001 72.3732C148.091 71.0621 145.479 68.4399 143.912 70.2755Z" fill="white"/>
<path d="M48.5799 63.7199C43.3563 64.2443 38.3938 68.1776 38.9162 73.9465C39.1773 79.191 44.1398 82.5999 49.1023 81.0265C50.9306 80.5021 50.147 78.1421 48.3188 78.4043C42.5727 79.4532 36.3043 82.5999 33.1701 88.1065C30.2971 93.0887 31.8642 99.1199 36.0431 102.791C40.2221 106.462 45.9681 107.511 51.1918 106.2C57.7213 104.627 62.6838 99.9065 66.6016 94.9243C67.6463 93.6132 65.818 91.5154 64.5121 93.0887C59.0273 100.169 48.8411 108.035 39.6997 102.529C35.2596 99.9065 32.6478 93.8754 36.0431 89.1554C38.9162 84.9599 44.1398 82.5999 49.1023 81.551C48.8411 80.7643 48.5799 79.7154 48.3188 78.9287C44.9234 79.9776 41.528 77.3554 41.528 73.6843C41.528 70.0132 44.9234 67.391 48.5799 67.1287C50.4082 66.3421 50.4082 63.4576 48.5799 63.7199Z" fill="white"/>
</g>
<defs>
<clipPath id="clip0">
<rect width="112" height="98" fill="white" transform="translate(176 152)"/>
</clipPath>
<clipPath id="clip1">
<rect width="181" height="177" fill="white"/>
</clipPath>
</defs>
</svg>
