<svg width="273" height="247" viewBox="0 0 273 247" fill="none" xmlns="http://www.w3.org/2000/svg">
<g clip-path="url(#clip0)">
<path d="M170.876 168.31L161 171.931L169.754 179.896L170.876 168.31Z" fill="black"/>
<path d="M271.878 207.172C271.878 207.172 234.844 165.655 219.357 156.483C203.87 147.31 182.098 146.828 174.467 158.655C166.611 170.724 167.06 202.103 188.158 217.069C209.032 232.034 233.048 229.379 244.72 224.31C256.166 219.241 271.878 207.172 271.878 207.172Z" fill="#FAA61A"/>
<path d="M187.709 217.793C178.507 211.276 172.222 200.655 169.978 187.862C167.958 176.517 169.304 164.931 173.793 158.414C177.609 152.379 185.24 149 194.891 149C203.196 149 212.174 151.414 219.581 156C235.068 165.172 270.755 205 272.326 206.69L273 207.414L272.326 207.897C272.102 208.138 256.39 219.966 244.944 225.034C239.108 227.69 231.252 229.138 223.621 229.138C214.419 229.138 200.727 227.207 187.709 217.793ZM218.908 157.207C211.725 152.862 202.972 150.448 194.891 150.448C185.689 150.448 178.507 153.586 174.916 159.138C170.875 165.414 169.529 176.759 171.324 187.621C173.569 199.931 179.629 210.31 188.382 216.586C201.176 225.759 214.419 227.69 223.396 227.69C231.028 227.69 238.659 226.241 244.27 223.828C254.146 219.483 267.388 209.828 270.755 207.414C265.817 201.621 233.048 165.655 218.908 157.207Z" fill="#FAA61A"/>
<path d="M182.547 169.276C182.547 172.173 184.342 174.345 186.811 174.345C189.28 174.345 191.076 171.931 191.076 169.276C191.076 166.379 189.28 164.207 186.811 164.207C184.342 164.207 182.547 166.379 182.547 169.276Z" fill="white"/>
<path d="M183.894 167.586C183.894 169.034 184.791 170 185.914 170C187.036 170 187.934 169.034 187.934 167.586C187.934 166.138 187.036 165.172 185.914 165.172C184.791 165.172 183.894 166.138 183.894 167.586Z" fill="#292141"/>
<path d="M254.595 203.31C254.595 205.241 255.941 206.931 257.513 206.931C259.084 206.931 260.43 205.241 260.43 203.31C260.43 201.379 259.084 199.69 257.513 199.69C255.941 199.69 254.595 201.379 254.595 203.31Z" fill="#004A76"/>
<path d="M232.599 197.276C232.599 199.207 233.945 200.897 235.516 200.897C237.088 200.897 238.434 199.207 238.434 197.276C238.434 195.345 237.088 193.655 235.516 193.655C233.945 193.655 232.599 195.345 232.599 197.276Z" fill="#004A76"/>
<path d="M216.663 216.345C216.663 218.276 218.01 219.965 219.581 219.965C221.152 219.965 222.499 218.276 222.499 216.345C222.499 214.414 221.152 212.724 219.581 212.724C217.785 212.724 216.663 214.172 216.663 216.345Z" fill="#004A76"/>
<path d="M193.097 207.896C193.097 209.827 194.443 211.517 196.015 211.517C197.586 211.517 198.932 209.827 198.932 207.896C198.932 205.965 197.586 204.276 196.015 204.276C194.443 204.517 193.097 205.965 193.097 207.896Z" fill="#004A76"/>
<path d="M204.992 217.31C204.992 219.241 206.339 220.931 207.91 220.931C209.481 220.931 210.828 219.241 210.828 217.31C210.828 215.379 209.481 213.69 207.91 213.69C206.114 213.931 204.992 215.379 204.992 217.31Z" fill="#004A76"/>
<path d="M207.236 202.103C207.236 204.034 208.583 205.724 210.154 205.724C211.725 205.724 213.072 204.034 213.072 202.103C213.072 200.172 211.725 198.483 210.154 198.483C208.583 198.483 207.236 200.172 207.236 202.103Z" fill="#004A76"/>
<path d="M199.605 155.276C199.605 157.207 200.952 158.897 202.523 158.897C204.094 158.897 205.441 157.207 205.441 155.276C205.441 153.345 204.094 151.655 202.523 151.655C200.728 151.655 199.605 153.345 199.605 155.276Z" fill="#004A76"/>
<path d="M233.722 216.828C233.722 218.759 235.068 220.448 236.64 220.448C238.211 220.448 239.557 218.759 239.557 216.828C239.557 214.897 238.211 213.207 236.64 213.207C235.068 213.207 233.722 214.897 233.722 216.828Z" fill="#004A76"/>
<path d="M189.28 192.448C189.28 194.379 190.627 196.069 192.198 196.069C193.769 196.069 195.116 194.379 195.116 192.448C195.116 190.517 193.769 188.828 192.198 188.828C190.627 189.069 189.28 190.517 189.28 192.448Z" fill="#004A76"/>
<path d="M174.691 190.276C174.691 192.207 176.038 193.897 177.609 193.897C179.18 193.897 180.527 192.207 180.527 190.276C180.527 188.345 179.18 186.655 177.609 186.655C176.038 186.655 174.691 188.104 174.691 190.276Z" fill="#004A76"/>
<path d="M220.03 170.724C220.03 172.655 221.377 174.345 222.948 174.345C224.519 174.345 225.866 172.655 225.866 170.724C225.866 168.793 224.519 167.104 222.948 167.104C221.377 167.104 220.03 168.793 220.03 170.724Z" fill="#004A76"/>
<path d="M237.088 185.931C237.088 187.862 238.435 189.552 240.006 189.552C241.577 189.552 242.924 187.862 242.924 185.931C242.924 184 241.577 182.31 240.006 182.31C238.435 182.552 237.088 184 237.088 185.931Z" fill="#004A76"/>
<path d="M244.495 213.931C244.495 213.931 231.252 189.552 223.396 177.724C215.541 165.897 202.074 162.759 199.38 175.552C196.687 188.586 213.072 202.345 224.294 206.931C235.292 211.517 244.495 213.931 244.495 213.931Z" fill="white"/>
<path d="M216.663 243.862C216.215 238.793 214.868 233.724 214.419 228.655C214.419 227.69 215.766 227.69 215.766 228.655V228.897C215.99 228.897 216.439 229.138 216.439 229.621C216.439 233 217.112 236.379 217.561 239.517C217.561 240.241 217.786 241.207 218.01 242.172C218.235 243.621 218.459 245.069 218.459 246.517C218.459 247.241 217.561 247.483 217.112 246.759C216.663 246.759 216.215 246.276 216.439 245.552C216.439 245.069 216.663 244.345 216.663 243.862Z" fill="black"/>
<path d="M208.134 242.414C207.685 237.345 206.339 232.276 205.89 227.207C205.89 226.242 207.236 226.242 207.236 227.207V227.448C207.461 227.448 207.91 227.69 207.91 228.173C207.91 231.552 208.583 234.931 209.032 238.069C209.256 238.793 209.256 239.759 209.481 240.724C209.705 242.173 209.93 243.621 209.93 245.069C209.93 245.793 209.032 246.035 208.583 245.311C208.134 245.311 207.685 244.828 207.91 244.104C207.91 243.621 207.91 243.138 208.134 242.414Z" fill="black"/>
</g>
<g clip-path="url(#clip1)">
<path d="M107.302 164.511C112.179 165.244 115.837 165 115.837 165C116.325 165 117.056 164.511 117.3 164.022C117.544 163.533 117.544 162.556 117.3 162.067C117.3 162.067 112.423 151.8 112.911 142.267C113.155 135.178 116.081 131.022 117.3 129.311C118.52 129.8 120.714 130.533 123.397 131.022C129.738 132 141.443 131.756 149.491 118.8C159.489 102.667 153.393 86.0444 150.71 80.4222C155.344 77.4889 168.025 67.7111 168.756 49.1333C169.488 29.8222 158.758 21.0222 148.515 19.3111C148.028 19.3111 147.784 19.3111 147.54 19.0667C142.662 18.5778 138.761 19.5556 136.566 20.2889C134.859 15.1556 129.25 2.2 116.569 0.244444C115.105 0 113.642 0 112.179 0C97.547 0.488889 90.4749 10.0222 87.7923 14.6667C85.1098 11.7333 79.7447 7.08889 72.1848 5.86667C68.7707 5.37778 65.1127 5.62222 61.4547 6.6C48.2859 10.5111 43.8962 21.2667 42.433 26.1556C40.9698 25.4222 38.5312 24.6889 35.8486 24.2C30.2397 23.2222 21.7043 23.9556 13.9006 32.0222C3.41428 43.0222 9.02323 59.6444 14.1444 68.4444C6.09682 73.5778 -4.63333 87.0222 1.70721 107.556C6.09682 121.733 14.1444 125.889 20.485 126.867C25.6062 127.6 29.9958 126.622 32.6784 125.889C33.6538 132.244 37.3118 147.4 52.1877 150.578C66.332 153.511 75.599 144.711 79.257 140.067C81.2079 145.2 86.0853 154.978 93.6452 159.622C97.7909 162.067 102.424 163.778 107.302 164.511Z" fill="#EC1C24"/>
<path d="M73.648 80.4218C74.1358 78.4663 70.9655 77.4885 70.4778 79.6885C70.2339 80.6663 69.7462 81.3996 69.2584 81.8885C67.7952 79.1996 66.0882 75.7774 63.6495 74.3107C61.4547 72.844 59.9915 74.3107 59.2599 76.5107C58.2844 76.2663 56.8212 77.244 57.0651 78.4663C57.7967 82.6218 59.2599 86.5329 60.4792 90.444C60.9669 92.3996 64.3811 91.6663 63.6495 89.4663C62.9179 87.0218 62.1863 84.3329 61.4547 81.8885V81.644C61.6986 80.1774 61.6986 78.7107 62.1863 77.4885C62.4302 77.7329 62.674 77.9774 62.9179 78.2218C64.625 80.4218 65.8443 83.1107 67.3075 85.3107C67.7952 86.044 68.7707 86.5329 69.5023 85.7996C71.4532 84.3329 72.9164 82.6218 73.648 80.4218Z" fill="white"/>
<path d="M89.7428 89.7108C87.548 84.5774 84.3777 79.933 82.6706 74.5552C82.4268 74.0663 82.1829 73.5774 81.6952 73.5774C81.6952 73.333 81.4513 73.0886 81.4513 72.5997C80.4758 70.6441 78.5249 70.1552 76.5739 70.6441C76.0862 70.8885 75.5985 71.133 75.5985 71.6219C75.3546 71.6219 75.3546 71.6219 75.1107 71.6219C74.1353 71.6219 73.6475 72.3552 73.4037 73.333C73.1598 76.0219 74.3791 78.4663 76.8178 79.4441C78.281 79.933 79.7442 79.4441 80.7197 78.4663C83.1584 84.5774 87.0602 89.9552 88.7673 96.3108C89.2551 97.7774 89.4989 99.4886 89.0112 100.955C88.0357 104.133 83.1584 102.666 81.6952 100.955C79.2565 97.533 81.4513 92.3997 82.4268 88.9774C83.1584 87.0219 79.9881 86.0441 79.2565 88.2441C77.7933 92.8886 76.0862 98.2663 78.7688 102.666C81.6952 107.555 88.7673 107.311 91.6937 102.666C94.1324 98.9997 91.206 92.8886 89.7428 89.7108ZM78.281 76.2663H78.0372C77.5494 76.2663 77.3055 75.7774 76.8178 75.0441C76.5739 74.7997 76.5739 74.3108 76.5739 74.0663C76.8178 74.0663 77.0617 74.0663 77.3056 74.0663C77.5494 74.0663 77.5494 74.0663 77.7933 74.0663H78.0372H78.281L78.5249 74.3108V74.5552V74.7997C78.5249 74.7997 78.5249 74.7997 78.5249 75.0441V75.2885V75.7774L78.281 76.2663C78.5249 75.7774 78.0371 76.5108 78.281 76.2663Z" fill="white"/>
<path d="M96.8151 71.8669C92.9132 76.5113 89.7429 73.3335 87.5481 68.6891C89.0113 63.8002 90.9623 57.6891 89.2552 53.0447C88.2797 50.8447 86.0849 48.8891 83.8901 50.6002C81.9392 52.0669 81.6953 55.7335 81.6953 57.9335C81.6953 61.6002 82.6708 65.5113 84.134 68.9335C84.134 69.178 83.8901 69.4224 83.8901 69.9113C83.6463 71.1335 84.6217 71.8669 85.5972 71.8669C86.0849 72.6002 86.5727 73.3335 87.0604 74.0669C90.7184 78.4669 95.5957 78.2224 99.0099 74.0669C100.473 72.6002 98.2783 70.1558 96.8151 71.8669ZM85.1095 60.1335C84.8656 58.4224 84.8656 56.7113 85.3533 55.2447C85.3533 55.0002 85.5972 54.5113 85.8411 54.2669L86.0849 53.778C86.5727 54.5113 86.8165 55.4891 86.8165 56.4669C86.8165 58.6669 86.5727 60.8669 86.0849 63.0669C85.3533 61.8447 85.1095 60.8669 85.1095 60.1335Z" fill="white"/>
<path d="M104.131 73.8219C103.155 71.133 102.424 68.4441 100.961 65.9996C99.9852 64.0441 97.0588 65.7552 98.0342 67.7107C99.2536 69.9107 99.9852 72.5996 100.961 74.7996C101.204 75.533 101.936 76.2663 102.912 76.0219C103.887 75.7774 104.619 74.7996 104.131 73.8219Z" fill="white"/>
<path d="M98.5214 57.1999C97.5459 56.711 96.5705 56.9555 96.0827 57.6888C95.595 58.4222 95.8389 59.6444 96.8143 59.8888L97.0582 60.1333C97.7898 60.6222 98.7653 60.3777 99.253 59.3999C99.7407 58.6666 99.4969 57.6888 98.5214 57.1999Z" fill="white"/>
<path d="M116.324 65.7552C114.861 64.5329 113.154 64.2885 111.447 64.5329C106.813 64.7774 109.74 61.1107 112.178 59.8885C114.129 58.9107 112.422 55.9774 110.471 56.9552C107.545 58.6663 103.155 63.0663 106.57 66.4885C107.789 67.7107 109.252 67.9552 110.959 67.9552C111.935 67.9552 112.666 67.7107 113.642 67.9552C114.617 68.1996 114.617 69.9107 114.373 70.6441C113.886 71.6218 112.666 71.6218 111.691 71.6218C109.496 71.6218 109.496 75.0441 111.691 75.0441C114.129 75.0441 115.836 74.3107 117.3 72.3552C118.275 70.3996 117.787 66.9774 116.324 65.7552Z" fill="white"/>
<path d="M134.37 65.511C133.395 66.4887 132.663 67.4665 131.444 68.1999C130.225 65.0221 128.274 61.5999 125.103 60.3776C124.128 60.1332 123.396 60.1332 122.908 60.1332C121.933 54.9999 120.47 49.8665 120.47 44.4887C120.47 42.2887 117.3 42.2887 117.056 44.4887C116.812 51.5776 119.494 58.1776 119.982 65.0221C119.982 66.2443 119.982 67.4665 119.982 68.4443C120.226 70.6443 123.152 70.6443 123.396 68.4443C123.396 66.9776 123.396 65.511 123.396 64.0443C123.64 63.5554 123.884 63.311 124.616 63.7999C126.81 65.511 128.03 68.4443 128.517 70.8887C128.761 72.111 129.981 72.3554 130.956 71.8665C133.151 70.8887 134.614 69.1776 136.321 67.4665C138.272 66.2443 135.833 63.7999 134.37 65.511Z" fill="white"/>
<path d="M45.359 59.3998C40.4816 59.8887 35.8482 63.5554 36.3359 68.9331C36.5798 73.822 41.2132 76.9998 45.8467 75.5331C47.5538 75.0442 46.8222 72.8442 45.1151 73.0887C39.75 74.0665 33.8972 76.9998 30.9708 82.1331C28.2883 86.7776 29.7515 92.3998 33.6534 95.822C37.5552 99.2442 42.9203 100.222 47.7977 98.9998C53.8943 97.5331 58.5278 93.1331 62.1858 88.4887C63.1613 87.2665 61.4542 85.3109 60.2349 86.7776C55.1137 93.3776 45.6028 100.711 37.0675 95.5776C32.9217 93.1331 30.4831 87.5109 33.6534 83.1109C36.3359 79.1998 41.2132 76.9998 45.8467 76.022C45.6028 75.2887 45.359 74.3109 45.1151 73.5776C41.9448 74.5554 38.7746 72.1109 38.7746 68.6887C38.7746 65.2665 41.9448 62.822 45.359 62.5776C47.066 61.8442 47.066 59.1553 45.359 59.3998Z" fill="white"/>
</g>
<defs>
<clipPath id="clip0">
<rect width="112" height="98" fill="white" transform="translate(161 149)"/>
</clipPath>
<clipPath id="clip1">
<rect width="169" height="165" fill="white"/>
</clipPath>
</defs>
</svg>
