<svg width="116" height="94" viewBox="0 0 116 94" fill="none" xmlns="http://www.w3.org/2000/svg">
<g clip-path="url(#clip0)">
<path d="M10.2285 18.522L0 21.9949L9.06613 29.6353L10.2285 18.522Z" fill="black"/>
<path d="M114.838 55.798C114.838 55.798 76.4809 15.9753 60.4408 7.17727C44.4007 -1.62076 21.8516 -2.08381 13.9478 9.26102C5.81155 20.8374 6.27648 50.9359 28.1282 65.2906C49.7474 79.6452 74.6212 77.0984 86.7093 72.2364C98.5651 67.3743 114.838 55.798 114.838 55.798Z" fill="#F5A300"/>
<path d="M27.6634 65.9852C18.1324 59.734 11.6233 49.5468 9.29869 37.2759C7.2065 26.3941 8.60129 15.2808 13.2506 9.02956C17.2025 3.24138 25.1063 0 35.1023 0C43.7035 0 53.0021 2.31527 60.6734 6.71429C76.7135 15.5123 113.675 53.7143 115.303 55.335L116 56.0296L115.303 56.4926C115.07 56.7241 98.7977 68.069 86.942 72.931C80.8979 75.4778 72.7616 76.867 64.8578 76.867C55.3267 76.867 41.1464 75.0148 27.6634 65.9852ZM59.976 7.87192C52.5372 3.70443 43.471 1.38916 35.1023 1.38916C25.5712 1.38916 18.1324 4.39901 14.4129 9.72414C10.2285 15.7438 8.83376 26.6256 10.6935 37.0443C13.0181 48.8522 19.2947 58.8079 28.3608 64.8276C41.6113 73.6256 55.3267 75.4778 64.6253 75.4778C72.5291 75.4778 80.433 74.0887 86.2446 71.7734C96.473 67.6059 110.188 58.3448 113.675 56.0296C108.561 50.4729 74.6213 15.9754 59.976 7.87192Z" fill="#F5A300"/>
<path d="M22.3167 19.4485C22.3167 22.2268 24.1764 24.3106 26.7335 24.3106C29.2906 24.3106 31.1503 21.9953 31.1503 19.4485C31.1503 16.6702 29.2906 14.5864 26.7335 14.5864C24.1764 14.5864 22.3167 16.6702 22.3167 19.4485Z" fill="white"/>
<path d="M23.7114 17.8275C23.7114 19.2166 24.6413 20.1428 25.8036 20.1428C26.9659 20.1428 27.8958 19.2166 27.8958 17.8275C27.8958 16.4383 26.9659 15.5122 25.8036 15.5122C24.6413 15.5122 23.7114 16.4383 23.7114 17.8275Z" fill="#1D1C1C"/>
<path d="M96.9377 52.0935C96.9377 53.9457 98.3325 55.5664 99.9598 55.5664C101.587 55.5664 102.982 53.9457 102.982 52.0935C102.982 50.2413 101.587 48.6206 99.9598 48.6206C98.3325 48.6206 96.9377 50.2413 96.9377 52.0935Z" fill="#004A76"/>
<path d="M74.1562 46.3054C74.1562 48.1576 75.551 49.7783 77.1783 49.7783C78.8056 49.7783 80.2003 48.1576 80.2003 46.3054C80.2003 44.4532 78.8056 42.8325 77.1783 42.8325C75.551 42.8325 74.1562 44.4532 74.1562 46.3054Z" fill="#004A76"/>
<path d="M57.6514 64.596C57.6514 66.4482 59.0462 68.0689 60.6734 68.0689C62.3007 68.0689 63.6955 66.4482 63.6955 64.596C63.6955 62.7437 62.3007 61.123 60.6734 61.123C58.8137 61.123 57.6514 62.5122 57.6514 64.596Z" fill="#004A76"/>
<path d="M33.2427 56.4924C33.2427 58.3447 34.6375 59.9654 36.2647 59.9654C37.892 59.9654 39.2868 58.3447 39.2868 56.4924C39.2868 54.6402 37.892 53.0195 36.2647 53.0195C34.6375 53.2511 33.2427 54.6402 33.2427 56.4924Z" fill="#004A76"/>
<path d="M45.5632 65.5222C45.5632 67.3744 46.958 68.9951 48.5853 68.9951C50.2125 68.9951 51.6073 67.3744 51.6073 65.5222C51.6073 63.67 50.2125 62.0493 48.5853 62.0493C46.7256 62.2808 45.5632 63.67 45.5632 65.5222Z" fill="#004A76"/>
<path d="M47.8879 50.9358C47.8879 52.788 49.2827 54.4087 50.91 54.4087C52.5372 54.4087 53.932 52.788 53.932 50.9358C53.932 49.0836 52.5372 47.4629 50.91 47.4629C49.2827 47.4629 47.8879 49.0836 47.8879 50.9358Z" fill="#004A76"/>
<path d="M39.9839 6.01978C39.9839 7.872 41.3787 9.49269 43.0059 9.49269C44.6332 9.49269 46.028 7.872 46.028 6.01978C46.028 4.16756 44.6332 2.54688 43.0059 2.54688C41.1462 2.54688 39.9839 4.16756 39.9839 6.01978Z" fill="#004A76"/>
<path d="M75.3186 65.0593C75.3186 66.9115 76.7134 68.5322 78.3406 68.5322C79.9679 68.5322 81.3627 66.9115 81.3627 65.0593C81.3627 63.2071 79.9679 61.5864 78.3406 61.5864C76.7134 61.5864 75.3186 63.2071 75.3186 65.0593Z" fill="#004A76"/>
<path d="M29.2908 41.6751C29.2908 43.5273 30.6856 45.148 32.3128 45.148C33.9401 45.148 35.3349 43.5273 35.3349 41.6751C35.3349 39.8228 33.9401 38.2021 32.3128 38.2021C30.6856 38.4337 29.2908 39.8228 29.2908 41.6751Z" fill="#004A76"/>
<path d="M14.1804 39.5911C14.1804 41.4433 15.5752 43.064 17.2025 43.064C18.8297 43.064 20.2245 41.4433 20.2245 39.5911C20.2245 37.7389 18.8297 36.1182 17.2025 36.1182C15.5752 36.1182 14.1804 37.5073 14.1804 39.5911Z" fill="#004A76"/>
<path d="M61.1384 20.8377C61.1384 22.6899 62.5332 24.3106 64.1605 24.3106C65.7877 24.3106 67.1825 22.6899 67.1825 20.8377C67.1825 18.9854 65.7877 17.3647 64.1605 17.3647C62.5332 17.3647 61.1384 18.9854 61.1384 20.8377Z" fill="#004A76"/>
<path d="M78.8054 35.4236C78.8054 37.2758 80.2002 38.8965 81.8275 38.8965C83.4547 38.8965 84.8495 37.2758 84.8495 35.4236C84.8495 33.5714 83.4547 31.9507 81.8275 31.9507C80.2002 32.1822 78.8054 33.5714 78.8054 35.4236Z" fill="#004A76"/>
<path d="M86.4768 62.281C86.4768 62.281 72.7614 38.8968 64.6251 27.552C56.4889 16.2071 42.541 13.1973 39.7514 25.4682C36.9618 37.9707 53.9317 51.1677 65.555 55.5667C76.9458 59.9658 86.4768 62.281 86.4768 62.281Z" fill="white"/>
<path d="M57.6513 90.9903C57.1864 86.1282 55.7916 81.2661 55.3267 76.4041C55.3267 75.4779 56.7214 75.4779 56.7214 76.4041V76.6356C56.9539 76.6356 57.4188 76.8671 57.4188 77.3302C57.4188 80.5715 58.1162 83.8129 58.5812 86.8228C58.5812 87.5174 58.8136 88.4435 59.0461 89.3696C59.2786 90.7587 59.511 92.1479 59.511 93.5371C59.511 94.2316 58.5812 94.4632 58.1162 93.7686C57.6513 93.7686 57.1864 93.3055 57.4188 92.611C57.4188 92.1479 57.6513 91.4533 57.6513 90.9903Z" fill="black"/>
<path d="M48.8176 89.6011C48.3526 84.739 46.9578 79.877 46.4929 75.0149C46.4929 74.0888 47.8877 74.0888 47.8877 75.0149V75.2464C48.1202 75.2464 48.5851 75.4779 48.5851 75.941C48.5851 79.1824 49.2825 82.4238 49.7474 85.4336C49.9799 86.1282 49.9799 87.0543 50.2124 87.9804C50.4448 89.3696 50.6773 90.7587 50.6773 92.1479C50.6773 92.8425 49.7474 93.074 49.2825 92.3794C48.8176 92.3794 48.3526 91.9164 48.5851 91.2218C48.5851 90.7587 48.5851 90.2957 48.8176 89.6011Z" fill="black"/>
</g>
<defs>
<clipPath id="clip0">
<rect width="116" height="94" fill="white"/>
</clipPath>
</defs>
</svg>
