<?xml version="1.0" encoding="UTF-8"?> <!-- Generator: Adobe Illustrator 23.0.4, SVG Export Plug-In . SVG Version: 6.00 Build 0) --> <svg xmlns="http://www.w3.org/2000/svg" xmlns:xlink="http://www.w3.org/1999/xlink" x="0px" y="0px" viewBox="0 0 226.1 289.4" style="enable-background:new 0 0 226.1 289.4;" xml:space="preserve"> <style type="text/css"> .st0{fill-rule:evenodd;clip-rule:evenodd;fill:#EB212E;} .st1{fill-rule:evenodd;clip-rule:evenodd;fill:#004A76;} .st2{fill-rule:evenodd;clip-rule:evenodd;fill:#F4A200;} .st3{fill-rule:evenodd;clip-rule:evenodd;fill:#FFFFFF;} .st4{fill-rule:evenodd;clip-rule:evenodd;fill:#1B1C20;} .st5{fill-rule:evenodd;clip-rule:evenodd;fill:none;stroke:#FFFFFF;stroke-width:2;stroke-miterlimit:10;} .st6{fill:#FFFFFF;} .st7{fill:#EC1C24;} .st8{fill:#7FB439;} .st9{fill:#F9A51A;} .st10{fill:#231F20;} .st11{fill:#F6B433;} .st12{fill:#004A76;} .st13{fill:#F9A61A;} .st14{fill:#240036;} .st15{fill:#FEFEFD;} .st16{fill:#F8B5A7;} .st17{fill:#F4A200;} .st18{fill:#45423F;} .st19{fill:none;stroke:#484441;stroke-width:0.7177;stroke-linecap:round;stroke-linejoin:round;stroke-miterlimit:10;} .st20{fill:none;stroke:#D95F73;stroke-width:0.7177;stroke-linecap:round;stroke-linejoin:round;stroke-miterlimit:10;} .st21{fill:#D95F73;} .st22{fill:#02394F;} .st23{fill:#C41627;} .st24{fill:#F99200;} .st25{fill:#E3E7EB;} .st26{fill:#F8B5A8;} .st27{fill:#3A3B39;} .st28{fill:#FFFFFE;} .st29{fill:#FA9200;} .st30{fill:#8DB300;} .st31{fill:#484441;} .st32{fill:none;stroke:#484441;stroke-width:0.1897;stroke-linecap:round;stroke-linejoin:round;stroke-miterlimit:10;} .st33{fill:none;stroke:#D95F73;stroke-width:0.2529;stroke-linecap:round;stroke-linejoin:round;stroke-miterlimit:10;} .st34{fill:#585755;} .st35{fill:#B3B8BC;} .st36{fill:#EB212E;} .st37{fill:#EC1C24;stroke:#EC1C24;stroke-width:0.5;stroke-miterlimit:10;} .st38{clip-path:url(#SVGID_2_);fill-rule:evenodd;clip-rule:evenodd;fill:#FFFFFF;} .st39{clip-path:url(#SVGID_2_);fill-rule:evenodd;clip-rule:evenodd;fill:#8DB300;} .st40{fill:none;stroke:#FFFFFF;stroke-width:2;stroke-miterlimit:10;} .st41{fill-rule:evenodd;clip-rule:evenodd;fill:#8DB300;} .st42{fill:none;stroke:#3A3B39;stroke-width:5;stroke-miterlimit:10;} .st43{fill:#DD968A;} .st44{fill:#F6A7A1;} .st45{fill:#F7B5A7;} .st46{fill:#DD8E03;} .st47{fill:none;stroke:#484441;stroke-width:0.75;stroke-linecap:round;stroke-linejoin:round;stroke-miterlimit:10;} .st48{fill:none;stroke:#D95F73;stroke-linecap:round;stroke-linejoin:round;stroke-miterlimit:10;} .st49{clip-path:url(#SVGID_4_);fill:#E3E7EB;} .st50{clip-path:url(#SVGID_4_);fill:#FEFEFD;} .st51{clip-path:url(#SVGID_4_);fill:#B3B8BC;} .st52{clip-path:url(#SVGID_4_);} .st53{clip-path:url(#SVGID_4_);fill:#F4A200;} .st54{clip-path:url(#SVGID_4_);fill:#004A76;} .st55{clip-path:url(#SVGID_4_);fill:#FDFEFD;} .st56{clip-path:url(#SVGID_4_);fill:#F8B6A8;} .st57{clip-path:url(#SVGID_4_);fill:#F8B5A7;} .st58{clip-path:url(#SVGID_4_);fill:#8DB300;} .st59{fill:#FDFEFD;} .st60{fill:none;stroke:#484441;stroke-width:0.4426;stroke-linecap:round;stroke-linejoin:round;stroke-miterlimit:10;} .st61{fill:none;stroke:#D95F73;stroke-width:0.4426;stroke-linecap:round;stroke-linejoin:round;stroke-miterlimit:10;} .st62{fill:none;stroke:#484441;stroke-width:0.4642;stroke-linecap:round;stroke-linejoin:round;stroke-miterlimit:10;} .st63{fill:none;stroke:#D95F73;stroke-width:0.4642;stroke-linecap:round;stroke-linejoin:round;stroke-miterlimit:10;} .st64{fill:#97C5B6;} .st65{fill:none;stroke:#484441;stroke-width:0.35;stroke-linecap:round;stroke-linejoin:round;stroke-miterlimit:10;} .st66{fill:#EC6883;} .st67{fill:#EA5372;} .st68{fill:#799600;} .st69{fill:#CF4463;} .st70{fill:none;stroke:#D95F73;stroke-width:0.35;stroke-linecap:round;stroke-linejoin:round;stroke-miterlimit:10;} .st71{fill:#3B3C3A;} .st72{fill:none;stroke:#3A3B39;stroke-width:2.8625;stroke-miterlimit:10;} .st73{fill:#403F3A;} .st74{fill:#FAF5EE;} .st75{fill:none;stroke:#D95F73;stroke-width:0.4568;stroke-linecap:round;stroke-linejoin:round;stroke-miterlimit:10;} .st76{fill:#F1EFE5;} </style> <g id="Layer_2"> </g> <g id="Layer_1"> <g> <g> <polygon class="st35" points="163.9,218.7 142.7,289.4 147.1,289.4 163.9,233.4 180.7,289.4 185.1,289.4 "></polygon> <g> <path class="st35" d="M163.9,283.3c-32,0-58.1-26-58.1-58.1s26-58.1,58.1-58.1s58.1,26,58.1,58.1S195.9,283.3,163.9,283.3z M163.9,169.3c-30.8,0-55.9,25.1-55.9,55.9s25.1,55.9,55.9,55.9s55.9-25.1,55.9-55.9S194.8,169.3,163.9,169.3z"></path> </g> <g> <path class="st35" d="M163.9,273.7c-26.7,0-48.4-21.7-48.4-48.4c0-26.7,21.7-48.4,48.4-48.4s48.4,21.7,48.4,48.4 C212.3,252,190.6,273.7,163.9,273.7z M163.9,179c-25.5,0-46.3,20.8-46.3,46.3c0,25.5,20.8,46.3,46.3,46.3s46.3-20.8,46.3-46.3 C210.2,199.7,189.4,179,163.9,179z"></path> </g> <g> <rect x="162.9" y="168.3" class="st35" width="2.1" height="114"></rect> </g> <g> <rect x="162.9" y="168.3" transform="matrix(0.866 -0.5 0.5 0.866 -90.676 112.1408)" class="st35" width="2.1" height="114"></rect> </g> <g> <rect x="162.9" y="168.3" transform="matrix(0.5 -0.866 0.866 0.5 -113.1331 254.5944)" class="st35" width="2.1" height="114"></rect> </g> <g> <rect x="106.9" y="224.2" class="st35" width="114" height="2.1"></rect> </g> <g> <rect x="106.9" y="224.2" transform="matrix(0.866 -0.5001 0.5001 0.866 -90.6848 112.1607)" class="st35" width="114" height="2.1"></rect> </g> <g> <rect x="106.9" y="224.2" transform="matrix(0.5002 -0.8659 0.8659 0.5002 -113.1404 254.5255)" class="st35" width="114" height="2.1"></rect> </g> <g> <g> <path class="st12" d="M160.4,282.3c0,2,1.6,3.6,3.6,3.6c2,0,3.6-1.6,3.6-3.6c0-2-1.6-3.6-3.6-3.6 C162,278.7,160.4,280.3,160.4,282.3z"></path> </g> <g> <path class="st12" d="M160.4,168.3c0,2,1.6,3.6,3.6,3.6c2,0,3.6-1.6,3.6-3.6c0-2-1.6-3.6-3.6-3.6 C162,164.7,160.4,166.3,160.4,168.3z"></path> </g> <g> <path class="st12" d="M189.3,276.4c1,1.7,3.2,2.3,4.9,1.3c1.7-1,2.3-3.2,1.3-4.9c-1-1.7-3.2-2.3-4.9-1.3 C188.9,272.5,188.3,274.7,189.3,276.4z"></path> </g> <g> <path class="st12" d="M132.3,177.7c1,1.7,3.2,2.3,4.9,1.3c1.7-1,2.3-3.2,1.3-4.9c-1-1.7-3.2-2.3-4.9-1.3 C131.9,173.8,131.4,176,132.3,177.7z"></path> </g> <g> <path class="st12" d="M211.5,256.9c1.7,1,3.9,0.4,4.9-1.3c1-1.7,0.4-3.9-1.3-4.9c-1.7-1-3.9-0.4-4.9,1.3 C209.2,253.7,209.8,255.9,211.5,256.9z"></path> </g> <g> <path class="st12" d="M112.8,199.9c1.7,1,3.9,0.4,4.9-1.3c1-1.7,0.4-3.9-1.3-4.9c-1.7-1-3.9-0.4-4.9,1.3 C110.5,196.7,111.1,198.9,112.8,199.9z"></path> </g> <g> <path class="st12" d="M220.9,228.8c2,0,3.6-1.6,3.6-3.6s-1.6-3.6-3.6-3.6s-3.6,1.6-3.6,3.6S219,228.8,220.9,228.8z"></path> </g> <g> <path class="st12" d="M106.9,228.8c2,0,3.6-1.6,3.6-3.6s-1.6-3.6-3.6-3.6c-2,0-3.6,1.6-3.6,3.6S105,228.8,106.9,228.8z"></path> </g> <g> <path class="st12" d="M215.1,199.9c1.7-1,2.3-3.2,1.3-4.9c-1-1.7-3.2-2.3-4.9-1.3c-1.7,1-2.3,3.2-1.3,4.9 C211.2,200.3,213.4,200.8,215.1,199.9z"></path> </g> <g> <path class="st12" d="M116.3,256.9c1.7-1,2.3-3.2,1.3-4.9c-1-1.7-3.2-2.3-4.9-1.3c-1.7,1-2.3,3.2-1.3,4.9 C112.5,257.3,114.6,257.8,116.3,256.9z"></path> </g> <g> <path class="st12" d="M195.5,177.7c1-1.7,0.4-3.9-1.3-4.9c-1.7-1-3.9-0.4-4.9,1.3c-1,1.7-0.4,3.9,1.3,4.9 C192.3,180,194.5,179.4,195.5,177.7z"></path> </g> <g> <path class="st12" d="M138.5,276.4c1-1.7,0.4-3.9-1.3-4.9c-1.7-1-3.9-0.4-4.9,1.3c-1,1.7-0.4,3.9,1.3,4.9 C135.3,278.7,137.5,278.1,138.5,276.4z"></path> </g> </g> </g> <g> <rect x="82.5" y="133.9" class="st25" width="39.7" height="155.5"></rect> <path class="st35" d="M102.1,7.2c0,25.7-13.1,38.6-13.1,38.6h13.1h13.1C115.2,45.7,102.1,32.9,102.1,7.2z"></path> <polygon class="st25" points="115.2,55.1 102.1,55.1 89.1,55.1 83.4,71 102.1,71 120.9,71 "></polygon> <path class="st25" d="M124.9,130.7H79.3c-1,0-1.9-0.8-1.9-1.9V83.2c0-1,0.8-1.9,1.9-1.9h45.6c1,0,1.9,0.8,1.9,1.9v45.6 C126.8,129.8,126,130.7,124.9,130.7z"></path> <rect x="78.9" y="130.7" class="st35" width="46.4" height="6.9"></rect> <ellipse transform="matrix(0.7071 -0.7071 0.7071 0.7071 -45.0262 103.2599)" class="st12" cx="102.1" cy="106" rx="17.1" ry="17.1"></ellipse> <path class="st35" d="M88.7,55.1h26.9c0.5,0,0.9-0.4,0.9-0.9v-7.6c0-0.5-0.4-0.9-0.9-0.9H88.7c-0.5,0-0.9,0.4-0.9,0.9v7.6 C87.7,54.7,88.1,55.1,88.7,55.1z"></path> <rect x="80.8" y="71" class="st35" width="42.7" height="10.3"></rect> <g> <path class="st76" d="M101.1,91.7c0,0.6,0.5,1.1,1.1,1.1s1.1-0.5,1.1-1.1c0-0.6-0.5-1.1-1.1-1.1S101.1,91.1,101.1,91.7z"></path> <path class="st76" d="M101.1,120.7c0,0.6,0.5,1.1,1.1,1.1s1.1-0.5,1.1-1.1s-0.5-1.1-1.1-1.1S101.1,120.1,101.1,120.7z"></path> </g> <g> <path class="st76" d="M93.9,94.2c0.3,0.5,1,0.7,1.5,0.4c0.5-0.3,0.7-1,0.4-1.5c-0.3-0.5-1-0.7-1.5-0.4 C93.8,93,93.7,93.7,93.9,94.2z"></path> <path class="st76" d="M108.4,119.3c0.3,0.5,1,0.7,1.5,0.4c0.5-0.3,0.7-1,0.4-1.5c-0.3-0.5-1-0.7-1.5-0.4 C108.3,118.1,108.1,118.8,108.4,119.3z"></path> </g> <g> <path class="st76" d="M89,99.9c0.5,0.3,1.2,0.1,1.5-0.4c0.3-0.5,0.1-1.2-0.4-1.5c-0.5-0.3-1.2-0.1-1.5,0.4 C88.3,98.9,88.5,99.6,89,99.9z"></path> <path class="st76" d="M114.1,114.4c0.5,0.3,1.2,0.1,1.5-0.4c0.3-0.5,0.1-1.2-0.4-1.5c-0.5-0.3-1.2-0.1-1.5,0.4 C113.5,113.4,113.6,114.1,114.1,114.4z"></path> </g> <g> <path class="st76" d="M87.6,107.3c0.6,0,1.1-0.5,1.1-1.1s-0.5-1.1-1.1-1.1s-1.1,0.5-1.1,1.1S87,107.3,87.6,107.3z"></path> <path class="st76" d="M116.6,107.3c0.6,0,1.1-0.5,1.1-1.1s-0.5-1.1-1.1-1.1c-0.6,0-1.1,0.5-1.1,1.1S116,107.3,116.6,107.3z"></path> </g> <g> <path class="st76" d="M90.1,114.4c0.5-0.3,0.7-1,0.4-1.5c-0.3-0.5-1-0.7-1.5-0.4c-0.5,0.3-0.7,1-0.4,1.5 C88.9,114.5,89.6,114.7,90.1,114.4z"></path> <path class="st76" d="M115.2,99.9c0.5-0.3,0.7-1,0.4-1.5c-0.3-0.5-1-0.7-1.5-0.4c-0.5,0.3-0.7,1-0.4,1.5 C114,100,114.7,100.2,115.2,99.9z"></path> </g> <g> <path class="st76" d="M95.8,119.3c0.3-0.5,0.1-1.2-0.4-1.5c-0.5-0.3-1.2-0.1-1.5,0.4c-0.3,0.5-0.1,1.2,0.4,1.5 C94.9,120,95.5,119.8,95.8,119.3z"></path> <path class="st76" d="M110.3,94.2c0.3-0.5,0.1-1.2-0.4-1.5c-0.5-0.3-1.2-0.1-1.5,0.4c-0.3,0.5-0.1,1.2,0.4,1.5 C109.4,94.9,110,94.7,110.3,94.2z"></path> </g> <rect x="82.3" y="184.6" class="st35" width="39.7" height="3.5"></rect> <rect x="82.3" y="235.1" class="st35" width="39.7" height="3.5"></rect> <g> <g> <polygon class="st76" points="108.7,106.5 101.7,106.5 101.7,96.4 102.6,96.4 102.6,105.5 108.7,105.5 "></polygon> </g> <g> <g> <polygon class="st76" points="100.5,98.2 102.1,96.6 103.7,98.2 103.7,96.9 102.1,95.3 100.5,96.9 "></polygon> </g> </g> <g> <g> <polygon class="st76" points="106.9,107.6 108.5,106 106.9,104.4 108.2,104.4 109.8,106 108.2,107.6 "></polygon> </g> </g> </g> </g> <path class="st15" d="M121.4,36.8h52.4c0,0-2.8-9.1-11.7-9.4c-6.8-11.4-19.1-11.4-23.6-2.3C126.8,20,120.8,30.9,121.4,36.8z"></path> <path class="st15" d="M1,89.8h86.2c0,0,1.7-20.6-23.1-11.8c-7.1-23.5-35.7-20.6-42.9,2.5C1.4,78,1,89.8,1,89.8z"></path> </g> </g> </svg> 