<svg width="118" height="123" viewBox="0 0 118 123" fill="none" xmlns="http://www.w3.org/2000/svg">
<g clip-path="url(#clip0)">
<path d="M86.9216 93.2721C87.6851 96.1343 84.7298 101.041 81.4124 99.725C80.2474 100.223 77.8713 98.9604 78.5427 97.3071C78.9902 96.2049 77.3908 94.6108 77.45 93.6746C77.1802 91.9679 78.4044 90.534 79.7932 89.4852C83.0184 86.2854 86.3819 89.8588 86.9216 93.2721Z" fill="white"/>
<path d="M35.7277 45.4562C38.7883 41.8713 40.9669 37.2967 39.9336 32.7279C39.1239 27.608 31.831 23.436 26.9011 23.7202C12.5588 23.4706 7.32609 43.4697 9.66275 54.314L9.99185 55.0843C9.54428 56.1865 10.4263 57.1761 11.1437 57.7806C12.967 58.8236 14.2965 58.7111 15.6853 57.6623C22.0502 58.587 33.0554 48.8753 35.7277 45.4562Z" fill="#80B539"/>
<path d="M32.1333 30.592L31.9688 30.2069C32.1926 29.6558 32.2518 28.7195 31.3106 28.6661C29.2636 28.1742 26.2753 27.6289 24.6627 29.2288C23.4977 29.7265 23.603 31.0479 24.0967 32.2035C24.9787 33.1931 26.0845 33.6317 27.414 33.5191C29.2965 33.6259 33.1207 32.9031 32.1333 30.592Z" fill="white"/>
<path d="M33.4696 69.1939C33.4696 69.1939 43.3295 68.6255 57.6784 80.7147C72.4156 92.638 91.8722 101.634 104.641 93.9018C119.411 84.4035 113.139 61.121 83.7959 59.0811C64.2538 57.4091 33.4696 69.1939 33.4696 69.1939Z" fill="#80B539"/>
</g>
<defs>
<clipPath id="clip0">
<rect width="86.1479" height="96.3374" fill="white" transform="matrix(-0.919599 0.392859 0.392859 0.919599 79.2207 0)"/>
</clipPath>
</defs>
</svg>
