<svg width="59" height="104" viewBox="0 0 59 104" fill="none" xmlns="http://www.w3.org/2000/svg">
<path d="M40.2235 81.1707C40.2235 81.1707 45.9677 75.1079 52.703 79.2412C59.3791 83.356 56.0497 91.0745 48.1285 92.467C40.2074 93.8595 30.0962 94.5655 30.0962 94.5655C30.0962 94.5655 25.1269 84.5827 24.5851 76.3247C24.0432 68.0667 29.0645 64.0801 34.6283 66.3859C40.1921 68.6917 40.5573 74.0859 40.5919 77.0174C40.5554 79.9829 40.2235 81.1707 40.2235 81.1707Z" fill="#EC1C24"/>
<path d="M37.5582 77.2231C38.9835 75.6976 37.9872 73.0745 36.1 71.8627C35.3049 70.8807 34.201 70.14 32.9661 70.5417C31.8025 70.9094 31.2677 72.1506 31.386 73.3149C31.5157 75.5534 35.3964 79.4757 37.5582 77.2231ZM35.3632 73.4351L35.6007 73.5095C35.8618 73.7605 36.0516 74.0455 36.1583 74.4171C35.8616 74.0422 35.6125 73.7387 35.3632 73.4351Z" fill="white"/>
<path d="M26.777 23.1083C26.777 23.1083 33.4166 9.6465 45.0598 13.1081C56.6068 16.5697 54.2012 31.57 42.6542 38.2048C31.1072 44.8395 15.9998 51.4743 15.9998 51.4743C15.9998 51.4743 5.03013 37.0509 1.37357 23.2045C-2.28298 9.35804 3.97167 -0.161391 13.2093 0.800167C22.4469 1.76173 24.8525 10.8004 25.911 15.8005C26.8732 20.8967 26.777 23.1083 26.777 23.1083Z" fill="#EC1C24"/>
<path d="M20.2335 18.2042C21.8693 14.8387 19.4637 10.8964 16.192 9.83864C14.6524 8.58861 12.728 7.91552 10.9959 9.2617C9.3601 10.5117 8.9752 12.9156 9.55254 14.8387C10.5148 18.5888 17.7316 23.2043 20.2335 18.2042ZM15.6147 12.9156H15.9996C16.4807 13.2041 16.8656 13.5887 17.1543 14.1656C16.5769 13.6849 16.0958 13.3003 15.6147 12.9156Z" fill="white"/>
</svg>
