<svg width="541" height="276" viewBox="0 0 541 276" fill="none" xmlns="http://www.w3.org/2000/svg">
<path d="M521.381 82.3836C521.381 82.3836 527.193 76.2495 534.007 80.4315C540.762 84.5948 537.393 92.404 529.379 93.8129C521.365 95.2218 511.135 95.936 511.135 95.936C511.135 95.936 506.107 85.8357 505.558 77.4805C505.01 69.1254 510.091 65.0919 515.72 67.4249C521.349 69.7578 521.719 75.2155 521.754 78.1815C521.717 81.1819 521.381 82.3836 521.381 82.3836Z" fill="#F5A300"/>
<path d="M518.685 78.3898C520.127 76.8464 519.119 74.1925 517.21 72.9665C516.405 71.9729 515.289 71.2235 514.039 71.63C512.862 72.002 512.321 73.2577 512.44 74.4356C512.572 76.7005 516.498 80.6689 518.685 78.3898ZM516.464 74.5573L516.705 74.6326C516.969 74.8865 517.161 75.1749 517.269 75.5508C516.969 75.1716 516.717 74.8645 516.464 74.5573Z" fill="white"/>
<path d="M507.775 23.6382C507.775 23.6382 514.493 10.018 526.273 13.5203C537.956 17.0227 535.522 32.1995 523.839 38.9123C512.156 45.6251 496.871 52.338 496.871 52.338C496.871 52.338 485.772 37.7449 482.073 23.7355C478.373 9.72612 484.701 0.094681 494.048 1.06755C503.394 2.04043 505.828 11.1854 506.899 16.2444C507.872 21.4006 507.775 23.6382 507.775 23.6382Z" fill="#EC1C24"/>
<path d="M501.155 18.6765C502.81 15.2715 500.376 11.2827 497.066 10.2125C495.508 8.94779 493.561 8.26678 491.808 9.6288C490.153 10.8935 489.764 13.3257 490.348 15.2715C491.322 19.0657 498.623 23.7355 501.155 18.6765ZM496.482 13.3257H496.871C497.358 13.6176 497.747 14.0067 498.039 14.5905C497.455 14.104 496.968 13.7149 496.482 13.3257Z" fill="white"/>
<g clip-path="url(#clip0)">
<path d="M190.632 93.3389C194.064 89.9409 196.528 85.6856 197.769 81.0129C199.011 76.3402 198.985 71.4197 197.694 66.7601C196.769 63.1569 194.95 59.8467 192.406 57.1376C189.862 54.4286 186.675 52.4088 183.143 51.2663C180.41 50.2911 177.561 49.6763 174.67 49.4374C176.151 45.0451 176.072 40.2745 174.448 35.9328C172.824 31.5912 169.753 27.945 165.756 25.6112C160.747 22.4156 154.858 20.8907 148.932 21.2548C143.773 21.4907 138.701 22.6806 133.973 24.7644C132.34 18.2497 128.421 12.5421 122.933 8.68664C117.446 4.83119 110.757 3.08587 104.091 3.77026L103.597 3.78792C82.4554 4.54381 77.1082 18.2204 75.8669 23.6193C69.1704 20.8769 61.9869 19.5311 54.7548 19.6642C48.6387 19.7734 42.6675 21.5463 37.4791 24.7935C34.0711 26.7155 31.1669 29.4208 29.0052 32.6871C26.8435 35.9534 25.4859 39.6874 25.0442 43.5823C24.8434 46.3882 25.0945 49.2084 25.7879 51.9345C21.5675 52.9609 17.7037 55.1151 14.6079 58.1679C11.512 61.2208 9.29988 65.0579 8.20682 69.2712C7.30269 73.5058 7.53563 77.9053 8.88186 82.0206C10.2281 86.1359 12.6394 89.8196 15.8697 92.6959C12.2671 94.789 9.28335 97.8033 7.22331 101.431C5.16328 105.058 4.10074 109.169 4.14422 113.343C3.9659 126.339 14.7546 133.44 19.7809 135.69C17.6135 138.492 16.3185 141.873 16.0579 145.41C15.7973 148.946 16.5826 152.482 18.3157 155.574C20.3342 158.948 23.1437 161.779 26.5005 163.819C29.8573 165.858 33.6598 167.046 37.5781 167.28C37.1428 170.319 37.8933 176.093 47.1487 181.811C52.3591 185.221 58.469 186.989 64.6903 186.885C65.9637 186.837 67.2316 186.692 68.4832 186.452C69.1641 189.168 70.4469 191.695 72.2364 193.846C74.0259 195.997 76.2759 197.715 78.8191 198.874C82.7824 200.925 87.2253 201.862 91.6766 201.587C96.5462 201.323 101.347 200.315 105.913 198.599C112.431 201.507 119.506 202.947 126.639 202.816C131.204 202.809 135.678 201.533 139.564 199.132C143.174 197.095 146.304 194.305 148.744 190.95C151.184 187.596 152.876 183.754 153.707 179.687C156.343 180.506 159.098 180.877 161.857 180.784C167.615 180.586 173.09 178.232 177.201 174.186C180.511 170.737 182.903 166.508 184.155 161.888C185.407 157.269 185.48 152.408 184.367 147.753C190.405 146.679 195.887 143.547 199.884 138.887C203.882 134.226 206.149 128.324 206.303 122.179C206.571 116.395 205.252 110.649 202.489 105.564C199.726 100.479 195.625 96.2507 190.632 93.3389Z" fill="#8EB400"/>
<path d="M92.1881 54.0249L90.7885 245.895L115.882 244.998L92.1881 54.0249Z" fill="#231F20"/>
<path d="M124.074 63.2958L94.4541 93.9038L95.8371 107.687L124.074 63.2958Z" fill="#231F20"/>
<path d="M138.692 108.336L99.3266 145.787L101.815 166.968L138.692 108.336Z" fill="#231F20"/>
<path d="M46.7886 116.382L95.6013 161.935L95.9328 146.306L46.7886 116.382Z" fill="#231F20"/>
<path d="M58.2585 74.7715L95.1199 112.522L94.6543 99.4991L58.2585 74.7715Z" fill="#231F20"/>
<path d="M172.675 123.681C172.587 122.738 172.686 121.787 172.968 120.883C173.25 119.979 173.708 119.141 174.317 118.416C175.541 116.957 177.279 116.025 179.17 115.813C180.994 115.721 182.785 116.331 184.177 117.518L184.842 118.139L186.645 117.381C186.285 116.902 185.871 116.468 185.411 116.086C184.5 115.306 183.441 114.719 182.298 114.359C181.155 114 179.951 113.876 178.759 113.994C176.365 114.22 174.158 115.382 172.613 117.228C171.069 119.074 170.311 121.456 170.505 123.858L167.937 123.949C167.795 122.415 167.957 120.868 168.414 119.396C168.87 117.925 169.612 116.559 170.598 115.376C171.581 114.202 172.787 113.235 174.145 112.531C175.504 111.827 176.989 111.401 178.513 111.276C180.044 111.12 181.591 111.276 183.061 111.734C184.531 112.193 185.893 112.945 187.066 113.945C188.415 115.096 189.497 116.529 190.233 118.145C188.968 118.735 187.508 119.382 185.849 120.037C184.191 120.691 181.6 121.527 179.347 122.153C177.094 122.779 174.981 123.152 172.373 123.543L172.675 123.681ZM186.7 121.692L186.721 122.286C186.803 124.114 186.197 125.905 185.021 127.305C183.794 128.774 182.035 129.695 180.131 129.865C178.227 130.035 176.333 129.441 174.865 128.213C174.409 127.861 174.011 127.441 173.683 126.967L171.667 127.287C172.198 128.167 172.879 128.948 173.678 129.594C175.528 131.119 177.893 131.869 180.281 131.689C181.472 131.583 182.63 131.242 183.688 130.685C184.746 130.128 185.684 129.366 186.447 128.444C187.221 127.538 187.805 126.485 188.164 125.348C188.522 124.21 188.649 123.012 188.535 121.825L188.494 120.686C189.371 120.307 190.2 119.98 190.928 119.607L192.631 118.803C191.678 115.578 189.565 112.822 186.701 111.069C183.837 109.316 180.427 108.691 177.13 109.315C173.833 109.939 170.885 111.768 168.856 114.447C166.828 117.125 165.864 120.464 166.151 123.815L166.201 125.201C166.89 128.589 168.843 131.585 171.661 133.579C174.478 135.573 177.949 136.415 181.363 135.932C184.778 135.45 187.881 133.679 190.038 130.982C192.195 128.285 193.244 124.864 192.971 121.418L191.169 122.177C191.289 125.101 190.315 127.965 188.439 130.207C187.462 131.392 186.259 132.37 184.9 133.082C183.541 133.795 182.054 134.228 180.525 134.357C177.631 134.611 174.745 133.778 172.429 132.019C170.342 130.446 168.849 128.21 168.196 125.675C172.099 125.379 175.966 124.727 179.749 123.725C182.022 123.131 184.259 122.406 186.448 121.552" fill="#231F20"/>
<path d="M133.541 80.459C133.434 79.1728 133.832 77.8956 134.65 76.8992C135.488 75.9222 136.672 75.3108 137.952 75.1946C138.581 75.126 139.217 75.1896 139.821 75.3815C140.424 75.5733 140.98 75.8892 141.454 76.3089L141.915 76.7386L143.132 76.1993L142.26 75.3381C141.647 74.824 140.937 74.4375 140.173 74.201C139.409 73.9644 138.605 73.8826 137.809 73.9603C136.209 74.1072 134.732 74.883 133.701 76.1184C132.67 77.3537 132.169 78.9479 132.308 80.5526L130.579 80.6144C130.482 79.5874 130.59 78.5514 130.897 77.5666C131.203 76.5819 131.702 75.6682 132.364 74.8786C133.026 74.089 133.839 73.4394 134.754 72.9675C135.669 72.4956 136.668 72.2109 137.694 72.13C138.715 72.0288 139.746 72.1342 140.725 72.4398C141.705 72.7455 142.613 73.2452 143.396 73.9092C144.279 74.6959 145.002 75.6466 145.524 76.7087C144.649 77.1367 143.676 77.5681 142.554 78.0048C141.129 78.5469 139.676 79.0126 138.202 79.3999C136.593 79.8463 134.949 80.1538 133.289 80.3193L133.541 80.459ZM143.136 79.0748L143.148 79.4214C143.255 80.7076 142.857 81.9847 142.039 82.9811C141.197 83.9528 140.011 84.5579 138.732 84.6685C137.453 84.779 136.181 84.3862 135.185 83.5732L134.414 82.7579L133.081 82.8056C133.431 83.3959 133.885 83.9173 134.422 84.3442C135.655 85.3721 137.243 85.8699 138.841 85.7292C140.439 85.5885 141.916 84.8207 142.951 83.593C143.995 82.3522 144.507 80.7476 144.374 79.1296L144.348 78.3869L145.955 77.6849L147.071 77.0996C146.512 75.0717 145.251 73.3093 143.514 72.1271C141.778 70.945 139.679 70.4201 137.592 70.6463C135.207 70.8597 133.004 72.0125 131.465 73.852C129.927 75.6914 129.179 78.0673 129.386 80.4588L129.42 81.3996C129.744 83.0839 130.539 84.6416 131.711 85.8916C132.883 87.1417 134.385 88.0328 136.042 88.4616C137.699 88.8903 139.443 88.8391 141.072 88.3138C142.701 87.7886 144.148 86.8109 145.245 85.4942C146.01 84.5825 146.588 83.5287 146.946 82.393C147.304 81.2573 147.436 80.0619 147.333 78.8751L146.116 79.4144C146.191 81.4274 145.494 83.3926 144.168 84.9062C142.842 86.4198 140.989 87.3667 138.988 87.5523C137.058 87.7562 135.124 87.2035 133.591 86.01C132.192 84.9544 131.195 83.4503 130.768 81.748C134.951 81.4132 139.064 80.4814 142.984 78.981" fill="#231F20"/>
<path d="M149.65 42.699C149.583 42.0346 149.65 41.3634 149.849 40.7258C150.047 40.0883 150.372 39.4975 150.803 38.989C151.226 38.4693 151.749 38.0411 152.342 37.7302C152.934 37.4192 153.583 37.2321 154.25 37.18C154.913 37.1129 155.583 37.1807 156.219 37.3795C156.855 37.5782 157.444 37.9039 157.952 38.3368L158.414 38.816L159.728 38.2237L158.856 37.3624C157.556 36.2704 155.877 35.7384 154.186 35.8825C152.496 36.0265 150.931 36.8349 149.833 38.1312C148.752 39.4321 148.225 41.1073 148.367 42.7945L146.589 42.858C146.497 41.7802 146.619 40.6949 146.946 39.6642C147.273 38.6335 147.8 37.6777 148.496 36.8515C149.193 36.0252 150.045 35.3449 151.004 34.8493C151.963 34.3537 153.01 34.0526 154.086 33.9633C155.152 33.8627 156.228 33.9762 157.25 34.2972C158.272 34.6182 159.22 35.1402 160.038 35.8328C161.013 36.6354 161.779 37.6626 162.272 38.8268C161.395 39.2052 160.374 39.6879 159.203 40.1264C157.701 40.7042 156.166 41.1896 154.605 41.5799C152.992 42.0217 151.352 42.3618 149.696 42.5982L149.65 42.699ZM159.843 41.4422L159.857 41.8383C159.924 42.5027 159.857 43.1739 159.659 43.8115C159.46 44.449 159.136 45.0398 158.704 45.5484C158.288 46.0849 157.767 46.53 157.172 46.856C156.577 47.182 155.922 47.3818 155.247 47.4431C154.572 47.5045 153.892 47.426 153.248 47.2125C152.605 46.9991 152.012 46.6552 151.506 46.2023L150.684 45.3393L149.301 45.3888C149.816 46.2523 150.526 46.9828 151.374 47.5217C152.222 48.0607 153.183 48.3931 154.182 48.4923C155.181 48.5916 156.189 48.4549 157.126 48.0932C158.062 47.7315 158.901 47.1549 159.576 46.4096C160.656 45.1088 161.183 43.4336 161.041 41.7464L161.013 40.9541L162.717 40.1991L163.932 39.6103C163.442 37.7178 162.379 36.0238 160.89 34.7612C158.941 33.1554 156.453 32.3575 153.936 32.5309C151.447 32.761 149.147 33.9611 147.532 35.8732C145.917 37.7853 145.116 40.2566 145.3 42.7554L145.333 43.6962C145.811 46.0063 147.095 48.07 148.954 49.5162C150.896 50.9987 153.334 51.67 155.759 51.3892C158.183 51.1084 160.405 49.8974 161.957 48.0101C163.533 46.1417 164.317 43.7291 164.141 41.2885L162.874 41.8296C162.938 42.8992 162.791 43.971 162.441 44.9833C162.09 45.9957 161.544 46.9285 160.832 47.728C160.121 48.5276 159.258 49.1782 158.295 49.6424C157.332 50.1065 156.286 50.3751 155.219 50.4325C153.182 50.6339 151.145 50.0508 149.522 48.8018C148.072 47.6817 147.026 46.1175 146.544 44.347C149.382 44.1336 152.195 43.668 154.951 42.9557C156.617 42.4995 158.231 41.9956 159.843 41.4422Z" fill="#231F20"/>
<path d="M29.8792 76.4308C29.7451 74.6143 30.3191 72.8165 31.4804 71.4157C32.062 70.696 32.7825 70.1013 33.5987 69.6672C34.4149 69.2331 35.3102 68.9685 36.2308 68.8893C37.1515 68.8101 38.0787 68.9179 38.9569 69.2062C39.8351 69.4945 40.6463 69.9575 41.3419 70.5673L42.0053 71.1386L42.2029 71.1315L43.66 70.3853C43.3003 69.938 42.8873 69.5365 42.4302 69.1898C41.5595 68.4426 40.5493 67.8763 39.4584 67.5238C38.3674 67.1712 37.2175 67.0396 36.0755 67.1364C34.9231 67.2402 33.8025 67.5709 32.7779 68.1095C31.7533 68.648 30.8447 69.3839 30.1042 70.275C29.3621 71.1576 28.8032 72.1798 28.4604 73.2818C28.1176 74.3838 27.9978 75.5434 28.108 76.6925L25.5888 76.7825C25.4575 75.3094 25.6174 73.8249 26.0591 72.4139C26.5009 71.0029 27.216 69.6931 28.1635 68.5596C29.3883 67.0771 30.9709 65.933 32.7609 65.236C34.5509 64.539 36.489 64.3121 38.3912 64.5769C40.2935 64.8416 42.0967 65.5893 43.6299 66.7489C45.163 67.9084 46.3752 69.4415 47.1513 71.2025C45.9853 71.7895 44.5247 72.4367 42.9635 73.0379C41.4023 73.6391 38.8602 74.4736 36.6551 75.0483C34.4429 75.6443 32.1966 76.1055 29.9286 76.4291L29.8792 76.4308ZM43.7628 74.6454L43.7876 75.3386C43.9209 77.1263 43.3585 78.8962 42.2184 80.2772C41.0783 81.6582 39.4491 82.5431 37.6722 82.7462C36.7732 82.8347 35.8655 82.7379 35.005 82.4617C34.1446 82.1855 33.3496 81.7358 32.6689 81.1402C32.2556 80.7766 31.8769 80.3752 31.5379 79.9412L29.6203 80.2577C30.1331 81.0938 30.7778 81.841 31.5294 82.47C33.2483 83.9526 35.4741 84.7085 37.7378 84.5783C40.062 84.358 42.2066 83.2307 43.709 81.4396C45.0945 79.7 45.7594 77.4928 45.5659 75.275L45.5269 74.1857L47.8643 73.1601L49.5172 72.3573C48.8052 69.8741 47.3648 67.6627 45.383 66.0103C42.7113 63.7946 39.2845 62.708 35.828 62.9806C34.1122 63.1343 32.4438 63.627 30.9191 64.4304C29.3944 65.2337 28.0435 66.3317 26.9443 67.6612C25.8438 68.9723 25.0142 70.4896 24.5038 72.125C23.9934 73.7604 23.8123 75.4812 23.9711 77.1874C23.9385 77.6335 23.9545 78.0818 24.0189 78.5243C24.681 81.642 26.4557 84.4102 29.0099 86.3091C31.564 88.2079 34.7218 89.1067 37.89 88.8366C39.5983 88.7023 41.2617 88.223 42.7802 87.4274C44.2987 86.6318 45.6409 85.5365 46.7261 84.2073C47.8309 82.8969 48.6666 81.3807 49.1853 79.7456C49.704 78.1105 49.8954 76.3888 49.7486 74.6793L48.0851 75.185C48.1928 78.0011 47.2511 80.7565 45.4434 82.9145C43.5923 85.1399 40.9558 86.5631 38.0833 86.8875C35.2108 87.2118 32.3241 86.4124 30.0249 84.6557C28.014 83.1365 26.563 80.9911 25.8995 78.5563C29.6608 78.2038 33.3909 77.5733 37.0593 76.6699C39.3615 76.0422 41.5119 75.3208 43.5123 74.5552" fill="#231F20"/>
</g>
<g clip-path="url(#clip1)">
<path d="M471.171 197.215C469.192 195.012 466.73 193.295 463.976 192.197C460.839 183.258 454.725 178.626 447.812 174.217C437.618 167.602 415.365 165.204 415.174 165.183C413.989 165.055 409.802 156.89 402.805 140.708C394.744 121.827 377.935 111.992 351.562 110.5C312.459 108.329 282.934 111.318 264.189 119.441C260.776 120.896 257.504 122.661 254.415 124.713C247.688 129.349 238.66 138.829 233.683 157.731C231.931 164.448 230.903 171.332 230.618 178.268C229.008 179.213 219.664 184.801 217.368 193.54C217.368 193.54 217.344 193.769 217.331 193.883C217.319 193.998 216.935 194.689 216.893 194.723L217.085 195.091C215.993 200.236 215.504 205.49 215.629 210.748C215.716 214.614 216.33 221.469 219.179 222.316C227.033 223.272 234.938 223.751 242.851 223.749L243.27 223.447C244.626 219.446 246.746 215.746 249.512 212.549C253.288 208.299 258.333 205.37 263.904 204.193C269.476 203.016 275.28 203.654 280.463 206.011C294.516 212 295.301 229.48 295.322 229.636L295.778 230.071L374.278 228.813L374.705 228.435C375.267 222.959 377.556 217.804 381.243 213.711C383.835 211.055 386.929 208.937 390.347 207.48C394.04 205.888 398.021 205.065 402.045 205.061C406.069 205.057 410.052 205.873 413.75 207.457C426.721 212.712 427.329 229.324 427.312 229.477L427.692 229.903C433.979 230.728 440.323 231.038 446.661 230.829C451.386 231.161 456.133 230.735 460.721 229.568L461.175 229.308C463.579 225.211 465.11 220.662 465.671 215.946C468.121 214.816 470.177 212.983 471.576 210.681C472.626 208.578 473.138 206.248 473.068 203.899C472.997 201.549 472.345 199.254 471.171 197.215ZM216.49 210.301C216.481 210.557 216.454 210.811 216.408 211.063C216.408 211.063 216.432 210.834 216.445 210.72C216.457 210.606 216.473 210.453 216.49 210.301ZM218.067 220.075C218.654 220.74 219.373 221.277 220.179 221.652L219.376 221.566C219.067 221.42 218.791 221.212 218.566 220.955C218.341 220.699 218.171 220.399 218.067 220.075Z" fill="#004A76"/>
<path d="M216.073 217.392C214.807 218.644 213.929 220.233 213.543 221.969C213.157 223.705 213.28 225.516 213.896 227.185C215.994 233.197 229.24 233.39 235.929 233.417C242.617 233.444 246.729 233.694 246.729 233.694C246.729 233.694 247.52 219.894 254.368 214.5C257.771 211.668 261.932 209.893 266.337 209.394C270.742 208.896 275.198 209.695 279.154 211.694C282.185 213.04 284.797 215.173 286.718 217.87C288.639 220.568 289.797 223.73 290.072 227.026C290.768 230.633 290.365 234.364 288.917 237.74C288.533 238.35 288.275 239.03 288.16 239.741L379.69 238.885C378.83 235.172 378.981 231.298 380.127 227.665C381.274 224.031 383.374 220.77 386.211 218.22C389.917 214.667 394.741 212.499 399.866 212.082C404.992 211.665 410.106 213.024 414.345 215.93C417.035 217.987 419.208 220.639 420.693 223.678C422.178 226.717 422.934 230.058 422.901 233.437C422.594 236.016 421.932 238.541 420.932 240.939C428.944 242.116 437.039 242.628 445.135 242.468C451.681 241.669 457.135 240.946 460.627 237.619C461.776 236.218 462.524 234.533 462.792 232.743C463.06 230.952 462.838 229.122 462.149 227.446L461.588 226.19L429.61 227.179C429.61 227.179 426.619 210.426 415.534 204.178C404.449 197.931 384.449 205.495 377.747 214.569C371.044 223.643 372.341 225.249 372.341 225.249L297.46 227.746C297.46 227.746 295.818 212.835 286.02 205.415C280.834 201.863 274.608 200.14 268.331 200.519C262.054 200.897 256.084 203.356 251.37 207.504C242.028 215.947 241.429 221.86 241.429 221.86C241.429 221.86 221.677 220.31 219.612 220.087C218.862 219.918 218.155 219.593 217.539 219.135C216.922 218.677 216.408 218.094 216.031 217.426" fill="#8EB400"/>
<path d="M464.163 192.256C465.269 195.927 465.938 199.714 466.157 203.54C466.429 207.798 466.292 212.071 465.749 216.302C465.749 216.302 473.672 212.412 473.803 206.525C474.064 204.432 473.84 202.308 473.15 200.315C472.46 198.322 471.321 196.512 469.821 195.026C468.042 193.899 466.145 192.97 464.163 192.256Z" fill="#8EB400"/>
<path d="M249.206 159.405C249.206 159.405 249.603 147.105 256.106 140.246C262.608 133.387 269.848 129.732 276.555 129.954C283.261 130.175 285.124 129.759 285.826 136.16C286.347 146.572 285.947 157.009 284.63 167.35C283.537 170.318 272.591 169.601 267.474 169.705C262.357 169.809 249.121 170.234 248.175 169.322C247.229 168.41 249.244 159.409 249.244 159.409" fill="#F5A300"/>
<path d="M282.269 166.286C278.542 167.076 274.726 167.365 270.921 167.145L267.558 167.13L266.123 167.168C262.904 167.245 254.059 167.488 250.648 167.197C250.922 164.79 251.335 162.401 251.883 160.041L251.937 159.545C251.937 159.545 252.405 148.024 258.146 142.125C261.141 138.72 264.794 135.952 268.887 133.987C271.274 132.921 273.866 132.384 276.483 132.415L277.783 132.555C279.303 132.474 280.826 132.638 282.294 133.041C282.524 133.066 282.909 133.802 283.211 136.38C283.696 146.36 283.419 156.361 282.384 166.298" fill="white"/>
<path d="M297.026 165.022C296.083 155.019 295.694 144.972 295.861 134.927C296.786 129.936 297.209 127.089 306.166 126.164C315.123 125.24 331.229 123.659 335.616 124.942C340.003 126.225 340.969 130.186 341.891 138.5C342.771 147.677 342.991 156.904 342.55 166.111C342.006 169.369 338.193 170.655 328.931 170.814C319.747 171.244 310.546 171.205 301.366 170.697C297.575 169.98 297.596 169.789 297.283 168.02C297.051 167.041 296.989 166.03 297.103 165.03" fill="#F5A300"/>
<path d="M338.553 166.953C335.403 167.91 332.115 168.337 328.824 168.219L324.947 168.302C317.221 168.663 309.48 168.602 301.76 168.117L299.792 167.712L299.817 167.483C299.667 166.794 299.613 166.087 299.656 165.383L299.718 164.811C298.776 155.045 298.426 145.231 298.67 135.424C299.32 131.907 299.588 130.856 301.576 129.99C303.179 129.358 304.863 128.955 306.579 128.793C312.564 128.166 330.793 126.274 334.954 127.494C337.543 128.236 338.515 130.346 339.233 138.755C340.061 147.753 340.275 156.796 339.874 165.823C339.841 166.128 339.792 166.585 338.537 167.106" fill="white"/>
<path d="M352.295 166.852C352.295 166.852 352.572 131.629 353.038 130.175C353.504 128.721 354.834 127.862 361.803 127.803C365.427 127.47 369.081 127.903 372.527 129.071C375.973 130.24 379.134 132.12 381.804 134.587C387.531 141.289 392.209 148.816 395.681 156.911C397.789 162.114 399.098 165.765 399.098 165.765C393.07 166.791 386.981 167.423 380.869 167.657C367.279 168.506 352.805 169.299 352.805 169.299L351.912 167.891L352.295 166.852Z" fill="#F5A300"/>
<path d="M395.485 163.755C392.781 164.081 388.12 164.62 380.724 165.057L354.973 166.408C355.039 153.957 355.282 134.12 355.589 130.913C357.622 130.342 359.739 130.127 361.846 130.276C370.25 130.179 375.811 132.052 379.916 136.312C385.353 142.775 389.788 150.014 393.073 157.787C393.986 160.084 394.778 162.059 395.31 163.582" fill="white"/>
<path d="M288.91 221.656C290.76 225.584 291.391 229.974 290.722 234.261C290.054 238.548 288.116 242.538 285.159 245.719C282.201 248.899 278.357 251.126 274.121 252.113C269.885 253.1 265.448 252.803 261.381 251.259C257.314 249.716 253.8 246.996 251.292 243.449C248.783 239.902 247.394 235.69 247.301 231.351C247.209 227.013 248.418 222.747 250.773 219.1C253.129 215.453 256.523 212.591 260.521 210.881C265.718 208.573 271.621 208.411 276.941 210.43C282.26 212.448 286.564 216.484 288.91 221.656Z" fill="#231F20"/>
<path d="M283.217 224.243C284.456 227.099 284.819 230.257 284.258 233.318C283.697 236.378 282.238 239.203 280.066 241.435C277.894 243.667 275.106 245.206 272.055 245.857C269.005 246.508 265.829 246.241 262.929 245.091C260.029 243.941 257.536 241.959 255.766 239.396C253.996 236.833 253.027 233.804 252.983 230.693C252.939 227.582 253.822 224.529 255.519 221.919C257.217 219.31 259.653 217.261 262.519 216.034C266.354 214.391 270.687 214.333 274.567 215.872C278.448 217.411 281.558 220.422 283.217 224.243Z" fill="#F5A300"/>
<path d="M275.185 245.285C272.246 246.55 268.997 246.916 265.848 246.339C262.699 245.761 259.792 244.266 257.494 242.042C255.196 239.817 253.61 236.964 252.938 233.842C252.265 230.72 252.536 227.47 253.715 224.503C254.895 221.536 256.93 218.984 259.564 217.171C262.198 215.358 265.313 214.365 268.514 214.317C271.715 214.269 274.859 215.169 277.548 216.902C280.238 218.636 282.352 221.125 283.624 224.056C285.319 227.99 285.384 232.432 283.802 236.411C282.221 240.39 279.122 243.581 275.185 245.285ZM262.822 216.452C260.02 217.647 257.638 219.645 255.978 222.193C254.318 224.741 253.454 227.724 253.497 230.763C253.54 233.802 254.487 236.76 256.218 239.263C257.949 241.765 260.387 243.699 263.221 244.818C266.055 245.937 269.158 246.192 272.137 245.55C275.115 244.908 277.835 243.398 279.95 241.211C282.066 239.025 283.482 236.26 284.019 233.269C284.556 230.277 284.19 227.194 282.967 224.409C281.338 220.702 278.308 217.786 274.534 216.295C270.761 214.805 266.551 214.861 262.822 216.452Z" fill="#231F20"/>
<path d="M420.997 224.553C422.835 228.476 423.457 232.855 422.785 237.13C422.113 241.406 420.176 245.384 417.223 248.554C414.27 251.724 410.435 253.943 406.209 254.926C401.982 255.909 397.557 255.611 393.5 254.071C389.443 252.532 385.938 249.82 383.434 246.282C380.93 242.745 379.542 238.544 379.446 234.217C379.35 229.89 380.551 225.633 382.896 221.992C385.241 218.351 388.622 215.491 392.607 213.779C395.178 212.621 397.954 211.98 400.775 211.895C403.596 211.81 406.406 212.282 409.044 213.283C411.682 214.284 414.096 215.795 416.147 217.729C418.199 219.663 419.847 221.983 420.997 224.553Z" fill="#231F20"/>
<path d="M415.307 227.103C416.553 229.957 416.921 233.115 416.367 236.177C415.812 239.239 414.358 242.067 412.19 244.304C410.021 246.541 407.236 248.085 404.186 248.741C401.136 249.398 397.959 249.136 395.056 247.991C392.154 246.845 389.658 244.867 387.883 242.306C386.108 239.746 385.135 236.718 385.086 233.606C385.038 230.494 385.917 227.439 387.611 224.827C389.305 222.214 391.739 220.163 394.604 218.932C398.435 217.285 402.766 217.221 406.646 218.752C410.526 220.284 413.641 223.287 415.307 227.103Z" fill="#F5A300"/>
<path d="M407.429 248.162C404.498 249.455 401.247 249.851 398.088 249.3C394.93 248.749 392.006 247.275 389.687 245.065C387.369 242.856 385.76 240.01 385.065 236.888C384.37 233.766 384.62 230.509 385.783 227.531C386.946 224.552 388.97 221.985 391.599 220.156C394.227 218.326 397.341 217.317 400.547 217.255C403.752 217.193 406.905 218.082 409.604 219.808C412.304 221.535 414.429 224.022 415.71 226.953C417.419 230.864 417.508 235.29 415.956 239.263C414.405 243.237 411.339 246.436 407.429 248.162ZM395.065 219.328C392.264 220.523 389.882 222.521 388.221 225.069C386.561 227.617 385.698 230.6 385.741 233.639C385.783 236.678 386.73 239.636 388.462 242.139C390.193 244.641 392.63 246.575 395.464 247.694C398.298 248.814 401.402 249.068 404.38 248.426C407.359 247.784 410.078 246.274 412.194 244.087C414.309 241.901 415.725 239.136 416.262 236.145C416.799 233.153 416.433 230.07 415.21 227.285C413.582 223.578 410.551 220.662 406.778 219.171C403.005 217.681 398.795 217.737 395.065 219.328Z" fill="#231F20"/>
<path d="M270.227 233.874C269.639 234.127 268.99 234.2 268.361 234.084C267.731 233.968 267.151 233.669 266.692 233.223C266.234 232.778 265.918 232.207 265.785 231.583C265.652 230.959 265.708 230.309 265.946 229.717C266.184 229.125 266.593 228.617 267.121 228.257C267.649 227.897 268.272 227.701 268.912 227.695C269.551 227.689 270.179 227.872 270.714 228.222C271.249 228.571 271.669 229.072 271.919 229.659C272.252 230.443 272.261 231.325 271.944 232.115C271.627 232.905 271.01 233.537 270.227 233.874ZM267.996 228.735C267.426 229.003 266.981 229.478 266.752 230.063C266.524 230.649 266.529 231.299 266.767 231.881C267.029 232.446 267.499 232.888 268.08 233.116C268.66 233.344 269.307 233.34 269.884 233.104C270.171 232.983 270.431 232.806 270.648 232.583C270.866 232.36 271.037 232.096 271.151 231.807C271.265 231.518 271.32 231.208 271.313 230.897C271.305 230.587 271.236 230.28 271.109 229.996C270.861 229.419 270.396 228.962 269.812 228.726C269.229 228.49 268.576 228.493 267.996 228.735Z" fill="#231F20"/>
<path d="M272.126 238.861C270.478 239.574 268.655 239.783 266.888 239.462C265.12 239.14 263.488 238.303 262.197 237.056C260.907 235.809 260.016 234.209 259.638 232.457C259.26 230.705 259.412 228.882 260.074 227.217C260.736 225.552 261.879 224.121 263.358 223.104C264.837 222.088 266.585 221.533 268.381 221.508C270.178 221.484 271.941 221.992 273.448 222.968C274.956 223.943 276.139 225.343 276.848 226.989C277.786 229.191 277.816 231.671 276.932 233.894C276.048 236.116 274.321 237.901 272.126 238.861ZM265.245 223.039C263.748 223.678 262.475 224.746 261.587 226.107C260.699 227.469 260.237 229.063 260.258 230.687C260.28 232.311 260.784 233.893 261.708 235.232C262.631 236.571 263.932 237.606 265.446 238.208C266.959 238.809 268.617 238.949 270.21 238.609C271.803 238.27 273.259 237.467 274.393 236.302C275.527 235.137 276.289 233.662 276.582 232.064C276.875 230.466 276.686 228.817 276.038 227.326C275.173 225.333 273.551 223.763 271.528 222.96C269.505 222.156 267.246 222.185 265.245 223.039Z" fill="#231F20"/>
<path d="M274.252 243.179C271.731 244.26 268.944 244.57 266.244 244.072C263.545 243.573 261.053 242.287 259.086 240.377C257.118 238.467 255.761 236.019 255.188 233.341C254.615 230.663 254.851 227.877 255.866 225.334C256.881 222.791 258.629 220.605 260.89 219.053C263.15 217.502 265.822 216.654 268.567 216.616C271.312 216.579 274.007 217.354 276.311 218.844C278.615 220.333 280.425 222.471 281.512 224.985C282.96 228.36 283.009 232.169 281.649 235.579C280.288 238.988 277.629 241.721 274.252 243.179ZM263.64 218.546C261.274 219.565 259.264 221.261 257.864 223.42C256.465 225.578 255.739 228.103 255.778 230.674C255.818 233.245 256.621 235.747 258.086 237.864C259.551 239.98 261.613 241.616 264.01 242.565C266.407 243.514 269.032 243.733 271.552 243.194C274.073 242.655 276.377 241.383 278.172 239.538C279.967 237.694 281.172 235.359 281.636 232.83C282.101 230.301 281.802 227.691 280.779 225.33C279.399 222.172 276.822 219.685 273.611 218.414C270.399 217.143 266.815 217.19 263.64 218.546Z" fill="#231F20"/>
<path d="M402.317 236.733C401.536 237.069 400.653 237.084 399.861 236.774C399.069 236.465 398.431 235.857 398.085 235.082C397.762 234.297 397.758 233.418 398.074 232.632C398.39 231.845 399.001 231.212 399.777 230.867C400.557 230.532 401.439 230.519 402.229 230.832C403.018 231.145 403.651 231.758 403.988 232.536C404.324 233.314 404.338 234.193 404.024 234.98C403.711 235.767 403.097 236.398 402.317 236.733ZM400.12 231.637C399.545 231.882 399.091 232.344 398.858 232.923C398.625 233.502 398.632 234.15 398.878 234.723C399.124 235.297 399.589 235.75 400.169 235.983C400.75 236.215 401.399 236.208 401.974 235.964C402.259 235.842 402.517 235.666 402.734 235.445C402.95 235.225 403.121 234.964 403.236 234.677C403.352 234.39 403.409 234.084 403.406 233.775C403.402 233.466 403.338 233.161 403.216 232.877C403.094 232.593 402.918 232.335 402.696 232.119C402.475 231.903 402.213 231.733 401.925 231.617C401.638 231.502 401.33 231.445 401.021 231.448C400.711 231.451 400.405 231.515 400.12 231.637Z" fill="#231F20"/>
<path d="M404.25 241.763C402.603 242.472 400.782 242.677 399.017 242.354C397.252 242.031 395.623 241.193 394.335 239.947C393.046 238.7 392.157 237.102 391.78 235.352C391.402 233.603 391.553 231.781 392.213 230.118C392.873 228.455 394.013 227.024 395.488 226.007C396.964 224.99 398.709 224.432 400.503 224.403C402.296 224.375 404.059 224.878 405.567 225.848C407.075 226.818 408.262 228.212 408.976 229.853C409.915 232.061 409.946 234.547 409.061 236.776C408.177 239.004 406.449 240.796 404.25 241.763ZM397.407 225.945C395.392 226.797 393.799 228.412 392.979 230.436C392.159 232.459 392.178 234.726 393.034 236.736C393.889 238.746 395.51 240.336 397.54 241.155C399.569 241.974 401.842 241.956 403.857 241.104C404.845 240.679 405.739 240.063 406.489 239.293C407.238 238.523 407.828 237.613 408.225 236.615C408.621 235.618 408.817 234.552 408.801 233.478C408.784 232.405 408.556 231.345 408.129 230.36C407.702 229.374 407.084 228.482 406.311 227.734C405.539 226.986 404.626 226.397 403.625 226.001C402.625 225.605 401.556 225.409 400.479 225.425C399.403 225.441 398.34 225.668 397.352 226.093" fill="#231F20"/>
<path d="M406.376 246.081C403.857 247.193 401.062 247.535 398.347 247.062C395.631 246.589 393.117 245.323 391.123 243.424C389.129 241.526 387.744 239.08 387.145 236.396C386.546 233.713 386.759 230.913 387.757 228.351C388.756 225.79 390.494 223.582 392.752 222.007C395.011 220.433 397.687 219.563 400.443 219.507C403.199 219.452 405.91 220.213 408.232 221.695C410.554 223.177 412.383 225.313 413.488 227.832C414.951 231.208 415.012 235.024 413.657 238.443C412.303 241.862 409.643 244.604 406.262 246.068L406.376 246.081ZM395.539 221.385C393.177 222.409 391.173 224.108 389.779 226.268C388.385 228.427 387.665 230.951 387.708 233.52C387.752 236.088 388.558 238.587 390.024 240.7C391.49 242.814 393.551 244.447 395.946 245.393C398.342 246.34 400.964 246.558 403.483 246.019C406.001 245.481 408.303 244.21 410.097 242.368C411.891 240.526 413.098 238.194 413.564 235.668C414.03 233.141 413.735 230.533 412.716 228.173C411.329 225.011 408.745 222.523 405.528 221.252C402.31 219.98 398.72 220.028 395.539 221.385Z" fill="#231F20"/>
<path d="M323.005 197.444C323.216 195.031 324.269 192.768 325.98 191.05C327.692 189.331 329.954 188.266 332.373 188.04C341.173 187.137 343.836 195.447 337.974 203.185C332.111 210.923 323.781 219.667 323.781 219.667C317.097 215.692 311.107 210.656 306.049 204.758C299.682 196.358 301.169 188.302 307.685 186.343C314.201 184.384 318.416 189.776 320.517 192.895C321.564 194.307 322.437 195.838 323.119 197.457" fill="#EC1C24"/>
<path d="M308.024 190.738C307.077 191.264 306.296 192.043 305.77 192.989C305.245 193.934 304.995 195.007 305.049 196.087C305.135 199.954 307.77 201.703 309.143 200.81C310.516 199.917 307.512 198.359 308.644 195.395C309.776 192.431 312.051 192.137 311.136 190.572C310.222 189.008 308.024 190.738 308.024 190.738Z" fill="white"/>
<path d="M320.208 208.675C317.29 207.572 314.797 205.575 313.087 202.971C311.582 201.15 308.911 203.678 310.417 205.499C312.571 208.562 315.613 210.895 319.134 212.185C319.587 212.286 320.062 212.212 320.464 211.979C320.865 211.746 321.163 211.37 321.299 210.927C321.434 210.484 321.397 210.006 321.195 209.589C320.993 209.171 320.641 208.845 320.208 208.675Z" fill="white"/>
<path d="M355.01 212.349L354.399 212.284C353.659 212.298 352.929 212.111 352.287 211.743C351.645 211.374 351.116 210.839 350.756 210.194C350.336 209.486 350.12 208.676 350.134 207.853C350.147 207.031 350.389 206.228 350.833 205.535C352.767 202.658 356.307 203.194 359.444 204.226C359.66 202.965 359.798 201.692 359.855 200.414C359.781 198.268 359.506 196.133 359.034 194.038C358.7 192.51 358.453 190.964 358.296 189.407C358.185 188.277 358.152 187.155 358.118 186.032C358.084 184.91 358.06 184.059 357.967 183.123L358.004 182.78C357.606 181.009 357.889 179.154 358.797 177.582C359.076 177.301 359.41 177.08 359.778 176.934C360.147 176.788 360.542 176.72 360.938 176.732L361.372 177.011C361.475 177.285 361.513 177.58 361.481 177.871C361.45 178.162 361.351 178.442 361.191 178.688L360.551 178.889L360.01 178.522L360.072 177.95C359.867 177.965 359.668 178.021 359.485 178.114C359.302 178.207 359.14 178.335 359.008 178.492C358.132 179.439 358.301 181.462 358.527 182.952L358.49 183.296C358.383 184.287 358.586 185.273 358.637 186.243C358.687 187.212 358.704 188.487 358.776 189.613C358.848 190.74 359.22 192.67 359.527 194.13C360.011 196.276 360.293 198.463 360.37 200.662C360.329 202.005 360.185 203.344 359.939 204.665L361.576 205.266L362.843 205.711L363.187 205.748C365.721 206.638 369.561 207.978 371.408 205.554C371.967 204.768 372.294 203.842 372.354 202.879L371.969 202.144C371.678 201.493 371.533 200.788 371.543 200.077C371.553 199.365 371.718 198.664 372.026 198.023L372.476 197.801C372.595 197.451 372.788 197.13 373.041 196.859C374.855 194.741 376.245 195.122 377.05 195.556C378.1 196.549 378.741 197.897 378.847 199.336C379.362 199.049 379.804 198.646 380.138 198.161C380.472 197.675 380.69 197.119 380.773 196.536C380.547 195.575 380.655 194.566 381.081 193.676L381.607 193.463L381.949 193.885L381.924 194.114C381.912 194.934 381.824 195.751 381.661 196.554L381.972 197.976L382.157 198.768C382.648 197.085 383.293 195.766 384.358 195.572C384.572 195.501 384.799 195.477 385.023 195.501C385.248 195.526 385.464 195.597 385.658 195.712C386.302 196.367 386.689 197.23 386.75 198.144C386.757 198.58 386.71 199.016 386.61 199.44C386.516 200.317 386.458 200.851 387.288 201.403C387.896 201.735 388.611 201.812 389.276 201.618C390.261 201.378 391.13 200.804 391.734 199.993C391.301 199.436 390.989 198.797 390.816 198.115C390.643 197.432 390.614 196.722 390.73 196.027C390.777 195.64 390.952 195.28 391.227 195.002C391.502 194.725 391.861 194.546 392.249 194.494L393.014 194.577C393.179 194.076 393.466 193.624 393.849 193.261C394.232 192.899 394.7 192.637 395.21 192.499C395.632 192.456 396.056 192.547 396.423 192.76C396.789 192.972 397.078 193.296 397.249 193.683L397.286 193.34C397.717 190.437 398.427 187.581 399.404 184.813L399.424 184.622C400.143 182.617 400.944 180.929 402.086 180.743C402.249 180.733 402.413 180.764 402.561 180.834C402.709 180.904 402.837 181.01 402.932 181.143C403.512 181.862 403.161 183.328 402.792 184.599L402.763 184.866C401.589 188.907 399.872 192.77 397.657 196.35C397.439 197.373 397.512 198.436 397.868 199.42C397.911 199.556 397.998 199.674 398.115 199.756C398.231 199.838 398.372 199.88 398.515 199.875C399.28 199.958 400.465 199.005 401.485 197.804C401.107 195.565 402.113 191.97 403.886 191.313L404.154 191.342C404.502 190.972 404.98 190.752 405.488 190.728C405.995 190.704 406.493 190.877 406.875 191.211C407.273 191.504 407.59 191.892 407.799 192.339C408.007 192.786 408.1 193.278 408.069 193.769C408.88 192.97 409.609 192.092 410.247 191.15C410.344 190.595 410.404 190.035 410.428 189.472L410.936 189.064C411.092 189.07 411.242 189.12 411.37 189.209C411.498 189.298 411.597 189.422 411.655 189.566C411.693 189.915 411.655 190.269 411.546 190.603C411.437 190.936 411.258 191.243 411.021 191.503C410.951 192.152 410.886 192.762 410.552 193.343C410.949 192.788 411.459 192.325 412.05 191.983C412.64 191.641 413.297 191.428 413.976 191.359L414.32 191.396L414.283 191.739C414.251 192.044 414.214 192.388 414.172 192.769C414.025 194.141 413.553 196.366 414.133 197.084C414.713 197.803 416.006 197.286 418.092 196.238C419.926 195.192 421.681 194.015 423.345 192.716L424.014 192.248L424.043 191.981L424.411 191.442L424.955 191.771L424.881 192.457L424.836 192.877L423.955 193.515C419.453 196.886 415.14 199.584 413.566 197.679C412.709 196.661 413.116 194.313 413.378 192.606L413.415 192.263C412.259 192.855 411.273 193.729 410.548 194.805C409.824 195.88 409.384 197.121 409.271 198.412L409.246 198.64L408.776 199.053L408.91 198.527C409.12 196.994 409.464 195.482 409.939 194.01L410.005 193.399L408.998 194.487L408.977 194.677L408.321 195.378C407.658 197.582 405.743 199.921 403.964 199.922C403.638 199.922 403.319 199.83 403.044 199.657C402.768 199.484 402.547 199.237 402.406 198.945C401.589 199.996 400.41 200.707 399.096 200.941C398.781 200.945 398.471 200.856 398.206 200.683C397.942 200.51 397.736 200.262 397.615 199.971L397.243 199.121C397.031 199.472 396.776 199.794 396.482 200.08C396.047 200.571 395.47 200.917 394.83 201.069C394.191 201.221 393.52 201.172 392.909 200.929C392.161 201.935 391.086 202.651 389.867 202.954C389.409 203.058 388.934 203.069 388.471 202.986C388.008 202.903 387.567 202.728 387.173 202.471C386.725 202.168 386.381 201.736 386.186 201.232C385.992 200.729 385.956 200.178 386.084 199.654C386.162 199.29 386.202 198.92 386.203 198.548C386.166 197.871 385.894 197.228 385.433 196.729L384.859 196.667C383.832 196.865 383.072 200.332 382.795 201.459L382.742 201.955L382.697 202.374L382.12 202.698L381.46 202.009L381.497 201.666C381.588 200.566 381.485 199.458 381.192 198.394C380.673 199.295 379.877 200.007 378.923 200.425C378.964 201.5 378.769 202.572 378.352 203.564C378.24 203.889 378.064 204.188 377.835 204.443C377.605 204.699 377.326 204.906 377.015 205.052C376.703 205.198 376.365 205.281 376.021 205.295C375.677 205.309 375.334 205.254 375.012 205.133C374.356 204.922 373.77 204.539 373.313 204.024C373.143 204.819 372.812 205.571 372.34 206.233C370.087 209.192 365.84 207.693 363.046 206.697L362.74 206.664L361.676 206.125L360.188 205.579C359.596 208.562 358.278 211.815 355.201 212.37L355.01 212.349ZM354.15 204.543C353.64 204.628 353.153 204.816 352.718 205.094C352.282 205.371 351.908 205.734 351.616 206.16C351.279 206.711 351.099 207.344 351.098 207.99C351.097 208.636 351.273 209.27 351.608 209.823C351.884 210.349 352.305 210.785 352.822 211.08C353.338 211.375 353.929 211.516 354.523 211.487C357.482 211.305 358.758 208.086 359.295 205.252C357.649 204.635 355.873 204.443 354.133 204.695L354.15 204.543ZM373.662 202.943C374.102 203.63 374.749 204.159 375.51 204.454C375.94 204.523 376.38 204.429 376.743 204.189C377.106 203.949 377.364 203.582 377.468 203.161C377.783 202.448 377.945 201.677 377.944 200.898C377.239 201.259 376.465 201.464 375.674 201.501C374.828 201.491 374.012 201.184 373.369 200.636C373.459 201.341 373.473 202.054 373.411 202.762L373.662 202.943ZM402.794 198.215C402.824 198.432 402.927 198.633 403.086 198.783C403.246 198.934 403.453 199.025 403.672 199.042C404.628 199.145 405.876 197.969 406.652 196.509C406.261 196.761 405.802 196.887 405.337 196.869C404.865 196.806 404.435 196.566 404.133 196.199C403.737 196.903 403.29 197.577 402.794 198.215ZM393.271 200.081C393.717 200.235 394.198 200.252 394.653 200.129C395.108 200.006 395.515 199.749 395.821 199.392C396.225 198.988 396.552 198.513 396.784 197.991C396.454 198.284 396.075 198.517 395.666 198.681C395.379 198.792 395.069 198.833 394.763 198.8C394.457 198.767 394.163 198.661 393.907 198.491L393.716 198.471C393.617 199.084 393.462 199.687 393.251 200.272L393.271 200.081ZM392.59 195.997C392.59 195.997 392.106 196.176 391.964 196.778C391.812 197.775 391.987 198.795 392.463 199.686C392.967 198.481 393.109 197.157 392.874 195.873L392.644 195.848L392.59 195.997ZM403.799 193.193C403.154 194.339 402.815 195.63 402.815 196.944C403.133 196.509 403.415 196.05 403.659 195.57L403.696 195.227C403.545 194.619 403.534 193.984 403.664 193.372L403.799 193.193ZM395.521 193.921C395.113 194.096 394.756 194.369 394.482 194.717C394.208 195.065 394.026 195.476 393.953 195.912C393.836 196.214 393.81 196.543 393.879 196.859C393.948 197.175 394.109 197.464 394.341 197.69L395.259 197.788C395.991 197.397 396.611 196.827 397.062 196.131C397.083 195.65 396.975 195.172 396.747 194.748C396.482 194.333 396.073 193.826 395.563 193.887L395.521 193.921ZM404.719 195.067L404.699 195.258L405.38 195.755C405.757 195.715 406.122 195.6 406.454 195.418C406.786 195.235 407.078 194.988 407.313 194.691C407.399 193.89 407.551 192.479 406.695 191.809C406.59 191.708 406.466 191.63 406.33 191.578C406.194 191.527 406.049 191.504 405.904 191.51C405.759 191.516 405.616 191.551 405.485 191.613C405.354 191.676 405.237 191.764 405.141 191.872L405.12 192.063C405.379 193.074 405.264 194.143 404.796 195.075L404.719 195.067ZM375.889 196.279C375.157 196.502 374.522 196.963 374.084 197.589C373.876 197.826 373.745 198.122 373.712 198.436C373.678 198.75 373.742 199.066 373.895 199.343C374.106 199.735 374.421 200.062 374.807 200.288C375.192 200.513 375.632 200.628 376.078 200.619C376.87 200.541 377.635 200.295 378.322 199.897C378.314 198.596 377.796 197.35 376.879 196.424L376.076 196.338L375.889 196.279ZM402.748 181.779C402.748 181.779 402.014 182.124 400.963 185.058L400.938 185.287C399.967 187.977 399.266 190.757 398.845 193.585L398.8 194.005C400.361 191.058 401.628 187.964 402.58 184.769L402.609 184.503C403.158 182.633 402.88 181.986 402.897 181.834" fill="white"/>
</g>
<path d="M356.381 56.4536C356.381 56.4536 352.233 49.0085 342.555 50.1115C332.877 51.4902 332.6 60.8655 332.6 60.8655C332.6 60.8655 312.691 68.5863 305.502 79.0646C298.312 89.5428 297.206 92.8518 297.206 92.8518L258.77 106.363C258.77 106.363 257.664 108.018 260.982 109.121C264.3 110.224 270.937 107.466 278.126 105.536C285.316 103.606 304.396 99.1939 304.396 99.1939C304.396 99.1939 316.009 110.499 334.536 105.26C353.063 100.021 353.339 79.6161 353.339 76.0314C353.616 72.4467 352.786 68.3106 352.786 68.3106C352.786 68.3106 354.998 65.2774 355.828 62.7957C356.658 60.314 357.211 58.9353 357.211 58.9353L362.188 55.6264L358.593 55.0749L358.87 52.0417L356.381 56.4536Z" fill="#240036"/>
<path d="M326.794 109.948L327.347 109.672C327.347 109.672 329.559 107.19 330.665 101.951C331.771 96.712 331.218 93.4031 331.218 93.4031C331.218 93.1273 330.942 92.8516 330.665 92.8516C330.389 92.8516 330.112 93.1273 330.112 93.4031C330.112 93.4031 330.389 96.712 329.559 101.675C328.453 106.639 326.517 108.845 326.517 108.845V109.672L326.794 109.948Z" fill="#240036"/>
<path d="M314.627 108.569H314.903C315.18 108.569 316.286 107.191 318.221 102.779C320.433 98.091 319.88 93.4034 319.88 93.1277C319.88 92.8519 319.604 92.5762 319.327 92.5762C319.051 92.5762 318.774 92.8519 318.774 93.1277C318.774 93.1277 319.051 97.8153 317.115 102.227C315.18 106.639 314.074 107.742 314.074 107.742V108.569H314.627Z" fill="#240036"/>
<path d="M325.134 113.533L325.687 113.257C325.964 112.981 326.517 112.706 326.793 111.603C326.793 111.327 327.07 111.051 327.07 110.775C327.347 111.051 327.347 111.327 327.347 111.878C327.623 112.43 327.623 112.706 327.347 112.706V113.257C327.623 113.533 327.9 113.809 328.176 113.533C328.453 113.257 328.729 112.981 328.453 111.327C328.176 109.948 327.347 109.121 327.07 109.121L326.517 108.845L325.964 109.121C325.964 109.121 325.687 109.948 325.134 111.051C324.858 111.603 324.581 111.878 324.305 112.154C324.028 112.43 323.752 112.706 323.752 112.981C324.581 113.533 324.858 113.533 325.134 113.533Z" fill="#240036"/>
<path d="M324.028 111.327L324.581 111.051C324.581 111.051 324.858 110.5 325.687 110.224C326.793 109.948 327.623 109.397 327.623 109.397V108.569H326.793C326.793 108.569 326.517 108.845 325.411 109.121C324.028 109.397 323.475 110.5 323.475 110.5C323.199 110.775 323.475 111.051 323.752 111.327H324.028Z" fill="#240036"/>
<path d="M312.967 112.429L313.521 112.154C313.797 111.878 314.35 111.602 314.627 110.499C314.627 110.223 314.903 109.948 314.903 109.672C315.18 109.948 315.18 110.223 315.456 110.775C315.733 111.326 315.456 111.602 315.456 111.602V112.154C315.733 112.429 316.009 112.705 316.286 112.429C316.562 112.154 316.839 111.878 316.562 110.223C316.286 108.845 315.456 108.017 315.18 108.017L314.627 107.742L314.074 108.017C314.074 108.017 313.797 108.569 313.244 109.948C312.967 110.499 312.691 110.775 312.414 111.051C312.138 111.326 311.861 111.602 311.861 111.878C312.414 112.154 312.691 112.429 312.967 112.429Z" fill="#240036"/>
<path d="M311.862 109.948L312.415 109.672C312.415 109.672 312.691 109.121 313.521 108.845C314.627 108.569 315.18 108.018 315.457 108.018V107.19H314.627C314.627 107.19 314.35 107.466 313.244 107.742C311.862 108.018 311.309 109.121 311.309 109.121C311.032 109.396 311.309 109.672 311.585 109.948H311.862Z" fill="#240036"/>
<defs>
<clipPath id="clip0">
<rect width="202.159" height="241.493" fill="white" transform="translate(0.359619 7.48096) rotate(-2.04767)"/>
</clipPath>
<clipPath id="clip1">
<rect width="280.231" height="153.124" fill="white" transform="translate(211.41 93.0786) rotate(6.15212)"/>
</clipPath>
</defs>
</svg>
