<svg width="482" height="669" viewBox="0 0 482 669" fill="none" xmlns="http://www.w3.org/2000/svg">
<path d="M208.888 296.707C214.132 302.351 218.648 308.579 223.358 314.612C228.165 320.742 233.021 326.775 237.488 333.149C245.209 344.145 254.775 345.264 266.089 339.426C276.237 334.171 284.201 326.191 291.776 317.823C295.126 314.125 298.525 310.379 301.05 306.048C299.205 303.372 297.408 300.745 295.563 298.069C293.621 298.702 292.31 300.405 290.465 301.183C289.833 301.67 289.251 302.205 288.571 302.643C279.782 308.87 270.993 315.05 262.155 321.277C262.155 323.515 262.155 325.754 262.155 327.992C260.699 326.435 259.776 324.878 259.242 323.078C255.649 316.12 252.104 309.162 248.511 302.156C247.491 300.794 246.666 299.334 246.083 297.729C244.578 295.588 243.315 293.301 242.198 290.917C238.459 284.689 234.72 278.413 230.981 272.185C227.291 266.736 223.795 261.238 219.959 255.934C212.481 245.668 202.769 238.71 190.144 236.229C188.542 235.937 186.939 235.694 185.337 235.451C183.249 235.451 181.161 235.451 179.122 235.402C174.314 235.256 169.604 236.375 164.846 236.959C161.981 238.808 160.184 241.338 159.65 244.744C159.31 246.884 159.019 249.074 158.485 251.166C155.62 261.724 142.218 266.736 132.652 260.994C120.658 282.986 113.034 306.681 105.411 330.376C102.303 340.009 99.9724 349.838 96.282 359.228C89.7753 375.771 80.1608 390.513 69.6724 404.72C66.9046 408.515 63.9911 412.164 61.1262 415.862C62.0974 415.911 63.0199 415.959 63.9911 416.251C69.1382 417.711 73.9454 419.998 78.5584 422.625C84.9195 426.274 91.3291 429.875 97.6902 433.475C103.371 436.54 109.053 439.654 114.734 442.719C123.037 447.196 131.729 450.942 140.324 454.834C144.403 456.343 148.482 457.802 152.561 459.311C164.069 463.3 175.771 466.512 187.765 468.506C193.009 469.382 198.253 470.112 203.498 470.89C203.643 470.842 203.74 470.793 203.886 470.793C205.926 454.105 205.926 437.319 205.926 420.533C205.877 395.087 204.663 369.64 203.352 344.242C202.915 336.214 202.332 328.235 201.798 320.207C201.75 319.283 201.555 318.504 202.527 317.872C209.033 313.541 209.907 307.07 209.082 300.064C208.936 299.042 208.742 297.972 208.596 296.95C208.548 296.755 208.451 296.415 208.499 296.415C208.839 296.22 208.839 296.512 208.888 296.707Z" fill="#8EB400"/>
<path d="M154.174 472.05C155.237 482.803 156.204 493.606 157.315 504.359C158.523 516.232 159.876 528.104 161.036 539.977C161.423 543.772 160.069 547.47 159.441 551.217C157.025 565.717 154.416 580.168 151.903 594.62C150.743 601.237 149.632 607.806 148.472 614.424C149.632 614.764 150.743 615.105 151.903 615.397C155.72 616.467 159.248 618.462 163.259 619.046C164.998 616.954 165.433 614.278 166.352 611.796C173.213 592.966 180.51 574.329 186.889 555.353C190.755 543.918 192.688 532.046 194.911 520.222C197.762 504.992 200.661 489.81 203.464 474.58C203.657 473.607 203.657 472.634 203.754 471.661L203.609 471.515C196.602 472.342 189.547 471.904 182.54 471.466C178.577 471.223 174.615 470.785 170.652 470.201C165.047 469.422 159.49 468.449 153.884 467.573C153.787 469.131 153.836 470.59 154.174 472.05Z" fill="#F8B5A8"/>
<path d="M42.3304 452.461C45.2636 458.943 48.0502 465.523 51.179 471.908C56.4588 482.679 62.1785 493.256 68.8271 503.247C72.9336 509.486 77.3824 515.481 82.9555 520.55C83.6888 521.183 84.3732 521.914 85.1554 522.499C92.7818 528.104 97.0349 527.617 104.808 518.795C116.101 505.928 123.532 490.624 131.207 475.515C132.331 473.37 133.309 471.128 134.385 468.935C135.411 466.742 136.389 464.5 137.416 462.306C129.203 460.308 121.478 456.896 113.803 453.485C107.203 450.56 101.044 446.807 94.7861 443.249C93.9062 445.686 93.0751 448.172 92.1951 450.609C90.1907 456.994 88.1864 463.379 86.2309 469.763C86.0842 470.3 85.9865 470.836 85.8398 471.421C86.8175 476.831 88.4308 482.143 88.8219 487.651C88.9197 487.797 89.0663 487.992 89.1641 488.138C89.1152 488.187 89.0663 488.236 88.9686 488.284C88.9197 488.089 88.8708 487.846 88.773 487.651C86.182 485.799 84.471 483.118 82.4177 480.827C76.9912 476.246 72.6892 470.641 68.1916 465.182C62.9607 458.748 58.3164 451.876 53.4277 445.199C49.5168 447.295 45.7525 449.634 42.3304 452.461Z" fill="#F8B5A8"/>
<path d="M231.395 272.116C235.159 278.285 238.923 284.502 242.687 290.671C247.624 290.093 252.512 289.514 257.449 288.984C264.488 288.213 271.38 286.912 278.371 285.707C278.517 284.936 279.202 284.743 279.739 284.454C285.361 281.418 290.2 277.466 293.524 271.971C294.159 270.911 294.697 271.056 295.675 271.393C298.95 272.502 301.736 274.863 305.305 275.249C314.885 266.815 322.804 256.983 330.234 246.717C333.021 242.717 335.807 238.765 338.642 234.765C338.495 234.621 338.398 234.476 338.251 234.283C335.025 235.536 331.847 236.789 328.621 237.946C315.081 242.91 301.15 246.525 286.827 248.742C276.855 250.284 266.883 251.103 256.814 251.248C252.756 251.296 248.748 250.959 244.691 251.055C243.175 251.103 242.589 251.585 242.247 253.031C240.438 260.453 236.528 266.622 231.395 272.116Z" fill="#E3E7EB"/>
<path d="M133.089 260.653C142.672 266.317 156.098 261.373 158.968 250.958C159.551 248.894 159.795 246.735 160.135 244.623C160.67 241.263 162.519 238.767 165.34 236.944C168.405 235.168 171.567 233.536 174.485 231.616C180.323 227.728 183.339 220.961 181.977 215.442C179.544 215.346 179.885 214.05 180.614 212.514C179.252 212.13 178.085 211.458 177.258 210.306C176.382 209.058 175.896 207.666 177.015 206.37C178.231 204.979 179.496 205.891 180.663 206.562C181.052 206.802 181.441 207.138 181.831 207.378C182.366 207.762 182.901 207.954 182.998 207.042C183.63 202.195 187.23 198.787 189.322 194.66C189.614 192.788 188.738 191.156 188.349 189.38L188.398 189.428C188.203 189.284 188.008 189.188 187.863 189.044C181.15 183.669 170.837 184.773 164.124 191.492C161.546 194.084 160.086 197.203 159.065 200.611C158.822 201.379 158.53 202.099 158.384 202.915C156.73 211.698 151.476 216.929 142.72 219.185C136.251 220.817 130.997 224.465 127.203 230.032C119.955 240.687 122.338 253.262 133.089 260.653Z" fill="#EC1C24"/>
<path d="M277.982 286.435C271.071 287.61 264.159 288.981 257.15 289.764C252.234 290.303 247.367 290.89 242.451 291.478C243.571 293.876 244.836 296.177 246.345 298.331C262.845 298.674 279.394 297.793 295.894 297.841C297.16 294.611 298.425 291.331 299.739 288.1C300.031 287.366 300.177 285.995 301.297 286.24C302.222 286.435 301.832 287.61 301.881 288.394C301.93 290.303 301.881 292.212 301.881 294.708C305.823 291.771 309.279 289.324 312.589 286.631C314.147 285.407 314.585 285.799 314.633 287.512C315.12 286.876 315.558 286.191 316.142 285.603C328.456 273.022 340.771 260.441 353.134 247.909C353.669 247.322 354.156 246.637 354.983 246.392L354.935 246.441C355.032 246.245 355.129 246.098 355.227 245.902C354.107 244.874 352.842 245.56 351.673 245.609C344.324 245.951 336.974 246.343 329.625 246.734C322.226 257.161 314.341 267.148 304.801 275.715C304.412 276.498 303.731 276.89 303.049 277.33C295.505 282.764 286.89 285.065 277.982 286.435Z" fill="#F5A300"/>
<path d="M162.72 619.227C158.683 618.646 155.04 616.659 151.151 615.593C149.969 615.253 148.787 614.914 147.655 614.624C146.227 622.377 144.75 630.13 143.323 637.884C142.092 644.619 140.96 651.355 139.778 658.091C139.63 658.866 139.335 659.593 140.418 660.126C146.227 663.082 151.938 666.135 158.092 668.8C155.877 665.699 153.858 662.452 151.446 659.544C149.624 657.364 149.477 655.425 150.511 652.76C154.597 642.487 158.338 632.117 162.228 621.747C162.474 620.923 163.114 620.148 162.72 619.227Z" fill="#EC1C24"/>
<path d="M92.1155 449.883C92.9911 447.442 93.8181 444.952 94.6936 442.511C95.6665 439.435 96.6394 436.359 97.6123 433.283C91.1913 429.67 84.8189 426.057 78.4465 422.395C73.8253 419.71 69.0095 417.415 63.8532 415.999C62.8803 415.706 61.9561 415.657 60.9832 415.608C59.6211 417.073 59.9617 418.733 60.4481 420.393C61.6156 424.543 64.291 427.668 67.2096 430.646C74.5549 438.263 83.1163 444.317 92.1155 449.883Z" fill="#6E8702"/>
<path d="M181.614 215.648C182.969 221.283 179.968 228.192 174.158 232.161C171.253 234.17 168.107 235.787 165.056 237.6C169.801 237.012 174.449 235.934 179.29 236.032C181.372 236.081 183.454 236.081 185.487 236.081C185.584 233.484 186.697 231.083 186.601 228.437C186.068 227.359 184.422 227.849 183.986 226.428C185.148 226.428 186.213 225.938 187.133 226.918C187.666 225.84 188.634 225.889 189.602 225.84C192.797 225.546 191.926 223.733 193.427 220.793C193.669 219.519 193.669 220.352 192.701 219.666C190.28 217.902 192.894 219.176 194.008 218.245C194.395 217.951 192.701 215.403 193.378 215.207C196.428 214.423 196.235 213.1 195.702 212.316C194.444 210.503 193.669 209.033 193.33 207.612C192.749 205.26 193.766 205.358 193.814 202.908C193.863 201.046 194.008 199.184 192.894 197.518C191.732 196.342 190.619 195.068 188.924 194.48C186.843 198.694 183.26 202.173 182.631 207.122C182.534 208.053 182.001 207.857 181.469 207.465C181.081 207.171 180.694 206.877 180.307 206.632C179.145 205.897 177.886 205.015 176.676 206.436C175.562 207.759 176.046 209.18 176.918 210.454C177.741 211.63 178.903 212.316 180.258 212.708C181.13 212.757 182.146 212.414 182.582 213.492C182.921 214.374 182.582 215.158 181.614 215.648ZM181.711 210.65C181.759 210.699 181.856 210.797 181.904 210.846C181.808 210.797 181.759 210.748 181.711 210.65C181.517 210.503 181.372 210.356 181.227 210.209C180.597 210.16 180.258 209.866 180.258 209.229C179.871 209.229 179.484 209.131 179.29 208.739C178.854 208.69 178.322 208.886 178.031 208.298C178.031 208.249 178.08 208.102 178.128 208.102C178.661 208.053 179.048 208.249 179.338 208.69C179.726 208.69 180.113 208.788 180.307 209.18C180.936 209.229 181.275 209.523 181.275 210.16C181.372 210.307 181.565 210.454 181.711 210.65ZM187.181 204.182C186.746 202.565 187.569 201.928 188.682 201.536C189.747 201.193 190.522 201.781 191.103 202.614C191.345 202.957 191.539 203.349 191.151 203.692C191.006 203.79 190.619 203.839 190.522 203.741C189.263 201.879 188.295 203.447 187.181 204.182ZM189.457 205.26C190.28 205.358 190.764 205.897 190.764 206.681C190.764 207.514 190.135 208.004 189.36 207.955C188.585 207.906 188.004 207.367 188.053 206.534C188.053 205.701 188.634 205.309 189.457 205.26Z" fill="#F8B5A8"/>
<path d="M42.2094 452.094C45.6562 449.268 49.4968 446.93 53.3867 444.737C46.7394 434.651 40.0429 424.565 33.8388 414.187C33.3956 413.407 32.9033 413.261 32.0662 413.505C27.1423 414.966 22.2184 416.331 16.9006 417.841C18.7717 419.205 20.692 419.644 22.4646 419.936C28.4717 420.813 31.4753 424.078 33.1987 429.876C35.4145 437.526 38.7135 444.883 42.2094 452.094Z" fill="#EC1C24"/>
<path d="M137.168 462.187C136.128 464.32 135.138 466.499 134.098 468.632C140.633 470.385 147.267 471.617 154 471.996C153.653 470.574 153.604 469.2 153.703 467.731C153.01 465.125 152.911 462.424 152.812 459.771C148.653 458.302 144.495 456.88 140.336 455.411C139.297 457.686 138.257 459.96 137.168 462.187Z" fill="#6E8702"/>
<path d="M355.227 246.445C354.387 246.691 353.894 247.378 353.35 247.966C340.86 260.576 328.32 273.136 315.829 285.745C315.236 286.334 314.792 287.021 314.298 287.659C314.595 289.867 313.607 291.878 313.212 293.988C326.444 280.495 339.675 267.052 352.857 253.56C354.733 251.597 354.733 248.898 355.227 246.445Z" fill="#DD8E03"/>
<path d="M313.193 293.155C313.583 291.023 314.556 288.989 314.264 286.757C314.167 285.021 313.777 284.624 312.22 285.864C308.909 288.543 305.404 291.072 301.51 294.048C301.51 291.519 301.559 289.584 301.51 287.65C301.51 286.856 301.851 285.666 300.926 285.468C299.855 285.22 299.709 286.559 299.368 287.352C298.054 290.626 296.788 293.949 295.522 297.222C295.522 297.47 295.522 297.768 295.522 298.016C297.372 300.744 299.173 303.422 301.023 306.15C304.333 302.579 307.936 299.256 310.954 295.387C311.538 294.494 312.414 293.85 313.193 293.155Z" fill="#F8B5A8"/>
<path d="M88.7671 487.475C88.362 481.847 86.6909 476.419 85.6781 470.89C84.5133 474.078 83.3486 477.265 82.1332 480.453C84.3108 482.893 86.0832 485.582 88.7671 487.475Z" fill="#F6A7A1"/>
<path d="M219.485 172.367C219.085 172.662 218.736 172.907 218.437 173.152C214.993 176.195 211.549 179.237 208.155 182.329C207.656 182.82 206.458 183.31 207.456 184.243C208.255 185.028 208.754 183.997 209.253 183.556C212.697 180.513 216.141 177.471 219.585 174.428C219.984 174.085 220.583 173.692 220.233 173.005C220.084 172.76 219.784 172.613 219.485 172.367Z" fill="#FAA61A"/>
<path d="M206.764 166.839C206.086 166.891 206.086 167.36 205.93 167.724C204.211 171.523 202.543 175.269 200.824 179.068C200.615 179.537 199.99 180.213 200.98 180.525C201.658 180.786 202.179 180.421 202.439 179.797C204.106 175.998 205.774 172.199 207.389 168.452C207.754 167.672 207.441 167.151 206.764 166.839Z" fill="#FAA61A"/>
<path d="M212.599 193.716C212.701 194.413 213.158 194.598 213.818 194.413C216.816 193.484 219.864 192.602 222.861 191.673C223.471 191.487 223.827 191.023 223.573 190.42C223.369 190.002 222.912 190.002 222.506 190.141C219.458 191.023 216.46 191.905 213.412 192.787C212.904 192.927 212.599 193.159 212.599 193.716Z" fill="#FAA61A"/>
<path d="M189.107 194.609C190.596 195.175 191.603 196.512 192.698 197.797C192.391 194.043 190.99 191.061 188.275 188.952C188.538 190.855 189.37 192.603 189.107 194.609Z" fill="#C41627"/>
<path d="M187.169 227.179C186.2 226.162 185.026 226.671 183.852 226.671C184.312 228.145 186.047 227.687 186.608 228.755C187.169 228.348 187.016 227.687 187.169 227.179Z" fill="#F28491"/>
<path d="M137.515 462.045C138.604 459.72 139.643 457.394 140.732 455.019C131.97 451.061 123.108 447.251 114.643 442.699C108.85 439.582 103.058 436.465 97.2659 433.299C96.2758 436.416 95.2856 439.533 94.2955 442.65C100.632 446.262 106.87 450.072 113.553 453.04C121.375 456.553 129.197 459.967 137.515 462.045Z" fill="#F6A7A1"/>
<path d="M203.705 471.54C203.705 471.398 203.754 471.21 203.754 471.068C198.518 470.313 193.281 469.605 188.045 468.755C176.07 466.82 164.337 463.752 152.894 459.834C152.991 462.524 153.137 465.168 153.767 467.764C159.391 468.614 164.967 469.558 170.591 470.313C174.567 470.832 178.542 471.304 182.518 471.54C189.597 471.918 196.675 472.342 203.705 471.54Z" fill="#F6A7A1"/>
<path d="M249.263 302.833C263.026 302.446 276.741 302.115 290.504 301.729C292.32 300.846 293.61 298.914 295.522 298.196C295.522 297.92 295.522 297.589 295.522 297.313C279.322 297.202 263.122 298.251 246.874 297.865C247.447 299.631 248.26 301.287 249.263 302.833Z" fill="#DD8E03"/>
<path d="M262.353 321.629C261.247 322.206 260.142 322.831 259.036 323.408C259.589 325.186 260.695 326.724 262.353 328.263C262.353 326.1 262.353 323.888 262.353 321.629Z" fill="#6E8702"/>
<path d="M209.282 296.856C209.13 296.497 209.13 295.958 208.218 296.317C208.066 296.317 208.37 296.946 208.522 297.305C208.826 297.125 209.13 297.035 209.282 296.856Z" fill="#FEFEFE"/>
<path d="M277.832 286.248C286.693 284.915 295.169 282.677 302.633 277.487C303.308 277.011 303.982 276.677 304.367 275.915C300.852 275.534 298.107 273.201 294.88 272.106C293.917 271.773 293.339 271.677 292.761 272.677C289.486 278.153 284.718 282.01 279.18 285.01C278.602 285.344 277.976 285.534 277.832 286.248Z" fill="#B3B8BC"/>
<path d="M181.555 215.487C182.627 215.006 183.002 214.15 182.573 213.08C182.091 211.85 180.966 212.224 180.002 212.224C179.198 213.882 178.876 215.38 181.555 215.487Z" fill="#FEFEFE"/>
<path d="M187.291 204.431C188.434 203.558 189.428 201.697 190.72 203.849C190.77 203.965 191.217 203.907 191.366 203.791C191.763 203.384 191.565 202.919 191.316 202.511C190.72 201.523 189.925 200.825 188.832 201.232C187.689 201.755 186.844 202.57 187.291 204.431Z" fill="#595755"/>
<path d="M189.421 205.537C188.751 205.577 188.317 205.898 188.277 206.581C188.238 207.263 188.711 207.705 189.342 207.745C190.013 207.785 190.486 207.384 190.486 206.701C190.486 206.018 190.092 205.617 189.421 205.537Z" fill="#3E403E"/>
<path d="M180.535 208.854C180.535 209.572 180.921 209.904 181.636 209.959C181.691 209.24 181.306 208.854 180.535 208.854Z" fill="#F28491"/>
<path d="M179.43 208.853C179.184 208.034 178.857 207.67 178.406 207.761C178.365 207.761 178.324 208.034 178.324 208.125C178.57 209.126 179.02 208.762 179.43 208.853C179.389 208.853 179.43 208.853 179.43 208.853Z" fill="#F28491"/>
<g clip-path="url(#clip0)">
<path d="M76.9341 111.625C76.9341 111.625 76.4774 102.739 85.2644 100.624C94.0513 98.5104 97.983 106.758 92.9143 115.467C88.0502 124.175 80.7385 134.342 80.7385 134.342C80.7385 134.342 68.2289 129.035 60.6176 121.427C52.8017 113.821 53.3691 105.136 59.6964 102.208C66.0237 99.2804 71.1665 104.421 73.6372 107.301C76.1079 110.182 76.9341 111.625 76.9341 111.625Z" fill="#004A76"/>
<path d="M61.3566 106.54C61.3566 106.54 57.8894 108.625 58.3174 112.137C58.5408 115.65 61.6154 116.667 63.0421 115.626C64.4688 114.585 62.8298 114.18 63.8362 111.074C65.0484 108.173 65.8602 106.929 64.6259 105.695C63.5963 104.46 61.3566 106.54 61.3566 106.54Z" fill="white"/>
</g>
<path d="M34.6686 161.027C34.6686 161.027 29.6327 150.434 40.1304 141.527C50.6281 132.62 59.914 139.933 57.5968 154.276C55.548 168.471 51.0101 186.217 51.0101 186.217C51.0101 186.217 31.9134 188.675 18.109 184.79C4.0361 181.052 0.447113 169.971 7.30472 161.83C14.1623 153.689 23.4896 156.314 28.176 158.081C32.8624 159.847 34.6686 161.027 34.6686 161.027Z" fill="#EC1C24"/>
<g clip-path="url(#clip1)">
<path d="M412.486 109.773C408.954 109.591 405.365 108.931 402.062 107.632C400.039 106.906 398.921 109.703 400.84 110.562C401.613 110.954 403.503 111.575 403.856 112.501C404.047 113.083 402.404 113.522 402.061 113.684C399.388 114.609 396.037 113.921 393.689 112.508C387.686 108.869 393.206 99.3725 396.28 95.7362C399.04 92.5008 403.079 89.8385 406.888 88.293C408.74 87.587 410.964 86.9575 412.883 87.8172C415.174 88.7532 415.87 92.5432 412.596 91.4827C410.706 90.8618 409.244 93.8207 411.373 94.4131C414.647 95.4735 418.38 94.3003 418.4 90.4246C418.448 86.7876 414.526 84.3524 411.366 84.2466C404.808 84.0636 397.342 89.4361 393.322 94.2749C390.275 98.1498 387.954 103.027 387.839 108.125C387.856 113.327 392.046 115.973 396.542 117.129C399.788 117.951 403.95 117.331 406.318 114.869C407.187 114.039 407.34 113.294 407.12 112.473C408.848 112.75 410.442 112.923 412.037 113.095C414.079 112.971 414.557 109.888 412.486 109.773Z" fill="#004A76"/>
<path d="M429.457 117.061C428.361 112.956 424.113 112.859 420.857 113.975C418.871 114.576 420.092 117.698 422.078 117.097C423.482 116.687 426.078 116.134 426.44 118.148C426.746 119.685 425.752 121.499 424.54 122.491C421.141 125.44 415.577 120.417 419.081 117.335C420.608 115.942 418.728 113.383 417.067 114.671C414.222 117.19 414.04 120.722 416.215 123.73C418.391 126.737 422.83 127.416 425.971 125.346C428.32 123.733 430.201 120.24 429.457 117.061Z" fill="#004A76"/>
<path d="M443.899 123.441C443.966 121.98 442.687 121.407 441.627 121.655C441.57 121.178 441.513 120.701 441.112 120.386C438.678 118.256 435.022 119.057 432.835 121.013C430.334 123.371 430.314 127.246 432.089 129.939C433.701 132.288 437.043 131.887 439.076 130.676C441.797 129.139 443.764 126.362 443.899 123.441ZM435.153 128.24C433.636 127.696 434.009 124.746 434.505 123.84C435.422 122.398 437.646 121.769 438.983 122.819C439.517 123.239 440.128 123.287 440.577 122.991C440.385 125.435 437.816 129.253 435.153 128.24Z" fill="#004A76"/>
<path d="M455.14 137.467C459.201 124.877 466.515 114.196 474.203 103.593C475.329 101.884 472.791 99.8885 471.664 101.597C466.154 109.156 460.806 117.059 456.604 125.43C455.745 124.322 454.781 123.348 453.292 123.042C451.297 122.555 449.34 123.394 447.65 124.444C444.958 126.219 441.52 130.867 444.889 133.732C447.027 135.412 450.339 134.774 452.936 134.221C452.65 134.86 452.497 135.605 452.105 136.378C451.484 138.268 454.414 139.49 455.14 137.467ZM453.118 130.689C451.715 131.099 450.178 131.404 448.612 131.47L448.001 131.422C447.763 131.451 447.629 131.346 447.496 131.241L447.123 131.164L446.99 131.059L446.856 130.954L446.828 130.716L446.904 130.343L447.009 130.21C447.114 130.076 447.085 129.837 447.191 129.704L447.296 129.57L447.401 129.437C447.611 129.169 447.926 128.769 448.136 128.501L448.451 128.1L448.9 127.805C449.11 127.537 449.559 127.242 449.902 127.079L450.246 126.917C450.485 126.889 450.695 126.621 450.933 126.593C451.172 126.564 451.277 126.431 451.516 126.402L451.754 126.373L452.232 126.316L452.47 126.288L452.604 126.393L452.976 126.469L453.348 126.546L453.482 126.651L453.749 126.861L453.883 126.966C454.017 127.071 454.15 127.176 454.179 127.415L454.312 127.52L454.341 127.758C454.637 128.207 454.694 128.684 454.885 129.267L454.913 129.505C454.732 130.011 454.445 130.651 454.264 131.157C453.729 130.736 453.357 130.66 453.118 130.689Z" fill="#004A76"/>
<path d="M395.479 132.507C386.029 129.402 376.58 126.298 366.977 123.937C364.982 123.45 364.504 126.533 366.527 127.259C371.023 128.415 375.414 129.705 379.805 130.995C376.959 136.54 373.874 142.115 370.522 147.479C369.395 149.187 371.934 151.183 373.061 149.474C376.623 143.843 379.784 137.897 382.84 132.084C386.62 133.326 390.4 134.568 394.18 135.81C396.28 136.163 397.503 133.233 395.479 132.507Z" fill="#004A76"/>
<path d="M384.162 153.228C385.174 150.565 386.721 148.322 388.135 145.975C389.262 144.266 386.723 142.27 385.596 143.979C383.839 146.489 382.216 149.104 381.098 151.901C380.372 153.924 383.436 155.252 384.162 153.228Z" fill="#004A76"/>
<path d="M393.387 139.294C393.673 138.654 393.721 138.044 393.292 137.49C392.729 136.831 391.612 136.602 390.953 137.165C390.504 137.46 390.323 137.966 390.141 138.472C389.855 139.112 389.807 139.723 390.236 140.276C390.799 140.935 391.916 141.165 392.575 140.602C392.89 140.201 393.205 139.8 393.387 139.294Z" fill="#004A76"/>
<path d="M420.616 163.509C418.84 163.843 415.842 164.081 414.688 162.525C414.392 162.076 414.201 161.493 414.354 160.749C418.105 161.752 422.048 160.312 424.464 157.239C424.884 156.704 424.904 155.854 424.474 155.301C420.848 150.288 414.738 152.835 412.15 157.503C411.443 158.677 411.109 159.927 411.147 161.254C410.908 161.283 410.908 161.283 410.669 161.311C409.982 161.636 409.266 161.721 408.55 161.807C409.133 158.59 410.699 155.498 410.538 152.128C410.396 147.909 406.529 148.977 403.808 150.513C403.007 146.857 398.186 148.039 395.542 149.203C395.752 148.936 395.828 148.564 396.038 148.296C397.032 146.483 393.968 145.155 393.108 147.074C391.15 150.939 389.192 154.805 387.234 158.671C386.241 160.484 389.305 161.812 390.165 159.893C391.76 157.039 393.116 154.214 394.472 151.389C394.692 152.21 395.493 152.84 396.524 152.354C397.794 151.838 399.169 151.19 400.524 151.39C400.524 151.39 400.629 151.257 400.553 151.629C400.61 152.106 400.534 152.479 400.486 153.09C400.161 155.428 398.747 157.776 397.277 159.647C396.15 161.355 398.689 163.351 399.815 161.643C401.257 159.533 402.671 157.185 403.34 154.684C404.237 154.093 404.896 153.53 405.927 153.043C406.271 152.881 406.614 152.719 406.853 152.69L407.33 152.633C407.387 153.11 406.977 154.733 407.034 155.21C406.393 157.95 405.381 160.613 405.113 163.429C404.989 164.412 405.552 165.071 406.43 165.329C408.32 165.95 410.095 165.616 411.814 164.805L412.158 164.643C414.066 167.441 418.285 167.298 421.149 166.955C423.03 166.488 422.764 163.252 420.616 163.509ZM420.846 156.34C419.529 157.466 417.543 158.067 415.815 157.79C417.076 156.187 419.138 155.213 420.846 156.34Z" fill="#004A76"/>
<path d="M436.139 156.688C433.658 155.169 428.866 153.564 427.385 157.373C426.736 159.024 427.814 160.953 428.701 162.299C429.589 163.645 430.629 164.247 430.352 165.975C429.941 167.597 429.435 167.416 427.946 167.11C427.202 166.957 426.562 166.67 425.789 166.279C424.109 165.391 422.991 168.187 424.776 168.942C427.602 170.298 432.069 171.216 433.817 167.617C434.495 166.205 434.218 164.906 433.57 163.532C432.978 162.634 432.043 161.899 431.556 160.868C430.382 160.161 430.611 159.044 432.063 158.023C432.941 158.281 433.714 158.673 434.487 159.064C435.928 159.981 437.714 157.71 436.139 156.688Z" fill="#004A76"/>
</g>
<g clip-path="url(#clip2)">
<path d="M194.75 46.7332C194.473 45.5875 194.397 44.2717 194.121 43.1261C194.029 41.996 193.938 40.8659 193.661 39.7203C193.522 39.1475 192.998 38.7292 192.442 38.6825C192.087 38.4656 191.532 38.4188 190.945 38.7436C190.744 38.9137 190.558 38.8982 190.358 39.0683C189.771 39.3931 189.523 40.1205 189.661 40.6933C190.706 46.0189 181.305 44.667 177.045 44.3086C176.368 41.2588 176.248 38.2556 175.772 35.0356C177.317 34.4173 179.988 33.7067 180.218 35.4096C180.448 37.1124 183.274 36.7889 183.229 35.1016C183.03 33.0272 182.647 30.9373 182.448 28.8629C182.464 28.6771 182.479 28.4914 182.325 28.1043L182.356 27.7328C182.127 26.0299 179.301 26.3535 179.346 28.0408C179.299 28.598 179.453 28.9851 179.406 29.5423C179.375 29.9138 179.359 30.0996 179.158 30.2697C178.756 30.6101 177.645 30.5166 177.074 30.6556C176.317 30.779 175.592 30.5309 175.02 30.6699C174.79 28.967 174.561 27.2642 174.331 25.5613C174.101 23.8584 174.056 22.1711 174.012 20.4838C177.038 19.9901 188.311 16.8229 188.646 21.7147C188.737 22.8448 189.447 23.2786 190.574 23.1863C190.945 23.2175 191.331 23.0629 191.717 22.9083C192.489 22.5991 192.922 21.8873 192.799 21.1287C192.201 17.1501 193.025 11.7946 187.342 12.8132C184.501 13.3224 181.814 14.2188 178.803 14.5267C175.036 14.9581 170.682 15.7142 167.008 15.0311C166.452 14.9843 166.066 15.1389 165.664 15.4793C164.136 15.9119 164.843 18.5902 166.742 18.1888L166.928 18.2044C166.912 18.3901 166.896 18.5759 166.881 18.7616C167.644 27.4306 170.121 35.6827 171.07 44.3673L170.869 44.5374C169.494 45.3571 168.675 46.2235 168.921 47.7406C168.889 48.1121 168.858 48.4836 168.827 48.8551C168.764 49.5981 169.443 50.4034 170.369 50.4813C174.121 50.2357 177.873 49.9901 181.624 49.7445C183.508 49.5288 185.376 49.4989 187.244 49.4689C189.297 49.4546 191.413 48.6972 193.467 48.6829C194.408 48.575 195.042 47.6931 194.75 46.7332Z" fill="#EC1C24"/>
<path d="M216.584 42.2096C215.133 41.7135 215.075 37.9674 214.799 36.8217C214.415 34.7318 213.444 32.9665 211.902 31.3403C208.802 28.2737 204.57 29.7884 201.742 32.3564C201.604 31.7836 201.28 31.1952 201.158 30.4366C200.834 29.8482 200.109 29.6001 199.537 29.7392C198.395 30.0172 197.252 30.2952 196.109 30.5732C194.21 30.9746 194.902 33.8387 196.801 33.4373L196.971 33.6386L197.31 34.0413C198.142 35.2337 197.584 37.4315 197.475 38.7317C197.444 39.1032 198.089 42.5245 197.888 42.6947C196.946 42.8026 196.529 43.3286 196.265 44.2418C196.203 44.9848 196.326 45.7434 196.448 46.5019C196.587 47.0747 197.281 47.6943 197.837 47.7411C200.477 47.402 203.101 47.2486 205.742 46.9095C206.684 46.8016 206.947 45.8885 206.824 45.1299C206.456 42.8542 203.615 43.3635 203.2 41.645L203.03 41.4437C202.923 40.4994 203.001 39.5706 203.079 38.6419C203.095 38.4561 203.11 38.2704 203.126 38.0847C203.468 36.2428 204.55 34.4632 206.65 33.8916C209.909 32.8563 211.23 39.3275 211.705 42.5475L211.52 42.5319C210.949 42.6709 210.547 43.0113 210.5 43.5685C210.453 44.1257 210.406 44.683 210.359 45.2402C210.281 46.169 211.33 47.0054 212.288 46.7118C214.388 46.1403 217.506 46.7766 217.771 43.6189C217.818 43.0617 217.309 42.4577 216.584 42.2096Z" fill="#EC1C24"/>
<path d="M238.572 53.5996C237.414 54.0633 236.07 54.5115 234.541 54.9441C234.573 54.5726 234.604 54.2011 234.45 53.814C235.74 45.1306 237.014 36.633 238.304 27.9496C238.383 27.0209 237.905 26.0454 236.793 25.9519C236.238 25.9052 235.666 26.0442 235.095 26.1832C234.338 26.3066 234.091 27.034 234.044 27.5913C233.997 28.1485 233.966 28.52 233.919 29.0772C232.207 27.2497 229.274 26.6289 226.741 27.9123C222.864 29.6439 221.394 33.8226 221.066 37.7233C220.769 41.2525 222.108 45.2934 225.75 46.3481C228.297 47.1234 230.428 46.1803 232.421 44.6644C232.093 48.5651 231.379 52.6204 230.125 56.4432L229.738 56.5978C224.38 58.2047 219.467 61.1586 216.992 66.1882C214.95 70.5059 216.905 76.0951 221.891 76.7015C226.507 77.2768 230.508 74.0592 232.164 69.8961C233.588 66.2747 233.747 62.1727 234.26 58.2875C236.175 57.7004 238.09 57.1132 240.021 56.3403C241.766 55.5518 240.317 52.8111 238.572 53.5996ZM230.787 41.9082C229.149 43.641 226.339 43.7788 224.998 41.9824C226.232 42.8344 228.1 42.8045 229.83 42.2017C230.401 42.0627 230.803 41.7224 231.39 41.3977C230.988 41.738 230.787 41.9082 230.787 41.9082ZM231.395 36.9086C230.883 38.5491 226.728 41.3796 226.02 38.7013C225.574 37.3543 226.069 35.8995 226.92 34.6616L227.306 34.507C229.685 32.8365 232.432 33.4417 231.395 36.9086ZM221.157 69.9056C220.17 68.3261 221.501 65.8191 222.367 64.3955C224.083 61.7339 227.743 60.3582 230.616 59.4775L230.801 59.4931C230.303 63.1924 229.265 66.6593 226.993 69.2741C225.788 70.2951 222.483 71.8877 221.157 69.9056Z" fill="#EC1C24"/>
<path d="M256.585 41.272C256.001 39.3522 255.664 36.705 252.869 36.657C251.928 36.7649 251.124 37.4456 251.401 38.5912C251.678 39.7368 249.238 39.9058 247 39.9046C246.678 37.0716 246.156 34.4088 245.835 31.5759C245.728 30.6315 245.636 29.5015 245.529 28.5572C245.208 25.7242 245.257 22.9224 245.321 19.9349L246.078 19.8115C247.977 19.41 247.285 16.5459 245.386 16.9473C243.487 17.3488 241.387 17.9204 239.333 17.9347C237.465 17.9647 237.401 20.9522 239.269 20.9223C239.639 20.9534 240.025 20.7988 240.396 20.83C241.257 23.8954 241.733 27.1155 242.038 30.1342C242.114 31.45 243.141 39.2059 241.241 39.6073C240.67 39.7463 240.052 40.4425 240.005 40.9998C240.128 41.7583 240.081 42.3156 240.204 43.0742C240.342 43.647 241.036 44.2665 241.592 44.3133C246.069 44.3157 250.423 43.5596 254.731 43.3608C256.059 43.0983 256.878 42.2319 256.585 41.272Z" fill="#EC1C24"/>
<path d="M272.613 23.7267C271.671 23.8346 270.729 23.9424 269.771 24.236C269.2 24.375 268.582 25.0712 268.535 25.6285C268.473 26.3715 268.595 27.1301 268.718 27.8886L268.548 27.6873C267.515 26.6651 266.25 26.1845 264.536 26.6015C259.286 26.9082 255.713 33.9031 257.699 39.1208C258.777 41.8303 262.034 43.0395 264.752 41.7717C266.296 41.1534 267.703 39.9622 268.568 38.5385C268.676 39.4829 268.952 40.6285 269.059 41.5728C269.198 42.1457 269.537 42.5483 270.093 42.5951C270.463 42.6262 270.818 42.8431 271.189 42.8743L271.559 42.9055C272.47 43.1691 273.612 42.8911 273.722 41.5909C273.789 36.3588 272.76 30.8475 273.954 25.5231C274.202 24.7957 273.74 23.6345 272.613 23.7267ZM265.453 35.6576C265.189 36.5708 263.83 37.2047 262.92 36.941C261.268 36.6151 261.518 33.6431 262.168 32.5754C262.368 32.4052 262.384 32.2195 262.4 32.0337C262.601 31.8635 262.817 31.5076 263.018 31.3375C263.219 31.1673 263.42 30.9971 263.62 30.827C263.821 30.6568 264.022 30.4866 264.192 30.688C265.859 30.8282 265.948 34.2028 265.453 35.6576Z" fill="#EC1C24"/>
<path d="M289.314 27.002C288.142 25.407 286.522 24.7095 284.622 25.111C282.908 25.528 281.518 26.5334 280.467 27.9415C280.359 26.9971 280.438 26.0684 280.516 25.1397C280.641 23.6537 278.989 23.3277 278.186 24.0084C277.259 23.9305 276.085 24.58 276.347 25.9114C276.699 28.3728 276.126 30.7564 276.123 33.0009C276.09 35.617 277.014 37.9394 276.425 40.5087C276.146 41.6076 276.994 42.6143 278.322 42.3518C278.893 42.2128 279.65 42.0894 280.406 41.966C280.978 41.827 281.596 41.1307 281.643 40.5735C281.214 36.7962 281.944 32.5552 285.111 30.3898C288.262 28.4101 287.171 39.1679 287.262 40.2979C287.37 41.2423 288.218 42.2489 289.191 41.7696C289.762 41.6306 290.148 41.476 290.72 41.337C291.291 41.198 291.894 40.6875 291.956 39.9445C291.389 35.5944 291.811 30.5792 289.314 27.002Z" fill="#EC1C24"/>
<path d="M312.047 33.9651C311.864 31.705 311.697 29.2591 311.514 26.999C311.377 24.1816 311.04 21.5344 310.904 18.717C310.813 17.587 310.706 16.6427 310.799 15.5282C310.831 15.1567 310.862 14.7852 310.893 14.4137L310.909 14.2279C311.558 13.1602 310.201 11.5496 309.027 12.1991C307.947 11.7341 306.572 12.5538 306.833 13.8852C306.956 14.6437 307.079 15.4023 307.202 16.1609C306.983 18.7613 307.135 21.393 307.302 23.8388C307.208 24.9533 307.115 26.0678 307.021 27.1823L307.005 27.368C305.325 25.169 302.16 25.0899 299.457 26.172C295.966 27.749 294.235 30.5963 293.922 34.3112C293.656 37.4689 295.011 41.3241 298.33 41.7903C301.834 42.2721 304.615 40.2613 306.532 37.4296C306.407 38.9155 306.298 40.2158 306.173 41.7017C306.095 42.6305 307.144 43.467 308.101 43.1734C308.672 43.0344 309.445 42.7252 310 42.7719C310.386 42.6173 310.788 42.277 311.005 41.9211C311.391 41.7665 311.793 41.4262 312.025 40.8845C312.413 38.4854 312.045 36.2097 312.047 33.9651ZM303.448 34.1771C302.35 36.1424 300.635 36.5595 299.31 34.5773L298.955 34.3604C299.25 33.0758 299.729 31.8067 300.147 31.2806C301.167 30.244 303.035 30.2141 303.867 31.4065C304.36 32.1962 303.896 33.2796 303.448 34.1771Z" fill="#EC1C24"/>
</g>
<defs>
<clipPath id="clip0">
<rect width="40.3078" height="34.1066" fill="white" transform="translate(54.7771 100.58) rotate(-0.30626)"/>
</clipPath>
<clipPath id="clip1">
<rect width="80.5618" height="101.467" fill="white" transform="translate(418.093 57.5386) rotate(38.1715)"/>
</clipPath>
<clipPath id="clip2">
<rect width="148.718" height="71.7652" fill="white" transform="translate(166.22) rotate(4.80797)"/>
</clipPath>
</defs>
</svg>
