<svg width="56" height="71" viewBox="0 0 56 71" fill="none" xmlns="http://www.w3.org/2000/svg">
<g clip-path="url(#clip0)">
<path d="M10.7359 27.5306C22.6323 24.0531 33.6582 32.1673 45.5546 29.849C53.9691 28.1102 58.0312 16.8082 53.6789 9.56326C41.2022 -11.5918 15.6685 8.98367 6.09342 21.7347C4.35248 24.0531 6.38357 26.951 8.41466 26.951C8.99497 27.5306 9.86544 27.5306 10.7359 27.5306Z" fill="#F5A300"/>
<path d="M4.93262 23.1838C4.93262 22.6042 5.22277 22.0246 5.51293 21.445C12.4767 12.4613 27.2746 -0.579475 40.0414 0.000116818C45.8445 0.289913 50.487 3.47767 53.9689 8.98379C55.4197 11.592 56 14.4899 55.7098 17.6777C55.1295 22.894 51.6476 28.4001 45.5544 29.5593C39.7513 30.7185 34.2383 29.5593 28.7254 28.1103C22.9223 27.2409 17.1191 26.0818 11.0259 27.8205C10.1554 28.1103 8.99479 27.8205 8.41448 27.2409C7.25386 27.2409 6.67355 26.6613 5.80308 26.0818C5.22277 25.2124 4.93262 24.0532 4.93262 23.1838Z" fill="#F5A300"/>
<path d="M47.0055 14.4897C48.1661 11.0122 44.9744 7.82443 42.0729 6.66524C38.591 5.21626 33.9485 6.08565 31.6273 9.5632C31.0469 10.7224 32.2076 11.5918 33.3682 11.5918C36.2697 14.1999 45.2646 19.4163 47.0055 14.4897Z" fill="white"/>
<path d="M0 41.1509C0 41.1509 21.1813 41.7305 33.0777 48.3958C44.6839 55.0611 48.456 64.6243 40.6218 69.8407C32.7876 75.057 18.57 61.7264 15.3782 57.6692C11.6062 53.6121 0 41.1509 0 41.1509Z" fill="#F5A300"/>
<path d="M32.4972 63.7549C33.3677 63.7549 34.2381 62.8855 33.948 61.7263V61.4365C33.948 60.8569 33.6578 60.5671 33.0775 60.2773C31.3366 58.5386 28.7252 58.5386 26.4039 58.5386C25.5335 58.5386 24.663 59.6978 24.9532 60.5671C24.9532 61.1467 25.5335 61.7263 25.8236 61.7263C26.4039 62.5957 27.2744 63.4651 28.1449 63.7549C29.8858 64.0447 31.0464 63.7549 32.4972 63.7549Z" fill="white"/>
</g>
<defs>
<clipPath id="clip0">
<rect width="56" height="71" fill="white"/>
</clipPath>
</defs>
</svg>
