<svg width="360" height="390" viewBox="0 0 360 390" fill="none" xmlns="http://www.w3.org/2000/svg">
<g clip-path="url(#clip0)">
<path d="M33.5912 -6.29574e-07C36.7437 3.40792 40.8263 5.62823 44.2372 8.6747C44.754 9.13941 45.3741 9.44923 45.8393 9.91394C46.3561 10.4303 47.9064 10.5852 47.0279 11.6179C46.4077 12.3924 45.4775 11.3597 44.8574 10.895C41.1364 8.05508 37.4155 5.16351 33.6946 2.32358C32.8677 1.70396 32.3509 1.0327 32.5059 -0.0516357C32.9194 -6.29574e-07 33.2811 -6.29574e-07 33.5912 -6.29574e-07Z" fill="#E0F1EA"/>
<path d="M173.437 106.265C181.24 131.928 189.044 157.59 196.847 183.253C198.605 188.984 200.258 194.768 201.964 200.499C194.677 200.499 187.442 200.447 180.155 200.447C173.54 200.447 174.315 199.828 171.783 206.231C169.561 211.756 167.907 217.487 165.168 222.805C163.359 223.528 161.447 223.064 159.638 223.219C150.491 223.941 141.344 224.613 132.196 225.336C131.266 225.387 130.129 225.129 129.664 226.162C129.147 227.401 130.336 227.969 131.008 228.692C134.108 231.893 137.209 235.043 140.362 238.244C134.677 241.601 128.94 244.854 123.359 248.417C114.16 254.303 105.426 260.757 97.4159 268.193C96.1239 265.766 94.8319 263.391 93.5916 260.964C93.1265 259.105 92.1963 257.453 91.3694 255.8C91.266 254.096 92.558 253.012 93.2815 251.721C97.4159 244.854 101.447 237.883 104.548 230.396C108.785 220.224 108.785 209.742 107.7 199.105C107.132 193.632 107.028 188.158 108.682 182.788C110.646 183.098 111.731 181.756 112.92 180.516C115.452 177.728 115.452 177.78 112.403 175.921C115.4 171.842 119.328 169.57 124.496 169.673C124.548 170.241 124.599 170.861 124.599 171.429C124.548 172.513 125.013 173.442 126.15 173.132C127.338 172.823 129.457 174.475 129.612 171.738C129.871 171.687 130.129 171.635 130.387 171.635C132.041 171.583 133.747 172.1 133.695 169.26C133.695 166.575 132.403 166.42 130.439 166.575C130.181 166.575 129.922 166.523 129.664 166.523C129.457 163.735 127.338 165.336 126.15 165.129C123.928 164.768 124.858 166.73 124.496 167.762C118.346 167.401 113.902 170.293 110.491 175.095C109.509 175.146 108.63 174.785 107.803 174.32C105.84 173.184 104.289 173.287 102.636 174.991C100.775 176.85 98.5528 178.399 96.5373 180.052C95.7621 179.535 94.9869 179.484 94.1084 179.742C91.8345 180.361 89.5089 180.929 87.1833 181.394C81.2919 182.633 75.5037 184.441 69.5089 185.215C67.2867 174.785 65.4262 164.303 63.7725 153.769C65.1678 152.737 65.1161 151.084 65.6329 149.69C67.1316 145.404 68.527 141.067 69.9223 136.73C69.7156 136.626 69.5606 136.523 69.3539 136.42C66.9766 139.363 64.5993 142.358 62.2738 145.301C51.7311 161.05 41.2402 176.747 30.6975 192.496C30.3875 192.96 29.7673 193.373 30.1291 194.045V193.993C29.6639 193.89 29.6639 194.2 29.6639 194.509C28.0619 196.11 26.6148 197.762 25.6329 200.344C27.1316 199.879 28.2169 199.518 29.3539 199.208C46.6148 194.355 63.8241 189.501 81.0851 184.699C86.1497 183.305 91.266 181.962 96.3823 180.62C97.3125 182.84 98.2944 185.009 99.0696 187.229C99.5864 188.675 100.155 188.416 101.033 187.642C102.791 186.041 104.548 184.441 106.305 182.84C105.116 189.398 105.271 195.955 105.84 202.513C106.46 209.277 106.667 216.041 104.909 222.702C102.067 233.391 96.4857 242.685 90.7492 251.928C90.5942 252.186 90.1807 252.237 89.9223 252.392C84.0309 238.141 79.018 223.528 75.0903 208.606C74.5218 206.54 73.7466 207.263 72.6614 207.831C62.1704 213.098 51.4727 218.003 40.3099 221.721C34.2634 223.735 28.1135 225.284 21.757 225.749C17.1058 226.11 12.713 225.284 8.52698 223.219C6.40812 222.134 5.32285 220.12 4.39262 218.107C1.55024 211.91 0.516647 205.301 0.206569 198.589C-0.723664 175.972 5.83964 155.267 16.5373 135.645C27.2867 115.921 41.4469 98.9329 58.3978 84.1652C60.3616 82.4613 61.1368 82.7711 62.6355 84.6816C75.8655 101.824 100.878 107.608 119.431 97.9002C131.783 91.4458 137.778 79.5697 135.659 65.7831C135.504 64.8537 135.4 63.9243 135.245 62.9948C134.47 58.6058 134.418 58.5542 139.018 58.6058C157.054 58.7091 175.09 58.8124 193.178 58.9156C193.85 58.9156 194.522 58.9673 195.245 59.0189C200.672 60.6196 206.098 61.9105 211.731 62.5817C211.938 62.9432 212.3 63.1497 212.713 62.9948C212.765 62.9948 212.816 62.8915 212.868 62.7883C212.506 62.7366 212.145 62.6334 211.731 62.5817C209.147 60.9294 206.408 59.6902 203.411 58.9156C197.261 56.0757 190.801 54.1136 184.444 51.8416C157.002 41.7728 129.664 32.0138 102.325 22.1514C101.395 21.79 99.9999 21.9449 99.7415 20.4475C100.982 17.7108 101.86 14.8193 102.687 11.9277C103.049 10.9983 103.462 10.4303 104.754 10.5335C137.933 13.4767 170.904 17.8657 202.584 28.9156C213.385 32.685 223.824 37.3322 232.455 45.1291C237.158 49.3632 240.568 54.3201 241.602 60.7745C242.222 64.4922 241.085 67.4871 238.656 70.2237C234.935 74.3545 230.491 77.5559 225.84 80.4991C210.543 90.1032 194.16 97.5387 177.519 104.509C175.917 100.74 173.437 97.5387 171.318 94.1308C170.801 93.253 170.698 91.9105 169.302 91.7556C169.251 91.549 169.147 91.2909 169.095 91.0843C169.044 91.1359 168.94 91.1876 168.889 91.2392C168.992 91.4458 169.147 91.6007 169.251 91.8072C170.181 96.7642 171.938 101.463 173.437 106.265Z" fill="#004A76"/>
<path d="M225.427 345.284C218.915 352.358 212.404 359.432 205.944 366.558C205.065 367.539 204.186 368.107 202.895 367.642C199.535 366.196 196.073 365.009 192.559 363.976C190.853 363.511 190.853 362.685 191.628 361.239C195.608 353.752 199.432 346.213 203.308 338.726C203.876 338.158 204.238 337.487 204.393 336.661C208.683 328.606 213.024 320.551 217.261 312.444C220.776 305.68 224.548 299.122 227.701 292.151C229.561 289.26 231.112 286.265 232.3 283.064C232.352 283.012 232.352 282.909 232.404 282.857C232.352 282.909 232.3 283.012 232.3 283.064C228.993 284.148 226.874 286.936 224.186 288.95C222.843 289.931 220.982 290.551 220.621 292.513C214.626 292.823 208.683 293.184 202.688 293.391C188.476 293.855 174.264 293.391 160.104 292.306C159.639 292.151 159.174 291.945 158.657 291.893C145.685 290.602 132.972 288.227 120.724 283.632C114.884 281.463 109.096 279.088 104.342 274.854C104.29 274.028 104.6 273.408 105.117 272.788C113.489 261.583 123.463 252.031 134.832 243.821C136.951 242.272 139.794 241.497 140.982 238.761C141.758 239.432 142.481 240.103 143.256 240.826C147.029 244.389 150.388 248.365 154.419 251.67C155.453 251.721 156.486 251.876 157.468 251.876C175.711 251.876 193.902 251.824 212.145 251.928C220.982 251.979 219.587 251.36 221.861 245.318C222.843 246.403 224.135 246.506 225.478 246.558C229.768 247.952 234.057 249.294 238.347 250.74C246.047 253.373 253.696 256.213 260.466 260.912C267.494 265.766 269.406 270.775 267.546 279.088C265.272 289.312 260.155 298.193 254.626 306.919C246.667 319.466 237.416 331.084 227.856 342.444C227.597 342.754 227.339 343.115 227.081 343.477C226.512 343.993 225.944 344.613 225.427 345.284Z" fill="#F4A200"/>
<path d="M225.426 246.403C224.082 246.403 222.739 246.299 221.809 245.164C224.031 237.263 226.201 229.363 228.527 221.463C230.077 216.248 231.214 210.878 233.333 205.766C239.793 204.423 246.305 203.184 252.92 202.771C256.124 202.565 259.276 202.616 262.429 203.133C266.408 203.752 269.612 205.508 271.989 208.967C282.325 224.045 291.473 239.845 300.827 255.542C308.579 268.606 316.124 281.773 323.721 294.837C324.289 295.818 325.323 296.799 323.876 297.883C321.343 299.587 318.966 301.446 316.744 303.563C316.382 303.769 315.865 303.873 315.659 304.182C314.263 305.783 313.385 305.06 312.248 303.769C303.049 293.236 293.798 282.754 284.599 272.272C275.607 262.048 266.563 251.773 257.571 241.549C256.951 240.878 256.486 240.207 255.245 240.465C245.271 242.53 235.349 244.441 225.426 246.403Z" fill="#F4A200"/>
<path d="M233.281 205.818C231.162 210.878 230.025 216.248 228.475 221.515C226.149 229.415 223.979 237.315 221.756 245.215C219.482 251.257 220.878 251.876 212.041 251.825C193.798 251.721 175.606 251.825 157.364 251.773C156.33 251.773 155.296 251.618 154.314 251.566C155.968 247.436 157.674 243.356 159.172 239.174C161.136 233.701 163.668 228.485 165.115 222.806C167.855 217.487 169.56 211.756 171.73 206.231C174.263 199.828 173.488 200.448 180.103 200.448C187.389 200.448 194.625 200.499 201.911 200.499C210.645 200.499 219.327 200.499 228.061 200.551C233.333 200.499 233.333 200.499 233.281 205.818ZM206.459 226.007C206.459 222.238 203.927 219.604 200.258 219.604C196.95 219.604 194.004 222.702 194.056 226.11C194.056 229.518 196.847 232.461 200.154 232.461C203.255 232.461 206.924 230.344 206.459 226.007Z" fill="#B3B8BC"/>
<path d="M72.8686 35.5766C66.5637 35.2668 62.9462 31.4975 63.9797 26.334C64.8583 21.9966 68.5276 20.1894 72.5069 22.0482C72.5586 22.0999 72.6619 22.0999 72.7136 22.1515C75.9694 25.0431 79.3803 26.6954 84.0314 25.9725C86.7188 25.5594 88.786 28.0379 90.233 30.3615C90.9048 31.4458 91.4216 32.2204 92.972 32.0655C94.9358 31.8589 96.1245 33.1498 96.9513 34.8021C97.8816 36.661 98.3467 38.6747 98.7084 40.6885C98.5534 43.5801 99.742 45.852 102.016 47.556C102.584 49.5181 104.238 50.7574 105.427 52.2548C107.132 54.4751 108.476 56.9536 109.975 59.3288C110.285 60.0517 110.543 60.7746 110.853 61.4458C112.455 64.957 114.006 68.6231 113.954 72.4957C113.902 77.9691 111.06 82.1515 106.15 84.5784C101.137 87.1085 95.8144 87.9863 90.6464 85.0431C85.7369 82.2548 84.6516 77.4527 84.6516 72.2376C86.9772 70.4303 88.9927 68.3133 90.0263 65.525C90.4914 64.2858 90.9565 64.0276 92.2485 64.4407C94.9358 65.3185 97.6232 65.2152 100.311 64.4923C101.034 64.2858 101.964 64.1825 102.119 63.3047C102.274 62.4269 101.499 61.9105 100.931 61.4458C99.0702 60.1033 97.2097 58.7608 95.0392 57.883C98.45 55.8176 98.5017 48.7952 95.7627 44.9742C93.6438 41.9278 91.68 38.778 90.388 35.3701C89.5095 33.1498 88.3725 32.84 86.2536 33.3047C81.8092 34.1309 77.3131 34.8021 72.8686 35.5766Z" fill="#EC1C24"/>
<path d="M84.651 72.1859C84.651 77.401 85.7362 82.2031 90.6458 84.9914C95.8138 87.9346 101.137 87.0568 106.15 84.5266C111.059 82.0998 113.902 77.9174 113.953 72.444C114.005 68.5714 112.403 64.9569 110.853 61.3941C110.542 60.6712 110.284 60 109.974 59.2771C114.005 58.9673 117.984 58.7091 122.015 58.3476C125.633 57.9862 126.15 58.2444 127.028 61.7039C130.697 76.7297 122.325 90.1549 106.615 93.7177C92.3512 96.9707 80.6716 92.0137 71.3176 81.222C67.3383 76.6781 67.545 76.3683 72.6096 73.1669C75.7621 71.1531 78.8629 68.9328 82.5838 67.9001C82.6355 68.9328 82.7388 69.9655 82.6355 70.9466C82.3771 73.1153 83.2039 73.1669 84.651 72.1859Z" fill="#F9B6A8"/>
<path d="M144.186 346.42C144.341 349.053 144.548 351.738 144.6 354.372C144.6 355.817 145.065 356.334 146.563 356.282C150.181 356.179 153.85 356.231 157.313 357.212C161.499 358.399 165.633 359.38 169.923 360.31C174.987 361.394 177.675 365.628 176.693 369.914C176.072 372.599 174.315 374.303 171.783 374.458C169.458 374.613 167.545 373.838 166.512 371.566C165.633 369.501 166.667 366.661 168.889 365.06C169.613 364.544 170.439 364.079 171.421 363.511C168.321 361.033 164.755 360.465 161.602 361.756C155.607 364.131 149.509 364.75 143.256 365.112C142.326 365.163 141.189 364.75 140.517 365.886C145.478 367.28 146.874 368.623 146.77 371.928C146.667 375.026 144.6 377.711 141.757 378.33C138.915 378.95 135.452 377.143 134.16 374.251C132.713 371.153 133.747 368.571 137.881 365.215C133.902 364.854 129.974 364.905 126.512 363.253C124.548 362.324 122.739 362.22 120.827 362.582C116.589 363.305 115.607 365.783 117.985 369.294C119.483 371.515 119.277 373.425 117.416 374.922C115.504 376.42 113.075 376.162 111.421 374.303C109.251 371.876 109.458 368.055 111.886 365.37C113.954 363.098 116.589 361.962 119.535 361.446C122.119 360.981 124.6 360.516 127.029 359.225C130.388 357.418 134.264 356.953 138.036 356.799C140.724 356.695 141.447 355.766 141.034 353.287C140.465 349.983 140.879 346.626 140.155 343.322C140.155 342.754 140.414 342.031 140.207 341.618C139.07 339.501 140.414 338.881 142.016 338.313C142.584 338.107 143.101 337.9 143.669 337.694C143.876 339.604 144.083 341.463 144.238 343.373C144.135 344.355 144.135 345.387 144.186 346.42Z" fill="#3A3B39"/>
<path d="M72.8677 35.5766C77.3122 34.8021 81.8083 34.1308 86.2527 33.253C88.3716 32.8399 89.5086 33.0981 90.3871 35.3184C91.7308 38.7263 93.6429 41.9277 95.7618 44.9226C98.5008 48.7952 98.4491 55.7659 95.0383 57.8313C93.3329 57.4183 91.6274 57.0052 89.8703 57.2634C88.475 56.4372 88.4233 54.7849 87.4931 53.7005C86.3561 52.3064 85.4776 49.5181 83.6171 50.3442C81.9117 51.1188 83.307 53.6489 83.6171 55.4561C83.9788 57.2634 85.3742 58.8124 85.1158 60.7745C84.5473 61.6523 84.0305 62.5301 83.462 63.4079C80.4129 59.6902 78.139 55.4561 75.7618 51.3253C74.4698 49.0534 72.506 47.0912 72.1959 44.3029C74.8832 44.9226 74.8832 42.031 76.3303 41.0499C76.6403 40.8434 76.8987 40.3787 76.4853 39.9656C75.9685 39.4492 75.5551 39.759 75.245 40.2238C74.2631 41.6179 72.9194 42.7022 72.2476 44.3546C70.4388 42.4957 70.077 40.0689 71.3173 37.9518C71.8341 37.1257 72.3509 36.3511 72.8677 35.5766ZM86.7695 38.5198C85.6843 38.5714 84.6507 38.8296 84.0305 39.759C83.9272 39.914 83.8755 40.327 83.9788 40.4303C84.9091 41.2048 85.4775 40.0172 86.3044 40.0172C86.4595 40.0172 86.6662 39.9656 86.8212 39.9656C87.5447 40.0689 88.3716 40.1205 88.2166 39.1394C88.1132 38.4165 87.2863 38.5714 86.7695 38.5198ZM87.9065 43.4768C87.183 43.6833 86.6145 44.0448 86.6145 44.8709C86.6145 45.6454 87.0796 46.2134 87.8548 46.1618C88.6817 46.1102 89.3535 45.6454 89.2502 44.716C89.1985 43.8899 88.63 43.5284 87.9065 43.4768ZM79.4827 49.8795C79.4827 49.0534 79.0176 48.5887 78.2424 48.4854C77.4155 48.3821 76.8987 48.8468 76.8987 49.673C76.8471 50.4475 77.2088 51.0155 78.0357 51.0671C78.8626 51.1188 79.276 50.6541 79.4827 49.8795Z" fill="#F9B6A8"/>
<path d="M143.515 337.694C142.946 337.9 142.429 338.107 141.861 338.313C140.259 338.881 138.915 339.501 140.052 341.618C140.31 342.083 140.052 342.754 140 343.322C138.863 343.374 137.933 342.599 137.365 341.928C135.711 339.862 133.54 339.811 131.163 339.656C117.055 338.778 103.67 335.473 92.3 326.696C83.1011 319.57 76.7445 310.43 75.0907 298.761C74.0055 290.964 75.2458 283.219 78.0882 275.783C81.0339 268.141 85.0649 261.067 89.3026 254.097C89.406 253.89 89.6644 253.787 89.8711 253.632C91.2148 253.838 90.9047 254.871 90.9564 255.749C87.2354 261.119 84.3931 266.954 81.6541 272.892C77.9848 280.895 75.8659 289.363 77.1579 298.09C79.0184 310.637 86.0468 320.086 96.5378 327.109C104.238 332.272 112.817 335.009 121.861 336.558C125.478 337.177 129.199 337.384 133.23 337.849C132.713 336.609 132.352 335.938 132.093 335.267C130.543 331.136 130.388 327.057 132.662 323.184C134.005 320.912 135.711 318.744 138.76 318.64C138.812 319.363 138.863 320.035 138.915 320.757C138.295 320.706 137.778 320.912 137.21 321.222C133.592 323.391 132.093 328.864 133.799 333.873C135.142 337.745 135.918 338.158 140 336.764C141.396 336.713 142.584 336.145 143.67 335.215C147.494 333.098 149.406 329.174 148.786 324.94C148.321 322.048 145.427 319.983 142.739 320.757C142.739 319.88 142.688 319.002 142.688 318.124C147.907 318.382 150.905 321.429 150.853 326.592C150.698 331.756 148.062 335.37 143.515 337.694Z" fill="#B3B8BC"/>
<path d="M192.558 363.976C196.072 364.957 199.535 366.196 202.894 367.642C199.897 372.548 196.899 377.453 193.798 382.307C192.92 383.701 192.868 384.424 194.367 385.353C196.537 386.696 198.605 388.296 201.085 390.052C193.178 390.052 185.736 390.052 177.984 390.052C182.894 381.274 187.7 372.651 192.558 363.976Z" fill="#3A3B39"/>
<path d="M225.426 345.284C225.943 344.613 226.511 343.993 227.028 343.322C231.317 346.265 235.503 349.363 239.896 352.203C246.098 356.231 252.403 359.949 259.844 361.446C268.216 363.098 276.33 362.014 284.444 359.897C294.315 357.263 303.617 353.029 313.229 349.621C321.446 346.678 329.767 344.2 338.656 343.787C345.426 343.477 351.937 344.2 358.139 346.988C358.914 347.35 360.568 347.401 359.844 348.95C359.224 350.189 358.191 349.26 357.364 348.899C347.338 344.561 337.105 345.233 326.873 347.659C316.847 350.035 307.39 354.114 297.777 357.78C289.198 361.033 280.413 363.77 271.214 364.389C260.671 365.112 251.111 361.859 242.273 356.179C236.64 352.565 231.266 348.537 225.426 345.284Z" fill="#B3B8BC"/>
<path d="M316.693 303.666C318.916 301.549 321.293 299.69 323.825 297.986C325.789 302.065 328.631 303.614 333.282 302.169C336.848 301.033 340.673 300.723 344.445 300.051C344.497 301.084 343.722 301.446 343.205 301.91C338.709 306.248 334.109 310.533 329.665 314.974C328.425 316.162 327.753 316.471 326.512 314.974C323.308 311.101 320.001 307.384 316.693 303.666Z" fill="#3A3B39"/>
<path d="M90.9056 255.697C90.9056 254.819 91.2157 253.787 89.8203 253.58C89.8203 253.115 89.8203 252.599 89.8203 252.134C90.1304 251.979 90.4921 251.928 90.6472 251.67C96.3836 242.427 101.965 233.081 104.807 222.444C106.565 215.783 106.358 209.019 105.738 202.255C105.117 195.645 104.962 189.088 106.203 182.582C107.03 182.633 107.856 182.685 108.632 182.685C107.03 188.055 107.081 193.528 107.65 199.002C108.735 209.69 108.735 220.172 104.497 230.293C101.397 237.728 97.4172 244.699 93.2312 251.618C92.456 252.909 91.2157 253.993 91.319 255.697C91.164 255.697 91.0606 255.697 90.9056 255.697Z" fill="#B3B8BC"/>
<path d="M102.686 11.9277C101.859 14.8193 100.98 17.7109 99.74 20.4475C97.9312 19.9312 96.0707 19.5181 94.3136 18.9501C92.7116 18.3821 91.5229 18.3305 90.7994 20.1894C90.1276 21.8417 88.7322 20.8606 87.957 20.4992C85.3214 19.3116 83.4092 19.5181 82.324 22.5646C82.0139 23.3907 81.187 24.1653 80.3085 23.7005C79.1715 23.1326 80.1534 22.2031 80.4118 21.5319C81.3421 18.9501 82.5307 16.4716 83.4092 13.8899C83.926 12.3924 84.6496 11.9277 86.1999 11.9277C91.678 11.9794 97.2077 11.9277 102.686 11.9277Z" fill="#F9B6A8"/>
<path d="M83.5659 63.4079C84.1344 62.5301 84.6512 61.6523 85.2196 60.7745C88.4238 60.6713 89.7158 59.7418 89.9225 57.2633C91.6796 57.0052 93.385 57.4182 95.0904 57.8313C97.261 58.7091 99.1214 60 100.982 61.3941C101.602 61.8072 102.326 62.3752 102.171 63.253C102.015 64.1308 101.137 64.2341 100.362 64.4406C97.6744 65.2151 94.9354 65.2668 92.2997 64.389C91.0594 63.9759 90.5426 64.2341 90.0775 65.4733C89.0439 68.2616 87.0284 70.3787 84.7028 72.1859C83.2558 73.1153 82.4289 73.0637 82.6357 70.9983C82.739 69.9656 82.584 68.9845 82.584 67.9518C82.8424 66.4544 83.2041 64.957 83.5659 63.4079Z" fill="#C41627"/>
<path d="M144.187 346.42C144.136 345.387 144.136 344.355 144.084 343.322C147.288 344.664 150.647 345.232 154.058 345.387C162.895 345.697 171.319 343.27 179.743 340.998C187.857 338.83 195.867 336.454 204.394 336.661C204.239 337.436 203.877 338.158 203.309 338.726C195.092 338.881 187.288 341.257 179.433 343.322C171.474 345.439 163.567 347.711 155.247 347.504C152.404 347.453 149.614 347.091 146.875 346.472C145.996 346.317 145.066 345.594 144.187 346.42Z" fill="#B3B8BC"/>
<path d="M169.303 91.7556C170.698 91.9105 170.801 93.253 171.318 94.1308C173.489 97.5388 175.918 100.792 177.52 104.509C176.124 105.077 174.781 105.645 173.385 106.213C171.938 101.463 170.181 96.7642 169.303 91.7556Z" fill="#02394F"/>
<path d="M20.4648 20.7057C23.6173 21.6351 26.6147 22.4613 29.5604 23.3391C34.3666 24.7849 39.2245 26.2823 44.0307 27.7797C44.6508 27.9862 45.6328 27.883 45.271 28.9157C45.0126 29.5869 44.2374 29.3804 43.6689 29.1738C36.1754 26.9535 28.6302 24.63 21.085 22.358C20.5682 22.2031 19.793 22.2031 19.793 21.3769C19.8446 20.8606 20.2064 20.7057 20.4648 20.7057Z" fill="#E0F1EA"/>
<path d="M102.016 47.556C99.7424 45.852 98.5537 43.5801 98.7088 40.6885C99.5873 39.3976 100.311 38.1068 101.293 36.9191C102.171 35.8348 103.102 36.1963 103.205 37.4871C103.463 40.895 103.257 44.303 102.016 47.556Z" fill="#F7B4A7"/>
<path d="M203.308 58.7091C206.305 59.4836 209.044 60.7229 211.628 62.3752C205.995 61.7039 200.569 60.4131 195.143 58.8124C197.83 58.8124 200.569 58.7607 203.308 58.7091Z" fill="#0282A4"/>
<path d="M40.2065 43.7866C40.9817 43.9932 42.1187 43.4252 42.222 44.4062C42.3254 45.6971 41.0334 45.2324 40.3099 45.3357C37.7776 45.6971 35.297 46.0069 32.7647 46.3167C32.0412 46.42 30.9559 46.5233 30.9042 45.5422C30.8525 44.5611 31.8861 44.9226 32.5063 44.8193C35.0386 44.4579 37.6742 44.1481 40.2065 43.7866Z" fill="#E0F1EA"/>
<path d="M165.168 222.806C163.721 228.434 161.188 233.701 159.224 239.174C157.726 243.356 155.969 247.435 154.367 251.566C150.336 248.262 146.976 244.286 143.204 240.723C142.48 240.052 141.705 239.38 140.93 238.658C140.723 238.503 140.568 238.296 140.361 238.141C137.261 234.991 134.108 231.79 131.007 228.589C130.336 227.866 129.147 227.298 129.664 226.059C130.129 224.974 131.266 225.284 132.196 225.232C141.343 224.51 150.491 223.838 159.638 223.115C161.447 223.064 163.359 223.528 165.168 222.806Z" fill="#E0F1EA"/>
<path d="M137.312 293.907C128.733 293.649 120.206 292.978 111.989 290.241C107.389 288.744 103.1 286.627 99.3273 283.58C91.8855 277.59 89.9217 269.69 93.5909 260.861C94.8829 263.288 96.1749 265.663 97.4152 268.09C99.1723 270.826 101.343 273.201 104.289 274.751C109.095 278.933 114.831 281.308 120.671 283.529C132.919 288.124 145.632 290.499 158.604 291.79C159.069 291.842 159.586 292.048 160.051 292.203C153.746 293.339 147.338 293.442 140.981 293.856C139.792 293.907 138.552 293.907 137.312 293.907Z" fill="#C41627"/>
<path d="M104.289 274.802C101.344 273.201 99.1731 270.878 97.416 268.141C105.426 260.706 114.16 254.251 123.359 248.365C128.941 244.802 134.677 241.549 140.362 238.193C140.568 238.348 140.724 238.554 140.93 238.709C139.742 241.446 136.899 242.22 134.78 243.769C123.411 251.928 113.437 261.532 105.065 272.737C104.548 273.356 104.238 273.976 104.289 274.802Z" fill="#DD8E03"/>
<path d="M30.0263 193.89C35.2976 193.373 40.3622 191.876 45.5302 190.792C53.0237 189.139 60.5173 187.384 68.0108 185.731C68.5276 185.628 69.0444 185.628 69.3545 185.164C75.3493 184.441 81.1374 182.582 87.0289 181.343C89.3545 180.826 91.6801 180.31 93.954 179.69C94.8842 179.432 95.6077 179.484 96.3829 180C96.3312 180.155 96.2795 180.361 96.2279 180.516C91.1116 181.859 85.9953 183.201 80.9307 184.596C63.6697 189.398 46.4087 194.251 29.1994 199.105C28.0625 199.415 26.9772 199.776 25.4785 200.241C26.4604 197.711 27.9075 196.007 29.5095 194.406C29.7162 194.148 29.8713 193.993 30.0263 193.89C30.0263 193.838 30.0263 193.89 30.0263 193.89Z" fill="#02394F"/>
<path d="M96.2793 180.413C96.331 180.258 96.3827 180.052 96.4343 179.897C98.5015 178.244 100.672 176.695 102.533 174.837C104.238 173.133 105.788 173.029 107.7 174.165C108.476 174.63 109.406 174.991 110.388 174.94C110.853 175.559 111.525 175.818 112.3 175.818C115.401 177.676 115.349 177.625 112.817 180.413C111.68 181.704 110.595 182.995 108.579 182.685C107.752 182.633 106.925 182.582 106.15 182.582C104.393 184.183 102.636 185.783 100.879 187.384C100 188.21 99.4317 188.417 98.915 186.971C98.1914 184.802 97.2095 182.633 96.2793 180.413Z" fill="#F9B6A8"/>
<path d="M63.6695 153.614C63.1527 150.774 62.6359 147.935 62.1191 145.095C64.4964 142.151 66.8737 139.157 69.1992 136.213C69.406 136.317 69.561 136.42 69.7677 136.523C68.3207 140.861 66.977 145.198 65.4783 149.484C65.0132 150.929 65.0132 152.582 63.6695 153.614Z" fill="#02394F"/>
<path d="M124.445 167.608C124.807 166.575 123.877 164.613 126.099 164.974C127.288 165.181 129.407 163.58 129.613 166.368C129.613 168.124 129.613 169.879 129.562 171.635C129.355 174.423 127.288 172.719 126.099 173.029C124.91 173.339 124.497 172.461 124.549 171.325C124.549 170.757 124.497 170.138 124.445 169.57C124.445 168.95 124.445 168.279 124.445 167.608Z" fill="#B3B8BC"/>
<path d="M124.445 167.608C124.445 168.279 124.445 168.898 124.445 169.57C119.277 169.466 115.349 171.738 112.352 175.818C111.576 175.818 110.956 175.559 110.439 174.94C113.85 170.138 118.295 167.246 124.445 167.608Z" fill="#B3B8BC"/>
<path d="M129.561 171.635C129.561 169.879 129.561 168.124 129.612 166.368C129.871 166.42 130.129 166.472 130.387 166.42C132.351 166.265 133.643 166.42 133.643 169.105C133.643 171.996 131.989 171.48 130.336 171.48C130.077 171.532 129.819 171.635 129.561 171.635Z" fill="#E0F1EA"/>
<path d="M211.627 62.3752C211.989 62.4269 212.35 62.5301 212.764 62.5818C212.712 62.6334 212.712 62.7367 212.609 62.7883C212.144 62.9432 211.834 62.7367 211.627 62.3752Z" fill="#0282A4"/>
<path d="M169.301 91.7556C169.198 91.5491 169.043 91.3942 168.939 91.1876C168.991 91.136 169.094 91.0843 169.146 91.0327C169.198 91.2909 169.25 91.5491 169.301 91.7556Z" fill="#0282A4"/>
<path d="M30.0257 193.838C29.8706 193.993 29.7156 194.2 29.5605 194.355C29.5605 194.045 29.5605 193.683 30.0257 193.838Z" fill="#FBFDFD"/>
<path d="M227.648 292.151C225.271 292.255 222.894 292.358 220.568 292.461C220.93 290.499 222.791 289.879 224.134 288.898C226.77 286.885 228.94 284.148 232.248 283.012C231.059 286.265 229.509 289.26 227.648 292.151Z" fill="#DD8E03"/>
<path d="M232.248 283.012C232.3 282.961 232.351 282.857 232.351 282.806C232.351 282.857 232.3 282.961 232.248 283.012Z" fill="#402D49"/>
<path d="M206.46 226.007C206.925 230.344 203.204 232.461 200.155 232.461C196.847 232.461 194.057 229.518 194.057 226.11C194.057 222.651 197.002 219.553 200.258 219.604C203.927 219.656 206.46 222.238 206.46 226.007Z" fill="#E0F1EA"/>
<path d="M89.8711 57.2634C89.6644 59.7419 88.3724 60.7229 85.1683 60.7746C85.4267 58.7608 83.9797 57.2634 83.6696 55.4561C83.3595 53.7005 81.9642 51.1704 83.6696 50.3443C85.5301 49.5181 86.4086 52.3064 87.5456 53.7005C88.4241 54.7849 88.5275 56.4372 89.8711 57.2634Z" fill="#F4848F"/>
<path d="M72.2988 44.3546C72.9707 42.7539 74.3143 41.6179 75.2962 40.2238C75.6063 39.8107 76.0198 39.4492 76.5366 39.9656C76.95 40.3787 76.7433 40.8434 76.3815 41.0499C74.9862 42.0826 74.9862 44.9226 72.2988 44.3546C72.2988 44.3029 72.2988 44.3546 72.2988 44.3546Z" fill="#40413F"/>
<path d="M86.7689 38.5199C87.2857 38.6232 88.1126 38.4166 88.2159 39.1395C88.3193 40.1206 87.5441 40.0689 86.8206 39.9657C86.6656 39.914 86.5105 40.0173 86.3038 40.0173C85.5286 40.0173 84.9084 41.2049 83.9782 40.4304C83.8749 40.3271 83.9265 39.914 84.0299 39.7591C84.6501 38.7781 85.632 38.5715 86.7689 38.5199Z" fill="#40413F"/>
<path d="M87.9072 43.4767C88.6307 43.58 89.1992 43.9414 89.2509 44.7159C89.3542 45.6454 88.6824 46.1101 87.8555 46.1617C87.0803 46.2133 86.6152 45.6454 86.6152 44.8708C86.6152 43.993 87.1837 43.6832 87.9072 43.4767Z" fill="#40413F"/>
<path d="M79.482 49.8794C79.327 50.6539 78.8619 51.1186 78.035 51.067C77.1564 51.0154 76.8464 50.4474 76.898 49.6729C76.9497 48.8467 77.4665 48.4336 78.2417 48.4853C79.0169 48.5885 79.4303 49.0533 79.482 49.8794Z" fill="#40413F"/>
<path d="M140.982 293.907C141.499 301.962 142.015 310.017 142.584 318.021C142.584 318.899 142.635 319.776 142.635 320.654C142.946 325.456 143.256 330.258 143.566 335.112C142.532 336.041 141.343 336.609 139.896 336.661C139.535 331.343 139.173 326.024 138.811 320.706C138.76 319.983 138.708 319.312 138.656 318.589C138.191 310.379 137.778 302.169 137.312 293.959C138.553 293.907 139.793 293.907 140.982 293.907Z" fill="#3A3B39"/>
<path d="M267.907 137.091C267.907 132.083 264.702 128.881 259.741 128.881C249.095 128.83 238.398 128.83 227.752 128.881C222.945 128.881 219.431 132.289 219.431 137.143C219.379 150.878 219.431 164.613 219.431 178.399C219.431 178.812 219.535 179.225 219.638 180.516C223.721 176.437 227.286 172.874 230.801 169.26C231.938 168.072 233.178 167.556 234.883 167.556C243.152 167.659 251.369 167.608 259.638 167.556C264.496 167.504 267.958 164.096 267.958 159.294C267.907 151.859 267.907 144.475 267.907 137.091ZM256.485 150C256.485 147.986 256.485 145.972 256.485 143.959C256.485 145.972 256.537 147.986 256.485 150C258.501 150.207 260.103 151.033 261.137 152.324C260.155 151.033 258.501 150.207 256.485 150Z" fill="#E0F1EA"/>
<path d="M240.774 147.005L240.981 146.747C244.34 146.437 245.477 145.663 245.477 144.423C245.477 143.442 244.702 142.823 243.307 142.823C241.963 142.823 240.464 143.494 239.121 144.733L236.227 140.912C237.984 139.157 240.361 137.917 243.668 137.917C247.906 137.917 250.852 140.241 250.852 144.01C250.852 147.625 248.423 149.174 245.219 149.948L244.857 151.807H241.395L240.774 147.005ZM240.309 153.46H245.994V158.365H240.309V153.46Z" fill="#F4A200"/>
</g>
<defs>
<clipPath id="clip0">
<rect width="360" height="390" fill="white"/>
</clipPath>
</defs>
</svg>
