<svg width="567" height="349" viewBox="0 0 567 349" fill="none" xmlns="http://www.w3.org/2000/svg">
<g clip-path="url(#clip0)">
<path d="M225.027 122.753C229.161 117.713 235.393 107.178 230.555 92.1515C227.692 83.5276 221.482 77.8834 212.252 75.1858C208.837 74.2109 205.487 73.8895 203.155 73.7953C204.53 67.7138 204.62 55.4898 190.56 47.6687C184.581 44.312 177.815 43.0157 170.591 43.7466C163.696 44.4443 157.622 46.7094 154.471 48.3488C151.18 38.7778 140.531 25.3294 118.498 27.2285L117.841 27.2949C96.4975 29.4544 88.855 42.4425 87.1208 51.5316C82.3253 50.0359 73.4903 47.9587 63.6393 48.9553C56.087 49.7194 49.3566 52.051 43.8098 56.2437C28.0551 67.7417 30.1335 81.7271 32.0752 87.8031C26.9536 89.6418 15.9237 95.3796 13.6673 109.143C11.3447 122.253 18.8708 131.066 23.6025 135.209C18.9746 138.648 11.7551 145.981 12.4539 159.446C13.285 174.218 25.276 181.258 31.1888 183.961C28.368 188.868 25.944 197.697 31.4669 206.382C37.7787 216.308 48.9123 218.152 54.2653 218.601C54.3337 222.556 55.947 228.665 66.8206 234.498C75.5918 239.223 82.915 239.472 87.5121 239.007C88.8256 238.874 90.139 238.741 91.0911 238.315C92.1115 241.843 95.3005 247.133 104.334 251.171C108.506 253.059 113.892 253.835 119.474 253.27C126.698 252.539 132.739 249.947 135.299 249.028C140.161 251.177 151.623 252.989 159.175 252.225C165.086 251.627 169.879 249.821 173.916 247.102C185.338 238.683 188.386 229.461 188.875 224.46C190.912 224.914 193.933 225.269 197.545 224.903C204.441 224.205 210.12 221.32 214.911 216.213C225.116 205.607 223.038 191.622 221.458 185.839C228.188 183.507 245.029 176.191 244.194 154.817C244.213 135.338 231.334 126.076 225.027 122.753Z" fill="#F5A300"/>
<path d="M108.851 85.9794L121.478 302.589L150.046 299.699L108.851 85.9794Z" fill="black"/>
<path d="M145.833 94.1229L114.366 130.65L116.938 146.236L145.833 94.1229Z" fill="black"/>
<path d="M165.8 143.934L123.896 188.78L128.313 212.763L165.8 143.934Z" fill="black"/>
<path d="M61.9094 159.727L120.822 207.578L120.022 189.831L61.9094 159.727Z" fill="black"/>
<path d="M71.991 111.828L116.515 151.891L115.027 137.186L71.991 111.828Z" fill="black"/>
<path d="M58.4089 82.4995C58.2105 80.5388 58.7019 78.8384 59.5548 77.4316C60.736 75.9916 62.2786 74.8451 64.2488 74.6458C66.219 74.4464 67.9269 74.9339 69.3396 75.7814L70.0624 76.3685C70.6861 75.9753 71.3428 75.9088 71.6381 75.5488L70.1924 74.3746C68.3853 72.9067 66.0206 72.4857 63.722 72.7183C61.4235 72.9508 59.2572 74.4905 57.7807 76.2906C56.3042 78.0906 55.8789 80.4446 56.1103 82.7321C55.4536 82.7985 54.4685 82.8982 53.5165 83.3247C53.1858 80.0568 53.9064 77.3428 55.6452 74.856C57.3839 72.3691 59.8786 70.7962 63.1622 70.464C66.4459 70.1318 69.172 70.8463 71.6689 72.5745C73.1146 73.7488 74.232 74.9562 75.054 76.5237C73.8067 77.3102 72.5263 77.7699 70.9506 78.5896C69.0465 79.4425 66.8141 80.3286 64.5817 81.2147C62.9399 81.3808 60.6744 81.9402 58.4089 82.4995ZM72.0679 79.797L72.1341 80.4506C72.3324 82.4113 71.841 84.1117 70.6598 85.5518C69.4786 86.9918 67.936 88.1383 65.9658 88.3376C63.9956 88.5369 62.2877 88.0495 60.875 87.202L59.7577 85.9945C59.1009 86.061 58.4773 86.4542 57.8205 86.5206C58.2481 87.4678 58.9709 88.0549 60.0222 88.6088C61.8293 90.0766 64.194 90.4977 66.4925 90.2651C68.7911 90.0325 70.9574 88.4928 72.4339 86.6928C73.9104 84.8927 74.3357 82.5388 74.1042 80.2513L74.0051 79.2709C74.9571 78.8445 75.5808 78.4512 76.2044 78.058L77.7801 77.2383C76.8589 74.6905 75.314 72.5359 73.1785 71.1013C70.3201 69.0795 66.9042 68.1046 63.3253 68.7968C59.6802 68.8355 56.5619 70.8017 54.5278 73.6485C52.4938 76.4954 51.511 79.8961 52.203 83.4576L52.3353 84.7647C53.3226 87.9661 55.262 90.7411 57.7589 92.4693C60.2559 94.1974 63.6718 95.1723 67.2507 94.4801C70.8297 93.7879 73.948 91.8217 76.0151 89.3016C78.0491 86.4548 79.032 83.054 78.3399 79.4926C77.7162 79.8858 77.0595 79.9523 76.7642 80.3123C77.0618 83.2534 76.3412 85.9673 74.6025 88.4542C72.8637 90.941 70.369 92.514 67.0854 92.8462C64.1301 93.1452 61.4371 92.7574 58.9402 91.0292C56.8046 89.5946 55.2597 87.44 54.3716 85.2189C58.9356 84.427 62.5146 83.7348 65.3707 82.4554C67.9314 81.5361 70.1639 80.65 72.0679 79.797Z" fill="black"/>
<path d="M180.512 190.975C180.313 189.014 180.805 187.313 181.658 185.907C182.839 184.467 184.382 183.32 186.023 183.154C187.994 182.955 189.701 183.442 191.114 184.29L191.837 184.877C192.461 184.483 193.117 184.417 193.413 184.057L192.295 182.85C190.521 181.709 188.124 180.961 185.825 181.193C183.526 181.426 181.36 182.966 180.212 184.732C179.064 186.499 178.31 188.886 178.542 191.174C177.885 191.24 176.9 191.34 176.276 191.733C175.979 188.792 176.666 185.751 178.438 183.591C180.21 181.431 182.671 179.532 185.627 179.233C188.582 178.934 191.636 179.615 193.805 181.376C195.218 182.224 196.368 183.758 197.157 184.999C195.91 185.785 194.629 186.245 193.053 187.065C191.149 187.917 189.245 188.77 186.98 189.33C185.043 189.856 183.106 190.382 180.512 190.975ZM194.171 188.272L194.237 188.926C194.435 190.886 193.944 192.587 193.091 193.994C191.91 195.434 190.367 196.58 188.725 196.746C186.755 196.945 185.047 196.458 183.635 195.611L182.517 194.403C181.861 194.47 181.237 194.863 180.58 194.929C181.008 195.876 181.731 196.463 182.453 197.051C184.228 198.192 186.625 198.939 188.924 198.707C191.222 198.474 193.389 196.935 194.537 195.168C195.685 193.401 196.439 191.014 196.207 188.726L196.108 187.746C197.06 187.319 197.684 186.926 198.307 186.533L199.883 185.713C198.962 183.165 197.45 181.338 195.314 179.903C192.784 177.848 189.369 176.873 185.79 177.565C182.211 178.258 179.388 179.864 177.354 182.711C175.287 185.231 174.304 188.631 174.996 192.193L175.128 193.5C176.115 196.701 178.022 199.15 180.519 200.878C183.016 202.606 186.398 203.254 189.682 202.922C193.261 202.23 196.084 200.623 198.118 197.777C200.185 195.257 201.168 191.856 200.476 188.294C199.852 188.688 199.524 188.721 198.9 189.114C199.198 192.055 198.477 194.769 196.705 196.929C194.934 199.089 192.472 200.989 189.517 201.288C186.561 201.587 183.868 201.199 181.7 199.438C179.564 198.003 178.052 196.175 177.131 193.627C181.367 192.869 184.946 192.177 187.835 191.224C190.034 190.011 191.938 189.158 194.171 188.272Z" fill="black"/>
<path d="M182.229 109.588C181.964 106.974 182.685 104.26 184.128 102.133C185.572 100.006 188.067 98.4331 190.693 98.1674C193.32 97.9016 196.046 98.6162 198.182 100.051L199.266 100.931C200.218 100.505 200.842 100.112 201.794 99.6853C201.071 99.0982 200.677 98.4778 199.954 97.8907C197.424 95.8357 194.041 95.1876 190.429 95.5531C186.85 96.2453 184.027 97.8514 182.321 100.665C180.254 103.185 179.6 106.553 179.963 110.147C178.978 110.247 177.698 110.707 176.384 110.84L176.351 110.513C175.56 105.971 176.805 101.883 179.463 98.6433C181.792 95.4365 185.534 93.0771 190.098 92.2852C194.662 91.4933 198.768 92.7286 202.021 95.3706C204.156 96.8052 205.668 98.6331 206.885 100.821C205.309 101.641 203.11 102.854 200.877 103.74C198.35 104.986 195.165 106.298 191.948 107.284C188.697 107.943 185.808 108.896 182.229 109.588ZM201.765 105.961L201.832 106.614C202.096 109.229 201.375 111.943 199.932 114.069C198.489 116.196 195.994 117.769 193.367 118.035C190.74 118.301 188.014 117.586 185.878 116.152C185.156 115.564 184.794 115.271 184.071 114.684C183.086 114.783 182.134 115.21 181.477 115.276C182.266 116.517 183.351 117.398 184.435 118.278C186.965 120.333 190.348 120.981 193.96 120.616C197.539 119.924 200.362 118.318 202.068 115.504C204.135 112.984 204.789 109.616 204.425 106.022C204.359 105.368 204.326 105.041 203.932 104.421C205.212 103.961 206.131 103.208 207.083 102.782L209.282 101.569C207.934 98.0737 205.633 95.0052 202.775 92.9835C198.832 90.081 194.069 88.9122 188.816 89.4438C183.595 90.3021 179.229 93.0547 176.638 96.9484C173.718 100.875 172.539 105.616 173.068 110.845C173.134 111.499 173.2 112.152 173.594 112.773C174.714 117.281 177.771 121.264 181.319 123.546C185.229 126.121 189.663 127.323 194.555 126.498C199.776 125.64 204.141 122.887 206.733 118.994C209.653 115.067 210.832 110.326 210.303 105.097C209.679 105.49 208.727 105.917 207.775 106.343C208.205 110.591 206.927 114.352 204.598 117.559C202.268 120.766 198.526 123.125 193.962 123.917C189.726 124.676 185.621 123.44 182.434 121.452C179.576 119.43 177.308 116.689 175.959 113.194C182.165 112.236 187.353 111.05 191.851 109.605C195.725 108.553 198.909 107.24 201.765 105.961Z" fill="black"/>
</g>
<path d="M480.465 47.7606C480.465 47.7606 480.744 38.8543 489.95 37.4626C499.156 36.071 502.225 44.9774 496.367 53.3271C490.508 61.6769 481.86 71.1399 481.86 71.1399C481.86 71.1399 469.585 64.4601 462.611 56.1104C455.637 47.4823 457.032 38.8543 463.727 36.6277C470.422 34.4011 475.165 39.9676 477.397 43.0291C479.628 46.369 480.465 47.7606 480.465 47.7606Z" fill="#F5A300"/>
<path d="M474.328 46.6473C474.328 43.8641 471.538 41.9158 468.748 42.1941C467.353 41.9158 465.68 41.9158 464.843 43.5858C464.006 44.9774 464.564 46.9256 465.68 48.0389C467.632 49.9872 474.049 50.8222 474.328 46.6473ZM469.306 44.4207C469.864 44.4207 470.422 44.4207 470.701 44.699C470.143 44.4207 469.585 44.4207 469.306 44.4207Z" fill="white"/>
<path d="M543.058 31.3707C543.058 31.3707 545.919 24.8169 553.194 26.5225C560.468 28.2281 560.102 35.7792 553.249 40.256C546.396 44.7328 537.132 49.2081 537.132 49.2081C537.132 49.2081 529.975 40.5736 527.265 32.2738C524.639 23.7666 528.249 17.7526 533.901 18.088C539.554 18.4234 541.429 23.9843 542.18 26.9306C542.848 30.0843 543.058 31.3707 543.058 31.3707Z" fill="#EC1C24"/>
<path d="M538.815 28.7127C539.644 26.6387 538.146 24.3558 535.984 23.7321C535.028 23.1091 533.78 22.6105 532.659 23.6056C531.621 24.3933 531.456 26.0113 531.956 27.1734C532.831 29.2069 537.364 31.7407 538.815 28.7127ZM535.737 25.5575C536.152 25.7238 536.568 25.89 536.693 26.1805C536.36 25.8069 535.945 25.6407 535.737 25.5575Z" fill="white"/>
<g clip-path="url(#clip1)">
<path d="M540.237 237.525C537.434 234.404 533.945 231.971 530.044 230.416C525.601 217.752 516.938 211.191 507.146 204.944C492.704 195.574 461.18 192.176 460.909 192.147C459.23 191.966 453.298 180.399 443.386 157.474C431.968 130.726 408.154 116.794 370.793 114.679C315.398 111.604 273.572 115.838 247.017 127.346C242.181 129.408 237.546 131.908 233.17 134.815C223.641 141.383 210.851 154.812 203.8 181.59C201.318 191.105 199.862 200.858 199.458 210.683C197.177 212.022 183.94 219.938 180.688 232.319C180.688 232.319 180.653 232.643 180.635 232.805C180.618 232.967 180.074 233.947 180.014 233.995L180.287 234.516C178.739 241.804 178.047 249.248 178.225 256.696C178.347 262.173 179.218 271.884 183.253 273.084C194.38 274.439 205.579 275.117 216.787 275.114L217.381 274.686C219.303 269.019 222.305 263.776 226.224 259.247C231.573 253.226 238.72 249.077 246.613 247.41C254.506 245.743 262.728 246.646 270.071 249.986C289.979 258.47 291.091 283.232 291.121 283.454L291.767 284.07L402.973 282.288L403.579 281.752C404.374 273.996 407.617 266.693 412.841 260.894C416.513 257.131 420.896 254.131 425.738 252.067C430.97 249.812 436.609 248.646 442.309 248.64C448.01 248.635 453.653 249.789 458.892 252.034C477.268 259.479 478.128 283.012 478.105 283.228L478.643 283.833C487.549 285.001 496.537 285.44 505.515 285.144C512.208 285.614 518.933 285.01 525.434 283.357L526.076 282.99C529.483 277.185 531.651 270.741 532.445 264.06C535.916 262.46 538.829 259.863 540.811 256.602C542.298 253.622 543.024 250.321 542.924 246.993C542.824 243.665 541.901 240.413 540.237 237.525ZM179.444 256.063C179.431 256.425 179.393 256.786 179.327 257.143C179.327 257.143 179.362 256.819 179.38 256.657C179.397 256.495 179.42 256.279 179.444 256.063ZM181.677 269.909C182.51 270.851 183.528 271.612 184.669 272.144L183.532 272.021C183.094 271.814 182.704 271.52 182.385 271.156C182.066 270.793 181.825 270.368 181.677 269.909Z" fill="#004A76"/>
<path d="M178.853 266.107C177.06 267.881 175.816 270.132 175.269 272.592C174.722 275.051 174.896 277.616 175.769 279.981C178.741 288.498 197.506 288.772 206.982 288.81C216.457 288.848 222.282 289.202 222.282 289.202C222.282 289.202 223.403 269.652 233.103 262.01C237.925 257.999 243.82 255.484 250.06 254.778C256.3 254.072 262.613 255.205 268.217 258.036C272.51 259.942 276.211 262.964 278.932 266.786C281.653 270.607 283.294 275.087 283.684 279.756C284.669 284.866 284.099 290.152 282.048 294.934C281.503 295.798 281.138 296.762 280.975 297.769L410.64 296.555C409.422 291.296 409.636 285.808 411.26 280.661C412.884 275.513 415.86 270.894 419.878 267.28C425.129 262.248 431.962 259.176 439.223 258.585C446.484 257.994 453.729 259.92 459.735 264.036C463.545 266.95 466.624 270.708 468.728 275.013C470.832 279.318 471.903 284.051 471.856 288.838C471.421 292.492 470.482 296.068 469.066 299.465C480.416 301.133 491.885 301.858 503.354 301.631C512.626 300.5 520.353 299.475 525.3 294.763C526.928 292.778 527.988 290.391 528.367 287.854C528.747 285.317 528.432 282.725 527.456 280.351L526.661 278.572L481.359 279.973C481.359 279.973 477.123 256.239 461.42 247.389C445.716 238.538 417.383 249.253 407.888 262.109C398.392 274.964 400.229 277.238 400.229 277.238L294.149 280.775C294.149 280.775 291.823 259.652 277.943 249.14C270.596 244.109 261.777 241.668 252.884 242.205C243.992 242.741 235.535 246.223 228.856 252.1C215.622 264.06 214.774 272.438 214.774 272.438C214.774 272.438 186.791 270.241 183.866 269.926C182.804 269.686 181.803 269.227 180.929 268.577C180.055 267.928 179.328 267.103 178.793 266.155" fill="#F5A300"/>
<path d="M530.309 230.5C531.875 235.7 532.823 241.065 533.134 246.486C533.519 252.517 533.325 258.57 532.555 264.564C532.555 264.564 543.779 259.053 543.966 250.713C544.335 247.749 544.019 244.74 543.041 241.916C542.063 239.093 540.45 236.529 538.325 234.423C535.805 232.827 533.117 231.511 530.309 230.5Z" fill="#8EB400"/>
<path d="M225.79 183.961C225.79 183.961 226.353 166.537 235.565 156.82C244.777 147.104 255.034 141.926 264.534 142.24C274.035 142.553 276.674 141.963 277.669 151.032C278.407 165.782 277.84 180.568 275.975 195.217C274.425 199.421 258.918 198.406 251.67 198.553C244.421 198.701 225.671 199.302 224.331 198.01C222.991 196.718 225.845 183.967 225.845 183.967" fill="#F5A300"/>
<path d="M272.63 193.709C267.35 194.828 261.943 195.237 256.553 194.926L251.789 194.905L249.755 194.959C245.196 195.068 232.666 195.411 227.833 195C228.222 191.59 228.806 188.205 229.583 184.861L229.659 184.159C229.659 184.159 230.322 167.839 238.456 159.481C242.699 154.657 247.874 150.737 253.671 147.953C257.054 146.442 260.725 145.682 264.432 145.725L266.274 145.924C268.427 145.809 270.586 146.042 272.665 146.613C272.99 146.648 273.535 147.69 273.964 151.342C274.65 165.48 274.259 179.649 272.792 193.726" fill="white"/>
<path d="M293.536 191.919C292.199 177.748 291.648 163.516 291.884 149.285C293.195 142.214 293.794 138.181 306.483 136.871C319.172 135.561 341.989 133.322 348.204 135.139C354.419 136.956 355.787 142.568 357.092 154.347C358.339 167.347 358.652 180.418 358.027 193.461C357.255 198.077 351.854 199.899 338.733 200.124C325.723 200.734 312.689 200.678 299.683 199.958C294.313 198.942 294.342 198.672 293.9 196.165C293.57 194.779 293.483 193.346 293.644 191.931" fill="#F5A300"/>
<path d="M352.364 194.654C347.902 196.009 343.244 196.615 338.582 196.447L333.09 196.565C322.144 197.077 311.178 196.989 300.241 196.303L297.454 195.729L297.488 195.405C297.276 194.428 297.199 193.427 297.261 192.43L297.349 191.62C296.014 177.784 295.518 163.882 295.863 149.988C296.784 145.005 297.164 143.516 299.981 142.29C302.251 141.395 304.637 140.824 307.068 140.595C315.547 139.706 341.37 137.025 347.266 138.754C350.934 139.805 352.31 142.794 353.328 154.706C354.501 167.454 354.804 180.265 354.235 193.052C354.189 193.485 354.119 194.133 352.341 194.87" fill="white"/>
<path d="M371.831 194.511C371.831 194.511 372.224 144.612 372.884 142.553C373.544 140.493 375.429 139.275 385.301 139.192C390.435 138.721 395.611 139.333 400.493 140.989C405.374 142.645 409.852 145.307 413.635 148.803C421.748 158.298 428.376 168.96 433.295 180.428C436.281 187.798 438.135 192.97 438.135 192.97C429.595 194.425 420.969 195.32 412.311 195.651C393.058 196.854 372.554 197.977 372.554 197.977L371.289 195.983L371.831 194.511Z" fill="#F5A300"/>
<path d="M433.017 190.124C429.187 190.586 422.584 191.349 412.106 191.968L375.626 193.883C375.719 176.244 376.063 148.141 376.498 143.598C379.378 142.79 382.377 142.484 385.362 142.696C397.267 142.559 405.146 145.211 410.961 151.247C418.663 160.403 424.946 170.657 429.6 181.669C430.893 184.923 432.016 187.722 432.77 189.879" fill="white"/>
<path d="M282.038 272.148C284.658 277.714 285.552 283.932 284.605 290.005C283.658 296.079 280.913 301.731 276.723 306.237C272.533 310.743 267.088 313.897 261.087 315.295C255.085 316.694 248.801 316.273 243.038 314.086C237.276 311.899 232.299 308.046 228.746 303.022C225.192 297.997 223.224 292.029 223.093 285.883C222.962 279.738 224.675 273.694 228.011 268.527C231.348 263.361 236.156 259.307 241.82 256.885C249.183 253.615 257.545 253.385 265.081 256.245C272.617 259.104 278.713 264.822 282.038 272.148Z" fill="#231F20"/>
<path d="M273.972 275.814C275.728 279.86 276.242 284.334 275.447 288.669C274.652 293.005 272.586 297.007 269.509 300.169C266.431 303.331 262.482 305.511 258.16 306.433C253.839 307.355 249.339 306.977 245.232 305.348C241.124 303.719 237.592 300.911 235.084 297.28C232.576 293.649 231.204 289.359 231.142 284.951C231.08 280.544 232.33 276.218 234.735 272.521C237.139 268.825 240.59 265.923 244.651 264.184C250.084 261.857 256.222 261.774 261.719 263.955C267.216 266.135 271.623 270.4 273.972 275.814Z" fill="#F5A300"/>
<path d="M262.595 305.623C258.431 307.414 253.828 307.933 249.367 307.115C244.906 306.298 240.787 304.179 237.532 301.028C234.276 297.877 232.03 293.835 231.078 289.412C230.125 284.99 230.508 280.385 232.179 276.182C233.85 271.978 236.733 268.363 240.465 265.795C244.196 263.226 248.608 261.819 253.143 261.751C257.678 261.684 262.132 262.958 265.942 265.414C269.752 267.87 272.747 271.396 274.549 275.548C276.951 281.121 277.042 287.415 274.802 293.052C272.561 298.688 268.172 303.209 262.595 305.623ZM245.08 264.777C241.111 266.47 237.736 269.3 235.384 272.91C233.033 276.519 231.809 280.744 231.87 285.05C231.931 289.355 233.272 293.546 235.725 297.091C238.177 300.636 241.63 303.375 245.645 304.961C249.66 306.547 254.056 306.908 258.276 305.998C262.495 305.088 266.348 302.949 269.345 299.852C272.342 296.754 274.348 292.838 275.109 288.6C275.869 284.362 275.351 279.994 273.618 276.049C271.311 270.797 267.018 266.666 261.672 264.554C256.327 262.443 250.363 262.523 245.08 264.777Z" fill="#231F20"/>
<path d="M469.158 276.253C471.762 281.81 472.644 288.013 471.692 294.071C470.739 300.128 467.996 305.763 463.812 310.254C459.629 314.745 454.196 317.888 448.208 319.28C442.221 320.673 435.953 320.251 430.205 318.07C424.457 315.888 419.492 312.047 415.945 307.036C412.398 302.025 410.431 296.074 410.295 289.943C410.159 283.813 411.861 277.783 415.182 272.625C418.504 267.467 423.294 263.416 428.94 260.99C432.583 259.349 436.515 258.442 440.511 258.321C444.507 258.2 448.488 258.868 452.225 260.287C455.963 261.705 459.383 263.846 462.288 266.586C465.194 269.326 467.529 272.611 469.158 276.253Z" fill="#231F20"/>
<path d="M461.097 279.865C462.862 283.908 463.384 288.382 462.598 292.72C461.812 297.058 459.753 301.065 456.681 304.233C453.609 307.402 449.663 309.589 445.343 310.519C441.022 311.449 436.521 311.079 432.409 309.456C428.298 307.834 424.761 305.031 422.247 301.403C419.733 297.776 418.354 293.486 418.286 289.078C418.217 284.67 419.462 280.342 421.862 276.641C424.262 272.94 427.71 270.034 431.769 268.289C437.196 265.957 443.331 265.866 448.828 268.036C454.325 270.206 458.737 274.459 461.097 279.865Z" fill="#F5A300"/>
<path d="M449.937 309.698C445.784 311.531 441.179 312.092 436.705 311.311C432.23 310.53 428.088 308.442 424.804 305.312C421.519 302.181 419.24 298.149 418.255 293.727C417.271 289.305 417.625 284.691 419.272 280.471C420.92 276.252 423.787 272.615 427.511 270.024C431.234 267.432 435.646 266.002 440.187 265.914C444.729 265.827 449.194 267.086 453.018 269.532C456.843 271.978 459.853 275.501 461.668 279.654C464.09 285.194 464.215 291.463 462.017 297.092C459.819 302.722 455.476 307.253 449.937 309.698ZM432.422 268.852C428.453 270.544 425.079 273.375 422.727 276.984C420.375 280.594 419.152 284.819 419.212 289.124C419.273 293.43 420.614 297.621 423.067 301.166C425.519 304.711 428.972 307.45 432.987 309.036C437.002 310.622 441.398 310.983 445.618 310.073C449.837 309.163 453.69 307.024 456.687 303.926C459.684 300.829 461.69 296.913 462.451 292.675C463.212 288.437 462.693 284.068 460.96 280.124C458.654 274.872 454.36 270.741 449.015 268.629C443.67 266.518 437.706 266.598 432.422 268.852Z" fill="#231F20"/>
<path d="M255.57 289.457C254.738 289.815 253.818 289.919 252.926 289.755C252.035 289.591 251.212 289.167 250.563 288.536C249.913 287.905 249.466 287.096 249.278 286.212C249.09 285.328 249.169 284.408 249.506 283.569C249.843 282.73 250.422 282.01 251.17 281.5C251.918 280.99 252.801 280.713 253.707 280.704C254.613 280.695 255.502 280.955 256.26 281.45C257.019 281.946 257.612 282.655 257.967 283.487C258.439 284.596 258.452 285.847 258.003 286.966C257.554 288.084 256.679 288.98 255.57 289.457ZM252.409 282.177C251.602 282.557 250.972 283.23 250.648 284.059C250.324 284.888 250.331 285.81 250.668 286.634C251.039 287.434 251.706 288.061 252.528 288.384C253.351 288.707 254.267 288.701 255.084 288.367C255.491 288.195 255.859 287.944 256.167 287.628C256.475 287.313 256.717 286.939 256.879 286.529C257.04 286.119 257.118 285.681 257.108 285.241C257.098 284.8 257 284.366 256.819 283.964C256.469 283.146 255.809 282.5 254.983 282.165C254.157 281.83 253.231 281.835 252.409 282.177Z" fill="#231F20"/>
<path d="M258.261 296.523C255.927 297.533 253.344 297.829 250.84 297.373C248.336 296.918 246.024 295.732 244.195 293.966C242.367 292.199 241.105 289.932 240.57 287.45C240.034 284.969 240.249 282.385 241.187 280.027C242.125 277.668 243.745 275.641 245.84 274.201C247.935 272.761 250.411 271.975 252.956 271.94C255.501 271.906 257.999 272.625 260.134 274.007C262.269 275.389 263.945 277.372 264.95 279.704C266.279 282.823 266.321 286.337 265.069 289.485C263.817 292.634 261.371 295.162 258.261 296.523ZM248.513 274.108C246.391 275.013 244.588 276.526 243.33 278.455C242.073 280.384 241.418 282.642 241.448 284.943C241.479 287.244 242.193 289.485 243.501 291.381C244.81 293.278 246.652 294.745 248.797 295.597C250.941 296.449 253.29 296.647 255.547 296.166C257.803 295.686 259.865 294.548 261.472 292.897C263.079 291.247 264.159 289.157 264.573 286.894C264.988 284.63 264.72 282.294 263.803 280.182C262.577 277.359 260.28 275.134 257.414 273.996C254.548 272.858 251.347 272.898 248.513 274.108Z" fill="#231F20"/>
<path d="M261.272 302.64C257.7 304.17 253.752 304.61 249.928 303.904C246.104 303.198 242.574 301.376 239.787 298.671C236.999 295.965 235.077 292.496 234.266 288.703C233.454 284.909 233.788 280.962 235.225 277.359C236.663 273.756 239.14 270.66 242.342 268.462C245.545 266.264 249.33 265.062 253.219 265.01C257.107 264.957 260.925 266.055 264.189 268.165C267.453 270.275 270.018 273.303 271.557 276.865C273.609 281.647 273.678 287.042 271.751 291.873C269.823 296.703 266.056 300.574 261.272 302.64ZM246.239 267.743C242.887 269.187 240.039 271.589 238.056 274.647C236.074 277.706 235.046 281.282 235.102 284.924C235.158 288.566 236.295 292.111 238.371 295.109C240.447 298.108 243.367 300.426 246.763 301.77C250.158 303.114 253.877 303.424 257.448 302.661C261.019 301.898 264.282 300.095 266.825 297.482C269.368 294.868 271.076 291.561 271.733 287.979C272.391 284.396 271.968 280.699 270.518 277.354C268.563 272.88 264.913 269.357 260.364 267.556C255.814 265.756 250.737 265.823 246.239 267.743Z" fill="#231F20"/>
<path d="M442.695 293.508C441.589 293.984 440.339 294.005 439.216 293.567C438.094 293.128 437.19 292.267 436.701 291.168C436.243 290.057 436.237 288.812 436.685 287.698C437.132 286.583 437.998 285.686 439.098 285.198C440.202 284.723 441.451 284.705 442.57 285.148C443.688 285.592 444.585 286.46 445.062 287.562C445.539 288.664 445.558 289.91 445.114 291.025C444.67 292.14 443.8 293.033 442.695 293.508ZM439.583 286.288C438.768 286.635 438.125 287.291 437.795 288.111C437.465 288.931 437.475 289.848 437.824 290.661C438.172 291.474 438.83 292.116 439.652 292.445C440.475 292.775 441.395 292.765 442.21 292.418C442.613 292.246 442.979 291.997 443.285 291.684C443.592 291.371 443.834 291.001 443.998 290.595C444.161 290.189 444.242 289.755 444.237 289.318C444.233 288.88 444.141 288.448 443.969 288.045C443.796 287.643 443.546 287.278 443.232 286.972C442.918 286.666 442.547 286.424 442.14 286.261C441.733 286.098 441.297 286.016 440.858 286.021C440.42 286.026 439.986 286.117 439.583 286.288Z" fill="#231F20"/>
<path d="M445.434 300.634C443.1 301.638 440.521 301.929 438.02 301.471C435.52 301.013 433.212 299.826 431.387 298.061C429.562 296.295 428.302 294.03 427.767 291.552C427.232 289.074 427.446 286.493 428.381 284.137C429.316 281.78 430.931 279.754 433.021 278.313C435.111 276.872 437.583 276.081 440.125 276.041C442.666 276.001 445.163 276.713 447.3 278.087C449.436 279.461 451.117 281.436 452.129 283.762C453.459 286.889 453.502 290.411 452.25 293.568C450.997 296.725 448.549 299.263 445.434 300.634ZM435.74 278.225C432.885 279.431 430.628 281.72 429.466 284.587C428.304 287.454 428.332 290.664 429.544 293.512C430.756 296.36 433.052 298.612 435.927 299.772C438.803 300.932 442.022 300.907 444.877 299.7C446.277 299.097 447.544 298.226 448.605 297.135C449.667 296.044 450.503 294.755 451.064 293.341C451.626 291.928 451.904 290.418 451.88 288.897C451.857 287.377 451.534 285.875 450.929 284.479C450.323 283.083 449.449 281.819 448.354 280.76C447.259 279.7 445.966 278.866 444.549 278.305C443.131 277.744 441.617 277.466 440.092 277.489C438.567 277.511 437.062 277.833 435.662 278.435" fill="#231F20"/>
<path d="M448.446 306.751C444.877 308.327 440.918 308.811 437.071 308.141C433.224 307.471 429.662 305.677 426.837 302.988C424.012 300.298 422.051 296.832 421.202 293.031C420.354 289.23 420.655 285.263 422.07 281.634C423.484 278.006 425.946 274.878 429.146 272.647C432.345 270.417 436.137 269.184 440.041 269.105C443.945 269.026 447.785 270.105 451.075 272.205C454.365 274.304 456.956 277.33 458.52 280.899C460.593 285.681 460.68 291.087 458.761 295.93C456.841 300.774 453.074 304.659 448.284 306.733L448.446 306.751ZM433.094 271.765C429.748 273.216 426.908 275.623 424.934 278.683C422.959 281.742 421.938 285.317 422 288.956C422.062 292.595 423.203 296.135 425.28 299.128C427.357 302.122 430.277 304.436 433.67 305.777C437.064 307.118 440.779 307.427 444.347 306.664C447.915 305.901 451.175 304.101 453.717 301.491C456.259 298.881 457.968 295.578 458.628 291.999C459.288 288.42 458.871 284.726 457.427 281.382C455.462 276.903 451.802 273.378 447.244 271.577C442.686 269.775 437.6 269.843 433.094 271.765Z" fill="#231F20"/>
<path d="M330.338 237.849C330.636 234.43 332.128 231.225 334.553 228.79C336.978 226.356 340.183 224.847 343.609 224.527C356.076 223.248 359.848 235.02 351.543 245.982C343.238 256.943 331.437 269.332 331.437 269.332C321.968 263.7 313.483 256.565 306.317 248.21C297.298 236.31 299.405 224.899 308.635 222.123C317.866 219.348 323.837 226.986 326.813 231.404C328.296 233.404 329.534 235.574 330.5 237.867" fill="#EC1C24"/>
<path d="M309.116 228.349C307.773 229.094 306.667 230.198 305.923 231.537C305.178 232.877 304.824 234.397 304.901 235.927C305.023 241.404 308.756 243.883 310.701 242.617C312.646 241.352 308.39 239.145 309.993 234.946C311.597 230.748 314.82 230.33 313.524 228.114C312.229 225.898 309.116 228.349 309.116 228.349Z" fill="white"/>
<path d="M326.376 253.76C322.243 252.196 318.711 249.367 316.288 245.679C314.155 243.099 310.372 246.68 312.505 249.259C315.557 253.599 319.866 256.904 324.854 258.732C325.497 258.874 326.169 258.77 326.738 258.44C327.306 258.109 327.729 257.577 327.921 256.949C328.113 256.322 328.061 255.645 327.775 255.053C327.488 254.462 326.989 254 326.376 253.76Z" fill="white"/>
<path d="M375.678 258.965L374.812 258.871C373.763 258.891 372.729 258.626 371.82 258.105C370.911 257.583 370.161 256.825 369.651 255.911C369.056 254.908 368.751 253.76 368.77 252.595C368.789 251.43 369.132 250.293 369.76 249.311C372.501 245.235 377.515 245.994 381.96 247.457C382.266 245.67 382.46 243.866 382.542 242.056C382.437 239.016 382.047 235.992 381.379 233.024C380.905 230.859 380.556 228.668 380.332 226.464C380.176 224.862 380.128 223.272 380.08 221.683C380.033 220.093 379.998 218.887 379.867 217.562L379.919 217.076C379.356 214.567 379.756 211.939 381.042 209.711C381.438 209.313 381.911 209.001 382.433 208.794C382.955 208.587 383.514 208.49 384.076 208.508L384.691 208.902C384.837 209.291 384.89 209.708 384.845 210.121C384.801 210.533 384.66 210.93 384.435 211.279L383.527 211.563L382.761 211.044L382.849 210.233C382.559 210.254 382.276 210.333 382.017 210.465C381.759 210.596 381.529 210.778 381.342 211C380.101 212.341 380.34 215.209 380.66 217.319L380.608 217.805C380.457 219.21 380.744 220.607 380.815 221.981C380.887 223.354 380.911 225.16 381.013 226.756C381.115 228.351 381.642 231.085 382.077 233.154C382.762 236.195 383.162 239.293 383.271 242.407C383.213 244.311 383.009 246.207 382.66 248.079L384.979 248.93L386.774 249.56L387.262 249.613C390.852 250.874 396.291 252.772 398.908 249.338C399.7 248.224 400.164 246.912 400.248 245.549L399.702 244.506C399.291 243.585 399.085 242.586 399.099 241.578C399.113 240.57 399.347 239.577 399.784 238.669L400.42 238.355C400.589 237.858 400.863 237.403 401.222 237.021C403.792 234.019 405.761 234.559 406.9 235.174C408.388 236.581 409.296 238.491 409.446 240.53C410.176 240.122 410.802 239.552 411.276 238.864C411.749 238.176 412.057 237.388 412.175 236.562C411.854 235.201 412.008 233.772 412.612 232.511L413.357 232.209L413.84 232.807L413.805 233.131C413.788 234.293 413.663 235.45 413.433 236.588L413.873 238.603L414.136 239.724C414.831 237.34 415.745 235.472 417.254 235.197C417.557 235.097 417.879 235.063 418.196 235.097C418.514 235.131 418.821 235.233 419.096 235.396C420.007 236.323 420.556 237.545 420.642 238.841C420.652 239.459 420.586 240.075 420.444 240.677C420.31 241.919 420.229 242.676 421.405 243.458C422.266 243.927 423.279 244.037 424.221 243.762C425.615 243.423 426.847 242.608 427.702 241.459C427.089 240.671 426.647 239.765 426.402 238.799C426.157 237.832 426.116 236.825 426.28 235.842C426.347 235.294 426.595 234.783 426.985 234.39C427.374 233.997 427.883 233.744 428.432 233.67L429.516 233.787C429.749 233.077 430.156 232.437 430.699 231.924C431.242 231.41 431.905 231.039 432.627 230.844C433.225 230.782 433.826 230.911 434.345 231.213C434.864 231.514 435.274 231.972 435.515 232.521L435.567 232.035C436.179 227.922 437.184 223.877 438.568 219.955L438.597 219.685C439.616 216.844 440.75 214.453 442.368 214.19C442.599 214.175 442.831 214.219 443.041 214.318C443.251 214.417 443.432 214.568 443.567 214.757C444.389 215.774 443.891 217.851 443.368 219.653L443.327 220.031C441.664 225.755 439.231 231.227 436.094 236.299C435.784 237.748 435.888 239.254 436.392 240.648C436.453 240.84 436.576 241.008 436.742 241.124C436.907 241.241 437.107 241.3 437.309 241.293C438.392 241.41 440.072 240.061 441.516 238.359C440.981 235.186 442.407 230.095 444.918 229.163L445.297 229.204C445.79 228.681 446.468 228.369 447.187 228.335C447.906 228.3 448.611 228.545 449.153 229.019C449.716 229.434 450.165 229.984 450.461 230.617C450.756 231.25 450.888 231.947 450.844 232.643C451.992 231.51 453.026 230.267 453.929 228.933C454.066 228.147 454.152 227.353 454.185 226.556L454.905 225.978C455.126 225.986 455.339 226.057 455.52 226.183C455.701 226.309 455.841 226.485 455.924 226.689C455.977 227.184 455.924 227.684 455.769 228.157C455.615 228.63 455.361 229.065 455.026 229.433C454.927 230.351 454.834 231.216 454.361 232.039C454.923 231.254 455.646 230.597 456.483 230.112C457.319 229.628 458.25 229.326 459.212 229.229L459.7 229.281L459.647 229.767C459.601 230.2 459.548 230.686 459.49 231.226C459.281 233.17 458.612 236.322 459.434 237.339C460.256 238.357 462.088 237.626 465.043 236.141C467.641 234.658 470.128 232.991 472.485 231.151L473.433 230.488L473.474 230.11L473.994 229.347L474.766 229.812L474.661 230.785L474.597 231.379L473.349 232.282C466.971 237.059 460.86 240.881 458.631 238.182C457.416 236.739 457.994 233.414 458.364 230.995L458.417 230.509C456.78 231.348 455.383 232.587 454.356 234.11C453.33 235.633 452.707 237.391 452.546 239.22L452.511 239.544L451.846 240.128L452.036 239.383C452.333 237.212 452.82 235.07 453.493 232.983L453.586 232.119L452.159 233.659L452.13 233.929L451.201 234.922C450.262 238.045 447.549 241.358 445.028 241.36C444.567 241.359 444.115 241.229 443.725 240.984C443.334 240.739 443.021 240.389 442.821 239.975C441.664 241.464 439.993 242.472 438.133 242.802C437.685 242.809 437.246 242.682 436.872 242.437C436.498 242.192 436.206 241.841 436.034 241.429L435.507 240.224C435.207 240.722 434.845 241.179 434.429 241.583C433.812 242.279 432.995 242.769 432.089 242.984C431.183 243.199 430.233 243.13 429.367 242.786C428.308 244.212 426.785 245.226 425.058 245.655C424.409 245.802 423.736 245.818 423.08 245.7C422.424 245.583 421.799 245.334 421.242 244.97C420.607 244.541 420.12 243.929 419.844 243.215C419.568 242.502 419.518 241.722 419.699 240.979C419.809 240.464 419.865 239.939 419.868 239.413C419.816 238.454 419.429 237.543 418.776 236.836L417.963 236.749C416.508 237.029 415.431 241.94 415.04 243.537L414.964 244.239L414.9 244.833L414.084 245.292L413.148 244.316L413.2 243.83C413.329 242.272 413.183 240.703 412.768 239.194C412.033 240.471 410.906 241.479 409.554 242.071C409.612 243.595 409.336 245.113 408.746 246.519C408.587 246.979 408.338 247.403 408.012 247.765C407.687 248.127 407.292 248.42 406.85 248.627C406.409 248.834 405.931 248.951 405.444 248.971C404.956 248.99 404.47 248.912 404.013 248.741C403.085 248.442 402.254 247.899 401.607 247.171C401.366 248.297 400.897 249.361 400.229 250.3C397.037 254.492 391.02 252.368 387.062 250.957L386.629 250.911L385.122 250.147L383.013 249.374C382.174 253.6 380.308 258.207 375.949 258.994L375.678 258.965ZM374.459 247.905C373.737 248.027 373.047 248.292 372.431 248.686C371.814 249.079 371.283 249.593 370.87 250.196C370.392 250.977 370.138 251.873 370.136 252.788C370.134 253.704 370.384 254.602 370.859 255.385C371.249 256.13 371.846 256.749 372.578 257.166C373.31 257.584 374.146 257.784 374.988 257.743C379.18 257.484 380.987 252.925 381.748 248.909C379.416 248.036 376.901 247.765 374.436 248.121L374.459 247.905ZM402.101 245.639C402.724 246.612 403.641 247.361 404.72 247.779C405.328 247.878 405.952 247.744 406.466 247.404C406.98 247.065 407.346 246.544 407.492 245.947C407.938 244.937 408.168 243.845 408.167 242.741C407.169 243.253 406.072 243.544 404.951 243.597C403.753 243.582 402.597 243.148 401.686 242.371C401.814 243.37 401.834 244.379 401.745 245.382L402.101 245.639ZM443.371 238.941C443.413 239.249 443.559 239.533 443.785 239.746C444.012 239.959 444.304 240.089 444.614 240.113C445.969 240.259 447.737 238.592 448.837 236.525C448.283 236.881 447.633 237.059 446.974 237.035C446.305 236.944 445.696 236.605 445.268 236.086C444.707 237.083 444.073 238.037 443.371 238.941ZM429.88 241.585C430.511 241.803 431.194 241.826 431.838 241.652C432.482 241.478 433.059 241.114 433.493 240.608C434.065 240.036 434.528 239.363 434.857 238.624C434.389 239.038 433.853 239.369 433.272 239.601C432.866 239.758 432.428 239.816 431.994 239.769C431.56 239.723 431.144 239.573 430.781 239.332L430.51 239.303C430.371 240.173 430.15 241.027 429.851 241.855L429.88 241.585ZM428.915 235.798C428.915 235.798 428.23 236.052 428.029 236.905C427.813 238.318 428.061 239.763 428.735 241.024C429.449 239.318 429.651 237.442 429.318 235.623L428.993 235.588L428.915 235.798ZM444.795 231.827C443.882 233.45 443.401 235.28 443.401 237.141C443.851 236.525 444.251 235.874 444.597 235.194L444.649 234.708C444.435 233.846 444.419 232.948 444.604 232.08L444.795 231.827ZM433.068 232.858C432.49 233.105 431.984 233.493 431.596 233.986C431.208 234.479 430.95 235.061 430.846 235.679C430.68 236.106 430.644 236.572 430.741 237.02C430.839 237.468 431.067 237.877 431.396 238.197L432.696 238.337C433.733 237.782 434.612 236.974 435.251 235.989C435.281 235.308 435.127 234.631 434.805 234.029C434.429 233.442 433.849 232.724 433.128 232.81L433.068 232.858ZM446.098 234.481L446.069 234.751L447.034 235.456C447.568 235.4 448.086 235.237 448.556 234.978C449.026 234.719 449.44 234.369 449.772 233.948C449.894 232.814 450.11 230.816 448.897 229.865C448.749 229.723 448.573 229.612 448.38 229.539C448.188 229.467 447.982 229.433 447.777 229.442C447.571 229.45 447.369 229.5 447.183 229.589C446.998 229.677 446.832 229.802 446.696 229.956L446.666 230.226C447.033 231.657 446.87 233.172 446.207 234.493L446.098 234.481ZM405.256 236.199C404.219 236.515 403.319 237.168 402.699 238.054C402.404 238.39 402.219 238.809 402.171 239.254C402.124 239.699 402.214 240.147 402.432 240.539C402.73 241.095 403.177 241.558 403.723 241.877C404.268 242.197 404.892 242.359 405.524 242.347C406.645 242.236 407.729 241.887 408.703 241.324C408.691 239.481 407.957 237.716 406.658 236.404L405.521 236.282L405.256 236.199ZM443.305 215.657C443.305 215.657 442.266 216.146 440.777 220.302L440.742 220.626C439.366 224.437 438.373 228.375 437.777 232.382L437.712 232.976C439.925 228.802 441.719 224.42 443.068 219.894L443.109 219.515C443.887 216.867 443.493 215.951 443.516 215.735" fill="white"/>
</g>
<g clip-path="url(#clip2)">
<path d="M261.495 45.5531C261.11 44.3999 260.918 43.0544 260.533 41.9012C260.34 40.7479 260.148 39.5947 259.763 38.4414C259.57 37.8648 258.993 37.4804 258.415 37.4804C258.03 37.2882 257.453 37.2882 256.875 37.6726C256.683 37.8648 256.49 37.8648 256.298 38.057C255.72 38.4414 255.528 39.2103 255.72 39.7869C257.26 45.1687 247.443 44.5921 243.015 44.5921C242.053 41.5168 241.668 38.4414 240.898 35.1739C242.438 34.4051 245.133 33.444 245.518 35.1739C245.903 36.9038 248.79 36.3272 248.598 34.5973C248.213 32.483 247.635 30.3687 247.25 28.2544C247.25 28.0622 247.25 27.87 247.058 27.4856V27.1012C246.673 25.3713 243.785 25.9479 243.978 27.6778C243.978 28.2544 244.17 28.6388 244.17 29.2155C244.17 29.5999 244.17 29.7921 243.978 29.9843C243.593 30.3687 242.438 30.3687 241.86 30.5609C241.09 30.7531 240.32 30.5609 239.743 30.7531C239.358 29.0233 238.973 27.2934 238.588 25.5635C238.203 23.8336 238.01 22.1038 237.818 20.3739C240.898 19.6051 252.255 15.3765 253.025 20.3739C253.218 21.5272 253.988 21.9116 255.143 21.7194C255.528 21.7194 255.913 21.5272 256.298 21.3349C257.068 20.9505 257.453 20.1817 257.26 19.4129C256.298 15.3765 256.683 9.80248 250.908 11.3401C248.02 12.109 245.325 13.2622 242.245 13.8388C238.395 14.6077 233.968 15.7609 230.118 15.3765C229.54 15.3765 229.155 15.5687 228.77 15.9531C227.23 16.5297 228.193 19.2207 230.118 18.644H230.31C230.31 18.8362 230.31 19.0285 230.31 19.2207C231.85 28.0622 235.123 36.3272 236.855 45.1687L236.663 45.3609C235.315 46.322 234.545 47.283 234.93 48.8207C234.93 49.2051 234.93 49.5895 234.93 49.9739C234.93 50.7427 235.7 51.5116 236.663 51.5116C240.513 50.9349 244.363 50.3583 248.213 49.7817C250.138 49.3973 252.063 49.2051 253.988 49.0129C256.105 48.8207 258.223 47.8596 260.34 47.6674C261.303 47.4752 261.88 46.5142 261.495 45.5531Z" fill="#EC1C24"/>
<path d="M283.633 39.0185C282.093 38.634 281.708 34.7899 281.323 33.6366C280.745 31.5223 279.59 29.7925 277.858 28.2548C274.393 25.3717 270.158 27.2938 267.463 30.1769C267.27 29.6003 266.885 29.0236 266.693 28.2548C266.308 27.6782 265.538 27.486 264.96 27.6782C263.805 28.0626 262.65 28.447 261.495 28.8314C259.57 29.4081 260.533 32.2912 262.458 31.7146L262.65 31.9068L263.035 32.2912C263.998 33.4444 263.613 35.7509 263.613 37.0964C263.613 37.4808 264.575 40.9405 264.383 41.1327C263.42 41.3249 263.035 41.9016 262.843 42.8626C262.843 43.6314 263.035 44.4003 263.228 45.1691C263.42 45.7457 264.19 46.3223 264.768 46.3223C267.463 45.7457 270.158 45.3613 272.853 44.7847C273.815 44.5925 274.008 43.6314 273.815 42.8626C273.238 40.5561 270.35 41.3249 269.773 39.5951L269.58 39.4029C269.388 38.4418 269.388 37.4808 269.388 36.5198C269.388 36.3275 269.388 36.1353 269.388 35.9431C269.58 34.0211 270.543 32.099 272.66 31.3301C275.933 29.9847 277.858 36.5198 278.628 39.7873H278.435C277.858 39.9795 277.473 40.3639 277.473 40.9405C277.473 41.5172 277.473 42.0938 277.473 42.6704C277.473 43.6314 278.628 44.4003 279.59 44.0159C281.708 43.247 284.98 43.6314 284.98 40.3639C284.98 39.7873 284.403 39.2107 283.633 39.0185Z" fill="#EC1C24"/>
<path d="M307.31 48.8209C306.155 49.3976 304.808 49.9742 303.268 50.5508C303.268 50.1664 303.268 49.782 303.075 49.3976C303.653 40.3638 304.23 31.5222 304.808 22.4885C304.808 21.5274 304.23 20.5664 303.075 20.5664C302.498 20.5664 301.92 20.7586 301.343 20.9508C300.573 21.143 300.38 21.9119 300.38 22.4885C300.38 23.0651 300.38 23.4495 300.38 24.0261C298.455 22.2963 295.375 21.9119 292.873 23.4495C289.023 25.5638 287.868 29.9846 287.868 34.021C287.868 37.6729 289.6 41.7093 293.45 42.4781C296.145 43.0547 298.263 41.9015 300.188 40.1716C300.188 44.208 299.803 48.4365 298.84 52.4729L298.455 52.6651C293.065 54.7794 288.253 58.2391 286.135 63.6209C284.403 68.2339 286.905 73.808 292.103 74.0002C296.915 74.1924 300.765 70.5404 302.113 66.1196C303.268 62.2755 303.075 58.0469 303.268 54.0106C305.193 53.2417 307.118 52.4729 309.043 51.5119C310.775 50.5508 309.043 47.8599 307.31 48.8209ZM298.263 37.4807C296.723 39.4028 293.835 39.7872 292.295 38.0573C293.643 38.8261 295.568 38.6339 297.3 37.8651C297.878 37.6729 298.263 37.2885 298.84 36.9041C298.455 37.2885 298.263 37.4807 298.263 37.4807ZM298.455 32.2911C298.07 34.0209 294.028 37.2885 293.065 34.5976C292.488 33.2521 292.873 31.7145 293.643 30.369L294.028 30.1768C296.338 28.2547 299.225 28.6391 298.455 32.2911ZM290.755 67.0807C289.6 65.543 290.755 62.8521 291.525 61.3145C293.065 58.4313 296.723 56.7015 299.61 55.5482H299.803C299.61 59.3924 298.84 63.0443 296.723 65.9274C295.568 67.0807 292.295 69.0028 290.755 67.0807Z" fill="#EC1C24"/>
<path d="M324.828 34.5969C324.058 32.6748 323.48 29.9839 320.593 30.1761C319.63 30.3683 318.86 31.1372 319.245 32.2904C319.63 33.4437 317.128 33.8281 314.818 34.0203C314.24 31.1372 313.47 28.4463 312.893 25.5631C312.7 24.6021 312.508 23.4489 312.315 22.4878C311.738 19.6047 311.545 16.7216 311.353 13.6463L312.123 13.4541C314.048 12.8774 313.085 9.99431 311.16 10.5709C309.235 11.1476 307.118 11.9164 305 12.1086C303.075 12.3008 303.268 15.3761 305.193 15.1839C305.578 15.1839 305.963 14.9917 306.348 14.9917C307.503 18.067 308.273 21.3346 308.85 24.4099C309.043 25.7554 310.775 33.6359 308.85 34.2125C308.273 34.4047 307.695 35.1735 307.695 35.7502C307.888 36.519 307.888 37.0956 308.08 37.8645C308.273 38.4411 309.043 39.0177 309.62 39.0177C314.24 38.6333 318.668 37.48 323.095 36.9034C324.443 36.519 325.213 35.558 324.828 34.5969Z" fill="#EC1C24"/>
<path d="M339.843 15.1844C338.88 15.3766 337.918 15.5688 336.955 15.9532C336.378 16.1454 335.8 16.9142 335.8 17.4909C335.8 18.2597 335.993 19.0285 336.185 19.7973L335.993 19.6051C334.838 18.6441 333.49 18.2597 331.758 18.8363C326.368 19.6051 323.288 27.1012 325.79 32.2909C327.138 34.9818 330.603 35.9428 333.298 34.4051C334.838 33.6363 336.185 32.2909 336.955 30.7532C337.148 31.7142 337.533 32.8675 337.725 33.8285C337.918 34.4051 338.303 34.7896 338.88 34.7896C339.265 34.7896 339.65 34.9818 340.035 34.9818H340.42C341.383 35.174 342.538 34.7896 342.538 33.4441C342.153 28.0623 340.613 22.4883 341.383 16.9142C341.575 16.1454 340.998 14.9922 339.843 15.1844ZM333.49 28.0623C333.298 29.0233 331.95 29.7922 330.988 29.5999C329.255 29.4077 329.255 26.3324 329.833 25.1792C330.025 24.987 330.025 24.7947 330.025 24.6025C330.218 24.4103 330.41 24.0259 330.603 23.8337C330.795 23.6415 330.988 23.4493 331.18 23.2571C331.373 23.0649 331.565 22.8727 331.758 23.0649C333.49 23.0649 333.875 26.5246 333.49 28.0623Z" fill="#EC1C24"/>
<path d="M357.36 17.1063C356.013 15.5686 354.28 14.992 352.355 15.5686C350.623 16.1452 349.275 17.2985 348.313 18.8361C348.12 17.8751 348.12 16.9141 348.12 15.953C348.12 14.4154 346.388 14.2232 345.618 14.992C344.655 14.992 343.5 15.7608 343.885 17.1063C344.463 19.605 344.078 22.1037 344.27 24.4102C344.463 27.1011 345.618 29.4076 345.233 32.0985C345.04 33.2517 346.003 34.2128 347.35 33.8284C347.928 33.6361 348.698 33.4439 349.468 33.2517C350.045 33.0595 350.623 32.2907 350.623 31.7141C349.853 27.8699 350.238 23.4491 353.318 20.9504C356.398 18.6439 356.205 29.792 356.398 30.9452C356.59 31.9063 357.553 32.8673 358.515 32.2907C359.093 32.0985 359.478 31.9063 360.055 31.7141C360.633 31.5219 361.21 30.9452 361.21 30.1764C360.248 25.7556 360.248 20.566 357.36 17.1063Z" fill="#EC1C24"/>
<path d="M381.422 22.2962C381.037 19.9897 380.652 17.491 380.267 15.1845C379.882 12.3014 379.305 9.61048 378.92 6.72736C378.728 5.57411 378.535 4.61307 378.535 3.45983C378.535 3.07541 378.535 2.691 378.535 2.30658V2.11437C379.112 0.961126 377.572 -0.576536 376.417 0.192295C375.262 -0.192121 373.915 0.768918 374.3 2.11437C374.492 2.8832 374.685 3.65204 374.878 4.42087C374.878 7.11178 375.262 9.80268 375.647 12.3014C375.647 13.4546 375.647 14.6079 375.647 15.7611V15.9533C373.722 13.839 370.45 14.0313 367.755 15.3767C364.29 17.2988 362.75 20.3741 362.75 24.2183C362.75 27.4858 364.482 31.33 367.947 31.5222C371.605 31.7144 374.3 29.4079 376.033 26.3326C376.033 27.8702 376.033 29.2157 376.033 30.7533C376.033 31.7144 377.187 32.4832 378.15 32.0988C378.727 31.9066 379.497 31.5222 380.075 31.5222C380.46 31.33 380.845 30.9455 381.037 30.5611C381.422 30.3689 381.807 29.9845 382 29.4079C382.192 26.9092 381.615 24.6027 381.422 22.2962ZM372.567 23.2572C371.605 25.3715 369.873 25.9481 368.333 24.0261L367.947 23.8339C368.14 22.4884 368.525 21.1429 368.91 20.5663C369.872 19.4131 371.797 19.2209 372.76 20.3741C373.337 21.1429 372.952 22.2962 372.567 23.2572Z" fill="#EC1C24"/>
</g>
<defs>
<clipPath id="clip0">
<rect width="232.019" height="273.932" fill="white" transform="translate(0.320312 39.5176) rotate(-5.77728)"/>
</clipPath>
<clipPath id="clip1">
<rect width="396.989" height="216.922" fill="white" transform="translate(172.247 90) rotate(6.15212)"/>
</clipPath>
<clipPath id="clip2">
<rect width="154" height="74" fill="white" transform="translate(228)"/>
</clipPath>
</defs>
</svg>
