<svg width="46" height="33" viewBox="0 0 46 33" fill="none" xmlns="http://www.w3.org/2000/svg">
<g clip-path="url(#clip0)">
<path d="M33.1842 11.5914C33.1842 17.2104 23.1542 30.0025 23.1542 30.0025C23.1542 30.0025 13.1169 17.2178 13.1169 11.5914C13.0808 10.2333 13.3137 8.88159 13.8017 7.61616C14.2897 6.35073 15.023 5.1972 15.9583 4.22368C16.8936 3.25015 18.0119 2.47637 19.2472 1.94802C20.4825 1.41967 21.8097 1.14746 23.1506 1.14746C24.4914 1.14746 25.8187 1.41967 27.054 1.94802C28.2893 2.47637 29.4076 3.25015 30.3429 4.22368C31.2781 5.1972 32.0114 6.35073 32.4994 7.61616C32.9875 8.88159 33.2203 10.2333 33.1842 11.5914V11.5914Z" stroke="#F5A300" stroke-width="2.5" stroke-miterlimit="10"/>
<path d="M23.1576 15.9661C25.6824 15.9661 27.7292 13.8922 27.7292 11.3339C27.7292 8.77558 25.6824 6.70166 23.1576 6.70166C20.6327 6.70166 18.5859 8.77558 18.5859 11.3339C18.5859 13.8922 20.6327 15.9661 23.1576 15.9661Z" stroke="#F5A300" stroke-width="2.5" stroke-miterlimit="10"/>
</g>
<defs>
<clipPath id="clip0">
<rect width="46" height="33" fill="white"/>
</clipPath>
</defs>
</svg>
