<svg width="301" height="182" viewBox="0 0 301 182" fill="none" xmlns="http://www.w3.org/2000/svg">
<path d="M41.2516 74.0703C41.2516 74.0703 41.7639 57.7161 58.6684 55.1607C75.5729 52.6053 81.2078 68.9596 70.4503 84.2918C59.6929 99.6239 43.8129 117 43.8129 117C43.8129 117 21.2735 104.735 8.46708 89.4025C-4.33938 73.5593 -1.77808 57.7161 10.5161 53.6275C22.8103 49.5389 31.5187 59.7603 35.6168 65.3821C39.7149 71.515 41.2516 74.0703 41.2516 74.0703Z" fill="#F5A300"/>
<path d="M29.9817 72.0265C29.9817 66.9157 24.8591 63.3382 19.7365 63.8493C17.1752 63.3382 14.1017 63.3382 12.5649 66.4047C11.0281 68.96 12.0526 72.5375 14.1016 74.5818C17.6875 78.1593 29.4694 79.6925 29.9817 72.0265ZM20.761 67.9379C21.7855 67.9379 22.8101 67.9379 23.3223 68.449C22.2978 67.9379 21.2733 67.9379 20.761 67.9379Z" fill="white"/>
<path d="M110.53 28.2243C110.53 28.2243 115.784 16.19 129.142 19.3219C142.5 22.4537 141.827 36.3194 129.243 44.5399C116.659 52.7604 99.6489 60.9781 99.6489 60.9781C99.6489 60.9781 86.507 45.1231 81.5315 29.8826C76.7082 14.2613 83.3368 3.21822 93.7163 3.83409C104.096 4.44996 107.54 14.6612 108.919 20.0713C110.146 25.8623 110.53 28.2243 110.53 28.2243Z" fill="#EC1C24"/>
<path d="M102.74 23.3443C104.263 19.5358 101.511 15.3438 97.5415 14.1986C95.7851 13.0547 93.4948 12.1391 91.4361 13.9663C89.5296 15.4127 89.2273 18.3838 90.1451 20.5176C91.7515 24.2517 100.074 28.9043 102.74 23.3443ZM97.0869 17.5506C97.8504 17.8558 98.6138 18.161 98.8433 18.6944C98.2321 18.0084 97.4687 17.7032 97.0869 17.5506Z" fill="white"/>
<path d="M210.493 136.28C210.493 136.28 197.656 144.547 199.717 154.518C201.779 164.488 211.405 171.65 229.091 170.167C246.904 168.67 267.092 162.27 277.355 153.896C287.746 145.508 288.567 137.624 284.308 130.275C279.934 123.063 273.91 121.685 271.545 121.053C269.191 120.546 265.291 119.95 265.291 119.95L210.493 136.28Z" fill="#F5A300"/>
<path d="M187.391 91.0369C187.391 91.0369 190.858 110.781 196.597 121.559C202.325 132.211 216.399 145.525 234.7 144.479C252.862 143.321 263.693 135.096 268.823 120.768C273.953 106.44 271.222 90.5392 268.975 82.808C266.718 74.9515 264.33 68.4999 262.121 66.8358C259.911 65.1718 252.505 61.5265 236.054 64.5271C219.603 67.5277 209.138 71.2879 201.755 74.9761C194.372 78.6642 191.077 82.0473 189.068 85.4213C186.677 88.8356 187.391 91.0369 187.391 91.0369Z" fill="#8EB400"/>
<path d="M265.593 78.6021C265.593 78.6021 270.775 71.7159 278.631 71.5217C286.486 71.3275 292.651 75.2424 292.893 83.5855C293.136 91.9285 287.244 99.5235 281.589 104.05C275.934 108.577 270.412 110.301 270.412 110.301L270.062 103.617C270.062 103.617 274.165 103.312 279.529 98.4349C284.894 93.5582 287.661 85.6587 286.597 82.4741C285.66 79.2761 282.795 76.1546 276.622 77.8198C270.577 79.4715 267.872 85.2089 267.872 85.2089L265.593 78.6021Z" fill="#8EB400"/>
<path d="M202.015 97.3165C202.015 97.3165 213.82 85.1145 227.926 81.2743C242.032 77.4342 253.582 79.2213 255.286 79.6668C256.864 80.1256 257.968 81.0077 257.968 81.0077C257.968 81.0077 245.19 89.5713 231.129 93.9054C216.93 98.1292 209.869 97.8684 207.588 98.1064C205.296 98.2209 201.691 97.9736 201.691 97.9736L202.015 97.3165Z" fill="#F5A300"/>
<path d="M237.004 145.388C222.363 146.933 207.724 140.012 199.181 126.635C189.623 111.975 187.119 92.9067 187.096 92.6564C187.062 92.2809 187.294 92.0037 187.676 91.9635C188.058 91.9232 188.335 92.1466 188.369 92.5221C188.392 92.7724 190.873 111.59 200.27 125.888C209.99 140.91 227.569 147.647 243.951 142.634C260.843 137.567 270.539 124.035 271.356 104.742C272.101 87.4796 264.234 71.6307 264.222 71.5055C264.061 71.1435 264.165 70.8797 264.536 70.7143C264.907 70.5488 265.173 70.6471 265.334 71.0092C265.345 71.1343 273.363 87.2202 272.652 104.858C271.891 124.776 261.837 138.599 244.32 143.859C241.83 144.753 239.423 145.133 237.004 145.388Z" fill="#8EB400"/>
<path d="M212.538 98.3633C201.754 99.4947 192.68 98.3154 189.076 95.3085C187.141 93.7563 186.43 91.5743 186.722 89.1616C187.422 84.1987 192.794 78.4949 199.672 75.2659C209.136 70.888 219.82 67.2597 220.57 67.0556C221.055 66.754 225.128 65.073 241.207 63.01C241.841 62.9434 242.476 62.8769 243.11 62.8103C254.782 61.5857 260.151 64.2821 262.557 66.7878C264.399 68.7258 265.144 71.2804 264.759 74.079C263.42 81.8671 240.918 90.7471 231.376 94.2556C225.537 96.2472 219.135 97.6712 212.538 98.3633ZM243.096 64.0655C242.462 64.132 241.828 64.1986 241.193 64.2651C224.619 66.5055 221.064 68.2575 221.064 68.2575L220.937 68.2708C220.81 68.2842 209.872 71.9391 200.166 76.4678C193.657 79.5327 188.632 84.824 188.025 89.401C187.698 91.4412 188.364 93.1265 189.896 94.4703C193.224 97.2554 202.032 98.3372 212.436 97.2457C218.779 96.5802 225.182 95.1562 230.766 93.1912C249.99 86.285 262.514 78.9532 263.352 74.1012C263.586 72.4469 263.497 70.0741 261.506 67.901C259.227 65.382 254.261 62.8941 243.096 64.0655Z" fill="#8EB400"/>
<path d="M271.179 110.352C270.795 110.392 270.516 110.168 270.482 109.791C270.448 109.414 270.681 109.136 271.065 109.095C271.193 109.082 279.344 107.842 287.5 96.7092C291.752 90.934 293.088 84.3248 291.051 78.959C289.545 75.1859 286.48 72.7187 282.54 71.9925C273.219 70.3114 267.347 78.1597 267.219 78.1732C266.986 78.4514 266.602 78.4919 266.324 78.2676C266.045 78.0433 266.011 77.6664 266.116 77.4017C266.232 77.2626 272.558 68.7322 282.67 70.5836C287.005 71.395 290.488 74.1986 292.028 78.3486C294.217 83.9522 292.926 91.0639 288.324 97.2564C280.098 109.031 271.563 110.311 271.179 110.352Z" fill="#8EB400"/>
<path d="M271.764 103.672L271.508 103.699C271.125 103.74 270.835 103.39 270.928 103C270.894 102.623 271.255 102.331 271.65 102.416C271.65 102.416 274.601 102.232 280.99 95.8529C284.889 91.8917 286.699 86.2489 285.416 82.0733C284.884 80.4811 283.667 78.454 280.775 77.8714C273.956 76.6884 269.354 84.2738 269.354 84.2738C269.122 84.5519 268.749 84.718 268.471 84.4937C268.192 84.2695 268.03 83.9062 268.263 83.6281C268.252 83.5025 269.487 81.4705 271.639 79.5953C274.502 77.0112 277.768 76.0329 281.044 76.5751C283.797 77.0456 285.897 78.8528 286.66 81.5618C288.105 86.1007 286.085 92.2728 281.954 96.5121C275.809 102.739 272.659 103.578 271.764 103.672Z" fill="#8EB400"/>
<path d="M235.942 110.976C235.942 110.976 231.338 104.245 226.534 106.651C221.73 109.057 223.97 115.278 229.608 120.634C235.246 125.989 242.045 129.956 242.045 129.956C242.045 129.956 248.835 118.225 249.103 109.841C249.371 101.456 243.622 100.544 240.105 102.94C236.577 105.212 235.942 110.976 235.942 110.976Z" fill="#EC1C24"/>
<path d="M242.079 130.331L241.813 130.233C241.813 130.233 234.874 126.154 229.248 120.924C225.161 117.05 222.977 112.85 223.468 109.759C223.714 108.214 224.76 106.964 226.233 106.176C226.848 105.858 227.347 105.678 227.985 105.611C231.301 105.261 234.149 108.252 235.445 109.762C235.796 107.952 236.88 104.293 239.677 102.478C240.652 101.869 241.777 101.497 242.797 101.389C244.456 101.214 246.043 101.68 247.166 102.701C248.289 103.722 249.503 105.746 249.485 109.799C249.217 118.184 242.66 129.637 242.439 130.04L242.079 130.331ZM228.204 106.601C227.693 106.655 227.195 106.834 226.696 107.013C225.338 107.663 224.653 108.621 224.384 109.916C223.986 112.617 226.02 116.58 229.829 120.229C234.482 124.676 240.216 128.249 241.849 129.216C243.07 127.062 248.338 117.01 248.581 109.768C248.702 106.844 247.986 104.64 246.585 103.395C245.601 102.486 244.408 102.106 243.005 102.254C242.112 102.348 241.114 102.706 240.267 103.302C236.982 105.421 236.324 110.935 236.336 111.06C236.359 111.311 236.115 111.463 235.987 111.477C235.732 111.504 235.593 111.392 235.454 111.28C235.443 111.154 232.03 106.197 228.204 106.601Z" fill="#EC1C24"/>
<path d="M233.464 170.214C217.084 171.936 204.948 168.184 200.543 159.218C194.112 146.317 208.172 137.42 208.299 137.407C208.542 137.256 208.807 137.353 208.957 137.589C209.107 137.825 209.002 138.087 208.76 138.239C208.76 138.239 205.363 140.356 202.749 144.025C199.336 148.784 198.901 153.859 201.409 158.876C207.379 170.946 228.346 173.141 254.744 164.581C274.536 158.099 281.901 150.284 284.611 144.845C286.567 140.993 286.84 136.941 285.334 133.077C281.266 122.19 269.933 121.621 269.806 121.635C269.552 121.661 269.403 121.426 269.38 121.177C269.357 120.928 269.6 120.776 269.854 120.75C269.981 120.736 281.96 121.362 286.2 132.734C287.74 136.972 287.479 141.149 285.418 145.263C281.411 153.353 270.886 160.243 255.077 165.426C247.363 167.998 240.067 169.519 233.464 170.214Z" fill="#F5A300"/>
<path d="M153.266 108.445C151.277 107.771 149.487 106.445 148.912 104.358C148.198 102.161 150.227 99.042 152.056 97.965C157.682 94.8459 163.929 101.385 165.518 106.143L165.552 106.518C165.968 106.853 165.897 107.492 165.677 107.894C165.236 108.698 164.611 108.89 163.836 108.846C161.301 110.629 154.988 109.021 153.266 108.445Z" fill="#8EB400"/>
<path d="M151.381 101.766L151.358 101.516C151.081 101.293 151.047 100.917 151.278 100.64C151.996 100.059 153.073 99.1882 153.997 99.4696C154.529 99.6662 154.829 100.14 154.747 100.654C154.665 101.167 154.191 101.596 153.705 101.9C153.23 102.329 151.61 102.879 151.381 101.766Z" fill="white"/>
<path d="M159.496 117.308C159.496 117.308 155.562 119.237 152.289 127.027C149.017 134.817 143.304 142.612 136.599 142.309C128.727 141.877 126.35 131.276 137.391 124.181C144.914 119.35 159.496 117.308 159.496 117.308Z" fill="#8EB400"/>
<path d="M241.366 108.239C241.32 107.738 241.414 107.348 241.762 106.932C241.983 106.529 242.481 106.35 242.979 106.171C243.489 106.117 243.883 106.202 244.299 106.538L244.438 106.649C244.566 106.636 244.682 106.497 244.937 106.47C244.798 106.358 244.786 106.233 244.647 106.121C244.231 105.786 243.571 105.602 242.934 105.669C242.297 105.737 241.81 106.041 241.473 106.583C241.125 106.999 240.927 107.653 240.984 108.279C240.729 108.306 240.601 108.32 240.346 108.346C240.278 107.594 240.465 106.816 240.929 106.26C241.393 105.705 241.996 105.262 242.888 105.168C243.653 105.087 244.44 105.257 244.996 105.705C245.401 105.915 245.69 106.264 245.851 106.627C245.608 106.779 245.237 106.945 244.739 107.124C244.24 107.303 243.753 107.607 243.127 107.8C242.629 107.979 242.003 108.172 241.366 108.239ZM244.912 107.612L244.923 107.737C244.969 108.238 244.875 108.628 244.527 109.044C244.306 109.447 243.808 109.626 243.31 109.805C242.8 109.859 242.406 109.774 241.99 109.438C241.851 109.327 241.712 109.215 241.701 109.089C241.573 109.103 241.318 109.13 241.202 109.268C241.352 109.506 241.491 109.618 241.769 109.841C242.185 110.177 242.845 110.36 243.483 110.293C244.12 110.226 244.607 109.922 244.944 109.38C245.292 108.964 245.49 108.31 245.433 107.683C245.421 107.558 245.421 107.558 245.41 107.433C245.653 107.28 245.781 107.267 246.024 107.115L246.395 106.949C246.211 106.336 245.772 105.75 245.228 105.427C244.534 104.868 243.619 104.711 242.727 104.805C241.834 104.9 240.988 105.495 240.535 106.175C239.955 106.869 239.78 107.774 239.859 108.651C239.871 108.776 239.882 108.902 239.894 109.027C240.101 109.891 240.54 110.477 241.223 110.911C241.906 111.345 242.693 111.515 243.585 111.421C244.477 111.327 245.324 110.732 245.777 110.051C246.357 109.357 246.532 108.453 246.452 107.576C246.325 107.589 246.209 107.728 245.954 107.755C246.022 108.507 245.824 109.16 245.36 109.716C244.896 110.271 244.293 110.714 243.412 110.933C242.648 111.014 241.988 110.831 241.316 110.522C240.772 110.2 240.333 109.613 240.149 109C241.284 108.754 242.165 108.534 243.046 108.315C243.799 108.109 244.413 107.791 244.912 107.612Z" fill="#231F20"/>
</svg>
