<svg width="32" height="31" viewBox="0 0 32 31" fill="none" xmlns="http://www.w3.org/2000/svg">
<rect x="0.96582" width="30.2657" height="30.2657" rx="15.1328" fill="#8EB400"/>
<path d="M12.9475 15.1328C12.9475 13.3917 14.3585 11.9799 16.0996 11.9799C17.8407 11.9799 19.2526 13.3917 19.2526 15.1328C19.2526 16.8739 17.8407 18.2858 16.0996 18.2858C14.3585 18.2858 12.9475 16.8739 12.9475 15.1328ZM11.243 15.1328C11.243 17.8151 13.4173 19.9894 16.0996 19.9894C18.7819 19.9894 20.9562 17.8151 20.9562 15.1328C20.9562 12.4505 18.7819 10.2762 16.0996 10.2762C13.4173 10.2762 11.243 12.4505 11.243 15.1328ZM20.0135 10.0837C20.0134 10.3082 20.0799 10.5276 20.2045 10.7143C20.3292 10.901 20.5064 11.0465 20.7137 11.1325C20.9211 11.2185 21.1493 11.2411 21.3694 11.1974C21.5896 11.1537 21.7919 11.0457 21.9507 10.887C22.1095 10.7283 22.2177 10.5261 22.2615 10.306C22.3054 10.0859 22.283 9.85765 22.1972 9.65022C22.1114 9.4428 21.966 9.26549 21.7794 9.1407C21.5928 9.01592 21.3734 8.94926 21.1489 8.94917H21.1485C20.8476 8.94931 20.5591 9.06887 20.3462 9.28159C20.1334 9.49431 20.0138 9.78279 20.0135 10.0837ZM12.2786 22.8314C11.3565 22.7894 10.8553 22.6358 10.5222 22.5061C10.0806 22.3342 9.76555 22.1294 9.43429 21.7986C9.10303 21.4678 8.89798 21.1531 8.72683 20.7115C8.59699 20.3786 8.44339 19.8772 8.40148 18.9551C8.35562 17.9581 8.34647 17.6587 8.34647 15.1329C8.34647 12.6072 8.35638 12.3085 8.40148 11.3107C8.44347 10.3886 8.5982 9.88824 8.72683 9.55434C8.89874 9.11276 9.10349 8.79769 9.43429 8.46644C9.7651 8.13518 10.0799 7.93013 10.5222 7.75898C10.8551 7.62914 11.3565 7.47554 12.2786 7.43362C13.2755 7.38777 13.575 7.37861 16.0996 7.37861C18.6242 7.37861 18.924 7.38852 19.9218 7.43362C20.8439 7.47561 21.3443 7.63035 21.6782 7.75898C22.1198 7.93013 22.4348 8.13563 22.7661 8.46644C23.0974 8.79724 23.3016 9.11276 23.4736 9.55434C23.6034 9.88726 23.757 10.3886 23.7989 11.3107C23.8448 12.3085 23.8539 12.6072 23.8539 15.1329C23.8539 17.6587 23.8448 17.9573 23.7989 18.9551C23.7569 19.8772 23.6026 20.3784 23.4736 20.7115C23.3016 21.1531 23.0969 21.4681 22.7661 21.7986C22.4353 22.1291 22.1198 22.3342 21.6782 22.5061C21.3453 22.6359 20.8439 22.7895 19.9218 22.8314C18.9249 22.8773 18.6254 22.8864 16.0996 22.8864C13.5739 22.8864 13.2752 22.8773 12.2786 22.8314ZM12.2003 5.73208C11.1934 5.77794 10.5054 5.93759 9.90454 6.17139C9.28228 6.41283 8.75551 6.73675 8.22911 7.26232C7.70272 7.78788 7.37963 8.31549 7.13819 8.93775C6.90438 9.53898 6.74473 10.2266 6.69888 11.2335C6.65227 12.2419 6.6416 12.5643 6.6416 15.1328C6.6416 17.7013 6.65227 18.0237 6.69888 19.0322C6.74473 20.0391 6.90438 20.7267 7.13819 21.3279C7.37963 21.9498 7.70279 22.478 8.22911 23.0033C8.75543 23.5287 9.28228 23.8521 9.90454 24.0943C10.5065 24.3281 11.1934 24.4877 12.2003 24.5336C13.2093 24.5794 13.5311 24.5909 16.0996 24.5909C18.6681 24.5909 18.9905 24.5802 19.999 24.5336C21.0059 24.4877 21.6935 24.3281 22.2947 24.0943C22.9166 23.8521 23.4437 23.5289 23.9701 23.0033C24.4965 22.4778 24.8189 21.9498 25.0611 21.3279C25.2949 20.7267 25.4553 20.0391 25.5004 19.0322C25.5462 18.023 25.5569 17.7013 25.5569 15.1328C25.5569 12.5643 25.5462 12.2419 25.5004 11.2335C25.4545 10.2265 25.2949 9.5386 25.0611 8.93775C24.8189 8.31586 24.4957 7.78871 23.9701 7.26232C23.4446 6.73592 22.9166 6.41283 22.2955 6.17139C21.6935 5.93759 21.0058 5.77718 19.9997 5.73208C18.9913 5.68623 18.6689 5.6748 16.1004 5.6748C13.5319 5.6748 13.2093 5.68547 12.2003 5.73208Z" fill="white"/>
</svg>
