<svg width="61" height="61" viewBox="0 0 61 61" fill="none" xmlns="http://www.w3.org/2000/svg">
<path fill-rule="evenodd" clip-rule="evenodd" d="M30.5 30.4999L11.8096 11.8095C11.5693 11.5673 11.4059 11.2595 11.3399 10.9248C11.2739 10.59 11.3081 10.2432 11.4384 9.92789C11.5687 9.61256 11.7893 9.34272 12.0723 9.15224C12.3554 8.96175 12.6884 8.85908 13.0296 8.85713H28.7676C28.9951 8.85713 29.2204 8.90194 29.4306 8.989C29.6407 9.07606 29.8317 9.20367 29.9926 9.36454C30.1535 9.5254 30.2811 9.71638 30.3681 9.92657C30.4552 10.1367 30.5 10.362 30.5 10.5895V30.4999Z" fill="#EB212E"/>
<path fill-rule="evenodd" clip-rule="evenodd" d="M30.5 30.5L49.1904 49.1904C49.4307 49.4326 49.5941 49.7404 49.6601 50.0752C49.7261 50.4099 49.6919 50.7567 49.5616 51.072C49.4313 51.3874 49.2107 51.6572 48.9277 51.8477C48.6446 52.0382 48.3116 52.1408 47.9704 52.1428H32.2324C31.7729 52.1428 31.3323 51.9603 31.0074 51.6354C30.6825 51.3105 30.5 50.8699 30.5 50.4104V30.5Z" fill="#EB212E"/>
<path fill-rule="evenodd" clip-rule="evenodd" d="M30.5 30.5L11.8096 49.1904C11.5673 49.4307 11.2595 49.5941 10.9248 49.6601C10.5901 49.7261 10.2433 49.6919 9.92794 49.5616C9.61261 49.4313 9.34278 49.2107 9.15229 48.9277C8.9618 48.6446 8.85913 48.3116 8.85718 47.9704V32.2324C8.85718 32.0049 8.90199 31.7796 8.98905 31.5694C9.07611 31.3593 9.20372 31.1683 9.36459 31.0074C9.52545 30.8465 9.71643 30.7189 9.92662 30.6319C10.1368 30.5448 10.3621 30.5 10.5896 30.5H30.5Z" fill="#004A76"/>
<path fill-rule="evenodd" clip-rule="evenodd" d="M30.5 30.5L49.1904 11.8096C49.4326 11.5693 49.7404 11.4059 50.0752 11.3399C50.4099 11.2738 50.7567 11.3081 51.072 11.4384C51.3874 11.5687 51.6572 11.7892 51.8477 12.0723C52.0382 12.3554 52.1408 12.6884 52.1428 13.0296V28.7676C52.1428 28.9951 52.098 29.2204 52.0109 29.4305C51.9239 29.6407 51.7963 29.8317 51.6354 29.9926C51.4745 30.1534 51.2835 30.281 51.0734 30.3681C50.8632 30.4552 50.6379 30.5 50.4104 30.5H30.5Z" fill="#004A76"/>
</svg>
