<svg width="75" height="75" viewBox="0 0 75 75" fill="none" xmlns="http://www.w3.org/2000/svg">
<path d="M38.794 53.135H42.508C42.688 53.1388 42.8666 53.1021 43.0305 53.0274C43.1944 52.9527 43.3393 52.8421 43.4545 52.7037C44.0496 52.0214 44.5942 51.2966 45.0839 50.5352L51.0743 55.4713C51.3285 55.678 51.6516 55.7806 51.9785 55.7583C52.3054 55.7361 52.6116 55.5907 52.8355 55.3514C52.8355 55.2316 52.9553 55.1597 53.0272 55.0399C53.829 52.8279 54.2345 50.4918 54.2253 48.139C54.2253 39.2612 53.147 37.2244 49.1813 34.385V33.4625C49.1813 26.7412 46.6055 18.3067 43.6462 12.508C43.6067 12.3426 43.5191 12.1925 43.3946 12.0767C41.3818 8.0631 39.1773 5.47524 37.5479 5.47524C35.4034 5.47524 33.139 9.06949 31.5575 12.1366C31.4976 12.1366 31.4976 12.1366 31.4257 12.2564C30.8626 13.3706 30.3594 14.4129 30.0479 15.1558C27.4952 20.9147 26.0639 27.1075 25.8307 33.4026V34.3251C21.865 37.2244 20.7987 39.2013 20.7987 48.139C20.7836 50.4923 21.1894 52.8294 21.9968 55.0399C22.129 55.341 22.3718 55.5798 22.6751 55.7069C22.9784 55.834 23.3189 55.8397 23.6262 55.7228C23.7415 55.6725 23.8501 55.6081 23.9497 55.5312L29.9401 50.607C30.4065 51.3474 30.9271 52.0522 31.4976 52.7157C31.741 52.9758 32.0763 53.1306 32.4321 53.147H36.2181" fill="#004A76"/>
<path d="M37.3443 28.107C38.2078 28.0905 39.0472 27.8194 39.7572 27.3276C40.4672 26.8358 41.0162 26.1454 41.3352 25.3428C41.6543 24.5402 41.7293 23.6613 41.5507 22.8163C41.3722 21.9713 40.9481 21.1979 40.3316 20.593C39.7152 19.9881 38.9338 19.5787 38.0856 19.4162C37.2373 19.2537 36.36 19.3453 35.5636 19.6795C34.7672 20.0137 34.0873 20.5756 33.6091 21.2948C33.1308 22.014 32.8756 22.8584 32.8755 23.722C32.8881 24.8957 33.3657 26.0163 34.2034 26.8384C35.0412 27.6604 36.1707 28.1166 37.3443 28.107Z" fill="white"/>
<path d="M37.536 57.9992C36.8411 57.9992 36.3379 58.3107 36.3379 58.6821V68.8538C36.3379 69.2133 36.901 69.5248 37.536 69.5248C38.171 69.5248 38.794 69.2133 38.794 68.8538V58.7061C38.794 58.3107 38.2309 57.9992 37.536 57.9992Z" fill="#EC1C24"/>
<path d="M32.6237 55.1118C32.4614 55.1037 32.2992 55.1287 32.1468 55.1852C31.9945 55.2418 31.8552 55.3288 31.7375 55.4408C31.6199 55.5529 31.5262 55.6877 31.4623 55.8371C31.3984 55.9866 31.3655 56.1474 31.3657 56.3099V64.385C31.3657 64.7186 31.4983 65.0386 31.7342 65.2745C31.9701 65.5104 32.2901 65.643 32.6237 65.643C32.9573 65.643 33.2773 65.5104 33.5132 65.2745C33.7492 65.0386 33.8817 64.7186 33.8817 64.385V56.3938C33.8938 56.2244 33.8698 56.0543 33.8112 55.8949C33.7526 55.7355 33.6608 55.5903 33.5418 55.4691C33.4228 55.3479 33.2795 55.2533 33.1212 55.1917C32.9629 55.1301 32.7933 55.1029 32.6237 55.1118Z" fill="#EC1C24"/>
<path d="M42.3763 55.1118C42.0586 55.1118 41.7538 55.238 41.5291 55.4627C41.3044 55.6874 41.1782 55.9922 41.1782 56.3099V64.385C41.1782 64.7186 41.3108 65.0386 41.5467 65.2745C41.7826 65.5104 42.1026 65.643 42.4362 65.643C42.7698 65.643 43.0898 65.5104 43.3257 65.2745C43.5617 65.0386 43.6942 64.7186 43.6942 64.385V56.3938C43.7074 56.2189 43.6821 56.0433 43.62 55.8793C43.5579 55.7154 43.4606 55.567 43.3349 55.4448C43.2092 55.3225 43.0582 55.2293 42.8926 55.1718C42.727 55.1143 42.5507 55.0938 42.3763 55.1118Z" fill="#EC1C24"/>
</svg>
