<svg width="82" height="82" viewBox="0 0 82 82" fill="none" xmlns="http://www.w3.org/2000/svg">
<path d="M20.4215 37.7253H15.2735C14.9261 37.7253 14.5929 37.8633 14.3473 38.1089C14.1016 38.3546 13.9636 38.6877 13.9636 39.0352C13.9636 39.3826 14.1016 39.7157 14.3473 39.9614C14.5929 40.2071 14.9261 40.3451 15.2735 40.3451H20.4215C20.7689 40.3451 21.102 40.2071 21.3477 39.9614C21.5933 39.7157 21.7314 39.3826 21.7314 39.0352C21.7314 38.6877 21.5933 38.3546 21.3477 38.1089C21.102 37.8633 20.7689 37.7253 20.4215 37.7253Z" fill="#FAA61A"/>
<path d="M66.7265 37.7253H61.5655C61.2181 37.7253 60.8849 37.8633 60.6393 38.1089C60.3936 38.3546 60.2556 38.6877 60.2556 39.0352C60.2556 39.3826 60.3936 39.7157 60.6393 39.9614C60.8849 40.2071 61.2181 40.3451 61.5655 40.3451H66.7134C67.0609 40.3451 67.394 40.2071 67.6397 39.9614C67.8853 39.7157 68.0234 39.3826 68.0234 39.0352C68.0234 38.6877 67.8853 38.3546 67.6397 38.1089C67.394 37.8633 67.0609 37.7253 66.7134 37.7253H66.7265Z" fill="#FAA61A"/>
<path d="M41.0001 19.3866C41.3475 19.3866 41.6807 19.2486 41.9263 19.0029C42.172 18.7573 42.31 18.4241 42.31 18.0767V12.8371C42.31 12.4897 42.172 12.1565 41.9263 11.9108C41.6807 11.6652 41.3475 11.5272 41.0001 11.5272C40.6527 11.5272 40.3195 11.6652 40.0738 11.9108C39.8282 12.1565 39.6902 12.4897 39.6902 12.8371V18.0767C39.6902 18.2487 39.7241 18.4191 39.7899 18.578C39.8557 18.7369 39.9522 18.8813 40.0738 19.0029C40.1955 19.1246 40.3399 19.2211 40.4988 19.2869C40.6577 19.3527 40.8281 19.3866 41.0001 19.3866Z" fill="#FAA61A"/>
<path d="M27.3638 25.1501C27.6039 24.9053 27.7383 24.5761 27.7383 24.2332C27.7383 23.8903 27.6039 23.5611 27.3638 23.3163L23.6961 19.6485C23.5822 19.5259 23.4444 19.4278 23.2912 19.3603C23.1381 19.2927 22.9728 19.2571 22.8054 19.2556C22.4644 19.2639 22.1402 19.4049 21.9015 19.6485C21.6615 19.8934 21.5271 20.2226 21.5271 20.5655C21.5271 20.9083 21.6615 21.2375 21.9015 21.4824L25.5693 25.2156C25.6879 25.3358 25.8301 25.4301 25.9871 25.4924C26.144 25.5547 26.3122 25.5837 26.481 25.5775C26.6497 25.5714 26.8153 25.5302 26.9673 25.4566C27.1193 25.383 27.2543 25.2787 27.3638 25.1501Z" fill="#FAA61A"/>
<path d="M41 23.3163C33.1406 23.3163 25.5693 29.5384 25.5693 38.2492C25.5693 49.6454 33.9265 52.0032 33.9265 59.9936H48.0735C48.0735 52.0032 56.4438 49.6454 56.4438 38.2492C56.4438 29.5384 48.8463 23.3163 41 23.3163Z" fill="#FAA61A"/>
<path d="M60.1116 19.6485C59.8729 19.4049 59.5487 19.2639 59.2077 19.2556C58.8668 19.2639 58.5425 19.4049 58.3039 19.6485L54.6362 23.3818C54.3962 23.6266 54.2617 23.9558 54.2617 24.2987C54.2617 24.6416 54.3962 24.9708 54.6362 25.2156C54.7514 25.3402 54.8912 25.4397 55.0468 25.5077C55.2023 25.5757 55.3702 25.6108 55.54 25.6108C55.7098 25.6108 55.8777 25.5757 56.0332 25.5077C56.1888 25.4397 56.3285 25.3402 56.4438 25.2156L60.1116 21.4824C60.3516 21.2375 60.486 20.9083 60.486 20.5655C60.486 20.2226 60.3516 19.8934 60.1116 19.6485Z" fill="#FAA61A"/>
<path d="M33.9265 62.6134V65.2332C33.9265 65.9281 34.2025 66.5944 34.6938 67.0857C35.1851 67.577 35.8515 67.853 36.5463 67.853H38.4719C38.4001 68.2317 38.4127 68.6215 38.5089 68.9947C38.6051 69.3679 38.7824 69.7153 39.0282 70.0121C39.274 70.3089 39.5823 70.5478 39.9311 70.7118C40.2798 70.8758 40.6605 70.9608 41.0458 70.9608C41.4312 70.9608 41.8119 70.8758 42.1606 70.7118C42.5094 70.5478 42.8177 70.3089 43.0635 70.0121C43.3093 69.7153 43.4866 69.3679 43.5828 68.9947C43.679 68.6215 43.6916 68.2317 43.6198 67.853H45.5454C46.2402 67.853 46.9065 67.577 47.3978 67.0857C47.8892 66.5944 48.1652 65.9281 48.1652 65.2332V62.6134H33.9265Z" fill="#004A76"/>
</svg>
