<svg width="57" height="68" viewBox="0 0 57 68" fill="none" xmlns="http://www.w3.org/2000/svg">
<g clip-path="url(#clip0)">
<path d="M13.7801 49.3746L8.94446 48.8424C7.97734 48.7242 7.19155 47.9555 7.07065 47.0094L6.28486 40.3868L0.844779 36.4251C0.058989 35.8338 -0.243238 34.8285 0.17988 33.9416L2.89992 27.8511L0.17988 21.7607C-0.182793 20.8738 0.058989 19.8685 0.844779 19.2772L6.28486 15.3155L7.07065 8.69289C7.19155 7.7468 7.97734 6.9781 8.94446 6.85984L15.7143 6.20941L19.7642 0.88767C20.3686 0.118974 21.3962 -0.176678 22.3029 0.237235L28.5288 2.8981L34.7546 0.237235C35.6613 -0.117547 36.6889 0.118974 37.2934 0.88767L41.3432 6.20941L48.1131 6.9781C49.0802 7.09636 49.866 7.86506 49.9869 8.81115L50.7122 15.3746L56.1523 19.3364C56.9381 19.9277 57.2403 20.9329 56.8172 21.8198L54.0972 27.9103L56.8172 34.0007C57.1799 34.8877 56.9381 35.8929 56.1523 36.4842L50.7122 40.4459L49.9264 47.0685C49.8055 48.0146 49.0198 48.7833 48.0526 48.9016L43.217 49.4338" fill="#8EB400"/>
<path d="M28.5304 44.348C37.8109 44.348 45.3342 36.9883 45.3342 27.9097C45.3342 18.8311 37.8109 11.4714 28.5304 11.4714C19.2499 11.4714 11.7266 18.8311 11.7266 27.9097C11.7266 36.9883 19.2499 44.348 28.5304 44.348Z" fill="white"/>
<path d="M16.9258 43.8157C20.1898 46.0626 24.1792 47.4226 28.4708 47.4226C32.7625 47.4226 36.7519 46.0626 40.0159 43.8157V65.9304C40.0159 67.5861 38.1421 68.5322 36.7519 67.6452L28.4708 62.2052L20.1898 67.6452C18.7996 68.5322 16.9258 67.5861 16.9258 65.9304V43.8157Z" fill="#EC1C24"/>
</g>
<defs>
<clipPath id="clip0">
<rect width="57" height="68" fill="white"/>
</clipPath>
</defs>
</svg>
