<svg width="63" height="63" viewBox="0 0 63 63" fill="none" xmlns="http://www.w3.org/2000/svg">
<path d="M25.5938 63C39.7288 63 51.1875 51.5413 51.1875 37.4063C51.1875 23.2712 39.7288 11.8125 25.5938 11.8125C11.4587 11.8125 0 23.2712 0 37.4063C0 51.5413 11.4587 63 25.5938 63Z" fill="#004A76"/>
<path d="M25.5925 52.7019C34.0401 52.7019 40.8882 45.8538 40.8882 37.4063C40.8882 28.9587 34.0401 22.1106 25.5925 22.1106C17.145 22.1106 10.2969 28.9587 10.2969 37.4063C10.2969 45.8538 17.145 52.7019 25.5925 52.7019Z" fill="white"/>
<path d="M25.5916 43.0097C28.6863 43.0097 31.195 40.501 31.195 37.4063C31.195 34.3117 28.6863 31.803 25.5916 31.803C22.497 31.803 19.9883 34.3117 19.9883 37.4063C19.9883 40.501 22.497 43.0097 25.5916 43.0097Z" fill="#EB212E"/>
<path fill-rule="evenodd" clip-rule="evenodd" d="M28.3209 37.5576L25.1406 38.012L25.4435 34.8317L49.8257 10.4495L52.7031 13.1754L28.3209 37.5576Z" fill="#8DB300"/>
<path fill-rule="evenodd" clip-rule="evenodd" d="M52.2509 19.5362L44.5273 18.4761L52.5538 10.6011L60.2773 11.5097L52.2509 19.5362Z" fill="#8DB300"/>
<path fill-rule="evenodd" clip-rule="evenodd" d="M43.6172 10.7524L44.5258 18.476L52.5523 10.601L51.4922 2.87744L43.6172 10.7524Z" fill="#8DB300"/>
</svg>
