<svg width="74" height="74" viewBox="0 0 74 74" fill="none" xmlns="http://www.w3.org/2000/svg">
<path d="M39.2811 42.8904H34.7227V61.8492H39.2811V42.8904Z" fill="#1B1C20"/>
<path fill-rule="evenodd" clip-rule="evenodd" d="M59.7631 63.8768H55.2047L37.5039 42.8904H42.0623L59.7631 63.8768Z" fill="#1B1C20"/>
<path fill-rule="evenodd" clip-rule="evenodd" d="M14.2383 63.8768H18.7967L36.4975 42.8904H31.9391L14.2383 63.8768Z" fill="#1B1C20"/>
<path d="M58.3124 10.1233H15.6884C13.3752 10.1233 11.5 11.9985 11.5 14.3117V44.8145C11.5 47.1277 13.3752 49.0029 15.6884 49.0029H58.3124C60.6256 49.0029 62.5008 47.1277 62.5008 44.8145V14.3117C62.5008 11.9985 60.6256 10.1233 58.3124 10.1233Z" fill="#F5A300"/>
<path d="M17.5547 38.3172L29.1431 25.4856L42.2115 34.3508L56.4491 14.8296" stroke="white" stroke-width="3" stroke-miterlimit="10"/>
</svg>
