<svg width="92" height="57" viewBox="0 0 92 57" fill="none" xmlns="http://www.w3.org/2000/svg">
<path d="M5.15695 5.73405C5.15695 5.73405 8.84049 -0.880952 17.4354 0.0990488C26.0303 1.32405 26.2759 9.65405 26.2759 9.65405C26.2759 9.65405 43.9569 16.5141 50.3417 25.8241C56.7265 35.1341 57.7087 38.0741 57.7087 38.0741L91.8428 50.3241C91.8428 50.3241 92.8251 51.7941 89.8783 52.7741C86.9315 53.7541 81.0378 51.3041 74.653 49.5891C68.2682 47.8741 51.3239 43.9541 51.3239 43.9541C51.3239 43.9541 41.01 53.9991 24.5569 49.3441C8.10378 44.6891 7.85821 26.5591 7.85821 23.3741C7.61264 20.1891 8.34935 16.5141 8.34935 16.5141C8.34935 16.5141 6.38479 13.8191 5.64809 11.6141C4.91138 9.40905 4.42023 8.18405 4.42023 8.18405L-7.62939e-06 5.24405L3.19239 4.75405L2.94682 2.05905L5.15695 5.73405Z" fill="#240036"/>
<path d="M31.6785 53.264L31.1874 53.019C31.1874 53.019 29.2228 50.814 28.2405 46.159C27.2583 41.504 27.7494 38.564 27.7494 38.564C27.7494 38.319 27.995 38.074 28.2405 38.074C28.4861 38.074 28.7317 38.319 28.7317 38.564C28.7317 38.564 28.4861 41.504 29.2228 45.914C30.2051 50.324 31.9241 52.284 31.9241 52.284V53.019L31.6785 53.264Z" fill="#240036"/>
<path d="M42.2381 52.0388H41.9925C41.747 52.0388 40.7647 50.8138 39.0457 46.8938C37.0812 42.7288 37.5723 38.5638 37.5723 38.3188C37.5723 38.0738 37.8179 37.8288 38.0634 37.8288C38.309 37.8288 38.5546 38.0738 38.5546 38.3188C38.5546 38.3188 38.309 42.4838 40.028 46.4038C41.747 50.3238 42.7292 51.3038 42.7292 51.3038V52.0388H42.2381Z" fill="#240036"/>
<path d="M32.9064 56.4496L32.4153 56.2046C32.1697 55.9596 31.6786 55.7146 31.433 54.7346C31.433 54.4896 31.1875 54.2446 31.1875 53.9996C30.9419 54.2446 30.9419 54.4896 30.9419 54.9796C30.6963 55.4696 30.6963 55.7146 30.9419 55.7146V56.2046C30.6963 56.4496 30.4507 56.6946 30.2052 56.4496C29.9596 56.2046 29.714 55.9596 29.9596 54.4896C30.2052 53.2646 30.9419 52.5296 31.1875 52.5296L31.6786 52.2846L32.1697 52.5296C32.1697 52.5296 32.4153 53.2646 32.9064 54.2446C33.152 54.7346 33.3976 54.9796 33.6431 55.2246C33.8887 55.4696 34.1343 55.7146 34.1343 55.9596C33.3976 56.4496 33.152 56.4496 32.9064 56.4496Z" fill="#240036"/>
<path d="M33.8886 54.4894L33.3975 54.2444C33.3975 54.2444 33.1519 53.7544 32.4152 53.5094C31.4329 53.2644 30.6962 52.7744 30.6962 52.7744V52.0394H31.4329C31.4329 52.0394 31.6785 52.2844 32.6607 52.5294C33.8886 52.7744 34.3797 53.7544 34.3797 53.7544C34.6253 53.9994 34.3797 54.2444 34.1342 54.4894H33.8886Z" fill="#240036"/>
<path d="M43.711 55.4689L43.2199 55.2239C42.9743 54.9789 42.4832 54.7339 42.2376 53.7539C42.2376 53.5089 41.9921 53.2639 41.9921 53.0189C41.7465 53.2639 41.7465 53.5089 41.5009 53.9989C41.2554 54.4889 41.5009 54.7339 41.5009 54.7339V55.2239C41.2554 55.4689 41.0098 55.7139 40.7642 55.4689C40.5186 55.2239 40.2731 54.9789 40.5186 53.5089C40.7642 52.2839 41.5009 51.5489 41.7465 51.5489L42.2376 51.3039L42.7288 51.5489C42.7288 51.5489 42.9743 52.0389 43.4655 53.2639C43.4655 53.9989 43.711 54.2439 43.9566 54.2439C44.2022 54.4889 44.4478 54.7339 44.4478 54.9789C44.2022 55.2239 43.9566 55.4689 43.711 55.4689Z" fill="#240036"/>
<path d="M44.6938 53.2645L44.2026 53.0195C44.2026 53.0195 43.9571 52.5295 43.2204 52.2845C42.2381 52.0395 41.7469 51.5495 41.5014 51.5495V50.8145H42.2381C42.2381 50.8145 42.4836 51.0595 43.4659 51.3045C44.6938 51.5495 45.1849 52.5295 45.1849 52.5295C45.4305 52.7745 45.1849 53.0195 44.9393 53.2645H44.6938Z" fill="#240036"/>
</svg>
