<svg width="437" height="319" viewBox="0 0 437 319" fill="none" xmlns="http://www.w3.org/2000/svg">
<g clip-path="url(#clip0)">
<path d="M336.658 252.51C336.658 252.51 360.855 261.252 374.833 242.648C389.04 224.674 377.285 203.947 377.285 203.947C377.285 203.947 390.39 201.712 396.794 185.843C403.199 169.974 389.81 160.539 389.81 160.539C389.81 160.539 404.627 150.194 401.057 134.36C397.487 118.525 380.089 118.744 380.089 118.744C380.089 118.744 382.655 102.121 372.928 94.9309C363.202 87.7412 352.095 93.5364 352.095 93.5364C352.095 93.5364 354.056 78.2019 340.491 70.2581C326.926 62.3143 314.985 68.767 314.985 68.767C314.985 68.767 313.79 54.5722 300.732 50.0127C287.674 45.4532 282.097 51.7482 282.097 51.7482C282.097 51.7482 278.078 43.568 265.956 42.5945C253.835 41.621 246.442 51.7824 246.442 51.7824C246.442 51.7824 239.189 41.5592 227.171 44.8293C214.951 48.5289 212.659 58.9886 212.659 58.9886C212.659 58.9886 200.356 50.5889 186.223 62.8282C172.089 75.0674 174.748 88.3767 174.748 88.3767C174.748 88.3767 155.353 85.0358 143.599 107.831C131.845 130.627 147.531 138.518 147.531 138.518C147.531 138.518 128.554 161.068 138.819 181.619C149.512 202.372 164.94 199.655 164.94 199.655C164.94 199.655 156.921 218.961 171.071 233.472C185.22 247.982 202.587 237.786 202.587 237.786C202.587 237.786 202.344 253.927 218.636 260.53C234.927 267.132 247.597 255.778 247.597 255.778C247.597 255.778 245.864 271.744 260.789 274.559C275.715 277.374 280.987 267.265 280.987 267.265C280.987 267.265 286.853 281.556 307.583 278.707C328.541 276.489 336.658 252.51 336.658 252.51Z" fill="#ED1C24"/>
<path d="M252.087 161.405C254.56 158.371 250.012 154.662 247.539 157.696C246.505 158.783 245.04 159.668 243.778 160.124C243.219 154.618 243.494 148.455 240.41 143.86C237.984 140.099 234.828 141.239 231.926 144.07C230.41 142.834 227.657 143.115 227.078 145.464C225.34 152.514 224.46 159.966 223.353 166.787C222.598 170.627 228.558 171.329 229.111 167.918C229.639 163.447 230.368 158.546 231.326 154.276L231.527 153.846C232.966 151.9 234.176 149.322 236.044 147.578C236.271 148.209 236.499 148.84 236.297 149.27C237.689 154.118 237.389 159.221 237.922 163.666C238.175 165.358 239.691 166.595 240.953 166.139C245.625 166.235 248.983 164.666 252.087 161.405Z" fill="white"/>
<path d="M270.359 188.338C270.757 178.563 269.034 168.839 270.291 159.467C270.265 158.406 270.038 157.774 269.381 156.942C269.582 156.512 269.355 155.881 269.556 155.451C269.681 151.839 266.649 149.366 263.24 148.814C262.179 148.84 261.548 149.068 260.917 149.296C260.487 149.094 260.487 149.094 260.058 148.893C258.34 148.086 256.876 148.971 256.271 150.26C253.824 154.355 254.155 159.23 257.213 162.763C258.956 164.63 261.507 164.78 263.829 164.297C263.255 175.564 265.232 186.979 263.395 198.702C263.043 201.682 262.035 203.831 260.395 206.207C256.685 210.757 249.737 204.348 248.801 200.762C247.357 193.791 254.626 187.242 258.967 182.464C261.667 180.062 257.12 176.353 254.419 178.755C248.413 184.848 241.801 192.23 242.867 201.121C243.958 211.072 255.325 215.886 263.478 210.801C270.798 206.373 270.514 194.704 270.359 188.338ZM262.21 158.818L261.781 158.616C260.922 158.213 260.896 157.152 260.87 156.091C260.643 155.46 261.046 154.6 261.248 154.171C261.677 154.372 262.107 154.574 262.536 154.776C262.965 154.977 262.965 154.977 263.395 155.179L263.824 155.381L264.254 155.582L264.052 156.012L263.85 156.442L263.648 156.871C263.648 156.871 263.648 156.871 263.447 157.301L263.245 157.73L262.841 158.59L262.21 158.818C261.781 158.616 263.043 158.16 262.21 158.818Z" fill="white"/>
<path d="M295.27 165.43C285.828 169.91 283.096 162.335 283.091 153.418C288.87 146.693 296.744 138.855 297.168 130.14C297.494 126.099 295.042 121.276 290.396 122.241C286.179 123.407 283.329 128.36 281.513 132.227C278.89 137.812 277.152 144.861 277.105 151.656C276.904 152.085 276.272 152.313 276.071 152.743C274.632 154.689 275.745 156.785 277.235 156.96C277.488 158.652 277.742 160.344 278.197 161.607C280.551 171.102 288.482 174.303 297.091 170.48C300.246 169.34 298.627 163.861 295.27 165.43ZM285.052 138.084C285.833 135.304 287.043 132.727 289.113 130.552C289.315 130.123 289.946 129.895 290.349 129.036L290.98 128.808C291.234 130.5 290.629 131.789 289.822 133.507C288.208 136.944 286.164 140.179 283.691 143.213C284.069 141.293 284.876 139.574 285.052 138.084Z" fill="white"/>
<path d="M305.25 174.312C305.55 169.209 306.279 164.308 305.948 159.434C305.643 155.62 300.138 156.181 300.014 159.793C300.547 164.238 299.388 168.938 299.062 172.979C298.886 174.47 299.771 175.934 301.261 176.11C303.18 176.487 305.074 175.803 305.25 174.312Z" fill="white"/>
<path d="M308.741 143.441C307.427 141.775 305.507 141.398 304.472 142.485C303.008 143.371 302.631 145.291 303.717 146.326L304.147 146.527C305.031 147.991 306.951 148.368 307.985 147.281C309.248 146.825 309.625 144.905 308.741 143.441Z" fill="white"/>
<path d="M330.196 170.297C329.058 167.141 326.481 165.931 323.476 164.519C315.974 161.52 322.891 157.952 327.764 157.619C331.577 157.312 331.018 151.806 327.407 151.683C321.473 152.043 311.173 156.119 314.334 163.896C315.674 166.623 317.417 168.491 320.196 169.271C321.484 169.876 323.403 170.253 324.49 171.288C326.005 172.524 324.795 175.102 323.76 176.189C322.524 177.706 319.947 176.496 318.659 175.891C315.224 174.277 312.803 179.433 316.238 181.046C320.103 182.861 323.284 182.782 326.844 180.783C330.201 179.214 331.764 173.655 330.196 170.297Z" fill="white"/>
<path d="M359.167 183.378C357.071 184.492 354.749 184.974 352.426 185.456C353.129 179.494 352.317 172.296 348.401 168.359C347.314 167.325 346.026 166.72 345.167 166.316C347.283 157.347 348.97 148.176 353.005 139.584C354.619 136.147 349.466 133.727 347.852 137.164C342.177 148.132 341.628 160.459 337.241 172.033C336.233 174.181 335.426 175.899 334.82 177.188C333.636 180.826 338.359 183.045 339.973 179.608C340.982 177.46 342.192 174.882 343.201 172.734C344.034 172.077 344.665 171.849 345.55 173.313C347.775 177.504 347.273 183.036 346.745 187.508C346.368 189.428 348.313 190.866 349.803 191.041C354.045 190.936 357.832 189.568 361.619 188.201C364.573 187.491 362.524 181.809 359.167 183.378Z" fill="white"/>
<path d="M222.964 107.352C214.832 104.581 204.909 106.737 201.732 115.733C198.53 123.668 203.61 131.822 211.919 133.102C214.899 133.453 215.225 129.411 212.876 128.832C203.481 126.517 191.815 126.806 183.889 132.523C176.165 137.809 174.706 147.611 178.095 156.02C181.484 164.428 189.466 169.75 198.204 171.232C208.862 173.091 219.617 170.277 228.831 165.165C231.558 163.824 229.964 159.405 227.238 160.747C213.404 167.883 192.927 172.424 183.222 157.379C178.597 150.487 178.767 140.08 186.719 135.425C194.039 130.997 203.383 131.19 211.288 133.33C211.464 131.839 211.64 130.349 212.245 129.06C206.285 128.358 203.378 122.274 206 116.689C208.623 111.104 215.39 110.087 220.947 111.648C223.725 112.428 225.541 108.562 222.964 107.352Z" fill="white"/>
</g>
<g clip-path="url(#clip1)">
<path d="M115.873 183.152C105.809 174.895 94.4381 181.866 92.7113 183.075C91.7896 180.349 91.2417 179.009 91.2417 179.009C91.195 178.835 90.9742 178.709 90.9742 178.709C90.5328 178.456 84.9007 176.256 79.8554 177.616C75.6799 178.742 73.0754 182.233 72.138 183.602C70.767 182.67 66.9811 181.087 62.3772 182.701C58.2952 184.173 56.989 186.942 56.4931 188.564C55.122 187.632 52.1255 186.208 48.3448 187.414C44.564 188.619 43.4786 191.515 43.0293 193.309C41.6115 192.204 38.7423 190.56 35.0083 191.939C31.2742 193.318 29.8408 196.307 29.3916 198.102C28.1478 196.95 25.4992 195.433 21.8925 196.591C18.3324 197.923 17.5014 200.378 17.5274 201.859C15.8084 201.021 12.8586 199.771 9.42582 200.882C4.64794 202.542 2.74447 208.634 2.79121 208.807L2.7107 209.201C2.80417 209.547 9.66927 232.241 21.0761 244.784C31.9481 256.728 47.7303 269.58 71.2717 261.373C72.3156 261.092 73.1387 260.684 74.1359 260.229C84.8965 255.84 92.4477 247.854 96.2676 236.412C97.8024 231.721 98.6282 226.478 99.0126 220.982C99.7553 220.968 101.89 220.578 104.627 219.654C107.537 218.684 111.178 216.958 114.665 213.973C119.88 209.778 122.827 203.405 122.85 197.262C122.84 191.687 120.394 186.768 115.873 183.152ZM94.9884 190.829C95.1624 190.782 96.1128 190.154 100.254 189.595C102.958 189.238 106.035 190.268 107.907 192.366C109.197 193.692 110.594 196.104 109.742 199.867C108.293 206.951 100.711 210.669 98.7168 211.579C98.5507 209.578 98.3845 207.578 98.0444 205.624C97.024 199.763 95.8894 194.862 94.9884 190.829Z" fill="#FAA61A"/>
<path d="M58.6926 214.539C58.6926 214.539 55.1683 202.755 66.6032 196.916C78.038 191.078 85.9414 201.403 81.9241 214.893C77.9069 228.383 70.7265 244.547 70.7265 244.547C70.7265 244.547 51.7528 241.154 38.9835 233.262C26.0927 225.005 24.1496 213.098 31.9355 207.262C39.7214 201.425 48.3559 206.646 52.6123 209.682C56.9902 213.082 58.6926 214.539 58.6926 214.539Z" fill="#ED1C24"/>
<path d="M50.1782 215.759C48.9628 212.114 44.4628 210.779 40.9351 212.361C38.9889 212.605 36.7994 213.335 36.4338 215.887C35.9468 218.074 37.5274 220.382 39.4732 221.353C42.8785 223.053 51.6363 221.347 50.1782 215.759ZM42.6372 215.033C43.3671 214.79 44.0969 214.546 44.5834 214.789C43.732 214.668 43.0022 214.911 42.6372 215.033Z" fill="white"/>
</g>
<defs>
<clipPath id="clip0">
<rect width="267.56" height="226.397" fill="white" transform="translate(194.241) rotate(25.1568)"/>
</clipPath>
<clipPath id="clip1">
<rect width="119.646" height="78.8143" fill="white" transform="translate(0 199.147) rotate(-15.0893)"/>
</clipPath>
</defs>
</svg>
