<svg width="21" height="25" viewBox="0 0 21 25" fill="none" xmlns="http://www.w3.org/2000/svg">
<path d="M11.832 3.50024H19.9986" stroke="#BEBEBE" stroke-linecap="round"/>
<path d="M17.6667 1.16699L20 3.50031L17.6667 5.83362" stroke="#BEBEBE" stroke-linecap="round"/>
<path d="M6.34715 25C6.34715 25 3.04326 18.8509 1.65258 16.188C-0.196315 12.643 -0.501784 11.1477 0.776363 10.4085C1.57219 9.94645 2.67349 10.1397 3.34873 11.3661L4.92431 13.987V3.71334C4.92431 3.71334 4.82785 1 6.67674 1C8.64621 1 8.4774 3.71334 8.4774 3.71334V8.70318C8.4774 8.70318 9.51438 7.92195 10.7282 8.27476C11.3472 8.45117 12.0707 8.76199 12.4565 9.78684C12.4565 9.78684 14.9244 8.53518 16.1543 11.1981C16.1543 11.1981 19 10.6101 19 13.693C19 16.776 15.4469 25 15.4469 25H6.34715Z" fill="#BEBEBE"/>
</svg>
