<svg width="63" height="63" viewBox="0 0 63 63" fill="none" xmlns="http://www.w3.org/2000/svg">
<path d="M4.83839 50.5008C4.83673 51.2641 4.98584 52.0201 5.27716 52.7256C5.56848 53.4311 5.99628 54.0721 6.53599 54.6118C7.0757 55.1515 7.71669 55.5793 8.42217 55.8706C9.12766 56.162 9.88373 56.3111 10.647 56.3094H52.353C53.1163 56.3111 53.8723 56.162 54.5778 55.8706C55.2833 55.5793 55.9243 55.1515 56.464 54.6118C57.0037 54.0721 57.4315 53.4311 57.7228 52.7256C58.0141 52.0201 58.1633 51.2641 58.1616 50.5008V23.7384H4.83839V50.5008Z" fill="#F5A300"/>
<path d="M52.353 11.8692H44.793V8.94601C44.8295 8.4049 44.6582 7.87023 44.314 7.4511C43.9698 7.03198 43.4787 6.75998 42.9408 6.69061C42.3966 6.77744 41.9047 7.06488 41.5619 7.49631C41.2191 7.92774 41.0502 8.4719 41.0886 9.02161V11.8692H21.8736V8.94601C21.9101 8.4049 21.7388 7.87023 21.3946 7.4511C21.0504 7.03198 20.5593 6.75998 20.0214 6.69061C19.4772 6.77744 18.9853 7.06488 18.6425 7.49631C18.2997 7.92774 18.1308 8.4719 18.1692 9.02161V11.8692H10.6092C9.08173 11.8791 7.61965 12.4903 6.53956 13.5704C5.45946 14.6505 4.84829 16.1126 4.83838 17.64V21.1806H58.1616V17.64C58.1516 16.106 57.5352 14.6383 56.447 13.5571C55.3587 12.476 53.887 11.8692 52.353 11.8692Z" fill="#F5A300"/>
<path d="M19.3915 29.9628H14.5405V34.8138H19.3915V29.9628Z" fill="white"/>
<path d="M33.9318 29.9628H29.0808V34.8138H33.9318V29.9628Z" fill="white"/>
<path d="M19.3915 41.5926H14.5405V46.4436H19.3915V41.5926Z" fill="white"/>
<path d="M47.5021 29.9628H42.6511V34.8138H47.5021V29.9628Z" fill="white"/>
<path d="M47.5021 41.5926H42.6511V46.4436H47.5021V41.5926Z" fill="white"/>
<path d="M33.9318 41.5926H29.0808V46.4436H33.9318V41.5926Z" fill="white"/>
</svg>
