<svg width="47" height="47" viewBox="0 0 47 47" fill="none" xmlns="http://www.w3.org/2000/svg">
<g clip-path="url(#clip0)">
<path d="M23.5353 0C20.3549 0 17.3158 0.63609 14.3474 1.83759C11.5203 3.0391 9.04662 4.73534 6.85564 6.85564C4.66466 8.97594 2.96842 11.5203 1.83759 14.3474C0.63609 17.2451 0 20.3549 0 23.5353C0 26.7158 0.63609 29.7549 1.83759 32.7233C3.0391 35.5504 4.73534 38.0241 6.85564 40.215C8.97594 42.406 11.5203 44.1023 14.3474 45.2331C17.2451 46.4346 20.3549 47.0707 23.5353 47.0707C26.7158 47.0707 29.7549 46.4346 32.7233 45.2331C35.5504 44.0316 38.0241 42.3353 40.215 40.215C42.406 38.0947 44.1023 35.5504 45.2331 32.7233C46.4346 29.8256 47.0707 26.7158 47.0707 23.5353C47.0707 20.3549 46.4346 17.3158 45.2331 14.3474C44.0316 11.5203 42.3353 9.04662 40.215 6.85564C38.0947 4.66466 35.5504 2.96842 32.7233 1.83759C29.7549 0.63609 26.7158 0 23.5353 0Z" fill="#FAA61A"/>
<path d="M34.1368 22.1218H24.9489V12.9339C24.9489 12.3685 24.7368 11.803 24.3128 11.4497C23.8887 11.0256 23.394 10.8136 22.8286 10.8136C21.627 10.8136 20.7083 11.7324 20.7083 12.9339V24.2421C20.7083 25.4436 21.627 26.3624 22.8286 26.3624H34.1368C34.7022 26.3624 35.2677 26.1504 35.621 25.7263C36.0451 25.3023 36.2571 24.8076 36.2571 24.2421C36.2571 23.0406 35.2677 22.1218 34.1368 22.1218Z" fill="white"/>
</g>
<defs>
<clipPath id="clip0">
<rect width="47" height="47" fill="white"/>
</clipPath>
</defs>
</svg>
