<svg width="64" height="64" viewBox="0 0 64 64" fill="none" xmlns="http://www.w3.org/2000/svg">
<g clip-path="url(#clip0)">
<path fill-rule="evenodd" clip-rule="evenodd" d="M36 55.6925H4.30769C1.84615 55.6925 0 53.6925 0 51.3848V34.9232C0 32.4617 2 30.6156 4.30769 30.6156H36C38.4615 30.6156 40.3077 32.6156 40.3077 34.9232V51.2309C40.4615 53.6925 38.4615 55.6925 36 55.6925Z" fill="#004A76"/>
<path fill-rule="evenodd" clip-rule="evenodd" d="M0 48.4618V64.0003L11.8462 52.1541C11.8462 52.1541 0.153846 48.6157 0 48.4618Z" fill="#004A76"/>
<path d="M29.539 46.9232C31.0684 46.9232 32.3082 45.6834 32.3082 44.154C32.3082 42.6246 31.0684 41.3848 29.539 41.3848C28.0096 41.3848 26.7698 42.6246 26.7698 44.154C26.7698 45.6834 28.0096 46.9232 29.539 46.9232Z" fill="white"/>
<path d="M20.1542 46.9232C21.6836 46.9232 22.9235 45.6834 22.9235 44.154C22.9235 42.6246 21.6836 41.3848 20.1542 41.3848C18.6248 41.3848 17.385 42.6246 17.385 44.154C17.385 45.6834 18.6248 46.9232 20.1542 46.9232Z" fill="white"/>
<path d="M10.7695 46.9232C12.2989 46.9232 13.5387 45.6834 13.5387 44.154C13.5387 42.6246 12.2989 41.3848 10.7695 41.3848C9.24007 41.3848 8.00024 42.6246 8.00024 44.154C8.00024 45.6834 9.24007 46.9232 10.7695 46.9232Z" fill="white"/>
<path fill-rule="evenodd" clip-rule="evenodd" d="M21.3846 36.9231H53.0769C55.5385 36.9231 57.3846 34.9231 57.3846 32.6154V16.3078C57.3846 13.8462 55.3846 12.0001 53.0769 12.0001H21.3846C18.9231 12.0001 16.9231 13.8462 16.9231 16.3078V32.6154C16.9231 35.077 18.9231 36.9231 21.3846 36.9231Z" fill="#EB212E"/>
<path fill-rule="evenodd" clip-rule="evenodd" d="M57.3848 29.6924V45.2308L45.5386 33.3847C45.3847 33.5385 57.2309 30 57.3848 29.6924Z" fill="#EB212E"/>
<path d="M24.9233 20.154H49.3849" stroke="white" stroke-width="2" stroke-miterlimit="10"/>
<path d="M24.9233 28.1539H41.6926" stroke="white" stroke-width="2" stroke-miterlimit="10"/>
</g>
<defs>
<clipPath id="clip0">
<rect width="64" height="64" fill="white"/>
</clipPath>
</defs>
</svg>
