<svg width="215" height="163" viewBox="0 0 215 163" fill="none" xmlns="http://www.w3.org/2000/svg">
<g clip-path="url(#clip0)">
<path d="M44.4476 62.8229C33.2242 61.1173 24.2051 69.8283 13.1232 69.175C5.27266 68.6231 0.2064 58.859 3.2735 51.7514C12.0187 31.0254 37.7074 46.5883 47.9549 56.9952C49.818 58.8874 48.3278 61.7658 46.4841 62.0136C46.028 62.6105 45.2378 62.7167 44.4476 62.8229Z" fill="#FAA61A"/>
<path d="M49.1857 58.169C49.115 57.6429 48.7809 57.1522 48.4468 56.6614C41.0294 49.3558 26.0055 39.323 14.4869 41.4066C9.25434 42.3776 5.42892 45.8377 2.93989 51.2607C1.9411 53.8053 1.76783 56.5067 2.4201 59.3651C3.58323 64.0295 7.41565 68.603 13.0883 68.912C18.4976 69.2563 23.3607 67.5315 28.1884 65.5437C33.3502 64.0465 38.4767 62.2863 44.2201 63.1214C45.0456 63.2783 46.0638 62.8736 46.5199 62.2767C47.5735 62.1351 48.0296 61.5382 48.749 60.9059C49.1698 60.0459 49.2917 58.9582 49.1857 58.169Z" fill="#FAA61A"/>
<path d="M9.93267 55.4094C8.45486 52.3942 10.9633 49.1111 13.4558 47.7048C16.4398 45.9647 20.7602 46.1876 23.2916 49.0612C23.9597 50.0427 23.0122 50.9735 21.9587 51.1151C19.6429 53.8367 12.114 59.6692 9.93267 55.4094Z" fill="white"/>
<path d="M55.855 73.8772C55.855 73.8772 36.6979 76.9873 26.7119 84.4891C16.9893 91.9554 14.7318 101.097 22.4797 104.876C30.2277 108.656 41.5078 94.8203 43.9102 90.748C46.8394 86.6049 55.855 73.8772 55.855 73.8772Z" fill="#FAA61A"/>
<path d="M29.1124 98.3607C28.3222 98.4669 27.426 97.7839 27.548 96.6962L27.5126 96.4331C27.4419 95.907 27.67 95.6085 28.1614 95.2747C29.5297 93.4839 31.9002 93.1653 34.0073 92.8822C34.7975 92.776 35.7291 93.7221 35.5718 94.5467C35.6425 95.0728 35.1864 95.6697 34.923 95.7051C34.5023 96.5651 33.8182 97.4605 33.0633 97.8297C31.5183 98.3052 30.4294 98.1837 29.1124 98.3607Z" fill="white"/>
</g>
<path d="M101.231 125.605C101.231 125.605 79.5752 103.791 78.0282 76.7695C76.4692 49.6566 96.5618 26.8528 119.039 17.8061C141.425 8.77174 168.872 14.0605 183.88 29.1744C198.888 44.2884 204.117 67.5729 204.117 67.5729C204.117 67.5729 199.851 64.813 196.225 66.8758C192.599 68.9385 192.972 73.1487 192.972 73.1487C192.972 73.1487 189.278 69.1077 184.003 72.0408C178.741 75.0649 179.472 79.8752 179.472 79.8752C179.472 79.8752 172.708 74.3951 168.26 77.9579C163.903 81.5083 164.592 86.6949 164.592 86.6949C164.592 86.6949 159.872 81.2176 155.15 84.8172C150.428 88.4168 152.802 93.006 152.802 93.006C152.802 93.006 147.496 88.7189 142.781 91.6692C138.157 94.6073 139.929 99.5555 139.929 99.5555C139.929 99.5555 135.597 94.211 131.021 97.5131C126.445 100.815 127.876 105.994 127.876 105.994C127.876 105.994 120.642 103.264 116.741 106.753C112.84 110.242 115.962 115.564 115.962 115.564C115.962 115.564 110.467 111.951 106.725 115.233C103.061 118.412 106.075 121.526 106.075 121.526C106.075 121.526 101.819 120.247 100.584 121.432C99.5668 122.865 101.231 125.605 101.231 125.605Z" fill="#8EB400"/>
<path d="M101.395 126.139L100.914 126.018C100.696 125.77 79.1071 103.762 77.5722 76.8309C76.8042 64.0602 80.8768 51.3787 89.1502 40.2618C96.6323 30.1777 107.165 22.0908 118.888 17.3635C121.528 16.267 124.387 15.419 127.258 14.662C148.041 9.64082 170.993 15.3495 184.3 28.8401C199.205 43.8753 204.629 67.2262 204.665 67.4992L204.452 67.991L203.893 67.9737C203.893 67.9737 200.841 65.9764 197.879 66.7457C197.435 66.8981 196.991 67.0505 196.559 67.2939C193.274 69.1256 193.599 72.9718 193.623 73.1538L193.319 73.6579L192.747 73.5496C192.644 73.4709 190.159 70.8416 186.467 71.7092C185.749 71.8985 185.043 72.1787 184.35 72.55C179.428 75.3429 180.008 79.7105 180.032 79.8925L179.819 80.3843L179.26 80.367C179.156 80.2883 174.483 76.5644 170.62 77.5475C169.903 77.7368 169.288 78.0048 168.698 78.4547C164.59 81.7864 165.243 86.6999 165.255 86.7909L164.951 87.295L164.379 87.1867C164.379 87.1867 161.202 83.5393 157.601 84.3946C156.883 84.5838 156.178 84.8641 155.6 85.405C151.218 88.7735 153.325 92.7503 153.349 92.9323L153.239 93.5028L152.589 93.4978C152.589 93.4978 148.754 90.4946 144.983 91.4654C144.356 91.6424 143.742 91.9104 143.14 92.2693C138.856 94.9763 140.464 99.3908 140.488 99.5728L140.287 100.156L139.624 100.06C139.624 100.06 136.641 96.4785 133.223 97.3093C132.597 97.4862 131.982 97.7542 131.392 98.2042C127.157 101.275 128.345 106.024 128.369 106.206L128.247 106.686L127.7 106.759C127.7 106.759 123.408 105.207 119.898 106.05C118.815 106.288 117.86 106.787 117.112 107.444C113.552 110.702 116.43 115.594 116.43 115.594L116.32 116.164L115.682 116.25C115.682 116.25 112.229 114.029 109.085 114.823C108.367 115.012 107.673 115.383 107.083 115.833C105.994 116.721 105.476 117.717 105.427 118.742C105.346 120.235 106.428 121.386 106.428 121.386L106.512 122.023L105.989 122.279C105.989 122.279 103.186 121.452 101.556 121.764C101.283 121.801 101.112 121.916 100.942 122.032C100.206 122.779 101.019 124.708 101.389 125.399L101.505 125.568C101.815 125.805 101.656 126.011 101.395 126.139ZM127.482 15.6506C124.69 16.3044 121.935 17.2311 119.282 18.2365C107.822 22.8361 97.3797 30.9106 90.0559 40.7882C81.8495 51.7108 77.9352 64.1858 78.667 76.6835C79.9381 98.8338 94.8705 117.57 100.004 123.362C99.8956 122.543 99.9814 121.791 100.547 121.159C100.797 120.94 101.138 120.709 101.594 120.648C102.677 120.409 104.185 120.577 105.236 120.805C104.969 120.193 104.69 119.49 104.752 118.555C104.765 117.257 105.441 116.054 106.78 114.948C107.528 114.291 108.313 113.908 109.213 113.694C111.458 113.114 113.792 113.911 115.269 114.546C115.106 114.012 114.839 113.4 114.742 112.672C114.324 110.227 115.062 108.09 116.717 106.571C117.545 105.811 118.67 105.196 119.935 104.933C122.91 104.255 126.065 104.942 127.518 105.394C127.289 103.665 127.34 99.8611 130.985 97.2401C131.667 96.7779 132.451 96.3944 133.169 96.2051C135.779 95.5759 138.015 97.0345 139.37 98.1488C139.22 96.3166 139.484 93.4099 142.733 91.3053C143.426 90.934 144.12 90.5628 144.838 90.3735C147.721 89.7075 150.481 90.9104 151.994 91.8181C151.934 91.3631 151.782 90.9205 151.801 90.3622C151.778 88.7908 152.309 86.4964 154.931 84.5688C155.692 84.0033 156.477 83.6198 157.286 83.4182C160.26 82.7399 162.807 84.4347 164.174 85.6399C164.206 83.7832 164.762 80.2814 168.042 77.7095C168.711 77.1563 169.496 76.7727 170.305 76.5712C173.632 75.7528 177.358 77.9371 178.987 79.0144C179.043 77.3397 179.806 73.9953 183.773 71.7014C184.546 71.2269 185.342 70.9344 186.151 70.7328C189.114 69.9635 191.417 71.2279 192.554 72.0937C192.725 70.5887 193.299 67.9181 196.073 66.4331C196.597 66.1775 197.12 65.9218 197.667 65.8481C200.003 65.2557 202.246 66.0651 203.438 66.6457C202.158 61.9091 196.525 42.5691 183.564 29.5876C170.464 16.2544 147.901 10.6786 127.482 15.6506Z" fill="#8EB400"/>
<path d="M107.097 12.884L111.455 21.1924L113.435 19.9997L108.851 12.0923L107.097 12.884Z" fill="#240036"/>
<path d="M195.097 147.475C193.752 147.841 192.292 148.038 190.807 148.052C185.04 147.995 179.421 144.861 175.142 139.23C166.39 127.903 148.987 94.1191 148.246 92.7368C148.003 92.3063 148.204 91.7234 148.636 91.48C149.068 91.2366 149.652 91.4359 149.895 91.8663C150.126 92.2057 167.924 126.863 176.573 138.112C180.596 143.22 185.631 146.155 190.748 146.208C195.031 146.28 198.957 144.362 201.685 141.123C204.164 138.103 205.025 134.097 203.945 130.166C203.017 126.678 200.793 123.921 198.056 122.9C195.319 121.879 192.045 122.412 189.81 124.473C187.643 126.339 186.874 128.944 187.499 131.546C188.087 133.875 189.698 135.511 192.022 136.217C194.242 136.845 196.694 136.422 198.1 135.121C199.598 133.808 200.074 131.799 199.467 130.028C199 128.609 197.954 127.73 196.549 127.642C194.572 127.445 193.324 128.539 192.909 129.614C192.775 130.002 192.519 130.87 193.437 131.488C194.975 132.578 196.017 131.326 196.266 131.107C196.583 130.694 197.222 130.608 197.635 130.923C198.049 131.238 198.121 131.784 197.805 132.197C197.013 133.23 194.888 134.72 192.432 133.013C191.1 132.08 190.609 130.479 191.145 128.925C191.749 127.176 193.746 125.425 196.751 125.669C198.911 125.842 200.577 127.192 201.324 129.315C202.21 131.789 201.465 134.576 199.389 136.43C197.483 138.169 194.313 138.781 191.509 137.954C188.602 137.048 186.45 134.837 185.777 131.871C184.964 128.553 186.105 125.25 188.668 122.867C191.493 120.356 195.393 119.646 198.818 120.945C202.151 122.256 204.813 125.51 205.905 129.532C207.057 134.008 206.098 138.676 203.224 142.213C201.062 144.82 198.231 146.59 195.097 147.475Z" fill="#231F20"/>
<path d="M94.5024 112.344L94.2289 112.381L93.8708 111.781C93.8588 111.69 94.1149 110.822 95.575 109.237C96.6275 108.076 97.7886 107.735 98.518 107.637C98.4643 106.533 98.7525 103.808 100.942 102.125C102.961 100.557 105.253 100.341 106.189 100.4C106.226 99.2838 106.526 96.6505 108.996 94.2809C111.715 91.6925 116.073 91.6618 117.373 91.672C117.752 90.3246 119.123 85.973 122.692 84.1962C126.17 82.4318 129.355 82.6515 130.303 82.8018C130.911 81.7938 132.987 78.5512 136.501 77.0597C139.936 75.6714 143.783 75.9872 145.005 76.1007C145.419 75.0263 146.971 72.0393 150.589 70.6265C154.115 69.2259 157.348 69.8096 158.594 70.105C158.972 68.7577 160.361 65.237 164.513 63.6596C168.495 62.1978 171.74 62.8724 172.894 63.18C173.364 61.8204 174.99 57.9901 178.711 56.656C182.17 55.4497 184.734 56.5864 185.742 57.1915C186.314 55.9106 187.891 53.1056 191.192 52.1057C195.472 50.789 197.883 52.8723 197.986 52.951L198.083 53.6788L197.444 53.7647C197.341 53.686 195.264 52.0208 191.507 53.082C187.762 54.2341 186.513 58.1064 186.513 58.1064L186.184 58.4284L185.704 58.3078C185.601 58.2291 183.008 56.1703 179.105 57.529C175.111 58.8999 173.812 63.7974 173.812 63.7974L173.574 64.1072L173.21 64.1563C173.21 64.1563 169.595 62.7906 164.986 64.4294C160.469 66.0558 159.578 70.5281 159.499 70.6314L159.261 70.9411L158.897 70.9902C158.897 70.9902 155.111 69.7401 151.062 71.3962C147.092 72.9491 145.818 76.6394 145.83 76.7303L145.32 77.0769C145.228 77.0892 140.762 76.3011 136.987 77.9204C133.199 79.4487 131.037 83.4437 131.05 83.5347L130.527 83.7902C130.527 83.7902 126.996 83.0615 123.166 84.966C119.347 86.9615 118.266 92.1074 118.279 92.1984L117.768 92.5449C117.676 92.5572 112.608 92.128 109.719 94.8319C106.829 97.5358 107.228 100.538 107.24 100.629L107.106 101.017L106.753 101.158C106.753 101.158 104.025 100.876 101.574 102.688C99.2138 104.487 99.5571 107.775 99.5571 107.775L99.4231 108.163L99.0704 108.303C98.9793 108.315 97.5754 108.227 96.3647 109.593C95.154 110.96 94.8858 111.737 94.8858 111.737L94.5024 112.344Z" fill="#F9A51A" stroke="#F9A51A" stroke-width="2" stroke-miterlimit="10"/>
<defs>
<clipPath id="clip0">
<rect width="51.292" height="65.0309" fill="white" transform="matrix(-0.991091 0.133188 0.133188 0.991091 50.835 36.5217)"/>
</clipPath>
</defs>
</svg>
