<svg width="31" height="31" viewBox="0 0 31 31" fill="none" xmlns="http://www.w3.org/2000/svg">
<rect x="0.482422" width="30.2657" height="30.2657" rx="15.1328" fill="#F5A300"/>
<path fill-rule="evenodd" clip-rule="evenodd" d="M25.2406 10.4256C25.3809 9.95798 25.2406 9.61426 24.573 9.61426H22.3656C21.8043 9.61426 21.5457 9.91115 21.4054 10.2386C21.4054 10.2386 20.2828 12.9747 18.6925 14.752C18.178 15.2664 17.9442 15.4299 17.6635 15.4299C17.5232 15.4299 17.3201 15.2664 17.3201 14.7988V10.4256C17.3201 9.86432 17.1573 9.61426 16.6894 9.61426H13.2207C12.87 9.61426 12.6591 9.87473 12.6591 10.1216C12.6591 10.6538 13.454 10.7764 13.536 12.2731V15.5238C13.536 16.2364 13.4074 16.3657 13.1267 16.3657C12.3784 16.3657 10.5583 13.6172 9.47854 10.4725C9.26694 9.86117 9.05472 9.61426 8.49057 9.61426H6.28319C5.6525 9.61426 5.52637 9.91115 5.52637 10.2386C5.52637 10.8233 6.27483 13.7232 9.01089 17.5583C10.8351 20.1772 13.4049 21.5972 15.7434 21.5972C17.1467 21.5972 17.3201 21.2819 17.3201 20.7387V18.7592C17.3201 18.1285 17.453 18.0026 17.8972 18.0026C18.2248 18.0026 18.786 18.1663 20.0958 19.4291C21.5924 20.9255 21.839 21.5972 22.6809 21.5972H24.8883C25.519 21.5972 25.8343 21.2819 25.6524 20.6596C25.4534 20.0393 24.7388 19.1396 23.7906 18.0728C23.2761 17.4647 22.5043 16.8099 22.2707 16.4825C21.9432 16.0616 22.0367 15.8746 22.2707 15.5006C22.2707 15.5006 24.9599 11.7121 25.2406 10.4258V10.4256Z" fill="white"/>
</svg>
