<svg width="35" height="35" viewBox="0 0 35 35" fill="none" xmlns="http://www.w3.org/2000/svg">
<g id="Vkontakte (VK)">
<g id="Vkontakte (VK)_2">
<path id="Vector" fill-rule="evenodd" clip-rule="evenodd" d="M28.63 12.0565C28.7923 11.5157 28.63 11.1182 27.858 11.1182H25.3053C24.6562 11.1182 24.3572 11.4615 24.1949 11.8402C24.1949 11.8402 22.8967 15.0043 21.0577 17.0595C20.4627 17.6545 20.1923 17.8436 19.8678 17.8436C19.7055 17.8436 19.4706 17.6545 19.4706 17.1137V12.0565C19.4706 11.4073 19.2823 11.1182 18.7413 11.1182H14.7299C14.3244 11.1182 14.0805 11.4194 14.0805 11.7049C14.0805 12.3203 14.9998 12.4621 15.0946 14.1929V17.9521C15.0946 18.7762 14.9458 18.9257 14.6213 18.9257C13.7559 18.9257 11.651 15.7473 10.4024 12.1106C10.1577 11.4037 9.91231 11.1182 9.25991 11.1182H6.70724C5.9779 11.1182 5.83203 11.4615 5.83203 11.8402C5.83203 12.5163 6.69757 15.8698 9.86162 20.3049C11.9712 23.3335 14.9429 24.9756 17.6473 24.9756C19.2701 24.9756 19.4706 24.6109 19.4706 23.9828V21.6935C19.4706 20.9642 19.6243 20.8187 20.138 20.8187C20.5169 20.8187 21.1658 21.008 22.6804 22.4683C24.4112 24.1988 24.6963 24.9756 25.67 24.9756H28.2227C28.952 24.9756 29.3167 24.6109 29.1063 23.8912C28.8762 23.1739 28.0498 22.1335 26.9533 20.8998C26.3583 20.1966 25.4658 19.4394 25.1956 19.0608C24.8169 18.574 24.925 18.3577 25.1956 17.9252C25.1956 17.9252 28.3055 13.5441 28.63 12.0566V12.0565Z" fill="white"/>
</g>
</g>
</svg>
