<svg width="502" height="187" viewBox="0 0 502 187" fill="none" xmlns="http://www.w3.org/2000/svg">
<path d="M421.513 116.655C421.513 116.655 421.817 106.937 431.862 105.418C441.907 103.9 445.255 113.618 438.863 122.729C432.471 131.839 423.035 142.165 423.035 142.165C423.035 142.165 409.641 134.876 402.031 125.766C394.421 116.351 395.943 106.937 403.249 104.507C410.554 102.078 415.729 108.152 418.164 111.492C420.599 115.137 421.513 116.655 421.513 116.655Z" fill="#F5A300"/>
<path d="M414.817 115.44C414.817 112.403 411.773 110.278 408.73 110.581C407.208 110.278 405.381 110.278 404.468 112.1C403.555 113.618 404.164 115.744 405.381 116.959C407.512 119.085 414.513 119.996 414.817 115.44ZM409.338 113.011C409.947 113.011 410.556 113.011 410.86 113.314C410.252 113.011 409.643 113.011 409.338 113.011Z" fill="white"/>
<path d="M481.866 106.772C481.866 106.772 484.988 99.6206 492.925 101.482C500.863 103.343 500.463 111.582 492.986 116.467C485.508 121.352 475.4 126.235 475.4 126.235C475.4 126.235 467.591 116.813 464.634 107.757C461.768 98.4745 465.707 91.9125 471.875 92.2784C478.043 92.6444 480.089 98.7121 480.909 101.927C481.638 105.368 481.866 106.772 481.866 106.772Z" fill="#EC1C24"/>
<path d="M477.237 103.872C478.142 101.609 476.507 99.1178 474.148 98.4373C473.104 97.7576 471.743 97.2135 470.52 98.2993C469.387 99.1587 469.207 100.924 469.753 102.192C470.707 104.411 475.653 107.176 477.237 103.872ZM473.878 100.429C474.331 100.61 474.785 100.792 474.921 101.109C474.558 100.701 474.105 100.52 473.878 100.429Z" fill="white"/>
<g clip-path="url(#clip0)">
<path d="M305.713 63.553C305.325 62.3998 305.132 61.0543 304.744 59.9011C304.55 58.7478 304.357 57.5946 303.969 56.4413C303.775 55.8647 303.194 55.4803 302.613 55.4803C302.225 55.2881 301.644 55.2881 301.063 55.6725C300.869 55.8647 300.675 55.8647 300.482 56.0569C299.9 56.4413 299.707 57.2101 299.9 57.7868C301.45 63.1686 291.569 62.592 287.113 62.592C286.144 59.5166 285.757 56.4413 284.982 53.1738C286.532 52.4049 289.244 51.4439 289.632 53.1738C290.019 54.9037 292.925 54.327 292.732 52.5972C292.344 50.4829 291.763 48.3686 291.375 46.2543C291.375 46.0621 291.375 45.8699 291.182 45.4855V45.1011C290.794 43.3712 287.888 43.9478 288.082 45.6777C288.082 46.2543 288.275 46.6387 288.275 47.2153C288.275 47.5998 288.275 47.792 288.082 47.9842C287.694 48.3686 286.532 48.3686 285.95 48.5608C285.175 48.753 284.4 48.5608 283.819 48.753C283.432 47.0231 283.044 45.2933 282.657 43.5634C282.269 41.8335 282.075 40.1037 281.882 38.3738C284.982 37.605 296.413 33.3764 297.188 38.3738C297.382 39.527 298.157 39.9114 299.319 39.7192C299.707 39.7192 300.094 39.527 300.482 39.3348C301.257 38.9504 301.644 38.1816 301.45 37.4127C300.482 33.3764 300.869 27.8024 295.057 29.34C292.15 30.1088 289.438 31.2621 286.338 31.8387C282.463 32.6075 278.007 33.7608 274.132 33.3764C273.55 33.3764 273.163 33.5686 272.775 33.953C271.225 34.5296 272.194 37.2205 274.132 36.6439H274.325C274.325 36.8361 274.325 37.0283 274.325 37.2205C275.875 46.0621 279.169 54.327 280.913 63.1686L280.719 63.3608C279.363 64.3218 278.588 65.2829 278.975 66.8205C278.975 67.2049 278.975 67.5894 278.975 67.9738C278.975 68.7426 279.75 69.5114 280.719 69.5114C284.594 68.9348 288.469 68.3582 292.344 67.7816C294.282 67.3972 296.219 67.2049 298.157 67.0127C300.288 66.8205 302.419 65.8595 304.55 65.6673C305.519 65.4751 306.1 64.514 305.713 63.553Z" fill="#EC1C24"/>
<path d="M327.995 57.0183C326.445 56.6339 326.057 52.7898 325.67 51.6365C325.088 49.5222 323.926 47.7924 322.182 46.2547C318.695 43.3716 314.432 45.2937 311.72 48.1768C311.526 47.6001 311.138 47.0235 310.945 46.2547C310.557 45.6781 309.782 45.4859 309.201 45.6781C308.038 46.0625 306.876 46.4469 305.713 46.8313C303.776 47.4079 304.745 50.2911 306.682 49.7144L306.876 49.9066L307.263 50.2911C308.232 51.4443 307.845 53.7508 307.845 55.0963C307.845 55.4807 308.813 58.9404 308.62 59.1326C307.651 59.3248 307.263 59.9014 307.07 60.8625C307.07 61.6313 307.263 62.4001 307.457 63.169C307.651 63.7456 308.426 64.3222 309.007 64.3222C311.72 63.7456 314.432 63.3612 317.145 62.7846C318.113 62.5924 318.307 61.6313 318.113 60.8625C317.532 58.556 314.626 59.3248 314.045 57.595L313.851 57.4027C313.657 56.4417 313.657 55.4807 313.657 54.5196C313.657 54.3274 313.657 54.1352 313.657 53.943C313.851 52.0209 314.82 50.0988 316.951 49.33C320.245 47.9846 322.182 54.5196 322.957 57.7872H322.763C322.182 57.9794 321.795 58.3638 321.795 58.9404C321.795 59.517 321.795 60.0937 321.795 60.6703C321.795 61.6313 322.957 62.4001 323.926 62.0157C326.057 61.2469 329.351 61.6313 329.351 58.3638C329.351 57.7872 328.77 57.2105 327.995 57.0183Z" fill="#EC1C24"/>
<path d="M351.825 66.8211C350.663 67.3977 349.307 67.9743 347.757 68.5509C347.757 68.1665 347.757 67.7821 347.563 67.3977C348.144 58.3639 348.725 49.5224 349.307 40.4886C349.307 39.5276 348.725 38.5665 347.563 38.5665C346.982 38.5665 346.4 38.7587 345.819 38.9509C345.044 39.1432 344.85 39.912 344.85 40.4886C344.85 41.0652 344.85 41.4496 344.85 42.0263C342.913 40.2964 339.813 39.912 337.294 41.4496C333.419 43.5639 332.257 47.9847 332.257 52.0211C332.257 55.673 334 59.7094 337.875 60.4782C340.588 61.0548 342.719 59.9016 344.657 58.1717C344.657 62.2081 344.269 66.4367 343.3 70.473L342.913 70.6652C337.488 72.7795 332.644 76.2392 330.513 81.6211C328.769 86.2341 331.288 91.8081 336.519 92.0003C341.363 92.1925 345.238 88.5406 346.594 84.1198C347.757 80.2756 347.563 76.047 347.757 72.0107C349.694 71.2419 351.632 70.473 353.569 69.512C355.313 68.5509 353.569 65.86 351.825 66.8211ZM342.719 55.4808C341.169 57.4029 338.263 57.7873 336.713 56.0574C338.069 56.8263 340.007 56.6341 341.75 55.8652C342.332 55.673 342.719 55.2886 343.3 54.9042C342.913 55.2886 342.719 55.4808 342.719 55.4808ZM342.913 50.2912C342.525 52.0211 338.457 55.2886 337.488 52.5977C336.907 51.2522 337.294 49.7146 338.069 48.3691L338.457 48.1769C340.782 46.2548 343.688 46.6393 342.913 50.2912ZM335.163 85.0808C334 83.5431 335.163 80.8522 335.938 79.3146C337.488 76.4315 341.169 74.7016 344.075 73.5483H344.269C344.075 77.3925 343.3 81.0444 341.169 83.9276C340.007 85.0808 336.713 87.0029 335.163 85.0808Z" fill="#EC1C24"/>
<path d="M369.457 52.5969C368.682 50.6748 368.1 47.9839 365.194 48.1761C364.225 48.3683 363.451 49.1372 363.838 50.2904C364.226 51.4437 361.707 51.8281 359.382 52.0203C358.8 49.1372 358.025 46.4463 357.444 43.5632C357.25 42.6021 357.057 41.4489 356.863 40.4878C356.282 37.6047 356.088 34.7216 355.894 31.6463L356.669 31.4541C358.607 30.8774 357.638 27.9943 355.701 28.5709C353.763 29.1476 351.632 29.9164 349.501 30.1086C347.563 30.3008 347.757 33.3761 349.694 33.1839C350.082 33.1839 350.469 32.9917 350.857 32.9917C352.019 36.067 352.794 39.3346 353.376 42.4099C353.569 43.7554 355.313 51.6359 353.376 52.2125C352.794 52.4047 352.213 53.1735 352.213 53.7502C352.407 54.519 352.407 55.0956 352.6 55.8645C352.794 56.4411 353.569 57.0177 354.151 57.0177C358.801 56.6333 363.257 55.48 367.713 54.9034C369.069 54.519 369.844 53.558 369.457 52.5969Z" fill="#EC1C24"/>
<path d="M384.569 33.1841C383.6 33.3763 382.632 33.5685 381.663 33.9529C381.082 34.1452 380.5 34.914 380.5 35.4906C380.5 36.2594 380.694 37.0283 380.888 37.7971L380.694 37.6049C379.531 36.6439 378.175 36.2594 376.432 36.8361C371.006 37.6049 367.906 45.101 370.425 50.2906C371.781 52.9815 375.269 53.9426 377.982 52.4049C379.532 51.6361 380.888 50.2906 381.663 48.7529C381.857 49.714 382.244 50.8672 382.438 51.8283C382.632 52.4049 383.019 52.7893 383.6 52.7893C383.988 52.7893 384.375 52.9815 384.763 52.9815H385.15C386.119 53.1737 387.282 52.7893 387.282 51.4439C386.894 46.062 385.344 40.488 386.119 34.914C386.313 34.1452 385.732 32.9919 384.569 33.1841ZM378.175 46.062C377.981 47.0231 376.625 47.7919 375.656 47.5997C373.913 47.4075 373.913 44.3322 374.494 43.1789C374.688 42.9867 374.688 42.7945 374.688 42.6023C374.881 42.4101 375.075 42.0257 375.269 41.8335C375.463 41.6413 375.656 41.4491 375.85 41.2568C376.044 41.0646 376.238 40.8724 376.432 41.0646C378.175 41.0646 378.563 44.5244 378.175 46.062Z" fill="#EC1C24"/>
<path d="M402.2 35.1064C400.844 33.5687 399.1 32.9921 397.163 33.5687C395.419 34.1454 394.063 35.2986 393.094 36.8363C392.9 35.8752 392.901 34.9142 392.901 33.9531C392.901 32.4155 391.157 32.2233 390.382 32.9921C389.413 32.9921 388.251 33.7609 388.638 35.1064C389.219 37.6051 388.832 40.1038 389.026 42.4103C389.219 45.1012 390.382 47.4077 389.994 50.0986C389.801 51.2519 390.769 52.2129 392.125 51.8285C392.707 51.6363 393.482 51.4441 394.257 51.2518C394.838 51.0596 395.419 50.2908 395.419 49.7142C394.644 45.87 395.032 41.4492 398.132 38.9505C401.232 36.6441 401.038 47.7921 401.232 48.9454C401.425 49.9064 402.394 50.8674 403.363 50.2908C403.944 50.0986 404.332 49.9064 404.913 49.7142C405.494 49.522 406.075 48.9454 406.075 48.1765C405.107 43.7557 405.107 38.5661 402.2 35.1064Z" fill="#EC1C24"/>
<path d="M426.419 40.2961C426.031 37.9896 425.644 35.4909 425.256 33.1844C424.869 30.3013 424.288 27.6104 423.9 24.7272C423.706 23.574 423.512 22.613 423.512 21.4597C423.512 21.0753 423.512 20.6909 423.512 20.3065V20.1143C424.094 18.961 422.544 17.4233 421.381 18.1922C420.219 17.8078 418.863 18.7688 419.25 20.1143C419.444 20.8831 419.638 21.6519 419.831 22.4207C419.831 25.1117 420.219 27.8026 420.606 30.3013C420.606 31.4545 420.606 32.6078 420.606 33.761V33.9532C418.669 31.8389 415.375 32.0311 412.662 33.3766C409.175 35.2987 407.625 38.374 407.625 42.2181C407.625 45.4857 409.369 49.3298 412.856 49.522C416.537 49.7143 419.25 47.4078 420.994 44.3324C420.994 45.8701 420.994 47.2155 420.994 48.7532C420.994 49.7143 422.156 50.4831 423.125 50.0987C423.706 49.9065 424.481 49.522 425.063 49.522C425.45 49.3298 425.838 48.9454 426.031 48.561C426.419 48.3688 426.806 47.9844 427 47.4078C427.194 44.9091 426.613 42.6026 426.419 40.2961ZM417.506 41.2571C416.538 43.3714 414.794 43.948 413.244 42.0259L412.856 41.8337C413.05 40.4883 413.437 39.1428 413.825 38.5662C414.794 37.413 416.731 37.2207 417.7 38.374C418.281 39.1428 417.894 40.2961 417.506 41.2571Z" fill="#EC1C24"/>
</g>
<g clip-path="url(#clip1)">
<path d="M21.986 159.715C21.986 159.715 23.1243 166.608 26.371 169.706C29.6177 172.805 35.4695 176.576 41.7414 175.989C48.0133 175.401 53.3761 173.029 56.6686 168.532C59.9612 164.034 60.2515 160.565 60.2515 160.565C60.2515 160.565 59.9077 147.15 54.5907 141.61C49.2738 136.069 39.4496 133.883 31.306 137.824C23.1625 141.764 22.2916 148.109 21.7798 151.076C21.2679 154.043 21.986 159.715 21.986 159.715Z" fill="#231F20"/>
<path d="M112.298 155.21C112.298 155.21 112.787 147.127 118.998 141.966C125.209 136.804 134.888 136.703 142.237 141.231C149.586 145.76 151.404 158.278 151.404 158.278C151.404 158.278 151.305 164.46 148.348 169.011C145.392 173.562 140.747 177.859 132.749 178.237C129.212 178.442 125.687 177.664 122.555 175.989C119.423 174.314 116.804 171.805 114.98 168.733C111.825 163.169 111.412 156.215 111.412 156.215L112.298 155.21Z" fill="#231F20"/>
<path d="M4.36218 86.0279L4.27051 85.9506C5.11848 99.6742 6.7151 123.814 6.7151 123.814L5.51572 126.016C5.51572 126.016 5.82893 130.406 6.14215 139.215C6.45536 148.024 8.83884 160.642 8.83884 160.642C8.86186 161.197 8.99489 161.74 9.22999 162.241C9.46509 162.742 9.79747 163.191 10.2073 163.559C10.6172 163.927 11.0961 164.209 11.6157 164.386C12.1352 164.563 12.6847 164.633 13.2315 164.591C16.1802 164.591 22.7195 164.807 22.7195 164.807C22.7195 164.807 22.6279 163.471 22.3528 161.716C22.0778 159.962 20.825 155.094 22.2612 149.755C23.6974 144.415 29.3046 138.318 38.2503 137.09C47.196 135.861 52.0546 139.841 56.0806 146.586C60.1065 153.332 59.2203 157.745 59.7933 161.585C60.3662 165.426 61.5809 165.951 63.6129 165.804C65.645 165.657 99.0748 167.002 104.82 166.577C110.564 166.152 111.939 164.73 112.26 162.922C112.581 161.114 112.077 158.286 112.344 155.72C112.612 153.155 114.048 148.256 119.296 142.947C124.544 137.638 137.226 137.02 143.391 142.576C143.513 142.684 143.612 142.808 143.727 142.916C144.282 141.108 145.107 139.396 146.171 137.839C146.454 137.414 146.79 136.958 147.149 136.495L147.073 136.425C147.073 135.923 146.026 99.5815 145.056 73.4788L144.995 73.5483L4.36218 86.0279Z" fill="#C12026"/>
<path d="M3.69717 63.5647C3.52146 68.8192 3.63605 74.066 3.76592 77.2729C3.8194 78.517 4.00274 81.6156 4.25484 85.6492L4.33123 85.5565L144.972 73.077L145.063 73.1542C144.704 63.5415 144.353 55.3815 144.062 50.946L143.872 51.1779L3.69717 63.5647Z" fill="#F9A51A"/>
<path d="M161.725 10.2773C159.38 10.3546 157.203 10.4551 155.3 10.571C141.55 11.3978 105.148 16.436 88.6242 18.9937C72.1003 21.5514 27.7386 28.3669 19.259 32.0219C10.7793 35.6769 5.94358 45.9155 4.63725 53.1637C4.11175 56.4543 3.80295 59.7767 3.71289 63.1087L143.834 50.7451L144.063 50.9383C144.063 50.7219 144.063 50.4746 144.017 50.2737C142.856 33.5596 142.856 21.4046 146.607 16.3278C149.601 12.2633 155.889 10.7564 161.725 10.2773Z" fill="#C12026"/>
<path d="M3.61349 63.1165L3.40723 63.3637L3.64405 63.5724H3.69752C3.69752 63.4178 3.69752 63.2633 3.69752 63.1165H3.61349Z" fill="black"/>
<path d="M143.834 50.722L3.71289 63.1089C3.71289 63.2557 3.71289 63.4102 3.71289 63.5648L143.887 51.2011L144.078 50.9693L143.849 50.7761L143.834 50.722Z" fill="#C12026"/>
<path d="M143.834 50.722L3.71289 63.1089C3.71289 63.2557 3.71289 63.4102 3.71289 63.5648L143.887 51.2011L144.078 50.9693L143.849 50.7761L143.834 50.722Z" fill="#F9A51A"/>
<path d="M145.217 73.2855L145.063 73.1542C145.063 73.2546 145.063 73.3551 145.063 73.4555L145.217 73.2855Z" fill="black"/>
<path d="M4.11816 85.8192L4.27161 85.9505C4.27161 85.8501 4.27161 85.7496 4.27161 85.6492L4.11816 85.8192Z" fill="black"/>
<path d="M4.33128 85.5565L4.25488 85.6492C4.25488 85.7496 4.25488 85.8501 4.25488 85.9506L4.34655 86.0278L145.017 73.5251L145.079 73.4555C145.079 73.3551 145.079 73.2546 145.079 73.1542L144.987 73.0769L4.33128 85.5565Z" fill="#C12026"/>
<path d="M4.33128 85.5565L4.25488 85.6492C4.25488 85.7496 4.25488 85.8501 4.25488 85.9506L4.34655 86.0278L145.017 73.5251L145.079 73.4555C145.079 73.3551 145.079 73.2546 145.079 73.1542L144.987 73.0769L4.33128 85.5565Z" fill="#F9A51A"/>
<path d="M194.352 167.002C194.352 167.002 196.721 172.573 204.016 173.786C211.312 175 217.079 172.589 219.547 169.637C222.014 166.685 223.519 161.353 223.993 159.591C224.292 158.69 224.342 157.723 224.138 156.794L194.345 165.704L194.352 167.002Z" fill="#231F20"/>
<path d="M146.607 16.328C142.856 21.4048 142.856 33.5598 144.017 50.2275C145.086 65.5275 147.073 135.676 147.073 136.379L147.149 136.448L147.508 135.993C147.363 130.583 145.476 64.9016 144.452 50.2198C143.291 33.6216 143.276 21.5593 146.943 16.5984C150.61 11.6375 159.166 10.6098 165.743 10.5402C168.295 10.5576 170.846 10.426 173.382 10.1461L173.459 10.038C169.334 10.038 165.3 10.1539 161.671 10.2775C155.888 10.7566 149.601 12.2634 146.607 16.328Z" fill="#EC1C24"/>
<path d="M146.607 16.328C142.856 21.4048 142.856 33.5598 144.017 50.2275C145.086 65.5275 147.073 135.676 147.073 136.379L147.149 136.448L147.508 135.993C147.363 130.583 145.476 64.9016 144.452 50.2198C143.291 33.6216 143.276 21.5593 146.943 16.5984C150.61 11.6375 159.166 10.6098 165.743 10.5402C168.295 10.5576 170.846 10.426 173.382 10.1461L173.459 10.038C169.334 10.038 165.3 10.1539 161.671 10.2775C155.888 10.7566 149.601 12.2634 146.607 16.328Z" fill="#EC1C24"/>
<path d="M147.6 150.195L147.836 150.349C147.679 149.7 147.485 149.06 147.256 148.433C147.309 149.031 147.424 149.622 147.6 150.195Z" fill="black"/>
<path d="M148.028 150.056C148.028 150.01 146.66 145.706 149.556 140.358C153.154 133.674 167.638 123.181 191.236 123.428C214.009 123.691 226.873 132.044 227.003 132.129L227.316 132.059L227.248 131.75C227.133 131.673 217.454 125.406 200.097 123.521L200.266 123.737L200.021 123.93C199.983 123.93 196.599 123.497 190.678 123.374C186.732 123.317 182.786 123.49 178.86 123.891C162.359 126.573 152.122 134.632 149.166 140.119C147.745 142.634 147.096 145.52 147.302 148.41C147.532 149.037 147.725 149.677 147.883 150.326L148.028 150.056Z" fill="#EC1C24"/>
<path d="M143.681 143.163L143.841 143.442H143.902L144.108 143.264C143.986 143.14 143.872 143.017 143.742 142.901C143.711 143.04 143.688 143.148 143.681 143.163Z" fill="black"/>
<path d="M157.516 128.984C164.2 125.939 172.298 124.533 178.845 123.892C182.94 123.236 187.083 122.933 191.228 122.987C194.376 122.987 197.34 123.219 200.082 123.521C200.082 123.521 196.645 123.08 190.694 122.949C188.646 122.91 170.358 122.686 157.356 128.605C153.558 130.266 150.195 132.798 147.531 136C147.531 136.209 147.531 136.348 147.531 136.379L147.325 136.603L147.165 136.456C146.806 136.92 146.469 137.376 146.187 137.801C145.122 139.358 144.298 141.07 143.742 142.877C143.872 142.993 143.987 143.117 144.109 143.241C144.647 141.381 145.48 139.622 146.576 138.032C149.313 134.039 153.104 130.904 157.516 128.984Z" fill="#EC1C24"/>
<path d="M149.151 140.134C152.115 134.632 162.344 126.573 178.845 123.907C172.298 124.548 164.2 125.955 157.516 128.999C153.104 130.925 149.316 134.066 146.584 138.063C145.488 139.653 144.654 141.412 144.116 143.272C145.517 144.753 146.596 146.514 147.287 148.441C147.078 145.546 147.727 142.654 149.151 140.134Z" fill="#C12026"/>
<path d="M157.371 128.566C170.358 122.647 188.692 122.871 190.709 122.91C196.66 123.041 200.067 123.466 200.098 123.482C215.919 125.205 225.537 130.491 227.202 131.472C227.309 130.977 227.92 128.01 227.202 125.731C226.438 123.242 224.101 121.612 222.26 120.692C220.419 119.773 219.868 118.173 219.7 115.793C219.532 113.413 218.302 78.5246 218.302 78.5246L214.078 79.0423L215.071 118.583L200.304 118.266L198.662 81.9091L216.316 78.3623C216.316 78.3623 219.815 78.8723 222.046 76.4305C224.276 73.9887 223.665 69.3137 223.237 63.2478C222.81 57.1819 222.473 30.7314 219.616 22.2933C216.759 13.8551 210.296 11.6992 203.574 10.8183C199.242 10.231 186.003 9.97598 173.475 10.0919L173.398 10.2001C170.861 10.4799 168.311 10.6115 165.759 10.5942C159.174 10.6637 150.557 11.7842 146.959 16.6523C143.36 21.5205 143.307 33.6523 144.468 50.2737C145.492 65.0173 147.379 130.637 147.524 136.046C150.185 132.81 153.557 130.249 157.371 128.566Z" fill="#EC1C24"/>
<path d="M232.809 140.343C232.358 135.83 228.439 132.577 227.416 131.797L227.301 132.059L226.988 132.129C226.858 132.044 214.001 123.691 191.221 123.428C167.623 123.181 153.138 133.674 149.54 140.358C146.66 145.706 148.012 150.01 148.012 150.056L147.875 150.334C148.468 152.706 148.67 155.16 148.471 157.598C148.616 158.572 148.934 159.512 149.41 160.372C150.075 161.377 153.795 163.95 161.206 166.121C168.616 168.292 182.703 168.772 188.86 167.883C195.017 166.994 208.669 165.565 221.213 158.533C233.756 151.501 233.321 145.543 232.809 140.343Z" fill="#EC1C24"/>
<path d="M148.028 150.056C148.028 150.01 146.66 145.706 149.556 140.358C153.154 133.674 167.638 123.181 191.236 123.428C214.009 123.691 226.873 132.044 227.003 132.129L227.316 132.059L227.248 131.75C227.133 131.673 217.454 125.406 200.097 123.521L200.266 123.737L200.021 123.93C199.983 123.93 196.599 123.497 190.678 123.374C186.732 123.317 182.786 123.49 178.86 123.891C162.359 126.573 152.122 134.632 149.166 140.119C147.745 142.634 147.096 145.52 147.302 148.41C147.532 149.037 147.725 149.677 147.883 150.326L148.028 150.056Z" fill="#EC1C24"/>
<path d="M227.415 131.796L227.469 131.681L227.186 131.51C227.183 131.544 227.183 131.578 227.186 131.611L227.415 131.796Z" fill="black"/>
<path d="M227.233 131.75L227.301 132.059L227.416 131.797L227.164 131.611C227.161 131.578 227.161 131.544 227.164 131.511C225.499 130.529 215.881 125.244 200.06 123.521C217.439 125.406 227.118 131.673 227.233 131.75Z" fill="#EC1C24"/>
<path d="M157.516 128.984C164.2 125.939 172.298 124.533 178.845 123.892C182.94 123.236 187.083 122.933 191.228 122.987C194.376 122.987 197.34 123.219 200.082 123.521C200.082 123.521 196.645 123.08 190.694 122.949C188.646 122.91 170.358 122.686 157.356 128.605C153.558 130.266 150.195 132.798 147.531 136C147.531 136.209 147.531 136.348 147.531 136.379L147.325 136.603L147.165 136.456C146.806 136.92 146.469 137.376 146.187 137.801C145.122 139.358 144.298 141.07 143.742 142.877C143.872 142.993 143.987 143.117 144.109 143.241C144.647 141.381 145.48 139.622 146.576 138.032C149.313 134.039 153.104 130.904 157.516 128.984Z" fill="#C12026"/>
<path d="M147.332 136.618L147.539 136.394C147.539 136.394 147.539 136.224 147.539 136.016L147.18 136.472L147.332 136.618Z" fill="#EC1C24"/>
<path d="M178.845 123.891C182.771 123.49 186.717 123.317 190.663 123.374C196.583 123.497 199.967 123.922 200.006 123.93L200.25 123.737L200.082 123.521C197.317 123.219 194.375 123.018 191.228 122.987C187.082 122.933 182.94 123.236 178.845 123.891Z" fill="#EC1C24"/>
<path d="M178.845 123.891C182.771 123.49 186.717 123.317 190.663 123.374C196.583 123.497 199.967 123.922 200.006 123.93L200.25 123.737L200.082 123.521C197.317 123.219 194.375 123.018 191.228 122.987C187.082 122.933 182.94 123.236 178.845 123.891Z" fill="#EC1C24"/>
<path d="M121.145 151.74C121.145 151.74 119.877 151.022 119.862 150.04C119.847 149.059 120.802 148.603 121.657 148.619C122.089 148.585 122.522 148.679 122.902 148.889C122.902 148.889 121.55 147.004 122.635 145.937C122.986 145.615 123.439 145.43 123.913 145.418C124.387 145.405 124.85 145.565 125.217 145.868L125.591 146.308C125.591 146.308 125.309 144.917 125.935 144.26C126.234 143.931 126.649 143.734 127.091 143.711C127.532 143.688 127.965 143.841 128.296 144.137C128.686 144.455 129.033 144.824 129.327 145.234C129.327 145.234 129.908 143.635 130.702 143.364C131.124 143.272 131.563 143.302 131.968 143.451C132.373 143.6 132.729 143.862 132.994 144.206C133.338 144.809 133.17 145.08 133.17 145.08C133.17 145.08 134.048 143.75 134.866 143.72C135.073 143.685 135.286 143.693 135.49 143.742C135.695 143.792 135.888 143.881 136.059 144.006C136.229 144.131 136.373 144.289 136.483 144.47C136.593 144.652 136.667 144.854 136.699 145.064C136.814 146.115 136.607 146.409 136.607 146.409C137.139 146.043 137.708 145.735 138.303 145.489C138.998 145.25 140.007 145.342 140.213 146.177C140.419 147.011 139.663 148.611 139.663 148.611C140.3 148.314 141.008 148.207 141.703 148.302C141.858 148.361 141.999 148.454 142.117 148.572C142.234 148.691 142.325 148.833 142.385 148.99C142.444 149.147 142.469 149.315 142.46 149.483C142.45 149.65 142.406 149.814 142.329 149.963C142.138 150.457 141.9 150.93 141.619 151.377C141.619 151.377 143.208 150.968 143.727 151.91C143.912 152.272 143.965 152.688 143.877 153.085C143.789 153.482 143.566 153.835 143.246 154.082C143.01 154.214 142.75 154.298 142.482 154.329C142.482 154.329 144.438 154.692 144.995 155.72C145.127 155.898 145.208 156.109 145.232 156.33C145.257 156.55 145.222 156.774 145.133 156.977C145.043 157.18 144.902 157.355 144.724 157.485C144.545 157.614 144.336 157.693 144.117 157.714C143.667 157.726 143.218 157.765 142.772 157.83C142.772 157.83 145.003 158.517 145.362 159.638C145.442 159.9 145.461 160.178 145.418 160.449C145.375 160.721 145.27 160.978 145.113 161.202C144.956 161.426 144.75 161.611 144.511 161.742C144.272 161.872 144.006 161.946 143.735 161.956C143.061 161.938 142.395 161.818 141.756 161.601C141.756 161.601 143.727 162.59 143.934 163.416C144.14 164.243 143.849 165.58 142.497 165.58C141.543 165.518 140.622 165.198 139.831 164.653C140.311 165.361 140.557 166.205 140.534 167.064C140.528 167.36 140.452 167.651 140.312 167.911C140.173 168.172 139.973 168.394 139.731 168.561C139.488 168.727 139.21 168.833 138.919 168.868C138.628 168.903 138.333 168.867 138.059 168.764C137.341 168.344 136.711 167.788 136.202 167.126C136.378 167.998 136.402 168.895 136.271 169.776C136.197 170.014 136.057 170.226 135.868 170.387C135.679 170.548 135.448 170.651 135.204 170.685C134.959 170.719 134.71 170.682 134.485 170.579C134.26 170.475 134.069 170.309 133.934 170.101C133.461 169.514 133.096 168.847 132.856 168.13C132.856 168.13 133.246 169.961 132.497 170.626C132.32 170.817 132.104 170.967 131.864 171.068C131.624 171.168 131.366 171.215 131.107 171.207C130.848 171.199 130.593 171.136 130.36 171.021C130.127 170.906 129.921 170.742 129.755 170.541C129.171 169.781 128.818 168.865 128.739 167.906C128.739 167.906 128.785 169.614 127.379 169.791C127.109 169.846 126.83 169.837 126.563 169.766C126.297 169.695 126.05 169.564 125.841 169.382C125.632 169.201 125.467 168.973 125.357 168.718C125.248 168.462 125.197 168.184 125.209 167.906C125.195 167.426 125.323 166.952 125.576 166.546C125.576 166.546 124.812 167.883 123.766 167.829C123.558 167.817 123.356 167.759 123.174 167.659C122.991 167.559 122.833 167.419 122.71 167.25C122.586 167.081 122.501 166.887 122.461 166.681C122.42 166.475 122.425 166.263 122.475 166.059C122.607 165.568 122.838 165.11 123.154 164.715C123.154 164.715 122.016 165.951 121.008 165.905C119.999 165.858 119.518 164.854 119.717 163.416C119.814 162.586 120.198 161.817 120.802 161.245C120.802 161.245 119.213 162.791 118.074 161.933C117.838 161.725 117.65 161.467 117.525 161.176C117.4 160.885 117.342 160.57 117.353 160.253C117.365 159.937 117.447 159.627 117.593 159.346C117.739 159.066 117.945 158.822 118.197 158.633C118.716 158.241 119.3 157.948 119.923 157.768C119.923 157.768 118.105 157.613 117.547 156.918C117.408 156.737 117.322 156.521 117.299 156.293C117.276 156.066 117.317 155.836 117.416 155.631C117.516 155.425 117.67 155.252 117.862 155.132C118.054 155.011 118.276 154.947 118.502 154.947C119.013 154.905 119.528 154.936 120.03 155.04C120.03 155.04 118.67 153.935 119.014 152.822C119.358 151.71 119.969 151.516 120.374 151.632C120.779 151.748 121.138 151.71 121.138 151.756" fill="#7FB439"/>
<path d="M138.02 156.64C138.11 157.918 137.824 159.194 137.197 160.308C136.57 161.421 135.631 162.321 134.498 162.895C133.365 163.468 132.089 163.688 130.833 163.528C129.576 163.367 128.394 162.833 127.438 161.993C126.481 161.153 125.792 160.045 125.459 158.809C125.125 157.573 125.161 156.265 125.563 155.05C125.965 153.834 126.714 152.767 127.715 151.983C128.717 151.198 129.926 150.732 131.19 150.643C132.028 150.583 132.869 150.691 133.665 150.96C134.462 151.229 135.198 151.654 135.833 152.211C136.467 152.767 136.986 153.445 137.362 154.205C137.737 154.965 137.96 155.792 138.02 156.64Z" fill="#F9A51A"/>
<path d="M29.7094 149.075C29.7094 149.075 28.4413 148.364 28.426 147.375C28.4108 146.386 29.3733 145.953 30.2289 145.953C30.6603 145.923 31.0909 146.022 31.4665 146.239C31.4665 146.239 30.1143 144.346 31.1991 143.279C31.5484 142.954 32.0025 142.767 32.4773 142.754C32.952 142.742 33.4153 142.903 33.7812 143.21L34.1632 143.65C34.1632 143.65 33.8805 142.252 34.4993 141.602C34.6458 141.436 34.8235 141.302 35.022 141.206C35.2205 141.11 35.4359 141.055 35.6556 141.044C35.8753 141.033 36.0949 141.067 36.3017 141.143C36.5084 141.219 36.6982 141.336 36.8599 141.487C37.2474 141.807 37.5939 142.176 37.8912 142.584C37.8912 142.584 38.4718 140.977 39.2739 140.698C39.6956 140.606 40.1343 140.637 40.5397 140.786C40.9452 140.935 41.3008 141.196 41.5657 141.541C41.9095 142.159 41.7414 142.422 41.7414 142.422C41.7414 142.422 42.6276 141.092 43.4297 141.062C43.6371 141.025 43.8496 141.031 44.0548 141.079C44.2599 141.127 44.4535 141.216 44.6243 141.34C44.7951 141.465 44.9395 141.622 45.0492 141.804C45.1589 141.986 45.2317 142.188 45.2632 142.398C45.3854 143.457 45.1791 143.751 45.1791 143.751C45.7104 143.384 46.2789 143.076 46.8751 142.831C47.5779 142.592 48.5863 142.692 48.7773 143.519C48.9682 144.346 48.2272 145.953 48.2272 145.953C48.8685 145.661 49.577 145.554 50.2746 145.644C50.4301 145.704 50.5712 145.797 50.6887 145.917C50.8063 146.036 50.8976 146.179 50.9567 146.337C51.0158 146.494 51.0414 146.663 51.0318 146.831C51.0222 146.999 50.9776 147.163 50.901 147.313C50.7096 147.806 50.4716 148.28 50.1905 148.727C50.1905 148.727 51.7872 148.302 52.2913 149.252C52.4807 149.613 52.537 150.031 52.4503 150.43C52.3635 150.829 52.1393 151.184 51.8177 151.432C51.5808 151.561 51.3214 151.642 51.0538 151.671C51.0538 151.671 53.0018 152.05 53.5671 153.062C53.6953 153.239 53.7754 153.448 53.7994 153.666C53.8234 153.884 53.7905 154.105 53.704 154.307C53.6175 154.508 53.4804 154.683 53.3063 154.815C53.1322 154.946 52.9272 155.029 52.7115 155.056C52.264 155.068 51.8177 155.107 51.3746 155.172C51.3746 155.172 53.6053 155.852 53.9644 156.987C54.0473 157.25 54.0689 157.528 54.0275 157.8C53.9861 158.072 53.8829 158.33 53.7259 158.555C53.5688 158.78 53.3624 158.964 53.1227 159.095C52.8831 159.225 52.6168 159.297 52.3448 159.306C51.6693 159.298 50.9991 159.183 50.3586 158.966C50.3586 158.966 52.3066 159.955 52.5129 160.727C52.7192 161.5 52.4289 162.883 51.0843 162.891C50.1282 162.824 49.2073 162.499 48.4182 161.948C48.8962 162.661 49.1419 163.506 49.121 164.367C49.1196 164.668 49.0471 164.964 48.9097 165.23C48.7722 165.497 48.5737 165.726 48.3307 165.899C48.0877 166.072 47.8073 166.184 47.5129 166.226C47.2185 166.267 46.9186 166.236 46.6382 166.137C45.9229 165.704 45.2934 165.141 44.7819 164.475C44.9572 165.345 44.9804 166.24 44.8506 167.118C44.7805 167.361 44.6426 167.578 44.4534 167.743C44.2642 167.909 44.0318 168.016 43.7841 168.051C43.5365 168.086 43.284 168.048 43.0572 167.941C42.8303 167.835 42.6387 167.664 42.5054 167.45C42.0347 166.868 41.6747 166.202 41.4435 165.487C41.4435 165.487 41.8255 167.311 41.0768 167.983C40.8989 168.174 40.683 168.325 40.4434 168.425C40.2038 168.525 39.9458 168.573 39.6866 168.565C39.4274 168.557 39.1729 168.493 38.9398 168.378C38.7066 168.263 38.5003 168.1 38.3343 167.898C37.7544 167.139 37.4018 166.227 37.3182 165.271C37.3182 165.271 37.3717 166.979 35.9584 167.149C35.6882 167.203 35.4093 167.194 35.1429 167.123C34.8764 167.053 34.6294 166.921 34.4204 166.74C34.2114 166.558 34.046 166.331 33.9366 166.075C33.8272 165.819 33.7767 165.542 33.7889 165.263C33.7749 164.783 33.9025 164.31 34.1555 163.903C34.1555 163.903 33.3916 165.248 32.3374 165.178C32.1308 165.165 31.9297 165.106 31.7481 165.006C31.5665 164.906 31.4089 164.766 31.2865 164.597C31.1641 164.428 31.0798 164.235 31.0396 164.029C30.9994 163.824 31.0043 163.612 31.054 163.409C31.1919 162.922 31.4229 162.468 31.7339 162.072C31.7339 162.072 30.5803 163.308 29.5872 163.262C28.5941 163.216 28.0975 162.188 28.2656 160.727C28.363 159.903 28.7443 159.14 29.3428 158.572C29.3428 158.572 27.7538 160.117 26.6308 159.252C26.3927 159.045 26.2039 158.786 26.0782 158.496C25.9526 158.205 25.8935 157.889 25.9052 157.572C25.917 157.255 25.9993 156.944 26.1461 156.664C26.2929 156.383 26.5003 156.14 26.753 155.952C27.2718 155.561 27.8533 155.263 28.4719 155.071C28.4719 155.071 26.6537 154.932 26.096 154.244C25.9572 154.064 25.8713 153.847 25.8481 153.62C25.825 153.392 25.8655 153.163 25.965 152.957C26.0645 152.752 26.2191 152.579 26.4111 152.458C26.6031 152.337 26.8248 152.273 27.051 152.274C27.5487 152.234 28.0495 152.26 28.5406 152.351C28.5406 152.351 27.1885 151.254 27.5246 150.149C27.8607 149.044 28.4795 148.843 28.8844 148.951C29.2893 149.059 29.6483 149.021 29.6483 149.067" fill="#7FB439"/>
<path d="M46.6004 153.989C46.6887 155.265 46.4016 156.539 45.7752 157.65C45.1489 158.761 44.2113 159.659 43.0808 160.232C41.9503 160.804 40.6774 161.026 39.4227 160.867C38.1681 160.709 36.9878 160.179 36.0308 159.343C35.0737 158.507 34.3828 157.404 34.0451 156.171C33.7074 154.939 33.738 153.633 34.1331 152.418C34.5283 151.203 35.2702 150.134 36.2654 149.345C37.2605 148.556 38.4643 148.083 39.725 147.985C40.567 147.919 41.4136 148.022 42.216 148.288C43.0183 148.555 43.7606 148.979 44.3998 149.538C45.0391 150.096 45.5627 150.777 45.9404 151.541C46.3181 152.305 46.5424 153.137 46.6004 153.989Z" fill="#F9A51A"/>
<path d="M11.6499 106.289C11.6499 106.289 11.4666 102.356 12.4673 101.451C13.4681 100.547 18.1128 100.207 19.8622 100.215C21.6116 100.223 29.9767 99.6742 31.8636 99.6355C33.7505 99.5969 35.6833 99.6355 36.218 101.513C36.7528 103.391 36.7986 111.18 36.982 113.583C37.1653 115.986 37.1806 119.657 35.2173 120.491C33.254 121.326 22.9943 120.947 20.2747 121.063C17.5551 121.179 13.6132 121.527 12.8034 120.561C11.9937 119.595 12.0395 113.228 11.818 111.76C11.6651 109.94 11.6141 108.114 11.6652 106.289" fill="white"/>
<path d="M42.0158 118.938C42.0158 118.938 41.1984 112.586 41.0227 108.785C40.847 104.983 41.0227 101.212 42.0311 100.169C43.0395 99.1256 47.5391 98.7933 50.0448 98.5769C52.5505 98.3606 62.092 98.0283 63.3754 97.9742C64.6588 97.9201 66.5763 98.3142 66.8284 101.359C67.0805 104.403 67.3632 112.988 67.3708 115.028C67.3784 117.068 67.5007 119.58 63.9331 119.835C60.3655 120.09 47.8905 120.468 45.6522 120.484C43.4138 120.499 42.6499 120.19 42.3978 119.889C42.2133 119.599 42.0838 119.276 42.0158 118.938Z" fill="white"/>
<path d="M71.6646 116.535C71.6646 116.535 70.9007 108.506 70.977 105.292C71.0534 102.077 71.2062 98.6851 72.3369 97.7578C73.4675 96.8305 75.9961 96.8537 78.5094 96.7224C81.0228 96.591 92.1533 96.1583 94.0402 96.166C95.9272 96.1737 97.73 96.3669 98.1655 98.716C98.6865 103.006 98.9773 107.322 99.0364 111.644C99.0364 114.07 99.235 117.176 97.753 118.343C96.2709 119.51 88.5857 119.556 85.8127 119.657C83.0396 119.757 75.9273 119.657 74.2238 119.603C73.6653 119.589 73.1267 119.391 72.6906 119.037C72.2545 118.684 71.9451 118.196 71.8097 117.648C71.741 117.277 71.634 116.535 71.634 116.535" fill="white"/>
<path d="M104.987 106.212C104.987 106.212 104.361 96.0347 104.453 93.3302C104.544 90.6256 104.277 88.1375 105.316 87.2643C106.355 86.3911 108.639 86.1593 109.96 86.0974C111.282 86.0356 113.238 86.1515 113.52 89.0029C113.803 91.8543 114.33 110.415 114.468 113.614C114.605 116.813 115.377 120.152 113.497 120.793C111.497 121.286 109.42 121.373 107.386 121.048C106.408 120.839 105.522 119.966 105.293 117.432C105.064 114.897 104.972 106.212 104.972 106.212" fill="white"/>
<path d="M116.745 93.7088C116.745 93.7088 116.394 89.312 116.929 87.7433C117.463 86.1747 118.456 85.4947 120.389 85.3556C122.322 85.2165 125.049 85.062 126.142 84.9461C127.234 84.8301 127.807 86.3138 127.975 88.1606C128.143 90.0074 128.105 93.817 127.647 94.5433C127.188 95.2697 124.339 95.2002 121.871 95.3779C119.404 95.5556 117.945 95.7024 117.326 95.4706C116.707 95.2388 116.745 93.7088 116.745 93.7088Z" fill="white"/>
<path d="M129.105 92.766C128.95 91.0705 128.922 89.3657 129.021 87.6659C129.25 86.3059 129.135 85.425 130.35 84.9614C131.565 84.4978 136.462 84.6755 137.6 84.8687C138.738 85.0619 139.617 86.0278 139.96 88.4155C140.304 90.8032 140.22 93.9714 139.326 94.4505C138.433 94.9296 133.979 94.7519 132.313 94.6746C130.648 94.5973 130.19 95.1073 129.609 94.7287C129.028 94.35 129.105 92.766 129.105 92.766Z" fill="white"/>
<path d="M116.988 97.1706C116.988 97.1706 117.92 107.927 117.859 110.307C117.798 112.687 117.981 117.316 118.325 118.274C118.669 119.232 119.922 120.105 123.78 120.067C127.638 120.028 136.965 119.356 138.516 119.294C140.067 119.232 140.808 117.501 140.716 115.191C140.624 112.88 140.12 96.1738 140.12 96.1738L116.988 97.1706Z" fill="white"/>
<path d="M150.839 91.8696C150.839 91.8696 150.434 86.051 150.892 84.7992C151.351 83.5474 151.16 83.2537 153.016 82.9833C154.872 82.7128 168.295 82.4887 169.769 82.651C171.244 82.8133 172.252 82.8596 172.451 84.9692C172.649 87.0787 172.634 92.851 172.596 94.806C172.558 96.761 173.291 98.9865 170.625 99.6742C167.959 100.362 153.925 100.509 152.902 100.447C151.878 100.385 151.45 99.991 151.435 98.4533C151.42 96.9155 150.839 91.9083 150.839 91.9083" fill="white"/>
<path d="M176.934 97.2015C176.934 97.2015 176.797 90.7029 176.69 88.4388C176.583 86.1747 176.247 84.0574 176.69 83.3311C177.133 82.6047 179.043 82.8288 180.662 82.9138C182.282 82.9988 190.272 83.0993 191.831 83.0452C193.389 82.9911 194.283 83.3311 194.573 85.5333C194.864 87.7356 195.223 96.7379 195.192 97.6652C195.162 98.5924 195.864 99.937 193.244 99.9834C190.624 100.03 180.876 99.7979 179.356 99.852C177.836 99.9061 177.293 99.852 177.064 99.1797C176.932 98.5266 176.901 97.8566 176.972 97.1938" fill="white"/>
<path d="M152.711 114.039C152.711 114.039 152.077 108.221 152.367 107.085C152.657 105.949 152.803 104.821 156.691 104.589C160.579 104.357 182.29 104.202 184.957 104.202C187.623 104.202 193.749 103.978 194.529 104.481C195.308 104.983 195.422 106.188 195.621 108.344C195.82 110.5 195.667 115.585 195.659 116.79C195.652 117.996 195.659 118.838 191.358 118.961C187.057 119.085 156.981 119.657 155.064 119.556C153.146 119.456 152.696 118.467 152.772 117.501C152.848 116.535 152.711 114.016 152.711 114.016" fill="white"/>
<path d="M9.7246 53.3183C9.7246 53.3183 10.7177 48.6819 13.7887 45.9619C16.8598 43.2419 19.5717 42.1756 21.4281 42.0442C23.2844 41.9129 24.0637 41.936 24.2623 44.1615C24.4609 46.3869 24.9116 52.932 24.9651 54.2688C25.0186 55.6056 24.8123 56.5097 22.276 56.896C19.7398 57.2824 11.581 57.576 10.6566 57.6688C9.73224 57.7615 9.16693 56.5251 9.2968 55.6365C9.42667 54.7479 9.7246 53.3647 9.7246 53.3647" fill="white"/>
<path d="M29.1217 52.8933C29.1217 52.8933 28.4723 46.3869 28.5793 44.5787C28.6862 42.7706 28.4418 41.4878 29.137 40.8465C29.8321 40.2051 31.3065 40.2669 33.3004 40.0042C35.2943 39.7415 47.1047 38.3892 48.3423 38.2578C49.5798 38.1265 50.3667 38.9456 50.4736 40.5065C50.5806 42.0674 51.1077 50.6601 50.9626 51.9583C50.8174 53.2565 50.1986 54.5546 47.6624 54.6628C45.1261 54.771 33.3157 55.7678 31.8184 55.876C31.3177 55.9561 30.8048 55.8727 30.3542 55.6379C29.9036 55.403 29.5388 55.029 29.3127 54.5701C29.2037 54.0174 29.1398 53.4566 29.1217 52.8933Z" fill="white"/>
<path d="M55.6832 51.2319C55.6832 51.2319 54.9881 43.5046 54.9193 41.0087C54.8506 38.5128 55.1103 37.6628 56.3631 37.2224C57.616 36.7819 66.6151 35.7696 68.991 35.4528C71.3668 35.136 75.515 34.8655 76.172 34.8965C76.8289 34.9274 77.6234 35.1824 77.6998 36.8978C77.7762 38.6133 78.3568 46.781 78.3263 48.5815C78.2957 50.3819 77.8603 51.796 75.049 52.1128C72.2377 52.4296 59.4724 53.3878 58.1355 53.6042C57.658 53.6305 57.1828 53.5206 56.7641 53.287C56.3453 53.0534 55.9999 52.7054 55.7673 52.2828L55.6527 51.2319" fill="white"/>
<path d="M82.7272 45.8769C82.7272 45.8769 82.1772 40.8232 82.1695 38.5128C82.1619 36.2023 81.9251 34.4482 83.6287 33.8764C85.3322 33.3046 97.708 32.1996 99.9234 31.8441C102.139 31.4887 105.164 31.2723 105.5 32.2305C105.836 33.1887 105.966 37.3382 106.104 39.3241C106.241 41.31 106.486 45.2587 106.44 46.75C106.394 48.2414 105.859 49.5009 102.345 49.841C98.831 50.181 87.4789 51.1855 86.0427 51.201C84.6065 51.2164 83.3384 50.7759 83.0328 49.2228C82.8388 48.1285 82.7366 47.0195 82.7272 45.9078" fill="white"/>
<path d="M111.069 43.6206C111.069 43.6206 110.442 34.7188 110.305 33.1115C110.167 31.5043 110.412 30.3297 112.512 29.7811C114.613 29.2324 135.033 27.5402 136.859 27.4629C138.685 27.3856 139.548 27.7411 139.747 31.0329C139.945 34.3247 140.22 41.2252 140.289 42.7552C140.358 44.2852 140.197 45.8461 135.56 46.7038C130.923 47.5615 115.202 48.2492 113.613 48.2492C113.028 48.2782 112.454 48.0798 112.01 47.6947C111.565 47.3097 111.283 46.7671 111.221 46.1783C111.16 45.3283 111.038 43.5742 111.038 43.5742" fill="white"/>
<path d="M148.814 33.8609C148.814 33.8609 148.539 28.9309 149.143 27.6327C149.746 26.3346 152.031 25.585 154.215 25.7009C156.4 25.8168 168.249 25.1677 172.985 25.2218C177.722 25.2759 180.266 25.7241 180.884 26.8137C181.503 27.9032 181.412 31.0482 181.465 33.3664C181.518 35.6846 181.801 40.3982 181.526 41.4723C181.251 42.5464 179.876 43.4041 175.972 43.6359C172.069 43.8678 154.422 44.2773 152.405 44.2696C150.388 44.2618 149.533 44.115 149.25 41.8278C148.967 39.5405 148.814 33.8609 148.814 33.8609Z" fill="white"/>
<path d="M187.401 41.7275C187.401 41.7275 187.47 32.7793 187.363 30.1984C187.256 27.6175 187.096 26.3348 188.456 25.8016C189.815 25.2684 197.623 25.222 201.626 25.1061C205.712 25.0353 209.798 25.2781 213.849 25.8325C215.3 26.1648 216.232 27.3779 216.515 30.2293C216.798 33.0807 216.958 38.1575 216.996 39.9193C217.034 41.6811 217.37 42.4848 215.858 43.0102C214.345 43.5357 205.927 43.5279 202.29 43.5511C198.654 43.5743 188.769 43.8138 188.211 43.6207C187.653 43.4275 187.287 43.1802 187.34 42.8479C187.376 42.4911 187.391 42.1325 187.386 41.7738" fill="white"/>
<path d="M195.307 161.431L195.078 161.199V134.246C195.078 134.177 195.078 133.334 196.766 130.753C198.455 128.172 202.679 126.024 207.897 127.4C213.115 128.775 213.924 133.728 214.352 138.28C214.704 142.143 215.322 157.25 214.887 157.783L214.719 157.861C214.719 157.861 200.273 161.5 195.307 161.431Z" fill="#F9A51A"/>
<path d="M193.833 161.5L175.498 160.882C174.887 159.986 175.04 160.928 175.132 145.567C175.132 142.893 175.132 140.582 175.132 139.23C175.078 131.093 178.462 129.084 181.426 128.257C186.614 126.782 190.853 128.868 192.588 131.426C194.322 133.983 194.337 134.833 194.337 134.911L194.772 161.276C194.764 161.306 194.751 161.335 194.734 161.361C194.566 161.678 193.894 161.5 193.833 161.5Z" fill="#F9A51A"/>
<path d="M176.469 161.5L176.247 161.276C176.247 161.137 176.545 147.421 176.621 142.383C176.713 137.569 177.103 132.337 179.417 130.274C180.691 129.086 182.255 128.262 183.948 127.886L184.215 128.064L184.032 128.335C182.424 128.709 180.938 129.494 179.715 130.614C177.523 132.6 177.156 137.955 177.08 142.391C176.988 147.429 176.698 161.145 176.698 161.276L176.492 161.508" fill="#231F20"/>
<path d="M196.912 161.176L196.69 160.944C196.69 160.735 196.69 140.08 196.606 136.479C196.492 132.616 198.516 129.347 200.579 128.064C201.991 127.255 203.593 126.849 205.216 126.89L205.43 127.121L205.193 127.346C203.661 127.308 202.148 127.693 200.815 128.458C198.867 129.664 196.942 132.801 197.057 136.464C197.172 140.126 197.095 160.727 197.095 160.944L196.881 161.176" fill="#231F20"/>
<path d="M193.176 157.466H193.161L177.424 157.775L177.194 157.551L177.416 157.32L193.153 157.01L193.39 157.242L193.176 157.466Z" fill="#231F20"/>
<path d="M193.306 159.251H193.29L177.553 159.568L177.324 159.336L177.538 159.105L193.283 158.803L193.512 159.027L193.306 159.251Z" fill="#231F20"/>
<path d="M193.611 155.272H193.604L177.867 155.573L177.63 155.349L177.851 155.117L193.596 154.824L193.825 155.032L193.611 155.272Z" fill="#231F20"/>
<path d="M193.451 152.954H193.444L177.707 153.263L177.47 153.039L177.691 152.815L193.436 152.498L193.665 152.73L193.451 152.954Z" fill="#231F20"/>
<path d="M193.222 150.659H193.214L177.691 150.945L177.454 150.721L177.676 150.497L193.199 150.203L193.428 150.427L193.222 150.659Z" fill="#231F20"/>
<path d="M193.207 148.341H193.192L177.966 148.603L177.737 148.379L177.959 148.155L193.184 147.885L193.413 148.109L193.207 148.341Z" fill="#231F20"/>
<path d="M193.199 146.169H193.192L177.966 146.432L177.737 146.216L177.959 145.984L193.184 145.713L193.413 145.945L193.199 146.169Z" fill="#231F20"/>
<path d="M193.062 144.23H193.054L177.829 144.5L177.6 144.276L177.821 144.044L193.046 143.774L193.276 144.006L193.062 144.23Z" fill="#231F20"/>
<path d="M193 142.29H192.992L177.76 142.561L177.538 142.329L177.76 142.105L192.985 141.834L193.214 142.058L193 142.29Z" fill="#231F20"/>
<path d="M193 140.196H192.992L177.767 140.459L177.538 140.235L177.767 140.011L192.985 139.732L193.222 139.964L193 140.196Z" fill="#231F20"/>
<path d="M193.099 138.249H193.084L177.859 138.504L177.622 138.287L177.844 138.048L193.069 137.785L193.298 138.002L193.099 138.249Z" fill="#231F20"/>
<path d="M193.176 136.286H193.161L177.943 136.549L177.714 136.332L177.935 136.101L193.161 135.838L193.39 136.054L193.176 136.286Z" fill="#231F20"/>
<path d="M192.893 134.37H192.886L178.47 134.571L178.241 134.346L178.455 134.115L192.878 133.906L193.107 134.13L192.893 134.37Z" fill="#231F20"/>
<path d="M192.542 132.592H192.534L178.722 132.902L178.493 132.685L178.715 132.453L192.527 132.129L192.748 132.361L192.542 132.592Z" fill="#231F20"/>
<path d="M191.32 130.877H191.304L179.929 131.171L179.7 130.954L179.922 130.715L191.297 130.436L191.526 130.637L191.32 130.877Z" fill="#231F20"/>
<path d="M189.357 129.301H189.349L182.841 129.393L182.611 129.169L182.833 128.93L189.342 128.852L189.571 129.069L189.357 129.301Z" fill="#231F20"/>
<path d="M213.39 155.867H213.382L197.661 156.67L197.424 156.446L197.622 156.207H197.638L213.36 155.419L213.589 155.627L213.39 155.867Z" fill="#231F20"/>
<path d="M213.565 157.652H213.557L197.836 158.456L197.606 158.239L197.805 158L213.542 157.196L213.771 157.412L213.565 157.652Z" fill="#231F20"/>
<path d="M213.756 153.657H213.749L198.027 154.453L197.79 154.244L197.996 154.005H198.004L213.733 153.209L213.963 153.417L213.756 153.657Z" fill="#231F20"/>
<path d="M213.519 151.346L197.79 152.142L197.553 151.934L197.759 151.694H197.767L213.496 150.906L213.725 151.115L213.519 151.346Z" fill="#231F20"/>
<path d="M213.222 149.051H213.215L197.707 149.832L197.478 149.623L197.684 149.376L213.184 148.595L213.428 148.82L213.222 149.051Z" fill="#231F20"/>
<path d="M213.129 146.741L197.919 147.483L197.683 147.274L197.897 147.027L213.107 146.293L213.336 146.494L213.129 146.741Z" fill="#231F20"/>
<path d="M213.061 144.562L197.851 145.311L197.606 145.095L197.828 144.863L213.038 144.114L213.275 144.33L213.061 144.562Z" fill="#231F20"/>
<path d="M212.87 142.638H212.863L197.653 143.38L197.416 143.171L197.63 142.924L212.84 142.182L213.077 142.398L212.87 142.638Z" fill="#231F20"/>
<path d="M212.741 140.698L197.531 141.44L197.294 141.232L197.508 140.984L212.718 140.242L212.955 140.467L212.741 140.698Z" fill="#231F20"/>
<path d="M212.679 138.604L197.469 139.346L197.232 139.137L197.439 138.898L212.656 138.148L212.885 138.365L212.679 138.604Z" fill="#231F20"/>
<path d="M212.702 136.649L197.492 137.391L197.255 137.175L197.469 136.943L212.671 136.201L212.916 136.41L212.702 136.649Z" fill="#231F20"/>
<path d="M212.733 134.694L197.515 135.428L197.286 135.227L197.492 134.98L212.71 134.238L212.939 134.455L212.733 134.694Z" fill="#231F20"/>
<path d="M212.397 132.786H212.381L197.981 133.45L197.752 133.226L197.966 132.987L212.366 132.322L212.603 132.546L212.397 132.786Z" fill="#231F20"/>
<path d="M211.992 131.016L198.196 131.773L197.959 131.549L198.158 131.317H198.165L211.962 130.568L212.199 130.777L211.992 131.016Z" fill="#231F20"/>
<path d="M210.708 129.347L199.34 129.996L199.104 129.78L199.317 129.548L210.685 128.891L210.922 129.107L210.708 129.347Z" fill="#231F20"/>
<path d="M53.995 154.113C54.2547 152.923 53.0935 151.934 51.9858 151.625C52.2727 151.405 52.4883 151.104 52.6054 150.76C52.7224 150.416 52.7354 150.044 52.6428 149.693C52.5195 149.261 52.2359 148.895 51.8514 148.67C51.4669 148.445 51.0113 148.38 50.5802 148.487C51.1378 147.622 51.7337 146.532 50.8094 145.659C50.5022 145.412 50.1211 145.277 49.7284 145.277C49.3356 145.277 48.9545 145.412 48.6474 145.659C49.0141 144.747 49.4113 143.573 48.7085 142.924C47.6619 141.981 46.3633 142.653 45.3854 143.434C45.5294 142.958 45.5061 142.446 45.3195 141.986C45.1329 141.525 44.7945 141.144 44.3617 140.907C43.3533 140.351 42.4748 141.208 41.8866 142.012C41.4359 139.694 38.6781 140.072 37.7843 142.082C37.1884 141.216 36.2564 140.42 35.164 140.946C34.7878 141.137 34.4649 141.42 34.2247 141.769C33.9846 142.119 33.8347 142.524 33.7889 142.947C33.4246 142.652 32.972 142.492 32.5055 142.492C32.039 142.492 31.5864 142.652 31.2221 142.947C30.2289 143.72 30.3588 144.863 30.9012 145.806C30.4793 145.654 30.0204 145.643 29.5917 145.774C29.1629 145.904 28.7866 146.17 28.5177 146.532C28.2918 146.883 28.2004 147.305 28.2609 147.72C28.3215 148.134 28.5296 148.511 28.8462 148.781C27.1427 148.735 26.7912 150.744 27.983 151.949C27.0357 151.949 25.9586 152.15 25.7447 153.17C25.5308 154.19 26.4704 154.986 27.4329 155.241C26.2107 155.952 25.1411 157.436 25.9051 158.772C26.1563 159.2 26.5572 159.517 27.0282 159.66C27.4993 159.803 28.0063 159.762 28.449 159.545C28.178 160.012 28.03 160.541 28.0193 161.083C28.0086 161.624 28.1355 162.159 28.3879 162.636C29.0067 163.757 30.0991 163.563 30.9852 163.022C30.8353 163.372 30.8096 163.764 30.9125 164.131C31.0154 164.498 31.2406 164.818 31.5499 165.036C31.8592 165.254 32.2335 165.358 32.6096 165.329C32.9856 165.3 33.3402 165.14 33.6132 164.877C33.5557 165.319 33.6185 165.768 33.7948 166.177C33.9712 166.585 34.2544 166.937 34.6139 167.195C34.8427 167.316 35.0932 167.389 35.3504 167.409C35.6077 167.43 35.8664 167.398 36.111 167.315C36.3557 167.232 36.5813 167.1 36.7743 166.927C36.9673 166.753 37.1237 166.542 37.2342 166.307C37.3652 166.87 37.6423 167.389 38.037 167.809C38.4318 168.228 38.9299 168.534 39.4802 168.694C40.947 169.088 41.5581 167.86 41.7185 166.654C42.1463 167.566 42.8033 168.47 43.8117 168.323C45.1792 168.107 45.3396 166.484 45.1333 165.232C46.1799 166.191 47.4251 166.778 48.7314 165.727C49.6023 164.954 49.4343 163.672 48.9683 162.636C50.0531 163.169 51.4663 163.277 52.3372 162.42C53.3991 161.369 52.4289 160.171 51.4205 159.383C52.4824 159.507 53.6283 159.337 54.0026 158.247C54.4839 156.81 53.5824 155.929 52.4747 155.334C52.8341 155.326 53.1805 155.196 53.4577 154.965C53.735 154.734 53.927 154.414 54.0026 154.059L53.995 154.113ZM51.3059 154.886C51.2533 154.883 51.2014 154.899 51.1596 154.931C51.1178 154.964 51.0887 155.01 51.0777 155.062C51.0666 155.115 51.0743 155.169 51.0993 155.216C51.1244 155.263 51.1651 155.299 51.2142 155.318C52.4213 155.674 53.9797 156.331 53.7047 157.884C53.4296 159.437 51.4129 159.012 50.4121 158.657L50.2593 159.074C51.2601 159.638 53.3991 161.16 51.7872 162.335C50.8857 162.976 49.2662 162.389 48.5252 161.74L48.1967 162.033C48.9606 163.046 49.3961 164.607 48.2654 165.542C47.1348 166.477 45.8056 165.232 45.0416 164.398V164.305H44.6368V164.614C44.7784 165.117 44.8504 165.637 44.8507 166.16C44.8507 166.979 44.209 168.223 43.2388 167.767C42.4748 167.427 42.0699 166.222 41.7949 165.518C41.7109 165.287 41.3366 165.341 41.3671 165.603C41.4817 166.824 41.3136 168.439 39.6406 168.238C38.3878 168.084 37.5322 166.446 37.6773 165.302C37.6773 165.016 37.2953 164.923 37.2419 165.209C37.0509 166.322 35.8821 167.582 34.7362 166.647C34.404 166.307 34.1877 165.869 34.119 165.396C34.0503 164.924 34.1327 164.441 34.3542 164.019V163.957C34.3682 163.932 34.3771 163.903 34.3803 163.874C34.3835 163.844 34.3809 163.815 34.3728 163.786C34.3646 163.758 34.351 163.732 34.3328 163.709C34.3145 163.686 34.2919 163.666 34.2663 163.652C34.2408 163.638 34.2127 163.629 34.1837 163.626C34.1546 163.623 34.1253 163.625 34.0973 163.633C34.0693 163.642 34.0431 163.655 34.0203 163.674C33.9976 163.692 33.9786 163.715 33.9646 163.741C33.5368 164.514 32.8111 165.225 31.8867 164.823C30.8401 164.375 31.3443 163.015 31.7874 162.335L31.4283 162.087C30.5498 162.93 29.2435 163.455 28.6247 162.049C28.439 161.498 28.419 160.903 28.5672 160.341C28.7154 159.778 29.0252 159.273 29.4574 158.888L29.1365 158.587C28.3038 159.36 26.7072 159.669 26.2259 158.355C25.6835 156.902 27.2954 155.519 28.5177 155.264C28.7698 155.21 28.6705 154.862 28.4413 154.847H28.342C28.0583 154.899 27.7668 154.889 27.4873 154.817C27.2079 154.745 26.947 154.613 26.7225 154.43C26.0808 153.943 25.9586 152.969 26.7225 152.598C27.3253 152.398 27.9638 152.332 28.5941 152.405L28.6858 151.965C27.1045 151.022 27.3489 148.673 29.4497 149.345L29.6407 148.959C28.8768 148.395 28.2504 147.552 28.8768 146.641C29.5032 145.729 30.5727 146.084 31.2985 146.463L31.5506 146.092C30.7866 145.219 30.4581 143.982 31.5506 143.187C31.885 142.957 32.2923 142.862 32.6923 142.921C33.0923 142.979 33.4562 143.187 33.7125 143.503L33.8271 144.16L34.2625 144.114L34.4764 143.766L34.1327 143.302C34.1381 142.732 34.347 142.184 34.7209 141.757C35.7904 140.49 37.0127 141.757 37.5856 142.707L37.9905 142.638C38.5406 140.567 41.3824 139.995 41.4282 142.638L41.8484 142.731C42.3144 142.043 42.8644 141.139 43.8346 141.239C45.2937 141.378 44.9653 143.071 44.7437 143.967L45.1257 144.176C45.8896 143.503 47.7994 142.027 48.487 143.527C48.8384 144.299 48.1814 145.427 47.914 146.131L48.2273 146.417C48.7105 145.983 49.3311 145.739 49.9767 145.729C50.8934 145.829 50.8094 147.12 50.5267 147.684C50.3136 148.046 50.0816 148.397 49.8315 148.735L50.0989 149.052C50.9698 148.766 51.833 148.889 52.1462 149.824C52.1969 150.014 52.2071 150.212 52.1762 150.406C52.1453 150.599 52.074 150.784 51.9671 150.948C51.8602 151.112 51.72 151.25 51.556 151.355C51.3919 151.46 51.2077 151.528 51.0156 151.555C50.733 151.617 50.8781 152.042 51.1455 151.98C51.6852 151.947 52.2185 152.113 52.6468 152.447C53.0751 152.78 53.3694 153.26 53.4755 153.796C53.6359 155.048 51.9476 155.017 51.1837 154.924" fill="#231F20"/>
<path d="M154.139 127.199C153.714 127.23 153.289 127.133 152.918 126.919C152.547 126.706 152.247 126.386 152.056 126C151.866 125.614 151.793 125.179 151.846 124.751C151.9 124.323 152.078 123.921 152.358 123.595C152.638 123.27 153.007 123.035 153.419 122.922C153.831 122.809 154.266 122.823 154.671 122.96C155.075 123.098 155.43 123.354 155.69 123.696C155.951 124.038 156.105 124.45 156.133 124.881C156.171 125.455 155.982 126.021 155.609 126.456C155.235 126.89 154.707 127.157 154.139 127.199Z" fill="#F9A51A"/>
<path d="M219.142 126.797C218.501 126.843 217.861 126.695 217.303 126.373C216.745 126.051 216.294 125.569 216.008 124.987C215.721 124.406 215.611 123.751 215.692 123.107C215.773 122.462 216.041 121.856 216.463 121.366C216.885 120.875 217.441 120.523 218.06 120.352C218.68 120.182 219.336 120.201 219.945 120.408C220.555 120.614 221.089 120.999 221.482 121.513C221.875 122.028 222.108 122.648 222.152 123.296C222.211 124.164 221.927 125.02 221.363 125.676C220.798 126.332 220 126.736 219.142 126.797Z" fill="#F9A51A"/>
<path d="M164.361 149.283C162.908 149.388 161.458 149.055 160.193 148.326C158.928 147.597 157.905 146.505 157.253 145.188C156.601 143.872 156.35 142.389 156.531 140.928C156.711 139.467 157.316 138.092 158.269 136.979C159.222 135.865 160.479 135.062 161.883 134.671C163.287 134.28 164.773 134.319 166.155 134.782C167.537 135.246 168.752 136.113 169.647 137.275C170.542 138.436 171.076 139.84 171.183 141.309C171.319 143.28 170.678 145.226 169.4 146.721C168.121 148.216 166.309 149.137 164.361 149.283Z" fill="#231F20"/>
<path d="M165.232 146.664C164.191 146.741 163.152 146.504 162.244 145.983C161.337 145.461 160.603 144.68 160.135 143.736C159.668 142.793 159.487 141.73 159.617 140.683C159.747 139.636 160.181 138.651 160.864 137.854C161.548 137.056 162.45 136.482 163.456 136.203C164.462 135.925 165.528 135.955 166.517 136.289C167.507 136.624 168.376 137.247 169.015 138.082C169.654 138.916 170.033 139.924 170.106 140.977C170.203 142.384 169.744 143.773 168.83 144.839C167.917 145.905 166.623 146.561 165.232 146.664Z" fill="#F9A51A"/>
<path d="M223.779 146.594C222.423 146.69 221.07 146.377 219.889 145.695C218.709 145.013 217.755 143.992 217.148 142.762C216.541 141.531 216.308 140.147 216.479 138.783C216.65 137.419 217.217 136.136 218.108 135.098C218.999 134.059 220.174 133.312 221.485 132.949C222.797 132.586 224.185 132.624 225.474 133.059C226.764 133.494 227.897 134.305 228.731 135.391C229.564 136.477 230.061 137.789 230.158 139.161C230.223 140.072 230.109 140.988 229.823 141.856C229.537 142.723 229.085 143.525 228.492 144.215C227.9 144.906 227.179 145.471 226.37 145.879C225.561 146.288 224.681 146.53 223.779 146.594Z" fill="#231F20"/>
<path d="M224.596 144.16C223.625 144.226 222.656 144 221.812 143.51C220.967 143.019 220.286 142.287 219.853 141.405C219.419 140.523 219.254 139.531 219.378 138.555C219.501 137.578 219.908 136.66 220.547 135.917C221.186 135.174 222.028 134.639 222.967 134.379C223.906 134.12 224.9 134.148 225.824 134.459C226.747 134.771 227.559 135.352 228.156 136.129C228.754 136.907 229.11 137.846 229.18 138.828C229.27 140.15 228.838 141.454 227.979 142.454C227.119 143.453 225.903 144.067 224.596 144.16Z" fill="#F9A51A"/>
<path d="M156.348 71.2224C155.899 71.2551 155.447 71.216 155.011 71.1065C154.41 70.9397 153.865 70.6129 153.433 70.1602C153 69.7076 152.695 69.1457 152.551 68.5333C152.395 67.7497 152.403 66.9417 152.575 66.1616C152.748 65.3815 153.08 64.6468 153.552 64.0051C154.216 63.0229 155.083 62.1983 156.093 61.5886C157.104 60.9788 158.233 60.5984 159.403 60.4738C162.062 60.1569 163.437 62.0192 164.835 64.0438C166.428 61.6686 167.897 59.2105 169.235 56.6797C168.961 56.7448 168.683 56.7912 168.402 56.8188C167.857 56.9165 167.298 56.8982 166.76 56.7652C166.222 56.6321 165.717 56.3872 165.278 56.046C164.709 55.5703 164.301 54.9277 164.109 54.2069C163.832 54.2345 163.553 54.2345 163.276 54.2069C162.069 54.1297 161.267 53.7665 160.885 53.1328C160.751 52.8792 160.674 52.5988 160.66 52.3116C160.645 52.0245 160.694 51.7376 160.801 51.4715L161.107 51.3633L161.221 51.6569C161.139 51.8555 161.101 52.07 161.11 52.285C161.12 52.5001 161.176 52.7105 161.275 52.901C161.573 53.4033 162.253 53.6737 163.299 53.751C163.538 53.7748 163.779 53.7748 164.017 53.751C163.942 53.087 164.034 52.4146 164.285 51.796C164.428 51.3037 164.713 50.8658 165.104 50.5382C165.494 50.2106 165.972 50.0083 166.477 49.9569C166.636 49.9597 166.792 50.0065 166.926 50.0924C167.061 50.1782 167.17 50.2997 167.241 50.4437C167.343 50.7839 167.36 51.1444 167.289 51.4926C167.218 51.8407 167.063 52.1655 166.836 52.4374C166.291 53.2516 165.48 53.8453 164.545 54.1142C164.719 54.7225 165.073 55.262 165.561 55.6597C165.953 55.959 166.404 56.1715 166.883 56.2833C167.362 56.3951 167.859 56.4038 168.341 56.3088C168.741 56.2653 169.136 56.193 169.525 56.0924L169.602 55.9378C171.405 52.6537 172.955 49.8178 174.399 48.396C175.988 46.8506 177.508 46.2787 178.28 46.951C178.884 47.4997 178.937 48.8983 177.249 51.2087C175.362 53.6856 172.771 55.5192 169.823 56.4633C168.4 59.1966 166.822 61.8438 165.095 64.3915C166.279 66.1224 167.516 67.8688 169.617 68.6878C174.292 70.496 177.035 66.1688 177.149 65.9756L177.463 65.906L177.531 66.2228C177.531 66.2692 174.476 71.0601 169.464 69.1206C167.287 68.2783 165.965 66.4547 164.827 64.7778C164.091 65.8043 163.279 66.7729 162.398 67.6756C159.755 70.3106 157.723 71.0679 156.332 71.1683L156.348 71.2224ZM159.663 60.8988H159.441C158.337 61.0144 157.27 61.3724 156.317 61.9475C155.363 62.5227 154.544 63.3014 153.918 64.2292C153.481 64.8148 153.171 65.4869 153.008 66.2019C152.844 66.9169 152.832 67.6586 152.971 68.3788C153.096 68.9156 153.362 69.4086 153.739 69.8067C154.117 70.2049 154.593 70.4936 155.118 70.6429C156.218 70.9288 158.563 70.8979 162.077 67.3819C162.975 66.4547 163.802 65.4602 164.552 64.4069C163.185 62.4056 161.985 60.7056 159.663 60.8678V60.8988ZM177.386 47.1906C176.358 47.3998 175.424 47.9424 174.728 48.736C173.36 50.0651 171.871 52.7697 170.144 55.9147C172.812 54.9563 175.156 53.2522 176.905 51.0001C178.303 49.0683 178.433 47.7547 177.99 47.3528C177.906 47.2843 177.809 47.2344 177.705 47.2065C177.601 47.1785 177.492 47.1731 177.386 47.1906ZM166.34 50.436C165.959 50.5308 165.609 50.7227 165.323 50.9932C165.037 51.2638 164.824 51.604 164.705 51.9815C164.485 52.5215 164.407 53.1095 164.476 53.6892C165.292 53.4432 165.999 52.919 166.477 52.2056C166.655 51.9957 166.782 51.7465 166.847 51.478C166.912 51.2095 166.913 50.9294 166.852 50.6601L166.454 50.4283H166.34" fill="#231F20"/>
<path d="M183.115 67.4669C182.998 67.4864 182.878 67.4678 182.772 67.4136C182.666 67.3594 182.581 67.2725 182.527 67.1655C182.282 66.7714 182.42 66.1223 182.901 65.396C183.563 64.3654 184.279 63.3722 185.048 62.421L185.14 61.8878C184.581 62.2154 183.975 62.4526 183.344 62.591C183.208 62.9304 183.029 63.25 182.81 63.5414C182.237 64.3142 180.518 65.8596 178.738 65.9137C178.265 65.9157 177.798 65.8031 177.377 65.5853C176.955 65.3675 176.592 65.0509 176.316 64.6619C175.308 63.4023 175.338 61.4628 176.408 59.6314C177.363 57.9701 179.188 56.4632 181.106 56.7878C181.507 56.8416 181.893 56.9793 182.239 57.1922C182.585 57.405 182.883 57.6884 183.115 58.0242C184.108 59.5696 183.642 61.741 183.619 61.8337L183.535 61.9573V62.0887C184.148 61.92 184.733 61.6595 185.269 61.316C185.56 59.3919 185.735 58.3719 186.194 58.1246C186.372 58.0348 186.579 58.0193 186.769 58.0814C186.959 58.1435 187.117 58.2782 187.21 58.4569C187.387 58.8391 187.434 59.2698 187.344 59.682C187.254 60.0941 187.033 60.4648 186.713 60.7364C187.683 59.8864 188.646 59.4305 189.402 59.8246C190.464 60.3732 189.884 62.0578 189.402 63.5569C189.181 64.2137 188.837 65.1951 188.99 65.3419H189.303C190.343 65.0349 191.297 64.4873 192.091 63.7423H192.405V64.0592C191.568 64.8755 190.544 65.4701 189.425 65.7901C189.295 65.8364 188.898 65.9755 188.661 65.7205C188.424 65.4655 188.585 64.5692 188.959 63.4642C189.387 62.2046 189.922 60.6437 189.211 60.2805C188.356 59.8478 186.958 60.9837 185.544 62.6837C185.389 63.7365 185.133 64.7716 184.781 65.7746C184.307 66.9955 183.635 67.4824 183.161 67.5133L183.115 67.4669ZM184.872 63.3637C184.307 64.0901 183.757 64.9092 183.237 65.6819C182.825 66.3155 182.764 66.8023 182.871 66.9801L183.062 67.0728C183.39 67.0728 183.917 66.5628 184.292 65.6046C184.553 64.8775 184.748 64.1273 184.872 63.3637ZM180.365 57.1819C178.906 57.2823 177.515 58.5496 176.774 59.8323C176.033 61.1151 175.575 63.0237 176.637 64.3605C176.873 64.6928 177.184 64.9634 177.544 65.1502C177.904 65.3369 178.303 65.4344 178.707 65.4346C180.281 65.4346 181.916 63.8892 182.428 63.2555L182.794 62.6373C182.129 62.695 181.46 62.5583 180.869 62.2433C180.664 62.1251 180.493 61.9544 180.373 61.7482C180.254 61.542 180.191 61.3076 180.189 61.0687C180.181 60.7617 180.249 60.4574 180.386 60.1835C180.524 59.9096 180.726 59.6747 180.976 59.5001C181.2 59.3654 181.456 59.2943 181.717 59.2943C181.978 59.2943 182.234 59.3654 182.458 59.5001C182.784 59.6931 183.063 59.9571 183.276 60.2728C183.265 59.5728 183.073 58.8879 182.718 58.2869C182.521 58.0013 182.267 57.7607 181.972 57.581C181.677 57.4013 181.348 57.2864 181.007 57.2437H180.365V57.1819ZM181.618 59.8169L181.213 59.9405C181.023 60.0714 180.869 60.248 180.763 60.4544C180.658 60.6608 180.605 60.8905 180.609 61.1228C180.614 61.2796 180.657 61.4328 180.736 61.568C180.815 61.7031 180.927 61.8158 181.06 61.8955C181.656 62.2026 182.333 62.3108 182.993 62.2046C183.128 61.8288 183.162 61.4236 183.092 61.0301C183.037 60.7973 182.932 60.5796 182.784 60.3927C182.636 60.2057 182.449 60.054 182.237 59.9482L181.618 59.8014V59.8169ZM185.636 61.5787V61.7873L186.194 61.2001H186.156L185.667 61.5555L185.636 61.5787ZM186.492 58.4646H186.385C186.125 58.596 185.919 59.7783 185.758 60.891L185.888 60.7982C187.004 59.9173 187.049 59.0132 186.813 58.6269L186.492 58.4414" fill="#231F20"/>
<path d="M208.339 67.0884H208.21C208.07 67.0528 207.941 66.9856 207.831 66.8919C207.721 66.7982 207.634 66.6804 207.576 66.5475C207.14 65.5893 207.896 63.7811 208.248 63.047C208.544 62.4415 208.903 61.8691 209.317 61.3393C209.371 60.7211 209.432 60.0798 209.478 59.4461C208.902 60.3479 208.199 61.1601 207.392 61.857C207.297 62.1717 207.18 62.4791 207.041 62.7766C206.391 64.1752 205.154 65.6588 203.848 65.8675C203.489 65.9364 203.119 65.9003 202.781 65.7634C202.443 65.6265 202.15 65.3945 201.938 65.0948L201.739 64.7548C201.12 65.5121 200.281 66.0529 199.34 66.3002C199.05 66.3935 198.74 66.4076 198.442 66.3411C198.144 66.2746 197.869 66.1299 197.644 65.9216C197.278 65.4514 197.105 64.8561 197.163 64.2602C196.768 64.6992 196.285 65.0481 195.746 65.2839C195.208 65.5197 194.625 65.637 194.039 65.6279C193.718 65.603 193.41 65.4954 193.142 65.3155C192.875 65.1356 192.657 64.8893 192.511 64.6002C192.317 63.9906 192.255 63.3461 192.329 62.7103C192.403 62.0744 192.611 61.4619 192.939 60.9143C193.19 60.4181 193.561 59.9943 194.018 59.6822C194.475 59.3701 195.002 59.1799 195.551 59.1293C195.867 59.0827 196.189 59.1131 196.491 59.218C196.792 59.3228 197.065 59.4991 197.285 59.732C197.541 60.0427 197.712 60.4156 197.782 60.8138C198.622 57.5761 201.189 49.872 202.831 49.1534C202.92 49.1033 203.02 49.077 203.122 49.077C203.223 49.077 203.323 49.1033 203.412 49.1534C203.506 49.2108 203.585 49.2896 203.644 49.3835C203.702 49.4774 203.738 49.5839 203.748 49.6943C204 51.1161 202.411 54.9411 201.716 56.5098C200.695 58.9607 199.414 61.2925 197.896 63.4643L197.69 63.6961C197.622 64.0128 197.618 64.3401 197.677 64.6586C197.736 64.9771 197.857 65.2804 198.034 65.5507C198.21 65.6949 198.419 65.7918 198.642 65.8323C198.865 65.8729 199.095 65.8557 199.31 65.7825C200.219 65.5312 201.023 64.989 201.602 64.237C201.412 63.511 201.466 62.7421 201.754 62.0502C201.935 61.6208 202.232 61.2514 202.61 60.9838V60.3811C202.704 59.7701 202.97 59.1994 203.377 58.7375C203.783 58.2756 204.313 57.9421 204.902 57.777C205.334 57.6564 205.793 57.6843 206.208 57.8563C206.623 58.0284 206.969 58.3348 207.194 58.7275C207.594 59.4478 207.722 60.2911 207.553 61.0998C208.334 60.3055 209.008 59.4089 209.554 58.4338L209.821 58.3257L209.974 58.5652C209.974 58.9284 209.906 59.7398 209.821 60.7211C210.784 59.647 211.938 58.7661 212.793 58.7738C212.93 58.7729 213.065 58.8038 213.188 58.8641C213.312 58.9244 213.419 59.0125 213.504 59.1216C214.153 59.8943 213.87 62.0348 213.504 64.1752C213.336 65.0561 213.412 65.6511 213.733 65.8984C214.054 66.1457 214.665 66.0684 215.429 65.682C215.837 65.5173 216.204 65.2626 216.502 64.9365C216.801 64.6103 217.024 64.2209 217.155 63.7966L217.423 63.6188L217.598 63.8816C217.452 64.3755 217.198 64.8302 216.856 65.2125C216.513 65.5948 216.091 65.8951 215.62 66.0916C214.65 66.5629 213.924 66.6248 213.465 66.2538C213.007 65.8829 212.862 65.172 213.076 64.0902C213.29 63.0084 213.802 60.1648 213.19 59.4538L212.824 59.2684C211.991 59.2684 210.746 60.3502 209.768 61.5866C209.531 63.9048 209.142 66.6248 208.546 67.0729L208.317 67.1579L208.339 67.0884ZM209.233 62.2898C209.008 62.6135 208.804 62.9516 208.622 63.302C207.965 64.7007 207.713 65.8907 207.957 66.3929L208.294 66.6788C208.622 66.5398 208.966 64.6234 209.233 62.2588V62.2898ZM202.068 64.3916L202.312 64.8475C202.484 65.0722 202.714 65.2445 202.977 65.3454C203.24 65.4463 203.525 65.4718 203.802 65.4193C204.764 65.2879 205.933 64.1443 206.644 62.6143L206.766 62.3284C206.417 62.5424 206.026 62.6745 205.62 62.7148C204.84 62.8385 204.042 62.7228 203.328 62.3825C202.989 63.096 202.574 63.7697 202.09 64.3916H202.068ZM195.566 59.5775C195.093 59.623 194.638 59.7885 194.244 60.0585C193.85 60.3286 193.53 60.6947 193.313 61.1229C193.018 61.6036 192.828 62.1425 192.755 62.7036C192.683 63.2646 192.73 63.8349 192.893 64.3761C193.009 64.596 193.179 64.7824 193.386 64.9176C193.593 65.0528 193.831 65.1324 194.077 65.1488C195.062 65.257 196.201 64.6698 197.239 63.5261C197.239 63.2325 197.316 62.9157 197.377 62.5834L197.324 62.3825C197.324 62.3825 197.629 60.837 196.942 59.9948C196.763 59.816 196.546 59.6822 196.307 59.6043C196.068 59.5265 195.814 59.5067 195.566 59.5466V59.5775ZM202.717 61.4552C202.48 61.669 202.292 61.9327 202.167 62.2279C201.957 62.7137 201.891 63.2504 201.976 63.7734C202.375 63.2282 202.718 62.643 203 62.027L202.717 61.4784V61.4552ZM203.091 49.5398H202.992C202.709 49.6634 201.892 50.3125 200.372 54.2379C199.483 56.5082 198.73 58.8306 198.118 61.1925C197.965 61.7952 197.858 62.3438 197.782 62.8307C199.768 60.1184 203.649 51.6802 203.282 49.6943L203.183 49.4625H203.091V49.5398ZM203.534 61.8261C204.184 62.1545 204.921 62.2602 205.635 62.1275C206.158 62.0609 206.652 61.8437 207.056 61.5016C207.207 61.0772 207.268 60.6258 207.236 60.1761C207.205 59.7264 207.081 59.2883 206.873 58.8898C206.708 58.5611 206.433 58.3026 206.097 58.1609C205.761 58.0192 205.386 58.0037 205.039 58.117C204.538 58.2565 204.086 58.5378 203.737 58.9279C203.388 59.3179 203.156 59.8006 203.068 60.3193V60.7134H203.359C203.504 60.7829 203.817 61.0148 203.542 61.7798L203.534 61.8261ZM203.122 61.1152L203.198 61.3316V61.1307H203.137" fill="#231F20"/>
<path d="M190.372 48.0716C189.272 48.0716 188.73 48.8443 188.279 49.7175C187.515 48.3652 185.514 47.4688 184.872 49.3929C184.663 50.244 184.761 51.1424 185.147 51.9275C185.752 53.2644 186.689 54.4199 187.867 55.2811H187.966L188.249 55.3429C189.952 54.0834 192.763 52.252 192.404 49.7175C192.298 49.2495 192.04 48.8307 191.672 48.5271C191.304 48.2235 190.847 48.0524 190.372 48.0406V48.0716ZM188.081 54.8947H188.035C187.291 54.2986 186.657 53.574 186.163 52.7543C185.677 52.1622 185.356 51.4502 185.231 50.6911C185.165 50.3931 185.162 50.0844 185.221 49.785C185.28 49.4855 185.401 49.2019 185.575 48.9525C186.438 47.9402 187.806 49.5938 188.042 50.297H188.447C188.898 49.362 189.364 48.342 190.617 48.5352C192.099 48.7593 192.145 50.2816 191.633 51.3402C190.907 52.8856 189.417 53.9134 188.081 54.8947Z" fill="#231F20"/>
<path d="M20.8944 80.217C20.6041 80.217 20.2068 80.0702 19.7637 79.3206C19.3207 78.5711 19.7637 77.3502 20.1304 76.4152C20.4303 75.7116 20.7827 75.0322 21.1847 74.3829C21.006 73.5654 20.7685 72.7622 20.4742 71.9797C19.6415 69.7311 18.5109 68.1702 17.2504 67.5752C15.6461 66.8025 14.103 66.7329 13.1251 67.3588C12.7926 67.5832 12.5239 67.8917 12.3457 68.2536C12.1674 68.6156 12.0859 69.0183 12.1091 69.422C12.1142 69.955 12.307 70.4688 12.6528 70.871C12.9986 71.2732 13.4749 71.5375 13.996 71.6165C14.3915 71.727 14.8128 71.694 15.1867 71.5232C15.5607 71.3524 15.8637 71.0547 16.0434 70.6816C16.225 70.3275 16.2739 69.9191 16.1813 69.5314C16.0886 69.1437 15.8606 68.803 15.5392 68.572C15.365 68.4388 15.151 68.3699 14.9327 68.377C14.7145 68.384 14.5052 68.4665 14.3398 68.6106C14.0419 68.9275 13.9655 69.2443 14.1565 69.4761L14.7982 69.5843L14.9815 69.3756L14.8593 69.2597L14.7523 68.9584L15.0579 68.8579C15.1561 68.9001 15.2421 68.9669 15.3076 69.0521C15.3731 69.1373 15.416 69.2381 15.4322 69.3447C15.423 69.4723 15.3825 69.5956 15.3145 69.7035C15.2465 69.8114 15.1531 69.9006 15.0426 69.9629C14.8513 70.0892 14.6205 70.1393 14.3948 70.1036C14.1691 70.068 13.9645 69.949 13.8203 69.7697C13.6556 69.5471 13.5834 69.2682 13.6191 68.9925C13.6548 68.7168 13.7955 68.4661 14.0113 68.2938C14.2463 68.0683 14.5532 67.935 14.8767 67.918C15.2003 67.901 15.5192 68.0014 15.776 68.2011C16.185 68.4868 16.4787 68.9117 16.6036 69.3983C16.7284 69.885 16.676 70.4008 16.4559 70.8516C16.2386 71.3312 15.8588 71.7163 15.3853 71.9374C14.9117 72.1585 14.3756 72.2009 13.8738 72.057C13.252 71.9586 12.6847 71.6408 12.2723 71.16C11.8598 70.6792 11.6289 70.0663 11.6202 69.4297C11.602 68.9474 11.7062 68.4683 11.9228 68.0382C12.1394 67.6081 12.4613 67.2412 12.8578 66.9725C13.9578 66.2693 15.669 66.3388 17.4414 67.1656C19.504 68.1315 20.8638 71.1761 21.5131 73.8884C21.9202 73.2165 22.5123 72.6794 23.2167 72.3429C23.9807 72.1575 24.9814 72.7215 25.8676 73.6875C26.3794 71.0293 27.3954 68.0002 28.9233 66.3234C30.4512 64.6466 31.9791 63.9202 33.4534 64.0052C33.9024 64.0133 34.3433 64.1271 34.7412 64.3377C35.139 64.5483 35.4828 64.8498 35.7453 65.2184C36.0112 65.5033 36.1766 65.8691 36.2158 66.259C36.2549 66.6488 36.1656 67.0408 35.9617 67.374C35.7578 67.7072 35.4507 67.9629 35.0883 68.1013C34.7258 68.2397 34.3284 68.253 33.9576 68.1393C33.6213 68.0562 33.3249 67.8556 33.1208 67.5727C32.9166 67.2899 32.818 66.9431 32.8423 66.5938C32.8421 66.3238 32.9363 66.0625 33.1082 65.856C33.2802 65.6495 33.5189 65.5113 33.7819 65.4656C33.9802 65.4058 34.1913 65.4045 34.3903 65.462C34.5893 65.5195 34.7678 65.6334 34.9049 65.7902C35.0047 65.9245 35.0679 66.0831 35.088 66.2499C35.1081 66.4167 35.0845 66.586 35.0195 66.7406C34.9797 66.8241 34.9238 66.8986 34.8551 66.9599C34.7864 67.0211 34.7062 67.0679 34.6194 67.0974C34.5326 67.1269 34.4408 67.1386 34.3495 67.1317C34.2581 67.1249 34.1691 67.0996 34.0875 67.0575L33.9653 66.7638L34.2632 66.6325L34.607 66.5706L34.5535 66.0684L33.8507 65.9138C33.6897 65.9466 33.5454 66.036 33.4433 66.1661C33.3412 66.2962 33.288 66.4587 33.293 66.6247C33.2786 66.8636 33.347 67.1 33.4865 67.2932C33.626 67.4865 33.8277 67.6244 34.057 67.6834C34.328 67.7527 34.6134 67.7382 34.8762 67.6418C35.139 67.5453 35.3672 67.3714 35.5313 67.1425C35.6884 66.8833 35.7577 66.5794 35.7287 66.2769C35.6998 65.9743 35.5742 65.6895 35.3709 65.4656C35.1439 65.1543 34.8499 64.8993 34.5111 64.7199C34.1723 64.5405 33.7975 64.4414 33.4153 64.4302C32.0707 64.3529 30.5429 65.1488 29.2518 66.6093C27.7239 68.2706 26.7308 71.4388 26.2572 74.1047C26.976 75.0321 27.4963 76.1004 27.7851 77.242C28.0371 78.2697 27.9378 79.0888 27.5024 79.4984C27.3926 79.6069 27.2559 79.6835 27.1067 79.7203C26.9575 79.757 26.8013 79.7524 26.6544 79.707C26.3581 79.5656 26.1031 79.3489 25.9143 79.078C25.7255 78.8071 25.6094 78.4914 25.5773 78.1615C25.4233 76.8444 25.4826 75.5107 25.753 74.2129C24.905 73.2006 23.9348 72.5902 23.316 72.7447C22.6064 73.1552 22.0263 73.7607 21.643 74.4911C21.8558 75.4681 21.9634 76.4656 21.9639 77.4661C21.9104 79.0965 21.5743 80.0315 20.9937 80.1861H20.8791L20.8944 80.217ZM21.2992 75.0165C21.0126 75.5149 20.7575 76.0311 20.5353 76.562C20.054 77.7211 19.9089 78.6638 20.1381 79.0579C20.4742 79.622 20.7339 79.7688 20.902 79.7302C21.0701 79.6915 21.475 79.027 21.5284 77.412C21.5366 76.6006 21.465 75.7904 21.3145 74.9934L21.2992 75.0165ZM26.1426 74.6688C25.9403 75.775 25.9068 76.906 26.0433 78.0225C26.1884 78.7565 26.5322 79.1197 26.8072 79.2047L27.2121 79.1043C27.4489 78.8879 27.617 78.3315 27.3725 77.2884C27.1288 76.3462 26.7143 75.458 26.1502 74.6688" fill="#231F20"/>
<path d="M35.2403 78.3855C34.93 78.4178 34.6165 78.3781 34.3236 78.2696C33.982 78.1137 33.6815 77.8786 33.4465 77.5832C33.2116 77.2878 33.0488 76.9406 32.9714 76.5696C32.8924 76.3173 32.8336 76.0588 32.7957 75.7969C32.1709 75.8933 31.532 75.7879 30.9699 75.4955C30.669 75.2769 30.4526 74.9592 30.3578 74.5969C30.263 74.2346 30.2958 73.8502 30.4505 73.5096C30.5146 73.2674 30.6623 73.0564 30.8669 72.9147C31.0714 72.773 31.3193 72.7099 31.5658 72.7369C31.7022 72.7517 31.8331 72.7994 31.9474 72.876C32.0618 72.9527 32.1562 73.056 32.2228 73.1773C32.3633 73.5213 32.3633 73.9075 32.2228 74.2514L31.9248 74.3596L31.8103 74.066L31.8561 73.386L31.5276 73.1851C31.2297 73.131 31.0005 73.4014 30.8935 73.6796C30.781 73.925 30.7545 74.2019 30.8184 74.4645C30.8823 74.7272 31.0327 74.96 31.2449 75.1246C31.7218 75.3484 32.2536 75.4237 32.7728 75.341C32.7404 74.3194 32.9553 73.3053 33.3986 72.3868C33.842 71.4684 34.5004 70.6734 35.3167 70.071C35.6025 69.8588 35.9477 69.7444 36.3022 69.7444C36.6567 69.7444 37.0019 69.8588 37.2877 70.071C37.6162 70.3878 38.0516 71.176 37.1731 72.9764C36.8208 73.6338 36.3363 74.2093 35.7508 74.6658C35.1653 75.1223 34.4917 75.4497 33.7736 75.6269L33.2617 75.7351C33.2914 75.9971 33.3451 76.2558 33.4222 76.5078C33.4824 76.8113 33.6108 77.0967 33.7976 77.342C33.9844 77.5872 34.2245 77.7856 34.4993 77.9219C35.5459 78.3083 37.0279 77.3887 37.662 76.9946C38.4201 76.512 39.0496 75.8487 39.4954 75.0628L39.801 74.9623L39.9003 75.2714C39.4233 76.1364 38.7373 76.8648 37.9065 77.3887C37.1165 77.9419 36.2127 78.3065 35.2632 78.4551L35.2403 78.3855ZM36.3251 70.241C36.054 70.2734 35.7932 70.3658 35.5612 70.5114C34.8264 71.0682 34.2347 71.7955 33.8359 72.6319C33.437 73.4684 33.2427 74.3895 33.2694 75.3178L33.7125 75.2173C34.3701 75.059 34.9871 74.7616 35.523 74.3447C36.0589 73.9278 36.5015 73.401 36.8217 72.7987C37.3641 71.7014 37.4481 70.8205 37.0356 70.4342C36.9451 70.358 36.84 70.3015 36.727 70.2682C36.614 70.235 36.4953 70.2257 36.3786 70.241" fill="#231F20"/>
<path d="M75.7975 74.9548C75.4974 74.9788 75.1956 74.9393 74.9113 74.8389C74.5824 74.6856 74.2932 74.4572 74.0665 74.1715C73.8398 73.8859 73.6819 73.5509 73.605 73.193C73.5342 72.9389 73.4781 72.6809 73.4369 72.4202C72.8361 72.5155 72.2209 72.4154 71.6799 72.1343C71.3928 71.9206 71.1863 71.6143 71.0947 71.2658C71.003 70.9174 71.0316 70.5477 71.1757 70.218C71.2367 69.977 71.3815 69.7663 71.5835 69.6244C71.7855 69.4825 72.0312 69.4189 72.2758 69.4452C72.4053 69.4599 72.5293 69.5063 72.6371 69.5803C72.745 69.6544 72.8333 69.7539 72.8946 69.8702C72.9659 70.0347 73.0027 70.2123 73.0027 70.3918C73.0027 70.5714 72.9659 70.749 72.8946 70.9134L72.5737 71.0139L72.4591 70.7125L72.505 70.0789L72.1841 69.8702C71.9014 69.8239 71.6952 70.0866 71.5806 70.3493C71.4745 70.5852 71.4507 70.8505 71.5132 71.1018C71.5757 71.3531 71.7206 71.5754 71.9244 71.7325C72.378 71.9521 72.8883 72.0223 73.3835 71.9334C73.3548 70.9517 73.5631 69.9777 73.9904 69.0958C74.4177 68.2139 75.0511 67.4506 75.8357 66.8721C76.1105 66.6615 76.4458 66.5475 76.7906 66.5475C77.1354 66.5475 77.4707 66.6615 77.7455 66.8721C78.074 67.1811 78.5095 67.9461 77.6386 69.6771C77.3044 70.3146 76.8401 70.873 76.2764 71.3153C75.7127 71.7576 75.0625 72.0736 74.369 72.2425L73.8724 72.3507L74.0328 73.0539C74.0899 73.3446 74.2136 73.6177 74.394 73.8513C74.5745 74.0848 74.8066 74.2722 75.0718 74.3984C76.0649 74.7771 77.4934 73.8884 78.1275 73.5098C78.857 73.0521 79.4591 72.4138 79.8769 71.6552L80.1825 71.5548L80.2818 71.8639C79.8215 72.698 79.159 73.4 78.3567 73.9039C77.5954 74.4496 76.7194 74.8093 75.7975 74.9548ZM76.8288 67.0343C76.5567 67.0572 76.2944 67.1475 76.0649 67.297C75.3475 67.8288 74.7679 68.5282 74.3755 69.3355C73.9831 70.1428 73.7895 71.0341 73.8113 71.9334L74.2314 71.8407C74.8632 71.6902 75.4562 71.4058 75.9711 71.0061C76.486 70.6065 76.9112 70.1008 77.2184 69.5225C77.7455 68.4639 77.8296 67.6216 77.4323 67.2507L76.8059 67.0652" fill="#231F20"/>
<path d="M42.94 77.1415L42.2831 77.0488C41.374 76.6624 41.4122 75.1556 41.9469 72.8838C41.4165 73.2751 40.7845 73.5008 40.1288 73.5329C39.8722 73.5041 39.6339 73.3843 39.4563 73.1948C39.2787 73.0052 39.1732 72.7582 39.1586 72.4974C39.1314 72.2926 39.1722 72.0844 39.2745 71.9054C39.3768 71.7264 39.5348 71.5868 39.7239 71.5083C39.8383 71.4558 39.9646 71.4352 40.0895 71.4488C40.2145 71.4624 40.3336 71.5097 40.4343 71.5856L40.5948 71.9952L40.335 72.1961L40.1517 71.9488H39.8767L39.6093 72.4665C39.6144 72.6236 39.6763 72.7734 39.7833 72.8873C39.8903 73.0013 40.035 73.0715 40.1899 73.0847C40.8949 72.9776 41.5577 72.6785 42.1074 72.2193C42.4206 71.0061 42.8713 69.6152 43.322 68.0774C45.2471 61.9652 46.202 61.1229 46.8132 61.0147C46.9844 61.0045 47.1551 61.0416 47.3072 61.1219C47.4592 61.2022 47.5868 61.3227 47.6764 61.4706C48.257 62.2974 48.3258 64.2679 46.7979 67.3202C45.7889 69.3742 44.3122 71.1565 42.4893 72.5206C41.9698 74.5915 41.7254 76.3302 42.4893 76.6315C43.4824 77.0488 45.6902 75.3565 46.4618 74.6765H46.775V75.0011C46.5153 75.2329 44.4832 77.0333 42.9935 77.1338L42.94 77.1415ZM46.9354 61.4629C46.5382 61.517 45.6215 62.4597 43.8109 68.2088C43.4595 69.337 43.047 70.5811 42.7414 71.7865C44.3004 70.5128 45.5716 68.916 46.4694 67.1038C47.898 64.2293 47.8445 62.4133 47.3709 61.6947L46.9431 61.432" fill="#231F20"/>
<path d="M48.3729 76.3301L47.7618 76.2837C47.561 76.2295 47.374 76.1325 47.2132 75.9992C47.0525 75.866 46.9217 75.6995 46.8298 75.511C46.1499 74.0892 46.8298 71.3769 48.2125 69.7233C48.4875 69.3212 48.8725 69.0091 49.3203 68.8251C49.7681 68.6412 50.2592 68.5935 50.7335 68.6878C51.0415 68.8063 51.3054 69.0186 51.4888 69.2955C51.6722 69.5724 51.766 69.9001 51.7572 70.2333C51.8092 70.6994 51.7202 71.1705 51.502 71.5844C51.2838 71.9983 50.9465 72.3355 50.5349 72.5515C50.3543 72.6484 50.1478 72.6842 49.9457 72.6536C49.7435 72.623 49.5564 72.5276 49.4119 72.3815C49.2467 72.2282 49.1346 72.0254 49.0919 71.8028C49.0493 71.5802 49.0784 71.3497 49.1751 71.1451C49.2572 70.9706 49.3892 70.8251 49.554 70.7272C49.7188 70.6294 49.9088 70.5839 50.0994 70.5965C50.2058 70.5982 50.3105 70.6241 50.4057 70.6722C50.5009 70.7204 50.5842 70.7896 50.6494 70.8747C50.775 71.0771 50.8162 71.3216 50.764 71.5546L50.4967 71.7169L50.321 71.4387L50.2828 71.091L50.0612 70.9906L49.5799 71.2842L49.7404 72.0569L50.3515 72.1187C50.6786 71.9403 50.9451 71.6667 51.1167 71.3333C51.2883 70.9999 51.3571 70.6221 51.3141 70.2487C51.3232 70.0099 51.2591 69.774 51.1306 69.5734C51.002 69.3728 50.8153 69.2173 50.596 69.1283C50.2044 69.0688 49.8042 69.1229 49.4418 69.2843C49.0794 69.4457 48.7697 69.7078 48.5486 70.0401C47.2576 71.5392 46.6388 74.0583 47.2347 75.3256C47.2932 75.4629 47.3811 75.5854 47.4921 75.6843C47.603 75.7832 47.7343 75.8559 47.8764 75.8974C48.4875 76.0597 49.4883 75.7119 50.6724 74.916C51.4171 74.4259 52.0331 73.7603 52.4676 72.9765L52.7655 72.876L52.8725 73.1697C52.3921 73.9979 51.742 74.7126 50.9659 75.2657C50.1898 75.8189 49.3057 76.1976 48.3729 76.3765" fill="#231F20"/>
<path d="M60.603 76.0055H60.3968C60.0224 75.8278 59.8926 75.086 60.3051 74.1664C60.7269 73.3883 61.2399 72.6644 61.833 72.0105L61.9705 71.516C62.0469 71.2532 62.1156 70.9982 62.1844 70.7432C61.4239 71.161 60.5509 71.3208 59.694 71.1991L59.6328 71.4541C59.4268 72.1029 59.0941 72.7032 58.6545 73.2195C58.2149 73.7359 57.6774 74.1577 57.0737 74.4601C56.3381 74.9162 55.4562 75.0658 54.6138 74.8773C54.3612 74.781 54.1384 74.6187 53.968 74.407C53.7975 74.1952 53.6856 73.9416 53.6436 73.6719C53.5271 72.9947 53.5664 72.2994 53.7585 71.6401C53.9506 70.9808 54.2904 70.3751 54.7513 69.87C56.1569 68.3864 57.0431 68.5796 57.1806 68.595L57.2952 68.7728L57.4327 68.6723C57.6787 68.556 57.9518 68.511 58.2215 68.5424C58.4913 68.5738 58.7471 68.6803 58.9606 68.85C59.225 69.071 59.4291 69.3567 59.5534 69.6799C59.6778 70.0032 59.7183 70.3533 59.671 70.6969C60.1309 70.7666 60.6001 70.7402 61.0494 70.6193C61.4988 70.4983 61.9189 70.2854 62.2837 69.9937C62.4455 69.364 62.6445 68.7447 62.8796 68.1391L63.2921 67.7605L63.5824 68.0155C63.6194 68.4324 63.5568 68.8521 63.4 69.2394C63.2431 69.6267 62.9965 69.9702 62.6809 70.241C62.6045 70.5269 62.5205 70.836 62.4288 71.145C63.1606 70.2623 64.0059 69.4827 64.9422 68.8269C65.1193 68.726 65.3211 68.6782 65.524 68.6892C65.727 68.7001 65.9226 68.7693 66.0881 68.8887C66.4984 69.2192 66.771 69.6936 66.852 70.2178C67.616 69.1669 68.3799 68.541 69.0827 68.51C69.1944 68.5059 69.3057 68.5265 69.4086 68.5706C69.5116 68.6146 69.6037 68.681 69.6786 68.765C70.0605 69.2132 69.9001 70.1405 69.7168 71.2223L69.6098 71.8714C69.5563 72.2269 69.4723 72.6441 69.3959 72.9841C69.2431 73.6101 69.0292 74.5296 69.2126 74.7228H69.564C70.3554 74.3984 71.0884 73.9441 71.7336 73.3782H72.0544V73.6951C71.3719 74.2958 70.598 74.7812 69.7626 75.1323C69.6403 75.2106 69.4986 75.2522 69.3539 75.2522C69.2092 75.2522 69.0675 75.2106 68.9452 75.1323C68.5632 74.7923 68.7466 73.981 68.9452 72.9378C69.0292 72.5746 69.1209 72.1651 69.1667 71.8714L69.2813 71.2069C69.4188 70.3646 69.5869 69.4064 69.3348 69.1205L69.0827 69.0278C68.441 69.0278 67.6542 69.8005 66.9361 70.9982C66.9412 71.2569 66.9233 71.5155 66.8826 71.771C66.3173 75.6346 65.7443 75.5264 65.5228 75.4878L65.1714 75.2405C64.8734 74.6764 65.3623 73.2546 65.8436 72.1496C66.0282 71.7076 66.2426 71.279 66.4853 70.8669C66.4918 70.5795 66.4395 70.2939 66.3317 70.028C66.2239 69.762 66.0629 69.5215 65.8589 69.3214H65.179C64.0514 70.1641 63.0415 71.157 62.1767 72.2732C61.902 73.4075 61.555 74.5225 61.1378 75.6114C60.9468 75.9978 60.7405 76.0905 60.5801 76.0982L60.603 76.0055ZM61.451 73.2082C61.1556 73.5793 60.8995 73.9808 60.6871 74.406C60.3509 75.1787 60.4884 75.6114 60.5572 75.6578L60.7329 75.4105C61.0218 74.6947 61.2592 73.9587 61.4434 73.2082H61.451ZM66.386 72.0337L66.2409 72.3505C65.3165 74.4832 65.5228 74.9778 65.5533 75.0241C65.7138 74.9082 66.0728 74.0119 66.386 72.0105V72.0337ZM56.8903 69.0046C56.1576 69.1415 55.5014 69.5491 55.0492 70.1482C54.638 70.5977 54.3341 71.1364 54.1606 71.723C53.9871 72.3097 53.9488 72.9288 54.0485 73.5328C54.0768 73.7285 54.1541 73.9135 54.2732 74.0704C54.3922 74.2273 54.5489 74.3508 54.7284 74.4291C55.4547 74.565 56.2049 74.4188 56.8292 74.0196C57.9155 73.4549 58.7387 72.4807 59.121 71.3073L59.1745 71.0987C58.9142 71.0524 58.6585 70.9825 58.4105 70.89C58.0826 70.8107 57.7816 70.6442 57.5385 70.4078C57.2955 70.1715 57.1192 69.8738 57.0278 69.5455L57.1348 69.051H56.8903V69.0046ZM57.9827 69.051L57.6772 69.1282L57.4785 69.4914C57.5534 69.7415 57.6926 69.967 57.8819 70.1448C58.0711 70.3227 58.3036 70.4465 58.5557 70.5037L59.2662 70.6969C59.3053 70.4352 59.2774 70.1678 59.1851 69.9202C59.0928 69.6726 58.9392 69.4531 58.739 69.2828L57.9751 69.051" fill="#231F20"/>
<path d="M112.184 73.0614L111.695 72.9069C111.382 72.5669 111.519 71.8328 112.169 70.2796C112.505 69.518 112.953 68.8121 113.498 68.1855C113.551 67.776 113.589 67.3587 113.628 66.9414C113.046 67.5641 112.367 68.0862 111.618 68.4869C111.335 69.8401 110.571 71.0415 109.472 71.8637C109.182 72.1476 108.828 72.3542 108.439 72.4648C108.051 72.5755 107.642 72.5866 107.249 72.4973C107.099 72.4332 106.964 72.3382 106.852 72.2185C106.74 72.0988 106.654 71.9569 106.599 71.8019C106.494 71.4676 106.466 71.1136 106.515 70.7664C105.772 71.7244 104.78 72.4547 103.651 72.876C103.271 73.0498 102.857 73.1345 102.44 73.1238C102.024 73.1131 101.615 73.0072 101.244 72.8142C100.981 73.0749 100.685 73.3008 100.366 73.4864C99.0823 74.1819 98.3566 73.896 98.0739 73.6719C97.8954 73.5431 97.7564 73.3661 97.6726 73.1611C97.5889 72.9561 97.5638 72.7315 97.6003 72.5128C97.6613 72.2164 97.8043 71.9436 98.0125 71.7261C98.2208 71.5086 98.4858 71.3553 98.7767 71.2842C99.136 71.1787 99.5178 71.181 99.8757 71.2908C100.234 71.4005 100.553 71.6129 100.794 71.9023L101.214 72.2346C102.696 70.6273 104.361 67.4592 105.866 64.6001C106.195 63.9664 106.531 63.3251 106.852 62.7301C105.966 63.0981 105.012 63.2643 104.056 63.2169C103.662 63.2222 103.279 63.0897 102.971 62.8418C102.664 62.5939 102.45 62.2459 102.367 61.8569C102.302 61.4151 102.371 60.9637 102.565 60.5623C102.758 60.1609 103.068 59.8283 103.452 59.6082C103.747 59.419 104.093 59.3271 104.442 59.3451C104.791 59.3631 105.126 59.4901 105.4 59.7087C105.523 59.852 105.594 60.0329 105.602 60.2222C105.61 60.4115 105.555 60.5981 105.446 60.7519C105.381 60.8828 105.286 60.9961 105.169 61.0822C105.052 61.1683 104.917 61.2246 104.774 61.2464C104.602 61.2588 104.429 61.2342 104.267 61.1743C104.105 61.1143 103.957 61.0204 103.834 60.8987V60.5741H104.147L104.72 60.8137L105.064 60.5278V60.0255C104.855 59.8827 104.609 59.8063 104.357 59.8063C104.105 59.8063 103.859 59.8827 103.651 60.0255C103.353 60.1982 103.113 60.4584 102.965 60.7716C102.816 61.0848 102.765 61.4363 102.818 61.7796C102.877 62.0691 103.035 62.3285 103.264 62.5121C103.493 62.6958 103.779 62.7921 104.071 62.7841C105.123 62.8452 106.174 62.638 107.127 62.1814C107.57 61.3546 108.005 60.5819 108.433 59.9019C109.823 57.661 111.924 55.6441 112.848 56.1928C113.162 56.3705 113.383 56.8882 112.65 58.2328C111.641 60.0796 109.487 61.6173 107.478 62.4905C107.065 63.2632 106.653 64.036 106.225 64.8087C104.697 67.7682 103.078 70.8051 101.58 72.4587C101.88 72.5976 102.206 72.6695 102.535 72.6695C102.865 72.6695 103.191 72.5976 103.49 72.4587C105.011 71.8831 106.251 70.7336 106.951 69.2519L107.111 68.9042L107.394 68.796L107.516 69.0742L107.348 69.476C107.03 70.1543 106.929 70.9158 107.058 71.6551L107.463 72.0801C107.782 72.1318 108.108 72.1071 108.416 72.0077C108.724 71.9084 109.005 71.7373 109.235 71.5082C110.159 70.8045 110.826 69.8094 111.13 68.6801L110.495 68.9428C109.097 69.4451 107.975 69.3369 107.44 68.6492C107.257 68.3251 107.184 67.9495 107.233 67.5798C107.281 67.21 107.448 66.8664 107.707 66.6014C107.963 66.1699 108.34 65.8249 108.79 65.6103C109.241 65.3957 109.744 65.3211 110.236 65.396C110.679 65.5196 111.45 65.9523 111.626 67.521V67.8996C112.436 67.473 113.14 66.8683 113.689 66.1301L113.948 66.0451L114.101 66.2614C114.101 66.586 114.048 67.0341 113.994 67.6291C114.532 67.0057 115.214 66.5277 115.981 66.2382C116.08 66.2066 116.185 66.2 116.288 66.2188C116.39 66.2377 116.487 66.2815 116.569 66.3464C116.882 66.6169 116.79 67.3819 116.569 68.796C116.416 69.7928 116.179 71.2919 116.477 71.5314H116.699C117.457 71.2843 118.131 70.8232 118.639 70.2023L118.952 70.1173L119.029 70.4264C118.488 71.1538 117.738 71.6938 116.882 71.9719C116.777 72.0323 116.656 72.0601 116.535 72.0519C116.414 72.0437 116.298 71.9997 116.202 71.9255C115.736 71.5623 115.866 70.4419 116.126 68.7728C116.28 68.1048 116.329 67.4163 116.271 66.7328H116.118C115.27 67.107 114.527 67.6885 113.956 68.4251C113.742 70.3646 113.337 72.7523 112.635 72.9996L112.199 73.1078L112.184 73.0614ZM113.414 69.0896C113.089 69.5278 112.814 70.0023 112.596 70.5037C111.832 72.2501 111.978 72.5746 112.031 72.6364C112.084 72.6982 112.184 72.6828 112.482 72.5823C112.78 72.4819 113.169 70.9442 113.414 69.0896ZM99.2275 71.6937L98.8913 71.771C98.6796 71.8179 98.4852 71.9239 98.3299 72.0768C98.1746 72.2298 98.0648 72.4236 98.0128 72.6364C97.9896 72.7706 98.0046 72.9086 98.056 73.0345C98.1074 73.1603 98.1931 73.2688 98.3031 73.3473C98.6927 73.6332 99.3726 73.556 100.152 73.131L100.855 72.5978L100.48 72.2964C100.319 72.115 100.124 71.9677 99.9066 71.8629C99.6889 71.7582 99.4529 71.698 99.2122 71.686L99.2275 71.6937ZM109.716 65.8364C109.382 65.8895 109.062 66.0133 108.777 66.1997C108.493 66.3861 108.251 66.6309 108.066 66.9182C107.638 67.5055 107.547 68.0619 107.799 68.4637C108.051 68.8655 108.906 69.0973 110.312 68.5873C110.613 68.4858 110.906 68.3645 111.191 68.2242V67.6446C111.076 66.6787 110.702 66.0992 110.129 65.906H109.724L109.716 65.8364ZM112.474 56.6332C111.924 56.6332 110.381 57.6996 108.822 60.2264C108.494 60.7364 108.165 61.316 107.829 61.9264C109.61 61.0447 111.136 59.7141 112.26 58.0628C112.764 57.1432 112.757 56.7028 112.627 56.6178H112.474" fill="#231F20"/>
<path d="M123.834 71.6783L123.352 71.5778C122.94 71.3306 122.795 70.7124 122.94 69.6692C122.94 69.5456 123.009 69.2828 123.077 68.8965C121.84 70.5115 120.694 71.4542 119.823 71.516C119.647 71.5305 119.47 71.4999 119.308 71.4269C119.147 71.354 119.006 71.2412 118.899 71.0987C118.257 70.2642 119.151 68.3633 120.037 67.3124C120.923 66.2615 121.702 66.0065 122.329 66.3697C122.537 66.4699 122.72 66.6165 122.864 66.7985C123.008 66.9805 123.11 67.1932 123.161 67.4206V68.0388L123.307 67.8147C124.071 64.3915 125.82 57.5683 127.088 57.4756L127.653 57.7847C128.303 58.9051 126.645 63.0933 124.758 66.3388C124.399 66.9569 124.032 67.5442 123.681 68.0465C123.536 68.711 123.429 69.2828 123.375 69.7001C123.268 70.4728 123.375 71.0137 123.574 71.1528C123.773 71.2919 124.338 71.1065 124.919 70.6351C125.48 70.2639 125.946 69.7634 126.278 69.1747L126.561 69.051L126.691 69.3447C126.329 70.0162 125.803 70.5828 125.163 70.9906C124.779 71.3322 124.308 71.5573 123.803 71.6397L123.834 71.6783ZM121.718 66.671C121.16 66.8079 120.67 67.1424 120.335 67.6138C119.388 68.7342 118.807 70.3183 119.22 70.8283L119.754 71.0601C120.289 71.0215 121.191 70.4419 122.336 69.0588V68.7419C122.619 68.3981 122.763 67.9597 122.741 67.5133C122.706 67.3453 122.632 67.188 122.526 67.0539C122.42 66.9197 122.284 66.8125 122.13 66.7406L121.756 66.6478L121.718 66.671ZM127.103 57.9083C126.385 57.9547 124.812 63.0856 123.964 66.7638L124.368 66.0915C126.553 62.3515 127.692 58.7351 127.271 58.001L127.103 57.9083Z" fill="#231F20"/>
<path d="M131.542 71.7788H131.336C131.053 71.6706 130.969 71.3074 131.099 70.7124C131.462 69.703 131.977 68.7567 132.627 67.9074L132.757 67.181C132.324 67.7399 131.78 68.2006 131.16 68.5333L130.786 68.6956C130.282 69.7697 129.258 70.9365 128.257 71.1606C127.984 71.252 127.693 71.2694 127.411 71.2111C127.13 71.1528 126.868 71.0208 126.653 70.8283C126.432 70.5411 126.285 70.2034 126.223 69.845C126.162 69.4865 126.189 69.1183 126.302 68.7729C126.584 67.8246 127.163 66.9947 127.952 66.4083C128.141 66.0837 128.435 65.8352 128.784 65.7051C129.154 65.5319 129.572 65.4943 129.967 65.5986C130.361 65.7029 130.708 65.9427 130.946 66.2769C131.087 66.5579 131.166 66.8659 131.179 67.1804C131.193 67.4949 131.139 67.8086 131.023 68.1006C131.868 67.6158 132.54 66.8717 132.94 65.9756L133.215 65.8519L133.368 66.107C133.368 66.2383 133.292 66.6479 133.208 67.1733C133.971 66.2074 134.85 65.4656 135.408 65.5119C135.536 65.5221 135.661 65.5581 135.775 65.6178C135.889 65.6775 135.99 65.7598 136.072 65.8597C136.538 66.4624 136.378 67.6833 136.225 68.7574V68.9042C136.187 69.2442 136.103 69.561 136.049 69.8315C135.996 70.1019 135.874 70.6042 135.95 70.6969C136.026 70.7897 136.049 70.7742 136.485 70.6969C137.298 70.4651 138.084 70.1465 138.83 69.7465C139.464 69.4451 139.594 69.3833 139.724 69.5069L139.8 69.7542L139.548 69.9165L139.021 70.1638C138.25 70.5551 137.441 70.8658 136.607 71.091C136.45 71.1541 136.28 71.1772 136.112 71.1583C135.945 71.1395 135.784 71.0792 135.645 70.9829C135.392 70.7279 135.492 70.2797 135.645 69.7156C135.722 69.4209 135.781 69.1215 135.82 68.8192V68.6801C135.95 67.7374 136.111 66.5629 135.759 66.1224L135.4 65.9369C135.01 65.9369 133.987 66.9029 133.108 68.0619C132.971 69.1096 132.746 70.1436 132.436 71.1529C132.346 71.3202 132.222 71.4662 132.072 71.5809C131.922 71.6955 131.749 71.7762 131.565 71.8174L131.542 71.7788ZM132.512 68.9274C132.087 69.4986 131.766 70.1425 131.565 70.8283C131.458 71.2688 131.565 71.3769 131.565 71.3769C131.565 71.3769 131.924 71.1992 132.077 70.9365C132.286 70.2807 132.442 69.6088 132.543 68.9274H132.512ZM127.959 67.0574C127.416 67.5288 127.018 68.1484 126.813 68.8424C126.721 69.1144 126.694 69.4046 126.734 69.6893C126.774 69.974 126.879 70.2451 127.043 70.4806C127.208 70.6137 127.405 70.7014 127.613 70.7352C127.822 70.769 128.036 70.7479 128.234 70.6738C129.137 70.3222 129.874 69.6373 130.297 68.7574C129.964 68.7654 129.633 68.6911 129.334 68.541C128.697 68.2278 128.208 67.6722 127.975 66.9956L127.959 67.0574ZM128.395 66.6401V66.7792C128.485 67.0689 128.633 67.3365 128.83 67.5653C129.027 67.7941 129.269 67.979 129.541 68.1083C129.851 68.2699 130.207 68.319 130.549 68.2474C130.697 67.9817 130.781 67.6849 130.796 67.3804C130.81 67.0759 130.755 66.7722 130.633 66.4933C130.458 66.2421 130.199 66.0637 129.904 65.9912C129.609 65.9187 129.298 65.9571 129.029 66.0992L128.517 66.4315L128.425 66.6247" fill="#231F20"/>
<path d="M84.9501 69.0819C84.6998 69.1494 84.4364 69.1494 84.1861 69.0819C83.8971 68.9767 83.6443 68.7891 83.4585 68.5417C83.2727 68.2943 83.1617 67.9977 83.1391 67.6878C83.1165 67.3779 83.1831 67.068 83.331 66.7957C83.4788 66.5233 83.7016 66.3002 83.9722 66.1532C85.3091 65.311 88.2044 65.5273 90.7025 66.076C93.2006 66.6246 94.4228 65.8441 94.6826 64.6541C94.743 64.4659 94.7461 64.2636 94.6917 64.0735C94.6372 63.8834 94.5276 63.7142 94.377 63.5878C94.2451 63.4771 94.0883 63.4009 93.9205 63.3659C93.7527 63.3309 93.5789 63.3381 93.4145 63.3869L93.1624 63.8582L93.4832 64.0669L93.7964 63.9509V63.835L93.8881 63.6032L94.1096 63.6882V64.1364C94.0395 64.2217 93.952 64.2906 93.8531 64.3386C93.7542 64.3866 93.6463 64.4125 93.5367 64.4146C93.3869 64.4346 93.2352 64.3984 93.1099 64.313C92.9847 64.2276 92.8946 64.0988 92.8568 63.9509C92.8117 63.7754 92.8291 63.5894 92.9059 63.4256C92.9827 63.2617 93.1141 63.1304 93.2769 63.0546C93.5041 62.9805 93.7462 62.9664 93.9802 63.0138C94.2142 63.0611 94.4323 63.1683 94.6138 63.325C94.8174 63.4881 94.9674 63.7099 95.0437 63.961C95.1201 64.2121 95.1194 64.4807 95.0416 64.7314C94.7513 66.13 93.4297 67.0496 90.649 66.4237C87.8683 65.7978 85.248 65.79 84.1632 66.4237C83.941 66.5463 83.7599 66.733 83.6429 66.9601C83.5259 67.1871 83.4783 67.4442 83.5062 67.6987C83.5303 67.9303 83.6193 68.1501 83.7628 68.3322C83.9062 68.5143 84.0982 68.6511 84.316 68.7264C84.4956 68.7953 84.6915 68.8078 84.8782 68.7623C85.0649 68.7168 85.2337 68.6154 85.3626 68.4714C85.4491 68.3653 85.5061 68.2377 85.5276 68.1019C85.5491 67.966 85.5343 67.8268 85.4848 67.6987C85.4357 67.5791 85.3532 67.4767 85.2473 67.4039C85.1415 67.3312 85.0169 67.2913 84.889 67.2891L84.3924 67.6214L84.4535 67.946L84.8049 68.0464L84.9042 67.9382L85.0112 67.7064L85.2327 67.8223C85.2575 67.9288 85.2443 68.0408 85.1954 68.1383C85.1464 68.2359 85.0649 68.3128 84.9654 68.3555L84.2014 68.201C84.1073 68.1138 84.0438 67.9981 84.0203 67.8713C83.9969 67.7445 84.0149 67.6134 84.0716 67.4978C84.1347 67.3427 84.24 67.2089 84.3752 67.1119C84.5104 67.0148 84.6699 66.9584 84.8355 66.9491C85.0307 66.9437 85.2229 66.9984 85.3867 67.1061C85.5504 67.2137 85.6779 67.3692 85.7522 67.5519C85.8329 67.7408 85.8578 67.9493 85.8239 68.1522C85.79 68.3552 85.6988 68.5438 85.5612 68.6955L84.9424 69.0819" fill="#231F20"/>
<path d="M94.078 70.388C94.1964 70.0965 94.2509 69.7825 94.2377 69.4677C94.2245 69.1528 94.144 68.8446 94.0016 68.5643C93.765 68.2297 93.4196 67.9898 93.0257 67.8867C92.6319 67.7835 92.2148 67.8237 91.8473 68.0002C91.4965 68.1273 91.1997 68.373 91.007 68.6957C90.2208 69.2932 89.6493 70.1345 89.3798 71.0911C89.2679 71.4354 89.2414 71.8023 89.3027 72.1594C89.364 72.5165 89.5111 72.8529 89.7312 73.1389C89.9465 73.3314 90.208 73.4634 90.4895 73.5217C90.771 73.58 91.0627 73.5625 91.3355 73.4711C92.3515 73.247 93.3523 72.0802 93.8641 70.9984L94.101 70.4111L94.078 70.388ZM91.2438 73.0152C91.0455 73.0893 90.8317 73.1105 90.6229 73.0767C90.4142 73.0428 90.2176 72.9551 90.0521 72.822C89.8906 72.5858 89.7858 72.3148 89.746 72.0304C89.7062 71.746 89.7325 71.4562 89.8229 71.1839C90.025 70.4741 90.4288 69.84 90.9841 69.3602C91.2213 70.0347 91.7091 70.5891 92.3439 70.9057C92.6442 71.0513 92.9735 71.1253 93.3065 71.1221C92.8821 71.999 92.1451 72.681 91.2438 73.0307V73.0152ZM93.5356 70.6352C93.1904 70.7063 92.8314 70.6544 92.5196 70.4884C92.2508 70.3583 92.0112 70.174 91.8154 69.9467C91.6197 69.7195 91.472 69.4542 91.3813 69.1671V69.0202L91.4806 68.8193L91.9849 68.4948C92.2532 68.3519 92.5637 68.3123 92.8587 68.3833C93.1537 68.4544 93.4132 68.6313 93.5891 68.8811C93.7107 69.16 93.7665 69.4638 93.7519 69.7682C93.7373 70.0727 93.6528 70.3695 93.5051 70.6352" fill="#231F20"/>
<path d="M89.3036 71.5391C88.9665 72.1224 88.5012 72.6195 87.9438 72.9918C87.3327 73.4632 86.8285 73.6409 86.5993 73.5095C86.3701 73.3782 86.2937 72.845 86.4007 72.0568C86.4618 71.6473 86.5611 71.0677 86.7062 70.4109L86.9889 69.1436C87.7528 65.9214 89.0362 61.6095 89.8231 60.5354L90.1439 60.2727V59.8091L89.8918 59.9095C88.6466 60.7441 87.0653 66.9414 86.3625 70.1559L86.1333 71.23C86.0569 71.5777 86.0111 71.8405 85.9958 72.0027C85.8583 73.0459 85.9958 73.6641 86.4159 73.9114L86.8972 74.0195C87.3968 73.9282 87.8635 73.7042 88.2494 73.3705C88.8837 72.9527 89.408 72.3852 89.7773 71.7168L89.6397 71.4232L89.3571 71.5545" fill="#231F20"/>
</g>
<defs>
<clipPath id="clip0">
<rect width="155" height="74" fill="white" transform="translate(272 18.0001)"/>
</clipPath>
<clipPath id="clip1">
<rect width="233" height="187" fill="white" transform="translate(0 0.00012207)"/>
</clipPath>
</defs>
</svg>
