<svg width="539" height="380" viewBox="0 0 539 380" fill="none" xmlns="http://www.w3.org/2000/svg">
<g filter="url(#filter0_dd)">
<path d="M136.142 35.6371L128.854 371.999H161.89L136.142 35.6371Z" fill="#8EB400"/>
<path d="M73.4721 42.4727C73.4721 48.3309 69.0998 52.7246 63.27 52.7246C57.4402 52.7246 53.0679 48.3309 53.0679 42.4727C53.0679 36.6144 57.4402 32.2207 63.27 32.2207C69.0998 32.2207 73.4721 37.1026 73.4721 42.4727Z" fill="#8EB400"/>
<path d="M141.486 28.3157C141.486 32.7094 138.085 35.6385 133.713 35.6385C129.34 35.6385 126.425 32.2212 126.425 28.3157C126.425 23.922 129.826 20.5046 133.713 20.5046C138.085 20.5046 141.486 23.922 141.486 28.3157Z" fill="#8EB400"/>
<path d="M162.861 6.83465C162.861 10.7402 159.946 13.6693 156.06 13.6693C152.173 13.6693 149.259 10.7402 149.259 6.83465C149.259 2.92913 152.173 0 156.06 0C159.946 0 162.861 2.92913 162.861 6.83465Z" fill="#8EB400"/>
<path d="M181.808 26.8501C181.808 31.2438 178.408 34.6611 174.035 34.6611C169.663 34.6611 166.262 31.2438 166.262 26.8501C166.262 22.4564 169.663 19.0391 174.035 19.0391C178.408 19.0391 181.808 22.4564 181.808 26.8501Z" fill="#8EB400"/>
<path d="M177.922 57.6062C177.922 61.0235 175.007 63.9527 171.606 63.9527C168.205 63.9527 165.291 61.0235 165.291 57.6062C165.291 54.1889 168.205 51.2598 171.606 51.2598C175.007 51.2598 177.922 54.1889 177.922 57.6062Z" fill="#8EB400"/>
<path d="M166.262 88.3625C166.262 91.2916 163.833 93.7325 160.918 93.7325C158.003 93.7325 155.574 91.2916 155.574 88.3625C155.574 85.4333 158.003 82.9924 160.918 82.9924C163.833 82.5042 166.262 84.9451 166.262 88.3625Z" fill="#8EB400"/>
<path d="M192.01 80.063C192.01 83.9686 189.095 86.8977 185.209 86.8977C181.322 86.8977 178.407 83.9686 178.407 80.063C178.407 76.1575 181.322 73.2284 185.209 73.2284C189.095 73.2284 192.01 76.1575 192.01 80.063Z" fill="#8EB400"/>
<path d="M211.443 78.1104C211.443 82.0159 208.528 84.945 204.642 84.945C200.755 84.945 197.84 82.0159 197.84 78.1104C197.84 74.2049 200.755 71.2758 204.642 71.2758C208.042 71.2758 211.443 74.2049 211.443 78.1104Z" fill="#8EB400"/>
<path d="M126.426 47.8425C126.426 51.2599 123.511 54.189 120.11 54.189C116.71 54.189 113.795 51.2599 113.795 47.8425C113.795 44.4252 116.71 41.4961 120.11 41.4961C123.511 41.4961 126.426 43.937 126.426 47.8425Z" fill="#8EB400"/>
<path d="M103.106 51.748C103.106 56.1417 99.7055 59.5591 95.3331 59.5591C90.9608 59.5591 87.5601 56.1417 87.5601 51.748C88.0459 47.3543 91.4466 43.937 95.8189 43.937C99.7055 43.937 103.106 47.3543 103.106 51.748Z" fill="#8EB400"/>
<path d="M125.454 75.1804C125.454 79.5741 122.053 82.9914 117.681 82.9914C113.309 82.9914 109.908 79.5741 109.908 75.1804C109.908 70.7867 113.309 67.3694 117.681 67.3694C122.053 67.3694 125.454 71.2749 125.454 75.1804Z" fill="#8EB400"/>
<path d="M70.0711 76.645C70.0711 82.0151 65.6988 85.9206 60.8406 85.9206C55.4966 85.9206 51.6101 81.5269 51.6101 76.645C51.6101 71.2749 55.9824 67.3694 60.8406 67.3694C66.1846 67.3694 70.0711 71.2749 70.0711 76.645Z" fill="#8EB400"/>
<path d="M91.4472 100.567C91.4472 105.449 87.5606 108.866 83.1883 108.866C78.3301 108.866 74.9294 104.961 74.9294 100.567C74.9294 95.6852 78.816 92.2679 83.1883 92.2679C87.5606 91.7797 91.4472 95.6852 91.4472 100.567Z" fill="#8EB400"/>
<path d="M108.451 134.252C108.451 139.134 104.564 142.551 100.192 142.551C95.3336 142.551 91.9329 138.645 91.9329 134.252C91.9329 129.37 95.8194 125.953 100.192 125.953C104.564 125.464 108.451 129.37 108.451 134.252Z" fill="#8EB400"/>
<path d="M125.454 146.457C125.454 150.362 122.539 153.292 118.652 153.292C114.766 153.292 111.851 150.362 111.851 146.457C111.851 142.551 114.766 139.622 118.652 139.622C122.539 139.622 125.454 142.551 125.454 146.457Z" fill="#8EB400"/>
<path d="M240.106 132.787C240.106 138.646 235.248 143.528 229.418 143.528C223.588 143.528 218.73 138.646 218.73 132.787C218.73 126.929 223.588 122.047 229.418 122.047C235.248 122.047 240.106 126.929 240.106 132.787Z" fill="#8EB400"/>
<path d="M225.532 102.032C225.532 106.426 222.131 110.331 217.273 110.331C212.9 110.331 209.014 106.914 209.014 102.032C209.014 97.6384 212.415 93.7329 217.273 93.7329C222.131 94.2211 225.532 97.6384 225.532 102.032Z" fill="#8EB400"/>
<path d="M215.33 148.409C215.33 152.803 211.929 156.22 207.557 156.22C203.185 156.22 199.784 152.803 199.784 148.409C199.784 144.015 203.185 140.598 207.557 140.598C211.443 140.598 215.33 144.015 215.33 148.409Z" fill="#8EB400"/>
<path d="M182.294 144.992C182.294 147.922 179.865 150.362 176.95 150.362C174.036 150.362 171.606 147.922 171.606 144.992C171.606 142.063 174.036 139.622 176.95 139.622C179.865 139.622 182.294 141.575 182.294 144.992Z" fill="#8EB400"/>
<path d="M187.152 161.102C187.152 165.008 183.752 168.425 179.865 168.425C175.979 168.425 172.578 165.008 172.578 161.102C172.578 157.197 175.979 153.78 179.865 153.78C183.752 153.78 187.152 156.709 187.152 161.102Z" fill="#8EB400"/>
<path d="M170.635 174.772C170.635 178.19 167.72 181.119 164.319 181.119C160.918 181.119 158.003 178.19 158.003 174.772C158.003 171.355 160.918 168.426 164.319 168.426C167.72 167.938 170.635 170.867 170.635 174.772Z" fill="#8EB400"/>
<path d="M80.7589 133.275C80.7589 138.645 76.3865 142.551 71.5283 142.551C66.1844 142.551 62.2979 138.157 62.2979 133.275C62.2979 127.905 66.6702 124 71.5283 124C76.3865 124 80.7589 127.905 80.7589 133.275Z" fill="#8EB400"/>
<path d="M50.1526 150.362C50.1526 155.732 45.7803 160.125 40.4363 160.125C35.0923 160.125 30.72 155.732 30.72 150.362C30.72 144.991 35.0923 140.598 40.4363 140.598C45.7803 140.598 50.1526 144.991 50.1526 150.362Z" fill="#8EB400"/>
<path d="M74.4433 162.568C74.4433 166.961 71.0426 170.379 66.6703 170.379C62.2979 170.379 58.8972 166.961 58.8972 162.568C58.8972 158.174 62.2979 154.757 66.6703 154.757C71.0426 154.757 74.4433 158.174 74.4433 162.568Z" fill="#8EB400"/>
<path d="M59.383 179.654C59.383 184.048 55.9823 187.953 51.1241 187.953C46.2659 187.953 42.8652 184.536 42.8652 179.654C42.8652 175.26 46.2659 171.355 51.1241 171.355C55.9823 171.355 59.383 175.26 59.383 179.654Z" fill="#8EB400"/>
<path d="M69.0993 200.645C69.0993 204.063 66.6702 206.504 63.2695 206.504C59.8688 206.504 57.4397 204.063 57.4397 200.645C57.4397 197.228 59.8688 194.787 63.2695 194.787C66.1844 194.787 69.0993 197.228 69.0993 200.645Z" fill="#8EB400"/>
<path d="M103.106 204.552C103.106 207.969 100.677 210.41 97.2766 210.41C93.8759 210.41 91.4468 207.969 91.4468 204.552C91.4468 201.135 93.8759 198.694 97.2766 198.694C100.677 198.694 103.106 201.135 103.106 204.552Z" fill="#8EB400"/>
<path d="M134.684 128.393L65.6985 48.3301L68.6134 45.401L137.599 125.952L134.684 128.393Z" fill="#8EB400"/>
<path d="M93.8762 81.0387H65.6989C64.7272 81.0387 63.7556 80.0623 63.7556 79.0859C63.7556 78.1096 64.7272 77.1332 65.6989 77.1332H93.8762C94.8478 77.1332 95.8194 78.1096 95.8194 79.0859C95.8194 80.5505 94.8478 81.0387 93.8762 81.0387Z" fill="#8EB400"/>
<path d="M96.3053 83.481C95.3337 83.481 94.3621 82.5047 94.3621 81.5283V56.6306C94.3621 55.6542 95.3337 54.6779 96.3053 54.6779C97.277 54.6779 98.2486 55.6542 98.2486 56.6306V81.5283C98.2486 82.5047 97.7628 83.481 96.3053 83.481Z" fill="#8EB400"/>
<path d="M114.766 102.52C113.794 102.52 112.823 101.544 112.823 100.568L112.337 81.0402C112.337 80.0638 113.309 79.0874 114.28 79.0874C115.252 79.0874 116.223 80.0638 116.223 81.0402L116.709 100.568C116.709 101.544 115.738 102.52 114.766 102.52Z" fill="#8EB400"/>
<path d="M115.252 104.472L86.1029 103.007C85.1313 103.007 84.1597 102.031 84.1597 101.054C84.1597 100.078 85.1313 99.1016 86.1029 99.1016L115.252 100.566C116.223 100.566 117.195 101.543 117.195 102.519C117.195 103.983 116.223 104.472 115.252 104.472Z" fill="#8EB400"/>
<path d="M138.571 73.2283L137.599 72.7401C136.627 72.2519 136.627 70.7873 137.113 69.8109L168.691 25.8739C169.177 24.8975 170.634 24.8975 171.606 25.3857C172.578 25.8739 172.578 27.3385 172.092 28.3149L140.514 72.2519C139.542 72.7401 139.056 73.2283 138.571 73.2283Z" fill="#8EB400"/>
<path d="M137.113 81.0396C136.142 81.0396 135.656 80.5514 135.17 80.0632L122.053 51.2601C121.567 50.2837 122.053 48.8191 123.025 48.3309C123.996 47.8427 125.454 48.3309 125.94 49.3073L139.057 78.1105C139.542 79.0868 139.057 80.5514 138.085 81.0396H137.113Z" fill="#8EB400"/>
<path d="M156.546 44.913C155.574 44.913 154.603 43.9367 154.603 42.9603L154.117 13.6689C154.117 12.6926 155.088 11.7162 156.06 11.7162C157.032 11.7162 158.003 12.6926 158.003 13.6689L158.489 42.9603C158.489 43.9367 158.003 44.913 156.546 44.913Z" fill="#8EB400"/>
<path d="M168.691 60.0471L148.773 58.0944C147.801 58.0944 146.829 57.118 146.829 55.6534C146.829 54.6771 147.801 53.7007 149.258 53.7007L169.177 55.1653C170.148 55.1653 171.12 56.1416 171.12 57.6062C170.634 59.0708 170.149 60.0471 168.691 60.0471Z" fill="#8EB400"/>
<path d="M153.631 141.574C152.173 141.574 151.688 140.598 151.688 139.133L157.517 91.2907C157.517 90.3143 158.489 89.3379 159.946 89.3379C160.918 89.3379 161.89 90.3143 161.89 91.7788L156.06 139.621C155.574 141.086 154.602 141.574 153.631 141.574Z" fill="#8EB400"/>
<path d="M141.486 150.85C141 150.85 140.028 150.362 139.542 149.874C139.056 148.897 139.056 147.433 140.028 146.944L211.443 103.007C212.415 102.519 213.872 102.519 214.358 103.496C214.844 104.472 214.844 105.937 213.872 106.425L142.457 150.362L141.486 150.85Z" fill="#8EB400"/>
<path d="M192.011 117.165H191.039C190.067 116.676 189.581 115.7 190.067 114.724L202.213 82.0149C202.699 81.0386 203.67 80.5504 204.642 81.0386C205.613 81.5268 206.099 82.5031 205.613 83.4795L193.468 116.188C193.954 116.676 192.982 117.165 192.011 117.165Z" fill="#8EB400"/>
<path d="M196.383 103.984C195.411 103.984 194.925 103.496 194.44 103.008L185.209 84.9448C184.723 83.9684 185.209 82.5038 186.181 82.0156C187.152 81.5274 188.61 82.0156 189.096 82.992L198.326 101.055C198.812 102.031 198.326 103.496 197.355 103.984H196.383Z" fill="#8EB400"/>
<path d="M221.646 133.763H221.16L184.238 124.488C183.266 124 182.295 123.023 182.78 122.047C183.266 121.071 184.238 120.094 185.209 120.582L222.131 129.858C223.103 130.346 224.075 131.322 223.589 132.299C223.103 132.787 222.131 133.763 221.646 133.763Z" fill="#8EB400"/>
<path d="M202.698 146.457L201.727 145.969L174.035 130.835C173.064 130.347 172.578 128.882 173.064 127.906C173.549 126.93 175.007 126.441 175.979 126.93L203.67 142.064C204.642 142.552 205.127 144.016 204.642 144.993C204.156 145.969 203.67 146.457 202.698 146.457Z" fill="#8EB400"/>
<path d="M161.89 152.314C161.405 152.314 160.433 151.826 159.947 151.338C159.461 150.361 159.461 148.897 160.919 148.408L172.578 141.574C173.55 141.086 175.007 141.086 175.493 142.062C175.979 143.038 175.979 144.503 175.007 144.991L163.348 151.826L161.89 152.314Z" fill="#8EB400"/>
<path d="M174.521 161.102H173.55L143.915 148.409C142.943 147.92 142.457 146.944 142.943 145.48C143.429 144.503 144.401 144.015 145.858 144.503L175.493 157.196C176.465 157.684 176.95 158.661 176.465 159.637C175.979 160.613 175.007 161.102 174.521 161.102Z" fill="#8EB400"/>
<path d="M161.89 171.842C160.918 171.842 160.433 171.354 159.947 170.377L154.603 151.826C154.117 150.85 155.089 149.385 156.06 149.385C157.032 148.897 158.489 149.873 158.489 150.85L163.833 169.401C164.319 170.377 163.348 171.842 162.376 171.842H161.89Z" fill="#8EB400"/>
<path d="M134.199 197.228C133.713 197.228 133.227 197.228 132.741 196.74L72.986 141.575C72.0144 140.598 72.0144 139.622 72.986 138.646C73.9577 137.669 74.9293 137.669 75.9009 138.646L135.656 193.811C136.628 194.787 136.628 195.764 135.656 196.74C135.17 196.74 134.685 197.228 134.199 197.228Z" fill="#8EB400"/>
<path d="M121.568 186.487L57.4401 183.558C56.4685 183.558 55.4968 182.582 55.4968 181.606C55.4968 180.629 56.4685 179.653 57.4401 179.653L121.568 182.582C122.539 182.582 123.511 183.558 123.511 184.535C123.511 185.511 122.539 186.487 121.568 186.487Z" fill="#8EB400"/>
<path d="M50.1527 152.315C49.1811 152.315 48.2095 151.339 48.2095 150.363C48.2095 149.386 48.6953 148.41 50.1527 147.922L80.7591 144.504C81.7308 144.504 82.7024 144.992 83.1882 146.457C83.1882 147.433 82.7024 148.41 81.2449 148.898L50.1527 152.315Z" fill="#8EB400"/>
<path d="M97.2764 161.591C95.819 161.591 94.8473 160.127 95.3332 159.15L97.7622 142.064C97.7622 141.087 98.7339 140.111 100.191 140.111C101.163 140.111 102.135 141.087 102.135 142.552L99.7055 159.639C99.2197 161.103 98.2481 161.591 97.2764 161.591Z" fill="#8EB400"/>
<path d="M98.7343 164.031C98.2484 164.031 97.2768 163.543 97.2768 163.055C96.3052 162.567 96.3052 161.102 97.2768 160.614L115.252 146.945C116.224 146.456 117.195 146.456 118.167 147.433C118.653 148.409 118.653 149.386 117.681 150.362L99.2201 164.031H98.7343Z" fill="#8EB400"/>
<path d="M65.2131 200.157C64.7273 200.157 63.7556 199.669 63.7556 199.181C63.2698 198.204 63.2698 196.74 64.2414 196.252L83.1883 181.118C84.1599 180.629 85.1315 180.629 86.1031 181.606C86.589 182.582 86.589 183.559 85.6173 184.535L66.6705 199.669L65.2131 200.157Z" fill="#8EB400"/>
<path d="M87.0747 184.536C86.5889 184.536 86.1031 184.536 85.6173 184.048L68.1279 166.961C67.1563 165.985 67.1563 165.009 68.1279 164.032C69.0995 163.056 70.0712 163.056 71.0428 164.032L88.5321 181.119C89.5038 182.095 89.5038 183.072 88.5321 184.048C88.0463 184.536 87.5605 184.536 87.0747 184.536Z" fill="#8EB400"/>
<path d="M147.316 281.684L146.344 281.196C145.859 280.708 145.859 279.731 146.344 279.243C146.83 278.755 175.007 250.44 203.185 236.771C231.362 223.102 243.507 223.59 243.993 223.59C244.965 223.59 245.451 224.566 245.451 225.054C245.451 226.031 244.479 226.519 243.993 226.519C243.993 226.519 231.848 226.031 204.642 239.7C176.951 253.369 148.773 281.684 148.773 281.684H147.316Z" fill="#8EB400"/>
<path d="M163.348 267.039C161.89 266.551 161.89 266.063 161.89 265.087C161.89 265.087 163.348 259.716 166.262 249.464C168.692 239.213 169.177 230.913 169.177 230.913C169.177 229.937 169.663 229.449 170.635 229.449C171.606 229.449 172.092 229.937 172.092 230.913C172.092 231.401 171.606 239.701 169.177 250.441C166.262 260.693 164.805 266.551 164.805 266.551C164.319 266.551 163.833 267.039 163.348 267.039Z" fill="#8EB400"/>
<path d="M209.014 265.086H208.528C208.528 265.086 201.241 261.669 189.581 261.181C177.922 260.693 172.092 261.181 171.606 261.181C170.634 261.181 170.149 260.693 170.149 259.716C170.149 258.74 170.634 258.252 171.606 257.763C172.092 257.763 177.922 256.787 190.067 257.275C202.213 257.763 209.986 261.669 209.986 261.669C210.957 262.157 210.957 263.133 210.471 263.622C209.986 264.598 209.5 265.086 209.014 265.086Z" fill="#8EB400"/>
<path d="M243.507 247.999L242.536 247.511C242.536 247.511 239.135 244.582 229.904 243.606C220.188 242.141 201.727 241.165 201.241 241.165C200.27 241.165 199.784 240.188 199.784 239.7C199.784 238.724 200.756 238.235 201.241 238.235C201.241 238.235 219.702 239.212 229.904 240.676C240.107 242.141 243.993 245.558 244.479 245.558C244.965 246.046 244.965 247.023 244.479 247.511L243.507 247.999Z" fill="#8EB400"/>
<path d="M221.645 230.426C221.16 230.426 220.674 230.426 220.188 229.937C219.702 229.449 219.702 228.473 220.674 227.985C220.674 227.985 223.103 226.032 227.961 218.709C232.819 210.898 237.192 202.111 237.192 201.622C237.677 200.646 238.649 200.646 239.135 200.646C240.106 201.134 240.106 202.111 240.106 202.599C240.106 203.087 235.734 211.874 230.39 219.685C225.046 227.496 222.617 229.937 222.131 229.937L221.645 230.426Z" fill="#8EB400"/>
<path d="M191.039 245.56H190.553C189.582 245.072 189.582 244.095 190.068 243.607C190.068 243.607 192.983 237.749 195.412 228.961C197.841 219.686 200.756 210.898 200.756 210.898C200.756 209.922 201.727 209.434 202.699 209.922C203.67 209.922 204.156 210.898 203.67 211.875C203.67 211.875 201.241 220.662 198.326 229.938C195.412 239.213 192.497 244.583 192.497 245.072C192.497 245.072 192.011 245.56 191.039 245.56Z" fill="#8EB400"/>
<path d="M201.241 212.851C201.241 212.851 190.553 206.016 190.067 194.788C189.582 183.559 206.585 171.355 206.585 171.355C206.585 171.355 214.358 185.024 212.901 195.276C211.443 205.04 201.241 212.851 201.241 212.851Z" fill="#8EB400"/>
<path d="M237.677 203.087C237.677 203.087 232.333 194.788 236.705 183.56C241.078 172.331 262.939 169.402 262.939 169.402C262.939 169.402 262.453 186.001 257.595 193.812C252.737 201.623 237.677 203.087 237.677 203.087Z" fill="#8EB400"/>
<path d="M169.663 232.867C169.663 232.867 163.347 231.402 160.918 221.15C158.489 210.898 167.72 198.205 167.72 198.205C167.72 198.205 179.379 212.851 178.893 221.638C177.922 230.426 169.663 232.867 169.663 232.867Z" fill="#8EB400"/>
<path d="M242.535 224.567C242.535 224.567 241.078 216.756 252.252 211.386C263.425 206.016 277.514 213.827 277.514 213.827C277.514 213.827 269.741 224.079 261.482 227.985C253.709 231.89 242.535 224.567 242.535 224.567Z" fill="#8EB400"/>
<path d="M241.564 245.56C241.564 245.56 237.192 251.906 247.879 258.741C258.567 266.064 275.571 260.693 275.571 260.693C275.571 260.693 272.656 248.001 262.94 243.119C253.223 237.749 241.564 245.56 241.564 245.56Z" fill="#8EB400"/>
<path d="M207.071 262.157C207.071 262.157 201.241 269.48 208.528 278.267C215.815 287.055 236.219 284.614 236.219 284.614C236.219 284.614 233.79 266.551 226.503 262.157C219.702 257.763 207.071 262.157 207.071 262.157Z" fill="#8EB400"/>
<path d="M134.684 314.882L133.713 314.394C133.227 313.906 105.535 286.079 77.8439 272.41C49.6666 259.229 38.007 259.717 38.007 259.717C37.0354 259.717 36.5496 259.229 36.5496 258.252C36.5496 257.276 37.0354 256.788 38.007 256.788C38.4928 256.788 50.6382 256.299 78.8155 269.969C106.993 283.638 135.17 312.441 135.656 312.441C136.142 312.929 136.142 313.906 135.656 314.394L134.684 314.882Z" fill="#8EB400"/>
<path d="M118.653 300.237C118.167 300.237 117.195 299.749 117.195 299.261C117.195 299.261 115.738 293.89 112.823 283.15C109.908 272.898 109.908 264.111 109.908 263.623C109.908 262.646 110.394 262.158 111.365 262.158C112.337 262.158 112.823 262.646 112.823 263.623C112.823 263.623 113.309 272.41 115.738 282.174C118.653 292.426 120.11 297.796 120.11 297.796C120.596 299.261 120.11 300.237 118.653 300.237Z" fill="#8EB400"/>
<path d="M72.9861 298.284C72.5003 298.284 72.0144 297.795 71.5286 297.307C71.0428 296.331 71.5286 295.843 72.0144 295.354C72.5003 295.354 80.2733 291.449 91.9329 290.961C103.592 290.473 109.908 290.961 110.394 291.449C111.365 291.449 111.851 292.425 111.851 293.402C111.851 294.378 110.88 294.866 110.394 294.866C110.394 294.866 104.078 294.378 92.4187 294.866C81.2449 295.354 73.4719 298.772 73.4719 298.772L72.9861 298.284Z" fill="#8EB400"/>
<path d="M38.4927 281.197C38.0069 281.197 37.5211 281.197 37.5211 280.709C37.0353 280.221 37.0353 279.244 37.5211 278.756C37.5211 278.756 41.4076 275.339 51.6098 273.874C61.8119 272.41 80.2729 271.433 80.2729 271.433C81.2445 271.433 81.7303 271.922 81.7303 272.898C81.7303 273.874 81.2445 274.362 80.2729 274.362C80.2729 274.362 61.8119 275.339 51.6098 276.803C42.8651 278.268 39.4644 281.197 39.4644 281.197H38.4927Z" fill="#8EB400"/>
<path d="M60.3552 263.623H59.3835C58.8977 263.623 56.4686 261.182 51.1247 253.371C45.7807 245.56 41.8942 236.284 41.4084 236.284C40.9225 235.308 41.4084 234.82 42.38 234.331C43.3516 233.843 43.8374 234.331 44.3233 235.308C44.3233 235.308 48.6956 244.583 53.5537 252.394C58.4119 259.717 60.841 261.67 60.841 262.158C61.3268 262.646 61.8126 263.623 61.3268 264.111C61.3268 263.623 60.841 263.623 60.3552 263.623Z" fill="#8EB400"/>
<path d="M90.961 278.757C90.4752 278.757 89.9894 278.268 89.5036 277.78C89.5036 277.78 86.5887 271.922 83.6738 262.646C80.7589 253.371 78.3298 244.583 78.3298 244.583C78.3298 243.607 78.3298 243.119 79.3015 242.631C80.2731 242.631 80.7589 242.631 81.2447 243.607C81.2447 243.607 83.6738 252.394 86.5887 261.67C89.0178 270.457 91.9327 276.316 91.9327 276.316C92.4185 277.292 91.9327 277.78 91.4469 278.268L90.961 278.757Z" fill="#8EB400"/>
<path d="M80.7589 246.047C80.7589 246.047 91.4468 239.212 91.9326 227.984C92.4184 216.756 75.4149 204.551 75.4149 204.551C75.4149 204.551 67.6418 218.22 69.0993 228.472C70.0709 238.236 80.7589 246.047 80.7589 246.047Z" fill="#8EB400"/>
<path d="M44.3227 236.772C44.3227 236.772 49.6667 228.473 45.2943 217.244C40.4362 206.016 18.5745 203.087 18.5745 203.087C18.5745 203.087 19.0603 219.197 23.9184 227.496C29.2624 234.819 44.3227 236.772 44.3227 236.772Z" fill="#8EB400"/>
<path d="M112.337 266.063C112.337 266.063 118.652 264.598 121.081 254.346C123.511 244.094 114.28 231.401 114.28 231.401C114.28 231.401 102.621 246.047 103.106 254.834C104.078 263.622 112.337 266.063 112.337 266.063Z" fill="#8EB400"/>
<path d="M39.4645 258.253C39.4645 258.253 40.922 250.442 29.7482 245.072C18.0887 239.213 4 247.024 4 247.024C4 247.024 11.773 257.276 20.0319 261.182C28.2908 265.087 39.4645 258.253 39.4645 258.253Z" fill="#8EB400"/>
<path d="M40.436 278.756C40.436 278.756 44.8084 285.102 34.1204 291.937C23.4325 299.26 6.42896 293.89 6.42896 293.89C6.42896 293.89 9.34385 281.197 19.0602 275.827C28.7765 271.433 40.436 278.756 40.436 278.756Z" fill="#8EB400"/>
<path d="M74.9295 295.355C74.9295 295.355 80.7592 302.678 73.472 311.465C66.1848 320.252 45.7805 317.811 45.7805 317.811C45.7805 317.811 48.2096 299.748 55.4968 295.355C62.2982 290.961 74.9295 295.355 74.9295 295.355Z" fill="#8EB400"/>
<path d="M96.7911 206.504C95.8194 206.504 95.3336 206.016 94.8478 205.039C94.362 204.063 94.8478 203.087 95.8194 202.598C97.2769 201.622 107.965 189.906 114.28 182.583C115.252 181.606 116.224 181.606 117.195 182.583C118.167 183.559 118.167 184.535 117.195 185.512C98.7343 206.016 98.2485 206.016 97.7627 206.016L96.7911 206.504Z" fill="#8EB400"/>
<path d="M172.093 102.031C172.093 100.567 172.578 99.5904 173.55 98.614C174.522 97.6377 175.493 97.1495 176.951 97.1495C178.408 97.1495 179.38 97.6377 180.351 98.614L180.837 99.1022L182.295 98.614L181.323 97.6377C180.351 96.6613 178.408 96.1731 176.951 96.1731C175.007 96.1731 173.55 97.1495 172.578 98.1259C171.607 99.1022 171.121 101.055 171.121 102.52C170.635 102.52 170.149 102.52 169.178 102.52C169.178 100.079 169.663 98.1258 171.121 96.6613C172.578 95.1967 174.522 94.2203 176.465 94.2203C178.894 94.2203 180.837 94.7085 182.295 96.1731C183.266 97.1495 183.752 98.1258 184.238 99.1022C183.266 99.5904 182.295 100.079 181.323 100.079C179.866 100.567 178.408 101.055 176.951 101.543C175.493 101.543 174.036 102.031 172.093 102.031ZM182.295 101.543C182.295 103.496 181.809 104.472 180.837 105.449C179.866 106.425 178.894 106.913 177.437 106.913C175.979 106.913 175.007 106.425 174.036 105.449L173.064 104.472C172.578 104.472 172.093 104.472 171.607 104.472C172.093 104.961 172.578 105.449 173.064 105.937C174.036 106.913 175.979 107.401 177.437 107.401C179.38 107.401 180.837 106.425 181.809 105.449C182.78 104.472 183.266 102.52 183.266 101.055V100.079C183.752 100.079 184.238 99.5904 184.724 99.5904L185.695 99.1022C185.21 97.1495 184.238 95.6849 182.78 94.7085C180.837 93.244 178.894 92.2676 175.979 92.2676C173.55 92.2676 171.121 93.7321 169.663 95.1967C168.206 97.1495 167.234 99.1022 167.234 102.031V103.008C167.72 105.449 168.692 107.401 170.635 108.866C172.578 110.331 174.522 111.307 176.951 110.819C179.38 110.819 181.809 109.354 183.266 107.89C184.724 105.937 185.695 103.984 185.695 101.055L184.238 101.543C184.238 103.496 183.266 105.449 182.295 106.913C180.837 108.378 178.894 109.354 176.951 109.354C175.007 109.354 173.064 108.866 171.607 107.401C170.149 106.425 169.178 104.961 168.692 103.008C171.607 103.008 174.522 102.52 176.465 102.031C178.894 102.52 180.351 102.031 182.295 101.543Z" fill="#8EB400"/>
<path d="M95.3331 22.9452C95.3331 20.9925 95.8189 19.5279 96.7906 18.0633C97.7622 16.5988 99.7055 16.1106 101.163 16.1106C103.106 16.1106 104.564 16.5988 106.021 17.5751L106.507 18.0633C106.993 18.0633 107.478 17.5751 107.964 17.5751L106.993 16.5988C105.535 15.1342 103.592 14.1578 101.163 14.646C98.7338 15.1342 96.7906 15.6224 95.3331 17.5751C93.8757 19.0397 92.904 20.9925 93.3899 23.4334C92.4182 23.4334 91.9324 23.4334 90.9608 23.4334C90.9608 20.5043 91.9324 18.0633 93.8757 15.6224C95.8189 13.6696 98.248 12.2051 101.163 12.2051C104.078 12.2051 106.507 13.1814 108.936 15.1342C109.908 16.1106 110.879 17.5751 111.851 19.0397C110.879 19.5279 109.422 20.0161 107.964 20.5043C106.021 20.9925 104.078 21.4807 102.135 21.9688C99.7055 22.457 97.7622 22.457 95.3331 22.9452ZM107.964 21.4807V21.9688C107.964 23.9216 107.478 25.3862 106.507 26.8507C105.535 28.3153 103.592 28.8035 102.135 28.8035C100.191 28.8035 98.7338 28.3153 97.2764 27.3389L96.3047 26.3625C95.8189 26.3625 95.3331 26.3625 94.3615 26.8507C94.8473 27.8271 95.3331 28.3153 96.3047 28.8035C97.7622 30.2681 100.191 31.2444 102.135 30.7562C104.564 30.7562 106.507 29.7799 107.964 27.8271C109.422 26.3625 110.393 24.4098 109.908 21.9688V20.9925C110.879 20.5043 111.365 20.5043 112.337 20.0161L113.308 19.5279C112.822 17.087 111.365 15.1342 109.422 13.6696C106.993 11.7169 104.078 10.2523 100.677 10.7405C97.2764 10.7405 94.3615 12.2051 92.4182 14.646C90.475 17.0869 89.0175 20.0161 89.5033 23.4334V24.898C89.9892 27.8271 91.4466 30.7562 93.8757 32.709C96.3047 34.6618 99.2196 35.6381 102.135 35.6381C105.535 35.6381 108.45 34.1736 110.393 31.7326C112.337 29.2917 113.794 26.3625 113.308 22.9452C112.822 22.9452 112.337 23.4334 111.851 23.4334C111.851 26.3625 110.879 28.8035 108.936 30.7562C106.993 32.709 104.564 34.1736 101.649 34.1736C98.7338 34.1736 96.3047 33.1972 94.3615 31.7326C93.3899 29.2917 91.9324 27.3389 91.4466 24.898C95.8189 24.4098 98.7338 24.4098 101.649 23.4334C104.078 22.9452 106.021 22.457 107.964 21.4807Z" fill="#8EB400"/>
<path d="M180.351 296.33C180.351 294.377 180.837 291.937 182.294 290.472C183.752 289.007 185.695 288.031 187.638 288.031C189.582 288.031 192.011 288.519 193.468 289.984L193.954 290.472C194.44 289.984 195.411 289.984 195.897 289.496C195.411 289.007 194.926 288.519 194.44 288.031C192.497 286.566 190.068 285.102 187.153 285.59C184.238 285.59 181.809 287.055 180.351 289.007C178.894 290.96 177.436 293.401 177.922 296.33C176.95 296.33 175.979 296.33 175.007 296.33C175.007 292.913 175.979 289.496 178.408 287.055C180.837 284.614 183.752 283.149 187.153 282.661C190.553 282.661 193.954 283.637 196.383 286.078C197.841 287.543 198.812 289.007 199.784 290.96C198.326 291.448 196.869 292.425 194.926 292.913C192.497 293.889 190.068 294.377 187.638 294.866C185.695 295.842 182.78 296.33 180.351 296.33ZM195.897 294.866V295.354C195.897 297.307 195.411 299.748 193.954 301.212C192.497 302.677 190.553 303.653 188.61 303.653C186.181 303.653 184.238 303.165 182.78 301.7C182.294 301.212 181.809 300.724 181.323 300.236C180.837 300.236 179.865 300.236 178.894 300.724C179.38 301.7 180.351 302.677 180.837 303.165C182.78 304.629 185.209 306.094 188.124 305.606C191.039 305.606 193.468 304.141 194.926 302.189C196.383 300.236 197.841 297.795 197.355 294.866V293.401C198.326 292.913 199.298 292.913 200.27 292.425L202.213 291.448C201.727 288.519 199.784 286.078 197.841 284.125C194.926 281.685 191.039 280.22 187.153 280.22C183.266 280.22 179.38 282.173 176.95 285.102C174.521 288.031 173.064 291.937 173.064 295.842C173.064 296.33 173.064 296.818 173.064 297.307C173.55 301.212 175.493 304.141 178.408 306.582C181.323 309.023 184.724 310 188.61 310C192.497 310 196.383 308.047 198.812 305.118C201.241 302.189 202.699 298.283 202.699 294.377C202.213 294.866 201.241 294.866 200.755 295.354C200.755 298.771 199.784 301.7 197.355 304.141C195.411 306.582 192.011 308.047 188.61 308.535C185.209 308.535 182.294 307.559 179.865 305.606C177.922 303.653 175.979 301.212 175.493 298.283C180.351 297.795 184.724 297.307 188.124 296.818C191.039 296.818 193.468 295.842 195.897 294.866Z" fill="#8EB400"/>
<g clip-path="url(#clip0)">
<path d="M340.628 188.093C340.195 186.8 339.979 185.291 339.546 183.997C339.33 182.704 339.114 181.41 338.681 180.117C338.465 179.47 337.816 179.039 337.168 179.039C336.735 178.823 336.086 178.823 335.438 179.254C335.221 179.47 335.005 179.47 334.789 179.685C334.14 180.117 333.924 180.979 334.14 181.626C335.87 187.662 324.841 187.015 319.868 187.015C318.786 183.566 318.354 180.117 317.489 176.452C319.219 175.589 322.246 174.511 322.679 176.452C323.111 178.392 326.355 177.745 326.139 175.805C325.706 173.433 325.058 171.062 324.625 168.691C324.625 168.475 324.625 168.259 324.409 167.828V167.397C323.976 165.457 320.733 166.104 320.949 168.044C320.949 168.691 321.165 169.122 321.165 169.768C321.165 170.2 321.165 170.415 320.949 170.631C320.516 171.062 319.219 171.062 318.57 171.278C317.705 171.493 316.84 171.278 316.191 171.493C315.759 169.553 315.326 167.613 314.894 165.672C314.461 163.732 314.245 161.792 314.029 159.852C317.489 158.989 330.248 154.246 331.113 159.852C331.329 161.145 332.194 161.576 333.491 161.361C333.924 161.361 334.356 161.145 334.789 160.93C335.654 160.498 336.086 159.636 335.87 158.774C334.789 154.246 335.221 147.994 328.734 149.719C325.49 150.581 322.463 151.875 319.003 152.522C314.678 153.384 309.704 154.678 305.379 154.246C304.73 154.246 304.298 154.462 303.865 154.893C302.135 155.54 303.216 158.558 305.379 157.911H305.595C305.595 158.127 305.595 158.342 305.595 158.558C307.325 168.475 311.001 177.745 312.948 187.662L312.731 187.878C311.218 188.955 310.353 190.033 310.785 191.758C310.785 192.189 310.785 192.62 310.785 193.052C310.785 193.914 311.65 194.776 312.731 194.776C317.056 194.13 321.381 193.483 325.706 192.836C327.869 192.405 330.031 192.189 332.194 191.974C334.573 191.758 336.951 190.68 339.33 190.465C340.411 190.249 341.06 189.171 340.628 188.093Z" fill="#FAA61A"/>
<path d="M365.496 180.764C363.766 180.332 363.334 176.021 362.901 174.727C362.252 172.356 360.955 170.416 359.009 168.691C355.116 165.457 350.359 167.613 347.331 170.847C347.115 170.2 346.682 169.553 346.466 168.691C346.034 168.044 345.169 167.829 344.52 168.044C343.222 168.475 341.925 168.906 340.627 169.338C338.465 169.984 339.546 173.218 341.709 172.571L341.925 172.787L342.357 173.218C343.439 174.512 343.006 177.099 343.006 178.608C343.006 179.039 344.087 182.919 343.871 183.135C342.79 183.351 342.357 183.997 342.141 185.075C342.141 185.938 342.357 186.8 342.574 187.662C342.79 188.309 343.655 188.956 344.304 188.956C347.331 188.309 350.359 187.878 353.386 187.231C354.467 187.016 354.684 185.938 354.467 185.075C353.819 182.488 350.575 183.351 349.926 181.41L349.71 181.195C349.494 180.117 349.494 179.039 349.494 177.961C349.494 177.745 349.494 177.53 349.494 177.314C349.71 175.158 350.791 173.003 353.17 172.14C356.846 170.631 359.009 177.961 359.874 181.626H359.657C359.009 181.841 358.576 182.273 358.576 182.919C358.576 183.566 358.576 184.213 358.576 184.86C358.576 185.938 359.874 186.8 360.955 186.369C363.334 185.506 367.01 185.938 367.01 182.273C367.01 181.626 366.361 180.979 365.496 180.764Z" fill="#FAA61A"/>
<path d="M392.095 191.759C390.798 192.405 389.284 193.052 387.554 193.699C387.554 193.268 387.554 192.836 387.338 192.405C387.986 182.273 388.635 172.356 389.284 162.223C389.284 161.146 388.635 160.068 387.338 160.068C386.689 160.068 386.04 160.283 385.391 160.499C384.526 160.714 384.31 161.577 384.31 162.223C384.31 162.87 384.31 163.301 384.31 163.948C382.148 162.008 378.688 161.577 375.876 163.301C371.551 165.673 370.254 170.631 370.254 175.159C370.254 179.255 372.2 183.782 376.525 184.644C379.553 185.291 381.931 183.997 384.094 182.057C384.094 186.585 383.661 191.327 382.58 195.855L382.148 196.07C376.093 198.442 370.686 202.322 368.308 208.359C366.361 213.533 369.173 219.784 375.011 220C380.418 220.216 384.743 216.12 386.256 211.161C387.554 206.849 387.338 202.107 387.554 197.579C389.716 196.717 391.879 195.855 394.041 194.777C395.988 193.699 394.041 190.681 392.095 191.759ZM381.931 179.039C380.201 181.195 376.958 181.626 375.228 179.686C376.741 180.548 378.904 180.333 380.85 179.47C381.499 179.255 381.931 178.823 382.58 178.392C382.148 178.823 381.931 179.039 381.931 179.039ZM382.148 173.218C381.715 175.159 377.174 178.823 376.093 175.805C375.444 174.296 375.876 172.572 376.741 171.062L377.174 170.847C379.769 168.691 383.013 169.122 382.148 173.218ZM373.498 212.239C372.2 210.514 373.498 207.496 374.363 205.772C376.093 202.538 380.201 200.597 383.445 199.304H383.661C383.445 203.616 382.58 207.712 380.201 210.946C378.904 212.239 375.228 214.395 373.498 212.239Z" fill="#FAA61A"/>
<path d="M411.774 175.804C410.909 173.649 410.26 170.63 407.016 170.846C405.935 171.062 405.07 171.924 405.502 173.217C405.935 174.511 403.124 174.942 400.529 175.158C399.88 171.924 399.015 168.906 398.366 165.672C398.15 164.594 397.934 163.301 397.717 162.223C397.069 158.989 396.852 155.755 396.636 152.306L397.501 152.09C399.664 151.443 398.582 148.21 396.42 148.856C394.257 149.503 391.879 150.365 389.5 150.581C387.337 150.797 387.554 154.246 389.716 154.03C390.149 154.03 390.581 153.815 391.014 153.815C392.311 157.264 393.176 160.929 393.825 164.378C394.041 165.888 395.987 174.727 393.825 175.373C393.176 175.589 392.527 176.451 392.527 177.098C392.744 177.96 392.744 178.607 392.96 179.469C393.176 180.116 394.041 180.763 394.69 180.763C399.88 180.332 404.854 179.038 409.827 178.391C411.341 177.96 412.206 176.882 411.774 175.804Z" fill="#FAA61A"/>
<path d="M428.642 154.031C427.56 154.246 426.479 154.462 425.398 154.893C424.749 155.109 424.1 155.971 424.1 156.618C424.1 157.48 424.317 158.342 424.533 159.205L424.317 158.989C423.019 157.911 421.505 157.48 419.559 158.127C413.504 158.989 410.044 167.397 412.855 173.218C414.369 176.236 418.262 177.314 421.289 175.589C423.019 174.727 424.533 173.218 425.398 171.493C425.614 172.571 426.047 173.864 426.263 174.942C426.479 175.589 426.912 176.02 427.56 176.02C427.993 176.02 428.425 176.236 428.858 176.236H429.29C430.372 176.451 431.669 176.02 431.669 174.511C431.237 168.475 429.507 162.223 430.372 155.971C430.588 155.109 429.939 153.815 428.642 154.031ZM421.505 168.475C421.289 169.553 419.775 170.415 418.694 170.2C416.748 169.984 416.748 166.535 417.397 165.241C417.613 165.026 417.613 164.81 417.613 164.594C417.829 164.379 418.045 163.948 418.262 163.732C418.478 163.516 418.694 163.301 418.91 163.085C419.127 162.87 419.343 162.654 419.559 162.87C421.505 162.87 421.938 166.75 421.505 168.475Z" fill="#FAA61A"/>
<path d="M448.32 156.187C446.807 154.462 444.86 153.815 442.698 154.462C440.752 155.109 439.238 156.402 438.157 158.127C437.94 157.049 437.94 155.971 437.94 154.893C437.94 153.169 435.994 152.953 435.129 153.815C434.048 153.815 432.75 154.678 433.183 156.187C433.832 158.989 433.399 161.792 433.615 164.379C433.832 167.397 435.129 169.984 434.697 173.002C434.48 174.296 435.562 175.374 437.075 174.943C437.724 174.727 438.589 174.511 439.454 174.296C440.103 174.08 440.752 173.218 440.752 172.571C439.887 168.259 440.319 163.301 443.779 160.498C447.239 157.911 447.023 170.415 447.239 171.709C447.455 172.787 448.537 173.865 449.618 173.218C450.267 173.002 450.699 172.787 451.348 172.571C451.997 172.356 452.645 171.709 452.645 170.846C451.564 165.888 451.564 160.067 448.32 156.187Z" fill="#FAA61A"/>
<path d="M475.351 162.008C474.919 159.421 474.486 156.618 474.054 154.031C473.621 150.797 472.972 147.779 472.54 144.545C472.324 143.252 472.107 142.174 472.107 140.88C472.107 140.449 472.107 140.018 472.107 139.587V139.371C472.756 138.078 471.026 136.353 469.729 137.215C468.431 136.784 466.917 137.862 467.35 139.371C467.566 140.234 467.783 141.096 467.999 141.958C467.999 144.976 468.431 147.995 468.864 150.797C468.864 152.091 468.864 153.384 468.864 154.678V154.893C466.701 152.522 463.025 152.737 459.997 154.247C456.105 156.402 454.375 159.852 454.375 164.163C454.375 167.828 456.321 172.14 460.214 172.356C464.322 172.571 467.35 169.984 469.296 166.535C469.296 168.26 469.296 169.769 469.296 171.493C469.296 172.571 470.594 173.434 471.675 173.002C472.324 172.787 473.189 172.356 473.837 172.356C474.27 172.14 474.702 171.709 474.919 171.278C475.351 171.062 475.784 170.631 476 169.984C476.216 167.182 475.567 164.595 475.351 162.008ZM465.404 163.086C464.322 165.457 462.376 166.104 460.646 163.948L460.214 163.732C460.43 162.223 460.862 160.714 461.295 160.067C462.376 158.774 464.539 158.558 465.62 159.852C466.269 160.714 465.836 162.008 465.404 163.086Z" fill="#FAA61A"/>
</g>
<path d="M455.434 75.4061C455.434 75.4061 457.152 62.3641 470.88 61.6721C484.607 60.9801 487.807 74.5137 477.975 85.9185C468.143 97.3233 454.049 109.954 454.049 109.954C454.049 109.954 436.999 98.3385 427.981 85.0489C419.004 71.3505 422.32 58.8812 432.482 56.5939C442.644 54.3066 448.793 63.18 451.621 68.0051C454.409 73.239 455.434 75.4061 455.434 75.4061Z" fill="#ED1C24"/>
<path d="M446.582 72.8697C446.991 68.7813 443.179 65.5096 439.04 65.5087C437.032 64.895 434.574 64.6492 433.099 66.9793C431.665 68.9006 432.199 71.8444 433.674 73.6437C436.257 76.7924 445.559 78.9613 446.582 72.8697ZM439.533 68.8614C440.353 68.9434 441.172 69.0253 441.541 69.4751C440.762 68.9843 439.943 68.9024 439.533 68.8614Z" fill="white"/>
<path d="M515.929 117.686C515.929 117.686 519.787 111.324 527.052 114.089C534.318 116.854 532.895 124.59 525.209 128.259C517.523 131.927 507.351 135.26 507.351 135.26C507.351 135.26 501.166 125.366 499.52 116.433C497.988 107.297 502.543 101.595 508.325 102.722C514.108 103.85 515.272 109.844 515.639 112.986C515.892 116.331 515.929 117.686 515.929 117.686Z" fill="#FAA61A"/>
<path d="M511.923 114.358C513.065 112.334 511.835 109.773 509.693 108.831C508.792 108.056 507.575 107.369 506.281 108.24C505.102 108.909 504.708 110.555 505.063 111.822C505.684 114.04 510.007 117.28 511.923 114.358ZM509.185 110.679C509.59 110.908 509.996 111.137 510.085 111.454C509.793 111.022 509.388 110.793 509.185 110.679Z" fill="white"/>
</g>
<defs>
<filter id="filter0_dd" x="0" y="0" width="538.446" height="380" filterUnits="userSpaceOnUse" color-interpolation-filters="sRGB">
<feFlood flood-opacity="0" result="BackgroundImageFix"/>
<feColorMatrix in="SourceAlpha" type="matrix" values="0 0 0 0 0 0 0 0 0 0 0 0 0 0 0 0 0 0 127 0"/>
<feOffset dy="4"/>
<feGaussianBlur stdDeviation="2"/>
<feColorMatrix type="matrix" values="0 0 0 0 0 0 0 0 0 0 0 0 0 0 0 0 0 0 0.25 0"/>
<feBlend mode="normal" in2="BackgroundImageFix" result="effect1_dropShadow"/>
<feColorMatrix in="SourceAlpha" type="matrix" values="0 0 0 0 0 0 0 0 0 0 0 0 0 0 0 0 0 0 127 0"/>
<feOffset dy="4"/>
<feGaussianBlur stdDeviation="2"/>
<feColorMatrix type="matrix" values="0 0 0 0 0 0 0 0 0 0 0 0 0 0 0 0 0 0 0.25 0"/>
<feBlend mode="normal" in2="effect1_dropShadow" result="effect2_dropShadow"/>
<feBlend mode="normal" in="SourceGraphic" in2="effect2_dropShadow" result="shape"/>
</filter>
<clipPath id="clip0">
<rect width="173" height="83" fill="white" transform="translate(303 137)"/>
</clipPath>
</defs>
</svg>
