<svg width="97" height="109" viewBox="0 0 97 109" fill="none" xmlns="http://www.w3.org/2000/svg">
<g clip-path="url(#clip0)">
<path d="M24.4495 52.007C37.2057 42.8307 53.8111 47.878 67.0563 40.0873C76.3832 34.4585 76.4721 19.2346 68.2123 12.4108C44.3711 -7.61279 22.523 27.7556 16.454 47.0376C15.3505 50.5435 19.0014 53.1506 21.4297 52.2936C22.368 52.7416 23.4087 52.3743 24.4495 52.007Z" fill="#F9A51A"/>
<path d="M15.6774 49.2598C15.433 48.567 15.5354 47.7517 15.6378 46.9365C20.1738 33.2596 32.3649 11.4276 47.8733 6.73367C54.9337 4.63158 61.8289 6.48328 68.3146 11.5959C71.1493 14.1015 73.0656 17.3207 74.0635 21.2537C75.5701 27.7339 73.73 35.7847 66.9339 39.7413C60.4848 43.5754 53.4046 44.5159 46.2021 45.1099C38.8972 46.5192 31.47 47.582 24.9185 52.2314C24 52.9451 22.4901 53.0884 21.5518 52.6404C20.1642 53.1301 19.2259 52.6821 17.9407 52.3566C16.8801 51.5622 16.0442 50.299 15.6774 49.2598Z" fill="#F9A51A"/>
<path d="M62.3117 21.1155C62.2324 16.4689 57.0716 14.0051 53.1136 13.8437C48.3394 13.5808 43.1557 16.5788 41.8474 21.7151C41.6426 23.3456 43.397 23.8951 44.7846 23.4054C49.3539 25.2988 62.3085 27.739 62.3117 21.1155Z" fill="white"/>
<path d="M17.3594 72.8179C17.3594 72.8179 42.9281 64.5737 59.963 67.5217C76.651 70.5921 85.1951 80.4321 78.029 89.9729C70.863 99.5137 48.2411 89.5777 42.7137 86.0747C36.4924 82.8165 17.3594 72.8179 17.3594 72.8179Z" fill="#F9A51A"/>
<path d="M65.7481 86.1262C66.7888 85.759 67.4628 84.3525 66.6269 83.0893L66.5046 82.7429C66.2601 82.05 65.791 81.826 64.9749 81.7245C62.16 80.3806 59.0378 81.4824 56.2625 82.4618C55.2218 82.8291 54.6701 84.582 55.3837 85.4988C55.6282 86.1916 56.5666 86.6396 56.9135 86.5172C57.974 87.3115 59.3815 87.9835 60.5445 87.9626C62.7482 87.5745 64.0135 86.7384 65.7481 86.1262Z" fill="white"/>
</g>
<defs>
<clipPath id="clip0">
<rect width="71" height="90" fill="white" transform="translate(0 23.6281) rotate(-19.4382)"/>
</clipPath>
</defs>
</svg>
