<svg width="531" height="372" viewBox="0 0 531 372" fill="none" xmlns="http://www.w3.org/2000/svg">
<path d="M132.142 35.6371L124.854 371.999H157.89L132.142 35.6371Z" fill="#8EB400"/>
<path d="M69.4721 42.4727C69.4721 48.3309 65.0998 52.7246 59.27 52.7246C53.4402 52.7246 49.0679 48.3309 49.0679 42.4727C49.0679 36.6144 53.4402 32.2207 59.27 32.2207C65.0998 32.2207 69.4721 37.1026 69.4721 42.4727Z" fill="#8EB400"/>
<path d="M137.486 28.3157C137.486 32.7094 134.085 35.6385 129.713 35.6385C125.34 35.6385 122.425 32.2212 122.425 28.3157C122.425 23.922 125.826 20.5046 129.713 20.5046C134.085 20.5046 137.486 23.922 137.486 28.3157Z" fill="#8EB400"/>
<path d="M158.861 6.83465C158.861 10.7402 155.946 13.6693 152.06 13.6693C148.173 13.6693 145.259 10.7402 145.259 6.83465C145.259 2.92913 148.173 0 152.06 0C155.946 0 158.861 2.92913 158.861 6.83465Z" fill="#8EB400"/>
<path d="M177.808 26.8501C177.808 31.2438 174.408 34.6611 170.035 34.6611C165.663 34.6611 162.262 31.2438 162.262 26.8501C162.262 22.4564 165.663 19.0391 170.035 19.0391C174.408 19.0391 177.808 22.4564 177.808 26.8501Z" fill="#8EB400"/>
<path d="M173.922 57.6062C173.922 61.0235 171.007 63.9527 167.606 63.9527C164.205 63.9527 161.291 61.0235 161.291 57.6062C161.291 54.1889 164.205 51.2598 167.606 51.2598C171.007 51.2598 173.922 54.1889 173.922 57.6062Z" fill="#8EB400"/>
<path d="M162.262 88.3625C162.262 91.2916 159.833 93.7325 156.918 93.7325C154.003 93.7325 151.574 91.2916 151.574 88.3625C151.574 85.4333 154.003 82.9924 156.918 82.9924C159.833 82.5042 162.262 84.9451 162.262 88.3625Z" fill="#8EB400"/>
<path d="M188.01 80.063C188.01 83.9686 185.095 86.8977 181.209 86.8977C177.322 86.8977 174.407 83.9686 174.407 80.063C174.407 76.1575 177.322 73.2284 181.209 73.2284C185.095 73.2284 188.01 76.1575 188.01 80.063Z" fill="#8EB400"/>
<path d="M207.443 78.1104C207.443 82.0159 204.528 84.945 200.642 84.945C196.755 84.945 193.84 82.0159 193.84 78.1104C193.84 74.2049 196.755 71.2758 200.642 71.2758C204.042 71.2758 207.443 74.2049 207.443 78.1104Z" fill="#8EB400"/>
<path d="M122.426 47.8425C122.426 51.2599 119.511 54.189 116.11 54.189C112.71 54.189 109.795 51.2599 109.795 47.8425C109.795 44.4252 112.71 41.4961 116.11 41.4961C119.511 41.4961 122.426 43.937 122.426 47.8425Z" fill="#8EB400"/>
<path d="M99.1062 51.748C99.1062 56.1417 95.7055 59.5591 91.3331 59.5591C86.9608 59.5591 83.5601 56.1417 83.5601 51.748C84.0459 47.3543 87.4466 43.937 91.8189 43.937C95.7055 43.937 99.1062 47.3543 99.1062 51.748Z" fill="#8EB400"/>
<path d="M121.454 75.1804C121.454 79.5741 118.053 82.9914 113.681 82.9914C109.309 82.9914 105.908 79.5741 105.908 75.1804C105.908 70.7867 109.309 67.3694 113.681 67.3694C118.053 67.3694 121.454 71.2749 121.454 75.1804Z" fill="#8EB400"/>
<path d="M66.0711 76.645C66.0711 82.0151 61.6988 85.9206 56.8406 85.9206C51.4966 85.9206 47.6101 81.5269 47.6101 76.645C47.6101 71.2749 51.9824 67.3694 56.8406 67.3694C62.1846 67.3694 66.0711 71.2749 66.0711 76.645Z" fill="#8EB400"/>
<path d="M87.4472 100.567C87.4472 105.449 83.5606 108.866 79.1883 108.866C74.3301 108.866 70.9294 104.961 70.9294 100.567C70.9294 95.6852 74.816 92.2679 79.1883 92.2679C83.5606 91.7797 87.4472 95.6852 87.4472 100.567Z" fill="#8EB400"/>
<path d="M104.451 134.252C104.451 139.134 100.564 142.551 96.1917 142.551C91.3336 142.551 87.9329 138.645 87.9329 134.252C87.9329 129.37 91.8194 125.953 96.1917 125.953C100.564 125.464 104.451 129.37 104.451 134.252Z" fill="#8EB400"/>
<path d="M121.454 146.457C121.454 150.362 118.539 153.292 114.652 153.292C110.766 153.292 107.851 150.362 107.851 146.457C107.851 142.551 110.766 139.622 114.652 139.622C118.539 139.622 121.454 142.551 121.454 146.457Z" fill="#8EB400"/>
<path d="M236.106 132.787C236.106 138.646 231.248 143.528 225.418 143.528C219.588 143.528 214.73 138.646 214.73 132.787C214.73 126.929 219.588 122.047 225.418 122.047C231.248 122.047 236.106 126.929 236.106 132.787Z" fill="#8EB400"/>
<path d="M221.532 102.032C221.532 106.426 218.131 110.331 213.273 110.331C208.9 110.331 205.014 106.914 205.014 102.032C205.014 97.6384 208.415 93.7329 213.273 93.7329C218.131 94.2211 221.532 97.6384 221.532 102.032Z" fill="#8EB400"/>
<path d="M211.33 148.409C211.33 152.803 207.929 156.22 203.557 156.22C199.185 156.22 195.784 152.803 195.784 148.409C195.784 144.015 199.185 140.598 203.557 140.598C207.443 140.598 211.33 144.015 211.33 148.409Z" fill="#8EB400"/>
<path d="M178.294 144.992C178.294 147.922 175.865 150.362 172.95 150.362C170.036 150.362 167.606 147.922 167.606 144.992C167.606 142.063 170.036 139.622 172.95 139.622C175.865 139.622 178.294 141.575 178.294 144.992Z" fill="#8EB400"/>
<path d="M183.152 161.102C183.152 165.008 179.752 168.425 175.865 168.425C171.979 168.425 168.578 165.008 168.578 161.102C168.578 157.197 171.979 153.78 175.865 153.78C179.752 153.78 183.152 156.709 183.152 161.102Z" fill="#8EB400"/>
<path d="M166.635 174.772C166.635 178.19 163.72 181.119 160.319 181.119C156.918 181.119 154.003 178.19 154.003 174.772C154.003 171.355 156.918 168.426 160.319 168.426C163.72 167.938 166.635 170.867 166.635 174.772Z" fill="#8EB400"/>
<path d="M76.7589 133.275C76.7589 138.645 72.3865 142.551 67.5283 142.551C62.1844 142.551 58.2979 138.157 58.2979 133.275C58.2979 127.905 62.6702 124 67.5283 124C72.3865 124 76.7589 127.905 76.7589 133.275Z" fill="#8EB400"/>
<path d="M46.1526 150.362C46.1526 155.732 41.7803 160.125 36.4363 160.125C31.0923 160.125 26.72 155.732 26.72 150.362C26.72 144.991 31.0923 140.598 36.4363 140.598C41.7803 140.598 46.1526 144.991 46.1526 150.362Z" fill="#8EB400"/>
<path d="M70.4433 162.568C70.4433 166.961 67.0426 170.379 62.6703 170.379C58.2979 170.379 54.8972 166.961 54.8972 162.568C54.8972 158.174 58.2979 154.757 62.6703 154.757C67.0426 154.757 70.4433 158.174 70.4433 162.568Z" fill="#8EB400"/>
<path d="M55.383 179.654C55.383 184.048 51.9823 187.953 47.1241 187.953C42.2659 187.953 38.8652 184.536 38.8652 179.654C38.8652 175.26 42.2659 171.355 47.1241 171.355C51.9823 171.355 55.383 175.26 55.383 179.654Z" fill="#8EB400"/>
<path d="M65.0993 200.645C65.0993 204.063 62.6702 206.504 59.2695 206.504C55.8688 206.504 53.4397 204.063 53.4397 200.645C53.4397 197.228 55.8688 194.787 59.2695 194.787C62.1844 194.787 65.0993 197.228 65.0993 200.645Z" fill="#8EB400"/>
<path d="M99.1064 204.552C99.1064 207.969 96.6773 210.41 93.2766 210.41C89.8759 210.41 87.4468 207.969 87.4468 204.552C87.4468 201.135 89.8759 198.694 93.2766 198.694C96.6773 198.694 99.1064 201.135 99.1064 204.552Z" fill="#8EB400"/>
<path d="M130.684 128.393L61.6985 48.3301L64.6134 45.401L133.599 125.952L130.684 128.393Z" fill="#8EB400"/>
<path d="M89.8762 81.0387H61.6989C60.7272 81.0387 59.7556 80.0623 59.7556 79.0859C59.7556 78.1096 60.7272 77.1332 61.6989 77.1332H89.8762C90.8478 77.1332 91.8194 78.1096 91.8194 79.0859C91.8194 80.5505 90.8478 81.0387 89.8762 81.0387Z" fill="#8EB400"/>
<path d="M92.3053 83.481C91.3337 83.481 90.3621 82.5047 90.3621 81.5283V56.6306C90.3621 55.6542 91.3337 54.6779 92.3053 54.6779C93.277 54.6779 94.2486 55.6542 94.2486 56.6306V81.5283C94.2486 82.5047 93.7628 83.481 92.3053 83.481Z" fill="#8EB400"/>
<path d="M110.766 102.52C109.794 102.52 108.823 101.544 108.823 100.568L108.337 81.0402C108.337 80.0638 109.309 79.0874 110.28 79.0874C111.252 79.0874 112.223 80.0638 112.223 81.0402L112.709 100.568C112.709 101.544 111.738 102.52 110.766 102.52Z" fill="#8EB400"/>
<path d="M111.252 104.472L82.1029 103.007C81.1313 103.007 80.1597 102.031 80.1597 101.054C80.1597 100.078 81.1313 99.1016 82.1029 99.1016L111.252 100.566C112.223 100.566 113.195 101.543 113.195 102.519C113.195 103.983 112.223 104.472 111.252 104.472Z" fill="#8EB400"/>
<path d="M134.571 73.2283L133.599 72.7401C132.627 72.2519 132.627 70.7873 133.113 69.8109L164.691 25.8739C165.177 24.8975 166.634 24.8975 167.606 25.3857C168.578 25.8739 168.578 27.3385 168.092 28.3149L136.514 72.2519C135.542 72.7401 135.056 73.2283 134.571 73.2283Z" fill="#8EB400"/>
<path d="M133.113 81.0396C132.142 81.0396 131.656 80.5514 131.17 80.0632L118.053 51.2601C117.567 50.2837 118.053 48.8191 119.025 48.3309C119.996 47.8427 121.454 48.3309 121.94 49.3073L135.057 78.1105C135.542 79.0868 135.057 80.5514 134.085 81.0396H133.113Z" fill="#8EB400"/>
<path d="M152.546 44.913C151.574 44.913 150.603 43.9367 150.603 42.9603L150.117 13.6689C150.117 12.6926 151.088 11.7162 152.06 11.7162C153.032 11.7162 154.003 12.6926 154.003 13.6689L154.489 42.9603C154.489 43.9367 154.003 44.913 152.546 44.913Z" fill="#8EB400"/>
<path d="M164.691 60.0471L144.773 58.0944C143.801 58.0944 142.829 57.118 142.829 55.6534C142.829 54.6771 143.801 53.7007 145.258 53.7007L165.177 55.1653C166.148 55.1653 167.12 56.1416 167.12 57.6062C166.634 59.0708 166.149 60.0471 164.691 60.0471Z" fill="#8EB400"/>
<path d="M149.631 141.574C148.173 141.574 147.688 140.598 147.688 139.133L153.517 91.2907C153.517 90.3143 154.489 89.3379 155.946 89.3379C156.918 89.3379 157.89 90.3143 157.89 91.7788L152.06 139.621C151.574 141.086 150.602 141.574 149.631 141.574Z" fill="#8EB400"/>
<path d="M137.486 150.85C137 150.85 136.028 150.362 135.542 149.874C135.056 148.897 135.056 147.433 136.028 146.944L207.443 103.007C208.415 102.519 209.872 102.519 210.358 103.496C210.844 104.472 210.844 105.937 209.872 106.425L138.457 150.362L137.486 150.85Z" fill="#8EB400"/>
<path d="M188.011 117.165H187.039C186.067 116.676 185.581 115.7 186.067 114.724L198.213 82.0149C198.699 81.0386 199.67 80.5504 200.642 81.0386C201.613 81.5268 202.099 82.5031 201.613 83.4795L189.468 116.188C189.954 116.676 188.982 117.165 188.011 117.165Z" fill="#8EB400"/>
<path d="M192.383 103.984C191.411 103.984 190.925 103.496 190.44 103.008L181.209 84.9448C180.723 83.9684 181.209 82.5038 182.181 82.0156C183.152 81.5274 184.61 82.0156 185.096 82.992L194.326 101.055C194.812 102.031 194.326 103.496 193.355 103.984H192.383Z" fill="#8EB400"/>
<path d="M217.646 133.763H217.16L180.238 124.488C179.266 124 178.295 123.023 178.78 122.047C179.266 121.071 180.238 120.094 181.209 120.582L218.131 129.858C219.103 130.346 220.075 131.322 219.589 132.299C219.103 132.787 218.131 133.763 217.646 133.763Z" fill="#8EB400"/>
<path d="M198.698 146.457L197.727 145.969L170.035 130.835C169.064 130.347 168.578 128.882 169.064 127.906C169.549 126.93 171.007 126.441 171.979 126.93L199.67 142.064C200.642 142.552 201.127 144.016 200.642 144.993C200.156 145.969 199.67 146.457 198.698 146.457Z" fill="#8EB400"/>
<path d="M157.89 152.314C157.405 152.314 156.433 151.826 155.947 151.338C155.461 150.361 155.461 148.897 156.919 148.408L168.578 141.574C169.55 141.086 171.007 141.086 171.493 142.062C171.979 143.038 171.979 144.503 171.007 144.991L159.348 151.826L157.89 152.314Z" fill="#8EB400"/>
<path d="M170.521 161.102H169.55L139.915 148.409C138.943 147.92 138.457 146.944 138.943 145.48C139.429 144.503 140.401 144.015 141.858 144.503L171.493 157.196C172.465 157.684 172.95 158.661 172.465 159.637C171.979 160.613 171.007 161.102 170.521 161.102Z" fill="#8EB400"/>
<path d="M157.89 171.842C156.918 171.842 156.433 171.354 155.947 170.377L150.603 151.826C150.117 150.85 151.089 149.385 152.06 149.385C153.032 148.897 154.489 149.873 154.489 150.85L159.833 169.401C160.319 170.377 159.348 171.842 158.376 171.842H157.89Z" fill="#8EB400"/>
<path d="M130.199 197.228C129.713 197.228 129.227 197.228 128.741 196.74L68.986 141.575C68.0144 140.598 68.0144 139.622 68.986 138.646C69.9577 137.669 70.9293 137.669 71.9009 138.646L131.656 193.811C132.628 194.787 132.628 195.764 131.656 196.74C131.17 196.74 130.685 197.228 130.199 197.228Z" fill="#8EB400"/>
<path d="M117.568 186.487L53.4401 183.558C52.4685 183.558 51.4968 182.582 51.4968 181.606C51.4968 180.629 52.4685 179.653 53.4401 179.653L117.568 182.582C118.539 182.582 119.511 183.558 119.511 184.535C119.511 185.511 118.539 186.487 117.568 186.487Z" fill="#8EB400"/>
<path d="M46.1527 152.315C45.1811 152.315 44.2095 151.339 44.2095 150.363C44.2095 149.386 44.6953 148.41 46.1527 147.922L76.7591 144.504C77.7308 144.504 78.7024 144.992 79.1882 146.457C79.1882 147.433 78.7024 148.41 77.2449 148.898L46.1527 152.315Z" fill="#8EB400"/>
<path d="M93.2764 161.591C91.819 161.591 90.8473 160.127 91.3332 159.15L93.7622 142.064C93.7622 141.087 94.7339 140.111 96.1913 140.111C97.163 140.111 98.1346 141.087 98.1346 142.552L95.7055 159.639C95.2197 161.103 94.2481 161.591 93.2764 161.591Z" fill="#8EB400"/>
<path d="M94.7343 164.031C94.2484 164.031 93.2768 163.543 93.2768 163.055C92.3052 162.567 92.3052 161.102 93.2768 160.614L111.252 146.945C112.224 146.456 113.195 146.456 114.167 147.433C114.653 148.409 114.653 149.386 113.681 150.362L95.2201 164.031H94.7343Z" fill="#8EB400"/>
<path d="M61.2131 200.157C60.7273 200.157 59.7556 199.669 59.7556 199.181C59.2698 198.204 59.2698 196.74 60.2414 196.252L79.1883 181.118C80.1599 180.629 81.1315 180.629 82.1031 181.606C82.589 182.582 82.589 183.559 81.6173 184.535L62.6705 199.669L61.2131 200.157Z" fill="#8EB400"/>
<path d="M83.0747 184.536C82.5889 184.536 82.1031 184.536 81.6173 184.048L64.1279 166.961C63.1563 165.985 63.1563 165.009 64.1279 164.032C65.0995 163.056 66.0712 163.056 67.0428 164.032L84.5321 181.119C85.5038 182.095 85.5038 183.072 84.5321 184.048C84.0463 184.536 83.5605 184.536 83.0747 184.536Z" fill="#8EB400"/>
<path d="M143.316 281.684L142.344 281.196C141.859 280.708 141.859 279.731 142.344 279.243C142.83 278.755 171.007 250.44 199.185 236.771C227.362 223.102 239.507 223.59 239.993 223.59C240.965 223.59 241.451 224.566 241.451 225.054C241.451 226.031 240.479 226.519 239.993 226.519C239.993 226.519 227.848 226.031 200.642 239.7C172.951 253.369 144.773 281.684 144.773 281.684H143.316Z" fill="#8EB400"/>
<path d="M159.348 267.039C157.89 266.551 157.89 266.063 157.89 265.087C157.89 265.087 159.348 259.716 162.262 249.464C164.692 239.213 165.177 230.913 165.177 230.913C165.177 229.937 165.663 229.449 166.635 229.449C167.606 229.449 168.092 229.937 168.092 230.913C168.092 231.401 167.606 239.701 165.177 250.441C162.262 260.693 160.805 266.551 160.805 266.551C160.319 266.551 159.833 267.039 159.348 267.039Z" fill="#8EB400"/>
<path d="M205.014 265.086H204.528C204.528 265.086 197.241 261.669 185.581 261.181C173.922 260.693 168.092 261.181 167.606 261.181C166.634 261.181 166.149 260.693 166.149 259.716C166.149 258.74 166.634 258.252 167.606 257.763C168.092 257.763 173.922 256.787 186.067 257.275C198.213 257.763 205.986 261.669 205.986 261.669C206.957 262.157 206.957 263.133 206.471 263.622C205.986 264.598 205.5 265.086 205.014 265.086Z" fill="#8EB400"/>
<path d="M239.507 247.999L238.536 247.511C238.536 247.511 235.135 244.582 225.904 243.606C216.188 242.141 197.727 241.165 197.241 241.165C196.27 241.165 195.784 240.188 195.784 239.7C195.784 238.724 196.756 238.235 197.241 238.235C197.241 238.235 215.702 239.212 225.904 240.676C236.107 242.141 239.993 245.558 240.479 245.558C240.965 246.046 240.965 247.023 240.479 247.511L239.507 247.999Z" fill="#8EB400"/>
<path d="M217.645 230.426C217.16 230.426 216.674 230.426 216.188 229.937C215.702 229.449 215.702 228.473 216.674 227.985C216.674 227.985 219.103 226.032 223.961 218.709C228.819 210.898 233.192 202.111 233.192 201.622C233.677 200.646 234.649 200.646 235.135 200.646C236.106 201.134 236.106 202.111 236.106 202.599C236.106 203.087 231.734 211.874 226.39 219.685C221.046 227.496 218.617 229.937 218.131 229.937L217.645 230.426Z" fill="#8EB400"/>
<path d="M187.039 245.56H186.553C185.582 245.072 185.582 244.095 186.068 243.607C186.068 243.607 188.983 237.749 191.412 228.961C193.841 219.686 196.756 210.898 196.756 210.898C196.756 209.922 197.727 209.434 198.699 209.922C199.67 209.922 200.156 210.898 199.67 211.875C199.67 211.875 197.241 220.662 194.326 229.938C191.412 239.213 188.497 244.583 188.497 245.072C188.497 245.072 188.011 245.56 187.039 245.56Z" fill="#8EB400"/>
<path d="M197.241 212.851C197.241 212.851 186.553 206.016 186.067 194.788C185.582 183.559 202.585 171.355 202.585 171.355C202.585 171.355 210.358 185.024 208.901 195.276C207.443 205.04 197.241 212.851 197.241 212.851Z" fill="#8EB400"/>
<path d="M233.677 203.087C233.677 203.087 228.333 194.788 232.705 183.56C237.078 172.331 258.939 169.402 258.939 169.402C258.939 169.402 258.453 186.001 253.595 193.812C248.737 201.623 233.677 203.087 233.677 203.087Z" fill="#8EB400"/>
<path d="M165.663 232.867C165.663 232.867 159.347 231.402 156.918 221.15C154.489 210.898 163.72 198.205 163.72 198.205C163.72 198.205 175.379 212.851 174.893 221.638C173.922 230.426 165.663 232.867 165.663 232.867Z" fill="#8EB400"/>
<path d="M238.535 224.567C238.535 224.567 237.078 216.756 248.252 211.386C259.425 206.016 273.514 213.827 273.514 213.827C273.514 213.827 265.741 224.079 257.482 227.985C249.709 231.89 238.535 224.567 238.535 224.567Z" fill="#8EB400"/>
<path d="M237.564 245.56C237.564 245.56 233.192 251.906 243.879 258.741C254.567 266.064 271.571 260.693 271.571 260.693C271.571 260.693 268.656 248.001 258.94 243.119C249.223 237.749 237.564 245.56 237.564 245.56Z" fill="#8EB400"/>
<path d="M203.071 262.157C203.071 262.157 197.241 269.48 204.528 278.267C211.815 287.055 232.219 284.614 232.219 284.614C232.219 284.614 229.79 266.551 222.503 262.157C215.702 257.763 203.071 262.157 203.071 262.157Z" fill="#8EB400"/>
<path d="M130.684 314.882L129.713 314.394C129.227 313.906 101.535 286.079 73.8439 272.41C45.6666 259.229 34.007 259.717 34.007 259.717C33.0354 259.717 32.5496 259.229 32.5496 258.252C32.5496 257.276 33.0354 256.788 34.007 256.788C34.4928 256.788 46.6382 256.299 74.8155 269.969C102.993 283.638 131.17 312.441 131.656 312.441C132.142 312.929 132.142 313.906 131.656 314.394L130.684 314.882Z" fill="#8EB400"/>
<path d="M114.653 300.237C114.167 300.237 113.195 299.749 113.195 299.261C113.195 299.261 111.738 293.89 108.823 283.15C105.908 272.898 105.908 264.111 105.908 263.623C105.908 262.646 106.394 262.158 107.365 262.158C108.337 262.158 108.823 262.646 108.823 263.623C108.823 263.623 109.309 272.41 111.738 282.174C114.653 292.426 116.11 297.796 116.11 297.796C116.596 299.261 116.11 300.237 114.653 300.237Z" fill="#8EB400"/>
<path d="M68.9861 298.284C68.5003 298.284 68.0144 297.795 67.5286 297.307C67.0428 296.331 67.5286 295.843 68.0144 295.354C68.5003 295.354 76.2733 291.449 87.9329 290.961C99.5925 290.473 105.908 290.961 106.394 291.449C107.365 291.449 107.851 292.425 107.851 293.402C107.851 294.378 106.88 294.866 106.394 294.866C106.394 294.866 100.078 294.378 88.4187 294.866C77.2449 295.354 69.4719 298.772 69.4719 298.772L68.9861 298.284Z" fill="#8EB400"/>
<path d="M34.4927 281.197C34.0069 281.197 33.5211 281.197 33.5211 280.709C33.0353 280.221 33.0353 279.244 33.5211 278.756C33.5211 278.756 37.4076 275.339 47.6098 273.874C57.8119 272.41 76.2729 271.433 76.2729 271.433C77.2445 271.433 77.7303 271.922 77.7303 272.898C77.7303 273.874 77.2445 274.362 76.2729 274.362C76.2729 274.362 57.8119 275.339 47.6098 276.803C38.8651 278.268 35.4644 281.197 35.4644 281.197H34.4927Z" fill="#8EB400"/>
<path d="M56.3552 263.623H55.3835C54.8977 263.623 52.4686 261.182 47.1247 253.371C41.7807 245.56 37.8942 236.284 37.4084 236.284C36.9225 235.308 37.4084 234.82 38.38 234.331C39.3516 233.843 39.8374 234.331 40.3233 235.308C40.3233 235.308 44.6956 244.583 49.5537 252.394C54.4119 259.717 56.841 261.67 56.841 262.158C57.3268 262.646 57.8126 263.623 57.3268 264.111C57.3268 263.623 56.841 263.623 56.3552 263.623Z" fill="#8EB400"/>
<path d="M86.961 278.757C86.4752 278.757 85.9894 278.268 85.5036 277.78C85.5036 277.78 82.5887 271.922 79.6738 262.646C76.7589 253.371 74.3298 244.583 74.3298 244.583C74.3298 243.607 74.3298 243.119 75.3015 242.631C76.2731 242.631 76.7589 242.631 77.2447 243.607C77.2447 243.607 79.6738 252.394 82.5887 261.67C85.0178 270.457 87.9327 276.316 87.9327 276.316C88.4185 277.292 87.9327 277.78 87.4469 278.268L86.961 278.757Z" fill="#8EB400"/>
<path d="M76.7589 246.047C76.7589 246.047 87.4468 239.212 87.9326 227.984C88.4184 216.756 71.4149 204.551 71.4149 204.551C71.4149 204.551 63.6418 218.22 65.0993 228.472C66.0709 238.236 76.7589 246.047 76.7589 246.047Z" fill="#8EB400"/>
<path d="M40.3227 236.772C40.3227 236.772 45.6667 228.473 41.2943 217.244C36.4362 206.016 14.5745 203.087 14.5745 203.087C14.5745 203.087 15.0603 219.197 19.9184 227.496C25.2624 234.819 40.3227 236.772 40.3227 236.772Z" fill="#8EB400"/>
<path d="M108.337 266.063C108.337 266.063 114.652 264.598 117.081 254.346C119.511 244.094 110.28 231.401 110.28 231.401C110.28 231.401 98.6205 246.047 99.1063 254.834C100.078 263.622 108.337 266.063 108.337 266.063Z" fill="#8EB400"/>
<path d="M35.4645 258.253C35.4645 258.253 36.922 250.442 25.7482 245.072C14.0887 239.213 0 247.024 0 247.024C0 247.024 7.77305 257.276 16.0319 261.182C24.2908 265.087 35.4645 258.253 35.4645 258.253Z" fill="#8EB400"/>
<path d="M36.436 278.756C36.436 278.756 40.8084 285.102 30.1204 291.937C19.4325 299.26 2.42896 293.89 2.42896 293.89C2.42896 293.89 5.34385 281.197 15.0602 275.827C24.7765 271.433 36.436 278.756 36.436 278.756Z" fill="#8EB400"/>
<path d="M70.9295 295.355C70.9295 295.355 76.7592 302.678 69.472 311.465C62.1848 320.252 41.7805 317.811 41.7805 317.811C41.7805 317.811 44.2096 299.748 51.4968 295.355C58.2982 290.961 70.9295 295.355 70.9295 295.355Z" fill="#8EB400"/>
<path d="M92.7911 206.504C91.8194 206.504 91.3336 206.016 90.8478 205.039C90.362 204.063 90.8478 203.087 91.8194 202.598C93.2769 201.622 103.965 189.906 110.28 182.583C111.252 181.606 112.224 181.606 113.195 182.583C114.167 183.559 114.167 184.535 113.195 185.512C94.7343 206.016 94.2485 206.016 93.7627 206.016L92.7911 206.504Z" fill="#8EB400"/>
<path d="M168.093 102.031C168.093 100.567 168.578 99.5904 169.55 98.614C170.522 97.6377 171.493 97.1495 172.951 97.1495C174.408 97.1495 175.38 97.6377 176.351 98.614L176.837 99.1022L178.295 98.614L177.323 97.6377C176.351 96.6613 174.408 96.1731 172.951 96.1731C171.007 96.1731 169.55 97.1495 168.578 98.1259C167.607 99.1022 167.121 101.055 167.121 102.52C166.635 102.52 166.149 102.52 165.178 102.52C165.178 100.079 165.663 98.1258 167.121 96.6613C168.578 95.1967 170.522 94.2203 172.465 94.2203C174.894 94.2203 176.837 94.7085 178.295 96.1731C179.266 97.1495 179.752 98.1258 180.238 99.1022C179.266 99.5904 178.295 100.079 177.323 100.079C175.866 100.567 174.408 101.055 172.951 101.543C171.493 101.543 170.036 102.031 168.093 102.031ZM178.295 101.543C178.295 103.496 177.809 104.472 176.837 105.449C175.866 106.425 174.894 106.913 173.437 106.913C171.979 106.913 171.007 106.425 170.036 105.449L169.064 104.472C168.578 104.472 168.093 104.472 167.607 104.472C168.093 104.961 168.578 105.449 169.064 105.937C170.036 106.913 171.979 107.401 173.437 107.401C175.38 107.401 176.837 106.425 177.809 105.449C178.78 104.472 179.266 102.52 179.266 101.055V100.079C179.752 100.079 180.238 99.5904 180.724 99.5904L181.695 99.1022C181.21 97.1495 180.238 95.6849 178.78 94.7085C176.837 93.244 174.894 92.2676 171.979 92.2676C169.55 92.2676 167.121 93.7321 165.663 95.1967C164.206 97.1495 163.234 99.1022 163.234 102.031V103.008C163.72 105.449 164.692 107.401 166.635 108.866C168.578 110.331 170.522 111.307 172.951 110.819C175.38 110.819 177.809 109.354 179.266 107.89C180.724 105.937 181.695 103.984 181.695 101.055L180.238 101.543C180.238 103.496 179.266 105.449 178.295 106.913C176.837 108.378 174.894 109.354 172.951 109.354C171.007 109.354 169.064 108.866 167.607 107.401C166.149 106.425 165.178 104.961 164.692 103.008C167.607 103.008 170.522 102.52 172.465 102.031C174.894 102.52 176.351 102.031 178.295 101.543Z" fill="#8EB400"/>
<path d="M91.3331 22.9452C91.3331 20.9925 91.8189 19.5279 92.7906 18.0633C93.7622 16.5988 95.7055 16.1106 97.1629 16.1106C99.1062 16.1106 100.564 16.5988 102.021 17.5751L102.507 18.0633C102.993 18.0633 103.478 17.5751 103.964 17.5751L102.993 16.5988C101.535 15.1342 99.592 14.1578 97.1629 14.646C94.7338 15.1342 92.7906 15.6224 91.3331 17.5751C89.8757 19.0397 88.904 20.9925 89.3899 23.4334C88.4182 23.4334 87.9324 23.4334 86.9608 23.4334C86.9608 20.5043 87.9324 18.0633 89.8757 15.6224C91.8189 13.6696 94.248 12.2051 97.1629 12.2051C100.078 12.2051 102.507 13.1814 104.936 15.1342C105.908 16.1106 106.879 17.5751 107.851 19.0397C106.879 19.5279 105.422 20.0161 103.964 20.5043C102.021 20.9925 100.078 21.4807 98.1345 21.9688C95.7055 22.457 93.7622 22.457 91.3331 22.9452ZM103.964 21.4807V21.9688C103.964 23.9216 103.478 25.3862 102.507 26.8507C101.535 28.3153 99.592 28.8035 98.1345 28.8035C96.1913 28.8035 94.7338 28.3153 93.2764 27.3389L92.3047 26.3625C91.8189 26.3625 91.3331 26.3625 90.3615 26.8507C90.8473 27.8271 91.3331 28.3153 92.3047 28.8035C93.7622 30.2681 96.1913 31.2444 98.1345 30.7562C100.564 30.7562 102.507 29.7799 103.964 27.8271C105.422 26.3625 106.393 24.4098 105.908 21.9688V20.9925C106.879 20.5043 107.365 20.5043 108.337 20.0161L109.308 19.5279C108.822 17.087 107.365 15.1342 105.422 13.6696C102.993 11.7169 100.078 10.2523 96.6771 10.7405C93.2764 10.7405 90.3615 12.2051 88.4182 14.646C86.475 17.0869 85.0175 20.0161 85.5033 23.4334V24.898C85.9892 27.8271 87.4466 30.7562 89.8757 32.709C92.3047 34.6618 95.2196 35.6381 98.1345 35.6381C101.535 35.6381 104.45 34.1736 106.393 31.7326C108.337 29.2917 109.794 26.3625 109.308 22.9452C108.822 22.9452 108.337 23.4334 107.851 23.4334C107.851 26.3625 106.879 28.8035 104.936 30.7562C102.993 32.709 100.564 34.1736 97.6487 34.1736C94.7338 34.1736 92.3047 33.1972 90.3615 31.7326C89.3899 29.2917 87.9324 27.3389 87.4466 24.898C91.8189 24.4098 94.7338 24.4098 97.6487 23.4334C100.078 22.9452 102.021 22.457 103.964 21.4807Z" fill="#8EB400"/>
<path d="M176.351 296.33C176.351 294.377 176.837 291.937 178.294 290.472C179.752 289.007 181.695 288.031 183.638 288.031C185.582 288.031 188.011 288.519 189.468 289.984L189.954 290.472C190.44 289.984 191.411 289.984 191.897 289.496C191.411 289.007 190.926 288.519 190.44 288.031C188.497 286.566 186.068 285.102 183.153 285.59C180.238 285.59 177.809 287.055 176.351 289.007C174.894 290.96 173.436 293.401 173.922 296.33C172.95 296.33 171.979 296.33 171.007 296.33C171.007 292.913 171.979 289.496 174.408 287.055C176.837 284.614 179.752 283.149 183.153 282.661C186.553 282.661 189.954 283.637 192.383 286.078C193.841 287.543 194.812 289.007 195.784 290.96C194.326 291.448 192.869 292.425 190.926 292.913C188.497 293.889 186.068 294.377 183.638 294.866C181.695 295.842 178.78 296.33 176.351 296.33ZM191.897 294.866V295.354C191.897 297.307 191.411 299.748 189.954 301.212C188.497 302.677 186.553 303.653 184.61 303.653C182.181 303.653 180.238 303.165 178.78 301.7C178.294 301.212 177.809 300.724 177.323 300.236C176.837 300.236 175.865 300.236 174.894 300.724C175.38 301.7 176.351 302.677 176.837 303.165C178.78 304.629 181.209 306.094 184.124 305.606C187.039 305.606 189.468 304.141 190.926 302.189C192.383 300.236 193.841 297.795 193.355 294.866V293.401C194.326 292.913 195.298 292.913 196.27 292.425L198.213 291.448C197.727 288.519 195.784 286.078 193.841 284.125C190.926 281.685 187.039 280.22 183.153 280.22C179.266 280.22 175.38 282.173 172.95 285.102C170.521 288.031 169.064 291.937 169.064 295.842C169.064 296.33 169.064 296.818 169.064 297.307C169.55 301.212 171.493 304.141 174.408 306.582C177.323 309.023 180.724 310 184.61 310C188.497 310 192.383 308.047 194.812 305.118C197.241 302.189 198.699 298.283 198.699 294.377C198.213 294.866 197.241 294.866 196.755 295.354C196.755 298.771 195.784 301.7 193.355 304.141C191.411 306.582 188.011 308.047 184.61 308.535C181.209 308.535 178.294 307.559 175.865 305.606C173.922 303.653 171.979 301.212 171.493 298.283C176.351 297.795 180.724 297.307 184.124 296.818C187.039 296.818 189.468 295.842 191.897 294.866Z" fill="#8EB400"/>
<g clip-path="url(#clip0)">
<path d="M336.628 188.093C336.195 186.8 335.979 185.291 335.546 183.997C335.33 182.704 335.114 181.41 334.681 180.117C334.465 179.47 333.816 179.039 333.168 179.039C332.735 178.823 332.086 178.823 331.438 179.254C331.221 179.47 331.005 179.47 330.789 179.685C330.14 180.117 329.924 180.979 330.14 181.626C331.87 187.662 320.841 187.015 315.868 187.015C314.786 183.566 314.354 180.117 313.489 176.452C315.219 175.589 318.246 174.511 318.679 176.452C319.111 178.392 322.355 177.745 322.139 175.805C321.706 173.433 321.058 171.062 320.625 168.691C320.625 168.475 320.625 168.259 320.409 167.828V167.397C319.976 165.457 316.733 166.104 316.949 168.044C316.949 168.691 317.165 169.122 317.165 169.768C317.165 170.2 317.165 170.415 316.949 170.631C316.516 171.062 315.219 171.062 314.57 171.278C313.705 171.493 312.84 171.278 312.191 171.493C311.759 169.553 311.326 167.613 310.894 165.672C310.461 163.732 310.245 161.792 310.029 159.852C313.489 158.989 326.248 154.246 327.113 159.852C327.329 161.145 328.194 161.576 329.491 161.361C329.924 161.361 330.356 161.145 330.789 160.93C331.654 160.498 332.086 159.636 331.87 158.774C330.789 154.246 331.221 147.994 324.734 149.719C321.49 150.581 318.463 151.875 315.003 152.522C310.678 153.384 305.704 154.678 301.379 154.246C300.73 154.246 300.298 154.462 299.865 154.893C298.135 155.54 299.216 158.558 301.379 157.911H301.595C301.595 158.127 301.595 158.342 301.595 158.558C303.325 168.475 307.001 177.745 308.948 187.662L308.731 187.878C307.218 188.955 306.353 190.033 306.785 191.758C306.785 192.189 306.785 192.62 306.785 193.052C306.785 193.914 307.65 194.776 308.731 194.776C313.056 194.13 317.381 193.483 321.706 192.836C323.869 192.405 326.031 192.189 328.194 191.974C330.573 191.758 332.951 190.68 335.33 190.465C336.411 190.249 337.06 189.171 336.628 188.093Z" fill="#FAA61A"/>
<path d="M361.496 180.764C359.766 180.332 359.334 176.021 358.901 174.727C358.252 172.356 356.955 170.416 355.009 168.691C351.116 165.457 346.359 167.613 343.331 170.847C343.115 170.2 342.682 169.553 342.466 168.691C342.034 168.044 341.169 167.829 340.52 168.044C339.222 168.475 337.925 168.906 336.627 169.338C334.465 169.984 335.546 173.218 337.709 172.571L337.925 172.787L338.357 173.218C339.439 174.512 339.006 177.099 339.006 178.608C339.006 179.039 340.087 182.919 339.871 183.135C338.79 183.351 338.357 183.997 338.141 185.075C338.141 185.938 338.357 186.8 338.574 187.662C338.79 188.309 339.655 188.956 340.304 188.956C343.331 188.309 346.359 187.878 349.386 187.231C350.467 187.016 350.684 185.938 350.467 185.075C349.819 182.488 346.575 183.351 345.926 181.41L345.71 181.195C345.494 180.117 345.494 179.039 345.494 177.961C345.494 177.745 345.494 177.53 345.494 177.314C345.71 175.158 346.791 173.003 349.17 172.14C352.846 170.631 355.009 177.961 355.874 181.626H355.657C355.009 181.841 354.576 182.273 354.576 182.919C354.576 183.566 354.576 184.213 354.576 184.86C354.576 185.938 355.874 186.8 356.955 186.369C359.334 185.506 363.01 185.938 363.01 182.273C363.01 181.626 362.361 180.979 361.496 180.764Z" fill="#FAA61A"/>
<path d="M388.095 191.759C386.798 192.405 385.284 193.052 383.554 193.699C383.554 193.268 383.554 192.836 383.338 192.405C383.986 182.273 384.635 172.356 385.284 162.223C385.284 161.146 384.635 160.068 383.338 160.068C382.689 160.068 382.04 160.283 381.391 160.499C380.526 160.714 380.31 161.577 380.31 162.223C380.31 162.87 380.31 163.301 380.31 163.948C378.148 162.008 374.688 161.577 371.876 163.301C367.551 165.673 366.254 170.631 366.254 175.159C366.254 179.255 368.2 183.782 372.525 184.644C375.553 185.291 377.931 183.997 380.094 182.057C380.094 186.585 379.661 191.327 378.58 195.855L378.148 196.07C372.093 198.442 366.686 202.322 364.308 208.359C362.361 213.533 365.173 219.784 371.011 220C376.418 220.216 380.743 216.12 382.256 211.161C383.554 206.849 383.338 202.107 383.554 197.579C385.716 196.717 387.879 195.855 390.041 194.777C391.988 193.699 390.041 190.681 388.095 191.759ZM377.931 179.039C376.201 181.195 372.958 181.626 371.228 179.686C372.741 180.548 374.904 180.333 376.85 179.47C377.499 179.255 377.931 178.823 378.58 178.392C378.148 178.823 377.931 179.039 377.931 179.039ZM378.148 173.218C377.715 175.159 373.174 178.823 372.093 175.805C371.444 174.296 371.876 172.572 372.741 171.062L373.174 170.847C375.769 168.691 379.013 169.122 378.148 173.218ZM369.498 212.239C368.2 210.514 369.498 207.496 370.363 205.772C372.093 202.538 376.201 200.597 379.445 199.304H379.661C379.445 203.616 378.58 207.712 376.201 210.946C374.904 212.239 371.228 214.395 369.498 212.239Z" fill="#FAA61A"/>
<path d="M407.774 175.804C406.909 173.649 406.26 170.63 403.016 170.846C401.935 171.062 401.07 171.924 401.502 173.217C401.935 174.511 399.124 174.942 396.529 175.158C395.88 171.924 395.015 168.906 394.366 165.672C394.15 164.594 393.934 163.301 393.717 162.223C393.069 158.989 392.852 155.755 392.636 152.306L393.501 152.09C395.664 151.443 394.582 148.21 392.42 148.856C390.257 149.503 387.879 150.365 385.5 150.581C383.337 150.797 383.554 154.246 385.716 154.03C386.149 154.03 386.581 153.815 387.014 153.815C388.311 157.264 389.176 160.929 389.825 164.378C390.041 165.888 391.987 174.727 389.825 175.373C389.176 175.589 388.527 176.451 388.527 177.098C388.744 177.96 388.744 178.607 388.96 179.469C389.176 180.116 390.041 180.763 390.69 180.763C395.88 180.332 400.854 179.038 405.827 178.391C407.341 177.96 408.206 176.882 407.774 175.804Z" fill="#FAA61A"/>
<path d="M424.642 154.031C423.56 154.246 422.479 154.462 421.398 154.893C420.749 155.109 420.1 155.971 420.1 156.618C420.1 157.48 420.317 158.342 420.533 159.205L420.317 158.989C419.019 157.911 417.505 157.48 415.559 158.127C409.504 158.989 406.044 167.397 408.855 173.218C410.369 176.236 414.262 177.314 417.289 175.589C419.019 174.727 420.533 173.218 421.398 171.493C421.614 172.571 422.047 173.864 422.263 174.942C422.479 175.589 422.912 176.02 423.56 176.02C423.993 176.02 424.425 176.236 424.858 176.236H425.29C426.372 176.451 427.669 176.02 427.669 174.511C427.237 168.475 425.507 162.223 426.372 155.971C426.588 155.109 425.939 153.815 424.642 154.031ZM417.505 168.475C417.289 169.553 415.775 170.415 414.694 170.2C412.748 169.984 412.748 166.535 413.397 165.241C413.613 165.026 413.613 164.81 413.613 164.594C413.829 164.379 414.045 163.948 414.262 163.732C414.478 163.516 414.694 163.301 414.91 163.085C415.127 162.87 415.343 162.654 415.559 162.87C417.505 162.87 417.938 166.75 417.505 168.475Z" fill="#FAA61A"/>
<path d="M444.32 156.187C442.807 154.462 440.86 153.815 438.698 154.462C436.752 155.109 435.238 156.402 434.157 158.127C433.94 157.049 433.94 155.971 433.94 154.893C433.94 153.169 431.994 152.953 431.129 153.815C430.048 153.815 428.75 154.678 429.183 156.187C429.832 158.989 429.399 161.792 429.615 164.379C429.832 167.397 431.129 169.984 430.697 173.002C430.48 174.296 431.562 175.374 433.075 174.943C433.724 174.727 434.589 174.511 435.454 174.296C436.103 174.08 436.752 173.218 436.752 172.571C435.887 168.259 436.319 163.301 439.779 160.498C443.239 157.911 443.023 170.415 443.239 171.709C443.455 172.787 444.537 173.865 445.618 173.218C446.267 173.002 446.699 172.787 447.348 172.571C447.997 172.356 448.645 171.709 448.645 170.846C447.564 165.888 447.564 160.067 444.32 156.187Z" fill="#FAA61A"/>
<path d="M471.351 162.008C470.919 159.421 470.486 156.618 470.054 154.031C469.621 150.797 468.972 147.779 468.54 144.545C468.324 143.252 468.107 142.174 468.107 140.88C468.107 140.449 468.107 140.018 468.107 139.587V139.371C468.756 138.078 467.026 136.353 465.729 137.215C464.431 136.784 462.917 137.862 463.35 139.371C463.566 140.234 463.783 141.096 463.999 141.958C463.999 144.976 464.431 147.995 464.864 150.797C464.864 152.091 464.864 153.384 464.864 154.678V154.893C462.701 152.522 459.025 152.737 455.997 154.247C452.105 156.402 450.375 159.852 450.375 164.163C450.375 167.828 452.321 172.14 456.214 172.356C460.322 172.571 463.35 169.984 465.296 166.535C465.296 168.26 465.296 169.769 465.296 171.493C465.296 172.571 466.594 173.434 467.675 173.002C468.324 172.787 469.189 172.356 469.837 172.356C470.27 172.14 470.702 171.709 470.919 171.278C471.351 171.062 471.784 170.631 472 169.984C472.216 167.182 471.567 164.595 471.351 162.008ZM461.404 163.086C460.322 165.457 458.376 166.104 456.646 163.948L456.214 163.732C456.43 162.223 456.862 160.714 457.295 160.067C458.376 158.774 460.539 158.558 461.62 159.852C462.269 160.714 461.836 162.008 461.404 163.086Z" fill="#FAA61A"/>
</g>
<path d="M451.434 75.4061C451.434 75.4061 453.152 62.3641 466.88 61.6721C480.607 60.9801 483.807 74.5137 473.975 85.9185C464.143 97.3233 450.049 109.954 450.049 109.954C450.049 109.954 432.999 98.3385 423.981 85.0489C415.004 71.3505 418.32 58.8812 428.482 56.5939C438.644 54.3066 444.793 63.18 447.621 68.0051C450.409 73.239 451.434 75.4061 451.434 75.4061Z" fill="#ED1C24"/>
<path d="M442.582 72.8697C442.991 68.7813 439.179 65.5096 435.04 65.5087C433.032 64.895 430.574 64.6492 429.099 66.9793C427.665 68.9006 428.199 71.8444 429.674 73.6437C432.257 76.7924 441.559 78.9613 442.582 72.8697ZM435.533 68.8614C436.353 68.9434 437.172 69.0253 437.541 69.4751C436.762 68.9843 435.943 68.9024 435.533 68.8614Z" fill="white"/>
<path d="M511.929 117.686C511.929 117.686 515.787 111.324 523.052 114.089C530.318 116.854 528.895 124.59 521.209 128.259C513.523 131.927 503.351 135.26 503.351 135.26C503.351 135.26 497.166 125.366 495.52 116.433C493.988 107.297 498.543 101.595 504.325 102.722C510.108 103.85 511.272 109.844 511.639 112.986C511.892 116.331 511.929 117.686 511.929 117.686Z" fill="#FAA61A"/>
<path d="M507.923 114.358C509.065 112.334 507.835 109.773 505.693 108.831C504.792 108.056 503.575 107.369 502.281 108.24C501.102 108.909 500.708 110.555 501.063 111.822C501.684 114.04 506.007 117.28 507.923 114.358ZM505.185 110.679C505.59 110.908 505.996 111.137 506.085 111.454C505.793 111.022 505.388 110.793 505.185 110.679Z" fill="white"/>
<defs>
<clipPath id="clip0">
<rect width="173" height="83" fill="white" transform="translate(299 137)"/>
</clipPath>
</defs>
</svg>
