<svg width="156" height="79" viewBox="0 0 156 79" fill="none" xmlns="http://www.w3.org/2000/svg">
<g clip-path="url(#clip0)">
<path d="M66.1219 36.3436C66.0859 35.5134 66.2147 34.5946 66.1786 33.7644C66.2707 32.9716 66.3629 32.1788 66.3268 31.3486C66.3088 30.9335 65.9977 30.5696 65.6131 30.4574C65.3935 30.2568 65.009 30.1446 64.551 30.2843C64.3861 30.3728 64.2579 30.3355 64.093 30.424C63.6351 30.5637 63.36 31.0299 63.3781 31.445C63.3754 35.2695 56.9485 32.9855 54.0005 32.1258C53.947 29.9244 54.2781 27.8351 54.3896 25.5452C55.5619 25.3406 57.5399 25.2343 57.4658 26.4422C57.3918 27.6502 59.4246 27.8331 59.6268 26.6626C59.7743 25.2028 59.7937 23.7057 59.9412 22.246C59.9779 22.1201 60.0146 21.9942 59.9599 21.705L60.0333 21.4531C60.1074 20.2452 58.0746 20.0623 57.8723 21.2328C57.7622 21.6105 57.8169 21.8997 57.7068 22.2775C57.6334 22.5293 57.5966 22.6552 57.4317 22.7437C57.102 22.9208 56.3329 22.6965 55.9116 22.7103C55.3622 22.6867 54.8862 22.4113 54.465 22.425C54.5391 21.2171 54.6132 20.0092 54.6872 18.8013C54.7613 17.5934 54.9636 16.4228 55.1659 15.2523C57.3636 15.3467 65.7338 14.782 65.2919 18.2051C65.1997 18.9979 65.639 19.3992 66.4448 19.4976C66.7012 19.5724 66.9942 19.5212 67.2873 19.4701C67.8734 19.3677 68.2767 18.9389 68.2953 18.3979C68.4255 15.5669 69.7466 11.9904 65.6075 11.8763C63.538 11.8193 61.5233 12.0514 59.3623 11.8311C56.6519 11.5872 53.4835 11.4829 50.9934 10.4836C50.6088 10.3714 50.3158 10.4226 49.986 10.5997C48.8504 10.6784 48.9773 12.6279 50.3692 12.624L50.4974 12.6614C50.4607 12.7873 50.4239 12.9132 50.3872 13.0391C49.7237 19.1299 50.324 25.1793 49.7886 31.3074L49.6238 31.396C48.5429 31.7638 47.8466 32.2439 47.8093 33.3259C47.7358 33.5777 47.6624 33.8295 47.589 34.0813C47.4421 34.585 47.808 35.2381 48.4489 35.425C51.1225 35.7948 53.7962 36.1646 56.4699 36.5345C57.8251 36.6564 59.1436 36.9043 60.4621 37.1522C61.9088 37.4374 63.5023 37.219 64.949 37.5043C65.6266 37.5653 66.1947 37.0479 66.1219 36.3436Z" fill="#F5A300"/>
<path d="M82.1106 36.3612C81.1586 35.8104 81.6365 33.2175 81.6005 32.3873C81.6198 30.8902 81.1812 29.5328 80.3213 28.1891C78.5649 25.6277 75.3778 26.0645 73.0326 27.4298C73.0146 27.0147 72.8683 26.5622 72.887 26.0212C72.7408 25.5687 72.2648 25.2933 71.8436 25.3071C71.0011 25.3346 70.1586 25.3622 69.3161 25.3897C67.9242 25.3937 68.0143 27.4692 69.4062 27.4652L69.4977 27.6285L69.6806 27.9551C70.1012 28.8974 69.4043 30.3336 69.1473 31.2149C69.0738 31.4667 69.0538 33.9199 68.889 34.0085C68.2113 33.9475 67.8448 34.2505 67.5331 34.8426C67.3862 35.3462 67.3675 35.8873 67.3489 36.4283C67.3669 36.8434 67.7695 37.3706 68.154 37.4827C70.0586 37.6283 71.9265 37.8998 73.8312 38.0453C74.5088 38.1063 74.8205 37.5141 74.8392 36.9731C74.8953 35.3501 72.8257 35.2931 72.7716 34.0478L72.6802 33.8845C72.7356 33.2176 72.9192 32.588 73.1027 31.9585C73.1395 31.8326 73.1762 31.7067 73.2129 31.5808C73.7082 30.3591 74.7163 29.2869 76.2731 29.1944C78.7091 28.9485 78.7425 33.6031 78.6311 35.8931L78.5029 35.8557C78.0817 35.8695 77.7519 36.0465 77.6417 36.4242C77.5316 36.802 77.4214 37.1797 77.3113 37.5574C77.1277 38.1869 77.7499 38.9148 78.4642 38.8499C80.021 38.7574 82.1266 39.6447 82.7508 37.5042C82.8609 37.1265 82.5865 36.6367 82.1106 36.3612Z" fill="#F5A300"/>
<path d="M96.004 47.3801C95.1248 47.5336 94.1174 47.6497 92.9819 47.7284C93.0553 47.4766 93.1287 47.2247 93.074 46.9356C95.1841 41.13 97.2576 35.4504 99.3678 29.6449C99.5513 29.0154 99.3504 28.2737 98.5813 28.0495C98.1968 27.9373 97.7755 27.9511 97.3543 27.9649C96.8049 27.9413 96.5298 28.4075 96.4197 28.7852C96.3095 29.163 96.2361 29.4148 96.126 29.7925C95.1746 28.2856 93.1972 27.4357 91.2372 27.957C88.2698 28.5945 86.6563 31.2661 85.8852 33.9101C85.1876 36.3024 85.5702 39.2828 87.9869 40.534C89.6712 41.435 91.3015 41.0907 92.9137 40.3313C92.1426 42.9754 91.0785 45.6706 89.6666 48.1278L89.3736 48.1789C85.3807 48.5173 81.5154 49.8492 79.0774 52.9635C77.0426 55.6488 77.6442 59.7861 81.0683 60.9212C84.236 61.9815 87.4971 60.3368 89.2388 57.7026C90.7422 55.4087 91.4218 52.6014 92.321 49.9947C93.7496 49.8649 95.1782 49.735 96.6436 49.4792C97.9808 49.1861 97.3412 47.087 96.004 47.3801ZM92.1459 38.1949C90.7533 39.1549 88.7573 38.8461 88.0623 37.4139C88.8127 38.1791 90.1311 38.427 91.4316 38.2598C91.8528 38.246 92.1826 38.069 92.6406 37.9293C92.3108 38.1063 92.1459 38.1949 92.1459 38.1949ZM93.2654 34.8327C92.6786 35.8911 89.3627 37.2466 89.2359 35.2971C89.1083 34.3036 89.6584 33.3711 90.4281 32.6392L90.7212 32.5881C92.6265 31.7775 94.4757 32.59 93.2654 34.8327ZM81.4928 56.1269C81.0174 54.8953 82.3005 53.3569 83.107 52.4992C84.6831 50.9096 87.4489 50.4866 89.5919 50.2918L89.7201 50.3292C88.8576 52.8099 87.6473 55.0527 85.6866 56.5301C84.6972 57.0613 82.151 57.685 81.4928 56.1269Z" fill="#F5A300"/>
<path d="M110.385 41.4638C110.24 40.0552 110.369 38.1804 108.41 37.7456C107.732 37.6846 107.073 38.0388 107.109 38.869C107.145 39.6992 105.405 39.4651 103.83 39.1424C103.996 37.1417 103.998 35.2295 104.164 33.2287C104.219 32.5618 104.311 31.769 104.367 31.1021C104.533 29.1013 104.955 27.1754 105.415 25.1235L105.964 25.1471C107.356 25.1431 107.266 23.0676 105.874 23.0716C104.482 23.0755 102.925 23.168 101.479 22.8827C100.16 22.6349 99.7009 24.6868 101.019 24.9346C101.276 25.0094 101.569 24.9582 101.825 25.033C102.007 27.2718 101.895 29.5617 101.692 31.6884C101.564 32.6071 101.212 38.1057 99.8199 38.1096C99.3986 38.1234 98.8672 38.5149 98.7571 38.8926C98.7384 39.4336 98.6283 39.8114 98.6096 40.3524C98.6276 40.7675 99.0302 41.2947 99.4147 41.4068C102.564 42.0521 105.733 42.1563 108.791 42.6383C109.762 42.6481 110.458 42.1681 110.385 41.4638Z" fill="#F5A300"/>
<path d="M124.091 31.6629C123.414 31.6019 122.736 31.5409 122.022 31.6058C121.601 31.6196 121.069 32.0111 120.959 32.3888C120.812 32.8924 120.793 33.4335 120.775 33.9745L120.683 33.8112C120.098 32.9574 119.274 32.4439 118.01 32.4852C114.274 31.9423 110.792 36.2546 111.467 40.14C111.85 42.1644 113.974 43.4667 116.062 42.9828C117.234 42.7781 118.388 42.1584 119.195 41.3007C119.139 41.9676 119.175 42.7978 119.12 43.4647C119.138 43.8798 119.321 44.2064 119.705 44.3185C119.962 44.3933 120.181 44.5939 120.438 44.6687L120.694 44.7434C121.298 45.0562 122.141 45.0287 122.398 44.1473C123.17 40.5472 123.209 36.5969 124.786 33.095C125.061 32.6288 124.897 31.7612 124.091 31.6629ZM117.402 38.8652C117.09 39.4573 116.046 39.6993 115.441 39.3865C114.325 38.9242 114.912 36.9097 115.517 36.2664C115.682 36.1779 115.718 36.052 115.755 35.9261C115.92 35.8375 116.122 35.6231 116.287 35.5346C116.451 35.446 116.616 35.3575 116.781 35.269C116.946 35.1804 117.111 35.0919 117.203 35.2552C118.356 35.5916 117.952 37.9327 117.402 38.8652Z" fill="#F5A300"/>
<path d="M135.388 36.3232C134.785 35.0543 133.741 34.3402 132.349 34.3441C131.086 34.3854 129.968 34.8792 129.033 35.6996C129.089 35.0327 129.272 34.4032 129.456 33.7736C129.75 32.7664 128.633 32.3041 127.973 32.6582C127.332 32.4713 126.417 32.7506 126.416 33.7068C126.323 35.4557 125.589 37.0177 125.277 38.566C124.891 40.3661 125.22 42.1012 124.449 43.7892C124.101 44.5072 124.558 45.3237 125.529 45.3335C125.95 45.3197 126.499 45.3433 127.049 45.3669C127.47 45.3531 128.002 44.9617 128.112 44.5839C128.333 41.9163 129.434 39.0952 131.962 38.0564C134.454 37.1436 132.196 44.4088 132.104 45.2016C132.048 45.8685 132.506 46.685 133.257 46.4941C133.678 46.4804 133.971 46.4292 134.392 46.4154C134.814 46.4017 135.308 46.1361 135.455 45.6324C135.659 42.5497 136.65 39.1502 135.388 36.3232Z" fill="#F5A300"/>
<path d="M150.419 44.3948C150.603 42.8092 150.824 41.0976 151.008 39.512C151.303 37.5486 151.432 35.6738 151.727 33.7104C151.819 32.9176 151.874 32.2507 152.094 31.4952C152.168 31.2434 152.241 30.9916 152.315 30.7398L152.351 30.6139C152.956 29.9706 152.225 28.6643 151.309 28.9437C150.613 28.4676 149.532 28.8355 149.532 29.7916C149.513 30.3326 149.494 30.8736 149.475 31.4146C148.961 33.1773 148.704 35.0148 148.483 36.7263C148.263 37.4818 148.042 38.2372 147.822 38.9926L147.785 39.1186C146.907 37.3598 144.692 36.8503 142.64 37.2084C139.966 37.7946 138.353 39.5101 137.619 42.0283C136.994 44.1687 137.414 47.0232 139.684 47.8219C142.083 48.658 144.318 47.6704 146.059 45.9923C145.765 46.9996 145.508 47.8809 145.214 48.8882C145.031 49.5177 145.653 50.2456 146.367 50.1807C146.789 50.1669 147.375 50.0646 147.759 50.1767C148.052 50.1256 148.382 49.9485 148.584 49.7341C148.877 49.6829 149.207 49.5059 149.445 49.1655C150.05 47.5661 150.107 45.9431 150.419 44.3948ZM144.339 43.305C143.294 44.5031 142.031 44.5444 141.372 42.9863L141.153 42.7857C141.538 41.9417 142.051 41.1351 142.418 40.8321C143.279 40.2636 144.598 40.5114 145.018 41.4538C145.256 42.0695 144.779 42.7502 144.339 43.305Z" fill="#F5A300"/>
</g>
<g clip-path="url(#clip1)">
<path d="M31.8325 39.2153C26.405 43.3485 19.1388 41.3544 13.4827 44.8921C9.50159 47.4452 9.64298 54.0531 13.3083 56.9169C23.8918 65.3249 32.9553 49.7173 35.3612 41.2774C35.7986 39.7429 34.1834 38.6546 33.1397 39.0552C32.7272 38.8719 32.2798 39.0436 31.8325 39.2153Z" fill="#8EB400"/>
<path d="M35.6719 40.3038C35.7862 40.6016 35.7514 40.9566 35.7166 41.3116C33.9097 47.3008 28.8771 56.9197 22.2022 59.1401C19.1629 60.1359 16.1486 59.4138 13.2735 57.2717C12.0136 56.2178 11.1439 54.8434 10.6644 53.1484C9.93387 50.3539 10.6373 46.8382 13.5399 45.0407C16.2934 43.3005 19.355 42.8087 22.4737 42.4657C25.6273 41.7677 28.838 41.2186 31.6263 39.1234C32.0164 38.8028 32.67 38.7228 33.0825 38.9061C33.6789 38.6772 34.0914 38.8605 34.653 38.9866C35.1227 39.3188 35.5004 39.8571 35.6719 40.3038Z" fill="#8EB400"/>
<path d="M15.7662 53.0693C15.8555 55.0849 18.1243 56.0931 19.844 56.1164C21.919 56.174 24.1332 54.8117 24.6403 52.5671C24.7099 51.8571 23.942 51.6393 23.3456 51.8683C21.3402 51.1006 15.6892 50.1948 15.7662 53.0693Z" fill="white"/>
<path d="M34.6636 30.0999C34.6636 30.0999 23.6646 33.98 16.2369 32.9021C8.95822 31.7669 5.1339 27.5975 8.13103 23.3722C11.1282 19.1469 21.0632 23.1915 23.5035 24.6464C26.2419 25.9869 34.6636 30.0999 34.6636 30.0999Z" fill="#8EB400"/>
<path d="M13.5062 24.8964C13.0589 25.0681 12.7831 25.6865 13.1608 26.2248L13.2179 26.3737C13.3322 26.6715 13.5385 26.7631 13.8938 26.7975C15.1314 27.3475 16.4733 26.8324 17.6661 26.3745C18.1135 26.2028 18.3322 25.4356 18.0116 25.0461C17.8973 24.7484 17.4848 24.5651 17.3357 24.6223C16.866 24.2901 16.2473 24.0151 15.7428 24.0379C14.791 24.2324 14.2518 24.6102 13.5062 24.8964Z" fill="white"/>
</g>
<defs>
<clipPath id="clip0">
<rect width="106.813" height="50.4933" fill="white" transform="translate(52.5205) rotate(16.2571)"/>
</clipPath>
<clipPath id="clip1">
<rect width="30.8243" height="39.0731" fill="white" transform="translate(42.7788 51.2422) rotate(159.001)"/>
</clipPath>
</defs>
</svg>
